<svg width="1781" height="441" viewBox="0 0 1781 441" fill="none" xmlns="http://www.w3.org/2000/svg">
<g clip-path="url(#clip0_13_6962)">
<path d="M1780.77 160.039C1728.66 110.862 1597.51 28.6814 1489.75 93.3767C1355.04 174.246 1215.4 134.358 1139.4 93.3767C1063.4 52.3957 887.915 0.486352 758.775 93.3767C629.635 186.267 522.121 216.866 378.77 181.349C235.418 145.832 224.914 40.9209 130.376 93.3766C54.7456 135.341 12.7699 191.731 1.23588 214.68" stroke="#FFAD41"/>
<path d="M1780.77 174.206C1728.66 125.029 1597.51 42.8483 1489.75 107.544C1355.04 188.413 1215.4 148.525 1139.4 107.544C1063.4 66.5627 887.915 14.6533 758.775 107.544C629.635 200.434 522.121 231.033 378.77 195.516C235.418 159.999 224.914 55.0879 130.376 107.544C54.7456 149.508 12.7699 205.898 1.23588 228.847" stroke="#FFAD41"/>
<path d="M1779.54 126.257C1727.43 77.0797 1596.27 -5.10087 1488.51 59.5945C1353.81 140.464 1214.16 100.575 1138.16 59.5945C1062.16 18.6134 886.68 -33.2959 757.54 59.5944C628.399 152.485 520.886 183.084 377.534 147.567C234.182 112.05 223.678 7.13868 129.14 59.5944C53.5098 101.559 11.5341 157.949 4.13299e-05 180.898" stroke="#FFAD41"/>
<path d="M1780.77 132.796C1728.66 83.6188 1597.51 1.43819 1489.75 66.1336C1355.04 147.003 1215.4 107.115 1139.4 66.1335C1063.4 25.1525 887.915 -26.7568 758.775 66.1335C629.635 159.024 522.121 189.623 378.77 154.106C235.418 118.589 224.914 13.6777 130.376 66.1334C54.7456 108.098 12.7699 164.488 1.23588 187.437" stroke="#FFAD41"/>
<path d="M1780.77 139.334C1728.66 90.1569 1597.51 7.97628 1489.75 72.6716C1355.04 153.541 1215.4 113.653 1139.4 72.6716C1063.4 31.6906 887.915 -20.2187 758.775 72.6716C629.635 165.562 522.121 196.161 378.77 160.644C235.418 125.127 224.914 20.2158 130.376 72.6715C54.7456 114.636 12.7699 171.026 1.23588 193.975" stroke="#FFAD41"/>
<path d="M1780.77 145.873C1728.66 96.696 1597.51 14.5153 1489.75 79.2107C1355.04 160.08 1215.4 120.192 1139.4 79.2107C1063.4 38.2296 887.915 -13.6797 758.775 79.2106C629.635 172.101 522.121 202.7 378.77 167.183C235.418 131.666 224.914 26.7549 130.376 79.2106C54.7456 121.175 12.7699 177.565 1.23588 200.514" stroke="#FFAD41"/>
<path d="M1780.77 152.411C1728.66 103.234 1597.51 21.0534 1489.75 85.7488C1355.04 166.618 1215.4 126.73 1139.4 85.7488C1063.4 44.7677 887.915 -7.14157 758.775 85.7487C629.635 178.639 522.121 209.238 378.77 173.721C235.418 138.204 224.914 33.293 130.376 85.7487C54.7456 127.713 12.7699 184.103 1.23588 207.052" stroke="#FFAD41"/>
<path d="M1780.77 118.629C1728.66 69.4518 1597.51 -12.7288 1489.75 51.9666C1355.04 132.836 1215.4 92.9476 1139.4 51.9665C1063.4 10.9855 887.915 -40.9238 758.775 51.9665C629.635 144.857 522.121 175.456 378.77 139.939C235.418 104.422 224.914 -0.489254 130.376 51.9664C54.7456 93.931 12.7699 150.321 1.23588 173.27" stroke="#FFAD41"/>
<path d="M1780.77 165.488C1728.66 116.311 1597.51 34.1306 1489.75 98.8259C1355.04 179.695 1215.4 139.807 1139.4 98.8259C1063.4 57.8449 887.915 5.93558 758.775 98.8259C629.635 191.716 522.121 222.315 378.77 186.798C235.418 151.282 224.914 46.3701 130.376 98.8258C54.7456 140.79 12.7699 197.18 1.23588 220.13" stroke="#FFAD41"/>
<path d="M1780.77 180.745C1728.66 131.568 1597.51 49.3874 1489.75 114.083C1355.04 194.952 1215.4 155.064 1139.4 114.083C1063.4 73.1017 887.915 21.1924 758.775 114.083C629.635 206.973 522.121 237.572 378.77 202.055C235.418 166.538 224.914 61.627 130.376 114.083C54.7456 156.047 12.7699 212.437 1.23588 235.386" stroke="#FFAD41"/>
<path d="M1780.77 188.373C1728.66 139.196 1597.51 57.0153 1489.75 121.711C1355.04 202.58 1215.4 162.692 1139.4 121.711C1063.4 80.7296 887.915 28.8203 758.775 121.711C629.635 214.601 522.121 245.2 378.77 209.683C235.418 174.166 224.914 69.2549 130.376 121.711C54.7456 163.675 12.7699 220.065 1.23588 243.014" stroke="#FFAD41"/>
<path d="M1780.77 204.719C1728.66 155.542 1597.51 73.361 1489.75 138.056C1355.04 218.926 1215.4 179.037 1139.4 138.056C1063.4 97.0753 887.915 45.166 758.775 138.056C629.635 230.947 522.121 261.546 378.77 226.029C235.418 190.512 224.914 85.6006 130.376 138.056C54.7456 180.021 12.7699 236.411 1.23588 259.36" stroke="#FFAD41"/>
<path d="M1780.77 196.001C1728.66 146.824 1597.51 64.6433 1489.75 129.339C1355.04 210.208 1215.4 170.32 1139.4 129.339C1063.4 88.3576 887.915 36.4483 758.775 129.339C629.635 222.229 522.121 252.828 378.77 217.311C235.418 181.794 224.914 76.8828 130.376 129.339C54.7456 171.303 12.7699 227.693 1.23588 250.642" stroke="#FFAD41"/>
<path d="M1780.77 269.015C1728.66 219.838 1597.51 137.657 1489.75 202.352C1355.04 283.221 1215.4 243.333 1139.4 202.352C1063.4 161.371 887.915 109.462 758.775 202.352C629.635 295.243 522.121 325.842 378.77 290.325C235.418 254.808 224.914 149.896 130.376 202.352C54.7456 244.317 12.7699 300.707 1.23588 323.656" stroke="#FFAD41"/>
<path d="M1780.77 215.617C1728.66 166.44 1597.51 84.2595 1489.75 148.955C1355.04 229.824 1215.4 189.936 1139.4 148.955C1063.4 107.974 887.915 56.0645 758.775 148.955C629.635 241.845 522.121 272.444 378.77 236.927C235.418 201.41 224.914 96.499 130.376 148.955C54.7456 190.919 12.7699 247.309 1.23588 270.259" stroke="#FFAD41"/>
<path d="M1780.77 224.335C1728.66 175.158 1597.51 92.9773 1489.75 157.673C1355.04 238.542 1215.4 198.654 1139.4 157.673C1063.4 116.692 887.915 64.7823 758.775 157.673C629.635 250.563 522.121 281.162 378.77 245.645C235.418 210.128 224.914 105.217 130.376 157.673C54.7456 199.637 12.7699 256.027 1.23588 278.976" stroke="#FFAD41"/>
<path d="M1780.77 233.053C1728.66 183.876 1597.51 101.695 1489.75 166.39C1355.04 247.26 1215.4 207.371 1139.4 166.39C1063.4 125.409 887.915 73.5 758.775 166.39C629.635 259.281 522.121 289.88 378.77 254.363C235.418 218.846 224.914 113.935 130.376 166.39C54.7456 208.355 12.7699 264.745 1.23588 287.694" stroke="#FFAD41"/>
<path d="M1780.77 242.86C1728.66 193.683 1597.51 111.503 1489.75 176.198C1355.04 257.067 1215.4 217.179 1139.4 176.198C1063.4 135.217 887.915 83.3076 758.775 176.198C629.635 269.088 522.121 299.687 378.77 264.17C235.418 228.654 224.914 123.742 130.376 176.198C54.7456 218.162 12.7699 274.552 1.23588 297.502" stroke="#FFAD41"/>
<path d="M1780.77 251.578C1728.66 202.401 1597.51 120.22 1489.75 184.916C1355.04 265.785 1215.4 225.897 1139.4 184.916C1063.4 143.935 887.915 92.0254 758.775 184.916C629.635 277.806 522.121 308.405 378.77 272.888C235.418 237.371 224.914 132.46 130.376 184.916C54.7456 226.88 12.7699 283.27 1.23588 306.219" stroke="#FFAD41"/>
<path d="M1780.77 260.297C1728.66 211.12 1597.51 128.939 1489.75 193.635C1355.04 274.504 1215.4 234.616 1139.4 193.634C1063.4 152.653 887.915 100.744 758.775 193.634C629.635 286.525 522.121 317.124 378.77 281.607C235.418 246.09 224.914 141.179 130.376 193.634C54.7456 235.599 12.7699 291.989 1.23588 314.938" stroke="#FFAD41"/>
<path d="M1780.77 278.822C1728.66 229.645 1597.51 147.465 1489.75 212.16C1355.04 293.029 1215.4 253.141 1139.4 212.16C1063.4 171.179 887.915 119.27 758.775 212.16C629.635 305.05 522.121 335.649 378.77 300.132C235.418 264.616 224.914 159.704 130.376 212.16C54.7456 254.124 12.7699 310.514 1.23588 333.464" stroke="#FFAD41"/>
<path d="M1780.77 385.374C1728.66 336.197 1597.51 254.016 1489.75 318.712C1355.04 399.581 1215.4 359.693 1139.4 318.712C1063.4 277.731 887.915 225.821 758.775 318.712C629.635 411.602 522.121 442.201 378.77 406.684C235.418 371.167 224.914 266.256 130.376 318.712C54.7456 360.676 12.7699 417.066 1.23588 440.015" stroke="#FFAD41"/>
<path d="M1780.77 294.925C1728.66 245.748 1597.51 163.567 1489.75 228.262C1355.04 309.132 1215.4 269.243 1139.4 228.262C1063.4 187.281 887.915 135.372 758.775 228.262C629.635 321.153 522.121 351.752 378.77 316.235C235.418 280.718 224.914 175.807 130.376 228.262C54.7456 270.227 12.7699 326.617 1.23588 349.566" stroke="#FFAD41"/>
<path d="M1780.77 286.207C1728.66 237.03 1597.51 154.849 1489.75 219.545C1355.04 300.414 1215.4 260.526 1139.4 219.545C1063.4 178.564 887.915 126.654 758.775 219.545C629.635 312.435 522.121 343.034 378.77 307.517C235.418 272 224.914 167.089 130.376 219.545C54.7456 261.509 12.7699 317.899 1.23588 340.848" stroke="#FFAD41"/>
<path d="M1780.77 306.912C1728.66 257.735 1597.51 175.554 1489.75 240.25C1355.04 321.119 1215.4 281.231 1139.4 240.25C1063.4 199.269 887.915 147.359 758.775 240.25C629.635 333.14 522.121 363.739 378.77 328.222C235.418 292.705 224.914 187.794 130.376 240.25C54.7456 282.214 12.7699 338.604 1.23588 361.553" stroke="#FFAD41"/>
<path d="M1780.77 317.81C1728.66 268.632 1597.51 186.452 1489.75 251.147C1355.04 332.016 1215.4 292.128 1139.4 251.147C1063.4 210.166 887.915 158.257 758.775 251.147C629.635 344.037 522.121 374.637 378.77 339.12C235.418 303.603 224.914 198.691 130.376 251.147C54.7456 293.112 12.7699 349.502 1.23588 372.451" stroke="#FFAD41"/>
<path d="M1780.77 328.707C1728.66 279.53 1597.51 197.349 1489.75 262.045C1355.04 342.914 1215.4 303.026 1139.4 262.045C1063.4 221.064 887.915 169.154 758.775 262.045C629.635 354.935 522.121 385.534 378.77 350.017C235.418 314.5 224.914 209.589 130.376 262.045C54.7456 304.009 12.7699 360.399 1.23588 383.348" stroke="#FFAD41"/>
<path d="M1780.77 339.605C1728.66 290.427 1597.51 208.247 1489.75 272.942C1355.04 353.811 1215.4 313.923 1139.4 272.942C1063.4 231.961 887.915 180.052 758.775 272.942C629.635 365.832 522.121 396.432 378.77 360.915C235.418 325.398 224.914 220.486 130.376 272.942C54.7456 314.907 12.7699 371.296 1.23588 394.246" stroke="#FFAD41"/>
<path d="M1780.77 351.592C1728.66 302.415 1597.51 220.234 1489.75 284.929C1355.04 365.799 1215.4 325.91 1139.4 284.929C1063.4 243.948 887.915 192.039 758.775 284.929C629.635 377.82 522.121 408.419 378.77 372.902C235.418 337.385 224.914 232.474 130.376 284.929C54.7456 326.894 12.7699 383.284 1.23588 406.233" stroke="#FFAD41"/>
<path d="M1780.77 364.669C1728.66 315.492 1597.51 233.311 1489.75 298.007C1355.04 378.876 1215.4 338.988 1139.4 298.007C1063.4 257.026 887.915 205.116 758.775 298.007C629.635 390.897 522.121 421.496 378.77 385.979C235.418 350.462 224.914 245.551 130.376 298.006C54.7456 339.971 12.7699 396.361 1.23588 419.31" stroke="#FFAD41"/>
<path d="M1780.77 377.746C1728.66 328.569 1597.51 246.388 1489.75 311.084C1355.04 391.953 1215.4 352.065 1139.4 311.084C1063.4 270.103 887.915 218.193 758.775 311.084C629.635 403.974 522.121 434.573 378.77 399.056C235.418 363.539 224.914 258.628 130.376 311.084C54.7456 353.048 12.7699 409.438 1.23588 432.387" stroke="#FFAD41"/>
</g>
<defs>
<clipPath id="clip0_13_6962">
<rect width="1780.77" height="440.016" fill="white" transform="matrix(-1 -8.74228e-08 -8.74228e-08 1 1780.77 0)"/>
</clipPath>
</defs>
</svg>
