<svg width="1452" height="588" viewBox="0 0 1452 588" fill="none" xmlns="http://www.w3.org/2000/svg">
<g opacity="0.8" filter="url(#filter0_f_13_6890)">
<path d="M1122.61 19.9473L1124.57 24.4394L1129.23 25.0218L1125.79 28.3806L1126.7 33.2327L1122.61 30.8164L1118.51 33.2327L1119.42 28.3806L1115.98 25.0218L1120.64 24.4394L1122.61 19.9473Z" fill="white" fill-opacity="0.2"/>
</g>
<g opacity="0.8" filter="url(#filter1_f_13_6890)">
<path d="M1234.08 210.892L1236.05 215.384L1240.71 215.966L1237.26 219.325L1238.18 224.177L1234.08 221.761L1229.99 224.177L1230.9 219.325L1227.46 215.966L1232.12 215.384L1234.08 210.892Z" fill="white" fill-opacity="0.2"/>
</g>
<g opacity="0.8" filter="url(#filter2_f_13_6890)">
<path d="M271.512 196.203L273.478 200.695L278.139 201.278L274.693 204.636L275.608 209.489L271.512 207.072L267.417 209.489L268.332 204.636L264.886 201.278L269.547 200.695L271.512 196.203Z" fill="white" fill-opacity="0.2"/>
</g>
<g opacity="0.8" filter="url(#filter3_f_13_6890)">
<path d="M461.239 373.589L463.205 378.081L467.866 378.663L464.42 382.022L465.335 386.874L461.239 384.458L457.144 386.874L458.059 382.022L454.613 378.663L459.274 378.081L461.239 373.589Z" fill="white" fill-opacity="0.2"/>
</g>
<g opacity="0.8" filter="url(#filter4_f_13_6890)">
<path d="M598.443 34.6357L600.409 39.1279L605.07 39.7103L601.624 43.0691L602.539 47.9211L598.443 45.5049L594.348 47.9211L595.263 43.0691L591.817 39.7103L596.477 39.1279L598.443 34.6357Z" fill="white" fill-opacity="0.2"/>
</g>
<g opacity="0.8" filter="url(#filter5_f_13_6890)">
<path d="M598.443 34.6357L600.409 39.1279L605.07 39.7103L601.624 43.0691L602.539 47.9211L598.443 45.5049L594.348 47.9211L595.263 43.0691L591.817 39.7103L596.477 39.1279L598.443 34.6357Z" fill="white" fill-opacity="0.2"/>
</g>
<g opacity="0.8" filter="url(#filter6_f_13_6890)">
<path d="M598.443 34.6357L600.409 39.1279L605.07 39.7103L601.624 43.0691L602.539 47.9211L598.443 45.5049L594.348 47.9211L595.263 43.0691L591.817 39.7103L596.477 39.1279L598.443 34.6357Z" fill="white" fill-opacity="0.2"/>
</g>
<g opacity="0.8" filter="url(#filter7_f_13_6890)">
<path d="M598.443 34.6357L600.409 39.1279L605.07 39.7103L601.624 43.0691L602.539 47.9211L598.443 45.5049L594.348 47.9211L595.263 43.0691L591.817 39.7103L596.477 39.1279L598.443 34.6357Z" fill="white" fill-opacity="0.2"/>
</g>
<g opacity="0.8" filter="url(#filter8_f_13_6890)">
<path d="M598.443 34.6357L600.409 39.1279L605.07 39.7103L601.624 43.0691L602.539 47.9211L598.443 45.5049L594.348 47.9211L595.263 43.0691L591.817 39.7103L596.477 39.1279L598.443 34.6357Z" fill="white" fill-opacity="0.2"/>
</g>
<g opacity="0.8" filter="url(#filter9_f_13_6890)">
<path d="M9.96738 3L11.9331 7.49211L16.5938 8.07457L13.148 11.4333L14.0627 16.2854L9.96738 13.8691L5.87206 16.2854L6.78672 11.4333L3.34101 8.07457L8.00163 7.49211L9.96738 3Z" fill="white" fill-opacity="0.2"/>
</g>
<g opacity="0.8" filter="url(#filter10_f_13_6890)">
<path d="M133.236 335.175L135.202 339.667L139.863 340.249L136.417 343.608L137.332 348.46L133.236 346.044L129.141 348.46L130.056 343.608L126.61 340.249L131.271 339.667L133.236 335.175Z" fill="white" fill-opacity="0.2"/>
</g>
<g opacity="0.8" filter="url(#filter11_f_13_6890)">
<path d="M9.96738 556.624L11.9331 561.116L16.5938 561.699L13.148 565.057L14.0627 569.909L9.96738 567.493L5.87206 569.909L6.78672 565.057L3.34101 561.699L8.00163 561.116L9.96738 556.624Z" fill="white" fill-opacity="0.2"/>
</g>
<g opacity="0.8" filter="url(#filter12_f_13_6890)">
<path d="M1108.67 514.819L1110.64 519.311L1115.3 519.894L1111.85 523.253L1112.77 528.105L1108.67 525.688L1104.57 528.105L1105.49 523.253L1102.04 519.894L1106.7 519.311L1108.67 514.819Z" fill="white" fill-opacity="0.2"/>
</g>
<g opacity="0.8" filter="url(#filter13_f_13_6890)">
<path d="M1108.67 514.819L1110.64 519.311L1115.3 519.894L1111.85 523.253L1112.77 528.105L1108.67 525.688L1104.57 528.105L1105.49 523.253L1102.04 519.894L1106.7 519.311L1108.67 514.819Z" fill="white" fill-opacity="0.2"/>
</g>
<g opacity="0.8" filter="url(#filter14_f_13_6890)">
<path d="M1108.67 514.819L1110.64 519.311L1115.3 519.894L1111.85 523.253L1112.77 528.105L1108.67 525.688L1104.57 528.105L1105.49 523.253L1102.04 519.894L1106.7 519.311L1108.67 514.819Z" fill="white" fill-opacity="0.2"/>
</g>
<g opacity="0.8" filter="url(#filter15_f_13_6890)">
<path d="M1008.98 270.773L1010.95 275.266L1015.61 275.848L1012.16 279.207L1013.08 284.059L1008.98 281.643L1004.89 284.059L1005.8 279.207L1002.36 275.848L1007.02 275.266L1008.98 270.773Z" fill="white" fill-opacity="0.2"/>
</g>
<g opacity="0.8" filter="url(#filter16_f_13_6890)">
<path d="M1008.98 270.773L1010.95 275.266L1015.61 275.848L1012.16 279.207L1013.08 284.059L1008.98 281.643L1004.89 284.059L1005.8 279.207L1002.36 275.848L1007.02 275.266L1008.98 270.773Z" fill="white" fill-opacity="0.2"/>
</g>
<g opacity="0.8" filter="url(#filter17_f_13_6890)">
<path d="M728.144 522.729L730.11 527.221L734.77 527.803L731.325 531.162L732.239 536.014L728.144 533.598L724.049 536.014L724.963 531.162L721.518 527.803L726.178 527.221L728.144 522.729Z" fill="white" fill-opacity="0.2"/>
</g>
<g opacity="0.8" filter="url(#filter18_f_13_6890)">
<path d="M728.144 522.729L730.11 527.221L734.77 527.803L731.325 531.162L732.239 536.014L728.144 533.598L724.049 536.014L724.963 531.162L721.518 527.803L726.178 527.221L728.144 522.729Z" fill="white" fill-opacity="0.2"/>
</g>
<g opacity="0.8" filter="url(#filter19_f_13_6890)">
<path d="M728.144 522.729L730.11 527.221L734.77 527.803L731.325 531.162L732.239 536.014L728.144 533.598L724.049 536.014L724.963 531.162L721.518 527.803L726.178 527.221L728.144 522.729Z" fill="white" fill-opacity="0.2"/>
</g>
<g opacity="0.8" filter="url(#filter20_f_13_6890)">
<path d="M475.174 175.866L477.14 180.358L481.801 180.941L478.355 184.3L479.269 189.152L475.174 186.735L471.079 189.152L471.994 184.3L468.548 180.941L473.208 180.358L475.174 175.866Z" fill="white" fill-opacity="0.2"/>
</g>
<g opacity="0.8" filter="url(#filter21_f_13_6890)">
<path d="M475.174 175.866L477.14 180.358L481.801 180.941L478.355 184.3L479.269 189.152L475.174 186.735L471.079 189.152L471.994 184.3L468.548 180.941L473.208 180.358L475.174 175.866Z" fill="white" fill-opacity="0.2"/>
</g>
<g opacity="0.8" filter="url(#filter22_f_13_6890)">
<path d="M475.174 175.866L477.14 180.358L481.801 180.941L478.355 184.3L479.269 189.152L475.174 186.735L471.079 189.152L471.994 184.3L468.548 180.941L473.208 180.358L475.174 175.866Z" fill="white" fill-opacity="0.2"/>
</g>
<g opacity="0.8" filter="url(#filter23_f_13_6890)">
<path d="M475.174 175.866L477.14 180.358L481.801 180.941L478.355 184.3L479.269 189.152L475.174 186.735L471.079 189.152L471.994 184.3L468.548 180.941L473.208 180.358L475.174 175.866Z" fill="white" fill-opacity="0.2"/>
</g>
<g opacity="0.8" filter="url(#filter24_f_13_6890)">
<path d="M475.174 175.866L477.14 180.358L481.801 180.941L478.355 184.3L479.269 189.152L475.174 186.735L471.079 189.152L471.994 184.3L468.548 180.941L473.208 180.358L475.174 175.866Z" fill="white" fill-opacity="0.2"/>
</g>
<g opacity="0.8" filter="url(#filter25_f_13_6890)">
<path d="M1282.32 487.703L1284.28 492.195L1288.95 492.778L1285.5 496.136L1286.41 500.989L1282.32 498.572L1278.22 500.989L1279.14 496.136L1275.69 492.778L1280.35 492.195L1282.32 487.703Z" fill="white" fill-opacity="0.2"/>
</g>
<g opacity="0.8" filter="url(#filter26_f_13_6890)">
<path d="M1282.32 487.703L1284.28 492.195L1288.95 492.778L1285.5 496.136L1286.41 500.989L1282.32 498.572L1278.22 500.989L1279.14 496.136L1275.69 492.778L1280.35 492.195L1282.32 487.703Z" fill="white" fill-opacity="0.2"/>
</g>
<g opacity="0.8" filter="url(#filter27_f_13_6890)">
<path d="M1282.32 487.703L1284.28 492.195L1288.95 492.778L1285.5 496.136L1286.41 500.989L1282.32 498.572L1278.22 500.989L1279.14 496.136L1275.69 492.778L1280.35 492.195L1282.32 487.703Z" fill="white" fill-opacity="0.2"/>
</g>
<g opacity="0.8" filter="url(#filter28_f_13_6890)">
<path d="M1282.32 487.703L1284.28 492.195L1288.95 492.778L1285.5 496.136L1286.41 500.989L1282.32 498.572L1278.22 500.989L1279.14 496.136L1275.69 492.778L1280.35 492.195L1282.32 487.703Z" fill="white" fill-opacity="0.2"/>
</g>
<g opacity="0.8" filter="url(#filter29_f_13_6890)">
<path d="M1282.32 487.703L1284.28 492.195L1288.95 492.778L1285.5 496.136L1286.41 500.989L1282.32 498.572L1278.22 500.989L1279.14 496.136L1275.69 492.778L1280.35 492.195L1282.32 487.703Z" fill="white" fill-opacity="0.2"/>
</g>
<g opacity="0.8" filter="url(#filter30_f_13_6890)">
<path d="M1282.32 487.703L1284.28 492.195L1288.95 492.778L1285.5 496.136L1286.41 500.989L1282.32 498.572L1278.22 500.989L1279.14 496.136L1275.69 492.778L1280.35 492.195L1282.32 487.703Z" fill="white" fill-opacity="0.2"/>
</g>
<g opacity="0.8" filter="url(#filter31_f_13_6890)">
<path d="M333.683 426.691L335.648 431.184L340.309 431.766L336.863 435.125L337.778 439.977L333.683 437.561L329.587 439.977L330.502 435.125L327.056 431.766L331.717 431.184L333.683 426.691Z" fill="white" fill-opacity="0.2"/>
</g>
<g opacity="0.8" filter="url(#filter32_f_13_6890)">
<path d="M897.505 452.679L899.471 457.171L904.131 457.753L900.686 461.112L901.6 465.964L897.505 463.548L893.41 465.964L894.324 461.112L890.879 457.753L895.539 457.171L897.505 452.679Z" fill="white" fill-opacity="0.2"/>
</g>
<g opacity="0.8" filter="url(#filter33_f_13_6890)">
<path d="M897.505 452.679L899.471 457.171L904.131 457.753L900.686 461.112L901.6 465.964L897.505 463.548L893.41 465.964L894.324 461.112L890.879 457.753L895.539 457.171L897.505 452.679Z" fill="white" fill-opacity="0.2"/>
</g>
<g opacity="0.8" filter="url(#filter34_f_13_6890)">
<path d="M147.171 160.049L149.137 164.541L153.798 165.123L150.352 168.482L151.267 173.334L147.171 170.918L143.076 173.334L143.991 168.482L140.545 165.123L145.205 164.541L147.171 160.049Z" fill="white" fill-opacity="0.2"/>
</g>
<g opacity="0.8" filter="url(#filter35_f_13_6890)">
<path d="M147.171 160.049L149.137 164.541L153.798 165.123L150.352 168.482L151.267 173.334L147.171 170.918L143.076 173.334L143.991 168.482L140.545 165.123L145.205 164.541L147.171 160.049Z" fill="white" fill-opacity="0.2"/>
</g>
<g opacity="0.8" filter="url(#filter36_f_13_6890)">
<path d="M147.171 160.049L149.137 164.541L153.798 165.123L150.352 168.482L151.267 173.334L147.171 170.918L143.076 173.334L143.991 168.482L140.545 165.123L145.205 164.541L147.171 160.049Z" fill="white" fill-opacity="0.2"/>
</g>
<g opacity="0.8" filter="url(#filter37_f_13_6890)">
<path d="M147.171 160.049L149.137 164.541L153.798 165.123L150.352 168.482L151.267 173.334L147.171 170.918L143.076 173.334L143.991 168.482L140.545 165.123L145.205 164.541L147.171 160.049Z" fill="white" fill-opacity="0.2"/>
</g>
<g opacity="0.8" filter="url(#filter38_f_13_6890)">
<path d="M147.171 160.049L149.137 164.541L153.798 165.123L150.352 168.482L151.267 173.334L147.171 170.918L143.076 173.334L143.991 168.482L140.545 165.123L145.205 164.541L147.171 160.049Z" fill="white" fill-opacity="0.2"/>
</g>
<g opacity="0.8" filter="url(#filter39_f_13_6890)">
<path d="M147.171 160.049L149.137 164.541L153.798 165.123L150.352 168.482L151.267 173.334L147.171 170.918L143.076 173.334L143.991 168.482L140.545 165.123L145.205 164.541L147.171 160.049Z" fill="white" fill-opacity="0.2"/>
</g>
<g opacity="0.8" filter="url(#filter40_f_13_6890)">
<path d="M1289.82 93.3877L1291.79 97.8798L1296.45 98.4623L1293 101.821L1293.92 106.673L1289.82 104.257L1285.73 106.673L1286.64 101.821L1283.2 98.4623L1287.86 97.8798L1289.82 93.3877Z" fill="white" fill-opacity="0.2"/>
</g>
<g opacity="0.8" filter="url(#filter41_f_13_6890)">
<path d="M1289.82 93.3877L1291.79 97.8798L1296.45 98.4623L1293 101.821L1293.92 106.673L1289.82 104.257L1285.73 106.673L1286.64 101.821L1283.2 98.4623L1287.86 97.8798L1289.82 93.3877Z" fill="white" fill-opacity="0.2"/>
</g>
<g opacity="0.8" filter="url(#filter42_f_13_6890)">
<path d="M1289.82 93.3877L1291.79 97.8798L1296.45 98.4623L1293 101.821L1293.92 106.673L1289.82 104.257L1285.73 106.673L1286.64 101.821L1283.2 98.4623L1287.86 97.8798L1289.82 93.3877Z" fill="white" fill-opacity="0.2"/>
</g>
<g opacity="0.8" filter="url(#filter43_f_13_6890)">
<path d="M42.1246 426.691L44.0904 431.184L48.751 431.766L45.3053 435.125L46.2199 439.977L42.1246 437.561L38.0293 439.977L38.9439 435.125L35.4982 431.766L40.1589 431.184L42.1246 426.691Z" fill="white" fill-opacity="0.2"/>
</g>
<g opacity="0.8" filter="url(#filter44_f_13_6890)">
<path d="M42.1246 426.691L44.0904 431.184L48.751 431.766L45.3053 435.125L46.2199 439.977L42.1246 437.561L38.0293 439.977L38.9439 435.125L35.4982 431.766L40.1589 431.184L42.1246 426.691Z" fill="white" fill-opacity="0.2"/>
</g>
<g opacity="0.8" filter="url(#filter45_f_13_6890)">
<path d="M42.1246 426.691L44.0904 431.184L48.751 431.766L45.3053 435.125L46.2199 439.977L42.1246 437.561L38.0293 439.977L38.9439 435.125L35.4982 431.766L40.1589 431.184L42.1246 426.691Z" fill="white" fill-opacity="0.2"/>
</g>
<g opacity="0.8" filter="url(#filter46_f_13_6890)">
<path d="M42.1246 426.691L44.0904 431.184L48.751 431.766L45.3053 435.125L46.2199 439.977L42.1246 437.561L38.0293 439.977L38.9439 435.125L35.4982 431.766L40.1589 431.184L42.1246 426.691Z" fill="white" fill-opacity="0.2"/>
</g>
<g opacity="0.8" filter="url(#filter47_f_13_6890)">
<path d="M42.1246 426.691L44.0904 431.184L48.751 431.766L45.3053 435.125L46.2199 439.977L42.1246 437.561L38.0293 439.977L38.9439 435.125L35.4982 431.766L40.1589 431.184L42.1246 426.691Z" fill="white" fill-opacity="0.2"/>
</g>
<g opacity="0.8" filter="url(#filter48_f_13_6890)">
<path d="M897.505 452.679L899.471 457.171L904.131 457.753L900.686 461.112L901.6 465.964L897.505 463.548L893.41 465.964L894.324 461.112L890.879 457.753L895.539 457.171L897.505 452.679Z" fill="white" fill-opacity="0.2"/>
</g>
<g opacity="0.8" filter="url(#filter49_f_13_6890)">
<path d="M172.897 479.795L174.863 484.287L179.523 484.869L176.078 488.228L176.992 493.08L172.897 490.664L168.802 493.08L169.716 488.228L166.271 484.869L170.931 484.287L172.897 479.795Z" fill="white" fill-opacity="0.2"/>
</g>
<g opacity="0.8" filter="url(#filter50_f_13_6890)">
<path d="M333.683 549.845L335.648 554.337L340.309 554.919L336.863 558.278L337.778 563.13L333.683 560.714L329.587 563.13L330.502 558.278L327.056 554.919L331.717 554.337L333.683 549.845Z" fill="white" fill-opacity="0.2"/>
</g>
<g opacity="0.8" filter="url(#filter51_f_13_6890)">
<path d="M333.683 549.845L335.648 554.337L340.309 554.919L336.863 558.278L337.778 563.13L333.683 560.714L329.587 563.13L330.502 558.278L327.056 554.919L331.717 554.337L333.683 549.845Z" fill="white" fill-opacity="0.2"/>
</g>
<g opacity="0.8" filter="url(#filter52_f_13_6890)">
<path d="M333.683 549.845L335.648 554.337L340.309 554.919L336.863 558.278L337.778 563.13L333.683 560.714L329.587 563.13L330.502 558.278L327.056 554.919L331.717 554.337L333.683 549.845Z" fill="white" fill-opacity="0.2"/>
</g>
<g opacity="0.8" filter="url(#filter53_f_13_6890)">
<path d="M333.683 549.845L335.648 554.337L340.309 554.919L336.863 558.278L337.778 563.13L333.683 560.714L329.587 563.13L330.502 558.278L327.056 554.919L331.717 554.337L333.683 549.845Z" fill="white" fill-opacity="0.2"/>
</g>
<g opacity="0.8" filter="url(#filter54_f_13_6890)">
<path d="M333.683 549.845L335.648 554.337L340.309 554.919L336.863 558.278L337.778 563.13L333.683 560.714L329.587 563.13L330.502 558.278L327.056 554.919L331.717 554.337L333.683 549.845Z" fill="white" fill-opacity="0.2"/>
</g>
<g opacity="0.8" filter="url(#filter55_f_13_6890)">
<path d="M333.683 549.845L335.648 554.337L340.309 554.919L336.863 558.278L337.778 563.13L333.683 560.714L329.587 563.13L330.502 558.278L327.056 554.919L331.717 554.337L333.683 549.845Z" fill="white" fill-opacity="0.2"/>
</g>
<g opacity="0.8" filter="url(#filter56_f_13_6890)">
<path d="M380.847 275.293L382.812 279.785L387.473 280.368L384.027 283.726L384.942 288.578L380.847 286.162L376.751 288.578L377.666 283.726L374.22 280.368L378.881 279.785L380.847 275.293Z" fill="white" fill-opacity="0.2"/>
</g>
<g opacity="0.8" filter="url(#filter57_f_13_6890)">
<path d="M380.847 275.293L382.812 279.785L387.473 280.368L384.027 283.726L384.942 288.578L380.847 286.162L376.751 288.578L377.666 283.726L374.22 280.368L378.881 279.785L380.847 275.293Z" fill="white" fill-opacity="0.2"/>
</g>
<g opacity="0.8" filter="url(#filter58_f_13_6890)">
<path d="M380.847 275.293L382.812 279.785L387.473 280.368L384.027 283.726L384.942 288.578L380.847 286.162L376.751 288.578L377.666 283.726L374.22 280.368L378.881 279.785L380.847 275.293Z" fill="white" fill-opacity="0.2"/>
</g>
<g opacity="0.8" filter="url(#filter59_f_13_6890)">
<path d="M1418.45 167.957L1420.42 172.449L1425.08 173.032L1421.63 176.39L1422.55 181.242L1418.45 178.826L1414.36 181.242L1415.27 176.39L1411.82 173.032L1416.49 172.449L1418.45 167.957Z" fill="white" fill-opacity="0.2"/>
</g>
<g opacity="0.8" filter="url(#filter60_f_13_6890)">
<path d="M1442.03 41.415L1444 45.9072L1448.66 46.4896L1445.21 49.8484L1446.13 54.7004L1442.03 52.2841L1437.94 54.7004L1438.85 49.8484L1435.41 46.4896L1440.07 45.9072L1442.03 41.415Z" fill="white" fill-opacity="0.2"/>
</g>
<g opacity="0.8" filter="url(#filter61_f_13_6890)">
<path d="M1442.03 41.415L1444 45.9072L1448.66 46.4896L1445.21 49.8484L1446.13 54.7004L1442.03 52.2841L1437.94 54.7004L1438.85 49.8484L1435.41 46.4896L1440.07 45.9072L1442.03 41.415Z" fill="white" fill-opacity="0.2"/>
</g>
<g opacity="0.8" filter="url(#filter62_f_13_6890)">
<path d="M1442.03 41.415L1444 45.9072L1448.66 46.4896L1445.21 49.8484L1446.13 54.7004L1442.03 52.2841L1437.94 54.7004L1438.85 49.8484L1435.41 46.4896L1440.07 45.9072L1442.03 41.415Z" fill="white" fill-opacity="0.2"/>
</g>
<g opacity="0.8" filter="url(#filter63_f_13_6890)">
<path d="M1442.03 571.312L1444 575.805L1448.66 576.387L1445.21 579.746L1446.13 584.598L1442.03 582.182L1437.94 584.598L1438.85 579.746L1435.41 576.387L1440.07 575.805L1442.03 571.312Z" fill="white" fill-opacity="0.2"/>
</g>
<g opacity="0.8" filter="url(#filter64_f_13_6890)">
<path d="M1073.3 153.27L1075.26 157.762L1079.92 158.344L1076.48 161.703L1077.39 166.555L1073.3 164.139L1069.2 166.555L1070.12 161.703L1066.67 158.344L1071.33 157.762L1073.3 153.27Z" fill="white" fill-opacity="0.2"/>
</g>
<g opacity="0.8" filter="url(#filter65_f_13_6890)">
<path d="M1073.3 153.27L1075.26 157.762L1079.92 158.344L1076.48 161.703L1077.39 166.555L1073.3 164.139L1069.2 166.555L1070.12 161.703L1066.67 158.344L1071.33 157.762L1073.3 153.27Z" fill="white" fill-opacity="0.2"/>
</g>
<g opacity="0.8" filter="url(#filter66_f_13_6890)">
<path d="M1073.3 153.27L1075.26 157.762L1079.92 158.344L1076.48 161.703L1077.39 166.555L1073.3 164.139L1069.2 166.555L1070.12 161.703L1066.67 158.344L1071.33 157.762L1073.3 153.27Z" fill="white" fill-opacity="0.2"/>
</g>
<g opacity="0.8" filter="url(#filter67_f_13_6890)">
<path d="M1073.3 153.27L1075.26 157.762L1079.92 158.344L1076.48 161.703L1077.39 166.555L1073.3 164.139L1069.2 166.555L1070.12 161.703L1066.67 158.344L1071.33 157.762L1073.3 153.27Z" fill="white" fill-opacity="0.2"/>
</g>
<g opacity="0.8" filter="url(#filter68_f_13_6890)">
<path d="M1073.3 153.27L1075.26 157.762L1079.92 158.344L1076.48 161.703L1077.39 166.555L1073.3 164.139L1069.2 166.555L1070.12 161.703L1066.67 158.344L1071.33 157.762L1073.3 153.27Z" fill="white" fill-opacity="0.2"/>
</g>
<g opacity="0.8" filter="url(#filter69_f_13_6890)">
<path d="M1374.5 349.862L1376.47 354.354L1381.13 354.937L1377.68 358.296L1378.6 363.148L1374.5 360.731L1370.41 363.148L1371.32 358.296L1367.88 354.937L1372.54 354.354L1374.5 349.862Z" fill="white" fill-opacity="0.2"/>
</g>
<g opacity="0.8" filter="url(#filter70_f_13_6890)">
<path d="M1101.17 391.667L1103.13 396.159L1107.79 396.742L1104.35 400.1L1105.26 404.952L1101.17 402.536L1097.07 404.952L1097.99 400.1L1094.54 396.742L1099.2 396.159L1101.17 391.667Z" fill="white" fill-opacity="0.2"/>
</g>
<defs>
<filter id="filter0_f_13_6890" x="1112.98" y="16.9473" width="19.2527" height="19.2852" filterUnits="userSpaceOnUse" color-interpolation-filters="sRGB">
<feFlood flood-opacity="0" result="BackgroundImageFix"/>
<feBlend mode="normal" in="SourceGraphic" in2="BackgroundImageFix" result="shape"/>
<feGaussianBlur stdDeviation="1.5" result="effect1_foregroundBlur_13_6890"/>
</filter>
<filter id="filter1_f_13_6890" x="1224.46" y="207.892" width="19.2527" height="19.2852" filterUnits="userSpaceOnUse" color-interpolation-filters="sRGB">
<feFlood flood-opacity="0" result="BackgroundImageFix"/>
<feBlend mode="normal" in="SourceGraphic" in2="BackgroundImageFix" result="shape"/>
<feGaussianBlur stdDeviation="1.5" result="effect1_foregroundBlur_13_6890"/>
</filter>
<filter id="filter2_f_13_6890" x="261.886" y="193.203" width="19.2527" height="19.2852" filterUnits="userSpaceOnUse" color-interpolation-filters="sRGB">
<feFlood flood-opacity="0" result="BackgroundImageFix"/>
<feBlend mode="normal" in="SourceGraphic" in2="BackgroundImageFix" result="shape"/>
<feGaussianBlur stdDeviation="1.5" result="effect1_foregroundBlur_13_6890"/>
</filter>
<filter id="filter3_f_13_6890" x="451.613" y="370.589" width="19.2527" height="19.2852" filterUnits="userSpaceOnUse" color-interpolation-filters="sRGB">
<feFlood flood-opacity="0" result="BackgroundImageFix"/>
<feBlend mode="normal" in="SourceGraphic" in2="BackgroundImageFix" result="shape"/>
<feGaussianBlur stdDeviation="1.5" result="effect1_foregroundBlur_13_6890"/>
</filter>
<filter id="filter4_f_13_6890" x="588.817" y="31.6357" width="19.2527" height="19.2852" filterUnits="userSpaceOnUse" color-interpolation-filters="sRGB">
<feFlood flood-opacity="0" result="BackgroundImageFix"/>
<feBlend mode="normal" in="SourceGraphic" in2="BackgroundImageFix" result="shape"/>
<feGaussianBlur stdDeviation="1.5" result="effect1_foregroundBlur_13_6890"/>
</filter>
<filter id="filter5_f_13_6890" x="588.817" y="31.6357" width="19.2527" height="19.2852" filterUnits="userSpaceOnUse" color-interpolation-filters="sRGB">
<feFlood flood-opacity="0" result="BackgroundImageFix"/>
<feBlend mode="normal" in="SourceGraphic" in2="BackgroundImageFix" result="shape"/>
<feGaussianBlur stdDeviation="1.5" result="effect1_foregroundBlur_13_6890"/>
</filter>
<filter id="filter6_f_13_6890" x="588.817" y="31.6357" width="19.2527" height="19.2852" filterUnits="userSpaceOnUse" color-interpolation-filters="sRGB">
<feFlood flood-opacity="0" result="BackgroundImageFix"/>
<feBlend mode="normal" in="SourceGraphic" in2="BackgroundImageFix" result="shape"/>
<feGaussianBlur stdDeviation="1.5" result="effect1_foregroundBlur_13_6890"/>
</filter>
<filter id="filter7_f_13_6890" x="588.817" y="31.6357" width="19.2527" height="19.2852" filterUnits="userSpaceOnUse" color-interpolation-filters="sRGB">
<feFlood flood-opacity="0" result="BackgroundImageFix"/>
<feBlend mode="normal" in="SourceGraphic" in2="BackgroundImageFix" result="shape"/>
<feGaussianBlur stdDeviation="1.5" result="effect1_foregroundBlur_13_6890"/>
</filter>
<filter id="filter8_f_13_6890" x="588.817" y="31.6357" width="19.2527" height="19.2852" filterUnits="userSpaceOnUse" color-interpolation-filters="sRGB">
<feFlood flood-opacity="0" result="BackgroundImageFix"/>
<feBlend mode="normal" in="SourceGraphic" in2="BackgroundImageFix" result="shape"/>
<feGaussianBlur stdDeviation="1.5" result="effect1_foregroundBlur_13_6890"/>
</filter>
<filter id="filter9_f_13_6890" x="0.341064" y="0" width="19.2527" height="19.2852" filterUnits="userSpaceOnUse" color-interpolation-filters="sRGB">
<feFlood flood-opacity="0" result="BackgroundImageFix"/>
<feBlend mode="normal" in="SourceGraphic" in2="BackgroundImageFix" result="shape"/>
<feGaussianBlur stdDeviation="1.5" result="effect1_foregroundBlur_13_6890"/>
</filter>
<filter id="filter10_f_13_6890" x="123.61" y="332.175" width="19.2527" height="19.2852" filterUnits="userSpaceOnUse" color-interpolation-filters="sRGB">
<feFlood flood-opacity="0" result="BackgroundImageFix"/>
<feBlend mode="normal" in="SourceGraphic" in2="BackgroundImageFix" result="shape"/>
<feGaussianBlur stdDeviation="1.5" result="effect1_foregroundBlur_13_6890"/>
</filter>
<filter id="filter11_f_13_6890" x="0.341064" y="553.624" width="19.2527" height="19.2852" filterUnits="userSpaceOnUse" color-interpolation-filters="sRGB">
<feFlood flood-opacity="0" result="BackgroundImageFix"/>
<feBlend mode="normal" in="SourceGraphic" in2="BackgroundImageFix" result="shape"/>
<feGaussianBlur stdDeviation="1.5" result="effect1_foregroundBlur_13_6890"/>
</filter>
<filter id="filter12_f_13_6890" x="1099.04" y="511.819" width="19.2527" height="19.2852" filterUnits="userSpaceOnUse" color-interpolation-filters="sRGB">
<feFlood flood-opacity="0" result="BackgroundImageFix"/>
<feBlend mode="normal" in="SourceGraphic" in2="BackgroundImageFix" result="shape"/>
<feGaussianBlur stdDeviation="1.5" result="effect1_foregroundBlur_13_6890"/>
</filter>
<filter id="filter13_f_13_6890" x="1099.04" y="511.819" width="19.2527" height="19.2852" filterUnits="userSpaceOnUse" color-interpolation-filters="sRGB">
<feFlood flood-opacity="0" result="BackgroundImageFix"/>
<feBlend mode="normal" in="SourceGraphic" in2="BackgroundImageFix" result="shape"/>
<feGaussianBlur stdDeviation="1.5" result="effect1_foregroundBlur_13_6890"/>
</filter>
<filter id="filter14_f_13_6890" x="1099.04" y="511.819" width="19.2527" height="19.2852" filterUnits="userSpaceOnUse" color-interpolation-filters="sRGB">
<feFlood flood-opacity="0" result="BackgroundImageFix"/>
<feBlend mode="normal" in="SourceGraphic" in2="BackgroundImageFix" result="shape"/>
<feGaussianBlur stdDeviation="1.5" result="effect1_foregroundBlur_13_6890"/>
</filter>
<filter id="filter15_f_13_6890" x="999.357" y="267.773" width="19.2527" height="19.2852" filterUnits="userSpaceOnUse" color-interpolation-filters="sRGB">
<feFlood flood-opacity="0" result="BackgroundImageFix"/>
<feBlend mode="normal" in="SourceGraphic" in2="BackgroundImageFix" result="shape"/>
<feGaussianBlur stdDeviation="1.5" result="effect1_foregroundBlur_13_6890"/>
</filter>
<filter id="filter16_f_13_6890" x="999.357" y="267.773" width="19.2527" height="19.2852" filterUnits="userSpaceOnUse" color-interpolation-filters="sRGB">
<feFlood flood-opacity="0" result="BackgroundImageFix"/>
<feBlend mode="normal" in="SourceGraphic" in2="BackgroundImageFix" result="shape"/>
<feGaussianBlur stdDeviation="1.5" result="effect1_foregroundBlur_13_6890"/>
</filter>
<filter id="filter17_f_13_6890" x="718.518" y="519.729" width="19.2527" height="19.2852" filterUnits="userSpaceOnUse" color-interpolation-filters="sRGB">
<feFlood flood-opacity="0" result="BackgroundImageFix"/>
<feBlend mode="normal" in="SourceGraphic" in2="BackgroundImageFix" result="shape"/>
<feGaussianBlur stdDeviation="1.5" result="effect1_foregroundBlur_13_6890"/>
</filter>
<filter id="filter18_f_13_6890" x="718.518" y="519.729" width="19.2527" height="19.2852" filterUnits="userSpaceOnUse" color-interpolation-filters="sRGB">
<feFlood flood-opacity="0" result="BackgroundImageFix"/>
<feBlend mode="normal" in="SourceGraphic" in2="BackgroundImageFix" result="shape"/>
<feGaussianBlur stdDeviation="1.5" result="effect1_foregroundBlur_13_6890"/>
</filter>
<filter id="filter19_f_13_6890" x="718.518" y="519.729" width="19.2527" height="19.2852" filterUnits="userSpaceOnUse" color-interpolation-filters="sRGB">
<feFlood flood-opacity="0" result="BackgroundImageFix"/>
<feBlend mode="normal" in="SourceGraphic" in2="BackgroundImageFix" result="shape"/>
<feGaussianBlur stdDeviation="1.5" result="effect1_foregroundBlur_13_6890"/>
</filter>
<filter id="filter20_f_13_6890" x="465.548" y="172.866" width="19.2527" height="19.2852" filterUnits="userSpaceOnUse" color-interpolation-filters="sRGB">
<feFlood flood-opacity="0" result="BackgroundImageFix"/>
<feBlend mode="normal" in="SourceGraphic" in2="BackgroundImageFix" result="shape"/>
<feGaussianBlur stdDeviation="1.5" result="effect1_foregroundBlur_13_6890"/>
</filter>
<filter id="filter21_f_13_6890" x="465.548" y="172.866" width="19.2527" height="19.2852" filterUnits="userSpaceOnUse" color-interpolation-filters="sRGB">
<feFlood flood-opacity="0" result="BackgroundImageFix"/>
<feBlend mode="normal" in="SourceGraphic" in2="BackgroundImageFix" result="shape"/>
<feGaussianBlur stdDeviation="1.5" result="effect1_foregroundBlur_13_6890"/>
</filter>
<filter id="filter22_f_13_6890" x="465.548" y="172.866" width="19.2527" height="19.2852" filterUnits="userSpaceOnUse" color-interpolation-filters="sRGB">
<feFlood flood-opacity="0" result="BackgroundImageFix"/>
<feBlend mode="normal" in="SourceGraphic" in2="BackgroundImageFix" result="shape"/>
<feGaussianBlur stdDeviation="1.5" result="effect1_foregroundBlur_13_6890"/>
</filter>
<filter id="filter23_f_13_6890" x="465.548" y="172.866" width="19.2527" height="19.2852" filterUnits="userSpaceOnUse" color-interpolation-filters="sRGB">
<feFlood flood-opacity="0" result="BackgroundImageFix"/>
<feBlend mode="normal" in="SourceGraphic" in2="BackgroundImageFix" result="shape"/>
<feGaussianBlur stdDeviation="1.5" result="effect1_foregroundBlur_13_6890"/>
</filter>
<filter id="filter24_f_13_6890" x="465.548" y="172.866" width="19.2527" height="19.2852" filterUnits="userSpaceOnUse" color-interpolation-filters="sRGB">
<feFlood flood-opacity="0" result="BackgroundImageFix"/>
<feBlend mode="normal" in="SourceGraphic" in2="BackgroundImageFix" result="shape"/>
<feGaussianBlur stdDeviation="1.5" result="effect1_foregroundBlur_13_6890"/>
</filter>
<filter id="filter25_f_13_6890" x="1272.69" y="484.703" width="19.2527" height="19.2852" filterUnits="userSpaceOnUse" color-interpolation-filters="sRGB">
<feFlood flood-opacity="0" result="BackgroundImageFix"/>
<feBlend mode="normal" in="SourceGraphic" in2="BackgroundImageFix" result="shape"/>
<feGaussianBlur stdDeviation="1.5" result="effect1_foregroundBlur_13_6890"/>
</filter>
<filter id="filter26_f_13_6890" x="1272.69" y="484.703" width="19.2527" height="19.2852" filterUnits="userSpaceOnUse" color-interpolation-filters="sRGB">
<feFlood flood-opacity="0" result="BackgroundImageFix"/>
<feBlend mode="normal" in="SourceGraphic" in2="BackgroundImageFix" result="shape"/>
<feGaussianBlur stdDeviation="1.5" result="effect1_foregroundBlur_13_6890"/>
</filter>
<filter id="filter27_f_13_6890" x="1272.69" y="484.703" width="19.2527" height="19.2852" filterUnits="userSpaceOnUse" color-interpolation-filters="sRGB">
<feFlood flood-opacity="0" result="BackgroundImageFix"/>
<feBlend mode="normal" in="SourceGraphic" in2="BackgroundImageFix" result="shape"/>
<feGaussianBlur stdDeviation="1.5" result="effect1_foregroundBlur_13_6890"/>
</filter>
<filter id="filter28_f_13_6890" x="1272.69" y="484.703" width="19.2527" height="19.2852" filterUnits="userSpaceOnUse" color-interpolation-filters="sRGB">
<feFlood flood-opacity="0" result="BackgroundImageFix"/>
<feBlend mode="normal" in="SourceGraphic" in2="BackgroundImageFix" result="shape"/>
<feGaussianBlur stdDeviation="1.5" result="effect1_foregroundBlur_13_6890"/>
</filter>
<filter id="filter29_f_13_6890" x="1272.69" y="484.703" width="19.2527" height="19.2852" filterUnits="userSpaceOnUse" color-interpolation-filters="sRGB">
<feFlood flood-opacity="0" result="BackgroundImageFix"/>
<feBlend mode="normal" in="SourceGraphic" in2="BackgroundImageFix" result="shape"/>
<feGaussianBlur stdDeviation="1.5" result="effect1_foregroundBlur_13_6890"/>
</filter>
<filter id="filter30_f_13_6890" x="1272.69" y="484.703" width="19.2527" height="19.2852" filterUnits="userSpaceOnUse" color-interpolation-filters="sRGB">
<feFlood flood-opacity="0" result="BackgroundImageFix"/>
<feBlend mode="normal" in="SourceGraphic" in2="BackgroundImageFix" result="shape"/>
<feGaussianBlur stdDeviation="1.5" result="effect1_foregroundBlur_13_6890"/>
</filter>
<filter id="filter31_f_13_6890" x="324.056" y="423.691" width="19.2527" height="19.2852" filterUnits="userSpaceOnUse" color-interpolation-filters="sRGB">
<feFlood flood-opacity="0" result="BackgroundImageFix"/>
<feBlend mode="normal" in="SourceGraphic" in2="BackgroundImageFix" result="shape"/>
<feGaussianBlur stdDeviation="1.5" result="effect1_foregroundBlur_13_6890"/>
</filter>
<filter id="filter32_f_13_6890" x="887.879" y="449.679" width="19.2527" height="19.2852" filterUnits="userSpaceOnUse" color-interpolation-filters="sRGB">
<feFlood flood-opacity="0" result="BackgroundImageFix"/>
<feBlend mode="normal" in="SourceGraphic" in2="BackgroundImageFix" result="shape"/>
<feGaussianBlur stdDeviation="1.5" result="effect1_foregroundBlur_13_6890"/>
</filter>
<filter id="filter33_f_13_6890" x="887.879" y="449.679" width="19.2527" height="19.2852" filterUnits="userSpaceOnUse" color-interpolation-filters="sRGB">
<feFlood flood-opacity="0" result="BackgroundImageFix"/>
<feBlend mode="normal" in="SourceGraphic" in2="BackgroundImageFix" result="shape"/>
<feGaussianBlur stdDeviation="1.5" result="effect1_foregroundBlur_13_6890"/>
</filter>
<filter id="filter34_f_13_6890" x="137.545" y="157.049" width="19.2527" height="19.2852" filterUnits="userSpaceOnUse" color-interpolation-filters="sRGB">
<feFlood flood-opacity="0" result="BackgroundImageFix"/>
<feBlend mode="normal" in="SourceGraphic" in2="BackgroundImageFix" result="shape"/>
<feGaussianBlur stdDeviation="1.5" result="effect1_foregroundBlur_13_6890"/>
</filter>
<filter id="filter35_f_13_6890" x="137.545" y="157.049" width="19.2527" height="19.2852" filterUnits="userSpaceOnUse" color-interpolation-filters="sRGB">
<feFlood flood-opacity="0" result="BackgroundImageFix"/>
<feBlend mode="normal" in="SourceGraphic" in2="BackgroundImageFix" result="shape"/>
<feGaussianBlur stdDeviation="1.5" result="effect1_foregroundBlur_13_6890"/>
</filter>
<filter id="filter36_f_13_6890" x="137.545" y="157.049" width="19.2527" height="19.2852" filterUnits="userSpaceOnUse" color-interpolation-filters="sRGB">
<feFlood flood-opacity="0" result="BackgroundImageFix"/>
<feBlend mode="normal" in="SourceGraphic" in2="BackgroundImageFix" result="shape"/>
<feGaussianBlur stdDeviation="1.5" result="effect1_foregroundBlur_13_6890"/>
</filter>
<filter id="filter37_f_13_6890" x="137.545" y="157.049" width="19.2527" height="19.2852" filterUnits="userSpaceOnUse" color-interpolation-filters="sRGB">
<feFlood flood-opacity="0" result="BackgroundImageFix"/>
<feBlend mode="normal" in="SourceGraphic" in2="BackgroundImageFix" result="shape"/>
<feGaussianBlur stdDeviation="1.5" result="effect1_foregroundBlur_13_6890"/>
</filter>
<filter id="filter38_f_13_6890" x="137.545" y="157.049" width="19.2527" height="19.2852" filterUnits="userSpaceOnUse" color-interpolation-filters="sRGB">
<feFlood flood-opacity="0" result="BackgroundImageFix"/>
<feBlend mode="normal" in="SourceGraphic" in2="BackgroundImageFix" result="shape"/>
<feGaussianBlur stdDeviation="1.5" result="effect1_foregroundBlur_13_6890"/>
</filter>
<filter id="filter39_f_13_6890" x="137.545" y="157.049" width="19.2527" height="19.2852" filterUnits="userSpaceOnUse" color-interpolation-filters="sRGB">
<feFlood flood-opacity="0" result="BackgroundImageFix"/>
<feBlend mode="normal" in="SourceGraphic" in2="BackgroundImageFix" result="shape"/>
<feGaussianBlur stdDeviation="1.5" result="effect1_foregroundBlur_13_6890"/>
</filter>
<filter id="filter40_f_13_6890" x="1280.2" y="90.3877" width="19.2527" height="19.2852" filterUnits="userSpaceOnUse" color-interpolation-filters="sRGB">
<feFlood flood-opacity="0" result="BackgroundImageFix"/>
<feBlend mode="normal" in="SourceGraphic" in2="BackgroundImageFix" result="shape"/>
<feGaussianBlur stdDeviation="1.5" result="effect1_foregroundBlur_13_6890"/>
</filter>
<filter id="filter41_f_13_6890" x="1280.2" y="90.3877" width="19.2527" height="19.2852" filterUnits="userSpaceOnUse" color-interpolation-filters="sRGB">
<feFlood flood-opacity="0" result="BackgroundImageFix"/>
<feBlend mode="normal" in="SourceGraphic" in2="BackgroundImageFix" result="shape"/>
<feGaussianBlur stdDeviation="1.5" result="effect1_foregroundBlur_13_6890"/>
</filter>
<filter id="filter42_f_13_6890" x="1280.2" y="90.3877" width="19.2527" height="19.2852" filterUnits="userSpaceOnUse" color-interpolation-filters="sRGB">
<feFlood flood-opacity="0" result="BackgroundImageFix"/>
<feBlend mode="normal" in="SourceGraphic" in2="BackgroundImageFix" result="shape"/>
<feGaussianBlur stdDeviation="1.5" result="effect1_foregroundBlur_13_6890"/>
</filter>
<filter id="filter43_f_13_6890" x="32.4983" y="423.691" width="19.2527" height="19.2852" filterUnits="userSpaceOnUse" color-interpolation-filters="sRGB">
<feFlood flood-opacity="0" result="BackgroundImageFix"/>
<feBlend mode="normal" in="SourceGraphic" in2="BackgroundImageFix" result="shape"/>
<feGaussianBlur stdDeviation="1.5" result="effect1_foregroundBlur_13_6890"/>
</filter>
<filter id="filter44_f_13_6890" x="32.4983" y="423.691" width="19.2527" height="19.2852" filterUnits="userSpaceOnUse" color-interpolation-filters="sRGB">
<feFlood flood-opacity="0" result="BackgroundImageFix"/>
<feBlend mode="normal" in="SourceGraphic" in2="BackgroundImageFix" result="shape"/>
<feGaussianBlur stdDeviation="1.5" result="effect1_foregroundBlur_13_6890"/>
</filter>
<filter id="filter45_f_13_6890" x="32.4983" y="423.691" width="19.2527" height="19.2852" filterUnits="userSpaceOnUse" color-interpolation-filters="sRGB">
<feFlood flood-opacity="0" result="BackgroundImageFix"/>
<feBlend mode="normal" in="SourceGraphic" in2="BackgroundImageFix" result="shape"/>
<feGaussianBlur stdDeviation="1.5" result="effect1_foregroundBlur_13_6890"/>
</filter>
<filter id="filter46_f_13_6890" x="32.4983" y="423.691" width="19.2527" height="19.2852" filterUnits="userSpaceOnUse" color-interpolation-filters="sRGB">
<feFlood flood-opacity="0" result="BackgroundImageFix"/>
<feBlend mode="normal" in="SourceGraphic" in2="BackgroundImageFix" result="shape"/>
<feGaussianBlur stdDeviation="1.5" result="effect1_foregroundBlur_13_6890"/>
</filter>
<filter id="filter47_f_13_6890" x="32.4983" y="423.691" width="19.2527" height="19.2852" filterUnits="userSpaceOnUse" color-interpolation-filters="sRGB">
<feFlood flood-opacity="0" result="BackgroundImageFix"/>
<feBlend mode="normal" in="SourceGraphic" in2="BackgroundImageFix" result="shape"/>
<feGaussianBlur stdDeviation="1.5" result="effect1_foregroundBlur_13_6890"/>
</filter>
<filter id="filter48_f_13_6890" x="887.879" y="449.679" width="19.2527" height="19.2852" filterUnits="userSpaceOnUse" color-interpolation-filters="sRGB">
<feFlood flood-opacity="0" result="BackgroundImageFix"/>
<feBlend mode="normal" in="SourceGraphic" in2="BackgroundImageFix" result="shape"/>
<feGaussianBlur stdDeviation="1.5" result="effect1_foregroundBlur_13_6890"/>
</filter>
<filter id="filter49_f_13_6890" x="163.271" y="476.795" width="19.2527" height="19.2852" filterUnits="userSpaceOnUse" color-interpolation-filters="sRGB">
<feFlood flood-opacity="0" result="BackgroundImageFix"/>
<feBlend mode="normal" in="SourceGraphic" in2="BackgroundImageFix" result="shape"/>
<feGaussianBlur stdDeviation="1.5" result="effect1_foregroundBlur_13_6890"/>
</filter>
<filter id="filter50_f_13_6890" x="324.056" y="546.845" width="19.2527" height="19.2852" filterUnits="userSpaceOnUse" color-interpolation-filters="sRGB">
<feFlood flood-opacity="0" result="BackgroundImageFix"/>
<feBlend mode="normal" in="SourceGraphic" in2="BackgroundImageFix" result="shape"/>
<feGaussianBlur stdDeviation="1.5" result="effect1_foregroundBlur_13_6890"/>
</filter>
<filter id="filter51_f_13_6890" x="324.056" y="546.845" width="19.2527" height="19.2852" filterUnits="userSpaceOnUse" color-interpolation-filters="sRGB">
<feFlood flood-opacity="0" result="BackgroundImageFix"/>
<feBlend mode="normal" in="SourceGraphic" in2="BackgroundImageFix" result="shape"/>
<feGaussianBlur stdDeviation="1.5" result="effect1_foregroundBlur_13_6890"/>
</filter>
<filter id="filter52_f_13_6890" x="324.056" y="546.845" width="19.2527" height="19.2852" filterUnits="userSpaceOnUse" color-interpolation-filters="sRGB">
<feFlood flood-opacity="0" result="BackgroundImageFix"/>
<feBlend mode="normal" in="SourceGraphic" in2="BackgroundImageFix" result="shape"/>
<feGaussianBlur stdDeviation="1.5" result="effect1_foregroundBlur_13_6890"/>
</filter>
<filter id="filter53_f_13_6890" x="324.056" y="546.845" width="19.2527" height="19.2852" filterUnits="userSpaceOnUse" color-interpolation-filters="sRGB">
<feFlood flood-opacity="0" result="BackgroundImageFix"/>
<feBlend mode="normal" in="SourceGraphic" in2="BackgroundImageFix" result="shape"/>
<feGaussianBlur stdDeviation="1.5" result="effect1_foregroundBlur_13_6890"/>
</filter>
<filter id="filter54_f_13_6890" x="324.056" y="546.845" width="19.2527" height="19.2852" filterUnits="userSpaceOnUse" color-interpolation-filters="sRGB">
<feFlood flood-opacity="0" result="BackgroundImageFix"/>
<feBlend mode="normal" in="SourceGraphic" in2="BackgroundImageFix" result="shape"/>
<feGaussianBlur stdDeviation="1.5" result="effect1_foregroundBlur_13_6890"/>
</filter>
<filter id="filter55_f_13_6890" x="324.056" y="546.845" width="19.2527" height="19.2852" filterUnits="userSpaceOnUse" color-interpolation-filters="sRGB">
<feFlood flood-opacity="0" result="BackgroundImageFix"/>
<feBlend mode="normal" in="SourceGraphic" in2="BackgroundImageFix" result="shape"/>
<feGaussianBlur stdDeviation="1.5" result="effect1_foregroundBlur_13_6890"/>
</filter>
<filter id="filter56_f_13_6890" x="371.22" y="272.293" width="19.2527" height="19.2852" filterUnits="userSpaceOnUse" color-interpolation-filters="sRGB">
<feFlood flood-opacity="0" result="BackgroundImageFix"/>
<feBlend mode="normal" in="SourceGraphic" in2="BackgroundImageFix" result="shape"/>
<feGaussianBlur stdDeviation="1.5" result="effect1_foregroundBlur_13_6890"/>
</filter>
<filter id="filter57_f_13_6890" x="371.22" y="272.293" width="19.2527" height="19.2852" filterUnits="userSpaceOnUse" color-interpolation-filters="sRGB">
<feFlood flood-opacity="0" result="BackgroundImageFix"/>
<feBlend mode="normal" in="SourceGraphic" in2="BackgroundImageFix" result="shape"/>
<feGaussianBlur stdDeviation="1.5" result="effect1_foregroundBlur_13_6890"/>
</filter>
<filter id="filter58_f_13_6890" x="371.22" y="272.293" width="19.2527" height="19.2852" filterUnits="userSpaceOnUse" color-interpolation-filters="sRGB">
<feFlood flood-opacity="0" result="BackgroundImageFix"/>
<feBlend mode="normal" in="SourceGraphic" in2="BackgroundImageFix" result="shape"/>
<feGaussianBlur stdDeviation="1.5" result="effect1_foregroundBlur_13_6890"/>
</filter>
<filter id="filter59_f_13_6890" x="1408.82" y="164.957" width="19.2527" height="19.2852" filterUnits="userSpaceOnUse" color-interpolation-filters="sRGB">
<feFlood flood-opacity="0" result="BackgroundImageFix"/>
<feBlend mode="normal" in="SourceGraphic" in2="BackgroundImageFix" result="shape"/>
<feGaussianBlur stdDeviation="1.5" result="effect1_foregroundBlur_13_6890"/>
</filter>
<filter id="filter60_f_13_6890" x="1432.41" y="38.415" width="19.2527" height="19.2852" filterUnits="userSpaceOnUse" color-interpolation-filters="sRGB">
<feFlood flood-opacity="0" result="BackgroundImageFix"/>
<feBlend mode="normal" in="SourceGraphic" in2="BackgroundImageFix" result="shape"/>
<feGaussianBlur stdDeviation="1.5" result="effect1_foregroundBlur_13_6890"/>
</filter>
<filter id="filter61_f_13_6890" x="1432.41" y="38.415" width="19.2527" height="19.2852" filterUnits="userSpaceOnUse" color-interpolation-filters="sRGB">
<feFlood flood-opacity="0" result="BackgroundImageFix"/>
<feBlend mode="normal" in="SourceGraphic" in2="BackgroundImageFix" result="shape"/>
<feGaussianBlur stdDeviation="1.5" result="effect1_foregroundBlur_13_6890"/>
</filter>
<filter id="filter62_f_13_6890" x="1432.41" y="38.415" width="19.2527" height="19.2852" filterUnits="userSpaceOnUse" color-interpolation-filters="sRGB">
<feFlood flood-opacity="0" result="BackgroundImageFix"/>
<feBlend mode="normal" in="SourceGraphic" in2="BackgroundImageFix" result="shape"/>
<feGaussianBlur stdDeviation="1.5" result="effect1_foregroundBlur_13_6890"/>
</filter>
<filter id="filter63_f_13_6890" x="1432.41" y="568.312" width="19.2527" height="19.2852" filterUnits="userSpaceOnUse" color-interpolation-filters="sRGB">
<feFlood flood-opacity="0" result="BackgroundImageFix"/>
<feBlend mode="normal" in="SourceGraphic" in2="BackgroundImageFix" result="shape"/>
<feGaussianBlur stdDeviation="1.5" result="effect1_foregroundBlur_13_6890"/>
</filter>
<filter id="filter64_f_13_6890" x="1063.67" y="150.27" width="19.2527" height="19.2852" filterUnits="userSpaceOnUse" color-interpolation-filters="sRGB">
<feFlood flood-opacity="0" result="BackgroundImageFix"/>
<feBlend mode="normal" in="SourceGraphic" in2="BackgroundImageFix" result="shape"/>
<feGaussianBlur stdDeviation="1.5" result="effect1_foregroundBlur_13_6890"/>
</filter>
<filter id="filter65_f_13_6890" x="1063.67" y="150.27" width="19.2527" height="19.2852" filterUnits="userSpaceOnUse" color-interpolation-filters="sRGB">
<feFlood flood-opacity="0" result="BackgroundImageFix"/>
<feBlend mode="normal" in="SourceGraphic" in2="BackgroundImageFix" result="shape"/>
<feGaussianBlur stdDeviation="1.5" result="effect1_foregroundBlur_13_6890"/>
</filter>
<filter id="filter66_f_13_6890" x="1063.67" y="150.27" width="19.2527" height="19.2852" filterUnits="userSpaceOnUse" color-interpolation-filters="sRGB">
<feFlood flood-opacity="0" result="BackgroundImageFix"/>
<feBlend mode="normal" in="SourceGraphic" in2="BackgroundImageFix" result="shape"/>
<feGaussianBlur stdDeviation="1.5" result="effect1_foregroundBlur_13_6890"/>
</filter>
<filter id="filter67_f_13_6890" x="1063.67" y="150.27" width="19.2527" height="19.2852" filterUnits="userSpaceOnUse" color-interpolation-filters="sRGB">
<feFlood flood-opacity="0" result="BackgroundImageFix"/>
<feBlend mode="normal" in="SourceGraphic" in2="BackgroundImageFix" result="shape"/>
<feGaussianBlur stdDeviation="1.5" result="effect1_foregroundBlur_13_6890"/>
</filter>
<filter id="filter68_f_13_6890" x="1063.67" y="150.27" width="19.2527" height="19.2852" filterUnits="userSpaceOnUse" color-interpolation-filters="sRGB">
<feFlood flood-opacity="0" result="BackgroundImageFix"/>
<feBlend mode="normal" in="SourceGraphic" in2="BackgroundImageFix" result="shape"/>
<feGaussianBlur stdDeviation="1.5" result="effect1_foregroundBlur_13_6890"/>
</filter>
<filter id="filter69_f_13_6890" x="1364.88" y="346.862" width="19.2527" height="19.2852" filterUnits="userSpaceOnUse" color-interpolation-filters="sRGB">
<feFlood flood-opacity="0" result="BackgroundImageFix"/>
<feBlend mode="normal" in="SourceGraphic" in2="BackgroundImageFix" result="shape"/>
<feGaussianBlur stdDeviation="1.5" result="effect1_foregroundBlur_13_6890"/>
</filter>
<filter id="filter70_f_13_6890" x="1091.54" y="388.667" width="19.2527" height="19.2852" filterUnits="userSpaceOnUse" color-interpolation-filters="sRGB">
<feFlood flood-opacity="0" result="BackgroundImageFix"/>
<feBlend mode="normal" in="SourceGraphic" in2="BackgroundImageFix" result="shape"/>
<feGaussianBlur stdDeviation="1.5" result="effect1_foregroundBlur_13_6890"/>
</filter>
</defs>
</svg>
