<svg width="1440" height="3729" viewBox="0 0 1440 3729" fill="none" xmlns="http://www.w3.org/2000/svg">
<g clip-path="url(#clip0_24_8402)">
<path fill-rule="evenodd" clip-rule="evenodd" d="M-83.0005 2117.34L-104.859 2388.91C-126.73 2457.56 82.4891 2287.68 56.5572 2510.26C42.2797 2632.81 222.283 2533.75 276.584 2575.12C329.822 2615.43 313.005 2727.92 379.173 2755.3C445.342 2782.67 596.622 2727.06 675.721 2741.51C755.883 2757.02 763.865 2842.58 759.979 2942.14C755.029 3040.64 738.212 3153.13 804.381 3180.5C870.549 3207.88 934.068 3144.19 1000.24 3171.57C1067.47 3200.01 951.792 3357.18 1083.88 3406.12C1215.96 3455.05 1367.15 3397.4 1332.85 3602.15C1315.45 3706 1447.03 3756.67 1542.5 3718L1781.16 3694.78L2215.68 2619.62C2192.29 2596.23 2007.82 2411.76 1961.04 2364.99C1913.21 2317.15 1761.23 2165.18 1713.4 2117.34C1666.62 2070.57 1600.41 2004.35 1553.63 1957.58C1506.86 1910.81 1637.77 22.2728 1591 -24.4999C1543.16 -72.3356 1408.34 -502.664 1360.5 -550.5C1313.73 -597.273 1159.27 -411.227 1112.5 -458C1065.73 -504.773 798.773 -411.227 752 -458C704.164 -505.836 312.836 -350.664 265 -398.5L-31.0004 -146L-83.0005 2117.34Z" fill="#2F365B"/>
</g>
<defs>
<clipPath id="clip0_24_8402">
<rect width="1440" height="3729" fill="white"/>
</clipPath>
</defs>
</svg>
