<svg width="236" height="215" viewBox="0 0 236 215" fill="none" xmlns="http://www.w3.org/2000/svg">
<g clip-path="url(#clip0_13_7405)">
<path d="M180.398 215H33.3365C24.6641 215 16.4837 211.93 10.2101 206.282C3.69038 200.45 0 192.223 0 183.751V51.2636C0 42.7913 3.75189 34.6259 10.2101 28.7322C16.4222 23.1453 24.6641 20.0143 33.3365 20.0143H106.898C113.664 20.0143 119.199 25.5397 119.199 32.293C119.199 39.0463 113.664 44.5717 106.898 44.5717H33.3365C30.8147 44.5717 28.416 45.4312 26.6938 46.966C25.3406 48.1939 24.6026 49.7287 24.6026 51.2636V183.751C24.6026 185.286 25.3406 186.82 26.6938 188.048C28.3544 189.583 30.8147 190.443 33.3365 190.443H180.46C182.981 190.443 185.38 189.583 187.102 188.048C188.456 186.82 189.194 185.286 189.194 183.751V117.507C189.194 110.754 194.729 105.228 201.495 105.228C208.261 105.228 213.796 110.754 213.796 117.507V183.751C213.796 192.223 210.044 200.388 203.586 206.282C197.374 211.869 189.132 215 180.46 215H180.398ZM75.3453 158.211C72.024 158.211 68.7641 156.86 66.4269 154.405C63.4746 151.274 62.306 146.792 63.4746 142.678L73.9922 104.799C74.6072 102.527 75.8989 100.501 77.6211 98.9663L177.446 9.02484C183.904 3.19246 192.453 0 201.433 0C210.413 0 218.963 3.19246 225.421 9.02484C232.125 15.0414 236 23.5751 236 32.3544C236 41.1336 232.125 49.6059 225.421 55.6839L125.596 145.564C124.058 146.976 122.152 147.958 120.06 148.449L78.0516 157.904C77.129 158.088 76.2679 158.211 75.3453 158.211ZM96.7495 114.806L92.6901 129.417L111.511 125.181L208.937 37.45C210.536 36.038 211.397 34.1962 211.397 32.3544C211.397 30.5126 210.536 28.7322 208.937 27.2587C205.124 23.8207 197.743 23.7593 193.868 27.2587L96.688 114.806H96.7495Z" fill="#FFAD41"/>
</g>
<defs>
<clipPath id="clip0_13_7405">
<rect width="236" height="215" fill="white"/>
</clipPath>
</defs>
</svg>
