<svg width="1165" height="694" viewBox="0 0 1165 694" fill="none" xmlns="http://www.w3.org/2000/svg">
<g clip-path="url(#clip0_23_8144)">
<g opacity="0.9">
<path d="M765.69 171.091C809.57 219.781 881.8 224.861 931.96 181.551C980.94 139.251 987.1 68.0507 944.13 19.4707C1012.87 61.9507 1020.6 156.601 959.78 209.191C898.41 262.231 800.58 242.831 765.7 171.101H765.69V171.091Z" fill="#CCCCCC"/>
<path d="M974.83 159.51C985.08 158.31 987.15 173.86 977.92 175.18C966.16 176.87 966.45 160.47 974.83 159.51Z" fill="#B3B3B3"/>
<path d="M843.91 212.91C853.09 211.14 856.74 224.05 847 222.99C840.66 222.29 838.12 214.02 843.91 212.91Z" fill="#B3B3B3"/>
<path d="M987.59 104.981C993.87 104.811 995.1 113.731 989.91 114.701C982.19 116.151 980.93 105.161 987.59 104.981Z" fill="#B3B3B3"/>
<path d="M932.93 207.681C934.39 211.481 931.94 210.551 929.84 212.721C929.04 213.561 928.3 216.291 926.95 216.651C923.74 217.481 920.74 215.441 920.57 212.551C920.29 207.421 923.17 205.321 928.48 206.191C930.04 206.451 931.16 208.401 932.92 207.691L932.93 207.681Z" fill="#CCCCCC"/>
<path d="M932.93 207.68C931.16 208.39 930.04 206.44 928.49 206.18C923.16 205.31 920.3 207.41 920.58 212.54C915.3 210.97 918.54 203.72 922.71 202.46C926.34 201.36 931.6 204.18 932.94 207.68H932.93Z" fill="#B3B3B3"/>
<path d="M890.64 209.55C895.62 208.61 900.98 211.93 900.1 217.2C896.27 207.27 883.42 213.26 888.9 222.42L887.94 222.99C882.35 219.82 885.05 210.61 890.64 209.53V209.55Z" fill="#B3B3B3"/>
<path d="M899.91 217.771C900.38 222.221 892.98 225.85 889.29 223.18C894.22 224.1 898.21 222.471 899.91 217.771Z" fill="#B3B3B3"/>
<path d="M944.14 19.4605C987.11 68.0305 980.96 139.25 931.97 181.54C881.81 224.85 809.58 219.77 765.7 171.08C712.87 62.4105 839.8 -45.0195 944.14 19.4605Z" fill="#F2F2F2"/>
<path d="M913.62 26.9404C913.12 32.6904 911.46 26.7204 910.53 27.5104C909.41 34.7604 901 40.0904 893.73 37.7804C893.29 39.8704 897.54 38.5104 898.37 40.0204C896.06 40.1304 893.89 40.0404 891.61 39.6504C891.49 39.6304 891.34 39.6704 891.23 39.6504C889.91 38.1304 891.27 36.2904 891.23 36.1004C891.17 35.8204 888.14 32.8704 887.76 31.2504C884.89 19.0204 901.22 11.3704 909.77 21.1704L913.64 26.9604V26.9404H913.62Z" fill="#E6E6E6"/>
<path d="M913.62 26.9408L909.75 21.1508C901.2 11.3508 884.87 19.0308 887.74 31.2308C888.12 32.8608 891.16 35.7908 891.22 36.0908C891.26 36.2708 889.9 38.1308 891.22 39.6308C878.91 36.8208 880.59 15.3308 893.92 12.0008C903.4 9.64082 914.47 17.1708 913.62 26.9308V26.9408Z" fill="#CCCCCC"/>
<path d="M891.61 39.63C893.89 40.04 896.06 40.1 898.37 40.01C897.54 38.49 893.3 39.84 893.73 37.76C901 40.07 909.41 34.75 910.53 27.49C911.47 26.7 913.12 32.68 913.62 26.92C914.47 17.16 903.41 9.62002 893.92 11.99C908.59 7.51002 920.91 24.6 911.68 36.45C907.56 41.74 896.74 44.74 891.6 39.62L891.61 39.63Z" fill="white"/>
<path d="M951.47 147.56C951.5 147.91 951.89 147.95 951.85 148.67L949.15 150.36C950.27 149.33 948.83 143.84 947.8 143.83C948.95 152.23 938.47 159.42 930.42 156.53C928.11 157.31 935.81 158.29 935.06 159.14L927.53 158.77C927.46 158.7 927.59 158.48 927.53 158.4C925.3 155.5 927.68 155.36 927.53 154.85C927.41 154.44 924.49 151.54 924.06 149.99C918.88 131.62 949.82 126.82 951.48 147.57L951.47 147.56Z" fill="#E6E6E6"/>
<path d="M951.47 147.561C949.81 126.801 918.86 131.601 924.05 149.991C924.49 151.521 927.4 154.421 927.52 154.841C927.67 155.351 925.29 155.501 927.52 158.391C923.41 157.891 919.16 151.351 918.63 147.741C916.99 136.411 926.72 126.761 938.52 128.141C947.29 129.171 954.9 139.401 951.45 147.561H951.47Z" fill="#CCCCCC"/>
<path d="M951.86 148.671C951.54 154.831 944.05 160.441 938.15 160.991C935.77 161.211 929.22 160.601 927.53 158.751L935.06 159.121C935.82 158.271 928.11 157.291 930.42 156.511C938.48 159.411 948.95 152.211 947.8 143.811C948.82 143.831 950.27 149.321 949.15 150.341L951.85 148.671H951.86Z" fill="white"/>
<path d="M880.41 186.4C880.8 181.52 882.73 179.63 886.98 177.44C887.13 177.46 889.36 177.77 889.49 177.81C894.54 179.81 892.69 185.32 887.94 186.77C887.46 186.92 881.32 187.63 880.99 187.52C880.8 187.45 880.66 186.64 880.41 186.4Z" fill="#F2F2F2"/>
<path d="M877.51 141.211C886.37 139.121 887.88 151.351 879.06 149.811C874.28 148.971 873.41 142.191 877.51 141.211Z" fill="#E6E6E6"/>
<path d="M970.79 99.0109C970.79 99.1209 970.28 100.711 970.02 100.871C969.51 100.211 969.46 99.0209 969.06 98.2609C968.26 105.501 961.16 109.921 954.19 106.471C945.27 94.5709 962.22 85.5709 969.25 95.4609C969.82 96.2609 970.77 98.0709 970.8 99.0009L970.79 99.0109Z" fill="#E6E6E6"/>
<path d="M970.79 99.0109C970.76 98.0709 969.82 96.2609 969.24 95.4609C962.2 85.5809 945.26 94.5809 954.18 106.491C954.2 106.511 953.33 106.601 953.99 107.231C954.41 107.641 960.43 108.801 955.34 109.091C939.17 103.261 951.07 81.0909 965.96 88.5609C970.13 90.6609 971.97 95.6809 971.94 99.9509L970.79 99.0209V99.0109Z" fill="#CCCCCC"/>
<path d="M970.01 100.88C971.01 102.2 971.17 100.77 971.56 101.45C972.4 102.94 968.35 107.81 966.73 108.73C962.7 111.02 959.37 110.56 955.33 109.11C960.42 108.82 954.39 107.65 953.97 107.24C953.32 106.6 954.19 106.52 954.16 106.5C961.13 109.96 968.23 105.53 969.03 98.29C969.43 99.04 969.49 100.24 969.99 100.9L970.01 100.88Z" fill="white"/>
<path d="M861.48 124.041L861.1 118.061C869.61 109.091 872.52 127.541 861.48 124.041Z" fill="#E6E6E6"/>
<path d="M953.4 56.0704C953.28 57.8704 953.04 57.1104 953.02 57.1904L951.66 58.3104L950.5 55.3104C949.38 60.9104 944.9 63.8704 939.1 63.5304C937.57 63.4404 936.47 63.4504 935.23 62.4104C930.66 58.5404 932.58 49.6704 938.12 47.4804C945.45 44.5704 951.15 49.7404 953.37 56.0704H953.4Z" fill="#E6E6E6"/>
<path d="M953.4 56.0706C951.17 49.7506 945.48 44.5706 938.15 47.4806C932.59 49.6906 930.69 58.5406 935.26 62.4106L934.68 63.9106H933.53C931.56 62.2006 929.09 59.1906 928.7 56.6206C926.13 39.5206 954.78 36.3006 953.42 56.0506H953.41L953.4 56.0706Z" fill="#CCCCCC"/>
<path d="M953.01 57.1903C951.26 64.7603 945.16 66.8003 937.76 65.7903L936.4 65.2203L939.68 65.0303L939.1 63.5303C944.88 63.8803 949.38 60.9203 950.5 55.3203L951.65 58.3003L953 57.1903H953.01Z" fill="white"/>
<path d="M886.97 177.441C882.73 179.651 880.79 181.521 880.4 186.401C875.9 182.141 880.79 176.681 886.97 177.441Z" fill="#CCCCCC"/>
<path d="M861.48 124.041C857.71 122.841 858.89 120.401 861.1 118.061L861.48 124.041Z" fill="#CCCCCC"/>
<path d="M790.03 126.271C798.53 128.121 804.78 137.131 803.55 145.501C801.27 143.991 800.93 140.451 799.3 138.221C789.25 124.471 761.34 135.321 775.35 158.011C775.63 158.461 776.41 160.861 776.51 160.991C755.3 151.511 767.01 121.241 790.03 126.261V126.271Z" fill="#CCCCCC"/>
<path d="M776.51 161C776.41 160.88 775.63 158.46 775.35 158.02C789.06 164.65 805.3 152.83 799.3 138.23C800.93 140.46 801.27 144 803.55 145.51C804.78 137.14 798.53 128.14 790.03 126.28C805.05 128.9 810.81 148.82 798.72 158.77C794.01 162.65 780.55 165.83 776.51 161.01V161Z" fill="white"/>
<path d="M799.3 138.22C805.3 152.83 789.06 164.64 775.35 158.01C761.34 135.32 789.25 124.46 799.3 138.22Z" fill="#E6E6E6"/>
<path d="M898.95 78.4707C898.91 78.3907 897.99 78.6507 897.79 78.2807C896.91 76.6107 896.32 74.7207 895.09 73.2407C885.22 61.4407 861.84 72.0107 874.62 90.7907C874.81 91.0707 874.96 92.1207 875.39 92.6507C863.4 88.4507 864.01 72.1807 874.43 66.1407C884.84 60.0907 898.8 65.9007 898.95 78.4607V78.4707Z" fill="#CCCCCC"/>
<path d="M898.95 78.47C901.26 82.85 896.16 90.32 892.19 92.66C888.02 95.12 878.49 96.52 875.39 92.66C874.96 92.13 874.81 91.08 874.62 90.8C886.78 96.27 900.03 85.79 895.08 73.25C896.31 74.72 896.91 76.62 897.78 78.29C897.98 78.67 898.9 78.4 898.94 78.48L898.95 78.47Z" fill="white"/>
<path d="M895.08 73.2508C900.01 85.7708 886.77 96.2708 874.61 90.8008C861.83 72.0308 885.21 61.4508 895.08 73.2508Z" fill="#E6E6E6"/>
<path d="M854.53 178.191C852 177.811 852.64 175.051 850.28 172.591C841.24 163.131 823.89 174.261 834.06 188.261C834.37 188.701 834.78 189.701 834.83 189.761C831.29 189.131 827.94 184.591 827.49 181.361C825.07 163.991 852.54 158.001 854.52 178.191H854.53Z" fill="#CCCCCC"/>
<path d="M854.53 178.191C854.98 182.771 853.49 186.851 849.32 189.391C846.02 191.411 837.58 192.851 834.84 189.761C834.78 189.701 834.38 188.701 834.07 188.261C844.71 192.361 856.76 183.271 850.29 172.591C852.65 175.051 852.01 177.811 854.54 178.191H854.53Z" fill="white"/>
<path d="M850.29 172.59C856.75 183.29 844.72 192.37 834.07 188.26C823.9 174.25 841.25 163.13 850.29 172.59Z" fill="#E6E6E6"/>
<path d="M824.41 40.0007C823.71 40.3807 822.99 40.7307 822.28 41.1207C821.62 40.0107 822.26 39.3007 821.7 38.1407C816.53 27.3907 800.1 41.4407 810.88 49.3407C810.82 49.4007 810.55 50.0207 810.5 50.0807C803.58 57.0507 796.35 63.6507 790.23 71.3707C787.11 61.4807 776.49 63.5307 774.98 73.0407C774.57 75.5907 775.88 79.3607 775.75 80.5207C775.54 82.4107 765.76 96.1507 764.93 99.5707C769.66 68.3107 793.4 38.4407 821.9 23.5707C839.12 14.5807 853.93 13.7007 873.26 16.4807C870.91 21.2207 863.69 20.8107 858.97 22.4507C844.85 27.3607 836.83 33.3807 824.41 40.0107V40.0007Z" fill="white"/>
<path d="M784.43 71.3705C785.25 71.2305 789.72 71.1305 790.03 71.9405C788.86 75.4405 785.56 79.7705 781.34 79.2205C773.3 78.1605 780.23 72.0704 784.43 71.3804V71.3705Z" fill="#CCCCCC"/>
<path d="M824.41 40.0006C829.62 41.8306 826.9 49.8106 823.06 52.3206C819.21 54.8406 812.37 55.1106 810.51 50.0806C810.57 50.0206 810.83 49.4006 810.89 49.3406C811.3 48.9306 811.88 49.1406 812.44 48.5906C815.56 50.5506 819.91 47.9506 821.33 45.0506C824.82 37.8306 815.58 47.0506 813.22 47.4806C813.32 47.3706 813.11 46.6506 813.22 46.5506C816.03 43.7006 819.64 41.4406 821.72 38.1406C822.28 39.3206 821.64 40.0306 822.3 41.1406C823 40.7506 823.72 40.3906 824.43 40.0206L824.41 40.0006Z" fill="#F2F2F2"/>
<path d="M821.7 38.131C819.62 41.441 816.01 43.681 813.2 46.541C813.09 46.651 813.3 47.371 813.2 47.471C812.99 47.681 812.64 48.381 812.43 48.581C811.89 49.131 811.29 48.921 810.88 49.331C800.09 41.441 816.52 27.371 821.7 38.131Z" fill="#F2F2F2"/>
<path d="M812.43 48.5901C812.64 48.3801 812.99 47.6901 813.2 47.4801C815.57 47.0601 824.8 37.8301 821.31 45.0501C819.91 47.9501 815.55 50.5501 812.42 48.5901H812.43Z" fill="#CCCCCC"/>
<path d="M832.13 107.231L831.36 108.341C827.05 97.4207 811.93 108.331 819.77 115.061V115.431C818.02 116.531 815.68 112.191 815.52 111.141C814.13 101.691 828.11 96.9207 832.13 107.221V107.231Z" fill="#CCCCCC"/>
<path d="M819.77 115.44V115.07C821.9 116.9 825.34 116.38 827.68 115.07C828.58 114.56 832.03 109.89 832.12 109.28C832.23 108.54 831.59 108.95 831.35 108.35L832.12 107.23C834.9 114.36 825.62 120.01 819.76 115.45L819.77 115.44Z" fill="white"/>
<path d="M831.36 108.34C831.6 108.95 832.25 108.53 832.13 109.27C832.03 109.88 828.59 114.56 827.69 115.06C825.34 116.37 821.91 116.89 819.78 115.06C811.93 108.31 827.04 97.4102 831.37 108.34H831.36Z" fill="#E6E6E6"/>
<path d="M847.19 60.1707V61.2907C846.66 63.4507 845.41 59.4407 843.91 58.6807C837.23 55.3307 831.81 62.7107 835.6 68.3907V68.7607C824.55 62.8807 841.9 48.4307 847.19 60.1707Z" fill="#CCCCCC"/>
<path d="M835.61 68.7502V68.3802C841.21 71.0502 847.2 66.8502 847.2 61.2802V60.1602C850.57 67.6502 842.77 72.5702 835.61 68.7602V68.7502Z" fill="white"/>
<path d="M847.19 61.29C847.19 66.86 841.21 71.05 835.6 68.39C831.8 62.72 837.22 55.34 843.9 58.68C845.41 59.43 846.65 63.44 847.18 61.29H847.19Z" fill="#E6E6E6"/>
</g>
<path d="M1153.74 329.91C1153.74 329.91 1153.71 329.91 1153.7 329.91C1157.2 315.53 1152.63 299.79 1142.78 288.21C1134.42 278.37 1124.74 279.44 1122.5 266.29C1121.86 262.52 1121.22 227.65 1122.5 225.99C1125.01 222.73 1131.23 229.76 1131.86 221.03C1132.6 211.51 1123.92 201.26 1116.25 195.59L1115.47 198.4C1115.47 198.4 1115.45 198.38 1115.44 198.38L1116.2 195.59C1117.02 188.35 1114.74 183.59 1113.1 177.22L1109.22 188.55L1113.11 177.23C1112.06 173.15 1110.25 173.21 1110.02 173C1105.81 178.03 1100.21 171.27 1093.65 171.56C1092.33 171.64 1088.54 175.28 1087.4 175.82C1088.54 175.24 1092.33 171.6 1093.65 171.56C1100.22 171.27 1105.83 177.99 1110.02 173C1110.02 173 1110.04 172.98 1110.05 172.97C1108.45 167.22 1110.78 165.6 1110.05 163.08C1110.03 163.08 1110.02 163.08 1110 163.08C1108.58 158.2 1108.77 152.58 1102.19 150.35C1101.72 150.19 1101.12 150.15 1100.43 150.16C1101.13 150.14 1101.76 150.18 1102.24 150.35C1102.74 146.07 1098.21 143.02 1097.54 139.06H1096.03C1095.94 139.59 1092.19 146.92 1091.32 148.94C1092.11 150.29 1093.79 150.57 1095.65 150.52C1093.78 150.57 1092.08 150.3 1091.28 148.94C1089.23 153.64 1080.24 158.39 1083.44 167.22C1083.44 167.24 1083.43 167.25 1083.42 167.27C1082.33 169.71 1077.85 177.03 1077.17 179.31C1075.48 185.1 1079.13 192.84 1074.06 198.42C1081.31 193.77 1090.37 191.39 1099.01 192.16C1090.38 191.4 1081.34 193.78 1074.11 198.42C1067.53 202.64 1057.94 213.02 1060.04 221.05H1060.09C1062.28 229.49 1067.12 222.58 1069.45 227.42C1070.32 229.2 1070.64 262.21 1069.45 266.31C1073.19 265.94 1076.48 265.11 1080.36 264.9L1080.32 264.94C1076.44 265.15 1073.2 265.94 1069.4 266.35C1065.02 281.16 1056.8 278.18 1047.53 289.68C1038.27 301.17 1035.16 315.76 1036.62 329.94C1020.25 331.61 1025.14 336.68 1038.26 338.41C1043.83 339.16 1051.05 338.04 1056.98 338.41H1135.03C1140.96 338 1148.13 339.16 1153.75 338.41C1166.81 336.72 1170.6 331.46 1153.75 329.93L1153.74 329.91ZM1107.06 163.92C1106.69 164.49 1106.33 165.23 1105.33 165.87C1105.33 165.87 1105.33 165.85 1105.33 165.84C1106.33 165.21 1106.69 164.48 1107.06 163.91V163.92ZM1100.13 151.39C1098.06 151.36 1096.48 157.03 1097.52 167.29L1097.48 167.27C1096.43 156.95 1098.04 151.27 1100.14 151.39H1100.13ZM1070.99 329.91C1070.99 329.91 1070.94 329.91 1070.91 329.91C1064.44 323.8 1061.07 313.15 1061.17 302.57C1061.08 313.17 1064.46 323.83 1070.95 329.91C1078.99 329.78 1087.08 329.73 1095.17 329.74C1087.1 329.74 1079.02 329.78 1070.99 329.91ZM1087.01 168.47C1085.74 167.3 1088.46 162.57 1086.3 160.57C1088.52 162.52 1085.84 167.2 1087.01 168.47ZM1086.76 175.94C1085.51 175.9 1084.32 174.17 1083.23 174.21C1084.34 174.15 1085.52 175.9 1086.76 175.94ZM1084.16 187.97C1086.45 187.97 1093.78 186.62 1100.11 186.57C1093.78 186.62 1086.45 187.98 1084.16 187.97ZM1119.38 329.91C1119.38 329.91 1119.36 329.91 1119.35 329.91C1131 316.07 1133.43 300.4 1128.43 288.47C1133.45 300.39 1131.04 316.07 1119.38 329.91Z" fill="#A1A2BD"/>
<path d="M1097.52 138.99C1097.52 138.99 1097.52 139.02 1097.53 139.04H1097.57L1097.52 138.99Z" fill="#A1A2BD"/>
<path d="M1134.97 338.43C1121.5 339.37 1108.84 339.79 1096.12 339.77C1108.83 339.79 1121.48 339.37 1134.97 338.43H1056.93C1050.99 338.06 1043.78 339.18 1038.21 338.43C1037.47 352.21 1038.52 365.74 1039.76 379.43L1150.59 378.02C1151.64 364.91 1154.83 351.75 1153.69 338.43C1148.08 339.18 1140.91 338.02 1134.97 338.43Z" fill="#A1A2BD"/>
<path d="M1039.71 379.47C1039.94 382.03 1042.97 380.48 1038.21 383.69H882.12C885 387.91 900.34 407.81 900.84 409.84C901.21 411.3 900.35 411.65 899.44 411.91C900.32 411.65 901.13 411.27 900.79 409.84C900.33 407.85 884.99 387.95 882.07 383.69V383.65C870.97 367.48 856.73 352.62 846.95 335.58C835.76 352 821.56 367.35 810.28 383.65C807.77 387.29 791.69 409.63 791.56 411.24C791.46 412.63 792.03 413.21 792.7 413.43C792.01 413.25 791.41 412.7 791.51 411.28C791.6 409.67 807.72 387.33 810.23 383.69H660.36C660.45 415.46 656.89 456.46 660.36 486.95C660.36 487.03 660.36 487.1 660.38 487.18C660.38 487.1 660.38 487.03 660.36 486.95C656.89 456.42 660.45 415.46 660.36 383.69C660.36 370.5 658.72 352.37 660.36 339.88L502.68 338.48C504.92 349.07 502.5 371.49 502.68 383.73C494.96 384.77 483.23 382.33 476.15 383.73C475.05 383.94 468.57 385.55 468.34 385.84C466.04 388.84 457.29 451.59 457.39 460.12C457.27 451.73 466.04 388.8 468.34 385.8C468.57 385.51 475.05 383.9 476.15 383.69H352.81C353.29 384.39 354.14 385.57 355.21 387.03C354.14 385.56 353.29 384.39 352.81 383.69V383.65C341.8 367.48 327.28 352.71 317.69 335.58C305.73 351.55 292.16 367.23 281.02 383.65C274.44 393.33 264.99 403.63 263.85 413.35L316.14 346.87L368.43 413.35C368.34 412.71 368.69 412.42 369.19 412.22C368.7 412.42 368.36 412.72 368.43 413.35C369.67 423.47 369.96 433.34 369.84 443.16C369.96 433.35 369.67 423.51 368.43 413.39L316.14 346.91L263.85 413.39C261.2 435.4 264.95 459.23 265.4 481.28H265.36C264.9 459.23 261.2 435.4 263.81 413.39C264.95 403.67 274.4 393.37 280.98 383.69L123.3 382.28C123.49 379.64 124.76 379.18 124.85 378.02H124.9C126.09 364.83 127.18 351.76 126.45 338.43C113.48 340.17 25.1201 339.92 10.9201 338.43C9.46008 351.47 14.3901 365.7 15.6201 378.02H15.5701C15.7101 379.68 14.6101 382.16 17.1201 382.29L15.5701 689.12C131.78 699.21 285.38 688.99 405.84 689.12C405.84 689.13 405.86 689.15 405.87 689.16H502.68C502.79 686.75 502.87 684.34 502.94 681.93C502.87 684.35 502.78 686.78 502.68 689.2H532.36C532.36 689.2 532.36 689.17 532.36 689.16H537.02C533.49 658.91 534.82 600.05 580.7 599.68C534.87 600.09 533.54 658.92 537.07 689.16C543.78 689.16 551.09 687.75 557.34 687.75C573.73 687.75 590.68 689.16 607.3 689.16H632.23C631.07 665.22 634.02 623.8 611.75 605.07C634.07 623.78 631.11 665.22 632.28 689.2H660.36V689.16C823.2 689.03 986.18 689.24 1149.02 689.16C1153.82 588.32 1142.59 482.56 1149.02 382.29C1149.21 379.64 1150.49 379.18 1150.58 378.02L1150.53 378.07L1039.7 379.47H1039.71ZM469.9 495.39C469.9 495.39 469.84 495.39 469.81 495.39C469.84 495.39 469.87 495.39 469.89 495.39H469.9ZM469.12 516.61C472.41 518.22 470.86 520.54 471.45 522.28C471.68 522.86 470.72 532.83 469.12 533.61C470.72 532.78 471.63 522.81 471.45 522.28V522.32C470.86 520.58 472.41 518.26 469.12 516.65C457.02 515.51 454.2 517.24 454.13 520.77C454.18 517.22 456.97 515.47 469.12 516.61ZM455.87 532.57C455.87 532.91 455.86 533.25 455.84 533.6C455.82 533.89 455.81 534.1 455.8 534.28C455.8 534.1 455.81 533.87 455.84 533.56C455.86 533.23 455.87 532.9 455.87 532.57ZM455.83 535.01C455.75 540.21 453.63 547.15 453.86 553.41C453.61 547.16 455.71 540.21 455.83 535.01ZM371.54 409.84C371.54 409.84 371.52 409.78 371.51 409.75C371.52 409.78 371.54 409.81 371.55 409.84C371.8 410.74 371.55 411.22 371.11 411.52C371.54 411.22 371.78 410.74 371.55 409.84H371.54ZM368.43 481.25C368.43 481.25 368.43 481.34 368.44 481.39C368.44 481.35 368.43 481.32 368.43 481.28C368.43 481.28 368.43 481.26 368.43 481.25ZM265.36 481.3C265.36 482.46 262.71 484.37 263.8 486.9C262.71 484.37 265.32 482.46 265.36 481.3ZM122.98 384.32C122.53 386.02 121.82 386.36 121.76 386.52C121.81 386.33 122.52 386.02 122.98 384.32ZM121.75 386.55C121.24 394.6 120.98 402.86 120.89 411.22C120.98 402.85 121.24 394.6 121.75 386.55ZM121.75 567.53C121.73 567.69 121.03 568.58 120.49 569.62C121.03 568.57 121.75 567.65 121.75 567.49C122.62 544.33 123.26 520 123.3 496.79C123.32 496.79 123.33 496.79 123.35 496.79C123.3 519.96 122.67 544.33 121.8 567.49H479.27V567.53H121.75ZM474.6 522.24C474.6 522.24 474.6 522.27 474.6 522.28H474.56C474.86 520.79 473.86 517.84 475.09 516.78C473.93 517.87 474.9 520.77 474.6 522.24ZM485.52 534.27C485.37 532.15 474.31 537.84 474.02 527.67C474.34 537.86 485.53 532.03 485.53 534.27H485.52ZM474.24 539.89C473.43 544.68 475.53 551.67 474.78 557.84C475.5 551.67 473.39 544.67 474.24 539.89ZM440.22 657.35C437.96 661.95 399.56 656.01 399.16 673.17C399.52 656 437.95 661.91 440.22 657.3C441.4 654.9 441.64 649.64 441.65 644.06C441.65 649.65 441.4 654.94 440.22 657.35ZM441.77 627.64C441.6 629.04 441.55 631 441.55 633.26C441.55 630.98 441.6 629.01 441.77 627.6C456.42 609.7 482.42 594.82 488.61 573.2H488.62C482.46 594.84 456.38 609.69 441.77 627.64ZM480.85 559.04V559C484.4 558.62 488.43 560.22 491.22 557.51C488.48 560.27 484.41 558.67 480.85 559.04ZM502.69 486.99C502.69 490.79 501.14 495.14 501.14 496.88C490.86 498.37 479.86 495.47 469.9 495.47L462.11 513.09H462.09L469.9 495.43L469.94 495.39C479.93 495.39 490.87 498.28 501.13 496.79C501.13 495.07 502.67 490.74 502.68 486.95C502.68 486.95 502.68 486.98 502.68 486.99H502.69ZM608.66 674.95C610.52 615.05 557.9 609.35 555.97 666.39C557.9 609.3 610.53 615 608.66 674.95ZM846.96 346.87L897.69 413.35C897.62 412.7 897.98 412.41 898.48 412.21C898 412.41 897.66 412.71 897.73 413.35C900.24 435.94 899.28 458.57 899.28 481.24V486.91H899.23V481.28C899.23 458.61 900.19 435.98 897.68 413.39H897.63L846.9 346.92L846.94 346.87H846.96ZM794.65 413.35L794.62 413.38C794.62 413.38 794.6 413.37 794.57 413.37C794.61 413.36 794.63 413.35 794.64 413.35H794.65ZM660.43 572.55C660.43 571.71 660.27 570.65 660.27 569.7C660.27 570.65 660.44 571.71 660.43 572.55ZM660.42 687.74C660.42 687.74 660.39 687.74 660.38 687.74C665.21 654.4 653.89 604.62 660.38 573.23C660.38 573.22 660.38 573.2 660.38 573.19H660.42C653.94 604.55 665.26 654.39 660.42 687.73V687.74ZM660.77 494.72C661.14 495.48 661.74 496.18 662.7 496.78H1039.76C1039.76 494.68 1042.84 495.78 1042.86 494.68C1042.86 494.69 1042.86 494.7 1042.86 494.71C1042.86 495.79 1039.76 494.67 1039.76 496.82H662.7C661.74 496.2 661.14 495.49 660.77 494.72ZM689.36 633.33C687.43 630.42 678.45 632.72 672.89 632.61C672.89 632.6 672.89 632.58 672.89 632.57C678.49 632.67 687.49 630.37 689.36 633.33ZM688.45 619.87C687.68 619.67 687.1 619.66 686.67 619.75C687.09 619.66 687.67 619.67 688.45 619.86V619.87ZM688.78 620.74C688.78 621.14 688.69 621.75 688.46 622.67C688.34 622.68 688.21 622.69 688.07 622.69C688.21 622.69 688.34 622.69 688.46 622.67C688.69 621.77 688.77 621.15 688.78 620.74ZM664.13 687.57C668.04 687.59 673.44 687.95 678.35 687.93C673.44 687.95 668.05 687.59 664.13 687.57ZM676.81 660.9L676.83 660.88C680.81 659.34 684.03 659.68 686.53 661.16C684.02 659.68 680.79 659.35 676.81 660.9ZM693.16 658.09C691.61 658.17 689.96 658.17 688.46 658.09C685.6 657.92 681.56 658.58 679.14 658.09C674.94 657.21 673.28 655.94 672.73 654.14C673.29 655.92 674.95 657.18 679.1 658.05C681.52 658.54 685.59 657.88 688.46 658.05L690.01 643.2L672.89 642.49L690.02 643.2L688.47 658.05C690.02 658.13 691.67 658.13 693.17 658.05C693.95 651.04 691.3 644.61 694.07 642.09C691.33 644.63 693.95 651.06 693.17 658.05C697.87 657.84 707.4 659.58 710.33 655.95C710.33 655.95 710.33 655.97 710.33 655.98C707.41 659.58 697.86 657.88 693.16 658.09ZM704.07 630.46C695.79 630.54 691.98 632.66 692.14 635.11C691.96 632.65 695.76 630.52 704.07 630.46ZM709.22 646.56C709.28 637.92 710.87 626.65 710.92 619.6C710.88 626.64 709.28 637.91 709.22 646.56ZM1042.86 568.98C1042.36 570.43 1041.17 571.79 1040.53 573.24H682.25C682.25 573.24 682.25 573.21 682.25 573.2H1040.54C1041.17 571.76 1042.35 570.41 1042.85 568.98H1042.87C1043.77 566.48 1044.07 559.3 1044.07 550.33C1044.07 559.31 1043.77 566.49 1042.87 568.98H1042.86Z" fill="#A1A2BD"/>
<path d="M126.45 338.39C138.32 336.82 143.57 331.61 128.01 329.91C129.37 313.47 125.44 299.7 113.94 286.81C104.72 276.46 99.0502 281.63 95.2202 266.29V266.33H42.1602C39.2402 280.1 28.6402 279.11 20.2902 289.66C10.8502 301.61 8.47022 315.4 9.37022 329.91C7.09022 330.2 4.62023 329.75 2.34023 329.91C-4.41977 337.65 5.08023 337.77 10.9302 338.39C25.1302 339.88 113.49 340.13 126.46 338.39H126.45ZM97.5802 282.18C105.17 297.13 104.49 321.6 92.1602 329.9C92.1402 329.9 92.1202 329.9 92.1102 329.9C104.48 321.64 105.16 297.15 97.5802 282.18ZM43.7102 329.91C59.7802 329.66 76.0402 329.7 92.1102 329.91C76.0402 329.71 59.7802 329.66 43.7102 329.91C43.7002 329.91 43.6802 329.91 43.6702 329.91C36.9602 324.29 33.6002 313.57 33.6302 302.81C33.6102 313.58 36.9802 324.3 43.7102 329.91Z" fill="#A1A2BD"/>
<path d="M95.2201 225.99C97.1401 223.55 102.85 228.48 104.58 221.03C106.95 210.69 89.1501 199.19 87.4101 194.14C84.3101 185.04 92.7401 179.78 79.6201 171.52C85.6601 160.41 74.4401 153.47 73.3501 150.33C72.8501 148.84 72.3501 147.52 71.8001 146.07V146.11H62.4401C62.3001 146.53 62.5801 147.1 62.4401 147.52C62.3801 147.82 62.3401 148.08 62.3301 148.32C62.3401 148.07 62.3801 147.79 62.4401 147.48C61.2101 151.24 48.1701 162.14 56.1701 167.28C53.9701 171.66 48.9201 176.23 48.3801 177.84C46.5101 183.14 49.0601 188.51 46.8301 194.1C46.8301 194.12 46.8301 194.13 46.8301 194.15C43.0401 203.58 29.8901 208.09 32.7701 221.03H32.8201C34.7401 229.8 39.6701 222.23 42.1801 227.4C43.0501 229.18 42.8201 263.23 42.1801 266.29H95.2401C93.7801 260.37 92.5001 229.47 95.2401 225.99H95.2201ZM68.6801 150.33C69.3601 150.66 71.5101 151.49 71.7901 151.74C77.9001 157.2 74.7101 166.21 71.6801 166.35C74.7001 166.18 77.8701 157.19 71.7901 151.74C71.5601 151.53 69.3701 150.66 68.6901 150.33H68.6801ZM56.1401 164.59C56.1401 165.32 56.2601 166.2 56.2501 166.78C56.2501 166.19 56.1301 165.31 56.1401 164.59ZM81.9301 195.59C74.4901 192.82 70.9201 189.96 61.6501 191.33C58.8201 191.73 46.6701 202.89 46.7601 194.95C46.7101 202.82 58.8201 191.73 61.6501 191.29C70.9201 189.92 74.4801 192.82 81.9301 195.55C83.9801 196.29 86.0201 198.06 86.9301 196.73C86.0201 198.14 83.9701 196.34 81.9301 195.59ZM87.4101 194.18C87.4101 194.23 87.4101 194.27 87.4101 194.32C87.4101 194.26 87.4101 194.21 87.4101 194.14V194.18Z" fill="#A1A2BD"/>
<path d="M665.07 336.32C665.85 330.08 659.13 331.81 658.81 330.66C655.48 319.24 658.63 258.26 660.36 243.66C658.21 242.34 657.05 242.11 656.42 242.45C657.03 242.05 658.18 242.25 660.41 243.62C661.6 233.79 664.24 223.58 666.65 213.96C670.36 213.4 670.46 214.9 672.87 211.14L672.82 211.1C678.25 202.74 665.1 207.67 661.91 203.32C659.35 199.89 657.98 179.29 649.4 167.95C644.74 161.75 622.69 147.31 621.32 144.62L621.3 144.65C617.7 137.44 623.48 122.5 610.41 124.89C608.79 131.96 607.28 130.71 599.76 130.57C599.67 130.55 599.59 130.53 599.49 130.51C598.03 130.23 596.2 130.15 594.19 130.17C596.2 130.15 598.04 130.23 599.49 130.51C607.25 130.64 608.71 132 610.4 124.85C611.77 119.01 610.22 106.36 610.4 99.4103H610.44H610.39C610.48 95.0203 612.49 91.2603 610.39 86.6603V86.6203C613.77 86.3703 621.17 87.9003 622.9 84.5103C625.05 78.4303 618.47 78.5103 618.2 78.1403L618.98 83.8103L618.21 78.1803C617.16 76.6903 616.7 76.8603 616.66 76.7803H616.61C606.61 64.4903 594.78 56.8003 582.27 47.0703V48.4803C581.27 48.5903 579.98 48.2703 579.21 48.4803C567.38 51.6703 553.36 67.9703 546.42 76.7803C549.64 77.7903 552.9 78.2203 556.17 78.3103C552.88 78.2203 549.61 77.7903 546.37 76.7803C544.41 79.2603 537.92 76.4903 540.11 82.4403H540.13C542.64 89.1403 545.52 86.2103 552.63 86.6603C547.52 94.8503 554.18 97.3403 554.18 98.0003C556.12 97.4303 557.62 97.3803 558.77 97.7203C557.63 97.3903 556.15 97.4503 554.23 98.0003C554.32 100.15 553.27 121.62 552.68 122.74C551.13 125.76 549.12 122.2 544.87 129.11C556.65 131.42 568.84 129.85 580.76 130.51C581.44 130.55 582.18 130.56 582.95 130.56C582.18 130.56 581.45 130.56 580.76 130.51L579.21 201.21H579.12C577.05 201.19 574.98 201.18 572.91 201.18C575 201.18 577.08 201.18 579.17 201.21L580.72 130.51C568.8 129.85 556.61 131.47 544.83 129.11C541.13 135.11 543.64 137.67 543.28 144.66C543.14 146.77 546.8 145.12 546.38 148.18C546.29 148.72 539.35 154.92 538.57 156.66C532.13 171.39 527.47 184.09 529.21 200.51C537.49 201.23 545.81 201.36 554.14 201.33C545.8 201.36 537.46 201.24 529.17 200.51C527.44 184.09 532.09 171.35 538.53 156.66C539.31 154.92 546.25 148.72 546.34 148.18C546.8 145.16 543.1 146.77 543.23 144.66C518.85 158.85 502.5 177.14 499.53 204.07C506.88 202.58 516.15 202.7 523.73 202.66C516.16 202.7 506.91 202.58 499.57 204.07C497.65 204.44 494.41 206.63 490.99 205.47C487.11 207.96 490.21 208.08 490.21 209.74C490.26 212.29 490.39 214.62 496.46 215.36C498.1 225.66 501.48 236.13 502.72 246.47C509.48 247.96 516.51 245.89 518.34 252.14H518.29C518.92 254.29 519.13 259.19 519.12 265.55C519.13 259.21 518.92 254.33 518.29 252.18C516.46 245.93 509.43 248 502.67 246.51C504.09 258.63 507.1 322.67 504.22 330.66C503.81 331.73 499.01 330.74 497.96 333.47C495.49 340.05 502.57 338.02 502.66 338.43L660.34 339.84C660.38 339.59 664.91 337.52 665.04 336.32H665.07ZM570.64 98.0003C564.68 100.45 572.05 122.94 565.77 123.59C571.98 122.84 564.64 100.48 570.6 98.0003C572.36 97.2603 573.78 97.0803 574.91 97.3303C573.79 97.1003 572.39 97.2803 570.65 98.0003H570.64ZM646.3 222.44C646.16 222.11 648.58 217.8 646.3 215.36C646.31 215.36 646.33 215.36 646.34 215.36C646.36 215.36 646.39 215.36 646.42 215.36C648.65 217.81 646.25 222.06 646.39 222.39C648.26 226.9 654.43 231.62 651.09 241.51C650.86 241.7 650.61 241.85 650.34 241.98C650.57 241.86 650.8 241.72 651 241.55C654.33 231.62 648.12 226.94 646.3 222.44V222.48C639.42 222.28 638.24 226.38 638.25 231.17C638.24 226.38 639.4 222.27 646.3 222.44ZM638.5 240.8C638.58 240.17 638.61 239.49 638.61 238.78C638.61 239.49 638.58 240.17 638.51 240.8C637.05 240.9 635.67 240.94 634.35 240.95C635.67 240.95 637.04 240.9 638.5 240.8ZM633.84 199.1C632.24 180.41 629.5 164.74 618.24 148.9C629.55 164.78 632.25 180.41 633.84 199.1ZM624.9 240.77C624.27 240.77 623.63 240.77 622.97 240.8C622.96 240.8 622.94 240.8 622.93 240.8C623.6 240.78 624.25 240.77 624.89 240.77H624.9ZM621.31 225.52C616.4 217.33 605.24 221.7 608.85 240.8C602.97 240.94 596.46 242.13 590.18 242.21C590.17 242.21 590.15 242.21 590.14 242.21C596.43 242.12 602.94 240.93 608.81 240.8C605.16 221.63 616.41 217.27 621.3 225.52H621.31ZM596.16 123.53C601.66 123.73 599.94 102.5 601.05 98.7003H601.1C599.99 102.52 601.72 123.86 596.17 123.53H596.16ZM607.33 76.9103C599.52 76.9103 591.67 76.6803 583.86 76.7203C591.67 76.6903 599.53 76.9103 607.33 76.9103ZM581.65 124.09C586.02 123.55 580.94 99.2703 587.76 98.0003C588.15 97.9303 588.5 97.8903 588.84 97.8703C588.52 97.8903 588.17 97.9303 587.8 98.0003C580.95 99.2803 586.09 123.71 581.64 124.09H581.65ZM580.73 201.21H580.78L579.23 212.55C579.23 212.55 579.2 212.55 579.19 212.55L580.74 201.21H580.73ZM516.75 213.96C547.22 214.67 582.37 215.82 614.91 215.81C582.36 215.81 547.2 214.67 516.75 213.96ZM574.52 240.8C574.46 240.8 574.39 240.8 574.33 240.8C574.38 240.8 574.43 240.8 574.48 240.8C572.38 222.11 581.24 217.59 586.51 224.98C581.24 217.69 572.45 222.21 574.52 240.8ZM566.45 241.47C563.41 241.82 560.15 242.18 557 242.21C560.11 242.17 563.39 241.81 566.45 241.47ZM556.36 235.86C556.28 222.28 546.46 217.97 542.61 226.02C546.46 217.9 556.3 222.22 556.36 235.86ZM539.58 240.76C536.08 240.76 532.8 241 529.16 240.98C532.79 241 536.07 240.75 539.58 240.76ZM496.97 215.38C499.94 215.38 511.25 213.94 516.26 213.95C511.26 213.94 499.96 215.39 496.97 215.38ZM515.19 223.86V223.84C515.19 223.84 515.19 223.83 515.19 223.82C523.76 220.01 524.89 224.83 524.75 230.71C524.88 224.85 523.74 220.05 515.17 223.86H515.19ZM524.57 240.8C524.57 240.8 524.53 240.8 524.51 240.8C524.39 239.92 524.37 238.9 524.4 237.81C524.37 238.9 524.4 239.91 524.51 240.79C524.53 240.79 524.55 240.79 524.57 240.79V240.8ZM643.98 331.4H519.09C516.94 330.01 518 306.79 518.7 285.66C518 306.79 516.94 329.99 519.09 331.36H643.98L644.76 252.18L643.98 331.4ZM654.89 247.92C654 248.43 647.92 247.44 645.61 249.55C647.88 247.39 654.01 248.4 654.94 247.88C654.99 247.85 655.04 247.81 655.09 247.78C655.03 247.83 654.97 247.88 654.9 247.92H654.89Z" fill="#A1A2BD"/>
</g>
<defs>
<clipPath id="clip0_23_8144">
<rect width="1165" height="693.57" fill="white"/>
</clipPath>
</defs>
</svg>
