<svg width="1165" height="647" viewBox="0 0 1165 647" fill="none" xmlns="http://www.w3.org/2000/svg">
<g clip-path="url(#clip0_23_8201)">
<path d="M1153.74 282.84C1153.74 282.84 1153.71 282.84 1153.7 282.84C1157.2 268.46 1152.63 252.72 1142.78 241.14C1134.42 231.29 1124.74 232.37 1122.5 219.21C1121.86 215.45 1121.22 180.57 1122.5 178.92C1125.01 175.65 1131.23 182.69 1131.86 173.96C1132.6 164.44 1123.92 154.19 1116.25 148.52L1115.47 151.33C1115.47 151.33 1115.45 151.31 1115.44 151.31L1116.2 148.52C1117.02 141.28 1114.74 136.52 1113.1 130.15L1109.22 141.48L1113.11 130.15C1112.06 126.07 1110.25 126.12 1110.02 125.92C1105.81 130.95 1100.21 124.2 1093.64 124.49C1092.32 124.57 1088.53 128.21 1087.39 128.75C1088.53 128.17 1092.32 124.53 1093.64 124.49C1100.21 124.2 1105.82 130.91 1110.02 125.92C1110.02 125.92 1110.04 125.9 1110.05 125.89C1108.45 120.14 1110.78 118.53 1110.05 116C1110.03 116 1110.02 116 1110 116C1108.58 111.12 1108.77 105.5 1102.19 103.27C1101.72 103.11 1101.12 103.07 1100.43 103.08C1101.13 103.06 1101.76 103.1 1102.24 103.27C1102.74 98.9805 1098.2 95.9305 1097.54 91.9805H1096.03C1095.94 92.5205 1092.19 99.8405 1091.32 101.87C1092.11 103.22 1093.79 103.49 1095.65 103.45C1093.78 103.5 1092.08 103.23 1091.28 101.87C1089.23 106.57 1080.24 111.31 1083.44 120.15C1083.44 120.17 1083.43 120.18 1083.42 120.2C1082.33 122.64 1077.85 129.96 1077.17 132.24C1075.48 138.03 1079.13 145.77 1074.06 151.35C1080.55 147.19 1088.48 144.85 1096.27 144.95C1088.49 144.86 1080.58 147.2 1074.11 151.35C1067.53 155.57 1057.94 165.95 1060.04 173.98H1060.09C1062.28 182.42 1067.12 175.51 1069.45 180.35C1070.32 182.13 1070.64 215.14 1069.45 219.24C1073.19 218.87 1076.48 218.04 1080.36 217.83L1080.32 217.87C1076.44 218.08 1073.2 218.86 1069.4 219.28C1065.02 234.09 1056.8 231.11 1047.53 242.61C1038.27 254.1 1035.17 268.69 1036.62 282.87C1020.25 284.54 1025.14 289.61 1038.26 291.34C1043.83 292.08 1051.05 290.97 1056.98 291.34H1135.03C1140.96 290.93 1148.13 292.08 1153.75 291.34C1166.81 289.64 1170.6 284.39 1153.75 282.86L1153.74 282.84ZM1097.48 120.2C1096.43 109.87 1098.04 104.2 1100.14 104.32C1098.07 104.29 1096.49 109.96 1097.52 120.22L1097.48 120.2ZM1108.47 115.9C1108.47 115.9 1108.39 115.92 1108.35 115.92C1108.39 115.92 1108.42 115.9 1108.47 115.9ZM1108.13 115.97C1108.13 115.97 1108.04 116 1107.99 116.02C1108.04 116 1108.08 115.98 1108.13 115.97ZM1107.84 116.08C1107.84 116.08 1107.77 116.12 1107.74 116.14C1107.77 116.12 1107.81 116.1 1107.84 116.08ZM1107.6 116.23C1107.6 116.23 1107.56 116.27 1107.54 116.29C1107.56 116.27 1107.58 116.25 1107.6 116.23ZM1107.39 116.41C1107.39 116.41 1107.37 116.43 1107.36 116.44C1107.37 116.43 1107.38 116.42 1107.39 116.41ZM1107.05 116.86C1106.68 117.43 1106.32 118.16 1105.33 118.81V118.79C1106.32 118.16 1106.68 117.44 1107.05 116.87V116.86ZM1107.21 116.63C1107.21 116.63 1107.21 116.63 1107.21 116.64C1107.21 116.64 1107.21 116.64 1107.21 116.63ZM1087.01 121.4C1085.74 120.23 1088.46 115.5 1086.3 113.5C1088.52 115.45 1085.84 120.13 1087.01 121.4ZM1086.76 128.88C1085.51 128.84 1084.32 127.1 1083.23 127.15C1084.34 127.1 1085.52 128.84 1086.76 128.88ZM1084.16 140.91C1086.45 140.91 1093.78 139.56 1100.11 139.51C1093.78 139.56 1086.45 140.92 1084.16 140.91ZM1119.38 282.84C1119.38 282.84 1119.36 282.84 1119.35 282.84C1130.72 269.34 1133.31 254.08 1128.79 242.27C1133.34 254.08 1130.76 269.33 1119.39 282.84H1119.38ZM1061.17 255.5C1061.08 266.1 1064.46 276.76 1070.95 282.84C1070.94 282.84 1070.92 282.84 1070.91 282.84C1064.44 276.73 1061.07 266.08 1061.17 255.5Z" fill="#A1A2BD"/>
<path d="M1097.52 91.9199C1097.52 91.9199 1097.52 91.9499 1097.52 91.9599H1097.56L1097.51 91.9199H1097.52Z" fill="#A1A2BD"/>
<path d="M1134.97 291.36C1126.55 291.94 1118.45 292.33 1110.45 292.53C1118.44 292.33 1126.55 291.95 1134.97 291.36H1056.93C1050.99 290.99 1043.78 292.1 1038.21 291.36C1037.47 305.14 1038.52 318.66 1039.76 332.36L1150.59 330.95C1151.64 317.84 1154.83 304.68 1153.69 291.36C1148.08 292.1 1140.91 290.95 1134.97 291.36Z" fill="#A1A2BD"/>
<path d="M1149.03 335.21C1149.22 332.56 1150.5 332.11 1150.59 330.95L1150.54 330.99L1039.71 332.4C1039.94 334.95 1042.97 333.41 1038.22 336.62H882.13C885.01 340.84 900.35 360.74 900.85 362.76C901.24 364.29 900.28 364.61 899.33 364.87C900.25 364.6 901.16 364.26 900.81 362.76C900.35 360.77 885.01 340.88 882.09 336.61V336.57C870.99 320.4 856.74 305.54 846.97 288.5C835.78 304.92 821.58 320.27 810.3 336.57C807.79 340.21 791.71 362.55 791.58 364.16C791.48 365.54 792.03 366.12 792.7 366.34C792.01 366.15 791.43 365.6 791.53 364.2C791.62 362.59 807.74 340.25 810.25 336.61H660.38C660.38 323.43 658.74 305.29 660.38 292.8L502.7 291.39C504.93 301.98 502.51 324.4 502.7 336.65C494.98 337.68 483.24 335.24 476.17 336.65C475.07 336.86 468.59 338.47 468.36 338.76C466.06 341.76 457.31 404.5 457.4 413.04C457.28 404.65 466.05 341.72 468.36 338.72C468.59 338.43 475.07 336.82 476.17 336.61H352.82V336.57C341.82 320.4 327.3 305.63 317.71 288.5C305.74 304.47 292.18 320.15 281.04 336.57C274.46 346.25 265.01 356.55 263.87 366.27L316.15 299.79L368.44 366.27C368.35 365.63 368.71 365.33 369.21 365.13C368.72 365.33 368.37 365.64 368.44 366.27C369.5 374.95 369.87 383.44 369.88 391.87C369.88 383.45 369.5 374.98 368.44 366.31L316.15 299.83L263.87 366.31C261.22 388.32 264.96 412.15 265.42 434.2H368.44C368.44 434.2 368.44 434.18 368.44 434.17C368.44 434.22 368.44 434.28 368.46 434.34C368.46 434.29 368.44 434.25 368.44 434.21H265.37C265.42 435.36 262.71 437.29 263.81 439.84C262.72 437.3 265.37 435.37 265.37 434.21C264.92 412.16 261.22 388.33 263.82 366.32C264.96 356.6 274.42 346.3 280.99 336.62L123.31 335.21C123.04 338.85 121.76 339.26 121.76 339.47C121.12 349.54 120.88 359.93 120.86 370.45C120.88 359.93 121.12 349.53 121.76 339.47C121.76 339.22 123.04 338.85 123.31 335.21C123.49 332.56 124.77 332.11 124.86 330.95H124.91C126.1 317.75 127.19 304.68 126.46 291.36C113.49 293.1 25.1298 292.85 10.9298 291.36C9.46984 304.39 14.3998 318.62 15.6298 330.95H15.5798C15.7198 332.6 14.6198 335.09 17.1298 335.21L15.5798 642.04C131.79 652.13 285.39 641.92 405.86 642.04C405.86 642.05 405.88 642.07 405.89 642.08H502.7C502.91 637.26 503.05 632.43 503.12 627.6C503.05 632.44 502.91 637.28 502.7 642.12H532.38C532.38 642.12 532.38 642.09 532.38 642.08H537.05C533.52 611.83 534.85 552.97 580.72 552.6C534.89 553.01 533.57 611.84 537.09 642.08C543.81 642.08 551.11 640.67 557.37 640.67C557.27 640.01 557.19 639.37 557.11 638.73C557.2 639.38 557.28 640.01 557.37 640.67C573.76 640.67 590.7 642.08 607.33 642.08H632.26C631.1 618.16 634.04 576.76 611.81 558.01C634.1 576.73 631.14 618.15 632.31 642.12H660.39V642.08C823.23 641.96 986.21 642.16 1149.05 642.08C1153.85 541.24 1142.62 435.47 1149.05 335.21H1149.03ZM121.75 520.46C121.73 520.6 121.14 521.36 120.63 522.28C121.15 521.34 121.75 520.56 121.75 520.41C122.62 497.24 123.25 472.92 123.3 449.71C123.32 449.71 123.33 449.71 123.35 449.71C123.3 472.88 122.66 497.24 121.79 520.41H479.27V520.45H121.75V520.46ZM370.26 438.46C370.26 438.46 370.26 438.41 370.26 438.39C370.26 438.41 370.26 438.44 370.26 438.46ZM370 439.83H496.37H369.99H370ZM502.69 439.92C502.69 443.41 501.38 447.35 501.16 449.32C501.35 447.39 502.68 443.41 502.69 439.88C502.69 418.4 502.89 396.87 502.91 375.35C502.89 396.88 502.69 418.43 502.69 439.93V439.92ZM501.13 449.8C490.86 451.29 479.85 448.39 469.9 448.39L462.11 466.02H462.09L469.9 448.35L469.95 448.31C479.93 448.31 490.87 451.2 501.14 449.72C501.14 449.75 501.14 449.78 501.14 449.8H501.13ZM474.61 511.94C476.67 511.86 478.86 512.19 480.86 511.94C484.5 511.54 488.65 513.23 491.44 510.2C488.7 513.28 484.5 511.59 480.85 511.98V511.94C478.85 512.19 476.66 511.86 474.6 511.94H474.61ZM474.77 510.86C475.54 504.46 473.25 497.16 474.34 492.36C473.29 497.17 475.57 504.47 474.77 510.86ZM469.12 469.54C471.18 470.55 471.34 471.83 471.32 473.08C471.34 471.85 471.16 470.58 469.12 469.58C457.02 468.44 454.21 470.17 454.13 473.69C454.18 470.14 456.97 468.39 469.12 469.54ZM474.6 475.16C474.6 475.16 474.6 475.19 474.6 475.2H474.57C474.87 473.71 473.87 470.75 475.1 469.7C473.93 470.79 474.9 473.69 474.61 475.16H474.6ZM455.84 486.53C456.34 486.17 457.23 485.98 458.31 485.9C457.22 485.98 456.34 486.17 455.84 486.53C455.8 486.94 455.79 487.21 455.8 487.41C455.8 487.22 455.8 486.95 455.84 486.53ZM469.12 486.54C470.72 485.71 471.63 475.75 471.45 475.21C471.68 475.79 470.72 485.76 469.12 486.54ZM471.45 475.24C471.34 474.9 471.3 474.54 471.3 474.17C471.3 474.53 471.34 474.87 471.45 475.2V475.24ZM455.84 487.93C455.84 487.93 455.84 487.94 455.84 487.95C455.84 487.95 455.84 487.94 455.84 487.93ZM485.51 487.2C485.35 485.08 474.3 490.77 474.01 480.59C474.33 490.79 485.52 484.96 485.52 487.2H485.51ZM455.78 489.09C455.45 494.34 453.5 501.05 453.89 507.04C453.48 501.06 455.41 494.35 455.78 489.09ZM469.9 448.31C469.9 448.31 469.84 448.31 469.8 448.31C469.83 448.31 469.86 448.31 469.89 448.31H469.9ZM371.54 362.76C371.54 362.76 371.52 362.71 371.51 362.68C371.51 362.7 371.54 362.74 371.54 362.76C371.78 363.66 371.54 364.14 371.11 364.44C371.53 364.14 371.77 363.66 371.54 362.77V362.76ZM368.53 434.62C368.5 434.55 368.48 434.47 368.46 434.4C368.48 434.47 368.5 434.54 368.53 434.62ZM368.73 435.02C368.73 435.02 368.69 434.94 368.67 434.91C368.69 434.95 368.71 434.98 368.73 435.02ZM440.22 610.27C437.95 614.87 399.55 608.94 399.16 626.09C399.52 608.92 437.95 614.83 440.22 610.23C441.4 607.83 441.64 602.56 441.65 596.99C441.65 602.58 441.4 607.86 440.22 610.27ZM441.77 580.57C441.6 581.97 441.55 583.93 441.55 586.19C441.55 583.91 441.6 581.94 441.77 580.53C456.42 562.63 482.43 547.74 488.61 526.13H501.13H488.62C482.46 547.77 456.38 562.62 441.77 580.57ZM660.43 525.48C660.43 524.64 660.27 523.58 660.27 522.64C660.27 523.58 660.44 524.64 660.43 525.48ZM794.23 391.75C794.2 383.25 794.29 374.75 794.63 366.31C794.63 366.3 794.61 366.29 794.58 366.3C794.62 366.29 794.65 366.28 794.66 366.28L794.63 366.32C794.29 374.76 794.2 383.25 794.23 391.75ZM660.37 439.87C660.37 439.96 660.38 440.06 660.39 440.15C660.39 440.06 660.38 439.96 660.37 439.87C660.34 439.6 660.31 439.31 660.28 439.04C660.31 439.32 660.34 439.6 660.37 439.87ZM662.7 449.72H1039.76C1039.76 447.62 1042.84 448.72 1042.86 447.62C1042.86 447.63 1042.86 447.64 1042.86 447.65C1042.86 448.73 1039.76 447.61 1039.76 449.76H662.7C661.73 449.13 661.13 448.41 660.76 447.63C661.13 448.4 661.74 449.1 662.7 449.72ZM1042.86 450.46C1042.86 450.66 1042.86 450.87 1042.86 451.08C1042.86 450.86 1042.86 450.66 1042.86 450.46ZM897.69 366.28C897.6 365.51 898.13 365.24 898.78 365.03C898.16 365.23 897.66 365.51 897.74 366.28C900.25 388.87 899.29 411.5 899.29 434.17V439.84H1041.31H899.25V434.21C899.25 411.54 900.2 388.91 897.69 366.32H897.65L846.92 299.85L846.96 299.8L897.69 366.28ZM608.71 624.61C608.59 566.72 555.94 563.19 555.92 622.56C555.94 563.15 608.6 566.68 608.71 624.61ZM688.45 575.61C687.5 575.73 685.9 575.36 685.35 575.61C685.9 575.36 687.49 575.73 688.45 575.61C688.76 574.38 688.81 573.69 688.76 573.3C688.82 573.67 688.78 574.34 688.45 575.61ZM672.88 585.53C672.84 586.46 672.81 587.41 672.81 588.36C672.81 587.41 672.83 586.46 672.88 585.53C672.88 585.52 672.88 585.5 672.88 585.49C678.48 585.6 687.5 583.29 689.36 586.26C687.44 583.34 678.46 585.65 672.88 585.53ZM688.45 572.79C687.69 572.6 687.11 572.58 686.68 572.68C687.1 572.59 687.67 572.6 688.45 572.79ZM692.14 588.03C691.96 585.57 695.76 583.44 704.07 583.38C695.79 583.46 691.99 585.58 692.14 588.03ZM676.81 613.83L676.83 613.8C680.81 612.26 684.03 612.6 686.53 614.08C684.02 612.6 680.79 612.27 676.81 613.82V613.83ZM665.09 640.52C667.95 640.57 671.45 640.75 674.93 640.83C671.45 640.75 667.96 640.57 665.09 640.52ZM693.16 611.02C691.61 611.1 689.96 611.1 688.45 611.02C685.6 610.85 681.56 611.51 679.14 611.02C674.93 610.14 673.28 608.86 672.72 607.06C673.28 608.84 674.93 610.11 679.09 610.98C681.51 611.48 685.58 610.81 688.45 610.98C690.01 611.06 691.65 611.06 693.16 610.98C693.94 603.97 691.3 597.56 694.05 595.03C691.33 597.57 693.94 603.99 693.16 610.98C697.86 610.77 707.39 612.51 710.32 608.88C710.32 608.88 710.32 608.9 710.33 608.91C707.41 612.51 697.86 610.81 693.16 611.02ZM709.22 599.54C709.27 590.88 710.87 579.57 710.92 572.51C710.88 579.56 709.28 590.87 709.22 599.54ZM682.25 526.17C682.25 526.17 682.25 526.14 682.25 526.13H660.43C653.94 557.48 665.27 607.33 660.43 640.67C660.42 640.67 660.4 640.67 660.38 640.67C665.2 607.33 653.9 557.55 660.38 526.16C660.38 526.15 660.38 526.13 660.38 526.12H1040.53C1041.16 524.69 1042.33 523.33 1042.84 521.9H1042.86C1042.36 523.35 1041.17 524.71 1040.53 526.16H682.25V526.17ZM1042.93 521.7C1043.78 519.04 1044.06 512 1044.06 503.26C1044.06 512.01 1043.78 519.05 1042.93 521.7Z" fill="#A1A2BD"/>
<path d="M32.7501 173.96H104.58C106.95 163.62 89.1401 152.12 87.4101 147.07V147.11C87.4101 147.16 87.4101 147.2 87.4101 147.26C87.4101 147.19 87.4101 147.14 87.4101 147.07C84.3001 137.97 92.7401 132.72 79.6201 124.45C85.6501 113.34 74.4401 106.4 73.3401 103.26C72.8401 101.77 72.3401 100.45 71.7901 99V99.04H62.4301C62.2901 99.45 62.5701 100.03 62.4301 100.45C62.3701 100.74 62.3301 101.01 62.3101 101.25C62.3201 101 62.3601 100.72 62.4301 100.41C61.2001 104.17 48.1601 115.08 56.1501 120.21C53.9501 124.59 48.9001 129.16 48.3601 130.77C46.4901 136.07 49.0501 141.44 46.8101 147.03C46.8101 147.05 46.8101 147.06 46.8101 147.08C43.0201 156.51 29.8701 161.02 32.7501 173.96ZM71.4401 119.27C74.4801 119.57 77.9001 110.54 72.0601 104.92C77.9301 110.54 74.4901 119.59 71.4401 119.27ZM71.7201 104.62C71.3101 104.36 69.3401 103.57 68.6801 103.26C69.3301 103.57 71.2801 104.33 71.7101 104.62H71.7201ZM56.1401 117.52C56.1401 118.25 56.2601 119.13 56.2401 119.71C56.2401 119.12 56.1201 118.24 56.1401 117.52ZM46.7701 147.87C46.7201 155.74 58.8301 144.65 61.6501 144.21C70.9201 142.85 74.4801 145.74 81.9301 148.47C83.9701 149.21 86.0101 150.98 86.9201 149.66C86.0101 151.06 83.9501 149.26 81.9301 148.51C74.4801 145.74 70.9201 142.88 61.6501 144.25C58.8201 144.65 46.6801 155.82 46.7701 147.87Z" fill="#A1A2BD"/>
<path d="M126.45 291.32C138.32 289.75 143.58 284.54 128 282.84C129.36 266.39 125.44 252.63 113.94 239.73C104.71 229.39 99.05 234.56 95.22 219.21V219.25H42.15C39.23 233.03 28.64 232.03 20.28 242.58C10.84 254.52 8.45997 268.33 9.35997 282.83C7.07997 283.12 4.60997 282.66 2.32997 282.83C-4.43003 290.57 5.06997 290.69 10.92 291.31C25.12 292.8 113.48 293.05 126.45 291.31V291.32ZM92.16 282.84C92.16 282.84 92.12 282.84 92.11 282.84C104.48 274.58 105.16 250.08 97.58 235.1C105.17 250.05 104.5 274.53 92.17 282.84H92.16ZM33.63 255.74C33.61 266.51 36.98 277.24 43.71 282.84C43.7 282.84 43.68 282.84 43.67 282.84C36.96 277.22 33.6 266.49 33.63 255.74Z" fill="#A1A2BD"/>
<path d="M95.22 178.92C97.13 176.48 102.84 181.4 104.58 173.96H32.79C34.71 182.73 39.64 175.16 42.15 180.33C43.02 182.11 42.79 216.15 42.15 219.22H95.22C93.76 213.3 92.48 182.4 95.22 178.93V178.92Z" fill="#A1A2BD"/>
<path d="M665.07 289.25C665.85 283 659.14 284.74 658.82 283.58C655.48 272.16 658.63 211.18 660.37 196.58C658.21 195.27 657.06 195.03 656.43 195.37C657.04 194.97 658.19 195.17 660.42 196.54C661.6 186.71 664.24 176.5 666.66 166.87C670.37 166.3 670.47 167.82 672.88 164.06L672.84 164.02C678.27 155.66 665.12 160.59 661.92 156.24C659.36 152.81 657.99 132.2 649.41 120.87C644.75 114.66 622.7 100.23 621.33 97.5401L621.31 97.5701C617.7 90.3501 623.49 75.4101 610.41 77.8101C608.79 84.8901 607.28 83.6301 599.72 83.4801C599.64 83.4601 599.58 83.4501 599.5 83.4301C607.26 83.5501 608.72 84.9201 610.41 77.7601C611.78 71.9301 610.23 59.2701 610.41 52.3201C610.5 47.9301 612.51 44.1701 610.41 39.5801C594.7 40.7801 568.49 40.6101 552.65 39.5801C547.53 47.7701 554.2 50.2501 554.2 50.9201C556.14 50.3501 557.64 50.3001 558.79 50.6401C557.65 50.3101 556.16 50.3601 554.24 50.9201C554.34 53.0701 553.29 74.5401 552.69 75.6601C551.14 78.6801 549.13 75.1201 544.88 82.0301C556.66 84.3501 568.85 82.7801 580.77 83.4401L579.22 154.14H580.77L579.22 165.48C579.22 165.48 579.19 165.48 579.18 165.48L580.73 154.15H579.13C577.06 154.12 574.99 154.12 572.92 154.12C575.01 154.12 577.1 154.12 579.18 154.15L580.73 83.4501C568.81 82.7901 556.62 84.4001 544.84 82.0401C541.14 88.0401 543.65 90.6001 543.28 97.5901C543.15 99.7001 546.8 98.0501 546.39 101.11C546.3 101.65 539.36 107.85 538.58 109.59C532.14 124.32 527.48 137.02 529.22 153.44C538.04 154.21 546.9 154.3 555.77 154.24C546.88 154.29 538 154.21 529.17 153.44C527.44 137.02 532.1 124.28 538.53 109.59C539.31 107.85 546.25 101.65 546.34 101.11C546.8 98.0901 543.1 99.7001 543.24 97.5901C518.85 111.78 502.5 130.06 499.54 157C506.89 155.51 516.16 155.64 523.74 155.59C516.17 155.63 506.92 155.51 499.58 157C497.66 157.37 494.42 159.57 491 158.41C487.12 160.89 490.22 161.02 490.22 162.67C490.27 165.22 490.39 167.56 496.48 168.3C498.12 178.6 501.5 189.07 502.73 199.41C509.49 200.9 516.52 198.83 518.35 205.08H518.31C521.18 214.93 515.38 281.94 519.08 284.3H643.98L644.75 205.11L643.98 284.33H519.08C515.38 281.93 521.18 214.91 518.3 205.11C516.48 198.86 509.45 200.93 502.69 199.44C504.1 211.56 507.12 275.6 504.24 283.58C503.83 284.66 499.03 283.66 497.98 286.39C495.52 292.97 502.6 290.94 502.69 291.35L660.37 292.76C660.42 292.51 664.94 290.44 665.07 289.24V289.25ZM646.4 175.32C648.27 179.83 654.43 184.55 651.1 194.43C650.87 194.62 650.62 194.77 650.36 194.9C650.59 194.78 650.81 194.64 651.01 194.47C654.34 184.54 648.13 179.87 646.31 175.36C646.17 175.02 648.59 170.73 646.31 168.29C646.32 168.29 646.34 168.29 646.35 168.29C646.38 168.29 646.4 168.29 646.43 168.29C648.65 170.74 646.26 175 646.4 175.32ZM515.2 176.77C515.2 176.77 515.2 176.76 515.2 176.75C523.35 173.13 524.77 177.31 524.78 182.78C524.77 177.32 523.34 173.17 515.19 176.79V176.77H515.2ZM524.52 193.74C524.43 193.08 524.4 192.34 524.4 191.55C524.4 192.34 524.43 193.07 524.52 193.73C524.54 193.73 524.55 193.73 524.57 193.73C524.56 193.73 524.53 193.73 524.51 193.73L524.52 193.74ZM556.36 188.79C556.28 175.2 546.45 170.89 542.61 178.97C546.45 170.83 556.3 175.15 556.36 188.79ZM542.11 180.17C542.25 179.78 542.4 179.42 542.56 179.07C542.4 179.41 542.25 179.78 542.11 180.17ZM585.79 177.01C580.48 171.03 572.52 175.95 574.51 193.73C574.49 193.73 574.48 193.73 574.46 193.73C572.45 175.85 580.47 170.94 585.78 177.01H585.79ZM590.14 195.14C596.42 195.05 602.93 193.86 608.81 193.73C605.16 174.57 616.41 170.19 621.31 178.44C616.4 170.25 605.24 174.63 608.86 193.73C602.97 193.86 596.47 195.05 590.19 195.13C590.18 195.13 590.16 195.13 590.15 195.13L590.14 195.14ZM646.31 175.4C639.43 175.2 638.25 179.3 638.26 184.09C638.25 179.3 639.41 175.19 646.31 175.36V175.4ZM622.93 193.73C623.59 193.71 624.23 193.7 624.86 193.7C624.24 193.7 623.61 193.7 622.97 193.73C622.96 193.73 622.94 193.73 622.93 193.73ZM638.5 193.73C638.58 193.1 638.61 192.42 638.6 191.71C638.6 192.42 638.57 193.1 638.5 193.73C637.05 193.83 635.69 193.87 634.38 193.88C635.69 193.88 637.04 193.83 638.49 193.73H638.5ZM633.84 152.03C632.24 133.34 629.5 117.67 618.23 101.83C629.55 117.71 632.24 133.34 633.84 152.03ZM601.05 51.6301H601.1C600 55.4501 601.72 76.7901 596.16 76.4601C601.65 76.6501 599.94 55.4301 601.05 51.6301ZM587.76 50.9201C588.15 50.8501 588.5 50.8101 588.84 50.7901C588.52 50.8101 588.17 50.8501 587.81 50.9201C580.96 52.2001 586.1 76.6401 581.65 77.0201C586.02 76.4701 580.94 52.2001 587.76 50.9201ZM565.14 76.5201C565.14 76.5201 565.18 76.5201 565.21 76.5201C565.19 76.5201 565.17 76.5201 565.14 76.5201ZM570.64 50.9201C564.67 53.3701 572.05 75.8601 565.77 76.5101C571.97 75.7701 564.64 53.4001 570.59 50.9201C572.36 50.1801 573.77 50.0001 574.9 50.2501C573.78 50.0201 572.38 50.2001 570.64 50.9201ZM623 168.72C588.26 168.95 549.73 167.66 516.75 166.89C549.76 167.66 588.27 168.95 623 168.72ZM565.41 194.52C562.69 194.83 559.83 195.11 557.05 195.14C559.8 195.11 562.67 194.82 565.41 194.52ZM539.56 193.69C536.42 193.69 533.45 193.88 530.24 193.9C533.44 193.87 536.41 193.68 539.56 193.69ZM496.97 168.31C499.93 168.31 511.25 166.87 516.25 166.87C511.25 166.87 499.95 168.32 496.97 168.31ZM654.89 200.85C654 201.37 647.9 200.37 645.6 202.49C647.86 200.32 654.01 201.33 654.94 200.81C654.99 200.78 655.03 200.75 655.08 200.71C655.02 200.76 654.96 200.81 654.89 200.85Z" fill="#A1A2BD"/>
<path d="M540.15 35.37C542.66 42.05 545.54 39.14 552.65 39.59C568.49 40.62 594.7 40.79 610.41 39.59V39.55C613.79 39.3 621.19 40.83 622.92 37.44C625.07 31.36 618.49 31.44 618.22 31.07L619 36.74L618.23 31.11C617.18 29.62 616.72 29.79 616.68 29.7C616.67 29.7 616.66 29.7 616.65 29.7H616.63C606.63 17.41 594.81 9.72 582.29 0V1.41C581.29 1.52 580 1.2 579.23 1.41C567.4 4.6 553.39 20.89 546.44 29.71C549.8 30.77 553.2 31.19 556.61 31.26C553.18 31.19 549.77 30.77 546.4 29.71C544.44 32.19 537.95 29.42 540.14 35.38H540.16L540.15 35.37Z" fill="#A1A2BD"/>
</g>
<defs>
<clipPath id="clip0_23_8201">
<rect width="1165" height="646.5" fill="white"/>
</clipPath>
</defs>
</svg>
