<svg width="1440" height="180" viewBox="0 0 1440 180" fill="none" xmlns="http://www.w3.org/2000/svg">
<g clip-path="url(#clip0_24_8486)">
<path fill-rule="evenodd" clip-rule="evenodd" d="M-11.6832 108.626C-2.20137 120.406 32.4016 149.499 94.6942 171.108C114.126 177.849 129.187 179.508 142.684 177.94C156.19 176.371 168.171 171.566 181.451 165.313C184.849 163.713 188.331 162.019 191.941 160.262C216.561 148.281 247.214 133.365 298.705 125.265C416.73 106.699 505.403 122.431 612.003 170.392C665.163 194.309 727.784 199.523 784.944 196.086C842.101 192.65 893.754 180.566 924.944 169.931C987.467 148.611 1102.46 127.773 1213.68 169.528C1257.98 186.16 1307.03 183.843 1350.37 174.164C1393.71 164.485 1431.3 147.456 1452.64 134.724L1453.15 135.473C1431.73 148.254 1394.04 165.324 1350.59 175.028C1307.14 184.731 1257.88 187.078 1213.32 170.352C1102.4 128.71 987.674 149.486 925.271 170.765C893.999 181.429 842.258 193.53 785.006 196.973C727.757 200.415 664.953 195.201 611.589 171.192C505.143 123.3 416.669 107.609 298.863 126.141C247.527 134.217 216.995 149.073 192.385 161.048C188.772 162.806 185.286 164.502 181.881 166.106C168.579 172.369 156.477 177.232 142.802 178.821C129.119 180.411 113.902 178.719 94.3622 171.941C31.9421 150.287 -2.82864 121.107 -12.4448 109.159L-11.6832 108.626Z" fill="#FFAD41"/>
<path fill-rule="evenodd" clip-rule="evenodd" d="M-11.7164 101.294C-2.23456 113.074 32.3684 142.167 94.6597 163.776C114.092 170.517 129.153 172.176 142.651 170.608C156.157 169.039 168.138 164.235 181.419 157.981C184.817 156.381 188.298 154.687 191.909 152.93C216.529 140.95 247.182 126.034 298.672 117.934C416.698 99.3672 505.37 115.099 611.971 163.06C665.13 186.977 727.75 192.191 784.911 188.754C842.068 185.318 893.721 173.234 924.912 162.599C987.434 141.28 1102.42 120.441 1213.64 162.196C1257.95 178.828 1306.99 176.511 1350.34 166.832C1393.68 157.153 1431.27 140.124 1452.61 127.392L1453.12 128.141C1431.7 140.922 1394.01 157.992 1350.56 167.696C1307.11 177.399 1257.84 179.746 1213.28 163.02C1102.36 121.378 987.641 142.155 925.239 163.433C893.966 174.097 842.224 186.198 784.972 189.641C727.724 193.083 664.92 187.869 611.557 163.86C505.109 115.968 416.636 100.278 298.831 118.81C247.495 126.885 216.963 141.742 192.353 153.716C188.739 155.475 185.253 157.171 181.848 158.774C168.546 165.037 156.444 169.9 142.769 171.489C129.086 173.079 113.868 171.387 94.3277 164.609C31.9089 142.955 -2.86184 113.775 -12.478 101.827L-11.7164 101.294Z" fill="#FFAD41"/>
<path fill-rule="evenodd" clip-rule="evenodd" d="M-12.6192 126.112C-3.13734 137.893 31.4656 166.986 93.7576 188.595C113.189 195.336 128.251 196.995 141.748 195.426C155.254 193.857 167.235 189.053 180.516 182.8C183.914 181.2 187.395 179.506 191.006 177.748C215.626 165.768 246.279 150.852 297.768 142.752C415.793 124.186 504.467 139.918 611.067 187.878C664.227 211.796 726.848 217.01 784.009 213.573C841.166 210.137 892.818 198.054 924.008 187.418C986.532 166.099 1101.52 145.26 1212.74 187.015C1257.04 203.647 1306.09 201.33 1349.43 191.651C1392.77 181.973 1430.36 164.943 1451.7 152.211L1452.22 152.959C1430.79 165.741 1393.11 182.812 1349.65 192.515C1306.2 202.218 1256.94 204.565 1212.38 187.839C1101.46 146.197 986.739 166.974 924.335 188.253C893.063 198.916 841.322 211.018 784.07 214.46C726.822 217.901 664.018 212.688 610.654 188.678C504.206 140.787 415.732 125.096 297.927 143.628C246.591 151.704 216.06 166.56 191.45 178.535C187.836 180.293 184.35 181.989 180.945 183.593C167.643 189.856 155.541 194.719 141.866 196.308C128.183 197.898 112.966 196.206 93.4256 189.427C31.0061 167.774 -3.76461 138.594 -13.3809 126.646L-12.6192 126.112Z" fill="#FFAD41"/>
<path fill-rule="evenodd" clip-rule="evenodd" d="M-11.6177 122.727C-2.1359 134.508 32.4671 163.6 94.7596 185.209C114.191 191.95 129.252 193.609 142.75 192.041C156.256 190.472 168.237 185.667 181.517 179.414C184.915 177.814 188.396 176.12 192.007 174.363C216.627 162.382 247.28 147.466 298.77 139.366C416.795 120.799 505.469 136.532 612.068 184.493C665.228 208.41 727.849 213.624 785.01 210.187C842.167 206.751 893.819 194.668 925.01 184.032C987.533 162.712 1102.52 141.874 1213.74 183.628C1258.04 200.261 1307.09 197.944 1350.43 188.265C1393.77 178.586 1431.36 161.557 1452.7 148.825L1453.22 149.573C1431.79 162.354 1394.1 179.425 1350.65 189.129C1307.2 198.832 1257.94 201.179 1213.38 184.452C1102.46 142.811 987.74 163.587 925.337 184.866C894.065 195.53 842.323 207.632 785.071 211.074C727.823 214.516 665.018 209.302 611.655 185.293C505.208 137.401 416.734 121.71 298.929 140.242C247.593 148.318 217.061 163.174 192.451 175.149C188.837 176.907 185.351 178.604 181.946 180.207C168.645 186.47 156.543 191.333 142.868 192.922C129.185 194.512 113.967 192.82 94.4276 186.042C32.0075 164.389 -2.76318 135.208 -12.3794 123.26L-11.6177 122.727Z" fill="#FFAD41"/>
<path fill-rule="evenodd" clip-rule="evenodd" d="M-11.6334 119.342C-2.15149 131.123 32.4515 160.215 94.7431 181.825C114.175 188.566 129.237 190.225 142.734 188.656C156.24 187.087 168.221 182.283 181.502 176.029C184.9 174.429 188.381 172.735 191.992 170.978C216.611 158.998 247.264 144.081 298.754 135.981C416.78 117.414 505.452 133.147 612.054 181.108C665.214 205.025 727.834 210.239 784.994 206.803C842.151 203.366 893.804 191.283 924.994 180.647C987.517 159.328 1102.51 138.49 1213.73 180.244C1258.03 196.876 1307.08 194.559 1350.42 184.88C1393.76 175.201 1431.35 158.172 1452.69 145.44L1453.21 146.188C1431.78 158.97 1394.09 176.04 1350.64 185.744C1307.19 195.447 1257.93 197.794 1213.37 181.068C1102.45 139.427 987.724 160.203 925.321 181.481C894.049 192.145 842.308 204.247 785.056 207.689C727.807 211.131 665.004 205.917 611.64 181.908C505.192 134.016 416.719 118.325 298.912 136.857C247.577 144.933 217.045 159.789 192.436 171.764C188.822 173.523 185.336 175.219 181.931 176.822C168.629 183.086 156.527 187.949 142.852 189.538C129.169 191.128 113.951 189.436 94.4111 182.657C31.9919 161.004 -2.77877 131.823 -12.395 119.875L-11.6334 119.342Z" fill="#FFAD41"/>
<path fill-rule="evenodd" clip-rule="evenodd" d="M-11.649 115.958C-2.16719 127.738 32.4358 156.831 94.7282 178.44C114.16 185.181 129.221 186.84 142.719 185.272C156.225 183.703 168.206 178.898 181.486 172.645C184.884 171.045 188.366 169.351 191.977 167.594C216.596 155.613 247.249 140.697 298.739 132.597C416.764 114.03 505.437 129.763 612.037 177.724C665.198 201.641 727.818 206.855 784.979 203.418C842.136 199.982 893.788 187.899 924.978 177.263C987.501 155.943 1102.49 135.105 1213.71 176.86C1258.01 193.492 1307.06 191.175 1350.4 181.496C1393.74 171.817 1431.33 154.788 1452.67 142.056L1453.19 142.804C1431.76 155.585 1394.07 172.656 1350.62 182.36C1307.17 192.063 1257.91 194.41 1213.35 177.684C1102.43 136.042 987.708 156.818 925.305 178.097C894.033 188.761 842.292 200.863 785.04 204.305C727.792 207.747 664.988 202.533 611.623 178.524C505.177 130.632 416.703 114.941 298.897 133.473C247.562 141.549 217.03 156.405 192.42 168.38C188.807 170.138 185.321 171.834 181.915 173.438C168.614 179.701 156.512 184.564 142.837 186.153C129.154 187.743 113.936 186.052 94.3962 179.273C31.9762 157.619 -2.79446 128.439 -12.4106 116.491L-11.649 115.958Z" fill="#FFAD41"/>
<path fill-rule="evenodd" clip-rule="evenodd" d="M-11.6646 112.574C-2.18279 124.355 32.4202 153.447 94.7127 175.057C114.144 181.798 129.205 183.457 142.703 181.888C156.209 180.319 168.19 175.515 181.47 169.261C184.868 167.661 188.349 165.967 191.96 164.21C216.579 152.23 247.233 137.313 298.723 129.213C416.748 110.647 505.422 126.379 612.021 174.34C665.182 198.257 727.802 203.471 784.963 200.034C842.12 196.598 893.772 184.515 924.963 173.879C987.486 152.559 1102.48 131.721 1213.7 173.476C1258 190.108 1307.05 187.791 1350.39 178.112C1393.73 168.433 1431.32 151.404 1452.66 138.672L1453.17 139.421C1431.75 152.202 1394.06 169.272 1350.61 178.976C1307.16 188.679 1257.9 191.026 1213.34 174.3C1102.42 132.658 987.693 153.435 925.29 174.713C894.018 185.377 842.276 197.479 785.024 200.921C727.776 204.363 664.972 199.149 611.608 175.14C505.161 127.248 416.687 111.557 298.882 130.089C247.545 138.165 217.013 153.021 192.403 164.996C188.79 166.755 185.304 168.451 181.899 170.054C168.598 176.317 156.496 181.181 142.821 182.77C129.138 184.36 113.92 182.668 94.3807 175.889C31.9606 154.236 -2.81006 125.055 -12.4263 113.108L-11.6646 112.574Z" fill="#FFAD41"/>
<path fill-rule="evenodd" clip-rule="evenodd" d="M-11.5841 130.06C-2.10221 141.841 32.5008 170.933 94.7931 192.542C114.225 199.283 129.286 200.942 142.784 199.374C156.289 197.804 168.27 193 181.551 186.747C184.949 185.147 188.43 183.453 192.041 181.695C216.661 169.715 247.314 154.799 298.804 146.699C416.829 128.132 505.502 143.865 612.102 191.826C665.262 215.743 727.882 220.957 785.043 217.52C842.2 214.084 893.853 202 925.043 191.365C987.566 170.045 1102.55 149.207 1213.77 190.961C1258.08 207.594 1307.13 205.277 1350.47 195.598C1393.81 185.919 1431.4 168.89 1452.74 156.158L1453.26 156.906C1431.83 169.687 1394.15 186.758 1350.69 196.462C1307.24 206.165 1257.97 208.512 1213.41 191.786C1102.49 150.144 987.773 170.92 925.37 192.199C894.098 202.862 842.357 214.964 785.104 218.407C727.856 221.849 665.052 216.635 611.688 192.626C505.242 144.734 416.768 129.043 298.962 147.575C247.627 155.651 217.095 170.507 192.485 182.482C188.871 184.24 185.385 185.936 181.98 187.54C168.679 193.803 156.576 198.666 142.901 200.255C129.218 201.845 114.001 200.153 94.4612 193.375C32.0412 171.722 -2.72949 142.541 -12.3457 130.593L-11.5841 130.06Z" fill="#FFAD41"/>
<path fill-rule="evenodd" clip-rule="evenodd" d="M-11.6954 105.806C-2.21357 117.586 32.3894 146.679 94.6812 168.288C114.113 175.029 129.175 176.688 142.673 175.12C156.178 173.55 168.16 168.746 181.44 162.493C184.838 160.893 188.32 159.199 191.931 157.441C216.55 145.461 247.203 130.545 298.693 122.445C416.718 103.879 505.391 119.611 611.991 167.572C665.151 191.489 727.771 196.703 784.932 193.266C842.089 189.83 893.741 177.746 924.931 167.11C987.455 145.791 1102.45 124.953 1213.66 166.708C1257.97 183.34 1307.01 181.023 1350.36 171.344C1393.7 161.665 1431.29 144.636 1452.63 131.904L1453.14 132.653C1431.72 145.434 1394.03 162.504 1350.58 172.208C1307.13 181.911 1257.86 184.258 1213.3 167.532C1102.39 125.89 987.662 146.667 925.258 167.945C893.986 178.608 842.245 190.71 784.993 194.153C727.745 197.595 664.941 192.381 611.577 168.372C505.131 120.48 416.657 104.789 298.851 123.321C247.516 131.397 216.984 146.253 192.374 158.228C188.761 159.986 185.275 161.682 181.869 163.286C168.568 169.549 156.466 174.412 142.79 176.001C129.107 177.591 113.89 175.899 94.3492 169.121C31.9299 147.467 -2.84084 118.286 -12.457 106.339L-11.6954 105.806Z" fill="#FFAD41"/>
<path fill-rule="evenodd" clip-rule="evenodd" d="M-11.732 97.9092C-2.25015 109.69 32.3528 138.782 94.6442 160.392C114.076 167.133 129.138 168.791 142.636 167.223C156.141 165.654 168.123 160.85 181.403 154.597C184.801 152.996 188.283 151.302 191.894 149.545C216.513 137.565 247.166 122.649 298.656 114.549C416.682 95.9824 505.354 111.714 611.955 159.675C665.115 183.593 727.735 188.806 784.896 185.37C842.053 181.933 893.705 169.85 924.896 159.214C987.418 137.895 1102.41 117.056 1213.63 158.811C1257.93 175.443 1306.98 173.127 1350.32 163.447C1393.66 153.769 1431.25 136.74 1452.59 124.008L1453.1 124.756C1431.68 137.537 1393.99 154.608 1350.54 164.311C1307.09 174.014 1257.83 176.362 1213.27 159.635C1102.35 117.993 987.625 138.77 925.224 160.048C893.951 170.712 842.209 182.814 784.957 186.256C727.708 189.698 664.905 184.485 611.541 160.475C505.094 112.583 416.621 96.8929 298.814 115.425C247.479 123.501 216.947 138.357 192.337 150.331C188.724 152.09 185.238 153.786 181.832 155.39C168.531 161.653 156.429 166.516 142.753 168.105C129.07 169.695 113.853 168.003 94.3122 161.224C31.8933 139.571 -2.87742 110.39 -12.4937 98.4425L-11.732 97.9092Z" fill="#FFAD41"/>
<path fill-rule="evenodd" clip-rule="evenodd" d="M-11.7501 93.9619C-2.26825 105.742 32.3347 134.835 94.6262 156.444C114.058 163.185 129.12 164.844 142.618 163.276C156.123 161.707 168.105 156.902 181.385 150.649C184.783 149.049 188.265 147.355 191.876 145.598C216.495 133.618 247.148 118.702 298.638 110.602C416.664 92.0352 505.336 107.767 611.937 155.728C665.096 179.645 727.717 184.859 784.878 181.422C842.035 177.986 893.687 165.902 924.878 155.267C987.4 133.948 1102.39 113.109 1213.61 154.864C1257.91 171.496 1306.96 169.179 1350.3 159.5C1393.64 149.822 1431.22 132.793 1452.57 120.061L1453.08 120.809C1431.66 133.59 1393.97 150.661 1350.52 160.364C1307.07 170.067 1257.81 172.414 1213.25 155.688C1102.33 114.046 987.607 134.823 925.205 156.101C893.933 166.764 842.191 178.867 784.939 182.309C727.69 185.751 664.887 180.537 611.523 156.528C505.076 108.636 416.603 92.9457 298.796 111.478C247.461 119.553 216.929 134.409 192.319 146.384C188.706 148.143 185.22 149.839 181.814 151.442C168.513 157.705 156.411 162.568 142.735 164.157C129.052 165.747 113.835 164.055 94.2942 157.277C31.8752 135.623 -2.89552 106.443 -12.5117 94.4952L-11.7501 93.9619Z" fill="#FFAD41"/>
<path fill-rule="evenodd" clip-rule="evenodd" d="M-11.7896 85.502C-2.30773 97.2824 32.2953 126.375 94.5872 147.984C114.019 154.725 129.081 156.384 142.578 154.816C156.084 153.247 168.065 148.443 181.346 142.189C184.744 140.589 188.225 138.895 191.836 137.138C216.455 125.158 247.108 110.242 298.598 102.142C416.623 83.5752 505.296 99.3069 611.897 147.268C665.057 171.185 727.677 176.399 784.838 172.962C841.995 169.526 893.647 157.442 924.838 146.807C987.361 125.488 1102.34 104.649 1213.57 146.404C1257.87 163.036 1306.92 160.719 1350.26 151.04C1393.6 141.361 1431.19 124.332 1452.54 111.6L1453.05 112.349C1431.62 125.13 1393.93 142.2 1350.48 151.904C1307.03 161.607 1257.76 163.954 1213.21 147.228C1102.29 105.586 987.568 126.363 925.164 147.641C893.892 158.305 842.151 170.406 784.899 173.849C727.651 177.291 664.847 172.077 611.483 148.068C505.036 100.176 416.562 84.4857 298.756 103.018C247.421 111.093 216.889 125.95 192.28 137.924C188.666 139.683 185.18 141.379 181.775 142.982C168.474 149.245 156.371 154.108 142.696 155.697C129.013 157.287 113.796 155.595 94.2552 148.817C31.8357 127.163 -2.935 97.9827 -12.5513 86.0353L-11.7896 85.502Z" fill="#FFAD41"/>
<path fill-rule="evenodd" clip-rule="evenodd" d="M-11.7686 90.0137C-2.28684 101.794 32.3163 130.887 94.6077 152.496C114.04 159.237 129.101 160.896 142.599 159.328C156.104 157.759 168.086 152.954 181.366 146.701C184.764 145.101 188.245 143.407 191.857 141.65C216.476 129.67 247.129 114.754 298.619 106.654C416.645 88.0869 505.317 103.819 611.919 151.78C665.078 175.697 727.698 180.911 784.859 177.474C842.016 174.038 893.668 161.954 924.859 151.318C987.381 130 1102.36 109.161 1213.59 150.916C1257.89 167.548 1306.94 165.231 1350.28 155.552C1393.62 145.873 1431.21 128.844 1452.56 116.112L1453.07 116.861C1431.64 129.642 1393.95 146.712 1350.5 156.416C1307.05 166.119 1257.78 168.466 1213.23 151.74C1102.31 110.098 987.588 130.875 925.186 152.153C893.914 162.816 842.172 174.918 784.92 178.361C727.672 181.803 664.868 176.589 611.505 152.58C505.056 104.688 416.583 88.9974 298.778 107.53C247.442 115.605 216.91 130.462 192.3 142.436C188.686 144.195 185.2 145.891 181.795 147.494C168.494 153.757 156.392 158.62 142.716 160.209C129.033 161.799 113.816 160.107 94.2757 153.329C31.8567 131.675 -2.91411 102.494 -12.5303 90.547L-11.7686 90.0137Z" fill="#FFAD41"/>
<path fill-rule="evenodd" clip-rule="evenodd" d="M-11.9429 52.2236C-2.46114 64.0053 32.1419 93.0973 94.4333 114.707C113.865 121.448 128.927 123.107 142.425 121.538C155.931 119.969 167.912 115.165 181.192 108.911C184.59 107.311 188.072 105.617 191.683 103.86C216.302 91.8798 246.955 76.9636 298.445 68.8637C416.471 50.297 505.144 66.0298 611.744 113.99C664.904 137.907 727.524 143.121 784.685 139.684C841.842 136.248 893.494 124.165 924.685 113.53C987.207 92.2099 1102.19 71.3713 1213.41 113.125C1257.72 129.758 1306.76 127.441 1350.1 117.762C1393.44 108.084 1431.03 91.0543 1452.38 78.3224L1452.89 79.0708C1431.46 91.8518 1393.78 108.923 1350.33 118.626C1306.88 128.329 1257.61 130.676 1213.06 113.95C1102.14 72.3084 987.414 93.0851 925.013 114.364C893.74 125.027 841.998 137.129 784.746 140.571C727.497 144.013 664.694 138.799 611.33 114.79C504.883 66.8988 416.41 51.2075 298.603 69.7396C247.268 77.8153 216.736 92.6715 192.127 104.646C188.513 106.405 185.027 108.101 181.621 109.704C168.32 115.968 156.218 120.831 142.542 122.42C128.859 124.01 113.642 122.318 94.1013 115.539C31.6824 93.8856 -3.08842 64.7055 -12.7046 52.7569L-11.9429 52.2236Z" fill="#FFAD41"/>
<path fill-rule="evenodd" clip-rule="evenodd" d="M-11.8145 79.8613C-2.33272 91.6424 32.2703 120.735 94.5612 142.344C113.993 149.085 129.055 150.744 142.553 149.176C156.059 147.607 168.04 142.802 181.32 136.549C184.718 134.949 188.2 133.255 191.811 131.498C216.431 119.518 247.084 104.601 298.574 96.5014C416.599 77.9346 505.271 93.6669 611.872 141.627C665.032 165.545 727.652 170.759 784.813 167.322C841.97 163.886 893.622 151.802 924.813 141.167C987.336 119.848 1102.32 99.009 1213.55 140.763C1257.85 157.395 1306.9 155.079 1350.24 145.4C1393.58 135.721 1431.16 118.692 1452.51 105.96L1453.02 106.709C1431.59 119.489 1393.91 136.56 1350.46 146.264C1307.01 155.966 1257.74 158.314 1213.19 141.587C1102.27 99.9461 987.543 120.723 925.14 142.001C893.868 152.664 842.126 164.766 784.874 168.209C727.625 171.651 664.822 166.437 611.458 142.427C505.011 94.5359 416.538 78.8451 298.732 97.3773C247.396 105.453 216.865 120.309 192.255 132.284C188.641 134.042 185.155 135.739 181.749 137.342C168.448 143.605 156.346 148.468 142.67 150.057C128.987 151.647 113.77 149.955 94.2292 143.177C31.8107 121.523 -2.96 92.3427 -12.5762 80.3946L-11.8145 79.8613Z" fill="#FFAD41"/>
<path fill-rule="evenodd" clip-rule="evenodd" d="M-11.836 75.3496C-2.35419 87.1307 32.2488 116.223 94.5402 137.832C113.972 144.573 129.034 146.232 142.532 144.664C156.038 143.095 168.019 138.291 181.299 132.037C184.698 130.437 188.179 128.743 191.79 126.986C216.41 115.006 247.062 100.09 298.552 91.9897C416.577 73.4229 505.251 89.1552 611.85 137.116C665.01 161.033 727.631 166.247 784.791 162.81C841.948 159.374 893.601 147.291 924.792 136.655C987.314 115.336 1102.3 94.4973 1213.52 136.251C1257.83 152.884 1306.87 150.567 1350.22 140.888C1393.56 131.209 1431.14 114.18 1452.49 101.448L1453 102.197C1431.57 114.978 1393.89 132.048 1350.44 141.752C1306.99 151.455 1257.72 153.802 1213.17 137.076C1102.25 95.4344 987.521 116.211 925.118 137.489C893.846 148.153 842.105 160.255 784.853 163.697C727.604 167.139 664.8 161.925 611.436 137.916C504.99 90.0242 416.516 74.3333 298.71 92.8656C247.375 100.941 216.844 115.797 192.234 127.772C188.62 129.531 185.134 131.227 181.728 132.83C168.427 139.094 156.325 143.957 142.649 145.545C128.966 147.135 113.749 145.443 94.2083 138.665C31.7892 117.012 -2.98147 87.8309 -12.5977 75.8829L-11.836 75.3496Z" fill="#FFAD41"/>
<path fill-rule="evenodd" clip-rule="evenodd" d="M-11.8565 70.8369C-2.37469 82.618 32.2283 111.711 94.5192 133.319C113.951 140.06 129.013 141.719 142.511 140.151C156.017 138.582 167.998 133.778 181.278 127.524C184.677 125.924 188.158 124.23 191.769 122.473C216.389 110.493 247.042 95.5769 298.532 87.4769C416.557 68.9101 505.229 84.6419 611.83 132.603C664.99 156.52 727.61 161.734 784.771 158.297C841.928 154.861 893.58 142.778 924.772 132.142C987.294 110.823 1102.28 89.9846 1213.5 131.739C1257.81 148.371 1306.85 146.054 1350.2 136.375C1393.54 126.697 1431.12 109.668 1452.47 96.9357L1452.98 97.6841C1431.55 110.465 1393.87 127.536 1350.42 137.239C1306.97 146.942 1257.7 149.289 1213.15 132.563C1102.23 90.9217 987.501 111.698 925.099 132.977C893.826 143.64 842.084 155.742 784.832 159.184C727.583 162.626 664.78 157.412 611.416 133.403C504.969 85.5109 416.496 69.8206 298.69 88.3529C247.355 96.4285 216.823 111.285 192.213 123.259C188.599 125.018 185.113 126.714 181.707 128.317C168.406 134.581 156.304 139.444 142.628 141.032C128.945 142.622 113.728 140.93 94.1872 134.152C31.7687 112.499 -3.00197 83.3182 -12.6182 71.3702L-11.8565 70.8369Z" fill="#FFAD41"/>
<path fill-rule="evenodd" clip-rule="evenodd" d="M-11.8805 65.7617C-2.39868 77.5422 32.2043 106.635 94.4963 128.244C113.928 134.985 128.989 136.644 142.487 135.076C155.993 133.506 167.974 128.702 181.254 122.449C184.652 120.849 188.134 119.155 191.745 117.398C216.364 105.418 247.017 90.5015 298.508 82.4018C416.533 63.835 505.206 79.5673 611.806 127.528C664.966 151.445 727.586 156.659 784.747 153.222C841.904 149.785 893.556 137.702 924.748 127.067C987.27 105.748 1102.25 84.9089 1213.47 126.664C1257.78 143.295 1306.82 140.979 1350.17 131.299C1393.51 121.621 1431.1 104.592 1452.45 91.8599L1452.96 92.6083C1431.53 105.389 1393.84 122.46 1350.39 132.163C1306.94 141.866 1257.67 144.214 1213.12 127.488C1102.2 85.846 987.477 106.623 925.075 127.901C893.802 138.564 842.06 150.666 784.808 154.108C727.56 157.55 664.756 152.337 611.392 128.328C504.945 80.4363 416.472 64.7455 298.666 83.2777C247.33 91.3532 216.798 106.209 192.188 118.184C188.575 119.942 185.089 121.639 181.684 123.242C168.382 129.505 156.28 134.368 142.605 135.957C128.922 137.547 113.704 135.855 94.1643 129.077C31.7447 107.423 -3.02595 78.2425 -12.6421 66.295L-11.8805 65.7617Z" fill="#FFAD41"/>
<path fill-rule="evenodd" clip-rule="evenodd" d="M-11.9009 61.249C-2.41907 73.0301 32.1839 102.122 94.4753 123.731C113.907 130.472 128.969 132.131 142.467 130.563C155.973 128.994 167.954 124.19 181.234 117.936C184.632 116.336 188.114 114.642 191.725 112.885C216.344 100.905 246.997 85.9884 298.487 77.8885C416.513 59.3223 505.186 75.0546 611.786 123.015C664.946 146.932 727.566 152.146 784.727 148.709C841.884 145.273 893.536 133.19 924.727 122.554C987.249 101.235 1102.23 80.3961 1213.45 122.151C1257.76 138.783 1306.8 136.466 1350.15 126.787C1393.49 117.108 1431.08 100.079 1452.43 87.3472L1452.94 88.0956C1431.51 100.877 1393.82 117.947 1350.37 127.651C1306.92 137.354 1257.65 139.701 1213.1 122.975C1102.18 81.3332 987.456 102.11 925.054 123.389C893.781 134.052 842.04 146.154 784.788 149.596C727.539 153.038 664.736 147.824 611.372 123.815C504.925 75.9236 416.452 60.2328 298.645 78.7644C247.31 86.8401 216.778 101.696 192.169 113.671C188.555 115.429 185.069 117.126 181.663 118.729C168.362 124.992 156.26 129.856 142.584 131.444C128.901 133.034 113.684 131.343 94.1433 124.564C31.7244 102.91 -3.04634 73.7303 -12.6626 61.7823L-11.9009 61.249Z" fill="#FFAD41"/>
<path fill-rule="evenodd" clip-rule="evenodd" d="M-11.9219 56.7363C-2.44016 68.5174 32.1629 97.6094 94.4548 119.219C113.887 125.96 128.948 127.619 142.446 126.05C155.952 124.481 167.933 119.677 181.213 113.424C184.612 111.823 188.093 110.129 191.704 108.372C216.324 96.3919 246.977 81.4757 298.466 73.3758C416.492 54.809 505.165 70.5419 611.765 118.502C664.924 142.42 727.544 147.633 784.705 144.197C841.862 140.76 893.514 128.677 924.705 118.042C987.229 96.7221 1102.21 75.8835 1213.43 117.638C1257.74 134.27 1306.78 131.954 1350.13 122.274C1393.47 112.596 1431.06 95.5664 1452.41 82.8345L1452.92 83.5829C1431.49 96.3639 1393.8 113.435 1350.35 123.138C1306.9 132.841 1257.63 135.189 1213.08 118.462C1102.16 76.8205 987.436 97.5973 925.032 118.876C893.76 129.539 842.018 141.641 784.766 145.083C727.518 148.525 664.714 143.311 611.351 119.302C504.905 71.4109 416.43 55.7195 298.625 74.2517C247.29 82.3274 216.758 97.1836 192.148 109.158C188.534 110.917 185.048 112.613 181.643 114.217C168.341 120.48 156.239 125.343 142.564 126.932C128.88 128.522 113.663 126.83 94.1228 120.051C31.7034 98.3977 -3.06744 69.2177 -12.6836 57.2696L-11.9219 56.7363Z" fill="#FFAD41"/>
<path fill-rule="evenodd" clip-rule="evenodd" d="M-11.9654 47.1484C-2.48355 58.9294 32.1194 88.022 94.4113 109.631C113.843 116.372 128.904 118.031 142.402 116.462C155.908 114.893 167.889 110.089 181.169 103.836C184.568 102.236 188.049 100.542 191.66 98.7844C216.279 86.8044 246.932 71.8883 298.422 63.7884C416.448 45.2215 505.121 60.9539 611.721 108.914C664.881 132.832 727.502 138.046 784.662 134.609C841.82 131.172 893.472 119.089 924.663 108.454C987.184 87.1347 1102.17 66.296 1213.39 108.05C1257.7 124.683 1306.74 122.366 1350.08 112.687C1393.43 103.008 1431.01 85.979 1452.36 73.2471L1452.87 73.9955C1431.44 86.7765 1393.76 103.847 1350.31 113.551C1306.86 123.254 1257.59 125.601 1213.04 108.874C1102.12 67.2331 987.391 88.0098 924.99 109.289C893.717 119.951 841.976 132.053 784.724 135.495C727.475 138.937 664.671 133.724 611.307 109.714C504.86 61.8229 416.387 46.132 298.58 64.6643C247.245 72.74 216.713 87.5961 192.104 99.5708C188.49 101.329 185.004 103.025 181.599 104.629C168.297 110.892 156.195 115.755 142.52 117.344C128.837 118.934 113.619 117.242 94.0793 110.463C31.6599 88.8103 -3.11083 59.6296 -12.7271 47.6817L-11.9654 47.1484Z" fill="#FFAD41"/>
<path fill-rule="evenodd" clip-rule="evenodd" d="M-12.2198 -8C-2.73803 3.78124 31.865 32.8733 94.1574 54.4823C113.589 61.2233 128.65 62.8823 142.148 61.314C155.654 59.7448 167.635 54.9406 180.915 48.6874C184.313 47.0873 187.794 45.3933 191.405 43.6362C216.025 31.656 246.678 16.7398 298.168 8.63986C416.193 -9.92691 504.866 5.80568 611.467 53.766C664.627 77.6835 727.247 82.8974 784.408 79.4607C841.565 76.0242 893.217 63.941 924.408 53.3053C986.931 31.9861 1101.92 11.1474 1213.14 52.9024C1257.44 69.5346 1306.49 67.2178 1349.83 57.5386C1393.17 47.86 1430.76 30.8307 1452.1 18.0985L1452.61 18.8469C1431.19 31.6281 1393.5 48.699 1350.05 58.4025C1306.6 68.1055 1257.34 70.4529 1212.78 53.7265C1101.86 12.0845 987.139 32.8613 924.735 54.1396C893.463 64.8031 841.721 76.905 784.469 80.3472C727.221 83.7891 664.417 78.5753 611.053 54.5661C504.605 6.67474 416.132 -9.0164 298.326 9.51581C246.99 17.5915 216.459 32.4478 191.849 44.4225C188.235 46.1808 184.75 47.877 181.344 49.4804C168.043 55.7436 155.941 60.6066 142.266 62.1955C128.583 63.7853 113.365 62.0934 93.8254 55.3149C31.4055 33.6617 -3.36531 4.48151 -12.9814 -7.4667L-12.2198 -8Z" fill="#FFAD41"/>
<path fill-rule="evenodd" clip-rule="evenodd" d="M-12.004 38.8135C-2.52223 50.594 32.0809 79.6866 94.3723 101.296C113.804 108.037 128.865 109.696 142.363 108.128C155.869 106.558 167.85 101.754 181.13 95.5011C184.529 93.901 188.01 92.2069 191.621 90.4497C216.241 78.4696 246.894 63.5535 298.384 55.4536C416.409 36.8866 505.082 52.6185 611.683 100.58C664.843 124.497 727.463 129.711 784.624 126.274C841.781 122.837 893.433 110.754 924.623 100.118C987.147 78.7999 1102.13 57.9607 1213.35 99.7154C1257.65 116.347 1306.7 114.03 1350.04 104.351C1393.38 94.6727 1430.97 77.6436 1452.32 64.9118L1452.83 65.6601C1431.4 78.4411 1393.72 95.5118 1350.27 105.215C1306.82 114.918 1257.55 117.266 1213 100.539C1102.08 58.8978 987.354 79.6751 924.95 100.953C893.678 111.616 841.937 123.718 784.685 127.16C727.436 130.603 664.633 125.389 611.269 101.38C504.821 53.4876 416.348 37.7971 298.542 56.3295C247.207 64.4052 216.675 79.2614 192.065 91.2361C188.451 92.9944 184.965 94.6906 181.56 96.2941C168.258 102.557 156.156 107.42 142.481 109.009C128.798 110.599 113.58 108.907 94.0403 102.129C31.6213 80.475 -3.14951 51.2943 -12.7656 39.3468L-12.004 38.8135Z" fill="#FFAD41"/>
<path fill-rule="evenodd" clip-rule="evenodd" d="M-11.984 43.3252C-2.50213 55.1056 32.1008 84.1982 94.3923 105.808C113.824 112.549 128.886 114.207 142.384 112.639C155.89 111.07 167.871 106.266 181.151 100.013C184.55 98.4125 188.031 96.7184 191.642 94.9612C216.262 82.9811 246.914 68.0651 298.404 59.9652C416.429 41.3983 505.103 57.1301 611.702 105.091C664.862 129.009 727.483 134.222 784.643 130.786C841.801 127.349 893.453 115.266 924.643 104.631C987.166 83.3115 1102.15 62.4723 1213.37 104.227C1257.67 120.859 1306.72 118.542 1350.06 108.863C1393.4 99.1849 1430.99 82.1558 1452.34 69.424L1452.85 70.1723C1431.42 82.9533 1393.74 100.024 1350.29 109.727C1306.84 119.43 1257.57 121.777 1213.02 105.051C1102.1 63.4094 987.373 84.1867 924.97 105.465C893.698 116.128 841.957 128.23 784.705 131.672C727.456 135.114 664.652 129.9 611.288 105.891C504.842 57.9992 416.368 42.3088 298.562 60.8411C247.227 68.9168 216.696 83.7728 192.086 95.7475C188.472 97.5059 184.986 99.2021 181.58 100.806C168.279 107.069 156.177 111.932 142.501 113.521C128.818 115.111 113.601 113.419 94.0603 106.64C31.6413 84.9866 -3.12941 55.8059 -12.7456 43.8585L-11.984 43.3252Z" fill="#FFAD41"/>
<path fill-rule="evenodd" clip-rule="evenodd" d="M-12.0333 32.6104C-2.55141 44.391 32.0516 73.4838 94.3433 95.0925C113.775 101.834 128.836 103.493 142.334 101.924C155.84 100.355 167.821 95.5511 181.101 89.2979C184.5 87.6978 187.981 86.0037 191.592 84.2464C216.212 72.2663 246.864 57.3501 298.354 49.2502C416.38 30.6834 505.053 46.416 611.653 94.3762C664.813 118.294 727.434 123.508 784.594 120.071C841.752 116.634 893.404 104.551 924.595 93.9155C987.116 72.5964 1102.1 51.7578 1213.32 93.512C1257.62 110.144 1306.67 107.827 1350.01 98.1484C1393.36 88.4699 1430.94 71.4408 1452.29 58.7089L1452.81 59.4573C1431.38 72.2383 1393.69 89.3089 1350.24 99.0123C1306.79 108.715 1257.52 111.062 1212.96 94.3361C1102.04 52.6949 987.323 73.4716 924.922 94.7498C893.649 105.413 841.908 117.515 784.656 120.957C727.407 124.399 664.603 119.185 611.239 95.1763C504.792 47.2851 416.319 31.5939 298.512 50.1261C247.177 58.2018 216.646 73.058 192.036 85.0327C188.422 86.7911 184.936 88.4874 181.531 90.0909C168.229 96.3541 156.127 101.217 142.452 102.806C128.769 104.396 113.551 102.704 94.0113 95.9251C31.592 74.2721 -3.17868 45.0913 -12.7949 33.1437L-12.0333 32.6104Z" fill="#FFAD41"/>
<path fill-rule="evenodd" clip-rule="evenodd" d="M-12.0587 26.9688C-2.5768 38.75 32.0262 67.8419 94.3183 89.4512C113.75 96.1922 128.811 97.8511 142.309 96.2829C155.815 94.7136 167.796 89.9095 181.076 83.6563C184.475 82.0562 187.956 80.3621 191.567 78.6049C216.187 66.6247 246.839 51.7086 298.329 43.6086C416.354 25.0419 505.028 40.7745 611.627 88.7349C664.788 112.652 727.408 117.866 784.569 114.429C841.726 110.993 893.378 98.9096 924.569 88.2742C987.091 66.9551 1102.08 46.1161 1213.3 87.8707C1257.6 104.503 1306.65 102.186 1349.99 92.5068C1393.33 82.8281 1430.92 65.7989 1452.26 53.067L1452.78 53.8154C1431.35 66.5964 1393.67 83.6672 1350.21 93.3707C1306.77 103.074 1257.5 105.421 1212.94 88.6947C1102.02 47.0532 987.298 67.8303 924.896 89.1085C893.624 99.7717 841.883 111.874 784.63 115.316C727.382 118.758 664.578 113.544 611.213 89.535C504.767 41.6435 416.293 25.9524 298.487 44.4846C247.152 52.5603 216.621 67.4165 192.011 79.3912C188.397 81.1495 184.911 82.8458 181.506 84.4493C168.204 90.7125 156.102 95.5755 142.427 97.1644C128.744 98.7542 113.526 97.0623 93.9864 90.2838C31.5666 68.6302 -3.20407 39.4503 -12.8203 27.5021L-12.0587 26.9688Z" fill="#FFAD41"/>
<path fill-rule="evenodd" clip-rule="evenodd" d="M-12.085 21.3291C-2.60328 33.1103 31.9998 62.2025 94.2913 83.8118C113.723 90.5528 128.784 92.2117 142.282 90.6434C155.788 89.0741 167.769 84.2699 181.049 78.0167C184.448 76.4166 187.929 74.7225 191.54 72.9653C216.159 60.9851 246.812 46.0689 298.302 37.969C416.328 19.4022 505.001 35.1348 611.602 83.0949C664.762 107.012 727.382 112.226 784.543 108.79C841.7 105.353 893.352 93.2702 924.543 82.6348C987.065 61.3151 1102.05 40.4765 1213.27 82.2307C1257.57 98.8632 1306.62 96.5464 1349.96 86.8673C1393.3 77.1887 1430.89 60.1595 1452.23 47.4276L1452.75 48.176C1431.32 60.9569 1393.64 78.0278 1350.18 87.7312C1306.73 97.4341 1257.47 99.7814 1212.91 83.0547C1101.99 41.4136 987.272 62.1903 924.87 83.4691C893.597 94.1323 841.856 106.234 784.604 109.676C727.356 113.118 664.552 107.904 611.188 83.895C504.74 36.0038 416.267 20.3127 298.46 38.8449C247.125 46.9205 216.593 61.7768 191.983 73.7516C188.37 75.51 184.884 77.2062 181.479 78.8097C168.177 85.0729 156.075 89.9359 142.4 91.5249C128.717 93.1147 113.499 91.4229 93.9594 84.6444C31.5402 62.9908 -3.23055 33.8106 -12.8467 21.8624L-12.085 21.3291Z" fill="#FFAD41"/>
<path fill-rule="evenodd" clip-rule="evenodd" d="M-12.1109 15.6895C-2.62908 27.4707 31.9739 56.5625 94.2664 78.1718C113.698 84.9128 128.759 86.5717 142.257 85.0034C155.762 83.4342 167.743 78.6301 181.024 72.3769C184.422 70.7768 187.903 69.0828 191.514 67.3256C216.134 55.3455 246.787 40.4293 298.277 32.3293C416.302 13.7626 504.976 29.4951 611.575 77.4555C664.735 101.373 727.356 106.587 784.517 103.15C841.674 99.7134 893.326 87.6302 924.517 76.9948C987.039 55.6757 1102.03 34.8368 1213.25 76.5913C1257.55 93.2237 1306.6 90.907 1349.94 81.2279C1393.28 71.5493 1430.87 54.52 1452.21 41.788L1452.73 42.5363C1431.3 55.3174 1393.62 72.3883 1350.16 82.0918C1306.71 91.7947 1257.45 94.142 1212.89 77.4153C1101.97 35.7739 987.246 56.5509 924.844 77.8291C893.572 88.4923 841.83 100.594 784.578 104.036C727.329 107.478 664.525 102.265 611.161 78.2555C504.715 30.3642 416.241 14.6731 298.435 33.2053C247.099 41.281 216.568 56.1373 191.958 68.112C188.344 69.8703 184.858 71.5665 181.453 73.1699C168.151 79.4331 156.049 84.296 142.374 85.8849C128.691 87.4748 113.474 85.7829 93.9344 79.0044C31.5144 57.3508 -3.25635 28.171 -12.8726 16.2228L-12.1109 15.6895Z" fill="#FFAD41"/>
<path fill-rule="evenodd" clip-rule="evenodd" d="M-12.1397 9.48535C-2.65795 21.2666 31.9451 50.3587 94.2374 71.968C113.669 78.709 128.73 80.368 142.228 78.7996C155.733 77.2304 167.714 72.4262 180.995 66.1729C184.393 64.5729 187.874 62.8789 191.485 61.1217C216.104 49.1415 246.758 34.2252 298.248 26.1252C416.273 7.55846 504.947 23.291 611.547 71.2511C664.707 95.1686 727.327 100.383 784.488 96.9459C841.645 93.5095 893.297 81.4265 924.488 70.791C987.011 49.4714 1102 28.6327 1213.22 70.3869C1257.52 87.0194 1306.57 84.7027 1349.91 75.0236C1393.25 65.345 1430.84 48.3157 1452.18 35.5839L1452.7 36.3322C1431.27 49.1132 1393.58 66.184 1350.13 75.8875C1306.68 85.5904 1257.42 87.9377 1212.86 71.211C1101.94 29.5698 987.219 50.3466 924.815 71.6253C893.543 82.2885 841.801 94.3903 784.549 97.8324C727.301 101.274 664.497 96.0604 611.133 72.0512C504.686 24.1601 416.212 8.46897 298.406 27.0012C247.07 35.0768 216.538 49.9332 191.928 61.9081C188.315 63.6663 184.829 65.3625 181.424 66.9659C168.122 73.2291 156.02 78.0922 142.345 79.6811C128.662 81.271 113.445 79.5791 93.9054 72.8006C31.4856 51.147 -3.28523 21.9669 -12.9014 10.0186L-12.1397 9.48535Z" fill="#FFAD41"/>
<path fill-rule="evenodd" clip-rule="evenodd" d="M-12.17 2.7168C-2.68815 14.498 31.9148 43.5901 94.2064 65.1993C113.639 71.9403 128.7 73.5992 142.198 72.0309C155.704 70.4617 167.685 65.6575 180.965 59.4043C184.364 57.8041 187.845 56.11 191.456 54.3528C216.076 42.3726 246.728 27.4566 298.218 19.3567C416.244 0.789911 504.917 16.5225 611.516 64.483C664.676 88.4001 727.297 93.6139 784.457 90.1772C841.614 86.7408 893.266 74.6577 924.457 64.0223C986.98 42.7029 1101.97 21.8642 1213.19 63.6188C1257.49 80.251 1306.54 77.9342 1349.88 68.2551C1393.22 58.5766 1430.81 41.5474 1452.15 28.8153L1452.67 29.5637C1431.24 42.3448 1393.55 59.4156 1350.1 69.119C1306.65 78.8219 1257.39 81.1692 1212.83 64.4428C1101.91 22.8012 987.188 43.5781 924.784 64.8566C893.512 75.5198 841.771 87.6215 784.519 91.0637C727.27 94.5056 664.466 89.2919 611.102 65.2831C504.656 17.3915 416.183 1.70041 298.376 20.2326C247.041 28.3082 216.51 43.1644 191.9 55.1391C188.286 56.8975 184.8 58.5937 181.394 60.1973C168.093 66.4605 155.991 71.3235 142.316 72.9124C128.632 74.5023 113.415 72.8104 93.8744 66.0319C31.4553 44.3784 -3.31542 15.1983 -12.9316 3.2501L-12.17 2.7168Z" fill="#FFAD41"/>
<path fill-rule="evenodd" clip-rule="evenodd" d="M-12.2017 -4.05273C-2.71982 7.72851 31.8832 36.8206 94.1744 58.4296C113.607 65.1706 128.668 66.8295 142.166 65.2612C155.672 63.692 167.653 58.8879 180.933 52.6347C184.332 51.0345 187.813 49.3404 191.424 47.5832C216.044 35.6031 246.697 20.687 298.186 12.5871C416.212 -5.97964 504.885 9.75295 611.485 57.7133C664.645 81.6307 727.265 86.8447 784.426 83.408C841.583 79.9715 893.235 67.8883 924.426 57.2526C986.948 35.9334 1101.94 15.0946 1213.16 56.8497C1257.46 73.4819 1306.51 71.1651 1349.85 61.4859C1393.19 51.8072 1430.78 34.7779 1452.12 22.0457L1452.63 22.7941C1431.21 35.5754 1393.52 52.6462 1350.07 62.3498C1306.62 72.0527 1257.36 74.4001 1212.8 57.6737C1101.88 16.0317 987.156 36.8086 924.753 58.0869C893.481 68.7504 841.739 80.8523 784.487 84.2944C727.239 87.7364 664.435 82.5225 611.071 58.5134C504.624 10.622 416.151 -5.06914 298.344 13.4631C247.009 21.5387 216.478 36.3948 191.868 48.3695C188.254 50.1279 184.768 51.8241 181.363 53.4277C168.061 59.6908 155.959 64.5538 142.284 66.1427C128.6 67.7326 113.383 66.0407 93.8424 59.2622C31.4236 37.6089 -3.3471 8.42877 -12.9634 -3.51943L-12.2017 -4.05273Z" fill="#FFAD41"/>
<path fill-rule="evenodd" clip-rule="evenodd" d="M-11.6832 162.539C-2.20137 174.32 32.4016 203.412 94.6942 225.021C114.126 231.762 129.187 233.421 142.684 231.853C156.19 230.284 168.171 225.479 181.451 219.226C184.849 217.626 188.331 215.932 191.941 214.175C216.561 202.194 247.214 187.278 298.705 179.178C416.73 160.612 505.403 176.344 612.003 224.305C665.163 248.222 727.784 253.436 784.944 249.999C842.101 246.563 893.754 234.48 924.944 223.844C987.467 202.524 1102.46 181.686 1213.68 223.441C1257.98 240.073 1307.03 237.756 1350.37 228.077C1393.71 218.398 1431.3 201.369 1452.64 188.637L1453.15 189.386C1431.73 202.167 1394.04 219.237 1350.59 228.941C1307.14 238.644 1257.88 240.991 1213.32 224.265C1102.4 182.623 987.674 203.399 925.271 224.678C893.999 235.342 842.258 247.444 785.006 250.886C727.757 254.328 664.953 249.114 611.589 225.105C505.143 177.213 416.669 161.522 298.863 180.054C247.527 188.13 216.995 202.986 192.385 214.961C188.772 216.719 185.286 218.416 181.881 220.019C168.579 226.282 156.477 231.145 142.802 232.734C129.119 234.324 113.902 232.633 94.3622 225.854C31.9421 204.2 -2.82864 175.02 -12.4448 163.072L-11.6832 162.539Z" fill="#FFAD41"/>
<path fill-rule="evenodd" clip-rule="evenodd" d="M-11.7164 155.207C-2.23456 166.988 32.3684 196.08 94.6597 217.689C114.092 224.43 129.153 226.089 142.651 224.521C156.157 222.952 168.138 218.148 181.419 211.894C184.817 210.294 188.298 208.6 191.909 206.843C216.529 194.863 247.182 179.947 298.672 171.847C416.698 153.28 505.37 169.012 611.971 216.973C665.13 240.89 727.75 246.104 784.911 242.667C842.068 239.231 893.721 227.148 924.912 216.512C987.434 195.193 1102.42 174.354 1213.64 216.109C1257.95 232.741 1306.99 230.424 1350.34 220.745C1393.68 211.066 1431.27 194.037 1452.61 181.305L1453.12 182.054C1431.7 194.835 1394.01 211.905 1350.56 221.609C1307.11 231.312 1257.84 233.659 1213.28 216.933C1102.36 175.291 987.641 196.068 925.239 217.346C893.966 228.01 842.224 240.112 784.972 243.554C727.724 246.996 664.92 241.782 611.557 217.773C505.109 169.881 416.636 154.191 298.831 172.723C247.495 180.798 216.963 195.655 192.353 207.629C188.739 209.388 185.253 211.084 181.848 212.687C168.546 218.951 156.444 223.814 142.769 225.403C129.086 226.992 113.868 225.301 94.3277 218.522C31.9089 196.868 -2.86184 167.688 -12.478 155.74L-11.7164 155.207Z" fill="#FFAD41"/>
<path fill-rule="evenodd" clip-rule="evenodd" d="M-12.6192 180.024C-3.13734 191.805 31.4656 220.898 93.7576 242.507C113.189 249.248 128.251 250.907 141.748 249.338C155.254 247.769 167.235 242.965 180.516 236.712C183.914 235.112 187.395 233.418 191.006 231.661C215.626 219.68 246.279 204.764 297.768 196.664C415.793 178.098 504.467 193.83 611.067 241.79C664.227 265.708 726.848 270.922 784.009 267.485C841.166 264.049 892.818 251.966 924.008 241.33C986.532 220.011 1101.52 199.172 1212.74 240.927C1257.04 257.559 1306.09 255.242 1349.43 245.563C1392.77 235.885 1430.36 218.855 1451.7 206.123L1452.22 206.872C1430.79 219.653 1393.11 236.724 1349.65 246.427C1306.2 256.13 1256.94 258.477 1212.38 241.751C1101.46 200.109 986.739 220.886 924.335 242.165C893.063 252.828 841.322 264.93 784.07 268.372C726.822 271.814 664.018 266.6 610.654 242.591C504.206 194.699 415.732 179.008 297.927 197.54C246.591 205.616 216.06 220.472 191.45 232.447C187.836 234.205 184.35 235.901 180.945 237.505C167.643 243.768 155.541 248.631 141.866 250.22C128.183 251.81 112.966 250.118 93.4256 243.339C31.0061 221.686 -3.76461 192.506 -13.3809 180.558L-12.6192 180.024Z" fill="#FFAD41"/>
<path fill-rule="evenodd" clip-rule="evenodd" d="M-11.6177 176.639C-2.1359 188.42 32.4671 217.512 94.7596 239.121C114.191 245.862 129.252 247.521 142.75 245.953C156.256 244.384 168.237 239.579 181.517 233.326C184.915 231.726 188.396 230.032 192.007 228.275C216.627 216.295 247.28 201.378 298.77 193.278C416.795 174.711 505.469 190.444 612.068 238.405C665.228 262.322 727.849 267.536 785.01 264.099C842.167 260.663 893.819 248.58 925.01 237.944C987.533 216.624 1102.52 195.786 1213.74 237.541C1258.04 254.173 1307.09 251.856 1350.43 242.177C1393.77 232.498 1431.36 215.469 1452.7 202.737L1453.22 203.485C1431.79 216.267 1394.1 233.337 1350.65 243.041C1307.2 252.744 1257.94 255.091 1213.38 238.365C1102.46 196.723 987.74 217.5 925.337 238.778C894.065 249.442 842.323 261.544 785.071 264.986C727.823 268.428 665.018 263.214 611.655 239.205C505.208 191.313 416.734 175.622 298.929 194.154C247.593 202.23 217.061 217.086 192.451 229.061C188.837 230.82 185.351 232.516 181.946 234.119C168.645 240.382 156.543 245.245 142.868 246.834C129.185 248.424 113.967 246.732 94.4276 239.954C32.0075 218.301 -2.76318 189.12 -12.3794 177.172L-11.6177 176.639Z" fill="#FFAD41"/>
<path fill-rule="evenodd" clip-rule="evenodd" d="M-11.6334 173.255C-2.15149 185.036 32.4515 214.129 94.7431 235.738C114.175 242.479 129.237 244.138 142.734 242.569C156.24 241 168.221 236.196 181.502 229.942C184.9 228.342 188.381 226.648 191.992 224.891C216.611 212.911 247.264 197.994 298.754 189.894C416.78 171.328 505.452 187.06 612.054 235.021C665.214 258.938 727.834 264.152 784.994 260.716C842.151 257.279 893.804 245.196 924.994 234.56C987.517 213.241 1102.51 192.403 1213.73 234.157C1258.03 250.789 1307.08 248.472 1350.42 238.793C1393.76 229.115 1431.35 212.085 1452.69 199.353L1453.21 200.101C1431.78 212.883 1394.09 229.954 1350.64 239.657C1307.19 249.36 1257.93 251.707 1213.37 234.981C1102.45 193.34 987.724 214.116 925.321 235.395C894.049 246.058 842.308 258.16 785.056 261.602C727.807 265.044 665.004 259.83 611.64 235.821C505.192 187.929 416.719 172.238 298.912 190.77C247.577 198.846 217.045 213.702 192.436 225.677C188.822 227.436 185.336 229.132 181.931 230.735C168.629 236.999 156.527 241.862 142.852 243.451C129.169 245.041 113.951 243.349 94.4111 236.57C31.9919 214.917 -2.77877 185.736 -12.395 173.788L-11.6334 173.255Z" fill="#FFAD41"/>
<path fill-rule="evenodd" clip-rule="evenodd" d="M-11.649 169.871C-2.16719 181.652 32.4358 210.744 94.7282 232.353C114.16 239.094 129.221 240.753 142.719 239.185C156.225 237.616 168.206 232.811 181.486 226.558C184.884 224.958 188.366 223.264 191.977 221.507C216.596 209.526 247.249 194.61 298.739 186.51C416.764 167.943 505.437 183.676 612.037 231.637C665.198 255.554 727.818 260.768 784.979 257.331C842.136 253.895 893.788 241.812 924.978 231.176C987.501 209.856 1102.49 189.018 1213.71 230.773C1258.01 247.405 1307.06 245.088 1350.4 235.409C1393.74 225.73 1431.33 208.701 1452.67 195.969L1453.19 196.717C1431.76 209.498 1394.07 226.569 1350.62 236.273C1307.17 245.976 1257.91 248.323 1213.35 231.597C1102.43 189.955 987.708 210.731 925.305 232.01C894.033 242.674 842.292 254.776 785.04 258.218C727.792 261.66 664.988 256.446 611.623 232.437C505.177 184.545 416.703 168.854 298.897 187.386C247.562 195.462 217.03 210.318 192.42 222.293C188.807 224.051 185.321 225.748 181.915 227.351C168.614 233.614 156.512 238.477 142.837 240.066C129.154 241.656 113.936 239.965 94.3962 233.186C31.9762 211.533 -2.79446 182.352 -12.4106 170.404L-11.649 169.871Z" fill="#FFAD41"/>
<path fill-rule="evenodd" clip-rule="evenodd" d="M-11.6646 166.487C-2.18279 178.268 32.4202 207.36 94.7127 228.97C114.144 235.711 129.205 237.37 142.703 235.801C156.209 234.232 168.19 229.428 181.47 223.174C184.868 221.574 188.349 219.88 191.96 218.123C216.579 206.143 247.233 191.226 298.723 183.126C416.748 164.56 505.422 180.292 612.021 228.253C665.182 252.171 727.802 257.384 784.963 253.948C842.12 250.511 893.772 238.428 924.963 227.792C987.486 206.472 1102.48 185.634 1213.7 227.389C1258 244.021 1307.05 241.704 1350.39 232.025C1393.73 222.347 1431.32 205.317 1452.66 192.586L1453.17 193.334C1431.75 206.115 1394.06 223.186 1350.61 232.889C1307.16 242.592 1257.9 244.939 1213.34 228.213C1102.42 186.572 987.693 207.348 925.29 228.626C894.018 239.29 842.276 251.392 785.024 254.834C727.776 258.276 664.972 253.062 611.608 229.053C505.161 181.161 416.687 165.47 298.882 184.002C247.545 192.078 217.013 206.934 192.403 218.909C188.79 220.668 185.304 222.364 181.899 223.967C168.598 230.231 156.496 235.094 142.821 236.683C129.138 238.273 113.92 236.581 94.3807 229.802C31.9606 208.149 -2.81006 178.968 -12.4263 167.021L-11.6646 166.487Z" fill="#FFAD41"/>
<path fill-rule="evenodd" clip-rule="evenodd" d="M-11.6954 159.719C-2.21357 171.499 32.3894 200.592 94.6812 222.201C114.113 228.942 129.175 230.601 142.673 229.033C156.178 227.463 168.16 222.659 181.44 216.406C184.838 214.806 188.32 213.112 191.931 211.355C216.55 199.374 247.203 184.458 298.693 176.358C416.718 157.792 505.391 173.524 611.991 221.485C665.151 245.402 727.771 250.616 784.932 247.179C842.089 243.743 893.741 231.659 924.931 221.024C987.455 199.704 1102.45 178.866 1213.66 220.621C1257.97 237.253 1307.01 234.936 1350.36 225.257C1393.7 215.579 1431.29 198.549 1452.63 185.818L1453.14 186.566C1431.72 199.347 1394.03 216.418 1350.58 226.121C1307.13 235.824 1257.86 238.171 1213.3 221.445C1102.39 179.803 987.662 200.58 925.258 221.858C893.986 232.521 842.245 244.623 784.993 248.066C727.745 251.508 664.941 246.294 611.577 222.285C505.131 174.393 416.657 158.702 298.851 177.234C247.516 185.31 216.984 200.166 192.374 212.141C188.761 213.899 185.275 215.595 181.869 217.199C168.568 223.462 156.466 228.325 142.79 229.914C129.107 231.504 113.89 229.812 94.3492 223.034C31.9299 201.38 -2.84084 172.199 -12.457 160.252L-11.6954 159.719Z" fill="#FFAD41"/>
<path fill-rule="evenodd" clip-rule="evenodd" d="M-11.732 151.822C-2.25015 163.603 32.3528 192.695 94.6442 214.305C114.076 221.046 129.138 222.705 142.636 221.136C156.141 219.567 168.123 214.763 181.403 208.51C184.801 206.909 188.283 205.215 191.894 203.458C216.513 191.478 247.166 176.562 298.656 168.462C416.682 149.896 505.354 165.627 611.955 213.588C665.115 237.506 727.735 242.72 784.896 239.283C842.053 235.846 893.705 223.763 924.896 213.127C987.418 191.808 1102.41 170.969 1213.63 212.724C1257.93 229.356 1306.98 227.04 1350.32 217.361C1393.66 207.682 1431.25 190.653 1452.59 177.921L1453.1 178.669C1431.68 191.45 1393.99 208.521 1350.54 218.224C1307.09 227.927 1257.83 230.275 1213.27 213.548C1102.35 171.906 987.625 192.683 925.224 213.961C893.951 224.625 842.209 236.727 784.957 240.169C727.708 243.611 664.905 238.398 611.541 214.388C505.094 166.496 416.621 150.806 298.814 169.338C247.479 177.414 216.947 192.27 192.337 204.245C188.724 206.003 185.238 207.699 181.832 209.303C168.531 215.566 156.429 220.429 142.753 222.018C129.07 223.608 113.853 221.916 94.3122 215.137C31.8933 193.484 -2.87742 164.303 -12.4937 152.356L-11.732 151.822Z" fill="#FFAD41"/>
<path fill-rule="evenodd" clip-rule="evenodd" d="M-11.7501 147.875C-2.26825 159.655 32.3347 188.748 94.6262 210.357C114.058 217.098 129.12 218.757 142.618 217.189C156.123 215.62 168.105 210.816 181.385 204.562C184.783 202.962 188.265 201.268 191.876 199.511C216.495 187.531 247.148 172.615 298.638 164.515C416.664 145.948 505.336 161.68 611.937 209.641C665.096 233.559 727.717 238.772 784.878 235.335C842.035 231.899 893.687 219.816 924.878 209.18C987.4 187.861 1102.39 167.022 1213.61 208.777C1257.91 225.409 1306.96 223.092 1350.3 213.413C1393.64 203.735 1431.22 186.706 1452.57 173.974L1453.08 174.722C1431.66 187.503 1393.97 204.574 1350.52 214.277C1307.07 223.98 1257.81 226.327 1213.25 209.601C1102.33 167.959 987.607 188.736 925.205 210.014C893.933 220.678 842.191 232.78 784.939 236.222C727.69 239.664 664.887 234.45 611.523 210.441C505.076 162.549 416.603 146.859 298.796 165.391C247.461 173.466 216.929 188.323 192.319 200.297C188.706 202.056 185.22 203.752 181.814 205.355C168.513 211.619 156.411 216.482 142.735 218.07C129.052 219.66 113.835 217.969 94.2942 211.19C31.8752 189.536 -2.89552 160.356 -12.5117 148.408L-11.7501 147.875Z" fill="#FFAD41"/>
<path fill-rule="evenodd" clip-rule="evenodd" d="M-11.7896 139.414C-2.30773 151.195 32.2953 180.287 94.5872 201.896C114.019 208.637 129.081 210.296 142.578 208.728C156.084 207.159 168.065 202.355 181.346 196.101C184.744 194.501 188.225 192.807 191.836 191.05C216.455 179.07 247.108 164.154 298.598 156.054C416.623 137.487 505.296 153.219 611.897 201.18C665.057 225.097 727.677 230.311 784.838 226.874C841.995 223.438 893.647 211.355 924.838 200.719C987.361 179.4 1102.34 158.561 1213.57 200.316C1257.87 216.948 1306.92 214.631 1350.26 204.952C1393.6 195.273 1431.19 178.244 1452.54 165.512L1453.05 166.261C1431.62 179.042 1393.93 196.112 1350.48 205.816C1307.03 215.519 1257.76 217.866 1213.21 201.14C1102.29 159.498 987.568 180.276 925.164 201.553C893.892 212.217 842.151 224.319 784.899 227.761C727.651 231.203 664.847 225.989 611.483 201.98C505.036 154.088 416.562 138.398 298.756 156.93C247.421 165.005 216.889 179.862 192.28 191.836C188.666 193.595 185.18 195.291 181.775 196.894C168.474 203.158 156.371 208.021 142.696 209.61C129.013 211.199 113.796 209.508 94.2552 202.729C31.8357 181.075 -2.935 151.895 -12.5513 139.947L-11.7896 139.414Z" fill="#FFAD41"/>
<path fill-rule="evenodd" clip-rule="evenodd" d="M-11.7686 143.926C-2.28684 155.706 32.3163 184.799 94.6077 206.408C114.04 213.149 129.101 214.808 142.599 213.24C156.104 211.671 168.086 206.867 181.366 200.613C184.764 199.013 188.245 197.319 191.857 195.562C216.476 183.582 247.129 168.666 298.619 160.566C416.645 141.999 505.317 157.731 611.919 205.692C665.078 229.609 727.698 234.823 784.859 231.386C842.016 227.95 893.668 215.866 924.859 205.231C987.381 183.912 1102.36 163.073 1213.59 204.828C1257.89 221.46 1306.94 219.143 1350.28 209.464C1393.62 199.786 1431.21 182.756 1452.56 170.025L1453.07 170.773C1431.64 183.554 1393.95 200.625 1350.5 210.328C1307.05 220.031 1257.78 222.378 1213.23 205.652C1102.31 164.01 987.588 184.787 925.186 206.065C893.914 216.728 842.172 228.83 784.92 232.273C727.672 235.715 664.868 230.501 611.505 206.492C505.056 158.6 416.583 142.91 298.778 161.442C247.442 169.517 216.91 184.374 192.3 196.348C188.686 198.107 185.2 199.803 181.795 201.406C168.494 207.669 156.392 212.532 142.716 214.121C129.033 215.711 113.816 214.019 94.2757 207.241C31.8567 185.587 -2.91411 156.407 -12.5303 144.459L-11.7686 143.926Z" fill="#FFAD41"/>
<path fill-rule="evenodd" clip-rule="evenodd" d="M-11.8145 133.774C-2.33272 145.555 32.2703 174.648 94.5612 196.257C113.993 202.998 129.055 204.657 142.553 203.089C156.059 201.52 168.04 196.716 181.32 190.462C184.718 188.862 188.2 187.168 191.811 185.411C216.431 173.431 247.084 158.514 298.574 150.414C416.599 131.848 505.271 147.58 611.872 195.54C665.032 219.458 727.652 224.672 784.813 221.235C841.97 217.799 893.622 205.716 924.813 195.08C987.336 173.761 1102.32 152.922 1213.55 194.676C1257.85 211.308 1306.9 208.992 1350.24 199.313C1393.58 189.634 1431.16 172.605 1452.51 159.873L1453.02 160.622C1431.59 173.403 1393.91 190.473 1350.46 200.177C1307.01 209.879 1257.74 212.227 1213.19 195.5C1102.27 153.859 987.543 174.636 925.14 195.914C893.868 206.578 842.126 218.679 784.874 222.122C727.625 225.564 664.822 220.35 611.458 196.341C505.011 148.449 416.538 132.758 298.732 151.29C247.396 159.366 216.865 174.222 192.255 186.197C188.641 187.956 185.155 189.652 181.749 191.255C168.448 197.518 156.346 202.382 142.67 203.97C128.987 205.56 113.77 203.869 94.2292 197.09C31.8107 175.436 -2.96 146.256 -12.5762 134.308L-11.8145 133.774Z" fill="#FFAD41"/>
</g>
<defs>
<clipPath id="clip0_24_8486">
<rect width="1440" height="180" fill="white"/>
</clipPath>
</defs>
</svg>
