<svg width="1438" height="256" viewBox="0 0 1438 256" fill="none" xmlns="http://www.w3.org/2000/svg">
<g clip-path="url(#clip0_7_5654)">
<mask id="mask0_7_5654" style="mask-type:alpha" maskUnits="userSpaceOnUse" x="-2" y="-144" width="1454" height="683">
<path d="M-1 7.57713C41.4886 -38.6925 148.432 -116.014 236.298 -55.144C346.13 20.9439 459.992 -16.5859 521.962 -55.144C583.931 -93.702 727.015 -142.542 832.313 -55.144C937.611 32.2543 1025.27 61.0443 1142.16 27.6273C1259.05 -5.78966 1267.61 -104.498 1344.69 -55.144C1406.36 -15.6605 1440.59 37.3954 1449.99 58.9879" stroke="#FFAD41"/>
<path d="M-1 20.9062C41.4886 -25.3634 148.432 -102.685 236.298 -41.8149C346.13 34.273 459.992 -3.25682 521.962 -41.8149C583.931 -80.3729 727.015 -129.213 832.313 -41.8149C937.611 45.5834 1025.27 74.3734 1142.16 40.9564C1259.05 7.53944 1267.61 -91.1692 1344.69 -41.8149C1406.36 -2.33142 1440.59 50.7245 1449.99 72.317" stroke="#FFAD41"/>
<path d="M0.00756836 -24.208C42.4961 -70.4777 149.44 -147.799 237.305 -86.9291C347.137 -10.8412 461 -48.3711 522.969 -86.9291C584.939 -125.487 728.023 -174.327 833.321 -86.9291C938.618 0.469113 1026.28 29.2591 1143.17 -4.15785C1260.05 -37.5748 1268.62 -136.283 1345.7 -86.9291C1407.37 -47.4457 1441.6 5.61019 1451 27.2027" stroke="#FFAD41"/>
<path d="M-1 -18.0557C41.4886 -64.3253 148.432 -141.647 236.298 -80.7768C346.13 -4.68889 459.992 -42.2187 521.962 -80.7768C583.931 -119.335 727.015 -168.175 832.313 -80.7768C937.611 6.62147 1025.27 35.4115 1142.16 1.99451C1259.05 -31.4225 1267.61 -130.131 1344.69 -80.7768C1406.36 -41.2933 1440.59 11.7625 1449.99 33.3551" stroke="#FFAD41"/>
<path d="M-1 -11.9034C41.4886 -58.173 148.432 -135.495 236.298 -74.6244C346.13 1.46344 459.992 -36.0664 521.962 -74.6244C583.931 -113.182 727.015 -162.023 832.313 -74.6244C937.611 12.7738 1025.27 41.5638 1142.16 8.14683C1259.05 -25.2701 1267.61 -123.979 1344.69 -74.6244C1406.36 -35.141 1440.59 17.9149 1449.99 39.5074" stroke="#FFAD41"/>
<path d="M-1 -5.75198C41.4886 -52.0216 148.432 -129.343 236.298 -68.4731C346.13 7.61481 459.992 -29.915 521.962 -68.4731C583.931 -107.031 727.015 -155.871 832.313 -68.4731C937.611 18.9252 1025.27 47.7152 1142.16 14.2982C1259.05 -19.1188 1267.61 -117.827 1344.69 -68.4731C1406.36 -28.9896 1440.59 24.0662 1449.99 45.6587" stroke="#FFAD41"/>
<path d="M-1 0.400372C41.4886 -45.8693 148.432 -123.191 236.298 -62.3207C346.13 13.7672 459.992 -23.7627 521.962 -62.3207C583.931 -100.879 727.015 -149.719 832.313 -62.3207C937.611 25.0775 1025.27 53.8675 1142.16 20.4506C1259.05 -12.9664 1267.61 -111.675 1344.69 -62.3207C1406.36 -22.8373 1440.59 30.2186 1449.99 51.8111" stroke="#FFAD41"/>
<path d="M-1 -31.3848C41.4886 -77.6545 148.432 -154.976 236.298 -94.1059C346.13 -18.018 459.992 -55.5478 521.962 -94.1059C583.931 -132.664 727.015 -181.504 832.313 -94.1059C937.611 -6.70763 1025.27 22.0824 1142.16 -11.3346C1259.05 -44.7516 1267.61 -143.46 1344.69 -94.1059C1406.36 -54.6224 1440.59 -1.56655 1449.99 20.026" stroke="#FFAD41"/>
<path d="M-1 12.7041C41.4886 -33.5656 148.432 -110.887 236.298 -50.017C346.13 26.0709 459.992 -11.459 521.962 -50.017C583.931 -88.5751 727.015 -137.415 832.313 -50.017C937.611 37.3812 1025.27 66.1713 1142.16 32.7543C1259.05 -0.66271 1267.61 -99.3713 1344.69 -50.017C1406.36 -10.5336 1440.59 42.5223 1449.99 64.1148" stroke="#FFAD41"/>
<path d="M-1 27.0586C41.4886 -19.2111 148.432 -96.5328 236.298 -35.6625C346.13 40.4254 459.992 2.89552 521.962 -35.6625C583.931 -74.2206 727.015 -123.061 832.313 -35.6625C937.611 51.7357 1025.27 80.5257 1142.16 47.1087C1259.05 13.6918 1267.61 -85.0168 1344.69 -35.6625C1406.36 3.82091 1440.59 56.8768 1449.99 78.4693" stroke="#FFAD41"/>
<path d="M-1 34.2353C41.4886 -12.0343 148.432 -89.3561 236.298 -28.4858C346.13 47.6021 459.992 10.0723 521.962 -28.4858C583.931 -67.0438 727.015 -115.884 832.313 -28.4858C937.611 58.9125 1025.27 87.7025 1142.16 54.2855C1259.05 20.8685 1267.61 -77.8401 1344.69 -28.4858C1406.36 10.9977 1440.59 64.0535 1449.99 85.6461" stroke="#FFAD41"/>
<path d="M-1 49.6152C41.4886 3.34554 148.432 -73.9762 236.298 -13.1059C346.13 62.982 459.992 25.4522 521.962 -13.1059C583.931 -51.6639 727.015 -100.504 832.313 -13.1059C937.611 74.2924 1025.27 103.082 1142.16 69.6654C1259.05 36.2484 1267.61 -62.4602 1344.69 -13.1059C1406.36 26.3776 1440.59 79.4334 1449.99 101.026" stroke="#FFAD41"/>
<path d="M-1 41.4131C41.4886 -4.85661 148.432 -82.1784 236.298 -21.308C346.13 54.7798 459.992 17.25 521.962 -21.308C583.931 -59.8661 727.015 -108.706 832.313 -21.308C937.611 66.0902 1025.27 94.8802 1142.16 61.4632C1259.05 28.0463 1267.61 -70.6623 1344.69 -21.308C1406.36 18.1754 1440.59 71.2313 1449.99 92.8238" stroke="#FFAD41"/>
<path d="M-1 110.109C41.4886 63.8397 148.432 -13.4821 236.298 47.3883C346.13 123.476 459.992 85.9463 521.962 47.3883C583.931 8.8302 727.015 -40.01 832.313 47.3883C937.611 134.787 1025.27 163.577 1142.16 130.16C1259.05 96.7426 1267.61 -1.96606 1344.69 47.3883C1406.36 86.8717 1440.59 139.928 1449.99 161.52" stroke="#FFAD41"/>
<path d="M-1 59.8691C41.4886 13.5994 148.432 -63.7223 236.298 -2.85199C346.13 73.2359 459.992 35.7061 521.962 -2.85199C583.931 -41.41 727.015 -90.2502 832.313 -2.85199C937.611 84.5463 1025.27 113.336 1142.16 79.9193C1259.05 46.5023 1267.61 -52.2063 1344.69 -2.85199C1406.36 36.6315 1440.59 89.6873 1449.99 111.28" stroke="#FFAD41"/>
<path d="M-1 68.0713C41.4886 21.8016 148.432 -55.5201 236.298 5.35016C346.13 81.438 459.992 43.9082 521.962 5.35016C583.931 -33.2079 727.015 -82.0481 832.313 5.35016C937.611 92.7484 1025.27 121.538 1142.16 88.1214C1259.05 54.7045 1267.61 -44.0041 1344.69 5.35016C1406.36 44.8336 1440.59 97.8895 1449.99 119.482" stroke="#FFAD41"/>
<path d="M-1 76.2734C41.4886 30.0038 148.432 -47.318 236.298 13.5523C346.13 89.6402 459.992 52.1104 521.962 13.5523C583.931 -25.0057 727.015 -73.8459 832.313 13.5523C937.611 100.951 1025.27 129.741 1142.16 96.3236C1259.05 62.9066 1267.61 -35.802 1344.69 13.5523C1406.36 53.0358 1440.59 106.092 1449.99 127.684" stroke="#FFAD41"/>
<path d="M-1 85.5019C41.4886 39.2323 148.432 -38.0895 236.298 22.7808C346.13 98.8687 459.992 61.3389 521.962 22.7808C583.931 -15.7772 727.015 -64.6174 832.313 22.7808C937.611 110.179 1025.27 138.969 1142.16 105.552C1259.05 72.1351 1267.61 -26.5735 1344.69 22.7808C1406.36 62.2643 1440.59 115.32 1449.99 136.913" stroke="#FFAD41"/>
<path d="M-1 93.7041C41.4886 47.4344 148.432 -29.8873 236.298 30.983C346.13 107.071 459.992 69.541 521.962 30.983C583.931 -7.57508 727.015 -56.4153 832.313 30.983C937.611 118.381 1025.27 147.171 1142.16 113.754C1259.05 80.3373 1267.61 -18.3713 1344.69 30.983C1406.36 70.4664 1440.59 123.522 1449.99 145.115" stroke="#FFAD41"/>
<path d="M-1 101.907C41.4886 55.6375 148.432 -21.6842 236.298 39.1861C346.13 115.274 459.992 77.7441 521.962 39.1861C583.931 0.628048 727.015 -48.2122 832.313 39.1861C937.611 126.584 1025.27 155.374 1142.16 121.957C1259.05 88.5404 1267.61 -10.1682 1344.69 39.1861C1406.36 78.6695 1440.59 131.725 1449.99 153.318" stroke="#FFAD41"/>
<path d="M-1 119.337C41.4886 73.0672 148.432 -4.25452 236.298 56.6158C346.13 132.704 459.992 95.1738 521.962 56.6158C583.931 18.0577 727.015 -30.7825 832.313 56.6158C937.611 144.014 1025.27 172.804 1142.16 139.387C1259.05 105.97 1267.61 7.26148 1344.69 56.6158C1406.36 96.0992 1440.59 149.155 1449.99 170.748" stroke="#FFAD41"/>
<path d="M-1 219.589C41.4886 173.319 148.432 95.9974 236.298 156.868C346.13 232.956 459.992 195.426 521.962 156.868C583.931 118.31 727.015 69.4695 832.313 156.868C937.611 244.266 1025.27 273.056 1142.16 239.639C1259.05 206.222 1267.61 107.513 1344.69 156.868C1406.36 196.351 1440.59 249.407 1449.99 271" stroke="#FFAD41"/>
<path d="M-1 134.487C41.4886 88.2176 148.432 10.8959 236.298 71.7662C346.13 147.854 459.992 110.324 521.962 71.7662C583.931 33.2081 727.015 -15.6321 832.313 71.7662C937.611 159.164 1025.27 187.954 1142.16 154.537C1259.05 121.12 1267.61 22.4119 1344.69 71.7662C1406.36 111.25 1440.59 164.306 1449.99 185.898" stroke="#FFAD41"/>
<path d="M-1 126.285C41.4886 80.0155 148.432 2.69372 236.298 63.564C346.13 139.652 459.992 102.122 521.962 63.564C583.931 25.006 727.015 -23.8342 832.313 63.564C937.611 150.962 1025.27 179.752 1142.16 146.335C1259.05 112.918 1267.61 14.2097 1344.69 63.564C1406.36 103.047 1440.59 156.103 1449.99 177.696" stroke="#FFAD41"/>
<path d="M-1 145.767C41.4886 99.4969 148.432 22.1752 236.298 83.0455C346.13 159.133 459.992 121.604 521.962 83.0455C583.931 44.4874 727.015 -4.35278 832.313 83.0455C937.611 170.444 1025.27 199.234 1142.16 165.817C1259.05 132.4 1267.61 33.6912 1344.69 83.0455C1406.36 122.529 1440.59 175.585 1449.99 197.177" stroke="#FFAD41"/>
<path d="M-1 156.02C41.4886 109.75 148.432 32.4281 236.298 93.2984C346.13 169.386 459.992 131.856 521.962 93.2984C583.931 54.7404 727.015 5.90015 832.313 93.2984C937.611 180.697 1025.27 209.487 1142.16 176.07C1259.05 142.653 1267.61 43.9441 1344.69 93.2984C1406.36 132.782 1440.59 185.838 1449.99 207.43" stroke="#FFAD41"/>
<path d="M-1 166.272C41.4886 120.003 148.432 42.681 236.298 103.551C346.13 179.639 459.992 142.109 521.962 103.551C583.931 64.9933 727.015 16.1531 832.313 103.551C937.611 190.95 1025.27 219.74 1142.16 186.323C1259.05 152.906 1267.61 54.197 1344.69 103.551C1406.36 143.035 1440.59 196.091 1449.99 217.683" stroke="#FFAD41"/>
<path d="M-1 176.525C41.4886 130.256 148.432 52.934 236.298 113.804C346.13 189.892 459.992 152.362 521.962 113.804C583.931 75.2462 727.015 26.406 832.313 113.804C937.611 201.203 1025.27 229.993 1142.16 196.576C1259.05 163.159 1267.61 64.45 1344.69 113.804C1406.36 153.288 1440.59 206.344 1449.99 227.936" stroke="#FFAD41"/>
<path d="M-1 187.805C41.4886 141.535 148.432 64.2132 236.298 125.084C346.13 201.171 459.992 163.642 521.962 125.084C583.931 86.5255 727.015 37.6853 832.313 125.084C937.611 212.482 1025.27 241.272 1142.16 207.855C1259.05 174.438 1267.61 75.7293 1344.69 125.084C1406.36 164.567 1440.59 217.623 1449.99 239.215" stroke="#FFAD41"/>
<path d="M-1 200.108C41.4886 153.839 148.432 76.517 236.298 137.387C346.13 213.475 459.992 175.945 521.962 137.387C583.931 98.8292 727.015 49.989 832.313 137.387C937.611 224.786 1025.27 253.576 1142.16 220.159C1259.05 186.742 1267.61 88.033 1344.69 137.387C1406.36 176.871 1440.59 229.927 1449.99 251.519" stroke="#FFAD41"/>
<path d="M-1 212.412C41.4886 166.142 148.432 88.8207 236.298 149.691C346.13 225.779 459.992 188.249 521.962 149.691C583.931 111.133 727.015 62.2927 832.313 149.691C937.611 237.089 1025.27 265.879 1142.16 232.462C1259.05 199.045 1267.61 100.337 1344.69 149.691C1406.36 189.174 1440.59 242.23 1449.99 263.823" stroke="#FFAD41"/>
</mask>
<g mask="url(#mask0_7_5654)">
<path d="M-4.02295 -1.50586H1453.02V271.229H-4.02295V-1.50586Z" fill="#FFAD41"/>
</g>
</g>
<defs>
<clipPath id="clip0_7_5654">
<rect width="1438" height="256" fill="white"/>
</clipPath>
</defs>
</svg>
