<svg width="1454" height="415" viewBox="0 0 1454 415" fill="none" xmlns="http://www.w3.org/2000/svg">
<mask id="mask0_1_870" style="mask-type:alpha" maskUnits="userSpaceOnUse" x="0" y="-1" width="1454" height="683">
<path d="M1 150.577C43.4886 104.307 150.432 26.9857 238.298 87.856C348.13 163.944 461.992 126.414 523.962 87.856C585.931 49.298 729.015 0.457767 834.313 87.856C939.611 175.254 1027.27 204.044 1144.16 170.627C1261.05 137.21 1269.61 38.5017 1346.69 87.856C1408.36 127.339 1442.59 180.395 1451.99 201.988" stroke="#FFAD41"/>
<path d="M1 163.906C43.4886 117.637 150.432 40.3148 238.298 101.185C348.13 177.273 461.992 139.743 523.962 101.185C585.931 62.6271 729.015 13.7869 834.313 101.185C939.611 188.583 1027.27 217.373 1144.16 183.956C1261.05 150.539 1269.61 51.8308 1346.69 101.185C1408.36 140.669 1442.59 193.724 1451.99 215.317" stroke="#FFAD41"/>
<path d="M2.00757 118.792C44.4961 72.5223 151.44 -4.79945 239.305 56.0709C349.137 132.159 463 94.6289 524.969 56.0709C586.939 17.5128 730.023 -31.3274 835.321 56.0709C940.618 143.469 1028.28 172.259 1145.17 138.842C1262.05 105.425 1270.62 6.71656 1347.7 56.0709C1409.37 95.5543 1443.6 148.61 1453 170.203" stroke="#FFAD41"/>
<path d="M1 124.944C43.4886 78.6747 150.432 1.3529 238.298 62.2232C348.13 138.311 461.992 100.781 523.962 62.2232C585.931 23.6652 729.015 -25.175 834.313 62.2232C939.611 149.621 1027.27 178.411 1144.16 144.995C1261.05 111.578 1269.61 12.8689 1346.69 62.2232C1408.36 101.707 1442.59 154.763 1451.99 176.355" stroke="#FFAD41"/>
<path d="M1 131.097C43.4886 84.827 150.432 7.50524 238.298 68.3756C348.13 144.463 461.992 106.934 523.962 68.3756C585.931 29.8175 729.015 -19.0227 834.313 68.3756C939.611 155.774 1027.27 184.564 1144.16 151.147C1261.05 117.73 1269.61 19.0212 1346.69 68.3756C1408.36 107.859 1442.59 160.915 1451.99 182.507" stroke="#FFAD41"/>
<path d="M1 137.248C43.4886 90.9784 150.432 13.6566 238.298 74.5269C348.13 150.615 461.992 113.085 523.962 74.5269C585.931 35.9689 729.015 -12.8713 834.313 74.5269C939.611 161.925 1027.27 190.715 1144.16 157.298C1261.05 123.881 1269.61 25.1726 1346.69 74.5269C1408.36 114.01 1442.59 167.066 1451.99 188.659" stroke="#FFAD41"/>
<path d="M1 143.4C43.4886 97.1307 150.432 19.809 238.298 80.6793C348.13 156.767 461.992 119.237 523.962 80.6793C585.931 42.1212 729.015 -6.71899 834.313 80.6793C939.611 168.078 1027.27 196.868 1144.16 163.451C1261.05 130.034 1269.61 31.325 1346.69 80.6793C1408.36 120.163 1442.59 173.219 1451.99 194.811" stroke="#FFAD41"/>
<path d="M1 111.615C43.4886 65.3455 150.432 -11.9762 238.298 48.8941C348.13 124.982 461.992 87.4522 523.962 48.8941C585.931 10.3361 729.015 -38.5041 834.313 48.8941C939.611 136.292 1027.27 165.082 1144.16 131.665C1261.05 98.2484 1269.61 -0.460199 1346.69 48.8941C1408.36 88.3776 1442.59 141.433 1451.99 163.026" stroke="#FFAD41"/>
<path d="M1 155.704C43.4886 109.434 150.432 32.1127 238.298 92.983C348.13 169.071 461.992 131.541 523.962 92.983C585.931 54.4249 729.015 5.58472 834.313 92.983C939.611 180.381 1027.27 209.171 1144.16 175.754C1261.05 142.337 1269.61 43.6287 1346.69 92.983C1408.36 132.466 1442.59 185.522 1451.99 207.115" stroke="#FFAD41"/>
<path d="M1 170.059C43.4886 123.789 150.432 46.4672 238.298 107.337C348.13 183.425 461.992 145.896 523.962 107.337C585.931 68.7794 729.015 19.9392 834.313 107.337C939.611 194.736 1027.27 223.526 1144.16 190.109C1261.05 156.692 1269.61 57.9832 1346.69 107.337C1408.36 146.821 1442.59 199.877 1451.99 221.469" stroke="#FFAD41"/>
<path d="M1 177.235C43.4886 130.966 150.432 53.6439 238.298 114.514C348.13 190.602 461.992 153.072 523.962 114.514C585.931 75.9562 729.015 27.116 834.313 114.514C939.611 201.913 1027.27 230.703 1144.16 197.286C1261.05 163.869 1269.61 65.1599 1346.69 114.514C1408.36 153.998 1442.59 207.054 1451.99 228.646" stroke="#FFAD41"/>
<path d="M1 192.615C43.4886 146.346 150.432 69.0238 238.298 129.894C348.13 205.982 461.992 168.452 523.962 129.894C585.931 91.3361 729.015 42.4958 834.313 129.894C939.611 217.292 1027.27 246.082 1144.16 212.665C1261.05 179.248 1269.61 80.5398 1346.69 129.894C1408.36 169.378 1442.59 222.433 1451.99 244.026" stroke="#FFAD41"/>
<path d="M1 184.413C43.4886 138.143 150.432 60.8216 238.298 121.692C348.13 197.78 461.992 160.25 523.962 121.692C585.931 83.1339 729.015 34.2937 834.313 121.692C939.611 209.09 1027.27 237.88 1144.16 204.463C1261.05 171.046 1269.61 72.3377 1346.69 121.692C1408.36 161.175 1442.59 214.231 1451.99 235.824" stroke="#FFAD41"/>
<path d="M1 253.109C43.4886 206.84 150.432 129.518 238.298 190.388C348.13 266.476 461.992 228.946 523.962 190.388C585.931 151.83 729.015 102.99 834.313 190.388C939.611 277.786 1027.27 306.577 1144.16 273.16C1261.05 239.743 1269.61 141.034 1346.69 190.388C1408.36 229.872 1442.59 282.928 1451.99 304.52" stroke="#FFAD41"/>
<path d="M1 202.869C43.4886 156.599 150.432 79.2777 238.298 140.148C348.13 216.236 461.992 178.706 523.962 140.148C585.931 101.59 729.015 52.7498 834.313 140.148C939.611 227.546 1027.27 256.336 1144.16 222.919C1261.05 189.502 1269.61 90.7937 1346.69 140.148C1408.36 179.631 1442.59 232.687 1451.99 254.28" stroke="#FFAD41"/>
<path d="M1 211.071C43.4886 164.802 150.432 87.4799 238.298 148.35C348.13 224.438 461.992 186.908 523.962 148.35C585.931 109.792 729.015 60.9519 834.313 148.35C939.611 235.748 1027.27 264.538 1144.16 231.121C1261.05 197.704 1269.61 98.9959 1346.69 148.35C1408.36 187.834 1442.59 240.889 1451.99 262.482" stroke="#FFAD41"/>
<path d="M1 219.273C43.4886 173.004 150.432 95.682 238.298 156.552C348.13 232.64 461.992 195.11 523.962 156.552C585.931 117.994 729.015 69.1541 834.313 156.552C939.611 243.951 1027.27 272.741 1144.16 239.324C1261.05 205.907 1269.61 107.198 1346.69 156.552C1408.36 196.036 1442.59 249.092 1451.99 270.684" stroke="#FFAD41"/>
<path d="M1 228.502C43.4886 182.232 150.432 104.911 238.298 165.781C348.13 241.869 461.992 204.339 523.962 165.781C585.931 127.223 729.015 78.3826 834.313 165.781C939.611 253.179 1027.27 281.969 1144.16 248.552C1261.05 215.135 1269.61 116.427 1346.69 165.781C1408.36 205.264 1442.59 258.32 1451.99 279.913" stroke="#FFAD41"/>
<path d="M1 236.704C43.4886 190.434 150.432 113.113 238.298 173.983C348.13 250.071 461.992 212.541 523.962 173.983C585.931 135.425 729.015 86.5847 834.313 173.983C939.611 261.381 1027.27 290.171 1144.16 256.754C1261.05 223.337 1269.61 124.629 1346.69 173.983C1408.36 213.466 1442.59 266.522 1451.99 288.115" stroke="#FFAD41"/>
<path d="M1 244.907C43.4886 198.638 150.432 121.316 238.298 182.186C348.13 258.274 461.992 220.744 523.962 182.186C585.931 143.628 729.015 94.7878 834.313 182.186C939.611 269.584 1027.27 298.374 1144.16 264.957C1261.05 231.54 1269.61 132.832 1346.69 182.186C1408.36 221.67 1442.59 274.725 1451.99 296.318" stroke="#FFAD41"/>
<path d="M1 262.337C43.4886 216.067 150.432 138.745 238.298 199.616C348.13 275.704 461.992 238.174 523.962 199.616C585.931 161.058 729.015 112.218 834.313 199.616C939.611 287.014 1027.27 315.804 1144.16 282.387C1261.05 248.97 1269.61 150.261 1346.69 199.616C1408.36 239.099 1442.59 292.155 1451.99 313.748" stroke="#FFAD41"/>
<path d="M1 362.589C43.4886 316.319 150.432 238.997 238.298 299.868C348.13 375.956 461.992 338.426 523.962 299.868C585.931 261.31 729.015 212.469 834.313 299.868C939.611 387.266 1027.27 416.056 1144.16 382.639C1261.05 349.222 1269.61 250.513 1346.69 299.868C1408.36 339.351 1442.59 392.407 1451.99 414" stroke="#FFAD41"/>
<path d="M1 277.487C43.4886 231.218 150.432 153.896 238.298 214.766C348.13 290.854 461.992 253.324 523.962 214.766C585.931 176.208 729.015 127.368 834.313 214.766C939.611 302.164 1027.27 330.954 1144.16 297.537C1261.05 264.12 1269.61 165.412 1346.69 214.766C1408.36 254.25 1442.59 307.305 1451.99 328.898" stroke="#FFAD41"/>
<path d="M1 269.285C43.4886 223.015 150.432 145.694 238.298 206.564C348.13 282.652 461.992 245.122 523.962 206.564C585.931 168.006 729.015 119.166 834.313 206.564C939.611 293.962 1027.27 322.752 1144.16 289.335C1261.05 255.918 1269.61 157.21 1346.69 206.564C1408.36 246.047 1442.59 299.103 1451.99 320.696" stroke="#FFAD41"/>
<path d="M1 288.767C43.4886 242.497 150.432 165.175 238.298 226.045C348.13 302.133 461.992 264.604 523.962 226.045C585.931 187.487 729.015 138.647 834.313 226.045C939.611 313.444 1027.27 342.234 1144.16 308.817C1261.05 275.4 1269.61 176.691 1346.69 226.045C1408.36 265.529 1442.59 318.585 1451.99 340.177" stroke="#FFAD41"/>
<path d="M1 299.02C43.4886 252.75 150.432 175.428 238.298 236.298C348.13 312.386 461.992 274.856 523.962 236.298C585.931 197.74 729.015 148.9 834.313 236.298C939.611 323.697 1027.27 352.487 1144.16 319.07C1261.05 285.653 1269.61 186.944 1346.69 236.298C1408.36 275.782 1442.59 328.838 1451.99 350.43" stroke="#FFAD41"/>
<path d="M1 309.272C43.4886 263.003 150.432 185.681 238.298 246.551C348.13 322.639 461.992 285.109 523.962 246.551C585.931 207.993 729.015 159.153 834.313 246.551C939.611 333.95 1027.27 362.74 1144.16 329.323C1261.05 295.906 1269.61 197.197 1346.69 246.551C1408.36 286.035 1442.59 339.091 1451.99 360.683" stroke="#FFAD41"/>
<path d="M1 319.525C43.4886 273.256 150.432 195.934 238.298 256.804C348.13 332.892 461.992 295.362 523.962 256.804C585.931 218.246 729.015 169.406 834.313 256.804C939.611 344.202 1027.27 372.993 1144.16 339.576C1261.05 306.159 1269.61 207.45 1346.69 256.804C1408.36 296.288 1442.59 349.344 1451.99 370.936" stroke="#FFAD41"/>
<path d="M1 330.805C43.4886 284.535 150.432 207.213 238.298 268.084C348.13 344.171 461.992 306.642 523.962 268.084C585.931 229.526 729.015 180.685 834.313 268.084C939.611 355.482 1027.27 384.272 1144.16 350.855C1261.05 317.438 1269.61 218.729 1346.69 268.084C1408.36 307.567 1442.59 360.623 1451.99 382.215" stroke="#FFAD41"/>
<path d="M1 343.108C43.4886 296.839 150.432 219.517 238.298 280.387C348.13 356.475 461.992 318.945 523.962 280.387C585.931 241.829 729.015 192.989 834.313 280.387C939.611 367.786 1027.27 396.576 1144.16 363.159C1261.05 329.742 1269.61 231.033 1346.69 280.387C1408.36 319.871 1442.59 372.927 1451.99 394.519" stroke="#FFAD41"/>
<path d="M1 355.412C43.4886 309.142 150.432 231.821 238.298 292.691C348.13 368.779 461.992 331.249 523.962 292.691C585.931 254.133 729.015 205.293 834.313 292.691C939.611 380.089 1027.27 408.879 1144.16 375.462C1261.05 342.045 1269.61 243.337 1346.69 292.691C1408.36 332.174 1442.59 385.23 1451.99 406.823" stroke="#FFAD41"/>
</mask>
<g mask="url(#mask0_1_870)">
<path d="M-2.02295 141.494H1455.02V414.229H-2.02295V141.494Z" fill="#FFAD41"/>
</g>
</svg>
