<?xml version="1.0" encoding="UTF-8"?><svg id="Layer_2" xmlns="http://www.w3.org/2000/svg" width="1457.04" height="158.77" xmlns:xlink="http://www.w3.org/1999/xlink" viewBox="0 0 1457.04 158.77"><defs><style>.cls-1{fill:none;stroke:#ffad41;}.cls-2{mask:url(#mask);}.cls-3{fill:#ffad41;}</style><mask id="mask" x="0" y="-82.87" width="1457.04" height="241.8" maskUnits="userSpaceOnUse"><g id="mask0_18_6296"><path class="cls-1" d="M3.02,5.29C45.51-21.65,152.45-66.66,240.32-31.22c109.83,44.29,223.69,22.45,285.66,0,61.97-22.45,205.05-50.88,310.35,0,105.3,50.88,192.96,67.64,309.85,48.18,116.89-19.45,125.45-76.91,202.53-48.18,61.67,22.98,95.9,53.87,105.3,66.44"/><path class="cls-1" d="M3.02,13.05C45.51-13.89,152.45-58.9,240.32-23.46c109.83,44.29,223.69,22.45,285.66,0,61.97-22.45,205.05-50.88,310.35,0,105.3,50.88,192.96,67.64,309.85,48.18,116.89-19.45,125.45-76.91,202.53-48.18,61.67,22.98,95.9,53.87,105.3,66.44"/><path class="cls-1" d="M4.03-13.22c42.49-26.93,149.43-71.95,237.3-36.51,109.83,44.29,223.69,22.45,285.66,0,61.97-22.45,205.05-50.88,310.35,0C942.64,1.15,1030.3,17.91,1147.19-1.54c116.88-19.45,125.45-76.91,202.53-48.18,61.67,22.98,95.9,53.87,105.3,66.44"/><path class="cls-1" d="M3.02-9.63c42.49-26.93,149.43-71.95,237.3-36.51,109.83,44.29,223.69,22.45,285.66,0,61.97-22.45,205.05-50.88,310.35,0C941.63,4.73,1029.29,21.49,1146.18,2.04c116.89-19.45,125.45-76.91,202.53-48.18,61.67,22.98,95.9,53.87,105.3,66.44"/><path class="cls-1" d="M3.02-6.05c42.49-26.93,149.43-71.95,237.3-36.51,109.83,44.29,223.69,22.45,285.66,0,61.97-22.45,205.05-50.88,310.35,0,105.3,50.88,192.96,67.64,309.85,48.18,116.89-19.45,125.45-76.91,202.53-48.18,61.67,22.98,95.9,53.87,105.3,66.44"/><path class="cls-1" d="M3.02-2.47c42.49-26.93,149.43-71.95,237.3-36.51,109.83,44.29,223.69,22.45,285.66,0,61.97-22.45,205.05-50.88,310.35,0,105.3,50.88,192.96,67.64,309.85,48.18,116.89-19.45,125.45-76.91,202.53-48.18,61.67,22.98,95.9,53.87,105.3,66.44"/><path class="cls-1" d="M3.02,1.11c42.49-26.93,149.43-71.95,237.3-36.51,109.83,44.29,223.69,22.45,285.66,0,61.97-22.45,205.05-50.88,310.35,0,105.3,50.88,192.96,67.64,309.85,48.18,116.89-19.45,125.45-76.91,202.53-48.18,61.67,22.98,95.9,53.87,105.3,66.44"/><path class="cls-1" d="M3.02-17.39c42.49-26.93,149.43-71.95,237.3-36.51,109.83,44.29,223.69,22.45,285.66,0,61.97-22.45,205.05-50.88,310.35,0C941.63-3.03,1029.29,13.73,1146.18-5.72c116.89-19.45,125.45-76.91,202.53-48.18,61.67,22.98,95.9,53.87,105.3,66.44"/><path class="cls-1" d="M3.02,8.27C45.51-18.66,152.45-63.67,240.32-28.24c109.83,44.29,223.69,22.45,285.66,0,61.97-22.45,205.05-50.88,310.35,0,105.3,50.88,192.96,67.64,309.85,48.18,116.89-19.45,125.45-76.91,202.53-48.18,61.67,22.98,95.9,53.87,105.3,66.44"/><path class="cls-1" d="M3.02,16.63C45.51-10.31,152.45-55.32,240.32-19.88c109.83,44.29,223.69,22.45,285.66,0,61.97-22.45,205.05-50.88,310.35,0,105.3,50.88,192.96,67.64,309.85,48.18,116.89-19.45,125.45-76.91,202.53-48.18,61.67,22.98,95.9,53.87,105.3,66.44"/><path class="cls-1" d="M3.02,20.81C45.51-6.13,152.45-51.14,240.32-15.71c109.83,44.29,223.69,22.45,285.66,0,61.97-22.45,205.05-50.88,310.35,0,105.3,50.88,192.96,67.64,309.85,48.18,116.89-19.45,125.45-76.91,202.53-48.18,61.67,22.98,95.9,53.87,105.3,66.44"/><path class="cls-1" d="M3.02,29.76C45.51,2.82,152.45-42.19,240.32-6.75c109.83,44.29,223.69,22.45,285.66,0,61.97-22.45,205.05-50.88,310.35,0,105.3,50.88,192.96,67.64,309.85,48.18,116.89-19.45,125.45-76.91,202.53-48.18,61.67,22.98,95.9,53.87,105.3,66.44"/><path class="cls-1" d="M3.02,24.98C45.51-1.95,152.45-46.96,240.32-11.53c109.83,44.29,223.69,22.45,285.66,0,61.97-22.45,205.05-50.88,310.35,0,105.3,50.88,192.96,67.64,309.85,48.18,116.89-19.45,125.45-76.91,202.53-48.18,61.67,22.98,95.9,53.87,105.3,66.44"/><path class="cls-1" d="M3.02,64.97C45.51,38.04,152.45-6.97,240.32,28.46c109.83,44.29,223.69,22.44,285.66,0,61.97-22.45,205.05-50.88,310.35,0,105.3,50.88,192.96,67.64,309.85,48.18S1271.63-.27,1348.71,28.46c61.67,22.98,95.9,53.87,105.3,66.44"/><path class="cls-1" d="M3.02,35.73C45.51,8.79,152.45-36.22,240.32-.78c109.83,44.29,223.69,22.45,285.66,0,61.97-22.45,205.05-50.88,310.35,0,105.3,50.88,192.96,67.64,309.85,48.18,116.89-19.45,125.45-76.91,202.53-48.18,61.67,22.98,95.9,53.87,105.3,66.44"/><path class="cls-1" d="M3.02,40.5C45.51,13.57,152.45-31.44,240.32,3.99c109.83,44.29,223.69,22.45,285.66,0,61.97-22.45,205.05-50.88,310.35,0,105.3,50.88,192.96,67.64,309.85,48.18s125.45-76.91,202.53-48.18c61.67,22.98,95.9,53.87,105.3,66.44"/><path class="cls-1" d="M3.02,45.28C45.51,18.34,152.45-26.67,240.32,8.77c109.83,44.29,223.69,22.45,285.66,0,61.97-22.45,205.05-50.88,310.35,0,105.3,50.88,192.96,67.64,309.85,48.18s125.45-76.91,202.53-48.18c61.67,22.98,95.9,53.87,105.3,66.44"/><path class="cls-1" d="M3.02,50.65C45.51,23.71,152.45-21.3,240.32,14.14c109.83,44.29,223.69,22.45,285.66,0,61.97-22.45,205.05-50.88,310.35,0,105.3,50.88,192.96,67.64,309.85,48.18,116.89-19.45,125.45-76.91,202.53-48.18,61.67,22.98,95.9,53.87,105.3,66.44"/><path class="cls-1" d="M3.02,55.42C45.51,28.49,152.45-16.52,240.32,18.91c109.83,44.29,223.69,22.45,285.66,0,61.97-22.45,205.05-50.88,310.35,0,105.3,50.88,192.96,67.64,309.85,48.18s125.45-76.91,202.53-48.18c61.67,22.98,95.9,53.87,105.3,66.44"/><path class="cls-1" d="M3.02,60.2C45.51,33.26,152.45-11.75,240.32,23.69c109.83,44.29,223.69,22.45,285.66,0,61.97-22.45,205.05-50.88,310.35,0,105.3,50.88,192.96,67.64,309.85,48.18,116.89-19.45,125.45-76.91,202.53-48.18,61.67,22.98,95.9,53.87,105.3,66.44"/><path class="cls-1" d="M3.02,70.35C45.51,43.41,152.45-1.6,240.32,33.83c109.83,44.29,223.69,22.44,285.66,0,61.97-22.45,205.05-50.88,310.35,0,105.3,50.88,192.96,67.64,309.85,48.18,116.89-19.45,125.45-76.91,202.53-48.18,61.67,22.98,95.9,53.87,105.3,66.44"/><path class="cls-1" d="M3.02,128.71c42.49-26.93,149.43-71.95,237.3-36.51,109.83,44.29,223.69,22.45,285.66,0,61.97-22.45,205.05-50.88,310.35,0,105.3,50.88,192.96,67.64,309.85,48.18,116.89-19.45,125.45-76.91,202.53-48.18,61.67,22.98,95.9,53.87,105.3,66.44"/><path class="cls-1" d="M3.02,79.17C45.51,52.23,152.45,7.22,240.32,42.65c109.83,44.29,223.69,22.45,285.66,0,61.97-22.45,205.05-50.88,310.35,0,105.3,50.88,192.96,67.64,309.85,48.18,116.89-19.45,125.45-76.91,202.53-48.18,61.67,22.98,95.9,53.87,105.3,66.44"/><path class="cls-1" d="M3.02,74.39C45.51,47.46,152.45,2.44,240.32,37.88c109.83,44.29,223.69,22.44,285.66,0,61.97-22.45,205.05-50.88,310.35,0,105.3,50.88,192.96,67.64,309.85,48.18s125.45-76.91,202.53-48.18c61.67,22.98,95.9,53.87,105.3,66.44"/><path class="cls-1" d="M3.02,85.73C45.51,58.8,152.45,13.79,240.32,49.22c109.83,44.29,223.69,22.44,285.66,0,61.97-22.45,205.05-50.88,310.35,0,105.3,50.88,192.96,67.64,309.85,48.18s125.45-76.91,202.53-48.18c61.67,22.98,95.9,53.87,105.3,66.44"/><path class="cls-1" d="M3.02,91.7c42.49-26.93,149.43-71.95,237.3-36.51,109.83,44.29,223.69,22.45,285.66,0,61.97-22.44,205.05-50.88,310.35,0,105.3,50.88,192.96,67.64,309.85,48.18,116.89-19.45,125.45-76.91,202.53-48.18,61.67,22.99,95.9,53.87,105.3,66.44"/><path class="cls-1" d="M3.02,97.67c42.49-26.93,149.43-71.95,237.3-36.51,109.83,44.29,223.69,22.45,285.66,0,61.97-22.45,205.05-50.88,310.35,0,105.3,50.88,192.96,67.64,309.85,48.18s125.45-76.91,202.53-48.18c61.67,22.98,95.9,53.87,105.3,66.44"/><path class="cls-1" d="M3.02,103.64c42.49-26.93,149.43-71.94,237.3-36.51,109.83,44.29,223.69,22.45,285.66,0,61.97-22.45,205.05-50.88,310.35,0,105.3,50.88,192.96,67.64,309.85,48.18,116.89-19.45,125.45-76.91,202.53-48.18,61.67,22.98,95.9,53.87,105.3,66.44"/><path class="cls-1" d="M3.02,110.2c42.49-26.94,149.43-71.95,237.3-36.51,109.83,44.29,223.69,22.45,285.66,0,61.97-22.44,205.05-50.88,310.35,0,105.3,50.88,192.96,67.64,309.85,48.18,116.89-19.45,125.45-76.91,202.53-48.18,61.67,22.99,95.9,53.87,105.3,66.44"/><path class="cls-1" d="M3.02,117.36c42.49-26.93,149.43-71.95,237.3-36.51,109.83,44.29,223.69,22.45,285.66,0,61.97-22.45,205.05-50.88,310.35,0,105.3,50.88,192.96,67.64,309.85,48.18,116.89-19.45,125.45-76.91,202.53-48.18,61.67,22.99,95.9,53.87,105.3,66.44"/><path class="cls-1" d="M3.02,124.53c42.49-26.93,149.43-71.95,237.3-36.51,109.83,44.29,223.69,22.45,285.66,0,61.97-22.45,205.05-50.88,310.35,0,105.3,50.88,192.96,67.64,309.85,48.18,116.89-19.45,125.45-76.91,202.53-48.18,61.67,22.99,95.9,53.87,105.3,66.44"/></g></mask></defs><g id="Layer_1-2"><g class="cls-2"><path class="cls-3" d="M0,0h1457.04v158.77H0V0Z"/></g></g></svg>