<svg width="279" height="265" viewBox="0 0 279 265" fill="none" xmlns="http://www.w3.org/2000/svg">
<g clip-path="url(#clip0_16_5451)">
<path d="M139.5 265C135.067 265 130.802 263.163 127.708 259.824L23.25 146.86C8.27968 130.58 0 109.123 0 86.3296C0 63.5366 8.27968 41.9959 23.25 25.7152C38.3876 9.35098 59.4631 0 81.0405 0C102.618 0 123.61 9.35098 138.747 25.7152L139.5 26.5501L140.253 25.7152C147.78 17.5331 156.645 11.1878 166.513 6.76276C186.502 -2.17076 209.417 -2.17076 229.406 6.76276C239.274 11.1878 248.139 17.6166 255.666 25.7152C263.11 33.8138 268.964 43.1648 272.978 53.6846C276.993 64.0375 279 75.0583 279 86.3296C279 97.6008 276.993 108.538 272.978 118.974C268.964 129.411 263.193 138.845 255.666 146.944L151.209 259.907C148.198 263.163 143.933 265.084 139.416 265.084L139.5 265ZM81.0405 31.977C68.161 31.977 56.0342 37.4874 46.8345 47.4228C37.4676 57.6087 32.0315 71.7187 32.0315 86.3296C32.0315 100.94 37.384 115.05 46.8345 125.236L139.584 225.509L232.249 125.236C236.933 120.143 240.612 114.216 243.121 107.536C245.714 100.773 247.052 93.6768 247.052 86.3296C247.052 78.9824 245.714 71.8856 243.121 65.1229C240.529 58.4436 236.933 52.5158 232.249 47.4228C227.649 42.4134 222.297 38.5728 216.359 35.9011C204.65 30.6412 191.353 30.6412 179.728 35.9011C173.79 38.5728 168.437 42.4134 163.837 47.4228L151.292 60.9483C145.271 67.4606 133.813 67.4606 127.791 60.9483L115.246 47.4228C106.047 37.4874 93.8363 31.977 81.0405 31.977Z" fill="#65558F"/>
</g>
<defs>
<clipPath id="clip0_16_5451">
<rect width="279" height="265" fill="white"/>
</clipPath>
</defs>
</svg>
