<svg width="468" height="626" viewBox="0 0 468 626" fill="none" xmlns="http://www.w3.org/2000/svg">
<g clip-path="url(#clip0_13_7387)">
<path d="M77.7691 582.895C75.4164 578.478 72.8369 578.681 72.4428 578.215C70.8544 576.329 71.5829 571.841 71.7979 569.764C74.0311 572.378 75.3209 575.47 76.8376 578.514C77.6138 580.077 77.4586 582.334 77.7691 582.895Z" fill="#A1A2BD"/>
<path d="M233.009 77.9502C233.14 78.0696 233.033 80.2541 233.713 81.3762C236.759 86.3898 239.529 88.0133 236.591 94.6623C231.958 93.3134 235.529 87.7268 235.135 86.5211C235.087 86.3659 232.364 85.8526 233.009 83.9307L227.647 88.6698L224.709 82.0805C224.458 78.177 227.038 83.3936 230.011 82.7251C232.352 82.2118 229.557 74.6197 233.009 77.9502Z" fill="#A1A2BD"/>
<path d="M223.98 99.9742C223.24 100.595 223.956 101.741 221.723 101.884C220.911 101.932 212.683 100.893 212.707 100.046C217.328 100.285 217.591 93.6116 221.64 93.5161C222.977 93.4803 226.811 95.4141 227.038 96.4885C227.42 98.2313 225.019 99.1147 223.968 99.9861L223.98 99.9742Z" fill="#A1A2BD"/>
<path d="M248.522 137.648C249.501 138.484 255.58 152.928 253.311 155.554L250.922 150.779L248.558 154.348C248.152 151.316 250.003 148.511 249.728 145.515C249.621 144.392 243.781 133.577 248.522 137.648Z" fill="#A1A2BD"/>
<path d="M186.457 56.4751C186.732 56.7258 184.546 58.7073 185.86 58.8625C187.448 59.1371 192.142 55.8185 191.198 59.4116C189.801 64.7237 188.344 61.1545 185.908 61.1545C184.881 61.1545 185.693 63.9836 184.666 63.6135C181.597 62.5153 184.045 54.1951 186.457 56.4631V56.4751Z" fill="#A1A2BD"/>
<path d="M205.541 197.322C203.821 197.489 203.607 194.517 203.141 193.18C201.672 188.942 199.904 183.893 199.594 179.428C201.087 179.392 202.508 182.89 202.806 183.952C203.929 187.856 204.335 193.192 205.541 197.322Z" fill="#A1A2BD"/>
<path d="M172.114 248.665C170.108 249.966 170.944 253.141 170.753 253.284C170.215 253.69 159.634 257.415 158.046 257.88C153.986 259.05 148.062 261.091 144.647 257.606C149.077 258.262 152.612 257.092 156.589 255.027C158.655 253.953 163.862 249.918 166.979 248.915C168.639 248.378 170.43 248.712 172.114 248.677V248.665Z" fill="#A1A2BD"/>
<path d="M236.592 266.546C231.194 268.42 225.509 267.656 219.884 267.74C221.066 264.505 229.605 265.902 230.62 263.55C231.755 260.936 225.903 261.652 227.061 258.202C228.435 259.491 238.251 264.254 236.592 266.546Z" fill="#A1A2BD"/>
<path d="M141.064 237.921C138.807 241.299 136.43 238.924 138.664 243.878C137.326 242.278 131.892 242.493 131.522 240.882C129.934 234.053 137.744 239.712 141.064 237.921Z" fill="#A1A2BD"/>
<path d="M262.578 491.993C262.339 492.506 259.963 490.942 261.097 495.753C259.891 493.986 256.655 493.079 255.592 491.647C254.899 490.716 254.422 484.257 254.66 483.947C254.851 483.696 260.226 481.249 260.476 481.44C260.906 481.763 262.805 491.503 262.578 491.993Z" fill="#A1A2BD"/>
<path d="M239.004 481.429C239.099 481.572 239.792 481.369 240.174 481.429C239.732 475.973 246.36 483.124 238.98 483.243C238.311 486.693 242.849 484.294 243.769 485.022C246.301 487.051 242.61 487.075 242.145 487.409C240.425 488.675 242.539 489.498 242.575 490.978L235.421 483.219C235.421 479.292 238.849 485.583 237.81 479.065C239.935 478.588 238.574 480.796 239.004 481.452V481.429Z" fill="#A1A2BD"/>
<path d="M36.3408 432.14C36.6633 432.665 38.0486 432.438 38.1919 432.629C39.4697 434.396 33.4746 437.774 32.3879 440.257C32.2804 440.496 36.8782 441.868 34.7644 444.423C32.6506 446.978 32.6626 440.197 29.9994 442.047L31.1817 448.004C29.4381 444.865 19.6573 443.611 19.2632 442.62C18.2122 439.97 21.9383 440.973 23.4191 440.77C25.0552 440.543 29.462 440.627 29.7606 440.508C30.083 440.364 34.4659 435.601 34.5614 435.267C35.1705 433.309 34.6808 430.958 34.7883 428.917C36.8663 428.57 35.4929 430.755 36.3408 432.14Z" fill="#A1A2BD"/>
<path d="M70.3768 419.653L78.9514 428.893C73.231 431.113 76.6227 429.299 74.7238 426.625C73.2788 424.607 68.5496 422.745 67.0209 419.94L70.3648 419.653H70.3768Z" fill="#A1A2BD"/>
<path d="M167.505 396.566C168.782 397.485 177.608 391.815 175.685 399.073L173.309 397.844L172.711 401.449C170.633 400.685 172.27 397.951 172.102 397.879C171.171 397.474 164.364 401.377 165.534 393.104C166.764 393.677 166.943 396.16 167.505 396.566Z" fill="#A1A2BD"/>
<path d="M250.934 273.733C251.34 274.019 250.11 283.295 248.558 283.259C246.396 281.373 247.328 276.538 247.089 276.252C246.623 275.679 244.474 276.944 244.963 274.927C246.444 274.855 249.895 273.005 250.922 273.733H250.934Z" fill="#A1A2BD"/>
<g clip-path="url(#clip1_13_7387)">
<path d="M107.625 261.784C98.9669 256.853 102.191 236.298 104.568 228.288C106.443 221.973 115.722 212.28 117.848 204.497C119.162 199.698 116.498 198.994 115.997 195.436C114.958 188.095 122.016 183.428 124.595 177.889C128.727 169.031 130.292 157.655 135.427 148.129C138.89 141.707 154.965 122.775 160.769 118.549C165.462 115.123 171.469 113.404 176.808 111.267C175.315 106.015 175.912 97.9571 174.228 93.1583C173.428 90.8903 170.968 90.1501 170.323 88.7057C166.298 79.5738 164.961 50.5902 166.274 39.2976C167.66 27.3245 184.045 2.45929 196.68 0.453841C217.209 -2.80502 237.642 12.4746 247.901 29.0793C253.92 38.8201 254.756 55.4367 266.471 59.4595C275.619 62.599 281.829 62.7781 291.18 68.1857C294.13 69.8927 295.707 72.686 298.286 74.214C301.797 76.291 307.852 76.6611 310.575 78.6427C312.426 79.9916 312.617 82.7729 315.734 84.2293C326.458 89.219 339.308 87.8104 351.167 96.5604C383.125 120.148 386.385 218.069 395.76 256.113C398.149 265.806 404.502 290.791 407.965 298.825C410.593 304.925 429.617 324.764 435.337 333.538C479.919 401.915 482.952 519.21 418.749 576.974C394.912 598.425 349.412 606.578 319.914 594.534C292.434 583.313 270.974 568.308 252.164 545.269C246.551 538.393 242.634 530.968 238.407 523.221C230.477 531.505 226.321 542.655 218.941 551.476C223.538 561.002 224.458 568.976 217.496 577.535C215.262 580.281 211.62 580.316 211.572 584.769C211.524 589.222 215.668 591.37 216.098 594.474C216.373 596.444 215.012 598.246 215.143 600.144C215.382 603.642 221.066 612.284 213.901 615.71C207.5 618.766 187.138 617.322 180.462 614.529C178.169 613.562 175.637 610.279 174.121 610.506C171.362 610.924 166.788 617.167 164.196 618.563C159.121 621.285 139.929 620.999 133.242 621.178C109.405 621.798 86.1049 623.637 61.6468 624.699C52.3317 625.105 44.2347 628.555 35.3496 622.312C31.5758 619.65 16.4925 605.611 13.8412 602.03C6.98629 592.803 12.862 582.895 21.2336 577.141C22.8578 576.031 30.5248 570.767 31.1817 570.421C33.9045 568.976 39.4458 570.731 40.7356 567.4C38.3829 567.078 35.2779 569.131 33.188 568.678C31.9221 568.403 31.9937 565.514 30.5248 565.144C29.7486 564.953 24.3864 566.374 21.1739 566.063C18.666 565.825 12.026 563.963 10.9273 561.659C9.82859 559.355 8.16859 536.316 8.3955 532.198C9.04039 520.415 13.8771 510.054 13.2441 497.568C12.5156 483.398 5.35018 475.711 2.10184 463.356C-6.5206 430.588 13.7218 390.718 18.9168 358.75C21.8427 340.724 20.9351 316.575 25.509 299.684C27.802 291.209 33.9523 288.75 39.5533 283.283H19.8483C18.5824 283.283 11.1064 280.131 9.745 279.057C3.14083 273.816 7.34457 266.535 14.1637 264.481C29.6053 259.826 49.7163 267.227 65.3609 267.645C69.7796 267.764 75.4045 266.379 80.8025 266.535C87.4305 266.726 106.753 272.229 107.625 261.807C108.007 262.022 109.452 261.402 110.384 261.819C111.829 262.464 110.073 265.329 114.791 263.013C114.743 268.182 107.554 279.116 109.058 282.698C109.452 283.629 110.993 283.641 111.602 284.464C113.131 286.529 112.02 289.251 118.373 289.287L117.167 291.651C119.95 292.761 122.231 290.182 122.028 287.604C121.932 286.398 117.478 286.482 117.263 282.781C117.119 280.418 119.556 273.494 121.371 271.369C123.27 274.019 119.448 277.923 119.532 280.215C119.556 280.883 121.431 280.871 121.896 281.814C122.541 283.115 122.41 285.204 123.043 286.124C124.237 287.843 131.773 287.616 133.899 290.469L135.105 286.899C133.015 286.876 130.113 287.377 129.289 284.93C128.668 283.092 128.739 269.734 129.062 267.12C129.516 263.383 131.355 262.118 135.093 261.819C136.287 265.042 130.328 265.269 130.328 267.191V284.5C133.684 286.541 135.821 284.011 138.102 283.927C142.593 283.76 149.877 286.541 147.047 279.725L151.812 280.907C152.541 275.523 142.569 278.973 142.27 278.52C142.115 278.281 142.21 272.909 142.413 272.706C142.987 272.121 153.735 269.805 154.201 270.187L150.63 274.938C157.556 274.616 168.09 275.762 174.527 273.184C175.016 272.981 176.497 271.381 175.1 271.369L155.407 272.563C156.935 269.662 162.56 270.975 165.068 269.602C166.024 269.077 165.068 265.484 166.752 265.436C168.89 265.365 167.194 268.898 167.349 268.982C168.842 269.77 197.205 267.74 200.931 267.096C202.818 266.773 209.817 263.67 210.342 264.219C210.569 264.469 209.948 266.594 210.569 267.49C211.56 268.898 215.262 267.931 215.119 270.175C210.306 271.823 206.031 270.414 201.72 270.498C201.445 270.498 194.638 271.095 196.62 272.575L258.709 270.164L279.62 267.788H257.527C256.846 267.788 252.391 270.951 252.164 267.8C261.969 265.21 272.443 266.535 282.653 265.448C284.433 265.257 286.344 265.174 286.786 263.025C283.155 262.225 278.629 263.813 275.404 263.622C269.385 263.264 255.269 261.593 249.239 260.554C247.698 260.291 239.135 256.77 241.416 254.657C245.071 254.979 247.997 257.988 251.711 258.202C254.41 258.358 256.822 256.794 258.601 256.973C259.497 257.056 258.852 259.671 261.085 259.563C264.047 259.432 269.565 256.281 274.27 257.247C275.058 257.415 274.389 259.551 276.563 259.539C279.142 259.539 282.104 257.379 283.776 257.534C284.875 257.641 286.284 259.42 288.613 259.563C290.643 259.683 290.249 257.629 291.013 257.403C296.268 255.827 297.044 258.572 300.448 252.15C301.128 250.873 299.994 249.214 300.997 247.996C301.869 246.934 304.03 246.695 304.52 246.026C305.046 245.31 303.553 240.547 303.959 238.769C304.711 235.462 307.052 235.378 308.282 233.17C306.491 232.299 301.069 235.128 299.874 236.357C298.131 238.148 297.331 244.224 292.769 242.123L306.216 223.226L305.893 214.059L303.529 214.643L304.687 221.245L302.323 220.039L300.519 226.008C299.504 223.011 296.877 222.928 293.963 222.427L293.939 229.589C289.926 229.41 289.09 221.209 288.565 221.221C287.001 221.245 285.137 222.952 285.603 223.596C285.794 223.859 289.425 223.047 287.968 228.383C284.194 227.751 282.677 226.652 279.632 229.577C278.474 226.02 281.244 218.989 276.396 217.759C273.123 216.923 271.356 221.209 270.663 221.197C270.198 221.197 268.705 218.499 266.889 217.974C263.569 217.007 251.914 219.001 256.929 224.778L252.152 223.561L253.347 221.221C248.713 223.644 250.218 220.385 249.012 220.015C243.387 218.32 245.56 223.692 241.739 225.709C238.598 227.369 230.776 227.094 227.073 227.178L229.45 234.328L225.282 230.771C222.476 232.514 223.085 236.918 219.92 234.316C220.326 239.342 219.55 236.978 217.531 237.587C216.6 237.873 215.812 239.461 215.191 239.031C214.988 238.888 215.274 237.324 214.88 237.109C214.152 236.703 213.065 238.972 212.145 235.534C204.12 238.983 212.814 240.392 209.16 243.293C206.891 245.095 201.385 244.415 199.606 241.502C199.176 242.039 200.561 245.847 200.979 246.098C202.496 247.017 205.78 245.06 205.553 247.459L197.205 249.858L196.023 243.902C196.154 245.68 190.327 251.159 189.431 251.028C188.332 250.873 188.022 247.96 187.484 247.566C186.553 246.874 183.758 249.858 182.886 248.08C188.463 244.14 193.611 238.255 199.033 234.376C205.661 229.637 211.859 225.96 218.391 221.173C222.655 218.046 233.2 215.503 238.669 211.958C243.351 208.914 237.356 209.355 234.788 208.15C232.674 207.159 230.68 205.249 228.602 204.771C222.858 203.47 216.731 209.212 211.56 211.11C208.157 212.363 200.239 213.569 196.429 214.954C194.076 215.801 189.897 219.717 189.479 219.729C188.881 219.741 185.681 216.912 183.221 216.685C176.975 216.088 169.893 217.676 165.558 222.427C163.755 216.553 158.619 223.489 154.236 221.233L155.419 225.996C151.239 227.046 155.168 223.155 152.314 222.522C149.101 221.806 147.859 223.346 145.865 223.62C144.957 220.982 145.889 219.979 141.148 221.221L140.503 217.652L138.687 221.221C136.645 221.782 138.078 218.857 136.992 218.905C131.928 219.144 125.037 223.286 123.174 228.371C130.638 230.114 131.594 229.792 135.714 223.608L136.908 227.201C137.947 223.775 142.473 224.086 145.865 223.608C146.832 226.402 147.382 229.076 148.265 223.608C155.192 228.431 149.101 229.386 143.99 230.675C142.879 230.95 141.291 229.899 139.846 230.281C136.86 231.069 133.672 237.766 132.143 231.964C131.844 233.624 126.005 234.328 125.718 234.089C125.192 233.671 126.16 232.036 124.966 231.952C123.771 231.869 124.942 234.471 123.712 234.423C121.156 234.34 118.493 232.191 114.826 234.352C114.576 234.077 117.418 224.444 113.632 228.383C113.119 228.92 112.701 236.369 112.414 236.739C112.187 237.026 107.183 234.459 105.261 235.557C107.983 239.473 105.308 243.042 105.44 246.814C105.607 251.386 107.995 257.582 107.649 261.807L107.625 261.784ZM196.417 33.3886C195.605 32.8873 196.381 30.9893 195.414 31.4071C193.706 32.1591 194.112 34.9285 193.312 35.8716C192.046 37.3876 184.391 40.8852 182.242 43.3204C177.333 48.8593 189.264 46.7464 190.506 46.9493C190.924 47.021 195.247 50.4589 196.513 50.6141C199.295 50.9722 215.155 50.7215 216.206 49.1935C216.349 43.6308 212.922 37.8532 210.927 32.6008C210.354 34.5585 212.647 41.5298 209.53 42.1983C207.368 42.6519 200.107 41.2553 197.205 42.1386C196.823 39.9661 199.355 41.494 200.466 40.7062C204.263 38.0442 199.773 37.125 199.104 36.2058C198.698 35.6567 199.618 34.1646 199.343 33.9497C198.949 33.6393 197.432 34.0094 196.417 33.3886ZM296.316 120.924C294.751 121.593 288.362 123.539 287.263 124.446C286.69 124.923 285.161 129.913 284.349 130.438C279.417 133.697 284.946 122.775 284.361 122.106C279.692 127.514 277.303 118.788 273.267 119.838C271.069 120.411 268.979 124.947 266.471 125.687C266.878 121.402 270.998 118.119 271.965 114.108C272.598 111.494 273.41 98.542 272.574 96.3456C271.941 94.6982 272.98 94.2566 270.042 94.6624L268.824 105.394C266.674 105.239 266.268 100.428 266.376 98.9837C266.471 97.7422 271.177 99.115 267.045 95.88C263.725 98.7688 265.755 103.914 265.241 107.781L264.047 105.394C256.643 109.691 273.398 116.305 264.071 122.106C263.772 121.796 263.14 111.458 260.476 114.944C259.903 115.696 261.014 124.816 256.906 125.687C253.92 120.507 257.921 119.289 258.745 116.173C258.996 115.242 260.464 107.996 260.536 107.256C261.157 100.619 259.76 92.0959 256.189 86.4138C254.266 83.3579 248.331 79.4186 247.543 75.8493C246.551 71.4087 250.779 71.0506 244.247 66.1563C242.778 65.0581 240.294 65.3804 239.302 64.497C238.526 63.8047 236.759 58.0629 236.591 56.4633C230.143 62.217 241.631 66.9681 243.638 70.3224C244.665 72.0294 246.36 77.055 245.572 79.1321L239.004 68.9735C236.986 67.0397 238.335 71.3848 237.213 70.776C235.756 69.9882 235.803 66.7771 232.233 66.1444C229.557 65.6669 228.399 72.7218 225.891 73.1515C221.401 69.1406 228.745 60.1519 221.09 58.8388L219.908 62.42C217.806 58.5404 219 46.2212 213.925 52.2853L216.313 55.2576C212.468 56.141 197.85 58.3374 194.9 56.3678C192.966 55.0786 197.91 49.7785 188.846 51.6884L192.416 55.2457C187.114 55.8068 183.328 55.1502 179.304 51.6765C179.769 59.2805 181.74 66.5622 184.105 73.7484C183.089 78.9769 182.707 70.1314 180.498 70.776L179.304 77.9384C183.687 75.0734 182.468 78.8337 183.663 79.144C185.956 79.7409 188.511 79.1202 190.04 77.3415C190.135 77.2221 185.167 75.6225 189.467 74.3691C193.455 73.2112 192.536 77.3534 194.124 77.6161C194.399 77.6638 199.343 76.876 199.534 76.673C200.8 75.3957 196.692 70.3821 204.371 71.9698C205.923 79.335 197.814 77.6638 192.476 80.9585C188.989 83.1191 195.39 81.9015 192.428 85.0768C193.217 85.6856 202.317 82.0686 203.583 81.2927C205.601 80.0393 204.896 77.8906 206.759 77.9384C205.971 82.6416 210.39 77.3176 213.973 79.6812C217.818 82.2119 211.966 83.9547 210.354 84.48L217.507 89.2668C212.48 89.4339 213.734 92.9435 212.444 94.3282C211.572 95.2593 207.356 95.0563 206.162 97.014C206.317 92.0362 202.114 93.4568 201.015 91.9527C200.382 91.0813 201.015 88.8848 200.8 88.6699C197.922 85.9244 196.823 91.8691 195.426 93.4329C196.859 87.333 193.67 90.174 188.87 91.0693C188.392 93.1583 190.697 91.8214 191.127 92.3347C191.437 92.6928 189.025 95.689 190.601 98.2078C192.966 101.98 197.588 99.9506 194.841 110.157C199.188 106.97 199.2 112.592 200.227 112.568C201.779 112.532 205.314 108.772 206.759 110.145C206.915 110.288 207.739 114.156 207.703 114.371C207.285 116.842 202.102 115.374 200.155 117.272C198.209 119.17 196.943 126.32 197.217 129.245C200.024 127.824 198.483 122.619 200.776 120.28C201.218 119.826 211.668 115.314 212.289 115.254C213.232 115.159 229.342 118.262 230.919 118.823C232.65 119.432 239.386 124.613 236.006 124.494C234.024 124.422 229.856 120.769 226.691 120.041C224.41 119.516 206.485 120.351 205.732 121.068C204.98 121.784 204.311 125.484 204.395 126.857L207.368 124.494L212.731 132.826C207.774 130.546 198.185 127.096 198.388 135.213L196.023 132.838V141.182L200.8 132.838L204.299 137.171L204.359 149.538L201.994 147.162C202.138 156.151 205.458 163.158 210.354 170.428C209.781 172.004 207.858 169.043 207.464 168.542C201.493 160.974 201.624 155.483 199.236 146.912C198.889 145.682 198.937 143.295 197.217 143.581C198.913 149.108 196.752 155.411 197.456 160.568C197.623 161.809 202.997 177.113 203.499 177.877C204.12 178.844 206.735 178.808 206.759 180.563C201.815 182.652 203.296 179.799 200.645 177.662C199.785 176.97 197.791 177.232 197.384 176.826C196.704 176.11 196.477 161.451 194.948 157.166C194.339 155.471 195.283 155.148 192.428 155.518C190.792 167.933 191.067 179.059 193.599 191.318L190.004 189.539L193.623 204.461C199.701 201.823 205.78 203.804 211.811 202.933C213.041 202.754 220.708 201.166 221.042 200.832C222.046 199.805 219.43 192.166 222.273 191.342C222.726 197 219.86 201.023 227.061 199.698C227.766 199.03 225.676 193.431 228.244 193.729C227.957 196.451 228.602 196.2 230.632 194.899C230.704 195.83 230.262 197.74 230.787 198.278C231.42 198.922 245.536 202.026 248.295 202.933C251.794 204.079 254.577 206.252 258.1 206.848L260.5 198.504L256.929 199.686C255.425 192.715 261.217 200.152 261.683 193.718H255.735C257.276 193.383 262.005 189.969 261.706 188.358C261.408 186.746 259.103 190.232 257.491 187.761C257.359 187.558 257.347 183.165 257.491 182.962C259.628 179.882 262.542 184.729 265.277 184.168C264.023 180.455 265.886 176.385 265.265 172.923C264.895 170.894 263.008 169.533 262.781 166.883C262.53 163.851 264.107 161.236 264.011 158.598C263.725 150.087 251.388 140.955 250.97 131.644C257.347 133.685 254.254 136.502 256.44 141.086C257.061 142.376 264.059 152.797 264.716 153.131C269.469 155.495 262.029 146.231 262.925 145.981L266.483 148.368C266.961 147.723 263.522 134.175 260.536 134.043C260.381 136.443 263.844 142.185 260.536 143.581C259.879 136.276 255.508 132.109 262.315 126.881C260.763 135.022 271.033 135.941 268.896 144.775C270.819 145.145 270.412 141.432 271.857 141.218C273.517 140.979 276.181 145.419 277.244 146.577L272.479 145.981C275.369 152.689 273.314 156.915 271.69 163.504C271.177 165.558 274.353 165.772 268.908 167.456L271.272 154.325L265.301 155.53L268.287 178.187C269.791 172.899 276.623 167.396 276.873 161.905C277.005 159.111 274.879 157.07 274.879 154.337L277.853 159.1C279.584 158.336 280.504 152.952 281.531 150.839C282.391 149.048 285.102 148.368 284.433 145.992C281.232 147.306 276.073 140.752 277.363 138.95C277.482 138.77 279.811 138.114 280.874 137.099C283.274 134.795 285.341 131.357 287.18 129.638C289.568 127.406 296.184 126.213 296.375 120.912C298.441 120.029 311.542 116.531 308.306 112.556C306.789 110.694 299.791 117.773 298.8 118.095C296.507 118.811 294.19 117.152 293.999 117.331C291.718 119.552 296.423 119.468 296.375 120.912L296.316 120.924ZM292.685 80.4213C292.446 80.1706 290.309 80.3497 289.281 79.6812C284.624 76.6253 280.157 71.0028 274.819 75.5867C274.318 76.0165 283.119 83.8831 282.737 86.2109L289.747 92.275C290.846 88.8251 290.727 90.3173 293.915 91.0813C294.226 88.8848 292.494 87.3091 292.148 85.2917C291.909 83.8592 293.223 80.9943 292.685 80.4094V80.4213ZM259.676 82.4268C258.948 80.9585 259.557 75.6345 257.503 75.5867C253.514 75.5151 258.625 87.4523 259.891 87.4762C261.073 87.5001 261.933 84.6352 261.718 83.3579C261.611 82.761 259.879 82.8207 259.676 82.4148V82.4268ZM290.332 95.88C285.329 95.689 283.907 92.9554 280.802 89.8995C282.737 96.7753 285.758 104.296 284.385 111.386C288.804 109.297 287.753 107.769 285.567 104.236C288.242 103.066 291.909 106.277 293.318 106.206C294.727 106.134 305.499 99.6761 301.069 96.4888C295.026 92.1437 290.523 100.631 284.373 100.631L290.332 95.88ZM181.656 108.987C182.23 108.45 177.333 95.6055 175.697 94.6744C176.927 95.9636 176.7 113.631 181.656 108.987ZM316.606 144.799C317.967 143.45 307.756 131.942 304.735 136.526C301.714 141.11 306.753 139.272 308.246 139.618C311.805 140.442 313.429 143.593 316.606 144.799ZM345.268 136.455C342.616 136.288 343.058 136.001 342.843 138.269C341.995 147.21 344.85 153.585 346.88 161.797C347.489 164.292 346.904 168.482 347.668 170.392C348.767 173.126 352.97 166.835 353.4 165.414C354.726 161.117 352.146 158.359 351.681 154.731C351.096 150.159 353.496 146.768 347.668 142.996C354.105 140.645 343.309 141.552 345.268 136.443V136.455ZM298.704 137.648C294.25 135.691 292.47 139.809 291.957 139.928C291.551 140.036 282.021 140.191 285.567 143.593C286.093 144.094 297.295 139.272 298.692 137.648H298.704ZM322.565 144.811C319.4 142.173 320.344 150.779 320.941 151.997C322.135 154.432 326.351 155.65 324.989 160.329L327.354 159.123C327.091 162.49 327.808 165.653 329.205 168.685C330.029 170.488 329.038 171.634 332.143 171.049C330.566 161.439 325.539 153.752 322.565 144.811ZM376.64 173.138C375.745 171.586 377.393 168.96 376.975 166.883C376.079 162.526 374.753 153.871 373.679 150.433C373.153 148.762 370.801 146.733 369.164 146.004C370 150.66 367.409 158.777 373.918 157.954C373.452 160.926 368.137 157.202 369.129 160.914L373.941 240.297C374.24 240.667 379.841 236.417 379.913 236.059C380.677 232.49 377.93 233.325 377.751 232.955C376.581 230.448 380.749 229.29 380.82 227.774C380.892 226.545 377.321 223.537 377.691 220.266C378.014 217.329 379.841 216.279 379.936 214.643C379.96 214.178 375.327 214.536 378.79 206.586C379.172 205.714 381.047 205.679 381.131 204.903C382.098 196.57 380.426 179.667 376.628 173.138H376.64ZM173.297 156.748C172.377 155.96 156.744 156.891 154.201 158.527C159.061 167.133 159.885 159.326 166.131 157.942C166.525 158.407 163.85 162.287 167.325 162.717L169.702 160.329L173.297 166.298C173.858 163.695 170.741 162.072 170.86 159.744C170.884 159.374 175.613 158.741 173.297 156.76V156.748ZM187.639 185.385V156.736L185.55 164.555L187.639 185.385ZM314.229 166.274C313.572 163.982 312.617 164.089 310.611 164.364C306.084 164.997 298.441 168.112 295.432 168.434C293.724 168.614 290.786 167.181 290.368 167.468C290.07 167.67 289.353 172.135 289.138 172.254C288.875 172.422 287.18 171.037 286.296 171.061C285.484 171.096 285.675 172.994 284.66 173.353C282.94 173.949 280.91 173.735 278.951 174.57C277.1 175.37 271.774 176.719 272.431 179.393C281.674 177.805 291.276 171.168 300.555 171.001C304.221 170.941 315.435 173.484 319.018 175.024C319.842 175.382 321.228 174.379 321.371 174.63C318.767 182.317 321.49 177.65 323.138 179.297C324.524 180.694 325.563 184.514 326.243 186.507L328.5 185.385L330.925 190.124C331.486 184.096 326.924 179.655 323.688 175.215C322.995 174.272 323.879 172.947 323.019 172.171C317.848 167.575 309.799 168.184 303.469 168.625L314.205 166.238L314.229 166.274ZM335.714 182.998C337.756 180.551 333.516 170.356 330.961 172.266C329.301 173.508 331.104 183.392 332.167 185.385L333.361 178.235L335.726 182.998H335.714ZM356.04 172.266C351.131 171.061 351.549 175.394 351.239 179.417L347.68 177.029C348.038 185.481 349.483 191.784 359.61 187.761L356.04 183.583C355.251 181.255 358.177 182.079 358.225 181.267C358.249 180.813 357.461 179.823 357.509 178.891C357.747 175.131 360.446 174.212 354.81 174.642L356.028 172.266H356.04ZM157.771 181.792C158.142 181.374 156.243 179.441 155.992 179.441C155.574 179.441 150.94 184.096 148.827 183.822C146.331 183.511 145.268 177.459 138.687 184.192L138.09 181.816C136.956 183.965 133.146 185.17 132.083 186.579C128.572 191.199 151.955 190.124 153.484 190.303C157.091 190.697 163.97 192.715 166.788 194.923C167.206 195.245 172.425 200.51 172.616 200.88C173.201 201.99 171.672 204.079 173.261 205.165C174.67 206.132 178.492 204.759 180.474 205.691C177.261 202.265 176.175 199.865 176.879 194.959C169.415 201.071 173.882 193.897 172.019 192.667C169.869 191.246 160.65 194.493 161.354 184.215L150.618 187.797C150.128 182.174 156.123 185.827 156.577 185.409C153.687 180.491 157.306 182.329 157.771 181.816V181.792ZM358.416 191.378C357.401 190.303 348.528 188.62 352.959 195.699C355.502 199.758 353.436 201.131 354.129 206.084C354.666 209.857 356.541 220.063 361.999 218.798C362.512 216.828 360.16 218.141 359.837 217.079C359.252 215.193 357.843 204.091 357.509 201.178C357.294 199.328 358.548 197.621 358.464 196.809C358.38 195.998 354.332 196.415 356.087 193.777C356.183 193.634 360.721 193.801 358.428 191.378H358.416ZM333.325 220.003C332.585 214.99 336.49 207.553 330.961 204.497C331.128 206.908 328.417 210.203 328.512 212.149C328.548 212.793 330.459 212.722 330.853 213.76C331.51 215.515 330.853 219.681 333.325 220.003ZM261.671 211.659C259.258 209.737 254.72 215.181 253.275 215.789C250.17 217.114 245.333 214.739 246.157 218.81C251.09 217.174 254.828 217.687 259.437 214.751C260.142 214.297 263.761 213.318 261.671 211.659ZM382.48 252.102C381.453 251.171 382.504 240.237 376.246 245.859C375.577 248.736 378.336 250.586 378.659 252.902C378.862 254.335 377.727 256.09 377.93 257.438C379.017 264.971 381.477 272.933 381.382 280.692L387.066 283.271L385.884 278.496C389.92 281.384 386.648 274.664 393.025 274.342C392.679 272.014 388.702 262.058 388.726 261.175C388.75 260.291 390.529 259.301 390.434 257.832C390.326 256.197 387.663 253.487 388.248 251.052L384.081 257.009L385.884 252.246C384.916 252.138 383.042 252.616 382.48 252.102ZM308.246 265.377H299.301L284.373 267.74L295.73 267.693L308.246 265.377ZM284.373 273.721C282.283 268.194 276.013 272.467 271.236 271.357C271.941 273.088 270.639 277.397 269.959 278.794C269.182 280.406 267.248 278.997 267.666 280.883C273.303 282.745 272.192 274.043 273.756 272.623C274.282 272.145 282.821 273.434 284.373 273.721ZM258.697 272.527C252.821 273.124 246.157 272.085 240.186 272.527C240.21 274.676 243.96 272.742 242.563 276.693C242.204 277.696 237.953 278.722 237.822 278.508C237.26 277.529 238.693 273.47 235.863 272.611C234.131 272.073 224.41 275.129 221.078 273.721C219.717 275.082 222.249 286.338 222.141 288.714C222.046 290.755 220.481 291.997 220.111 293.716C219.8 295.136 221.15 297.177 220.959 297.476C219.347 300.066 210.784 302.048 207.965 298.801L209.16 309.544C214.247 307.634 206.962 305.772 210.342 302.931C212.062 301.487 216.086 305.02 216.301 304.77L217.496 301.2C215.549 304.364 222.941 301.726 219.896 304.758C219.287 305.366 215.716 305.14 215.131 306.56C219.275 311.06 227.061 313.472 232.722 311.013C237.451 308.96 230.99 306.083 230.059 303.588L225.879 310.75C226.249 304.686 230.095 302.525 222.296 304.77L228.256 302.382L224.685 299.422C225.449 297.44 232.053 293.202 229.45 290.469C228.112 289.048 222.894 293.513 223.491 289.884C229.307 283.688 232.424 286.864 230.656 294.038C240.138 287.317 226.99 299.995 229.462 302.394C234.848 303.468 232.125 300.556 233.26 299.123C234.896 297.058 244.462 295.996 247.364 296.425C248.415 293.286 245.632 294.444 245.238 293.489C245.095 293.143 245.644 290.373 244.987 289.287L250.803 293.083L250.349 297.631C258.601 289.8 266.173 283.7 262.889 271.381C261.133 270.701 259.545 272.491 258.709 272.575L258.697 272.527ZM54.9232 272.718C49.9074 268.301 47.9847 280.071 49.1073 283.283H58.6612C56.3444 278.352 58.8403 280.68 61.0497 277.326C54.5411 278.925 55.8189 273.518 54.9232 272.718ZM219.872 273.733L204.359 274.926C203.893 276.836 206.102 275.476 206.688 276.98C207.452 278.925 207.368 282.256 207.942 284.464L210.306 282.089C208.073 288.189 210.867 291.997 212.719 297.595C217.902 293.465 215.668 287.544 215.107 282.089C219.394 285.264 217.149 292.164 216.301 296.402C223.455 290.516 217.125 281.182 219.872 273.733ZM106.431 274.926C103.672 274.962 97.9398 273.613 98.4295 277.935C98.5011 278.579 105.643 287.592 107.625 285.646C104.234 281.946 105.153 279.355 106.431 274.926ZM193.479 285.598C194.22 284.822 194.494 272.527 190.028 275.523V280.895L187.628 277.326L185.263 279.701L184.069 276.132C184.929 278.305 184.857 288.726 185.311 289.203C185.561 289.466 192.142 290.696 192.404 290.445C194.781 288.225 187.436 287.747 190.028 285.682C190.41 285.372 192.99 286.112 193.479 285.61V285.598ZM70.3528 296.569C69.7438 296.187 68.2032 297.357 66.9851 296.927C65.6117 296.437 63.6292 292.57 59.939 295.339C59.748 295.482 59.7121 299.816 59.8554 299.995C60.0226 300.198 61.2646 299.052 61.611 299.123C62.6261 299.35 61.7543 302.191 64.6085 299.983V303.564C58.8164 299.744 55.5681 308.697 63.4143 304.758C64.8951 310.034 60.2018 307.79 58.5059 310.356C57.1565 312.409 59.1986 315.991 58.709 318.247C58.4223 319.572 52.2003 320.789 53.8723 325.051C55.9503 323.069 66.3641 319.035 68.7645 319.058C69.8274 319.058 69.1825 324.86 72.9682 323.845L70.5917 316.695C74.7715 315.931 72.8369 322.055 75.93 322.353C76.0852 322.365 78.832 321.565 78.9394 321.446C81.2324 318.963 75.3089 319.142 76.5748 317.889C79.1902 315.286 84.636 314.116 88.2068 312.517C88.4695 312.397 88.4456 311.228 88.7442 311.084C89.3294 310.798 90.8102 312.027 90.8938 311.92C91.7298 310.774 89.5443 305.462 89.6996 303.564C87.2036 303.325 89.1383 307.324 88.5053 308.351C87.753 309.568 83.3701 305.163 82.558 305.951C82.152 306.345 81.531 310.726 81.3399 311.908C76.957 310.774 81.5787 306.226 81.3518 305.963C76.2643 302.633 75.2134 308.482 74.7954 308.327C72.7413 307.611 73.8878 298.777 70.3648 296.557L70.3528 296.569ZM52.69 298.801C50.6837 297.738 47.077 303.91 47.0054 304.304C46.6232 306.202 48.8565 310.476 47.9011 313.114C42.2881 310.798 45.3454 312.803 44.2228 314.498C43.1957 316.038 39.9474 316.432 44.3064 319.082L46.7068 315.513L49.1192 321.47L56.2488 301.761L52.0809 302.382L52.678 298.813L52.69 298.801ZM136.884 309.532C142.903 308.721 150.379 310.129 156.589 309.532V304.758L154.798 307.133C150.905 297.583 144.993 300.281 141.649 308.327C140.443 305.892 144.288 302.609 139.87 301.176C142.019 307.455 135.606 310.619 130.316 308.936L132.68 305.307C134.09 304.22 137.183 310.786 138.675 303.576C137.314 301.773 116.904 304.089 116.152 304.949C115.495 305.701 114.313 310.941 112.868 312.982C111.769 314.522 109.249 314.737 108.807 316.671C117.931 316.934 128.656 310.631 136.872 309.521L136.884 309.532ZM185.239 304.793C184.248 304.065 181.979 304.746 182.874 306.536C189.228 312.875 192.846 311.908 200.776 309.521L185.86 306.823C184.94 306.548 185.43 304.913 185.251 304.781L185.239 304.793ZM217.484 316.707C213.256 318.044 207.189 317.614 208.539 311.932C206.019 313.961 204.657 317.089 204.347 320.264L228.208 328.644L234.203 317.28C230.608 314.976 228.017 318.772 227.647 318.855C223.491 319.787 220.362 313.878 221.675 322.675C220.792 319.464 219.43 320.061 216.301 320.264L217.484 316.695V316.707ZM96.877 328.62C98.5131 324.776 108.33 320.527 101.666 316.695C102.394 323.857 100.531 320.085 99.5043 320.658C99.0863 320.885 94.2974 324.645 93.6764 325.361C93.3898 325.684 93.4376 332.07 88.5292 328.632C87.9679 329.241 91.276 337.084 87.9202 336.964C87.1917 336.94 80.6114 331.819 78.3662 338.182L75.3925 335.794C71.3321 345.857 66.9373 355.909 65.8267 366.819C66.2805 367.297 77.9124 363.763 78.3781 363.31C79.0469 362.653 78.6648 351.731 79.5007 348.866C80.3367 346.001 89.0069 336.534 91.479 334.577C97.0083 330.196 105.798 326.519 112.39 323.845C112.629 322.413 105.786 322.854 105.476 323.01C104.878 323.284 100.161 329.766 96.877 328.632V328.62ZM131.498 322.675C126.912 324.06 120.881 320.849 117.072 320.933C115.077 320.968 112.808 321.076 113.596 323.857C119.83 322.09 129.683 325.827 135.26 329.062C136.359 329.694 143.763 335.305 144.073 335.771C146.39 339.256 138.986 339.746 137.099 339.364C136.621 339.268 135.714 336.141 133.289 337.275C132.442 337.669 133.146 340.199 130.925 339.376C129.599 338.886 127.199 333.849 124.345 336.391C130.638 342.754 139.882 349.128 147.788 353.545C150.295 354.954 161.091 357.353 162.31 361.173C162.728 362.498 160.721 363.907 162.548 365.076C163.85 365.912 167.051 362.51 167.337 369.207C166.454 369.768 155.359 365.22 153.986 364.372C151.12 362.605 146.772 355.813 143.405 354.285C141.876 353.593 135.296 354.798 132.883 352.339C132.477 351.922 133.54 344.616 125.527 345.32L126.733 342.969C124.512 342.837 119.926 342.599 118.349 341.154C117.072 339.996 117.49 337.68 116.976 337.203C115.197 335.58 102.777 334.875 101.654 339.984L105.213 341.154C102.86 343.386 102.263 346.681 100.484 349.236C98.5728 351.969 94.9662 350.012 99.2655 354.894C90.8341 352.948 92.2433 356.35 90.9177 363.262C94.2735 362.713 93.7839 357.246 94.6079 356.195C95.2289 355.407 102.98 357.258 104.03 359.681C101.594 353.259 103.947 357.52 106.885 357.031C109.512 356.601 115.471 345.619 117.191 359.669C119.221 360.194 117.764 357.222 119.03 357.198C123.497 357.102 122.864 361.233 124.38 362.582C129.253 366.927 135.033 370.102 139.261 376.118C140.049 376.142 147.907 369.04 148.122 368.443C149.889 363.429 142.927 362.832 144.05 358.487C148.982 363.011 156.816 371.081 156.482 378.243C156.41 379.759 154.702 380.893 154.678 381.741C154.654 382.588 159.778 390.753 160.184 392.508C154.798 394.346 159.228 396.233 160.184 398.465C160.602 399.456 158.106 398.596 157.771 399.802C156.207 405.627 161.056 405.723 161.402 407.095C161.712 408.313 161.079 410.521 161.39 410.987C161.581 411.273 169.547 407.06 166.143 412.169L170.932 410.999C169.308 414.556 164.161 415.237 163.074 419.307C162.632 420.955 164.005 427.019 166.143 427.699C171.111 412.264 191.867 409.626 194.757 392.532L187.078 389.476L188.846 391.875L184.093 393.081L185.275 387.124C177.25 390.192 176.426 384.653 184.081 383.519C183.472 380.475 181.37 379.711 182.898 376.369L187.663 377.563C187.365 370.914 185.239 374.662 181.704 372.191L185.275 370.424C177.739 368.872 173.5 365.84 169.153 359.669L170.944 364.432C169.786 365.291 162.608 357.281 162.608 356.685C162.608 356.434 164.459 354.584 164.961 354.894L167.361 357.269C165.653 354.011 167.254 350.943 163.169 353.569C161.091 352.984 162.644 350.334 162.465 350.215C161.641 349.713 159.42 350.429 158.99 350.107C158.584 349.797 160.709 347.218 160.208 346.55C159.921 346.168 154.798 345.714 154.38 345.165C153.795 344.401 154.678 342.109 153.974 340.856C152.039 337.394 137.696 328.548 133.373 326.197C132.047 325.481 130.674 325.003 129.157 325.039L131.534 322.675H131.498ZM65.6595 325.146C65.0862 324.729 57.1326 324.681 59.8435 328.656C54.2664 325.922 54.135 332.524 53.8842 337L60.4526 331.043C65.5639 331.867 60.0704 337.239 58.6134 338.588C58.1477 339.017 56.6788 338.253 56.4757 338.48C55.6398 339.399 53.7648 345.475 53.8723 347.147L56.2608 346.55C57.2639 351.874 51.7704 351.062 51.4838 351.337C51.0897 351.719 52.6064 354.058 52.3914 355.348C52.1287 356.899 49.5969 357.544 50.3134 359.693C52.057 359.92 56.8221 350.644 58.6612 352.542C59.9032 353.82 52.7258 360.17 52.2242 360.863C52.0451 361.113 52.893 367.416 49.7163 360.886L47.9011 366.843C42.3837 363.584 50.7195 355.443 50.2896 350.131C47.1487 351.778 44.7721 354.942 44.3183 358.475L41.9537 353.712C41.906 364.85 47.7219 375.008 43.148 385.943L45.5006 384.725L47.913 390.121C39.7444 393.881 47.7578 399.109 47.913 399.885C48.2235 401.425 47.6622 403.073 47.8294 404.493C48.1638 407.322 50.2896 405.603 50.3254 406.833C50.4329 410.736 47.2801 406.785 46.7426 407.406C46.5157 407.668 44.4616 413.637 44.4019 414.067C44.2467 415.213 43.757 423.437 43.769 424.703C43.8645 430.504 45.7275 436.21 45.5365 442.036C49.9074 439.063 47.0293 431.232 49.1192 426.517C51.9018 427.043 53.2871 434.599 49.1192 431.28C50.3851 439.971 46.6949 447.073 44.3422 455.155L49.1073 450.392C47.292 454.367 51.5435 455.513 51.5435 455.847C51.5793 457.077 50.0507 458.855 50.194 460.431C50.3015 461.696 52.7258 460.586 52.7139 461.732C52.7139 462.078 48.5579 462.747 50.3015 467.116L45.5365 462.329L44.3422 469.491L47.9011 470.064C43.0644 476.463 42.2762 484.902 40.0071 492.184C39.6966 493.187 37.6067 494.07 37.332 495.323C37.0454 496.66 40.9506 503.345 40.2937 506.079L38.371 532.747C40.1863 533.033 39.7922 530.514 40.1385 529.165C41.4283 524.044 41.3805 518.697 43.1599 513.659L44.3542 517.228C50.6239 514.125 44.187 506.067 44.2825 503.56C44.3064 502.975 46.1455 502.987 46.3366 502.545C48.2593 497.926 47.9847 497.771 48.319 493.437C48.4743 491.408 49.2744 489.462 49.1192 487.385L46.7307 492.148C40.1863 487.636 48.9281 486.371 48.8923 484.413C48.8923 483.911 47.1726 482.622 47.0293 481.035C46.7904 478.408 47.089 470.542 49.7402 469.479C51.866 475.054 49.8955 467.104 56.2966 470.661L56.8818 467.104C58.088 468.417 58.3746 476.14 62.2678 473.049C62.5664 472.822 59.8913 467.211 58.697 466.495C61.8259 464.167 62.5544 470.243 64.095 471.95C65.0265 472.977 66.5671 471.927 66.8298 472.165C67.618 472.881 69.3974 481.464 71.8098 479.041C72.1323 478.719 73.6012 471.151 73.6251 470.088C73.6848 467.092 71.0336 461.899 72.395 458.736C73.7564 455.573 74.4491 461.792 77.793 458.736C78.1632 456.921 75.8464 457.578 74.9029 456.408C74.2222 455.572 74.9148 452.433 74.1147 451.717C73.8042 451.442 70.4245 452.91 68.2629 447.407L71.8337 444.447C65.9341 445.044 69.3855 443.432 68.7764 440.746C67.618 435.661 60.5839 434.563 69.4452 434.3L67.0448 430.122L64.6921 432.486L63.4859 420.573C68.0957 419.283 64.8474 426.47 65.8864 427.723C73.5176 423.772 77.1242 437.798 79.6202 443.241L80.2173 438.466L83.7881 442.668C90.1176 441.212 82.9163 435.22 82.5461 431.805C82.2833 429.358 86.1168 431.304 84.7673 426.207C83.9672 423.187 77.2197 417.314 84.9823 418.161L85.5794 421.742C87.4544 420.74 86.2004 419.534 86.6781 418.495C86.7976 418.245 88.3859 418.197 88.5531 417.361C89.413 413.183 86.5229 408.277 87.3708 403.848L81.4115 407.418C80.4442 401.127 87.4902 401.712 86.1766 395.492C81.8773 394.49 84.7912 398.954 83.6328 400.16C83.2865 400.53 77.4586 401.007 77.8049 406.224L76.0374 403.848C73.9953 406.475 65.8983 408.492 66.3282 411.62C66.5313 413.052 69.0153 413.709 68.251 415.774C64.3577 412.264 60.1898 416.705 56.9176 410.999L55.1501 413.374C52.5228 403.849 53.4543 390.801 55.4845 380.905C57.5147 371.009 61.3721 358.499 64.3458 349.176C65.4684 345.666 69.0631 340.02 69.5049 337.489C69.6124 336.881 59.9032 326.841 67.0687 329.826C67.415 329.169 66.0536 325.361 65.7192 325.122L65.6595 325.146ZM213.901 350.131C204.18 346.502 207.739 351.349 206.676 352.375C205.613 353.402 198.22 350.859 199.594 354.273C202.209 360.827 215.883 352.865 213.913 350.131H213.901ZM380.76 358.833C379.542 357.974 366.716 353.223 364.686 352.805C363.48 352.554 359.396 351.456 359.61 353.7C366.513 354.942 374.037 357.639 379.913 361.471C381.489 362.498 381.752 364.647 382.552 365.255C382.815 365.458 387.436 366.712 388.093 368.264C388.559 369.362 386.78 371.343 387.042 371.606C387.197 371.761 389.693 371.558 391.294 372.74C396.202 376.333 406.891 399.778 408.897 406.487C411.321 414.592 412.193 422.506 413.972 430.54C414.235 431.722 413.22 433.274 415.704 433.68C415.262 420.871 412.635 408.552 407.93 396.698C402.4 382.732 392.99 367.488 380.737 358.833H380.76ZM78.9633 365.637C74.6163 363.787 72.7772 367.643 72.4189 367.75C71.2605 368.085 68.872 367.297 66.7223 368.276C63.8562 369.577 64.2144 372.764 61.0616 372.824C61.3005 376.596 69.3855 373.158 69.4213 374.59C66.5432 375.832 60.4287 379.592 61.0139 382.958C61.1333 383.615 63.1396 383.436 63.2829 383.651C65.0862 386.229 61.2408 385.895 60.4645 387.124C59.6882 388.354 60.1062 390.085 59.4136 391.541C59.115 392.15 56.5593 391.649 57.4311 394.896C57.7177 395.994 60.3809 394.681 59.8435 396.662C56.2011 396.149 52.6183 400.411 56.8459 400.996C57.7058 401.115 59.3061 399.873 59.8435 400.267C60.0346 400.411 57.6341 403.789 60.4526 405.03C60.7272 398.787 63.3426 403.443 65.3012 401.616C66.7343 400.291 66.5313 397.892 67.3553 397.02C71.141 393.093 82.9282 394.908 78.9633 384.737L82.5222 388.318C82.4147 386.265 81.6504 374.686 81.2085 374.137C80.5636 373.325 72.4069 372.597 70.6036 372.8C70.9141 371.343 77.4228 369.004 77.7452 369.254C78.1632 369.577 76.8376 372.131 78.9394 371.618V365.649L78.9633 365.637ZM36.9499 367.094C30.7278 363.596 36.1019 371.093 35.875 371.499C35.7078 371.797 30.7876 374.447 30.3099 375.462C28.7215 378.888 32.4356 383.149 27.0018 384.725C26.1061 381.538 28.5185 378.183 28.3752 374.746C28.3155 373.194 26.954 369.887 25.2224 371.606C23.2399 373.588 25.6045 387.972 24.0281 391.899C26.2733 390.538 24.5536 387.59 28.7812 387.124L26.4166 389.5L27.5989 396.662C22.0338 396.543 21.5322 392.854 21.0425 388.318C18.9048 389.548 17.9017 395.242 19.2512 396.674C19.3587 396.794 22.4756 393.929 21.6516 397.283C21.3769 398.405 18.8093 403.144 18.045 404.183C17.1732 405.376 15.7401 404.947 15.6804 405.054C15.0833 406.009 20.3021 411.118 22.8339 408.623C22.2726 410.283 21.1978 412.014 21.5561 413.876C21.8069 415.177 24.5656 413.78 24.0281 415.762C15.5371 415.678 18.8451 417.194 16.1581 421.683C15.6923 422.471 13.9726 422.674 13.6621 423.294C12.5992 425.395 11.4886 429.979 10.9154 432.486L16.8627 425.324C17.2807 429.585 13.889 431.758 15.6684 436.067C11.9782 432.784 3.17666 449.652 10.8915 446.799C7.6073 451.836 13.4949 456.718 13.3516 460.455C13.3277 461.231 10.6765 460.61 10.7601 462.878C10.8915 466.603 15.2505 474.791 15.6923 477.274C16.3372 480.903 13.2083 485.01 16.8507 486.18L18.045 480.223C16.0387 484.95 22.3801 486.669 22.5951 487.922C23.0489 490.525 16.182 495.264 21.6277 496.935L22.822 493.366L25.2104 499.322C25.3418 498.296 27.79 493.187 28.208 493.366C31.6952 494.87 28.3513 500.122 28.8171 500.516C29.4261 501.029 32.5789 500.683 33.6896 499.74C34.2867 499.239 38.8606 486.18 39.0159 485.057C39.2428 483.434 37.0812 482.479 37.332 479.948C37.5589 477.656 40.0429 474.708 39.5653 471.867L41.9299 473.072C41.2252 469.933 40.9745 466.913 41.1297 463.702C41.3447 459.595 44.6527 456.396 40.7475 455.763C46.3724 451.347 43.2435 445.533 44.3183 439.636L41.9418 440.854C42.2165 429.693 40.9267 419.033 40.6878 407.967C40.5684 402.631 42.1806 393.069 41.6193 387.853C41.4999 386.719 32.9969 374.161 39.5414 377.587C40.4848 375.784 38.6218 368.037 36.9499 367.094ZM196.131 370.209C195.665 369.708 196.537 367.726 195.402 368.037C193.264 369.541 194.721 372.203 193.049 374.077C191.377 375.951 188.296 372.048 188.846 375.772L194.793 378.78C195.223 374.865 196.011 372.764 199.582 371.009C200.215 367.261 196.74 370.866 196.142 370.209H196.131ZM207.93 385.931L209.124 374.005L203.427 380.272L201.97 385.346C203.535 387.638 206.031 382.899 206.735 383.543C207.153 383.925 205.804 386.432 207.93 385.931ZM378.205 376.894C377.058 375.987 374.216 372.919 372.747 374.59C375.363 378.267 379.865 380.07 382.922 383.519C389.299 390.706 396.083 402.953 398.901 410.724C399.868 413.374 399.57 419.08 402.579 420.561C400.907 404.278 391.019 386.981 378.193 376.906L378.205 376.894ZM321.383 384.749C319.663 382.934 313.883 393.475 313.644 394.299C313.119 396.125 315.961 399.074 315.423 401.449C317.967 400.864 315.603 396.626 315.961 394.263C316.606 390.085 321.598 389.154 321.371 384.749H321.383ZM281.973 438.454C281.925 420.668 285.496 402.989 290.332 385.931C288.78 386.253 287.908 388.151 287.108 389.404C286.523 390.336 282.486 402.428 282.343 403.431C281.913 406.355 285.436 415.165 279.608 415.798C279.238 418.018 282.558 415.762 281.937 418.686C281.208 422.065 278.557 421.551 278.414 421.766C278.163 422.136 280.934 424.536 280.934 427.114C280.934 429.693 278.163 432.128 278.426 432.462C278.557 432.641 280.062 432.319 280.384 432.713C281.555 434.169 277.566 439.636 281.985 438.443L281.973 438.454ZM363.181 391.899C364.328 390.92 360.016 386.432 358.966 385.967C357.64 385.394 353.806 391.684 351.263 390.729C350.94 392.687 352.875 391.84 354.212 391.911C357.186 392.066 360.22 391.816 363.181 391.911V391.899ZM336.072 396.483L333.934 388.33C330.399 396.065 326.351 397.211 337.493 397.892L336.072 396.483ZM127.915 393.105C124.631 394.144 120.272 391.875 117.717 392.031C114.994 392.198 109.381 396.71 105.237 395.492C104.938 397.534 108.079 396.77 109.393 396.662C112.366 396.424 115.256 394.955 118.361 395.492C118.899 397.45 116.236 396.209 115.949 397.259C114.934 400.984 118.17 399.742 118.385 400.852C118.911 403.514 116.737 402.273 116.319 402.894C114.755 405.174 116.701 410.617 117.167 413.374C113.011 414.282 115.328 408.671 114.528 405.866C113.143 400.984 112.271 405.83 111.614 406.248C109.811 407.406 106.813 406.952 105.117 408.003C103.959 408.719 105.213 410.605 105.01 410.808C102.597 413.362 94.2019 411.942 96.877 422.924C99.4685 422.315 98.9908 419.068 100.376 417.481C102.227 415.344 108.879 413.446 110.611 408.611L110.002 418.137C112.02 419.2 115.268 415.893 112.402 421.73L121.968 419.343C119.938 417.636 124.452 406.32 126.315 406.284C127.163 406.272 128.656 407.561 129.026 407.346C129.348 407.155 131.223 401.64 132.704 400.852L125.551 405.03C125.622 403.884 125.742 397.044 125.551 396.686C125.467 396.531 122.84 398.262 122.004 396.089L127.951 393.117L127.915 393.105ZM304.663 393.105C298.561 388.963 301.104 403.264 300.663 404.505C300.137 406.021 298.011 405.914 297.737 406.379C296.853 407.859 301.296 416.884 295.121 414.592C298.812 419.045 293.903 428.785 298.704 428.929V430.087C296.435 428.69 296.172 433.799 296.399 435.339C296.543 436.282 298.322 436.043 298.453 436.64C298.859 438.526 297.773 441.88 299.898 443.838L296.339 443.229C294.572 452.54 298.871 449.508 299.767 450.487C300.388 451.156 299.409 453.555 300.185 454.892C302.979 459.667 301.809 458.378 303.875 463.714C306.562 470.673 312.283 476.081 313.119 483.78C316.845 481.345 314.588 483.983 316.152 486.084C317.991 488.555 322.756 491.683 324.667 493.688C325.825 494.918 325.455 497.281 326.996 498.272C328.668 499.334 331.235 497.818 331.904 498.32C333.66 499.609 331.82 502.748 338.126 500.504C336.92 497.401 331.82 496.863 329.778 495.264C325.121 491.623 322.29 485.022 320.021 482.885C319.794 482.67 318.373 483.816 316.654 482.121C314.791 480.283 306.646 465.11 305.559 462.066C299.994 446.524 300.794 427.269 299.922 410.987L302.323 410.39L299.91 406.236C306.276 408.91 302.406 405.603 302.836 402.01C303.063 400.112 307.135 394.776 304.675 393.105H304.663ZM324.965 402.655C325.276 402.153 325.288 395.504 324.38 394.299C320.678 395.719 322.529 399.754 322.35 400.088C321.86 400.936 318.087 400.805 319.006 403.837C320.845 404.171 321.622 402.846 323.198 402.13C323.723 401.891 324.918 402.726 324.965 402.655ZM114.779 397.88L102.848 399.074C106.944 404.159 105.153 402.571 101.654 406.212C105.153 406.522 116.451 402.798 110.014 400.852L114.779 397.88ZM330.937 402.643C328.405 402.058 328.68 403.61 327.76 404.827C322.684 411.584 320.762 410.808 323.891 419.618C324.368 420.966 327.605 420.214 325.766 424.989C325.694 425.18 323.27 427.663 322.589 427.699L320.177 416.967C314.982 420.071 319.496 424.572 320.2 427.138C320.403 427.866 317.955 427.46 317.812 428.415C317.609 429.681 319.269 433.739 317.812 436.055C320.75 435.196 321.024 426.326 324.703 429.263C329.659 433.238 324.631 436.342 326.172 440.83L328.536 438.454C328.417 445.951 332.489 452.564 332.131 459.93L324.977 457.554C324.655 457.876 327.115 465.409 327.449 465.874C327.688 466.197 334.03 462.783 333.922 467.092C338.066 462.436 336.108 466.161 337.696 467.14C339.129 468.023 341.673 467.713 342.592 468.596C343.022 469.014 346.892 477.155 347.692 477.823C351.334 480.927 348.838 471.628 350.068 470.673C353.675 470.315 355.729 477.835 356.625 477.812C358.058 477.776 357.329 473.765 360.208 474.23C360.542 474.29 362.68 478.241 365.57 477.835C367.134 475.018 363.098 475.484 363.169 474.875C363.922 469.181 367.146 473.562 369.738 474.278C372.592 475.066 369.236 468.524 372.723 471.867C373.046 472.177 372.449 476.475 375.112 476.642L376.33 472.476L373.941 473.072L375.124 468.298C362.692 472.774 343.417 471.843 342.282 456.36L351.239 463.511C347.047 459.894 350.845 458.569 354.81 456.348C355.204 454.009 351.872 455.704 351.227 455.167C348.886 453.209 353.603 452.672 353.639 452.099C353.83 448.935 352.266 446.202 351.227 443.814C350.845 442.919 353.377 443.588 353.663 442.453C353.759 442.06 353.508 434.647 353.388 434.265C353.138 433.441 348.42 433.345 352.839 430.098C355.455 428.177 349.961 428.559 349.65 428.463C348.42 428.069 346.868 426.195 346.462 426.517C346.056 426.84 347.381 429.418 345.268 428.905L344.073 424.142C344.097 427.627 342.533 430.325 339.87 432.486L336.908 430.11C335.26 435.697 336.06 441.176 336.884 446.823C331.187 445.127 334.519 444.805 334.042 441.642C333.468 437.834 330.961 436.986 330.901 436.676C330.101 433.13 332.943 433.966 333.11 433.119C333.683 430.098 330.949 417.003 329.683 414.258C329.217 413.255 328.262 413.243 327.354 413.374V412.216C330.053 412.479 329.85 411.906 328.524 409.829C330.71 410.545 333.086 408.922 333.325 406.809C333.349 406.57 329.611 405.615 330.913 402.655L330.937 402.643ZM132.704 413.41C134.758 414.138 142.903 409.292 141.04 407.43L124.345 414.604C124.512 415.881 129.098 417.576 130.077 417.839C133.982 418.889 133.373 418.221 135.093 415.165L132.704 413.41ZM316.606 409.817L314.241 410.39C317.083 413.804 313.644 412.921 313.107 414.306C312.844 414.974 312.354 427.066 312.39 428.368C312.45 430.278 317.239 432.438 308.246 432.498C308.963 433.942 314.456 436.019 315.041 437.511C315.71 439.219 313.453 446.285 316.594 448.661C311.327 450.117 315.77 451.466 316.964 453.973C318.409 457.029 318.039 463.141 322.565 463.535L320.188 465.301C323.043 466.722 323.771 470.219 327.354 469.491L322.589 471.27C325.742 474.756 330.375 470.578 327.366 476.642L329.766 473.061L336.92 475.472C336.824 478.205 329.874 477.191 332.167 480.211C332.37 480.485 336.096 481.142 336.335 485.01L337.517 480.235C339.225 484.52 340.192 482.252 342.043 484.019C342.891 484.831 343.393 487.278 345.268 487.385C347.584 482.276 343.488 483.028 341.279 479.924C339.428 477.334 338.233 473.884 338.102 470.673C329.217 477.847 319.663 455.417 318.958 448.565C318.17 441.021 319.544 444.614 316.892 437.571C313.441 428.403 316.606 419.164 316.618 409.793L316.606 409.817ZM205.541 425.324V413.398C202.747 414.461 205.947 420.453 202.544 421.742C200.155 422.638 201.087 419.665 200.227 419.57C190.446 418.424 189.586 429.299 197.958 424.81C198.328 424.607 198.34 423.342 198.579 423.246C198.841 423.139 204.013 422.984 204.239 423.151C204.789 423.581 203.475 425.813 205.529 425.336L205.541 425.324ZM222.284 434.873C227.336 438.562 224.052 427.186 223.992 426.577C223.574 422.363 225.76 418.567 219.896 415.774C219.227 418.448 221.078 433.99 222.284 434.873ZM108.807 416.979C106.515 414.759 103.959 420 102.836 421.169C108.903 423.831 103.362 426.386 103.23 426.78C102.956 427.58 103.983 428.905 103.421 430.015C102.478 431.889 94.7632 441.105 95.6827 442.048C96.7098 440.615 100.233 440.484 100.543 440.233C101.63 439.35 100.4 437.655 100.663 437.452C101.367 436.903 103.792 437.416 104.711 436.175C105.894 434.575 104.054 431.149 106.419 431.316C108.282 434.217 103.78 439.29 104.042 439.648C104.401 440.15 113.334 445.557 114.791 444.447C115.232 444.817 111.733 453.997 111.1 455.453C110.073 457.829 109.906 459.56 109.739 459.774C109.214 460.455 106.108 458.975 108.831 463.535C106.873 461.386 101.535 469.491 101.618 470.017C102.562 475.46 106.801 477.155 108.831 479.984C111.327 483.47 113.286 487.361 115.662 490.692C118.039 494.022 120.045 489.88 121.944 487.433L115.985 488.615C114.241 486.048 121.204 471.724 113.584 474.302L114.182 477.871C112.808 476.451 110.623 474.29 110.014 472.488C108.999 469.479 111.077 471.509 111.805 471.616C113.095 471.819 112.151 469.396 112.402 468.333L113.596 470.721C119.412 467.462 110.73 462.83 119.544 462.353L114.779 461.159C116.821 458.497 117.525 456.014 115.973 452.815C122.553 450.225 119.83 455.429 121.001 459.118C121.55 460.861 123.556 461.756 124.225 463.177C125.145 465.122 124.297 466.984 126.124 468.321C126.626 467.689 128.226 461.386 127.927 461.171C127.139 460.622 123.974 462.317 124.333 459.977C134.782 461.816 127.091 456.062 129.11 453.997C133.624 453.281 137.756 459.428 141.064 460.574C142.497 461.076 143.178 459.989 143.429 458.784C137.672 456.181 123.903 449.186 123.306 442.43C123.162 440.866 123.915 440.615 124.918 439.684C129.778 445.545 129.432 438.538 130.889 438.49C131.426 438.478 138.496 443.588 139.846 444.435C141.566 439.087 132.645 439.529 132.716 437.87C132.74 437.344 136.406 430.707 136.406 428.32C136.406 425.419 132.979 422.853 133.875 419.367C129.993 419.964 133.015 426.29 132.704 426.517C132.406 426.732 130.519 426.099 129.492 426.852C128.632 427.484 128.584 429.418 127.163 429.931C122.338 431.686 118.505 426.971 117.167 427.735C117.012 436.413 118.696 428.726 121.944 433.68C115.77 432.343 120.201 436.819 117.179 438.454C117.454 432.128 109.858 436.007 113.584 427.723C110.479 427.21 109.978 430.278 109.99 432.474H108.831C109.56 429.084 105.583 430.409 105.225 430.087C104.472 429.406 110.623 418.734 108.796 416.967L108.807 416.979ZM206.735 433.68C206.95 433.429 206.389 427.448 205.601 427.066C191.867 426.601 204.753 436.007 206.735 433.68ZM230.632 468.298C231.671 481.154 233.678 483.888 238.526 493.676C239.338 495.312 239.207 498.917 241.989 500.528C241.01 495.67 250.803 502.916 250.827 503.512C250.827 503.811 247.853 506.401 249.74 508.884L246.169 507.702C245.966 510.161 246.038 512.059 247.913 513.802C249.059 514.853 252.439 512.37 252.141 519.628L254.505 514.865C252.678 519.377 257.945 520.666 258.171 521.657C259.091 525.56 254.41 528.401 261.671 530.383C263.701 528.366 263.307 511.976 264.083 508.49C264.286 507.559 266.364 507.726 266.34 507.201C266.245 505.005 264.537 501.519 264.477 498.236C264.322 490.787 265.074 482.861 266.46 475.484C266.137 475.15 264.167 476.415 262.853 475.973C256.213 473.705 233.654 456.814 227.647 451.514C226.715 450.69 225.055 451.574 224.864 451.347C223.885 450.225 222.117 444.005 222.261 442.048L218.714 444.435L216.313 436.079C216.934 435.363 222.308 439.051 222.261 436.079C217.997 435.84 218.332 428.2 214.498 426.517C210.246 431.423 213.196 436.234 212.695 442.024L209.136 437.261C208.718 442.143 211.381 444.017 213.889 447.419L210.342 447.992L211.524 455.143C208.383 455.692 209.363 454.617 208.79 452.481C207.977 449.413 207.643 435.852 206.688 434.933C206.389 434.647 198.925 434.658 198.519 435.005C197.97 435.482 197.982 439.732 197.05 440.699C196.728 441.033 188.595 440.114 187.651 440.842C185 442.871 192.154 443.253 190.028 445.605C188.523 447.276 185.514 445.653 184.081 444.423C183.269 445.366 187.795 450.38 185.92 452.755C184.308 454.797 178.551 455.334 178.026 455.787C176.652 456.981 178.289 458.772 177.572 460.001C177.393 460.312 173.476 462.83 172.007 463.988C166.119 468.596 161.39 467.892 166.155 477.847C158.727 474.72 159.348 487.982 151.024 488.197C149.985 488.221 149.185 487.397 148.85 487.397H131.534C133.301 491.969 137.613 488.483 140.55 488.555C143.954 488.639 151.048 488.997 153.018 492.148C148.277 490.978 146.772 496.04 144.921 496.887C142.545 497.974 135.475 498.821 132.74 498.129L137.505 506.473C135.893 505.936 134.125 507.487 133.242 507.583C132.967 507.607 132.286 503.011 130.34 505.303C129.874 505.852 132.071 509.577 131.534 510.054C131.355 510.221 129.456 509.708 128.381 510.436C127.796 510.83 127.712 512.036 127.079 512.43C123.329 514.769 119.269 513.528 119.556 520.809C116.415 518.482 117.525 521.478 117.072 521.812C115.304 523.149 113.596 518.888 111.22 519.616C115.185 523.304 111.053 525.68 111.291 527.22C111.709 529.929 117.012 529.189 115.985 532.735C110.635 533.308 110.563 525.74 106.443 527.363L108.819 531.541L101.666 530.371L112.414 545.281C107.315 546.295 113.25 550.366 108.843 551.834L108.234 548.265C104.759 558.543 103.398 555.678 94.5004 555.427C92.9957 550.139 97.8085 552.419 99.2774 549.769C100.233 548.026 100.34 544.397 100.448 542.308C98.0115 541.902 100.269 545.699 98.6325 545.949C95.4916 546.415 90.6072 544.923 87.323 544.708C86.8095 545.102 92.5419 551.44 93.0435 552.706C93.4376 553.685 94.178 556.967 92.1119 556.621L84.9345 548.289C90.7505 559.14 84.7554 553.661 83.7403 554.258C85.3645 556.191 82.2594 558.615 82.5461 559.009C85.0659 562.53 93.9272 557.528 94.4646 557.839C94.7154 557.982 95.4081 561.551 98.0712 562.017L95.6947 562.59C95.6708 566.995 96.4232 572.271 101.654 569.776C99.9939 573.094 100.496 577.261 98.6683 580.507C96.662 584.077 97.1039 578.12 95.6947 579.326C95.0856 581.2 96.3634 584.709 98.6564 584.089C99.6476 583.826 110.897 568.761 111.041 567.747C111.232 566.41 109.106 564.034 108.067 563.879C106.443 563.64 104.293 568.093 102.167 563.771C101.738 562.9 103.887 556.955 104.162 556.717C104.628 556.287 109.572 557.672 111.16 556.633L111.805 564.989C116.701 553.995 126.148 551.309 135.57 545.71C136.753 545.006 142.557 539.634 143.739 539.145C144.802 538.703 147.931 539.288 149.436 538.727L147.047 535.17C155.538 537.116 150.654 528.378 154.81 526.802C155.98 526.36 154.81 529.619 155.992 529.177C158.715 525.859 161.032 525.835 164.949 526.79L161.378 523.233C164.782 524.021 164.411 518.959 165.02 518.482C165.391 518.195 171.326 521.359 170.944 513.671L174.503 517.24C174.371 515.175 174.873 512.883 174.503 510.89C174.336 510.006 170.705 509.875 172.15 506.509L176.903 512.465C176.437 510.126 179.399 509.72 179.877 508.932C180.928 507.201 177.011 503.25 181.704 504.121C178.921 508.263 185.155 504.467 184.678 510.078L186.493 504.121L188.26 506.497L191.246 503.512C187.162 502.51 189.096 495.276 192.452 493.891C193.658 493.39 194.602 495.312 195.438 495.264C196.656 495.18 197.623 494.13 198.985 493.951C199.952 493.819 201.708 494.918 201.994 494.559C202.197 494.309 202.042 488.46 201.947 488.149C201.612 486.932 199.857 487.946 199.594 486.8C198.961 484.043 201.648 485.618 202.018 484.246C202.496 482.431 201.72 479.853 202.018 477.847L206.771 484.998C207.942 481.906 211.226 472.368 215.513 475.388C217.173 476.558 218.654 484.711 218.069 486.263C216.48 490.525 201.517 501.328 197.767 505.231C195.378 507.714 194.924 511.116 191.879 513.671C188.834 516.226 166.083 528.33 166.107 529.846C168.34 533.451 168.233 537.772 169.953 541.521C172.496 547.059 179.519 549.65 182.301 555.415C183.794 555.463 195.868 537.128 196.668 533.988C198.841 525.477 196.978 514.901 200.884 506.533C204.06 508.956 202.938 505.661 204.359 504.682C207.631 502.426 213.901 507.356 215.095 506.473L222.296 490.966C222.428 497.126 227.969 504.467 217.531 502.904L219.92 508.848H215.131C213.352 513.098 217.639 513.91 217.531 514.22C216.6 516.763 213.208 514.495 212.85 514.841C213.244 518.326 209.721 519.854 209.196 522.6C208.24 527.482 207.38 540.482 207.989 545.293C208.79 551.584 212.038 542.07 212.957 540.685L230.226 514.841C229.963 510.054 227.754 507.285 223.538 505.876L227.085 501.71L229.474 506.473L228.889 499.322L233.068 506.473C230.501 502.868 235.505 495.335 234.048 492.411C233.881 492.088 232.161 492.005 231.874 491.348C231.17 489.689 230.381 483.84 228.901 483.828C225.891 483.792 228.459 491.909 225.927 492.148C227.933 486.012 220.756 477.346 220.218 473.419C219.753 470.028 226.978 466.591 223.491 459.679C222.726 458.163 220.696 458.294 220.147 456.754C219.681 455.453 220.887 452.23 219.968 450.38C226.488 452.922 225.33 463.582 227.742 467.116C228.662 468.465 230.441 468.035 230.704 468.286C230.417 464.74 229.796 461.111 229.51 457.554C233.713 456.599 229.892 460.097 232.495 461.123C233.833 461.649 231.958 457.745 234.275 459.333C240.401 463.523 234.466 463.272 234.275 463.535C233.212 464.991 237.129 466.507 239.04 463.523L234.287 470.685C239.804 468.011 239.076 473.622 240.246 477.847C235.767 478.993 238.777 473.084 237.857 471.879C233.988 474.278 233.558 470.876 230.704 468.31L230.632 468.298ZM309.082 500.886C295.444 485.32 291.121 475.412 286.224 455.107C285.89 453.698 284.923 449.377 283.191 449.21C282.653 451.991 283.943 454.498 284.266 457.124C285.317 465.504 288.159 471.353 291.407 478.778C293.461 483.47 297.94 489.82 293.915 493.354L297.51 493.378L296.316 499.334C297.773 498.117 302.597 498.32 303.409 499.418C303.529 499.573 302.275 500.946 302.621 501.471C302.92 501.937 306.944 502.366 303.589 506.998C302.538 508.454 298.835 506.688 299.91 509.469C302 514.865 304.186 508.669 304.651 508.275C307.673 505.709 307.052 513.134 307.255 513.408C307.721 514.065 309.894 513.969 310.491 515.641C311.088 517.312 308.783 522.361 312.438 524.414C314.229 523.507 311.22 517.598 314.814 518.446C315.603 518.637 317.716 534.251 320.212 516.058L330.949 519.628L312.999 507.153C310.73 505.745 310.503 502.51 309.094 500.898L309.082 500.886ZM64.6802 504.109C64.3219 503.859 62.1245 497.126 62.232 495.765C58.1716 497.174 61.5632 501.209 61.0616 504.133L63.4382 502.916V506.533L65.8147 505.315C64.5846 511.248 73.5534 507.535 69.4094 514.853C76.539 518.004 70.8305 504.061 69.2661 502.999C68.3943 502.402 65.4445 504.658 64.6802 504.121V504.109ZM29.9994 501.734L28.1961 510.054L28.7812 501.722C25.5209 503.739 27.5392 506.891 22.8339 504.109C21.3411 508.323 24.5536 508.633 24.8283 509.159C25.1268 509.732 23.9087 511.188 24.0043 511.26C24.6133 511.725 26.7988 510.161 27.993 512.704C30.3696 517.825 28.9843 523.877 29.4142 529.189C37.9888 527.948 34.6569 528.413 35.4093 524.259C36.6274 517.586 34.836 518.088 34.9913 515.653C35.1107 513.755 38.156 510.018 38.3829 506.95C38.3949 506.712 36.1378 503.071 35.9467 502.939C32.973 500.97 34.3225 505.804 32.3998 505.291L30.0113 501.722L29.9994 501.734ZM66.2088 520.463C64.8593 518.112 64.4533 513.993 63.4262 511.284L62.232 516.046L58.6731 513.659C58.3388 516.249 60.9303 517.288 61.7065 519.568C63.5695 525.095 65.4684 534.167 58.6731 524.403C61.9334 543.669 65.8267 528.103 68.4898 527.148C69.0272 526.957 73.0041 529.691 69.7199 523.471C68.7406 521.621 66.6268 521.168 66.2088 520.451V520.463ZM26.4047 514.865L24.0162 519.628L21.6516 517.252C21.986 521.072 23.013 523.507 20.4454 526.79C21.8785 526.623 23.1444 527.614 24.052 526.002C25.2104 523.949 26.2733 517.527 26.4166 514.865H26.4047ZM348.85 524.414H335.714C336.573 528.246 338.042 530.001 341.673 531.565C341.888 530.12 342.437 527.721 343.44 526.754C345.471 524.773 348.755 526.814 348.85 524.426V524.414ZM22.5712 528.354C18.8571 526.671 15.2266 533.129 19.2392 533.964L21.6277 531.577C23.025 534.669 18.3197 537.068 18.2958 538.118C18.2599 539.802 22.2726 542.308 22.4159 542.607C23.1563 544.111 21.2933 552.813 18.666 551.858C14.94 550.497 20.3618 543.645 15.6684 544.708C13.9965 554.819 17.1612 551.452 19.8364 554.174C20.2663 554.616 19.5617 559.94 22.81 560.214C20.2185 553.1 24.9597 547.047 25.2224 539.921C26.6674 540.518 27.8497 542.308 27.6348 539.312C27.4676 536.972 24.5058 529.237 22.5592 528.354H22.5712ZM326.16 530.383L321.383 532.186L327.342 543.49C328.118 539.193 325.646 535.695 323.783 532.114L326.16 530.371V530.383ZM28.8171 550.664C35.0271 547.346 35.3496 537.486 30.5965 532.771C31.325 538.918 30.7637 544.744 28.8171 550.664ZM313.011 536.352C304.233 539.885 311.757 539.312 312.88 540.028C313.429 540.375 313.608 551.464 313.023 553.064C308.067 549.184 312.963 560.226 313.608 561.48C314.062 562.363 314.743 565.753 316.618 563.783C316.821 563.569 314.408 560.19 314.229 558.316C313.608 551.464 318.6 543.992 313.011 536.34V536.352ZM220.063 542.165C219.299 541.437 219.382 538.775 217.507 538.739L216.313 549.483C218.164 548.444 221.472 544.6 222.261 542.893C223.718 539.718 220.171 542.273 220.063 542.165ZM275.345 545.388C274.437 544.027 274.365 542.225 273.016 541.127C270.078 540.625 271.141 543.228 271.774 544.767C272.908 547.525 275.858 550.318 278.402 551.858C279.011 548.623 276.503 547.119 275.357 545.388H275.345ZM203.165 555.451C194.327 554.126 192.619 561.694 202.006 560.895L203.165 555.451ZM77.7691 582.895C78.2587 583.79 83.6567 583.814 84.9345 584.101L85.5078 588.852C90.846 587.133 88.2784 583.742 89.6996 579.326C83.6925 583.444 85.0301 572.963 83.1312 569.776C81.519 567.066 73.6967 567.985 77.7571 561.42C74.5685 561.539 74.0072 564.858 70.6036 562.602C72.5502 566.911 72.18 566.123 71.7859 569.764C70.7469 568.558 70.8544 566.839 68.8242 567.388C66.8537 568.463 67.2597 571.829 66.9373 572.128C66.5313 572.51 60.0823 570.683 59.8554 570.958C58.1596 573.13 62.8888 574.038 63.9875 575.792C64.6921 576.914 64.4891 579.159 64.6324 579.326C64.9549 579.684 72.395 574.897 70.5797 581.701L67.009 580.519L68.1913 584.089L63.4143 584.113C64.2622 585.855 68.86 596.79 69.4333 597.232C70.0782 597.733 73.434 595.381 74.1505 596.05C74.4969 596.372 71.559 602.818 76.5271 604.394C73.4937 597.924 80.5278 594.725 80.7666 591.884C80.9338 589.914 78.7722 584.853 77.7333 582.919L77.7691 582.895ZM212.253 563.115C210.903 562.363 209.351 562.064 207.954 561.408C208.575 564.87 206.52 568.296 206.616 571.602C206.688 574.014 209.458 572.748 209.196 575.04C208.921 577.499 206.532 579.135 206.747 581.689L214.797 574.981C214.283 570.409 217.066 565.789 212.253 563.103V563.115ZM310.635 574.563C305.846 573.99 305.01 569.048 304.663 565.001C295.444 567.938 298.609 571.877 305.917 575.1C307.052 575.601 310.838 576.938 310.635 574.563ZM92.8285 571.543C91.6223 570.91 86.7378 567.914 86.1407 568.582C84.9942 572.402 87.956 571.793 88.9591 573.667C90.3445 576.258 92.3508 580.161 90.9177 582.883C94.2616 585.796 96.0529 572.712 95.6827 572.14C95.4797 571.829 94.0705 573.202 93.5809 572.999C93.3181 572.892 93.2584 571.758 92.8285 571.531V571.543ZM67.009 603.188C65.4206 598.294 63.0441 591.728 58.6731 588.864C59.6644 593.591 63.7487 599.559 67.009 603.188ZM80.1695 622.288C83.8597 622.729 89.0069 619.041 91.6104 618.707C102.502 617.31 110.897 617.716 122.9 614.278C127.115 613.072 142.199 609.503 141.076 603.809C140.443 600.634 135.439 605.313 133.576 603.678C129.504 603.224 120.762 611.341 119.986 611.532C119.209 611.723 117.239 610.553 116.021 610.816C109.19 612.308 104.078 616.08 94.9901 616.188C93.4137 616.212 87.132 615.197 86.1527 614.54C82.7371 612.272 86.3915 604.275 80.1934 607.951L80.7905 605.564C76.754 604.728 75.6672 606.495 75.4045 610.339L78.9872 611.52C70.9858 610.16 75.8702 614.827 74.2222 619.876C76.0374 620.02 77.996 619.65 79.4888 618.587C81.1727 617.382 80.7189 615.03 82.558 615.113C85.4003 623.374 80.5278 616.904 80.1934 622.264L80.1695 622.288Z" fill="#A1A2BD"/>
<path d="M77.7691 582.895C75.4164 578.478 72.8369 578.681 72.4428 578.215C70.8544 576.329 71.5829 571.841 71.7979 569.764C74.0311 572.378 75.3209 575.47 76.8376 578.514C77.6138 580.077 77.4586 582.334 77.7691 582.895Z" fill="#A1A2BD"/>
<path d="M233.009 77.9502C233.14 78.0696 233.033 80.2541 233.713 81.3762C236.759 86.3898 239.529 88.0133 236.591 94.6623C231.958 93.3134 235.529 87.7268 235.135 86.5211C235.087 86.3659 232.364 85.8526 233.009 83.9307L227.647 88.6698L224.709 82.0805C224.458 78.177 227.038 83.3936 230.011 82.7251C232.352 82.2118 229.557 74.6197 233.009 77.9502Z" fill="#A1A2BD"/>
<path d="M223.98 99.9742C223.24 100.595 223.956 101.741 221.723 101.884C220.911 101.932 212.683 100.893 212.707 100.046C217.328 100.285 217.591 93.6116 221.64 93.5161C222.977 93.4803 226.811 95.4141 227.038 96.4885C227.42 98.2313 225.019 99.1147 223.968 99.9861L223.98 99.9742Z" fill="#A1A2BD"/>
<path d="M248.522 137.648C249.501 138.484 255.58 152.928 253.311 155.554L250.922 150.779L248.558 154.348C248.152 151.316 250.003 148.511 249.728 145.515C249.621 144.392 243.781 133.577 248.522 137.648Z" fill="#A1A2BD"/>
<path d="M186.457 56.4751C186.732 56.7258 184.546 58.7073 185.86 58.8625C187.448 59.1371 192.142 55.8185 191.198 59.4116C189.801 64.7237 188.344 61.1545 185.908 61.1545C184.881 61.1545 185.693 63.9836 184.666 63.6135C181.597 62.5153 184.045 54.1951 186.457 56.4631V56.4751Z" fill="#A1A2BD"/>
<path d="M205.541 197.322C203.821 197.489 203.607 194.517 203.141 193.18C201.672 188.942 199.904 183.893 199.594 179.428C201.087 179.392 202.508 182.89 202.806 183.952C203.929 187.856 204.335 193.192 205.541 197.322Z" fill="#A1A2BD"/>
<path d="M172.114 248.665C170.108 249.966 170.944 253.141 170.753 253.284C170.215 253.69 159.634 257.415 158.046 257.88C153.986 259.05 148.062 261.091 144.647 257.606C149.077 258.262 152.612 257.092 156.589 255.027C158.655 253.953 163.862 249.918 166.979 248.915C168.639 248.378 170.43 248.712 172.114 248.677V248.665Z" fill="#A1A2BD"/>
<path d="M236.592 266.546C231.194 268.42 225.509 267.656 219.884 267.74C221.066 264.505 229.605 265.902 230.62 263.55C231.755 260.936 225.903 261.652 227.061 258.202C228.435 259.491 238.251 264.254 236.592 266.546Z" fill="#A1A2BD"/>
<path d="M141.064 237.921C138.807 241.299 136.43 238.924 138.664 243.878C137.326 242.278 131.892 242.493 131.522 240.882C129.934 234.053 137.744 239.712 141.064 237.921Z" fill="#A1A2BD"/>
<path d="M262.578 491.993C262.339 492.506 259.963 490.942 261.097 495.753C259.891 493.986 256.655 493.079 255.592 491.647C254.899 490.716 254.422 484.257 254.66 483.947C254.851 483.696 260.226 481.249 260.476 481.44C260.906 481.763 262.805 491.503 262.578 491.993Z" fill="#A1A2BD"/>
<path d="M239.004 481.429C239.099 481.572 239.792 481.369 240.174 481.429C239.732 475.973 246.36 483.124 238.98 483.243C238.311 486.693 242.849 484.294 243.769 485.022C246.301 487.051 242.61 487.075 242.145 487.409C240.425 488.675 242.539 489.498 242.575 490.978L235.421 483.219C235.421 479.292 238.849 485.583 237.81 479.065C239.935 478.588 238.574 480.796 239.004 481.452V481.429Z" fill="#A1A2BD"/>
<path d="M36.3408 432.14C36.6633 432.665 38.0486 432.438 38.1919 432.629C39.4697 434.396 33.4746 437.774 32.3879 440.257C32.2804 440.496 36.8782 441.868 34.7644 444.423C32.6506 446.978 32.6626 440.197 29.9994 442.047L31.1817 448.004C29.4381 444.865 19.6573 443.611 19.2632 442.62C18.2122 439.97 21.9383 440.973 23.4191 440.77C25.0552 440.543 29.462 440.627 29.7606 440.508C30.083 440.364 34.4659 435.601 34.5614 435.267C35.1705 433.309 34.6808 430.958 34.7883 428.917C36.8663 428.57 35.4929 430.755 36.3408 432.14Z" fill="#A1A2BD"/>
<path d="M70.3768 419.653L78.9514 428.893C73.231 431.113 76.6227 429.299 74.7238 426.625C73.2788 424.607 68.5496 422.745 67.0209 419.94L70.3648 419.653H70.3768Z" fill="#A1A2BD"/>
<path d="M167.505 396.566C168.782 397.485 177.608 391.815 175.685 399.073L173.309 397.844L172.711 401.449C170.633 400.685 172.27 397.951 172.102 397.879C171.171 397.474 164.364 401.377 165.534 393.104C166.764 393.677 166.943 396.16 167.505 396.566Z" fill="#A1A2BD"/>
<path d="M250.934 273.733C251.34 274.019 250.11 283.295 248.558 283.259C246.396 281.373 247.328 276.538 247.089 276.252C246.623 275.679 244.474 276.944 244.963 274.927C246.444 274.855 249.895 273.005 250.922 273.733H250.934Z" fill="#A1A2BD"/>
</g>
</g>
<defs>
<clipPath id="clip0_13_7387">
<rect width="468" height="626" fill="white"/>
</clipPath>
<clipPath id="clip1_13_7387">
<rect width="468" height="626" fill="white"/>
</clipPath>
</defs>
</svg>
