<svg width="1440" height="5196" viewBox="0 0 1440 5196" fill="none" xmlns="http://www.w3.org/2000/svg">
<g clip-path="url(#clip0_0_2797)">
<rect width="1440" height="5196" fill="#2F365B"/>
<g clip-path="url(#clip1_0_2797)">
<path d="M1483.47 1651.27C1409.43 1617.94 1234.25 1575.97 1125.87 1674.72C990.398 1798.16 816.687 1801.45 716.964 1783.82C617.24 1766.2 398.468 1768.54 272.716 1902.35C146.963 2036.17 29.7048 2100.49 -147.158 2109.34C-324.021 2118.19 -364.488 2015.75 -460.726 2098.04C-537.716 2163.88 -571.547 2233.78 -578.839 2260.49" stroke="#FFAD41" stroke-width="1.04293"/>
<path d="M1487.28 1665.54C1413.24 1632.22 1238.06 1590.25 1129.68 1689C994.207 1812.44 820.496 1815.73 720.773 1798.1C621.049 1780.47 402.277 1782.81 276.525 1916.63C150.772 2050.45 33.5137 2114.76 -143.349 2123.62C-320.213 2132.47 -360.679 2030.02 -456.917 2112.32C-533.907 2178.16 -567.738 2248.05 -575.03 2274.77" stroke="#FFAD41" stroke-width="1.04293"/>
<path d="M1472.95 1617.61C1398.91 1584.28 1223.73 1542.32 1115.35 1641.07C979.873 1764.5 806.162 1767.8 706.439 1750.17C606.715 1732.54 387.943 1734.88 262.191 1868.7C136.438 2002.52 19.1797 2066.83 -157.683 2075.68C-334.547 2084.53 -375.013 1982.09 -471.251 2064.39C-548.241 2130.23 -582.072 2200.12 -589.364 2226.84" stroke="#FFAD41" stroke-width="1.04293"/>
<path d="M1476.15 1623.82C1402.11 1590.49 1226.93 1548.52 1118.55 1647.27C983.074 1770.71 809.362 1774 709.639 1756.37C609.916 1738.74 391.144 1741.08 265.391 1874.9C139.639 2008.72 22.38 2073.04 -154.483 2081.89C-331.346 2090.74 -371.813 1988.29 -468.05 2070.59C-545.04 2136.43 -578.872 2206.32 -586.163 2233.04" stroke="#FFAD41" stroke-width="1.04293"/>
<path d="M1477.91 1630.4C1403.86 1597.08 1228.69 1555.11 1120.31 1653.86C984.832 1777.3 811.12 1780.59 711.397 1762.96C611.673 1745.33 392.902 1747.67 267.149 1881.49C141.397 2015.31 24.138 2079.62 -152.725 2088.48C-329.588 2097.33 -370.055 1994.88 -466.292 2077.18C-543.282 2143.02 -577.114 2212.91 -584.406 2239.63" stroke="#FFAD41" stroke-width="1.04293"/>
<path d="M1479.66 1636.99C1405.62 1603.67 1230.44 1561.7 1122.06 1660.45C986.59 1783.89 812.878 1787.18 713.155 1769.55C613.431 1751.92 394.66 1754.26 268.907 1888.08C143.155 2021.9 25.8959 2086.21 -150.967 2095.06C-327.83 2103.92 -368.297 2001.47 -464.534 2083.77C-541.524 2149.61 -575.356 2219.5 -582.648 2246.22" stroke="#FFAD41" stroke-width="1.04293"/>
<path d="M1481.42 1643.58C1407.38 1610.25 1232.2 1568.29 1123.82 1667.04C988.347 1790.47 814.636 1793.77 714.913 1776.14C615.189 1758.51 396.418 1760.85 270.665 1894.67C144.913 2028.49 27.6538 2092.8 -149.209 2101.65C-326.072 2110.5 -366.539 2008.06 -462.776 2090.36C-539.766 2156.2 -573.598 2226.09 -580.89 2252.81" stroke="#FFAD41" stroke-width="1.04293"/>
<path d="M1472.34 1609.54C1398.3 1576.21 1223.12 1534.24 1114.74 1632.99C979.265 1756.43 805.554 1759.72 705.83 1742.1C606.107 1724.47 387.335 1726.81 261.582 1860.63C135.83 1994.44 18.5712 2058.76 -158.292 2067.61C-335.155 2076.46 -375.621 1974.02 -471.859 2056.32C-548.849 2122.15 -582.68 2192.05 -589.972 2218.77" stroke="#FFAD41" stroke-width="1.04293"/>
<path d="M1484.94 1656.76C1410.9 1623.43 1235.72 1581.46 1127.34 1680.21C991.863 1803.65 818.152 1806.94 718.429 1789.31C618.705 1771.69 399.933 1774.03 274.181 1907.84C148.428 2041.66 31.1696 2105.98 -145.694 2114.83C-322.557 2123.68 -363.023 2021.24 -459.261 2103.53C-536.251 2169.37 -570.082 2239.27 -577.374 2265.99" stroke="#FFAD41" stroke-width="1.04293"/>
<path d="M1489.04 1672.13C1415 1638.81 1239.82 1596.84 1131.44 1695.59C995.965 1819.03 822.254 1822.32 722.53 1804.69C622.807 1787.06 404.035 1789.4 278.283 1923.22C152.53 2057.04 35.2715 2121.35 -141.592 2130.2C-318.455 2139.06 -358.921 2036.61 -455.159 2118.91C-532.149 2184.75 -565.98 2254.64 -573.272 2281.36" stroke="#FFAD41" stroke-width="1.04293"/>
<path d="M1491.09 1679.82C1417.05 1646.49 1241.87 1604.52 1133.49 1703.27C998.016 1826.71 824.305 1830 724.581 1812.38C624.858 1794.75 406.086 1797.09 280.334 1930.91C154.581 2064.72 37.3225 2129.04 -139.541 2137.89C-316.404 2146.74 -356.87 2044.3 -453.108 2126.59C-530.098 2192.43 -563.929 2262.33 -571.221 2289.05" stroke="#FFAD41" stroke-width="1.04293"/>
<path d="M1495.49 1696.29C1421.44 1662.96 1246.27 1621 1137.89 1719.75C1002.41 1843.18 828.7 1846.48 728.976 1828.85C629.253 1811.22 410.481 1813.56 284.729 1947.38C158.976 2081.2 41.7173 2145.51 -135.146 2154.36C-312.009 2163.21 -352.475 2060.77 -448.713 2143.07C-525.703 2208.91 -559.534 2278.8 -566.826 2305.52" stroke="#FFAD41" stroke-width="1.04293"/>
<path d="M1493.14 1687.51C1419.1 1654.18 1243.92 1612.21 1135.54 1710.96C1000.07 1834.4 826.356 1837.69 726.632 1820.06C626.909 1802.43 408.137 1804.77 282.385 1938.59C156.632 2072.41 39.3736 2136.73 -137.49 2145.58C-314.353 2154.43 -354.819 2051.98 -451.057 2134.28C-528.047 2200.12 -561.878 2270.01 -569.17 2296.73" stroke="#FFAD41" stroke-width="1.04293"/>
<path d="M1512.77 1761.08C1438.73 1727.75 1263.55 1685.79 1155.17 1784.54C1019.7 1907.97 845.986 1911.27 746.263 1893.64C646.539 1876.01 427.768 1878.35 302.015 2012.17C176.263 2145.99 59.0038 2210.3 -117.859 2219.15C-294.722 2228 -335.189 2125.56 -431.426 2207.86C-508.416 2273.7 -542.248 2343.59 -549.54 2370.31" stroke="#FFAD41" stroke-width="1.04293"/>
<path d="M1498.42 1707.27C1424.37 1673.95 1249.2 1631.98 1140.82 1730.73C1005.34 1854.17 831.63 1857.46 731.906 1839.83C632.183 1822.2 413.411 1824.54 287.658 1958.36C161.906 2092.18 44.6473 2156.49 -132.216 2165.34C-309.079 2174.2 -349.545 2071.75 -445.783 2154.05C-522.773 2219.89 -556.604 2289.78 -563.896 2316.5" stroke="#FFAD41" stroke-width="1.04293"/>
<path d="M1500.76 1716.06C1426.72 1682.73 1251.54 1640.76 1143.16 1739.51C1007.68 1862.95 833.974 1866.24 734.25 1848.61C634.527 1830.99 415.755 1833.32 290.002 1967.14C164.25 2100.96 46.9913 2165.28 -129.872 2174.13C-306.735 2182.98 -347.201 2080.53 -443.439 2162.83C-520.429 2228.67 -554.26 2298.57 -561.552 2325.28" stroke="#FFAD41" stroke-width="1.04293"/>
<path d="M1503.1 1724.84C1429.06 1691.52 1253.88 1649.55 1145.5 1748.3C1010.03 1871.73 836.317 1875.03 736.594 1857.4C636.871 1839.77 418.099 1842.11 292.346 1975.93C166.594 2109.75 49.3351 2174.06 -127.528 2182.91C-304.391 2191.77 -344.858 2089.32 -441.095 2171.62C-518.085 2237.46 -551.917 2307.35 -559.208 2334.07" stroke="#FFAD41" stroke-width="1.04293"/>
<path d="M1505.74 1734.73C1431.7 1701.4 1256.52 1659.43 1148.14 1758.18C1012.67 1881.62 838.954 1884.91 739.231 1867.28C639.507 1849.65 420.736 1851.99 294.983 1985.81C169.231 2119.63 51.972 2183.95 -124.891 2192.8C-301.754 2201.65 -342.221 2099.2 -438.458 2181.5C-515.448 2247.34 -549.28 2317.23 -556.572 2343.95" stroke="#FFAD41" stroke-width="1.04293"/>
<path d="M1508.08 1743.51C1434.04 1710.18 1258.86 1668.22 1150.48 1766.97C1015.01 1890.4 841.298 1893.7 741.575 1876.07C641.851 1858.44 423.08 1860.78 297.327 1994.6C171.575 2128.42 54.316 2192.73 -122.547 2201.58C-299.41 2210.43 -339.877 2107.99 -436.114 2190.29C-513.104 2256.12 -546.936 2326.02 -554.228 2352.74" stroke="#FFAD41" stroke-width="1.04293"/>
<path d="M1510.43 1752.29C1436.39 1718.97 1261.21 1677 1152.83 1775.75C1017.35 1899.19 843.642 1902.48 743.919 1884.85C644.195 1867.22 425.424 1869.56 299.671 2003.38C173.919 2137.2 56.6598 2201.51 -120.203 2210.37C-297.066 2219.22 -337.533 2116.77 -433.77 2199.07C-510.76 2264.91 -544.592 2334.8 -551.884 2361.52" stroke="#FFAD41" stroke-width="1.04293"/>
<path d="M1515.41 1770.96C1441.37 1737.64 1266.19 1695.67 1157.81 1794.42C1022.33 1917.86 848.623 1921.15 748.9 1903.52C649.176 1885.89 430.404 1888.23 304.652 2022.05C178.899 2155.87 61.6407 2220.18 -115.222 2229.04C-292.086 2237.89 -332.552 2135.44 -428.79 2217.74C-505.78 2283.58 -539.611 2353.47 -546.903 2380.19" stroke="#FFAD41" stroke-width="1.04293"/>
<path d="M1544.06 1878.33C1470.01 1845.01 1294.84 1803.04 1186.46 1901.79C1050.98 2025.23 877.27 2028.52 777.547 2010.89C677.824 1993.26 459.052 1995.6 333.299 2129.42C207.547 2263.24 90.2881 2327.55 -86.575 2336.41C-263.438 2345.26 -303.905 2242.81 -400.142 2325.11C-477.132 2390.95 -510.964 2460.84 -518.255 2487.56" stroke="#FFAD41" stroke-width="1.04293"/>
<path d="M1519.74 1787.19C1445.7 1753.86 1270.52 1711.89 1162.14 1810.64C1026.66 1934.08 852.952 1937.37 753.229 1919.75C653.506 1902.12 434.734 1904.46 308.981 2038.28C183.229 2172.09 65.97 2236.41 -110.893 2245.26C-287.756 2254.11 -328.223 2151.67 -424.46 2233.96C-501.45 2299.8 -535.282 2369.7 -542.574 2396.42" stroke="#FFAD41" stroke-width="1.04293"/>
<path d="M1517.39 1778.41C1443.35 1745.08 1268.17 1703.11 1159.79 1801.86C1024.32 1925.3 850.608 1928.59 750.885 1910.96C651.162 1893.33 432.39 1895.67 306.637 2029.49C180.885 2163.31 63.626 2227.63 -113.237 2236.48C-290.1 2245.33 -330.567 2142.88 -426.804 2225.18C-503.794 2291.02 -537.626 2360.91 -544.918 2387.63" stroke="#FFAD41" stroke-width="1.04293"/>
<path d="M1522.96 1799.27C1448.92 1765.94 1273.74 1723.97 1165.36 1822.72C1029.89 1946.16 856.175 1949.45 756.452 1931.82C656.728 1914.2 437.956 1916.54 312.204 2050.35C186.451 2184.17 69.1928 2248.49 -107.67 2257.34C-284.533 2266.19 -325 2163.75 -421.237 2246.04C-498.228 2311.88 -532.059 2381.78 -539.351 2408.49" stroke="#FFAD41" stroke-width="1.04293"/>
<path d="M1525.89 1810.25C1451.85 1776.92 1276.67 1734.95 1168.29 1833.7C1032.82 1957.14 859.105 1960.43 759.382 1942.81C659.658 1925.18 440.886 1927.52 315.134 2061.34C189.381 2195.15 72.1227 2259.47 -104.74 2268.32C-281.604 2277.17 -322.07 2174.73 -418.308 2257.03C-495.298 2322.86 -529.129 2392.76 -536.421 2419.48" stroke="#FFAD41" stroke-width="1.04293"/>
<path d="M1528.82 1821.23C1454.78 1787.9 1279.6 1745.94 1171.22 1844.69C1035.75 1968.12 862.035 1971.42 762.312 1953.79C662.588 1936.16 443.816 1938.5 318.064 2072.32C192.311 2206.14 75.0526 2270.45 -101.81 2279.3C-278.674 2288.15 -319.14 2185.71 -415.378 2268.01C-492.368 2333.85 -526.199 2403.74 -533.491 2430.46" stroke="#FFAD41" stroke-width="1.04293"/>
<path d="M1531.75 1832.21C1457.71 1798.89 1282.53 1756.92 1174.15 1855.67C1038.68 1979.11 864.965 1982.4 765.242 1964.77C665.518 1947.14 446.746 1949.48 320.994 2083.3C195.241 2217.12 77.9826 2281.43 -98.8805 2290.28C-275.744 2299.14 -316.21 2196.69 -412.448 2278.99C-489.438 2344.83 -523.269 2414.72 -530.561 2441.44" stroke="#FFAD41" stroke-width="1.04293"/>
<path d="M1534.97 1844.29C1460.93 1810.96 1285.75 1769 1177.37 1867.75C1041.9 1991.18 868.188 1994.48 768.464 1976.85C668.741 1959.22 449.969 1961.56 324.217 2095.38C198.464 2229.2 81.2054 2293.51 -95.6578 2302.36C-272.521 2311.21 -312.987 2208.77 -409.225 2291.07C-486.215 2356.91 -520.046 2426.8 -527.338 2453.52" stroke="#FFAD41" stroke-width="1.04293"/>
<path d="M1538.49 1857.47C1464.45 1824.14 1289.27 1782.17 1180.89 1880.92C1045.41 2004.36 871.703 2007.65 771.98 1990.02C672.257 1972.4 453.485 1974.74 327.732 2108.55C201.98 2242.37 84.7211 2306.69 -92.142 2315.54C-269.005 2324.39 -309.472 2221.95 -405.709 2304.24C-482.699 2370.08 -516.531 2439.98 -523.822 2466.69" stroke="#FFAD41" stroke-width="1.04293"/>
<path d="M1542.01 1870.65C1467.96 1837.32 1292.79 1795.35 1184.41 1894.1C1048.93 2017.54 875.22 2020.83 775.496 2003.2C675.773 1985.57 457.001 1987.91 331.248 2121.73C205.496 2255.55 88.2372 2319.87 -88.6259 2328.72C-265.489 2337.57 -305.955 2235.12 -402.193 2317.42C-479.183 2383.26 -513.014 2453.16 -520.306 2479.87" stroke="#FFAD41" stroke-width="1.04293"/>
<g filter="url(#filter0_f_0_2797)">
<ellipse cx="2.60733" cy="2.08586" rx="2.60733" ry="2.08586" transform="matrix(-0.9662 0.257792 0.257792 0.9662 910.302 2363.29)" fill="#D9D9D9" fill-opacity="0.2"/>
</g>
</g>
<g clip-path="url(#clip2_0_2797)">
<path d="M1587.44 4982.13C1500.36 5006.58 1303.75 5022.27 1214.02 4889.44C1101.85 4723.4 918.38 4687.64 808.06 4689.41C697.74 4691.19 466.213 4648.21 367.02 4472.1C267.827 4295.99 159.864 4200.88 -25.5294 4158.18C-210.923 4115.48 -280.068 4225.11 -361.125 4113.32C-425.971 4023.88 -443.986 3937.77 -444.888 3905.89" stroke="#FFAD41" stroke-width="1.04293"/>
<path d="M1595.14 4966.52C1508.05 4990.96 1311.44 5006.66 1221.71 4873.83C1109.54 4707.79 926.073 4672.02 815.753 4673.8C705.433 4675.57 473.907 4632.59 374.713 4456.48C275.52 4280.37 167.558 4185.26 -17.8359 4142.56C-203.23 4099.86 -272.374 4209.49 -353.432 4097.7C-418.278 4008.27 -436.293 3922.16 -437.195 3890.28" stroke="#FFAD41" stroke-width="1.04293"/>
<path d="M1567.66 5018.66C1480.58 5043.11 1283.97 5058.8 1194.24 4925.97C1082.07 4759.93 898.602 4724.16 788.282 4725.94C677.962 4727.71 446.436 4684.73 347.242 4508.62C248.049 4332.51 140.086 4237.4 -45.3073 4194.7C-230.701 4152 -299.846 4261.63 -380.903 4149.84C-445.749 4060.41 -463.764 3974.3 -464.666 3942.42" stroke="#FFAD41" stroke-width="1.04293"/>
<path d="M1572.65 5012.16C1485.56 5036.61 1288.95 5052.3 1199.22 4919.47C1087.06 4753.43 903.585 4717.66 793.265 4719.44C682.945 4721.21 451.418 4678.23 352.225 4502.12C253.031 4326.01 145.069 4230.91 -40.3244 4188.2C-225.718 4145.5 -294.863 4255.13 -375.92 4143.34C-440.766 4053.91 -458.781 3967.8 -459.683 3935.92" stroke="#FFAD41" stroke-width="1.04293"/>
<path d="M1576.2 5004.95C1489.11 5029.4 1292.5 5045.09 1202.77 4912.26C1090.61 4746.22 907.135 4710.46 796.816 4712.23C686.496 4714.01 454.969 4671.03 355.776 4494.92C256.582 4318.81 148.62 4223.7 -36.7735 4181C-222.167 4138.3 -291.312 4247.93 -372.369 4136.14C-437.215 4046.7 -455.231 3960.59 -456.133 3928.71" stroke="#FFAD41" stroke-width="1.04293"/>
<path d="M1579.75 4997.74C1492.66 5022.19 1296.06 5037.88 1206.32 4905.05C1094.16 4739.02 910.686 4703.25 800.366 4705.02C690.046 4706.8 458.52 4663.82 359.327 4487.71C260.133 4311.6 152.171 4216.49 -33.2227 4173.79C-218.616 4131.09 -287.761 4240.72 -368.819 4128.93C-433.664 4039.5 -451.68 3953.38 -452.582 3921.5" stroke="#FFAD41" stroke-width="1.04293"/>
<path d="M1583.3 4990.54C1496.21 5014.99 1299.61 5030.68 1209.87 4897.85C1097.71 4731.81 914.237 4696.04 803.917 4697.82C693.597 4699.59 462.071 4656.61 362.877 4480.5C263.684 4304.39 155.722 4209.29 -29.672 4166.58C-215.066 4123.88 -284.21 4233.51 -365.268 4121.72C-430.114 4032.29 -448.129 3946.18 -449.031 3914.3" stroke="#FFAD41" stroke-width="1.04293"/>
<path d="M1564.95 5027.77C1477.87 5052.22 1281.26 5067.91 1191.53 4935.08C1079.36 4769.04 895.891 4733.28 785.571 4735.05C675.251 4736.83 443.725 4693.85 344.532 4517.74C245.338 4341.63 137.376 4246.52 -48.0178 4203.82C-233.411 4161.12 -302.556 4270.75 -383.614 4158.96C-448.459 4069.52 -466.475 3983.41 -467.377 3951.53" stroke="#FFAD41" stroke-width="1.04293"/>
<path d="M1590.4 4976.13C1503.31 5000.57 1306.71 5016.26 1216.98 4883.44C1104.81 4717.4 921.339 4681.63 811.019 4683.41C700.699 4685.18 469.172 4642.2 369.979 4466.09C270.785 4289.98 162.823 4194.87 -22.5704 4152.17C-207.964 4109.47 -277.109 4219.1 -358.166 4107.31C-423.012 4017.88 -441.027 3931.76 -441.929 3899.89" stroke="#FFAD41" stroke-width="1.04293"/>
<path d="M1598.69 4959.31C1511.6 4983.76 1314.99 4999.45 1225.26 4866.62C1113.1 4700.58 929.624 4664.82 819.304 4666.59C708.984 4668.37 477.458 4625.39 378.264 4449.28C279.071 4273.17 171.109 4178.06 -14.2851 4135.36C-199.679 4092.66 -268.824 4202.28 -349.881 4090.5C-414.727 4001.06 -432.742 3914.95 -433.644 3883.07" stroke="#FFAD41" stroke-width="1.04293"/>
<path d="M1602.83 4950.9C1515.74 4975.35 1319.14 4991.04 1229.4 4858.21C1117.24 4692.18 933.766 4656.41 823.447 4658.18C713.127 4659.96 481.6 4616.98 382.407 4440.87C283.213 4264.76 175.251 4169.65 -10.1426 4126.95C-195.536 4084.25 -264.681 4193.88 -345.738 4082.09C-410.584 3992.66 -428.6 3906.54 -429.502 3874.66" stroke="#FFAD41" stroke-width="1.04293"/>
<path d="M1611.71 4932.89C1524.62 4957.33 1328.01 4973.02 1238.28 4840.2C1126.12 4674.16 942.643 4638.39 832.323 4640.17C722.004 4641.94 490.477 4598.96 391.284 4422.85C292.09 4246.74 184.128 4151.63 -1.2656 4108.93C-186.659 4066.23 -255.804 4175.86 -336.861 4064.07C-401.707 3974.64 -419.723 3888.52 -420.625 3856.65" stroke="#FFAD41" stroke-width="1.04293"/>
<path d="M1606.97 4942.49C1519.88 4966.94 1323.28 4982.63 1233.55 4849.8C1121.38 4683.77 937.909 4648 827.589 4649.78C717.269 4651.55 485.743 4608.57 386.549 4432.46C287.356 4256.35 179.394 4161.24 -5.99996 4118.54C-191.394 4075.84 -260.538 4185.47 -341.596 4073.68C-406.442 3984.25 -424.457 3898.13 -425.359 3866.26" stroke="#FFAD41" stroke-width="1.04293"/>
<path d="M1646.62 4862.02C1559.54 4886.47 1362.93 4902.16 1273.2 4769.33C1161.03 4603.3 977.56 4567.53 867.24 4569.31C756.92 4571.08 525.393 4528.1 426.2 4351.99C327.007 4175.88 219.044 4080.77 33.6507 4038.07C-151.743 3995.37 -220.888 4105 -301.945 3993.21C-366.791 3903.78 -384.806 3817.66 -385.708 3785.78" stroke="#FFAD41" stroke-width="1.04293"/>
<path d="M1617.62 4920.88C1530.54 4945.32 1333.93 4961.01 1244.2 4828.19C1132.03 4662.15 948.561 4626.38 838.242 4628.16C727.922 4629.93 496.395 4586.95 397.202 4410.84C298.008 4234.73 190.046 4139.62 4.65249 4096.92C-180.741 4054.22 -249.886 4163.85 -330.943 4052.06C-395.789 3962.63 -413.805 3876.51 -414.707 3844.64" stroke="#FFAD41" stroke-width="1.04293"/>
<path d="M1622.36 4911.27C1535.27 4935.72 1338.67 4951.41 1248.93 4818.58C1136.77 4652.54 953.296 4616.78 842.976 4618.55C732.656 4620.32 501.13 4577.35 401.936 4401.24C302.743 4225.13 194.781 4130.02 9.38688 4087.32C-176.007 4044.61 -245.152 4154.24 -326.209 4042.45C-391.055 3953.02 -409.07 3866.91 -409.972 3835.03" stroke="#FFAD41" stroke-width="1.04293"/>
<path d="M1627.09 4901.66C1540.01 4926.11 1343.4 4941.8 1253.67 4808.97C1141.5 4642.93 958.03 4607.17 847.71 4608.94C737.39 4610.71 505.864 4567.74 406.671 4391.63C307.477 4215.52 199.515 4120.41 14.1212 4077.71C-171.272 4035 -240.417 4144.63 -321.475 4032.84C-386.32 3943.41 -404.336 3857.3 -405.238 3825.42" stroke="#FFAD41" stroke-width="1.04293"/>
<path d="M1632.42 4890.85C1545.33 4915.3 1348.73 4930.99 1258.99 4798.16C1146.83 4632.12 963.357 4596.36 853.037 4598.13C742.717 4599.9 511.19 4556.93 411.997 4380.82C312.803 4204.71 204.841 4109.6 19.4475 4066.9C-165.946 4024.19 -235.091 4133.82 -316.148 4022.03C-380.994 3932.6 -399.01 3846.49 -399.911 3814.61" stroke="#FFAD41" stroke-width="1.04293"/>
<path d="M1637.15 4881.24C1550.07 4905.69 1353.46 4921.38 1263.73 4788.55C1151.56 4622.51 968.091 4586.75 857.771 4588.52C747.451 4590.3 515.925 4547.32 416.731 4371.21C317.538 4195.1 209.575 4099.99 24.1818 4057.29C-161.212 4014.59 -230.357 4124.22 -311.414 4012.43C-376.26 3923 -394.275 3836.88 -395.177 3805" stroke="#FFAD41" stroke-width="1.04293"/>
<path d="M1641.89 4871.63C1554.8 4896.08 1358.19 4911.77 1268.46 4778.94C1156.3 4612.91 972.825 4577.14 862.505 4578.91C752.185 4580.69 520.659 4537.71 421.466 4361.6C322.272 4185.49 214.31 4090.38 28.9163 4047.68C-156.477 4004.98 -225.622 4114.61 -306.68 4002.82C-371.525 3913.39 -389.541 3827.27 -390.443 3795.39" stroke="#FFAD41" stroke-width="1.04293"/>
<path d="M1651.95 4851.22C1564.86 4875.66 1368.26 4891.35 1278.52 4758.53C1166.36 4592.49 982.886 4556.72 872.566 4558.5C762.246 4560.27 530.72 4517.29 431.526 4341.18C332.333 4165.07 224.371 4069.96 38.9768 4027.26C-146.417 3984.56 -215.562 4094.19 -296.619 3982.4C-361.465 3892.97 -379.48 3806.85 -380.382 3774.98" stroke="#FFAD41" stroke-width="1.04293"/>
<path d="M1709.81 4733.78C1622.73 4758.23 1426.12 4773.92 1336.39 4641.09C1224.22 4475.05 1040.75 4439.29 930.43 4441.06C820.11 4442.84 588.584 4399.86 489.39 4223.75C390.197 4047.64 282.235 3952.53 96.841 3909.83C-88.5527 3867.13 -157.697 3976.76 -238.755 3864.97C-303.601 3775.53 -321.616 3689.42 -322.518 3657.54" stroke="#FFAD41" stroke-width="1.04293"/>
<path d="M1660.69 4833.47C1573.61 4857.92 1377 4873.61 1287.27 4740.78C1175.1 4574.74 991.63 4538.97 881.311 4540.75C770.991 4542.52 539.464 4499.54 440.271 4323.43C341.077 4147.32 233.115 4052.22 47.7215 4009.51C-137.672 3966.81 -206.817 4076.44 -287.874 3964.65C-352.72 3875.22 -370.736 3789.11 -371.638 3757.23" stroke="#FFAD41" stroke-width="1.04293"/>
<path d="M1655.96 4843.07C1568.87 4867.52 1372.27 4883.21 1282.53 4750.38C1170.37 4584.35 986.896 4548.58 876.576 4550.36C766.256 4552.13 534.73 4509.15 435.536 4333.04C336.343 4156.93 228.381 4061.82 42.9871 4019.12C-142.407 3976.42 -211.551 4086.05 -292.609 3974.26C-357.455 3884.83 -375.47 3798.71 -376.372 3766.84" stroke="#FFAD41" stroke-width="1.04293"/>
<path d="M1667.2 4820.26C1580.12 4844.7 1383.51 4860.4 1293.78 4727.57C1181.61 4561.53 998.14 4525.76 887.82 4527.54C777.501 4529.31 545.974 4486.33 446.781 4310.22C347.587 4134.11 239.625 4039 54.2314 3996.3C-131.162 3953.6 -200.307 4063.23 -281.364 3951.44C-346.21 3862.01 -364.226 3775.9 -365.128 3744.02" stroke="#FFAD41" stroke-width="1.04293"/>
<path d="M1673.12 4808.24C1586.03 4832.69 1389.43 4848.38 1299.7 4715.55C1187.53 4549.52 1004.06 4513.75 893.738 4515.53C783.418 4517.3 551.892 4474.32 452.698 4298.21C353.505 4122.1 245.543 4026.99 60.1491 3984.29C-125.245 3941.59 -194.389 4051.22 -275.447 3939.43C-340.293 3850 -358.308 3763.88 -359.21 3732.01" stroke="#FFAD41" stroke-width="1.04293"/>
<path d="M1679.04 4796.23C1591.95 4820.68 1395.35 4836.37 1305.61 4703.54C1193.45 4537.51 1009.98 4501.74 899.656 4503.52C789.336 4505.29 557.81 4462.31 458.617 4286.2C359.423 4110.09 251.461 4014.98 66.0673 3972.28C-119.326 3929.58 -188.471 4039.21 -269.529 3927.42C-334.374 3837.99 -352.39 3751.87 -353.292 3720" stroke="#FFAD41" stroke-width="1.04293"/>
<path d="M1684.96 4784.22C1597.87 4808.67 1401.26 4824.36 1311.53 4691.53C1199.37 4525.5 1015.89 4489.73 905.574 4491.5C795.254 4493.28 563.728 4450.3 464.535 4274.19C365.341 4098.08 257.379 4002.97 71.9853 3960.27C-113.408 3917.57 -182.553 4027.2 -263.611 3915.41C-328.456 3825.98 -346.472 3739.86 -347.374 3707.98" stroke="#FFAD41" stroke-width="1.04293"/>
<path d="M1691.47 4771.01C1604.38 4795.46 1407.77 4811.15 1318.04 4678.32C1205.88 4512.29 1022.4 4476.52 912.084 4478.29C801.764 4480.07 570.238 4437.09 471.045 4260.98C371.851 4084.87 263.889 3989.76 78.4953 3947.06C-106.898 3904.36 -176.043 4013.99 -257.101 3902.2C-321.946 3812.77 -339.962 3726.65 -340.864 3694.77" stroke="#FFAD41" stroke-width="1.04293"/>
<path d="M1698.57 4756.6C1611.48 4781.05 1414.88 4796.74 1325.14 4663.91C1212.98 4497.87 1029.51 4462.11 919.186 4463.88C808.866 4465.66 577.34 4422.68 478.146 4246.57C378.953 4070.46 270.991 3975.35 85.5968 3932.65C-99.7968 3889.95 -168.942 3999.58 -249.999 3887.79C-314.845 3798.35 -332.86 3712.24 -333.762 3680.36" stroke="#FFAD41" stroke-width="1.04293"/>
<path d="M1705.67 4742.19C1618.58 4766.63 1421.98 4782.32 1332.24 4649.5C1220.08 4483.46 1036.61 4447.69 926.287 4449.47C815.967 4451.24 584.441 4408.26 485.247 4232.15C386.054 4056.04 278.092 3960.93 92.6981 3918.23C-92.6955 3875.53 -161.84 3985.16 -242.898 3873.37C-307.744 3783.94 -325.759 3697.83 -326.661 3665.95" stroke="#FFAD41" stroke-width="1.04293"/>
<g filter="url(#filter1_f_0_2797)">
<ellipse cx="1150.23" cy="4195.3" rx="2.60733" ry="2.08586" transform="rotate(-153.769 1150.23 4195.3)" fill="#D9D9D9" fill-opacity="0.2"/>
</g>
</g>
<g clip-path="url(#clip3_0_2797)">
<path fill-rule="evenodd" clip-rule="evenodd" d="M517.645 839.791C440.899 813.312 375.914 770.697 338.294 738.009C262.901 672.501 115.28 590.243 -57.659 639.531C-126.558 659.168 -192.718 637.759 -247.47 602.959C-302.224 568.157 -345.51 519.997 -368.61 486.261L-369.43 486.824C-346.267 520.652 -302.887 568.917 -247.998 603.805C-193.107 638.693 -126.648 660.238 -57.3783 640.496C115.106 591.338 262.384 673.37 337.646 738.765C375.353 771.528 440.449 814.213 517.329 840.739C594.21 867.265 682.92 877.647 767.815 845.731C852.532 813.882 927.139 797.284 999.634 798.441C1072.12 799.597 1142.53 818.506 1218.85 857.717C1285.36 891.887 1320.02 933.139 1347.95 966.387C1352.05 971.269 1356.01 975.978 1359.9 980.467C1375.09 997.992 1389.32 1012.2 1407.31 1020.13C1425.32 1028.07 1447.03 1029.69 1477.13 1022.2C1573.32 998.239 1635.19 949.277 1654.14 927.735L1653.39 927.067C1634.58 948.453 1572.88 997.312 1476.88 1021.22C1446.92 1028.68 1425.45 1027.04 1407.71 1019.21C1389.94 1011.38 1375.83 997.326 1360.65 979.812C1356.77 975.333 1352.82 970.63 1348.72 965.751C1320.78 932.495 1285.99 891.093 1219.3 856.825C1142.86 817.555 1072.31 798.597 999.64 797.438C926.98 796.279 852.244 812.917 767.458 844.792C682.848 876.6 594.389 866.27 517.645 839.791Z" fill="#FFAD41"/>
<path fill-rule="evenodd" clip-rule="evenodd" d="M521.263 824.542C444.517 798.062 379.532 755.448 341.912 722.76C266.519 657.252 118.898 574.994 -54.0408 624.282C-122.94 643.919 -189.1 622.51 -243.852 587.71C-298.606 552.908 -341.892 504.748 -364.992 471.012L-365.812 471.575C-342.649 505.403 -299.269 553.668 -244.38 588.556C-189.489 623.444 -123.03 644.989 -53.7601 625.247C118.724 576.088 266.002 658.121 341.264 723.516C378.971 756.279 444.067 798.964 520.947 825.49C597.828 852.016 686.538 862.398 771.433 830.482C856.15 798.633 930.758 782.035 1003.25 783.192C1075.74 784.348 1146.15 803.257 1222.47 842.468C1288.97 876.638 1323.64 917.89 1351.57 951.138C1355.67 956.02 1359.63 960.729 1363.52 965.218C1378.71 982.743 1392.94 996.952 1410.93 1004.88C1428.94 1012.82 1450.64 1014.44 1480.75 1006.95C1576.93 982.99 1638.81 934.028 1657.76 912.486L1657.01 911.818C1638.2 933.204 1576.5 982.063 1480.5 1005.97C1450.54 1013.43 1429.07 1011.79 1411.32 1003.97C1393.56 996.132 1379.45 982.077 1364.27 964.563C1360.39 960.084 1356.44 955.381 1352.34 950.502C1324.4 917.246 1289.61 875.844 1222.92 841.576C1146.48 802.306 1075.92 783.348 1003.26 782.189C930.598 781.03 855.863 797.668 771.076 829.543C686.467 861.351 598.008 851.021 521.263 824.542Z" fill="#FFAD41"/>
<path fill-rule="evenodd" clip-rule="evenodd" d="M510.412 876.501C433.666 850.021 368.681 807.407 331.061 774.719C255.668 709.211 108.047 626.953 -64.8919 676.241C-133.791 695.878 -199.951 674.469 -254.703 639.669C-309.457 604.867 -352.743 556.707 -375.843 522.971L-376.663 523.534C-353.5 557.362 -310.12 605.627 -255.231 640.515C-200.34 675.403 -133.881 696.948 -64.6113 677.206C107.873 628.047 255.151 710.08 330.413 775.475C368.12 808.238 433.216 850.923 510.096 877.449C586.977 903.975 675.687 914.357 760.582 882.441C845.299 850.592 919.907 833.994 992.401 835.151C1064.89 836.307 1135.3 855.216 1211.62 894.427C1278.12 928.597 1312.78 969.849 1340.72 1003.1C1344.82 1007.98 1348.78 1012.69 1352.67 1017.18C1367.86 1034.7 1382.09 1048.91 1400.08 1056.84C1418.09 1064.78 1439.79 1066.4 1469.9 1058.91C1566.08 1034.95 1627.96 985.987 1646.91 964.445L1646.16 963.777C1627.34 985.163 1565.65 1034.02 1469.65 1057.93C1439.69 1065.39 1418.22 1063.75 1400.47 1055.92C1382.71 1048.09 1368.6 1034.04 1353.42 1016.52C1349.54 1012.04 1345.58 1007.34 1341.49 1002.46C1313.55 969.205 1278.76 927.803 1212.06 893.535C1135.63 854.265 1065.07 835.307 992.407 834.148C919.747 832.989 845.012 849.627 760.225 881.502C675.615 913.31 587.156 902.98 510.412 876.501Z" fill="#FFAD41"/>
<path fill-rule="evenodd" clip-rule="evenodd" d="M510.686 869.115C433.941 842.636 368.956 800.021 331.336 767.333C255.943 701.825 108.322 619.568 -64.6172 668.856C-133.516 688.492 -199.677 667.084 -254.429 632.283C-309.182 597.482 -352.468 549.322 -375.569 515.585L-376.389 516.148C-353.226 549.976 -309.845 598.241 -254.956 633.129C-200.065 668.017 -133.606 689.562 -64.3365 669.82C108.148 620.662 255.426 702.695 330.688 768.089C368.395 800.853 433.491 843.537 510.371 870.063C587.251 896.589 675.962 906.971 760.857 875.056C845.574 843.207 920.181 826.609 992.676 827.765C1065.16 828.921 1135.57 847.83 1211.89 887.041C1278.4 921.211 1313.06 962.463 1340.99 995.711C1345.1 1000.59 1349.05 1005.3 1352.94 1009.79C1368.14 1027.32 1382.37 1041.53 1400.35 1049.46C1418.36 1057.4 1440.07 1059.02 1470.17 1051.52C1566.36 1027.56 1628.23 978.601 1647.18 957.06L1646.43 956.392C1627.62 977.777 1565.92 1026.64 1469.92 1050.55C1439.97 1058.01 1418.5 1056.36 1400.75 1048.54C1382.98 1040.71 1368.88 1026.65 1353.69 1009.14C1349.81 1004.66 1345.86 999.954 1341.76 995.076C1313.82 961.82 1279.04 920.417 1212.34 886.15C1135.91 846.88 1065.35 827.922 992.682 826.763C920.022 825.604 845.286 842.241 760.499 874.116C675.89 905.925 587.431 895.595 510.686 869.115Z" fill="#FFAD41"/>
<path fill-rule="evenodd" clip-rule="evenodd" d="M512.357 862.078C435.611 835.599 370.626 792.984 333.006 760.296C257.613 694.788 109.992 612.53 -62.9471 661.818C-131.846 681.455 -198.006 660.047 -252.759 625.246C-307.512 590.445 -350.798 542.285 -373.899 508.548L-374.719 509.111C-351.555 542.939 -308.175 591.204 -253.286 626.092C-198.395 660.98 -131.936 682.525 -62.6665 662.783C109.818 613.625 257.096 695.658 332.358 761.052C370.065 793.816 435.161 836.5 512.041 863.026C588.921 889.552 677.632 899.934 762.527 868.018C847.244 836.17 921.851 819.571 994.346 820.728C1066.84 821.884 1137.24 840.793 1213.56 880.004C1280.07 914.174 1314.73 955.426 1342.66 988.674C1346.77 993.556 1350.72 998.265 1354.61 1002.75C1369.81 1020.28 1384.04 1034.49 1402.02 1042.42C1420.03 1050.36 1441.74 1051.98 1471.84 1044.48C1568.03 1020.53 1629.9 971.564 1648.85 950.023L1648.1 949.354C1629.29 970.74 1567.59 1019.6 1471.59 1043.51C1441.64 1050.97 1420.17 1049.33 1402.42 1041.5C1384.65 1033.67 1370.55 1019.61 1355.36 1002.1C1351.48 997.62 1347.53 992.917 1343.43 988.038C1315.49 954.782 1280.71 913.38 1214.01 879.112C1137.58 839.843 1067.02 820.885 994.352 819.725C921.692 818.566 846.956 835.204 762.17 867.079C677.56 898.887 589.101 888.558 512.357 862.078Z" fill="#FFAD41"/>
<path fill-rule="evenodd" clip-rule="evenodd" d="M514.026 855.04C437.281 828.561 372.296 785.946 334.676 753.258C259.283 687.75 111.661 605.492 -61.2772 654.78C-130.176 674.417 -196.337 653.008 -251.089 618.208C-305.842 583.406 -349.128 535.246 -372.229 501.51L-373.049 502.073C-349.886 535.901 -306.505 584.166 -251.616 619.054C-196.725 653.942 -130.266 675.487 -60.9965 655.745C111.488 606.587 258.766 688.62 334.027 754.014C371.735 786.777 436.831 829.462 513.711 855.988C590.591 882.514 679.302 892.896 764.197 860.98C848.914 829.132 923.521 812.533 996.016 813.69C1068.5 814.846 1138.91 833.755 1215.23 872.966C1281.74 907.136 1316.4 948.388 1344.33 981.636C1348.44 986.518 1352.39 991.227 1356.28 995.716C1371.48 1013.24 1385.71 1027.45 1403.69 1035.38C1421.7 1043.32 1443.41 1044.94 1473.51 1037.44C1569.7 1013.49 1631.57 964.526 1650.52 942.984L1649.77 942.316C1630.96 963.702 1569.26 1012.56 1473.26 1036.47C1443.31 1043.93 1421.84 1042.29 1404.09 1034.46C1386.32 1026.63 1372.22 1012.57 1357.03 995.061C1353.15 990.582 1349.2 985.879 1345.1 981C1317.16 947.744 1282.38 906.342 1215.68 872.074C1139.25 832.804 1068.69 813.847 996.022 812.687C923.362 811.528 848.626 828.166 763.839 860.041C679.23 891.849 590.771 881.519 514.026 855.04Z" fill="#FFAD41"/>
<path fill-rule="evenodd" clip-rule="evenodd" d="M515.696 848.002C438.951 821.522 373.966 778.908 336.346 746.22C260.953 680.712 113.331 598.454 -59.6073 647.742C-128.507 667.379 -194.667 645.97 -249.419 611.17C-304.172 576.368 -347.458 528.208 -370.559 494.472L-371.379 495.035C-348.216 528.863 -304.835 577.128 -249.946 612.016C-195.056 646.904 -128.596 668.449 -59.3266 648.707C113.157 599.548 260.436 681.581 335.697 746.976C373.405 779.739 438.501 822.424 515.381 848.95C592.261 875.476 680.972 885.858 765.867 853.942C850.584 822.093 925.191 805.495 997.686 806.652C1070.17 807.808 1140.58 826.717 1216.9 865.928C1283.41 900.098 1318.07 941.35 1346 974.598C1350.11 979.48 1354.06 984.189 1357.95 988.678C1373.15 1006.2 1387.38 1020.41 1405.36 1028.34C1423.37 1036.28 1445.08 1037.9 1475.18 1030.41C1571.37 1006.45 1633.24 957.488 1652.19 935.946L1651.44 935.278C1632.63 956.664 1570.93 1005.52 1474.93 1029.43C1444.98 1036.89 1423.51 1035.25 1405.76 1027.43C1387.99 1019.59 1373.89 1005.54 1358.7 988.023C1354.82 983.544 1350.87 978.841 1346.77 973.962C1318.83 940.706 1284.05 899.304 1217.35 865.036C1140.92 825.766 1070.36 806.808 997.692 805.649C925.032 804.49 850.296 821.128 765.509 853.003C680.9 884.811 592.441 874.481 515.696 848.002Z" fill="#FFAD41"/>
<path fill-rule="evenodd" clip-rule="evenodd" d="M507.068 884.364C430.323 857.885 365.337 815.27 327.718 782.582C252.325 717.074 104.703 634.817 -68.2353 684.105C-137.135 703.741 -203.295 682.333 -258.047 647.532C-312.8 612.731 -356.086 564.571 -379.187 530.834L-380.007 531.397C-356.844 565.225 -313.463 613.49 -258.574 648.378C-203.684 683.267 -137.225 704.811 -67.9546 685.069C104.529 635.911 251.808 717.944 327.069 783.338C364.777 816.102 429.873 858.786 506.753 885.312C583.633 911.838 672.344 922.22 757.239 890.305C841.956 858.456 916.563 841.858 989.058 843.014C1061.55 844.17 1131.96 863.079 1208.27 902.29C1274.78 936.46 1309.44 977.712 1337.38 1010.96C1341.48 1015.84 1345.44 1020.55 1349.33 1025.04C1364.52 1042.57 1378.75 1056.77 1396.74 1064.71C1414.74 1072.64 1436.45 1074.27 1466.55 1066.77C1562.74 1042.81 1624.61 993.85 1643.56 972.309L1642.81 971.641C1624 993.026 1562.3 1041.89 1466.3 1065.8C1436.35 1073.26 1414.88 1071.61 1397.13 1063.79C1379.36 1055.95 1365.26 1041.9 1350.08 1024.39C1346.19 1019.91 1342.24 1015.2 1338.14 1010.32C1310.2 977.069 1275.42 935.666 1208.72 901.399C1132.29 862.129 1061.73 843.171 989.064 842.012C916.404 840.853 841.668 857.49 756.881 889.365C672.272 921.174 583.813 910.844 507.068 884.364Z" fill="#FFAD41"/>
<path fill-rule="evenodd" clip-rule="evenodd" d="M519.036 833.926C442.29 807.446 377.305 764.832 339.685 732.144C264.293 666.636 116.671 584.378 -56.2674 633.666C-125.167 653.303 -191.327 631.894 -246.079 597.094C-300.832 562.292 -344.118 514.132 -367.219 480.396L-368.039 480.958C-344.876 514.787 -301.496 563.052 -246.606 597.939C-191.716 632.828 -125.257 654.373 -55.9868 634.631C116.497 585.472 263.776 667.505 339.037 732.9C376.745 765.663 441.841 808.348 518.72 834.874C595.601 861.4 684.312 871.782 769.207 839.866C853.924 808.017 928.531 791.419 1001.03 792.575C1073.51 793.732 1143.92 812.641 1220.24 851.852C1286.75 886.022 1321.41 927.274 1349.34 960.522C1353.45 965.403 1357.4 970.113 1361.29 974.601C1376.49 992.127 1390.72 1006.34 1408.7 1014.27C1426.71 1022.21 1448.42 1023.83 1478.52 1016.33C1574.71 992.374 1636.58 943.412 1655.53 921.87L1654.78 921.202C1635.97 942.587 1574.27 991.447 1478.27 1015.36C1448.32 1022.82 1426.85 1021.17 1409.1 1013.35C1391.33 1005.52 1377.23 991.461 1362.04 973.947C1358.16 969.467 1354.21 964.764 1350.11 959.886C1322.17 926.63 1287.39 885.228 1220.69 850.96C1144.26 811.69 1073.7 792.732 1001.03 791.573C928.372 790.414 853.636 807.052 768.849 838.927C684.24 870.735 595.781 860.405 519.036 833.926Z" fill="#FFAD41"/>
<path fill-rule="evenodd" clip-rule="evenodd" d="M522.933 817.505C446.187 791.025 381.202 748.411 343.582 715.723C268.189 650.215 120.568 567.957 -52.3709 617.245C-121.27 636.882 -187.43 615.473 -242.182 580.673C-296.936 545.871 -340.222 497.711 -363.322 463.975L-364.142 464.538C-340.979 498.366 -297.599 546.631 -242.71 581.519C-187.819 616.407 -121.36 637.952 -52.0902 618.21C120.394 569.051 267.672 651.084 342.934 716.479C380.641 749.242 445.737 791.927 522.617 818.453C599.498 844.979 688.208 855.361 773.103 823.445C857.82 791.596 932.428 774.998 1004.92 776.155C1077.41 777.311 1147.82 796.22 1224.14 835.431C1290.64 869.601 1325.31 910.853 1353.24 944.101C1357.34 948.983 1361.3 953.692 1365.19 958.18C1380.38 975.706 1394.61 989.915 1412.6 997.846C1430.61 1005.79 1452.31 1007.41 1482.42 999.909C1578.6 975.953 1640.48 926.991 1659.43 905.449L1658.68 904.781C1639.87 926.167 1578.17 975.026 1482.17 998.936C1452.21 1006.4 1430.74 1004.75 1412.99 996.928C1395.23 989.095 1381.12 975.04 1365.94 957.526C1362.06 953.047 1358.11 948.344 1354.01 943.465C1326.07 910.209 1291.28 868.807 1224.59 834.539C1148.15 795.269 1077.59 776.311 1004.93 775.152C932.268 773.993 857.533 790.631 772.746 822.506C688.137 854.314 599.677 843.984 522.933 817.505Z" fill="#FFAD41"/>
<path fill-rule="evenodd" clip-rule="evenodd" d="M524.881 809.294C448.135 782.814 383.15 740.2 345.53 707.512C270.138 642.004 122.516 559.746 -50.4226 609.034C-119.322 628.671 -185.482 607.262 -240.234 572.462C-294.988 537.66 -338.274 489.5 -361.374 455.764L-362.194 456.327C-339.031 490.155 -295.651 538.42 -240.761 573.308C-185.871 608.196 -119.412 629.741 -50.1419 609.999C122.342 560.84 269.62 642.873 344.882 708.268C382.589 741.031 447.686 783.716 524.565 810.242C601.446 836.768 690.156 847.15 775.051 815.234C859.769 783.385 934.376 766.787 1006.87 767.944C1079.36 769.1 1149.77 788.009 1226.09 827.22C1292.59 861.39 1327.25 902.642 1355.19 935.89C1359.29 940.772 1363.25 945.481 1367.14 949.969C1382.33 967.495 1396.56 981.704 1414.55 989.635C1432.56 997.574 1454.26 999.196 1484.37 991.699C1580.55 967.742 1642.43 918.78 1661.38 897.238L1660.63 896.57C1641.81 917.956 1580.12 966.815 1484.12 990.725C1454.16 998.186 1432.69 996.543 1414.94 988.717C1397.18 980.884 1383.07 966.829 1367.89 949.315C1364.01 944.836 1360.05 940.133 1355.96 935.254C1328.01 901.998 1293.23 860.596 1226.53 826.328C1150.1 787.058 1079.54 768.1 1006.88 766.941C934.216 765.782 859.481 782.42 774.694 814.295C690.085 846.103 601.626 835.773 524.881 809.294Z" fill="#FFAD41"/>
<path fill-rule="evenodd" clip-rule="evenodd" d="M529.056 791.699C452.31 765.22 387.325 722.605 349.705 689.917C274.312 624.409 126.691 542.152 -46.2478 591.44C-115.147 611.076 -181.307 589.668 -236.059 554.867C-290.813 520.066 -334.099 471.906 -357.199 438.169L-358.019 438.732C-334.856 472.56 -291.476 520.825 -236.587 555.713C-181.696 590.601 -115.237 612.146 -45.9672 592.404C126.517 543.246 273.795 625.279 349.057 690.673C386.764 723.437 451.86 766.121 528.74 792.647C605.621 819.173 694.331 829.555 779.226 797.64C863.943 765.791 938.551 749.192 1011.05 750.349C1083.53 751.505 1153.94 770.414 1230.26 809.625C1296.77 843.795 1331.43 885.047 1359.36 918.295C1363.47 923.177 1367.42 927.886 1371.31 932.375C1386.51 949.9 1400.74 964.109 1418.72 972.04C1436.73 979.979 1458.44 981.601 1488.54 974.104C1584.73 950.147 1646.6 901.185 1665.55 879.644L1664.8 878.976C1645.99 900.361 1584.29 949.22 1488.29 973.131C1458.34 980.592 1436.87 978.948 1419.12 971.123C1401.35 963.289 1387.25 949.234 1372.06 931.72C1368.18 927.241 1364.23 922.538 1360.13 917.66C1332.19 884.404 1297.4 843.001 1230.71 808.734C1154.28 769.464 1083.72 750.506 1011.05 749.347C938.391 748.188 863.656 764.825 778.869 796.7C694.26 828.508 605.801 818.179 529.056 791.699Z" fill="#FFAD41"/>
<path fill-rule="evenodd" clip-rule="evenodd" d="M526.829 801.083C450.084 774.604 385.098 731.989 347.479 699.301C272.086 633.793 124.464 551.535 -48.4743 600.823C-117.374 620.46 -183.534 599.051 -238.286 564.251C-293.039 529.449 -336.325 481.289 -359.426 447.553L-360.246 448.116C-337.083 481.944 -293.702 530.209 -238.813 565.097C-183.923 599.985 -117.464 621.53 -48.1937 601.788C124.29 552.63 271.569 634.662 346.83 700.057C384.538 732.82 449.634 775.505 526.514 802.031C603.394 828.557 692.105 838.939 777 807.023C861.717 775.174 936.324 758.576 1008.82 759.733C1081.31 760.889 1151.72 779.798 1228.03 819.009C1294.54 853.179 1329.2 894.431 1357.14 927.679C1361.24 932.561 1365.2 937.27 1369.09 941.759C1384.28 959.284 1398.51 973.493 1416.5 981.424C1434.5 989.363 1456.21 990.985 1486.31 983.488C1582.5 959.531 1644.37 910.569 1663.33 889.027L1662.57 888.359C1643.76 909.745 1582.06 958.604 1486.06 982.514C1456.11 989.975 1434.64 988.332 1416.89 980.507C1399.12 972.673 1385.02 958.618 1369.84 941.104C1365.95 936.625 1362 931.922 1357.9 927.043C1329.96 893.787 1295.18 852.385 1228.48 818.117C1152.05 778.847 1081.49 759.889 1008.82 758.73C936.165 757.571 861.429 774.209 776.642 806.084C692.033 837.892 603.574 827.562 526.829 801.083Z" fill="#FFAD41"/>
<path fill-rule="evenodd" clip-rule="evenodd" d="M545.477 722.493C468.731 696.014 403.746 653.399 366.126 620.711C290.734 555.203 143.112 472.945 -29.8267 522.234C-98.7259 541.87 -164.886 520.462 -219.638 485.661C-274.392 450.86 -317.678 402.7 -340.778 368.963L-341.598 369.526C-318.435 403.354 -275.055 451.619 -220.166 486.507C-165.275 521.395 -98.8159 542.94 -29.546 523.198C142.938 474.04 290.216 556.073 365.478 621.467C403.185 654.231 468.281 696.915 545.161 723.441C622.042 749.967 710.752 760.349 795.647 728.434C880.365 696.585 954.972 679.986 1027.47 681.143C1099.96 682.299 1170.36 701.208 1246.68 740.419C1313.19 774.589 1347.85 815.841 1375.79 849.089C1379.89 853.971 1383.84 858.68 1387.73 863.169C1402.93 880.694 1417.16 894.903 1435.14 902.834C1453.15 910.773 1474.86 912.395 1504.96 904.898C1601.15 880.941 1663.02 831.979 1681.97 810.438L1681.22 809.77C1662.41 831.155 1600.71 880.014 1504.71 903.925C1474.76 911.386 1453.29 909.742 1435.54 901.917C1417.77 894.083 1403.67 880.028 1388.48 862.514C1384.6 858.035 1380.65 853.332 1376.55 848.453C1348.61 815.198 1313.83 773.795 1247.13 739.527C1170.7 700.258 1100.14 681.3 1027.47 680.141C954.812 678.981 880.077 695.619 795.29 727.494C710.681 759.302 622.222 748.973 545.477 722.493Z" fill="#FFAD41"/>
<path fill-rule="evenodd" clip-rule="evenodd" d="M531.839 779.969C455.093 753.489 390.108 710.875 352.488 678.187C277.096 612.679 129.474 530.421 -43.4646 579.709C-112.364 599.346 -178.524 577.937 -233.276 543.137C-288.03 508.335 -331.316 460.175 -354.416 426.439L-355.236 427.001C-332.073 460.83 -288.693 509.095 -233.803 543.982C-178.913 578.871 -112.454 600.416 -43.1839 580.674C129.3 531.515 276.579 613.548 351.84 678.943C389.547 711.706 454.644 754.391 531.523 780.917C608.404 807.443 697.115 817.825 782.009 785.909C866.727 754.06 941.334 737.462 1013.83 738.618C1086.32 739.775 1156.73 758.684 1233.04 797.895C1299.55 832.065 1334.21 873.317 1362.15 906.565C1366.25 911.446 1370.21 916.156 1374.1 920.644C1389.29 938.17 1403.52 952.379 1421.51 960.31C1439.51 968.249 1461.22 969.871 1491.32 962.373C1587.51 938.417 1649.38 889.455 1668.33 867.913L1667.58 867.245C1648.77 888.63 1587.07 937.49 1491.07 961.4C1461.12 968.861 1439.65 967.218 1421.9 959.392C1404.13 951.559 1390.03 937.504 1374.85 919.99C1370.96 915.51 1367.01 910.807 1362.91 905.929C1334.97 872.673 1300.19 831.271 1233.49 797.003C1157.06 757.733 1086.5 738.775 1013.83 737.616C941.174 736.457 866.439 753.095 781.652 784.97C697.043 816.778 608.584 806.448 531.839 779.969Z" fill="#FFAD41"/>
<path fill-rule="evenodd" clip-rule="evenodd" d="M534.066 770.585C457.32 744.105 392.335 701.491 354.715 668.803C279.322 603.295 131.701 521.037 -41.2381 570.325C-110.137 589.962 -176.297 568.553 -231.05 533.753C-285.803 498.951 -329.089 450.791 -352.19 417.055L-353.01 417.618C-329.846 451.446 -286.466 499.711 -231.577 534.599C-176.686 569.487 -110.227 591.032 -40.9574 571.29C131.527 522.131 278.805 604.164 354.067 669.559C391.774 702.322 456.87 745.007 533.75 771.533C610.63 798.059 699.341 808.441 784.236 776.525C868.953 744.676 943.56 728.078 1016.05 729.235C1088.54 730.391 1158.95 749.3 1235.27 788.511C1301.78 822.681 1336.44 863.933 1364.37 897.181C1368.48 902.063 1372.43 906.772 1376.32 911.261C1391.52 928.786 1405.75 942.995 1423.73 950.926C1441.74 958.865 1463.45 960.487 1493.55 952.99C1589.74 929.033 1651.61 880.071 1670.56 858.529L1669.81 857.861C1651 879.247 1589.3 928.106 1493.3 952.016C1463.35 959.477 1441.88 957.834 1424.13 950.008C1406.36 942.175 1392.25 928.12 1377.07 910.606C1373.19 906.127 1369.24 901.424 1365.14 896.545C1337.2 863.289 1302.41 821.887 1235.72 787.619C1159.29 748.349 1088.73 729.391 1016.06 728.232C943.401 727.073 868.665 743.711 783.879 775.586C699.269 807.394 610.81 797.064 534.066 770.585Z" fill="#FFAD41"/>
<path fill-rule="evenodd" clip-rule="evenodd" d="M536.292 761.201C459.547 734.722 394.562 692.107 356.942 659.419C281.549 593.911 133.927 511.653 -39.0112 560.942C-107.91 580.578 -174.071 559.17 -228.823 524.369C-283.576 489.568 -326.862 441.408 -349.963 407.671L-350.783 408.234C-327.62 442.062 -284.239 490.327 -229.35 525.215C-174.459 560.103 -108 581.648 -38.7306 561.906C133.754 512.748 281.032 594.781 356.293 660.175C394.001 692.939 459.097 735.623 535.977 762.149C612.857 788.675 701.568 799.057 786.463 767.142C871.18 735.293 945.787 718.694 1018.28 719.851C1090.77 721.007 1161.18 739.916 1237.5 779.127C1304 813.297 1338.66 854.549 1366.6 887.797C1370.7 892.679 1374.66 897.388 1378.55 901.877C1393.74 919.402 1407.97 933.611 1425.96 941.542C1443.97 949.481 1465.67 951.103 1495.78 943.606C1591.96 919.649 1653.84 870.687 1672.79 849.146L1672.04 848.478C1653.23 869.863 1591.53 918.722 1495.53 942.633C1465.57 950.094 1444.1 948.45 1426.35 940.625C1408.59 932.791 1394.48 918.736 1379.3 901.222C1375.42 896.743 1371.47 892.04 1367.37 887.161C1339.43 853.906 1304.64 812.503 1237.95 778.235C1161.51 738.966 1090.95 720.008 1018.29 718.849C945.628 717.689 870.892 734.327 786.105 766.202C701.496 798.01 613.037 787.681 536.292 761.201Z" fill="#FFAD41"/>
<path fill-rule="evenodd" clip-rule="evenodd" d="M538.797 750.645C462.052 724.165 397.066 681.55 359.447 648.863C284.054 583.354 136.432 501.097 -36.5064 550.385C-105.406 570.021 -171.566 548.613 -226.318 513.812C-281.071 479.011 -324.357 430.851 -347.458 397.114L-348.278 397.677C-325.115 431.505 -281.735 479.77 -226.845 514.658C-171.955 549.547 -105.496 571.092 -36.2257 551.35C136.258 502.191 283.537 584.224 358.798 649.618C396.506 682.382 461.602 725.067 538.481 751.593C615.362 778.119 704.073 788.501 788.968 756.585C873.685 724.736 948.292 708.138 1020.79 709.294C1093.28 710.451 1163.68 729.359 1240 768.571C1306.51 802.74 1341.17 843.992 1369.11 877.241C1373.21 882.122 1377.16 886.831 1381.06 891.32C1396.25 908.845 1410.48 923.054 1428.47 930.985C1446.47 938.925 1468.18 940.547 1498.28 933.049C1594.47 909.092 1656.34 860.131 1675.29 838.589L1674.54 837.921C1655.73 859.306 1594.03 908.166 1498.03 932.076C1468.08 939.537 1446.61 937.893 1428.86 930.068C1411.09 922.234 1396.99 908.179 1381.8 890.666C1377.92 886.186 1373.97 881.483 1369.87 876.605C1341.93 843.349 1307.15 801.946 1240.45 767.679C1164.02 728.409 1093.46 709.451 1020.79 708.292C948.133 707.133 873.397 723.77 788.61 755.646C704.001 787.454 615.542 777.124 538.797 750.645Z" fill="#FFAD41"/>
<path fill-rule="evenodd" clip-rule="evenodd" d="M541.024 741.261C464.278 714.781 399.293 672.167 361.673 639.479C286.28 573.971 138.659 491.713 -34.2797 541.001C-103.179 560.638 -169.339 539.229 -224.091 504.429C-278.845 469.627 -322.131 421.467 -345.231 387.73L-346.051 388.293C-322.888 422.122 -279.508 470.387 -224.619 505.274C-169.728 540.163 -103.269 561.708 -33.9991 541.966C138.485 492.807 285.763 574.84 361.025 640.235C398.732 672.998 463.828 715.683 540.708 742.209C617.589 768.735 706.299 779.117 791.194 747.201C875.911 715.352 950.519 698.754 1023.01 699.91C1095.5 701.067 1165.91 719.976 1242.23 759.187C1308.74 793.357 1343.4 834.609 1371.33 867.857C1375.43 872.738 1379.39 877.448 1383.28 881.936C1398.47 899.462 1412.7 913.671 1430.69 921.602C1448.7 929.541 1470.41 931.163 1500.51 923.665C1596.69 899.709 1658.57 850.747 1677.52 829.205L1676.77 828.537C1657.96 849.922 1596.26 898.782 1500.26 922.692C1470.3 930.153 1448.83 928.51 1431.09 920.684C1413.32 912.851 1399.21 898.796 1384.03 881.282C1380.15 876.802 1376.2 872.099 1372.1 867.221C1344.16 833.965 1309.37 792.563 1242.68 758.295C1166.24 719.025 1095.69 700.067 1023.02 698.908C950.359 697.749 875.624 714.387 790.837 746.262C706.228 778.07 617.769 767.74 541.024 741.261Z" fill="#FFAD41"/>
<path fill-rule="evenodd" clip-rule="evenodd" d="M543.25 731.877C466.505 705.397 401.52 662.783 363.9 630.095C288.507 564.587 140.885 482.329 -32.0532 531.617C-100.952 551.254 -167.113 529.845 -221.865 495.045C-276.618 460.243 -319.904 412.083 -343.005 378.347L-343.825 378.91C-320.662 412.738 -277.281 461.003 -222.392 495.891C-167.501 530.779 -101.042 552.324 -31.7726 532.582C140.712 483.423 287.99 565.456 363.251 630.851C400.959 663.614 466.055 706.299 542.935 732.825C619.815 759.351 708.526 769.733 793.421 737.817C878.138 705.968 952.745 689.37 1025.24 690.527C1097.73 691.683 1168.14 710.592 1244.46 749.803C1310.96 783.973 1345.62 825.225 1373.56 858.473C1377.66 863.355 1381.62 868.064 1385.51 872.553C1400.7 890.078 1414.93 904.287 1432.92 912.218C1450.93 920.157 1472.63 921.779 1502.73 914.282C1598.92 890.325 1660.8 841.363 1679.75 819.821L1679 819.153C1660.18 840.539 1598.49 889.398 1502.49 913.308C1472.53 920.769 1451.06 919.126 1433.31 911.3C1415.54 903.467 1401.44 889.412 1386.26 871.898C1382.37 867.419 1378.42 862.716 1374.32 857.837C1346.38 824.581 1311.6 783.179 1244.9 748.911C1168.47 709.641 1097.91 690.683 1025.25 689.524C952.586 688.365 877.85 705.003 793.063 736.878C708.454 768.686 619.995 758.356 543.25 731.877Z" fill="#FFAD41"/>
<path fill-rule="evenodd" clip-rule="evenodd" d="M547.982 711.937C471.236 685.457 406.251 642.842 368.631 610.155C293.238 544.646 145.617 462.389 -27.3218 511.677C-96.2211 531.313 -162.381 509.905 -217.133 475.104C-271.887 440.303 -315.173 392.143 -338.273 358.406L-339.093 358.969C-315.93 392.797 -272.55 441.062 -217.661 475.95C-162.77 510.839 -96.3111 532.384 -27.0412 512.642C145.443 463.483 292.721 545.516 367.983 610.91C405.69 643.674 470.786 686.359 547.666 712.884C624.547 739.411 713.257 749.793 798.152 717.877C882.869 686.028 957.477 669.43 1029.97 670.586C1102.46 671.743 1172.87 690.651 1249.19 729.863C1315.69 764.032 1350.35 805.284 1378.29 838.533C1382.39 843.414 1386.35 848.123 1390.24 852.612C1405.43 870.137 1419.66 884.346 1437.65 892.277C1455.66 900.217 1477.36 901.839 1507.47 894.341C1603.65 870.384 1665.53 821.423 1684.48 799.881L1683.73 799.213C1664.91 820.598 1603.22 869.458 1507.22 893.368C1477.26 900.829 1455.79 899.185 1438.04 891.36C1420.28 883.526 1406.17 869.471 1390.99 851.958C1387.11 847.478 1383.15 842.775 1379.06 837.897C1351.12 804.641 1316.33 763.238 1249.63 728.971C1173.2 689.701 1102.64 670.743 1029.98 669.584C957.317 668.425 882.582 685.062 797.795 716.938C713.186 748.746 624.727 738.416 547.982 711.937Z" fill="#FFAD41"/>
<path fill-rule="evenodd" clip-rule="evenodd" d="M575.195 597.246C498.45 570.767 433.464 528.152 395.845 495.464C320.452 429.956 172.83 347.698 -0.10832 396.986C-69.0075 416.623 -135.168 395.215 -189.92 360.414C-244.673 325.613 -287.959 277.453 -311.06 243.716L-311.88 244.279C-288.717 278.107 -245.336 326.372 -190.447 361.26C-135.557 396.148 -69.0975 417.693 0.172346 397.951C172.656 348.793 319.935 430.826 395.196 496.22C432.904 528.984 498 571.668 574.88 598.194C651.76 624.72 740.471 635.102 825.366 603.186C910.083 571.338 984.69 554.739 1057.18 555.896C1129.67 557.052 1200.08 575.961 1276.4 615.172C1342.91 649.342 1377.57 690.594 1405.5 723.842C1409.61 728.724 1413.56 733.433 1417.45 737.922C1432.65 755.447 1446.88 769.656 1464.86 777.587C1482.87 785.526 1504.58 787.148 1534.68 779.651C1630.87 755.694 1692.74 706.732 1711.69 685.191L1710.94 684.522C1692.13 705.908 1630.43 754.767 1534.43 778.678C1504.47 786.139 1483.01 784.495 1465.26 776.67C1447.49 768.836 1433.38 754.781 1418.2 737.267C1414.32 732.788 1410.37 728.085 1406.27 723.206C1378.33 689.95 1343.54 648.548 1276.85 614.28C1200.42 575.011 1129.86 556.053 1057.19 554.893C984.531 553.734 909.795 570.372 825.008 602.247C740.399 634.055 651.94 623.726 575.195 597.246Z" fill="#FFAD41"/>
<path fill-rule="evenodd" clip-rule="evenodd" d="M552.095 694.604C475.349 668.124 410.364 625.509 372.744 592.822C297.351 527.313 149.73 445.056 -23.209 494.344C-92.1083 513.98 -158.268 492.572 -213.021 457.771C-267.774 422.97 -311.06 374.81 -334.16 341.073L-334.98 341.636C-311.817 375.464 -268.437 423.729 -213.548 458.617C-158.657 493.506 -92.1983 515.051 -22.9284 495.309C149.556 446.15 296.834 528.183 372.096 593.577C409.803 626.341 474.899 669.026 551.779 695.551C628.659 722.078 717.37 732.46 802.265 700.544C886.982 668.695 961.589 652.097 1034.08 653.253C1106.57 654.41 1176.98 673.318 1253.3 712.53C1319.81 746.699 1354.47 787.951 1382.4 821.2C1386.5 826.081 1390.46 830.79 1394.35 835.279C1409.54 852.804 1423.77 867.013 1441.76 874.944C1459.77 882.884 1481.48 884.506 1511.58 877.008C1607.77 853.051 1669.64 804.09 1688.59 782.548L1687.84 781.88C1669.03 803.265 1607.33 852.125 1511.33 876.035C1481.37 883.496 1459.9 881.852 1442.16 874.027C1424.39 866.193 1410.28 852.138 1395.1 834.625C1391.22 830.145 1387.27 825.442 1383.17 820.564C1355.23 787.308 1320.44 745.905 1253.75 711.638C1177.31 672.368 1106.76 653.41 1034.09 652.251C961.43 651.092 886.694 667.729 801.908 699.605C717.298 731.413 628.839 721.083 552.095 694.604Z" fill="#FFAD41"/>
<path fill-rule="evenodd" clip-rule="evenodd" d="M549.868 703.987C473.122 677.508 408.137 634.893 370.517 602.205C295.124 536.697 147.503 454.44 -25.4358 503.728C-94.335 523.364 -160.495 501.956 -215.247 467.155C-270.001 432.354 -313.287 384.194 -336.387 350.457L-337.207 351.02C-314.044 384.848 -270.664 433.113 -215.775 468.001C-160.884 502.89 -94.425 524.434 -25.1551 504.692C147.329 455.534 294.607 537.567 369.869 602.961C407.576 635.725 472.672 678.409 549.552 704.935C626.433 731.461 715.143 741.843 800.038 709.928C884.755 678.079 959.363 661.481 1031.86 662.637C1104.35 663.793 1174.75 682.702 1251.07 721.913C1317.58 756.083 1352.24 797.335 1380.18 830.583C1384.28 835.465 1388.23 840.174 1392.13 844.663C1407.32 862.188 1421.55 876.397 1439.54 884.328C1457.54 892.268 1479.25 893.889 1509.35 886.392C1605.54 862.435 1667.41 813.473 1686.36 791.932L1685.61 791.264C1666.8 812.649 1605.1 861.508 1509.1 885.419C1479.15 892.88 1457.68 891.236 1439.93 883.411C1422.16 875.577 1408.06 861.522 1392.88 844.008C1388.99 839.529 1385.04 834.826 1380.94 829.948C1353 796.692 1318.22 755.289 1251.52 721.022C1175.09 681.752 1104.53 662.794 1031.86 661.635C959.203 660.476 884.468 677.113 799.681 708.988C715.072 740.797 626.613 730.467 549.868 703.987Z" fill="#FFAD41"/>
<path fill-rule="evenodd" clip-rule="evenodd" d="M555.156 681.701C478.41 655.222 413.425 612.607 375.805 579.919C300.413 514.411 152.791 432.153 -20.1477 481.442C-89.0469 501.078 -155.207 479.67 -209.959 444.869C-264.713 410.068 -307.999 361.908 -331.099 328.171L-331.919 328.734C-308.756 362.562 -265.376 410.827 -210.487 445.715C-155.596 480.603 -89.1369 502.148 -19.8671 482.406C152.617 433.248 299.895 515.281 375.157 580.675C412.864 613.439 477.96 656.123 554.84 682.649C631.721 709.175 720.431 719.557 805.326 687.642C890.043 655.793 964.651 639.194 1037.15 640.351C1109.63 641.507 1180.04 660.416 1256.36 699.627C1322.87 733.797 1357.53 775.049 1385.46 808.297C1389.57 813.179 1393.52 817.888 1397.41 822.377C1412.61 839.902 1426.84 854.111 1444.82 862.042C1462.83 869.981 1484.54 871.603 1514.64 864.106C1610.83 840.149 1672.7 791.187 1691.65 769.646L1690.9 768.977C1672.09 790.363 1610.39 839.222 1514.39 863.133C1484.44 870.594 1462.97 868.95 1445.22 861.125C1427.45 853.291 1413.35 839.236 1398.16 821.722C1394.28 817.243 1390.33 812.54 1386.23 807.661C1358.29 774.406 1323.5 733.003 1256.81 698.735C1180.38 659.466 1109.82 640.508 1037.15 639.348C964.491 638.189 889.756 654.827 804.969 686.702C720.36 718.51 631.901 708.181 555.156 681.701Z" fill="#FFAD41"/>
<path fill-rule="evenodd" clip-rule="evenodd" d="M557.939 669.971C481.194 643.491 416.208 600.877 378.589 568.189C303.196 502.681 155.574 420.423 -17.3644 469.711C-86.2636 489.348 -152.424 467.939 -207.176 433.139C-261.929 398.337 -305.215 350.177 -328.316 316.44L-329.136 317.003C-305.973 350.832 -262.592 399.097 -207.703 433.984C-152.813 468.873 -86.3536 490.418 -17.0837 470.676C155.4 421.517 302.679 503.55 377.94 568.945C415.648 601.708 480.744 644.393 557.623 670.919C634.504 697.445 723.215 707.827 808.11 675.911C892.827 644.062 967.434 627.464 1039.93 628.62C1112.42 629.777 1182.83 648.686 1259.14 687.897C1325.65 722.067 1360.31 763.319 1388.25 796.567C1392.35 801.448 1396.31 806.157 1400.2 810.646C1415.39 828.172 1429.62 842.381 1447.61 850.312C1465.61 858.251 1487.32 859.873 1517.42 852.375C1613.61 828.419 1675.48 779.457 1694.44 757.915L1693.68 757.247C1674.87 778.632 1613.17 827.492 1517.17 851.402C1487.22 858.863 1465.75 857.22 1448 849.394C1430.23 841.561 1416.13 827.506 1400.95 809.992C1397.06 805.512 1393.11 800.809 1389.01 795.931C1361.07 762.675 1326.29 721.273 1259.59 687.005C1183.16 647.735 1112.6 628.777 1039.93 627.618C967.275 626.459 892.539 643.097 807.752 674.972C723.143 706.78 634.684 696.45 557.939 669.971Z" fill="#FFAD41"/>
<path fill-rule="evenodd" clip-rule="evenodd" d="M560.723 658.241C483.977 631.762 418.992 589.147 381.372 556.459C305.979 490.951 158.358 408.694 -14.5811 457.982C-83.4803 477.618 -149.64 456.21 -204.393 421.409C-259.146 386.608 -302.432 338.448 -325.533 304.711L-326.353 305.274C-303.189 339.102 -259.809 387.367 -204.92 422.255C-150.029 457.143 -83.5703 478.688 -14.3004 458.946C158.184 409.788 305.462 491.821 380.724 557.215C418.431 589.979 483.527 632.663 560.407 659.189C637.287 685.715 725.998 696.097 810.893 664.182C895.61 632.333 970.217 615.734 1042.71 616.891C1115.2 618.047 1185.61 636.956 1261.93 676.167C1328.43 710.337 1363.1 751.589 1391.03 784.837C1395.13 789.719 1399.09 794.428 1402.98 798.917C1418.17 816.442 1432.4 830.651 1450.39 838.582C1468.4 846.521 1490.1 848.143 1520.21 840.646C1616.39 816.689 1678.27 767.727 1697.22 746.186L1696.47 745.518C1677.66 766.903 1615.96 815.762 1519.96 839.673C1490 847.134 1468.53 845.49 1450.78 837.665C1433.02 829.831 1418.91 815.776 1403.73 798.262C1399.85 793.783 1395.9 789.08 1391.8 784.201C1363.86 750.946 1329.07 709.543 1262.38 675.276C1185.94 636.006 1115.38 617.048 1042.72 615.889C970.058 614.729 895.322 631.367 810.536 663.242C725.926 695.05 637.467 684.721 560.723 658.241Z" fill="#FFAD41"/>
<path fill-rule="evenodd" clip-rule="evenodd" d="M563.506 646.512C486.76 620.032 421.775 577.418 384.155 544.73C308.762 479.222 161.141 396.964 -11.7979 446.252C-80.6972 465.889 -146.857 444.48 -201.609 409.68C-256.363 374.878 -299.649 326.718 -322.749 292.981L-323.569 293.544C-300.406 327.373 -257.026 375.638 -202.137 410.525C-147.246 445.414 -80.7872 466.959 -11.5173 447.217C160.967 398.058 308.245 480.091 383.507 545.486C421.214 578.249 486.31 620.934 563.19 647.46C640.071 673.986 728.781 684.368 813.676 652.452C898.393 620.603 973.001 604.005 1045.5 605.161C1117.98 606.318 1188.39 625.227 1264.71 664.438C1331.22 698.608 1365.88 739.86 1393.81 773.108C1397.92 777.989 1401.87 782.699 1405.76 787.187C1420.96 804.713 1435.19 818.922 1453.17 826.853C1471.18 834.792 1492.89 836.414 1522.99 828.916C1619.18 804.96 1681.05 755.998 1700 734.456L1699.25 733.788C1680.44 755.173 1618.74 804.033 1522.74 827.943C1492.79 835.404 1471.32 833.761 1453.57 825.935C1435.8 818.102 1421.7 804.047 1406.51 786.533C1402.63 782.053 1398.68 777.35 1394.58 772.472C1366.64 739.216 1331.85 697.814 1265.16 663.546C1188.73 624.276 1118.17 605.318 1045.5 604.159C972.841 603 898.106 619.638 813.319 651.513C728.71 683.321 640.25 672.991 563.506 646.512Z" fill="#FFAD41"/>
<path fill-rule="evenodd" clip-rule="evenodd" d="M566.567 633.609C489.822 607.129 424.837 564.514 387.217 531.827C311.824 466.318 164.202 384.061 -8.73627 433.349C-77.6355 452.985 -143.796 431.577 -198.548 396.776C-253.301 361.975 -296.587 313.815 -319.688 280.078L-320.508 280.641C-297.345 314.469 -253.964 362.734 -199.075 397.622C-144.184 432.511 -77.7255 454.056 -8.45561 434.313C164.029 385.155 311.307 467.188 386.568 532.582C424.276 565.346 489.372 608.03 566.252 634.556C643.132 661.083 731.843 671.464 816.738 639.549C901.455 607.7 976.062 591.102 1048.56 592.258C1121.05 593.414 1191.45 612.323 1267.77 651.534C1334.28 685.704 1368.94 726.956 1396.88 760.204C1400.98 765.086 1404.93 769.795 1408.83 774.284C1424.02 791.809 1438.25 806.018 1456.24 813.949C1474.24 821.889 1495.95 823.51 1526.05 816.013C1622.24 792.056 1684.11 743.095 1703.06 721.553L1702.31 720.885C1683.5 742.27 1621.8 791.129 1525.8 815.04C1495.85 822.501 1474.38 820.857 1456.63 813.032C1438.86 805.198 1424.76 791.143 1409.57 773.63C1405.69 769.15 1401.74 764.447 1397.64 759.569C1369.7 726.313 1334.92 684.91 1268.22 650.643C1191.79 611.373 1121.23 592.415 1048.56 591.256C975.903 590.097 901.167 606.734 816.38 638.609C731.771 670.418 643.312 660.088 566.567 633.609Z" fill="#FFAD41"/>
<path fill-rule="evenodd" clip-rule="evenodd" d="M569.907 619.533C493.161 593.054 428.176 550.439 390.556 517.751C315.164 452.243 167.542 369.985 -5.39644 419.274C-74.2957 438.91 -140.456 417.502 -195.208 382.701C-249.961 347.9 -293.247 299.74 -316.348 266.003L-317.168 266.566C-294.005 300.394 -250.625 348.659 -195.735 383.547C-140.845 418.435 -74.3856 439.98 -5.11577 420.238C167.368 371.08 314.647 453.113 389.908 518.507C427.616 551.271 492.712 593.955 569.591 620.481C646.472 647.007 735.183 657.389 820.078 625.474C904.795 593.625 979.402 577.026 1051.9 578.183C1124.39 579.339 1194.79 598.248 1271.11 637.459C1337.62 671.629 1372.28 712.881 1400.22 746.129C1404.32 751.011 1408.27 755.72 1412.17 760.209C1427.36 777.734 1441.59 791.943 1459.58 799.874C1477.58 807.813 1499.29 809.435 1529.39 801.938C1625.58 777.981 1687.45 729.019 1706.4 707.478L1705.65 706.81C1686.84 728.195 1625.14 777.054 1529.14 800.965C1499.19 808.426 1477.72 806.782 1459.97 798.957C1442.2 791.123 1428.1 777.068 1412.91 759.554C1409.03 755.075 1405.08 750.372 1400.98 745.493C1373.04 712.238 1338.26 670.835 1271.56 636.567C1195.13 597.298 1124.57 578.34 1051.9 577.181C979.243 576.021 904.507 592.659 819.72 624.534C735.111 656.342 646.652 646.013 569.907 619.533Z" fill="#FFAD41"/>
<path fill-rule="evenodd" clip-rule="evenodd" d="M573.247 605.457C496.501 578.978 431.516 536.363 393.896 503.675C318.504 438.167 170.882 355.909 -2.05662 405.197C-70.9558 424.834 -137.116 403.425 -191.868 368.625C-246.622 333.823 -289.908 285.663 -313.008 251.927L-313.828 252.49C-290.665 286.318 -247.285 334.583 -192.395 369.471C-137.505 404.359 -71.0458 425.904 -1.77596 406.162C170.708 357.004 317.986 439.037 393.248 504.431C430.955 537.194 496.052 579.879 572.931 606.405C649.812 632.931 738.522 643.313 823.417 611.397C908.135 579.548 982.742 562.95 1055.24 564.107C1127.73 565.263 1198.13 584.172 1274.45 623.383C1340.96 657.553 1375.62 698.805 1403.56 732.053C1407.66 736.935 1411.61 741.644 1415.5 746.133C1430.7 763.658 1444.93 777.867 1462.91 785.798C1480.92 793.737 1502.63 795.359 1532.73 787.862C1628.92 763.905 1690.79 714.943 1709.74 693.401L1708.99 692.733C1690.18 714.119 1628.48 762.978 1532.48 786.888C1502.53 794.349 1481.06 792.706 1463.31 784.881C1445.54 777.047 1431.44 762.992 1416.25 745.478C1412.37 740.999 1408.42 736.296 1404.32 731.417C1376.38 698.161 1341.6 656.759 1274.9 622.491C1198.47 583.221 1127.91 564.263 1055.24 563.104C982.582 561.945 907.847 578.583 823.06 610.458C738.451 642.266 649.992 631.936 573.247 605.457Z" fill="#FFAD41"/>
</g>
</g>
<defs>
<filter id="filter0_f_0_2797" x="901.572" y="2359.68" width="13.4964" height="12.5934" filterUnits="userSpaceOnUse" color-interpolation-filters="sRGB">
<feFlood flood-opacity="0" result="BackgroundImageFix"/>
<feBlend mode="normal" in="SourceGraphic" in2="BackgroundImageFix" result="shape"/>
<feGaussianBlur stdDeviation="2.08586" result="effect1_foregroundBlur_0_2797"/>
</filter>
<filter id="filter1_f_0_2797" x="1143.54" y="4188.93" width="13.3727" height="12.738" filterUnits="userSpaceOnUse" color-interpolation-filters="sRGB">
<feFlood flood-opacity="0" result="BackgroundImageFix"/>
<feBlend mode="normal" in="SourceGraphic" in2="BackgroundImageFix" result="shape"/>
<feGaussianBlur stdDeviation="2.08586" result="effect1_foregroundBlur_0_2797"/>
</filter>
<clipPath id="clip0_0_2797">
<rect width="1440" height="5196" fill="white"/>
</clipPath>
<clipPath id="clip1_0_2797">
<rect width="2151.15" height="458.905" fill="white" transform="matrix(-0.9662 0.257792 0.257792 0.9662 1440.44 1490)"/>
</clipPath>
<clipPath id="clip2_0_2797">
<rect width="2300.32" height="540.633" fill="white" transform="translate(1500.53 5158.52) rotate(-153.769)"/>
</clipPath>
<clipPath id="clip3_0_2797">
<rect width="1780.77" height="478.743" fill="white" transform="matrix(0.972217 0.23408 0.23408 -0.972217 -252 712.442)"/>
</clipPath>
</defs>
</svg>
