<svg width="1440" height="5196" viewBox="0 0 1440 5196" fill="none" xmlns="http://www.w3.org/2000/svg">
<g clip-path="url(#clip0_0_2797)">
<rect width="1440" height="5196" fill="#2F365B"/>
<g clip-path="url(#clip1_0_2797)">
<path d="M1483.47 1651.27C1409.43 1617.94 1234.25 1575.97 1125.87 1674.72C990.398 1798.16 816.687 1801.45 716.964 1783.82C617.24 1766.2 398.468 1768.54 272.716 1902.35C146.963 2036.17 29.7048 2100.49 -147.158 2109.34C-324.021 2118.19 -364.488 2015.75 -460.726 2098.04C-537.716 2163.88 -571.547 2233.78 -578.839 2260.49" stroke="#FFAD41" stroke-width="1.04293"/>
<path d="M1487.28 1665.54C1413.24 1632.22 1238.06 1590.25 1129.68 1689C994.207 1812.44 820.496 1815.73 720.773 1798.1C621.049 1780.47 402.277 1782.81 276.525 1916.63C150.772 2050.45 33.5137 2114.76 -143.349 2123.62C-320.213 2132.47 -360.679 2030.02 -456.917 2112.32C-533.907 2178.16 -567.738 2248.05 -575.03 2274.77" stroke="#FFAD41" stroke-width="1.04293"/>
<path d="M1472.95 1617.61C1398.91 1584.28 1223.73 1542.32 1115.35 1641.07C979.873 1764.5 806.162 1767.8 706.439 1750.17C606.715 1732.54 387.943 1734.88 262.191 1868.7C136.438 2002.52 19.1797 2066.83 -157.683 2075.68C-334.547 2084.53 -375.013 1982.09 -471.251 2064.39C-548.241 2130.23 -582.072 2200.12 -589.364 2226.84" stroke="#FFAD41" stroke-width="1.04293"/>
<path d="M1476.15 1623.82C1402.11 1590.49 1226.93 1548.52 1118.55 1647.27C983.074 1770.71 809.362 1774 709.639 1756.37C609.916 1738.74 391.144 1741.08 265.391 1874.9C139.639 2008.72 22.38 2073.04 -154.483 2081.89C-331.346 2090.74 -371.813 1988.29 -468.05 2070.59C-545.04 2136.43 -578.872 2206.32 -586.163 2233.04" stroke="#FFAD41" stroke-width="1.04293"/>
<path d="M1477.91 1630.4C1403.86 1597.08 1228.69 1555.11 1120.31 1653.86C984.832 1777.3 811.12 1780.59 711.397 1762.96C611.673 1745.33 392.902 1747.67 267.149 1881.49C141.397 2015.31 24.138 2079.62 -152.725 2088.48C-329.588 2097.33 -370.055 1994.88 -466.292 2077.18C-543.282 2143.02 -577.114 2212.91 -584.406 2239.63" stroke="#FFAD41" stroke-width="1.04293"/>
<path d="M1479.66 1636.99C1405.62 1603.67 1230.44 1561.7 1122.06 1660.45C986.59 1783.89 812.878 1787.18 713.155 1769.55C613.431 1751.92 394.66 1754.26 268.907 1888.08C143.155 2021.9 25.8959 2086.21 -150.967 2095.06C-327.83 2103.92 -368.297 2001.47 -464.534 2083.77C-541.524 2149.61 -575.356 2219.5 -582.648 2246.22" stroke="#FFAD41" stroke-width="1.04293"/>
<path d="M1481.42 1643.58C1407.38 1610.25 1232.2 1568.29 1123.82 1667.04C988.347 1790.47 814.636 1793.77 714.913 1776.14C615.189 1758.51 396.418 1760.85 270.665 1894.67C144.913 2028.49 27.6538 2092.8 -149.209 2101.65C-326.072 2110.5 -366.539 2008.06 -462.776 2090.36C-539.766 2156.2 -573.598 2226.09 -580.89 2252.81" stroke="#FFAD41" stroke-width="1.04293"/>
<path d="M1472.34 1609.54C1398.3 1576.21 1223.12 1534.24 1114.74 1632.99C979.265 1756.43 805.554 1759.72 705.83 1742.1C606.107 1724.47 387.335 1726.81 261.582 1860.63C135.83 1994.44 18.5712 2058.76 -158.292 2067.61C-335.155 2076.46 -375.621 1974.02 -471.859 2056.32C-548.849 2122.15 -582.68 2192.05 -589.972 2218.77" stroke="#FFAD41" stroke-width="1.04293"/>
<path d="M1484.94 1656.76C1410.9 1623.43 1235.72 1581.46 1127.34 1680.21C991.863 1803.65 818.152 1806.94 718.429 1789.31C618.705 1771.69 399.933 1774.03 274.181 1907.84C148.428 2041.66 31.1696 2105.98 -145.694 2114.83C-322.557 2123.68 -363.023 2021.24 -459.261 2103.53C-536.251 2169.37 -570.082 2239.27 -577.374 2265.99" stroke="#FFAD41" stroke-width="1.04293"/>
<path d="M1489.04 1672.13C1415 1638.81 1239.82 1596.84 1131.44 1695.59C995.965 1819.03 822.254 1822.32 722.53 1804.69C622.807 1787.06 404.035 1789.4 278.283 1923.22C152.53 2057.04 35.2715 2121.35 -141.592 2130.2C-318.455 2139.06 -358.921 2036.61 -455.159 2118.91C-532.149 2184.75 -565.98 2254.64 -573.272 2281.36" stroke="#FFAD41" stroke-width="1.04293"/>
<path d="M1491.09 1679.82C1417.05 1646.49 1241.87 1604.52 1133.49 1703.27C998.016 1826.71 824.305 1830 724.581 1812.38C624.858 1794.75 406.086 1797.09 280.334 1930.91C154.581 2064.72 37.3225 2129.04 -139.541 2137.89C-316.404 2146.74 -356.87 2044.3 -453.108 2126.59C-530.098 2192.43 -563.929 2262.33 -571.221 2289.05" stroke="#FFAD41" stroke-width="1.04293"/>
<path d="M1495.49 1696.29C1421.44 1662.96 1246.27 1621 1137.89 1719.75C1002.41 1843.18 828.7 1846.48 728.976 1828.85C629.253 1811.22 410.481 1813.56 284.729 1947.38C158.976 2081.2 41.7173 2145.51 -135.146 2154.36C-312.009 2163.21 -352.475 2060.77 -448.713 2143.07C-525.703 2208.91 -559.534 2278.8 -566.826 2305.52" stroke="#FFAD41" stroke-width="1.04293"/>
<path d="M1493.14 1687.51C1419.1 1654.18 1243.92 1612.21 1135.54 1710.96C1000.07 1834.4 826.356 1837.69 726.632 1820.06C626.909 1802.43 408.137 1804.77 282.385 1938.59C156.632 2072.41 39.3736 2136.73 -137.49 2145.58C-314.353 2154.43 -354.819 2051.98 -451.057 2134.28C-528.047 2200.12 -561.878 2270.01 -569.17 2296.73" stroke="#FFAD41" stroke-width="1.04293"/>
<path d="M1512.77 1761.08C1438.73 1727.75 1263.55 1685.79 1155.17 1784.54C1019.7 1907.97 845.986 1911.27 746.263 1893.64C646.539 1876.01 427.768 1878.35 302.015 2012.17C176.263 2145.99 59.0038 2210.3 -117.859 2219.15C-294.722 2228 -335.189 2125.56 -431.426 2207.86C-508.416 2273.7 -542.248 2343.59 -549.54 2370.31" stroke="#FFAD41" stroke-width="1.04293"/>
<path d="M1498.42 1707.27C1424.37 1673.95 1249.2 1631.98 1140.82 1730.73C1005.34 1854.17 831.63 1857.46 731.906 1839.83C632.183 1822.2 413.411 1824.54 287.658 1958.36C161.906 2092.18 44.6473 2156.49 -132.216 2165.34C-309.079 2174.2 -349.545 2071.75 -445.783 2154.05C-522.773 2219.89 -556.604 2289.78 -563.896 2316.5" stroke="#FFAD41" stroke-width="1.04293"/>
<path d="M1500.76 1716.06C1426.72 1682.73 1251.54 1640.76 1143.16 1739.51C1007.68 1862.95 833.974 1866.24 734.25 1848.61C634.527 1830.99 415.755 1833.32 290.002 1967.14C164.25 2100.96 46.9913 2165.28 -129.872 2174.13C-306.735 2182.98 -347.201 2080.53 -443.439 2162.83C-520.429 2228.67 -554.26 2298.57 -561.552 2325.28" stroke="#FFAD41" stroke-width="1.04293"/>
<path d="M1503.1 1724.84C1429.06 1691.52 1253.88 1649.55 1145.5 1748.3C1010.03 1871.73 836.317 1875.03 736.594 1857.4C636.871 1839.77 418.099 1842.11 292.346 1975.93C166.594 2109.75 49.3351 2174.06 -127.528 2182.91C-304.391 2191.77 -344.858 2089.32 -441.095 2171.62C-518.085 2237.46 -551.917 2307.35 -559.208 2334.07" stroke="#FFAD41" stroke-width="1.04293"/>
<path d="M1505.74 1734.73C1431.7 1701.4 1256.52 1659.43 1148.14 1758.18C1012.67 1881.62 838.954 1884.91 739.231 1867.28C639.507 1849.65 420.736 1851.99 294.983 1985.81C169.231 2119.63 51.972 2183.95 -124.891 2192.8C-301.754 2201.65 -342.221 2099.2 -438.458 2181.5C-515.448 2247.34 -549.28 2317.23 -556.572 2343.95" stroke="#FFAD41" stroke-width="1.04293"/>
<path d="M1508.08 1743.51C1434.04 1710.18 1258.86 1668.22 1150.48 1766.97C1015.01 1890.4 841.298 1893.7 741.575 1876.07C641.851 1858.44 423.08 1860.78 297.327 1994.6C171.575 2128.42 54.316 2192.73 -122.547 2201.58C-299.41 2210.43 -339.877 2107.99 -436.114 2190.29C-513.104 2256.12 -546.936 2326.02 -554.228 2352.74" stroke="#FFAD41" stroke-width="1.04293"/>
<path d="M1510.43 1752.29C1436.39 1718.97 1261.21 1677 1152.83 1775.75C1017.35 1899.19 843.642 1902.48 743.919 1884.85C644.195 1867.22 425.424 1869.56 299.671 2003.38C173.919 2137.2 56.6598 2201.51 -120.203 2210.37C-297.066 2219.22 -337.533 2116.77 -433.77 2199.07C-510.76 2264.91 -544.592 2334.8 -551.884 2361.52" stroke="#FFAD41" stroke-width="1.04293"/>
<path d="M1515.41 1770.96C1441.37 1737.64 1266.19 1695.67 1157.81 1794.42C1022.33 1917.86 848.623 1921.15 748.9 1903.52C649.176 1885.89 430.404 1888.23 304.652 2022.05C178.899 2155.87 61.6407 2220.18 -115.222 2229.04C-292.086 2237.89 -332.552 2135.44 -428.79 2217.74C-505.78 2283.58 -539.611 2353.47 -546.903 2380.19" stroke="#FFAD41" stroke-width="1.04293"/>
<path d="M1544.06 1878.33C1470.01 1845.01 1294.84 1803.04 1186.46 1901.79C1050.98 2025.23 877.27 2028.52 777.547 2010.89C677.824 1993.26 459.052 1995.6 333.299 2129.42C207.547 2263.24 90.2881 2327.55 -86.575 2336.41C-263.438 2345.26 -303.905 2242.81 -400.142 2325.11C-477.132 2390.95 -510.964 2460.84 -518.255 2487.56" stroke="#FFAD41" stroke-width="1.04293"/>
<path d="M1519.74 1787.19C1445.7 1753.86 1270.52 1711.89 1162.14 1810.64C1026.66 1934.08 852.952 1937.37 753.229 1919.75C653.506 1902.12 434.734 1904.46 308.981 2038.28C183.229 2172.09 65.97 2236.41 -110.893 2245.26C-287.756 2254.11 -328.223 2151.67 -424.46 2233.96C-501.45 2299.8 -535.282 2369.7 -542.574 2396.42" stroke="#FFAD41" stroke-width="1.04293"/>
<path d="M1517.39 1778.41C1443.35 1745.08 1268.17 1703.11 1159.79 1801.86C1024.32 1925.3 850.608 1928.59 750.885 1910.96C651.162 1893.33 432.39 1895.67 306.637 2029.49C180.885 2163.31 63.626 2227.63 -113.237 2236.48C-290.1 2245.33 -330.567 2142.88 -426.804 2225.18C-503.794 2291.02 -537.626 2360.91 -544.918 2387.63" stroke="#FFAD41" stroke-width="1.04293"/>
<path d="M1522.96 1799.27C1448.92 1765.94 1273.74 1723.97 1165.36 1822.72C1029.89 1946.16 856.175 1949.45 756.452 1931.82C656.728 1914.2 437.956 1916.54 312.204 2050.35C186.451 2184.17 69.1928 2248.49 -107.67 2257.34C-284.533 2266.19 -325 2163.75 -421.237 2246.04C-498.228 2311.88 -532.059 2381.78 -539.351 2408.49" stroke="#FFAD41" stroke-width="1.04293"/>
<path d="M1525.89 1810.25C1451.85 1776.92 1276.67 1734.95 1168.29 1833.7C1032.82 1957.14 859.105 1960.43 759.382 1942.81C659.658 1925.18 440.886 1927.52 315.134 2061.34C189.381 2195.15 72.1227 2259.47 -104.74 2268.32C-281.604 2277.17 -322.07 2174.73 -418.308 2257.03C-495.298 2322.86 -529.129 2392.76 -536.421 2419.48" stroke="#FFAD41" stroke-width="1.04293"/>
<path d="M1528.82 1821.23C1454.78 1787.9 1279.6 1745.94 1171.22 1844.69C1035.75 1968.12 862.035 1971.42 762.312 1953.79C662.588 1936.16 443.816 1938.5 318.064 2072.32C192.311 2206.14 75.0526 2270.45 -101.81 2279.3C-278.674 2288.15 -319.14 2185.71 -415.378 2268.01C-492.368 2333.85 -526.199 2403.74 -533.491 2430.46" stroke="#FFAD41" stroke-width="1.04293"/>
<path d="M1531.75 1832.21C1457.71 1798.89 1282.53 1756.92 1174.15 1855.67C1038.68 1979.11 864.965 1982.4 765.242 1964.77C665.518 1947.14 446.746 1949.48 320.994 2083.3C195.241 2217.12 77.9826 2281.43 -98.8805 2290.28C-275.744 2299.14 -316.21 2196.69 -412.448 2278.99C-489.438 2344.83 -523.269 2414.72 -530.561 2441.44" stroke="#FFAD41" stroke-width="1.04293"/>
<path d="M1534.97 1844.29C1460.93 1810.96 1285.75 1769 1177.37 1867.75C1041.9 1991.18 868.188 1994.48 768.464 1976.85C668.741 1959.22 449.969 1961.56 324.217 2095.38C198.464 2229.2 81.2054 2293.51 -95.6578 2302.36C-272.521 2311.21 -312.987 2208.77 -409.225 2291.07C-486.215 2356.91 -520.046 2426.8 -527.338 2453.52" stroke="#FFAD41" stroke-width="1.04293"/>
<path d="M1538.49 1857.47C1464.45 1824.14 1289.27 1782.17 1180.89 1880.92C1045.41 2004.36 871.703 2007.65 771.98 1990.02C672.257 1972.4 453.485 1974.74 327.732 2108.55C201.98 2242.37 84.7211 2306.69 -92.142 2315.54C-269.005 2324.39 -309.472 2221.95 -405.709 2304.24C-482.699 2370.08 -516.531 2439.98 -523.822 2466.69" stroke="#FFAD41" stroke-width="1.04293"/>
<path d="M1542.01 1870.65C1467.96 1837.32 1292.79 1795.35 1184.41 1894.1C1048.93 2017.54 875.22 2020.83 775.496 2003.2C675.773 1985.57 457.001 1987.91 331.248 2121.73C205.496 2255.55 88.2372 2319.87 -88.6259 2328.72C-265.489 2337.57 -305.955 2235.12 -402.193 2317.42C-479.183 2383.26 -513.014 2453.16 -520.306 2479.87" stroke="#FFAD41" stroke-width="1.04293"/>
<g filter="url(#filter0_f_0_2797)">
<ellipse cx="2.60733" cy="2.08586" rx="2.60733" ry="2.08586" transform="matrix(-0.9662 0.257792 0.257792 0.9662 910.302 2363.29)" fill="#D9D9D9" fill-opacity="0.2"/>
</g>
</g>
<g clip-path="url(#clip2_0_2797)">
<path d="M1587.44 4982.13C1500.36 5006.58 1303.75 5022.27 1214.02 4889.44C1101.85 4723.4 918.38 4687.64 808.06 4689.41C697.74 4691.19 466.213 4648.21 367.02 4472.1C267.827 4295.99 159.864 4200.88 -25.5294 4158.18C-210.923 4115.48 -280.068 4225.11 -361.125 4113.32C-425.971 4023.88 -443.986 3937.77 -444.888 3905.89" stroke="#FFAD41" stroke-width="1.04293"/>
<path d="M1595.14 4966.52C1508.05 4990.96 1311.44 5006.66 1221.71 4873.83C1109.54 4707.79 926.073 4672.02 815.753 4673.8C705.433 4675.57 473.907 4632.59 374.713 4456.48C275.52 4280.37 167.558 4185.26 -17.8359 4142.56C-203.23 4099.86 -272.374 4209.49 -353.432 4097.7C-418.278 4008.27 -436.293 3922.16 -437.195 3890.28" stroke="#FFAD41" stroke-width="1.04293"/>
<path d="M1567.66 5018.66C1480.58 5043.11 1283.97 5058.8 1194.24 4925.97C1082.07 4759.93 898.602 4724.16 788.282 4725.94C677.962 4727.71 446.436 4684.73 347.242 4508.62C248.049 4332.51 140.086 4237.4 -45.3073 4194.7C-230.701 4152 -299.846 4261.63 -380.903 4149.84C-445.749 4060.41 -463.764 3974.3 -464.666 3942.42" stroke="#FFAD41" stroke-width="1.04293"/>
<path d="M1572.65 5012.16C1485.56 5036.61 1288.95 5052.3 1199.22 4919.47C1087.06 4753.43 903.585 4717.66 793.265 4719.44C682.945 4721.21 451.418 4678.23 352.225 4502.12C253.031 4326.01 145.069 4230.91 -40.3244 4188.2C-225.718 4145.5 -294.863 4255.13 -375.92 4143.34C-440.766 4053.91 -458.781 3967.8 -459.683 3935.92" stroke="#FFAD41" stroke-width="1.04293"/>
<path d="M1576.2 5004.95C1489.11 5029.4 1292.5 5045.09 1202.77 4912.26C1090.61 4746.22 907.135 4710.46 796.816 4712.23C686.496 4714.01 454.969 4671.03 355.776 4494.92C256.582 4318.81 148.62 4223.7 -36.7735 4181C-222.167 4138.3 -291.312 4247.93 -372.369 4136.14C-437.215 4046.7 -455.231 3960.59 -456.133 3928.71" stroke="#FFAD41" stroke-width="1.04293"/>
<path d="M1579.75 4997.74C1492.66 5022.19 1296.06 5037.88 1206.32 4905.05C1094.16 4739.02 910.686 4703.25 800.366 4705.02C690.046 4706.8 458.52 4663.82 359.327 4487.71C260.133 4311.6 152.171 4216.49 -33.2227 4173.79C-218.616 4131.09 -287.761 4240.72 -368.819 4128.93C-433.664 4039.5 -451.68 3953.38 -452.582 3921.5" stroke="#FFAD41" stroke-width="1.04293"/>
<path d="M1583.3 4990.54C1496.21 5014.99 1299.61 5030.68 1209.87 4897.85C1097.71 4731.81 914.237 4696.04 803.917 4697.82C693.597 4699.59 462.071 4656.61 362.877 4480.5C263.684 4304.39 155.722 4209.29 -29.672 4166.58C-215.066 4123.88 -284.21 4233.51 -365.268 4121.72C-430.114 4032.29 -448.129 3946.18 -449.031 3914.3" stroke="#FFAD41" stroke-width="1.04293"/>
<path d="M1564.95 5027.77C1477.87 5052.22 1281.26 5067.91 1191.53 4935.08C1079.36 4769.04 895.891 4733.28 785.571 4735.05C675.251 4736.83 443.725 4693.85 344.532 4517.74C245.338 4341.63 137.376 4246.52 -48.0178 4203.82C-233.411 4161.12 -302.556 4270.75 -383.614 4158.96C-448.459 4069.52 -466.475 3983.41 -467.377 3951.53" stroke="#FFAD41" stroke-width="1.04293"/>
<path d="M1590.4 4976.13C1503.31 5000.57 1306.71 5016.26 1216.98 4883.44C1104.81 4717.4 921.339 4681.63 811.019 4683.41C700.699 4685.18 469.172 4642.2 369.979 4466.09C270.785 4289.98 162.823 4194.87 -22.5704 4152.17C-207.964 4109.47 -277.109 4219.1 -358.166 4107.31C-423.012 4017.88 -441.027 3931.76 -441.929 3899.89" stroke="#FFAD41" stroke-width="1.04293"/>
<path d="M1598.69 4959.31C1511.6 4983.76 1314.99 4999.45 1225.26 4866.62C1113.1 4700.58 929.624 4664.82 819.304 4666.59C708.984 4668.37 477.458 4625.39 378.264 4449.28C279.071 4273.17 171.109 4178.06 -14.2851 4135.36C-199.679 4092.66 -268.824 4202.28 -349.881 4090.5C-414.727 4001.06 -432.742 3914.95 -433.644 3883.07" stroke="#FFAD41" stroke-width="1.04293"/>
<path d="M1602.83 4950.9C1515.74 4975.35 1319.14 4991.04 1229.4 4858.21C1117.24 4692.18 933.766 4656.41 823.447 4658.18C713.127 4659.96 481.6 4616.98 382.407 4440.87C283.213 4264.76 175.251 4169.65 -10.1426 4126.95C-195.536 4084.25 -264.681 4193.88 -345.738 4082.09C-410.584 3992.66 -428.6 3906.54 -429.502 3874.66" stroke="#FFAD41" stroke-width="1.04293"/>
<path d="M1611.71 4932.89C1524.62 4957.33 1328.01 4973.02 1238.28 4840.2C1126.12 4674.16 942.643 4638.39 832.323 4640.17C722.004 4641.94 490.477 4598.96 391.284 4422.85C292.09 4246.74 184.128 4151.63 -1.2656 4108.93C-186.659 4066.23 -255.804 4175.86 -336.861 4064.07C-401.707 3974.64 -419.723 3888.52 -420.625 3856.65" stroke="#FFAD41" stroke-width="1.04293"/>
<path d="M1606.97 4942.49C1519.88 4966.94 1323.28 4982.63 1233.55 4849.8C1121.38 4683.77 937.909 4648 827.589 4649.78C717.269 4651.55 485.743 4608.57 386.549 4432.46C287.356 4256.35 179.394 4161.24 -5.99996 4118.54C-191.394 4075.84 -260.538 4185.47 -341.596 4073.68C-406.442 3984.25 -424.457 3898.13 -425.359 3866.26" stroke="#FFAD41" stroke-width="1.04293"/>
<path d="M1646.62 4862.02C1559.54 4886.47 1362.93 4902.16 1273.2 4769.33C1161.03 4603.3 977.56 4567.53 867.24 4569.31C756.92 4571.08 525.393 4528.1 426.2 4351.99C327.007 4175.88 219.044 4080.77 33.6507 4038.07C-151.743 3995.37 -220.888 4105 -301.945 3993.21C-366.791 3903.78 -384.806 3817.66 -385.708 3785.78" stroke="#FFAD41" stroke-width="1.04293"/>
<path d="M1617.62 4920.88C1530.54 4945.32 1333.93 4961.01 1244.2 4828.19C1132.03 4662.15 948.561 4626.38 838.242 4628.16C727.922 4629.93 496.395 4586.95 397.202 4410.84C298.008 4234.73 190.046 4139.62 4.65249 4096.92C-180.741 4054.22 -249.886 4163.85 -330.943 4052.06C-395.789 3962.63 -413.805 3876.51 -414.707 3844.64" stroke="#FFAD41" stroke-width="1.04293"/>
<path d="M1622.36 4911.27C1535.27 4935.72 1338.67 4951.41 1248.93 4818.58C1136.77 4652.54 953.296 4616.78 842.976 4618.55C732.656 4620.32 501.13 4577.35 401.936 4401.24C302.743 4225.13 194.781 4130.02 9.38688 4087.32C-176.007 4044.61 -245.152 4154.24 -326.209 4042.45C-391.055 3953.02 -409.07 3866.91 -409.972 3835.03" stroke="#FFAD41" stroke-width="1.04293"/>
<path d="M1627.09 4901.66C1540.01 4926.11 1343.4 4941.8 1253.67 4808.97C1141.5 4642.93 958.03 4607.17 847.71 4608.94C737.39 4610.71 505.864 4567.74 406.671 4391.63C307.477 4215.52 199.515 4120.41 14.1212 4077.71C-171.272 4035 -240.417 4144.63 -321.475 4032.84C-386.32 3943.41 -404.336 3857.3 -405.238 3825.42" stroke="#FFAD41" stroke-width="1.04293"/>
<path d="M1632.42 4890.85C1545.33 4915.3 1348.73 4930.99 1258.99 4798.16C1146.83 4632.12 963.357 4596.36 853.037 4598.13C742.717 4599.9 511.19 4556.93 411.997 4380.82C312.803 4204.71 204.841 4109.6 19.4475 4066.9C-165.946 4024.19 -235.091 4133.82 -316.148 4022.03C-380.994 3932.6 -399.01 3846.49 -399.911 3814.61" stroke="#FFAD41" stroke-width="1.04293"/>
<path d="M1637.15 4881.24C1550.07 4905.69 1353.46 4921.38 1263.73 4788.55C1151.56 4622.51 968.091 4586.75 857.771 4588.52C747.451 4590.3 515.925 4547.32 416.731 4371.21C317.538 4195.1 209.575 4099.99 24.1818 4057.29C-161.212 4014.59 -230.357 4124.22 -311.414 4012.43C-376.26 3923 -394.275 3836.88 -395.177 3805" stroke="#FFAD41" stroke-width="1.04293"/>
<path d="M1641.89 4871.63C1554.8 4896.08 1358.19 4911.77 1268.46 4778.94C1156.3 4612.91 972.825 4577.14 862.505 4578.91C752.185 4580.69 520.659 4537.71 421.466 4361.6C322.272 4185.49 214.31 4090.38 28.9163 4047.68C-156.477 4004.98 -225.622 4114.61 -306.68 4002.82C-371.525 3913.39 -389.541 3827.27 -390.443 3795.39" stroke="#FFAD41" stroke-width="1.04293"/>
<path d="M1651.95 4851.22C1564.86 4875.66 1368.26 4891.35 1278.52 4758.53C1166.36 4592.49 982.886 4556.72 872.566 4558.5C762.246 4560.27 530.72 4517.29 431.526 4341.18C332.333 4165.07 224.371 4069.96 38.9768 4027.26C-146.417 3984.56 -215.562 4094.19 -296.619 3982.4C-361.465 3892.97 -379.48 3806.85 -380.382 3774.98" stroke="#FFAD41" stroke-width="1.04293"/>
<path d="M1709.81 4733.78C1622.73 4758.23 1426.12 4773.92 1336.39 4641.09C1224.22 4475.05 1040.75 4439.29 930.43 4441.06C820.11 4442.84 588.584 4399.86 489.39 4223.75C390.197 4047.64 282.235 3952.53 96.841 3909.83C-88.5527 3867.13 -157.697 3976.76 -238.755 3864.97C-303.601 3775.53 -321.616 3689.42 -322.518 3657.54" stroke="#FFAD41" stroke-width="1.04293"/>
<path d="M1660.69 4833.47C1573.61 4857.92 1377 4873.61 1287.27 4740.78C1175.1 4574.74 991.63 4538.97 881.311 4540.75C770.991 4542.52 539.464 4499.54 440.271 4323.43C341.077 4147.32 233.115 4052.22 47.7215 4009.51C-137.672 3966.81 -206.817 4076.44 -287.874 3964.65C-352.72 3875.22 -370.736 3789.11 -371.638 3757.23" stroke="#FFAD41" stroke-width="1.04293"/>
<path d="M1655.96 4843.07C1568.87 4867.52 1372.27 4883.21 1282.53 4750.38C1170.37 4584.35 986.896 4548.58 876.576 4550.36C766.256 4552.13 534.73 4509.15 435.536 4333.04C336.343 4156.93 228.381 4061.82 42.9871 4019.12C-142.407 3976.42 -211.551 4086.05 -292.609 3974.26C-357.455 3884.83 -375.47 3798.71 -376.372 3766.84" stroke="#FFAD41" stroke-width="1.04293"/>
<path d="M1667.2 4820.26C1580.12 4844.7 1383.51 4860.4 1293.78 4727.57C1181.61 4561.53 998.14 4525.76 887.82 4527.54C777.501 4529.31 545.974 4486.33 446.781 4310.22C347.587 4134.11 239.625 4039 54.2314 3996.3C-131.162 3953.6 -200.307 4063.23 -281.364 3951.44C-346.21 3862.01 -364.226 3775.9 -365.128 3744.02" stroke="#FFAD41" stroke-width="1.04293"/>
<path d="M1673.12 4808.24C1586.03 4832.69 1389.43 4848.38 1299.7 4715.55C1187.53 4549.52 1004.06 4513.75 893.738 4515.53C783.418 4517.3 551.892 4474.32 452.698 4298.21C353.505 4122.1 245.543 4026.99 60.1491 3984.29C-125.245 3941.59 -194.389 4051.22 -275.447 3939.43C-340.293 3850 -358.308 3763.88 -359.21 3732.01" stroke="#FFAD41" stroke-width="1.04293"/>
<path d="M1679.04 4796.23C1591.95 4820.68 1395.35 4836.37 1305.61 4703.54C1193.45 4537.51 1009.98 4501.74 899.656 4503.52C789.336 4505.29 557.81 4462.31 458.617 4286.2C359.423 4110.09 251.461 4014.98 66.0673 3972.28C-119.326 3929.58 -188.471 4039.21 -269.529 3927.42C-334.374 3837.99 -352.39 3751.87 -353.292 3720" stroke="#FFAD41" stroke-width="1.04293"/>
<path d="M1684.96 4784.22C1597.87 4808.67 1401.26 4824.36 1311.53 4691.53C1199.37 4525.5 1015.89 4489.73 905.574 4491.5C795.254 4493.28 563.728 4450.3 464.535 4274.19C365.341 4098.08 257.379 4002.97 71.9853 3960.27C-113.408 3917.57 -182.553 4027.2 -263.611 3915.41C-328.456 3825.98 -346.472 3739.86 -347.374 3707.98" stroke="#FFAD41" stroke-width="1.04293"/>
<path d="M1691.47 4771.01C1604.38 4795.46 1407.77 4811.15 1318.04 4678.32C1205.88 4512.29 1022.4 4476.52 912.084 4478.29C801.764 4480.07 570.238 4437.09 471.045 4260.98C371.851 4084.87 263.889 3989.76 78.4953 3947.06C-106.898 3904.36 -176.043 4013.99 -257.101 3902.2C-321.946 3812.77 -339.962 3726.65 -340.864 3694.77" stroke="#FFAD41" stroke-width="1.04293"/>
<path d="M1698.57 4756.6C1611.48 4781.05 1414.88 4796.74 1325.14 4663.91C1212.98 4497.87 1029.51 4462.11 919.186 4463.88C808.866 4465.66 577.34 4422.68 478.146 4246.57C378.953 4070.46 270.991 3975.35 85.5968 3932.65C-99.7968 3889.95 -168.942 3999.58 -249.999 3887.79C-314.845 3798.35 -332.86 3712.24 -333.762 3680.36" stroke="#FFAD41" stroke-width="1.04293"/>
<path d="M1705.67 4742.19C1618.58 4766.63 1421.98 4782.32 1332.24 4649.5C1220.08 4483.46 1036.61 4447.69 926.287 4449.47C815.967 4451.24 584.441 4408.26 485.247 4232.15C386.054 4056.04 278.092 3960.93 92.6981 3918.23C-92.6955 3875.53 -161.84 3985.16 -242.898 3873.37C-307.744 3783.94 -325.759 3697.83 -326.661 3665.95" stroke="#FFAD41" stroke-width="1.04293"/>
<g filter="url(#filter1_f_0_2797)">
<ellipse cx="1150.23" cy="4195.3" rx="2.60733" ry="2.08586" transform="rotate(-153.769 1150.23 4195.3)" fill="#D9D9D9" fill-opacity="0.2"/>
</g>
</g>
<g clip-path="url(#clip3_0_2797)">
<g filter="url(#filter2_dd_0_2797)">
<path d="M-369.02 486.543C-322.757 554.108 -195.688 679.393 -57.5187 640.014C115.193 590.791 262.643 672.936 337.97 738.388C413.297 803.839 598.132 908.986 767.636 845.262C937.14 781.538 1066.32 778.791 1219.07 857.272C1371.82 935.753 1356.89 1051.63 1477 1021.71C1573.1 997.776 1634.88 948.865 1653.77 927.402" stroke="#FFAD41"/>
</g>
<g filter="url(#filter3_dd_0_2797)">
<path d="M-365.402 471.294C-319.139 538.859 -192.07 664.144 -53.9005 624.765C118.811 575.542 266.261 657.687 341.588 723.139C416.915 788.59 601.75 893.737 771.254 830.013C940.758 766.289 1069.94 763.542 1222.69 842.023C1375.44 920.504 1360.51 1036.38 1480.62 1006.46C1576.72 982.527 1638.5 933.616 1657.38 912.153" stroke="#FFAD41"/>
</g>
<g filter="url(#filter4_dd_0_2797)">
<path d="M-376.253 523.252C-329.99 590.817 -202.921 716.102 -64.7516 676.723C107.96 627.5 255.41 709.645 330.737 775.097C406.064 840.548 590.899 945.695 760.403 881.971C929.907 818.247 1059.09 815.5 1211.84 893.981C1364.59 972.462 1349.66 1088.34 1469.77 1058.42C1565.86 1034.49 1627.65 985.574 1646.53 964.111" stroke="#FFAD41"/>
</g>
<g filter="url(#filter5_dd_0_2797)">
<path d="M-375.979 515.867C-329.715 583.432 -202.646 708.717 -64.4768 669.338C108.235 620.115 255.684 702.26 331.012 767.712C406.339 833.163 591.174 938.31 760.678 874.586C930.182 810.862 1059.36 808.115 1212.12 886.596C1364.87 965.077 1349.93 1080.95 1470.05 1051.03C1566.14 1027.1 1627.93 978.19 1646.81 956.726" stroke="#FFAD41"/>
</g>
<g filter="url(#filter6_dd_0_2797)">
<path d="M-374.309 508.829C-328.045 576.394 -200.976 701.679 -62.8068 662.3C109.905 613.077 257.354 695.222 332.682 760.674C408.009 826.125 592.844 931.272 762.348 867.548C931.852 803.824 1061.03 801.077 1213.79 879.558C1366.54 958.039 1351.6 1073.91 1471.72 1044C1567.81 1020.06 1629.6 971.152 1648.48 949.688" stroke="#FFAD41"/>
</g>
<g filter="url(#filter7_dd_0_2797)">
<path d="M-372.639 501.791C-326.375 569.356 -199.306 694.641 -61.1369 655.262C111.575 606.039 259.024 688.184 334.352 753.636C409.679 819.087 594.514 924.234 764.018 860.51C933.522 796.786 1062.7 794.039 1215.46 872.52C1368.21 951.001 1353.27 1066.87 1473.39 1036.96C1569.48 1013.02 1631.27 964.114 1650.15 942.65" stroke="#FFAD41"/>
</g>
<g filter="url(#filter8_dd_0_2797)">
<path d="M-370.969 494.754C-324.705 562.319 -197.636 687.604 -59.4669 648.225C113.244 599.002 260.694 681.147 336.022 746.598C411.349 812.05 596.184 917.197 765.688 853.473C935.192 789.749 1064.37 787.002 1217.13 865.483C1369.88 943.964 1354.94 1059.84 1475.06 1029.92C1571.15 1005.99 1632.94 957.076 1651.82 935.613" stroke="#FFAD41"/>
</g>
<g filter="url(#filter9_dd_0_2797)">
<path d="M-379.597 531.115C-333.333 598.68 -206.264 723.965 -68.095 684.587C104.616 635.363 252.066 717.509 327.393 782.96C402.721 848.411 587.556 953.559 757.06 889.835C926.564 826.111 1055.75 823.363 1208.5 901.844C1361.25 980.325 1346.31 1096.2 1466.43 1066.28C1562.52 1042.35 1624.31 993.438 1643.19 971.974" stroke="#FFAD41"/>
</g>
<g filter="url(#filter10_dd_0_2797)">
<path d="M-367.629 480.678C-321.365 548.242 -194.296 673.528 -56.1271 634.149C116.584 584.926 264.034 667.071 339.361 732.522C414.689 797.974 599.524 903.121 769.028 839.397C938.532 775.673 1067.71 772.925 1220.47 851.406C1373.22 929.888 1358.28 1045.76 1478.4 1015.84C1574.49 991.911 1636.28 943 1655.16 921.537" stroke="#FFAD41"/>
</g>
<g filter="url(#filter11_dd_0_2797)">
<path d="M-363.732 464.256C-317.469 531.821 -190.4 657.106 -52.2305 617.727C120.481 568.504 267.931 650.649 343.258 716.1C418.585 781.552 603.42 886.699 772.924 822.975C942.428 759.251 1071.61 756.504 1224.36 834.985C1377.11 913.466 1362.18 1029.34 1482.29 999.422C1578.39 975.489 1640.17 926.578 1659.05 905.115" stroke="#FFAD41"/>
</g>
<g filter="url(#filter12_dd_0_2797)">
<path d="M-361.784 456.045C-315.521 523.61 -188.451 648.895 -50.2823 609.516C122.429 560.293 269.879 642.438 345.206 707.89C420.533 773.341 605.369 878.488 774.873 814.764C944.377 751.04 1073.56 748.293 1226.31 826.774C1379.06 905.255 1364.12 1021.13 1484.24 991.212C1580.33 967.278 1642.12 918.367 1661 896.904" stroke="#FFAD41"/>
</g>
<g filter="url(#filter13_dd_0_2797)">
<path d="M-357.609 438.45C-311.346 506.015 -184.277 631.3 -46.1075 591.921C126.604 542.698 274.054 624.843 349.381 690.295C424.708 755.746 609.543 860.893 779.047 797.169C948.551 733.445 1077.73 730.698 1230.48 809.179C1383.24 887.66 1368.3 1003.53 1488.42 973.617C1584.51 949.683 1646.29 900.773 1665.18 879.309" stroke="#FFAD41"/>
</g>
<g filter="url(#filter14_dd_0_2797)">
<path d="M-359.836 447.834C-313.572 515.399 -186.503 640.684 -48.334 601.305C124.377 552.082 271.827 634.227 347.154 699.679C422.482 765.13 607.317 870.277 776.821 806.553C946.325 742.829 1075.51 740.082 1228.26 818.563C1381.01 897.044 1366.07 1012.92 1486.19 983.001C1582.28 959.067 1644.07 910.157 1662.95 888.693" stroke="#FFAD41"/>
</g>
<g filter="url(#filter15_dd_0_2797)">
<path d="M-341.188 369.244C-294.925 436.809 -167.855 562.094 -29.6863 522.715C143.025 473.492 290.475 555.637 365.802 621.089C441.129 686.54 625.965 791.687 795.469 727.963C964.973 664.239 1094.15 661.492 1246.91 739.973C1399.66 818.454 1384.72 934.328 1504.84 904.411C1600.93 880.477 1662.72 831.567 1681.6 810.103" stroke="#FFAD41"/>
</g>
<g filter="url(#filter16_dd_0_2797)">
<path d="M-354.826 426.721C-308.563 494.285 -181.493 619.571 -43.3242 580.192C129.387 530.969 276.837 613.114 352.164 678.565C427.491 744.017 612.327 849.164 781.831 785.44C951.335 721.716 1080.52 718.968 1233.27 797.449C1386.02 875.931 1371.08 991.804 1491.2 961.887C1587.29 937.954 1649.08 889.043 1667.96 867.58" stroke="#FFAD41"/>
</g>
<g filter="url(#filter17_dd_0_2797)">
<path d="M-352.6 417.337C-306.336 484.902 -179.267 610.187 -41.0978 570.808C131.614 521.585 279.064 603.73 354.391 669.181C429.718 734.633 614.553 839.78 784.057 776.056C953.561 712.332 1082.74 709.585 1235.49 788.066C1388.25 866.547 1373.31 982.421 1493.43 952.504C1589.52 928.57 1651.3 879.659 1670.19 858.196" stroke="#FFAD41"/>
</g>
<g filter="url(#filter18_dd_0_2797)">
<path d="M-350.373 407.953C-304.109 475.518 -177.04 600.803 -38.8709 561.424C133.841 512.201 281.29 594.346 356.618 659.798C431.945 725.249 616.78 830.396 786.284 766.672C955.788 702.948 1084.97 700.201 1237.72 778.682C1390.47 857.163 1375.54 973.037 1495.65 943.12C1591.75 919.186 1653.53 870.276 1672.41 848.812" stroke="#FFAD41"/>
</g>
<g filter="url(#filter19_dd_0_2797)">
<path d="M-347.868 397.395C-301.604 464.96 -174.535 590.245 -36.3661 550.867C136.345 501.644 283.795 583.789 359.122 649.24C434.45 714.691 619.285 819.839 788.789 756.115C958.293 692.391 1087.47 689.643 1240.23 768.124C1392.98 846.605 1378.04 962.479 1498.16 932.562C1594.25 908.629 1656.04 859.718 1674.92 838.254" stroke="#FFAD41"/>
</g>
<g filter="url(#filter20_dd_0_2797)">
<path d="M-345.641 388.012C-299.378 455.576 -172.308 580.862 -34.1394 541.483C138.572 492.26 286.022 574.405 361.349 639.856C436.676 705.308 621.512 810.455 791.016 746.731C960.52 683.007 1089.7 680.259 1242.45 758.74C1395.2 837.222 1380.27 953.095 1500.38 923.178C1596.48 899.245 1658.26 850.334 1677.14 828.871" stroke="#FFAD41"/>
</g>
<g filter="url(#filter21_dd_0_2797)">
<path d="M-343.415 378.628C-297.151 446.193 -170.082 571.478 -31.9129 532.099C140.799 482.876 288.248 565.021 363.576 630.473C438.903 695.924 623.738 801.071 793.242 737.347C962.746 673.623 1091.93 670.876 1244.68 749.357C1397.43 827.838 1382.49 943.712 1502.61 913.795C1598.7 889.861 1660.49 840.95 1679.37 819.487" stroke="#FFAD41"/>
</g>
<g filter="url(#filter22_dd_0_2797)">
<path d="M-338.683 358.687C-292.42 426.252 -165.351 551.537 -27.1815 512.159C145.53 462.936 292.98 545.081 368.307 610.532C443.634 675.983 628.469 781.131 797.973 717.407C967.477 653.683 1096.66 650.935 1249.41 729.416C1402.16 807.897 1387.23 923.771 1507.34 893.854C1603.43 869.921 1665.22 821.01 1684.1 799.546" stroke="#FFAD41"/>
</g>
<g filter="url(#filter23_dd_0_2797)">
<path d="M-311.47 243.998C-265.206 311.563 -138.137 436.848 0.0320263 397.469C172.743 348.246 320.193 430.391 395.52 495.843C470.848 561.294 655.683 666.441 825.187 602.717C994.691 538.993 1123.87 536.246 1276.62 614.727C1429.38 693.208 1414.44 809.082 1534.56 779.165C1630.65 755.231 1692.43 706.321 1711.32 684.857" stroke="#FFAD41"/>
</g>
<g filter="url(#filter24_dd_0_2797)">
<path d="M-334.57 341.355C-288.307 408.92 -161.238 534.205 -23.0687 494.827C149.643 445.603 297.093 527.749 372.42 593.2C447.747 658.651 632.582 763.799 802.086 700.075C971.59 636.351 1100.77 633.603 1253.52 712.084C1406.27 790.565 1391.34 906.439 1511.45 876.522C1607.55 852.589 1669.33 803.678 1688.22 782.214" stroke="#FFAD41"/>
</g>
<g filter="url(#filter25_dd_0_2797)">
<path d="M-336.797 350.739C-290.534 418.304 -163.465 543.589 -25.2954 504.211C147.416 454.987 294.866 537.133 370.193 602.584C445.52 668.035 630.355 773.183 799.859 709.459C969.363 645.735 1098.55 642.987 1251.3 721.468C1404.05 799.949 1389.11 915.823 1509.23 885.906C1605.32 861.972 1667.11 813.062 1685.99 791.598" stroke="#FFAD41"/>
</g>
<g filter="url(#filter26_dd_0_2797)">
<path d="M-331.509 328.452C-285.246 396.017 -158.176 521.302 -20.0074 481.923C152.704 432.7 300.154 514.845 375.481 580.297C450.808 645.748 635.644 750.895 805.148 687.171C974.652 623.447 1103.83 620.7 1256.58 699.181C1409.34 777.662 1394.4 893.536 1514.52 863.619C1610.61 839.685 1672.4 790.775 1691.28 769.311" stroke="#FFAD41"/>
</g>
<g filter="url(#filter27_dd_0_2797)">
<path d="M-328.726 316.722C-282.462 384.287 -155.393 509.573 -17.224 470.194C155.487 420.971 302.937 503.116 378.264 568.567C453.592 634.019 638.427 739.166 807.931 675.442C977.435 611.718 1106.62 608.97 1259.37 687.451C1412.12 765.932 1397.18 881.806 1517.3 851.889C1613.39 827.956 1675.18 779.045 1694.06 757.582" stroke="#FFAD41"/>
</g>
<g filter="url(#filter28_dd_0_2797)">
<path d="M-325.943 304.992C-279.679 372.557 -152.61 497.842 -14.4408 458.463C158.271 409.24 305.721 491.385 381.048 556.837C456.375 622.288 641.21 727.435 810.714 663.711C980.218 599.987 1109.4 597.24 1262.15 675.721C1414.9 754.202 1399.97 870.076 1520.08 840.159C1616.18 816.225 1677.96 767.315 1696.84 745.851" stroke="#FFAD41"/>
</g>
<g filter="url(#filter29_dd_0_2797)">
<path d="M-323.159 293.262C-276.896 360.827 -149.827 486.113 -11.6576 446.734C161.054 397.511 308.504 479.656 383.831 545.107C459.158 610.559 643.993 715.706 813.497 651.982C983.001 588.258 1112.18 585.51 1264.93 663.991C1417.69 742.473 1402.75 858.346 1522.87 828.429C1618.96 804.496 1680.74 755.585 1699.63 734.122" stroke="#FFAD41"/>
</g>
<g filter="url(#filter30_dd_0_2797)">
<path d="M-320.098 280.36C-273.834 347.925 -146.765 473.21 -8.59593 433.832C164.115 384.608 311.565 466.754 386.893 532.205C462.22 597.656 647.055 702.804 816.559 639.08C986.063 575.356 1115.24 572.608 1268 651.089C1420.75 729.57 1405.81 845.444 1525.93 815.527C1622.02 791.593 1683.81 742.683 1702.69 721.219" stroke="#FFAD41"/>
</g>
<g filter="url(#filter31_dd_0_2797)">
<path d="M-316.758 266.284C-270.494 333.849 -143.425 459.134 -5.25609 419.755C167.455 370.532 314.905 452.677 390.232 518.129C465.56 583.58 650.395 688.727 819.899 625.003C989.403 561.279 1118.58 558.532 1271.34 637.013C1424.09 715.494 1409.15 831.368 1529.27 801.451C1625.36 777.517 1687.15 728.607 1706.03 707.143" stroke="#FFAD41"/>
</g>
<g filter="url(#filter32_dd_0_2797)">
<path d="M-313.418 252.209C-267.155 319.774 -140.085 445.059 -1.91628 405.68C170.795 356.457 318.245 438.602 393.572 504.054C468.899 569.505 653.735 674.652 823.239 610.928C992.743 547.204 1121.92 544.457 1274.68 622.938C1427.43 701.419 1412.49 817.293 1532.61 787.376C1628.7 763.442 1690.49 714.532 1709.37 693.068" stroke="#FFAD41"/>
</g>
<ellipse cx="2.90812" cy="2.03355" rx="2.90812" ry="2.03355" transform="matrix(0.97043 0.241383 0.230868 -0.972985 547.356 186.574)" fill="#D9D9D9" fill-opacity="0.2"/>
</g>
</g>
<defs>
<filter id="filter0_f_0_2797" x="901.572" y="2359.68" width="13.4964" height="12.5934" filterUnits="userSpaceOnUse" color-interpolation-filters="sRGB">
<feFlood flood-opacity="0" result="BackgroundImageFix"/>
<feBlend mode="normal" in="SourceGraphic" in2="BackgroundImageFix" result="shape"/>
<feGaussianBlur stdDeviation="2.08586" result="effect1_foregroundBlur_0_2797"/>
</filter>
<filter id="filter1_f_0_2797" x="1143.54" y="4188.93" width="13.3727" height="12.738" filterUnits="userSpaceOnUse" color-interpolation-filters="sRGB">
<feFlood flood-opacity="0" result="BackgroundImageFix"/>
<feBlend mode="normal" in="SourceGraphic" in2="BackgroundImageFix" result="shape"/>
<feGaussianBlur stdDeviation="2.08586" result="effect1_foregroundBlur_0_2797"/>
</filter>
<filter id="filter2_dd_0_2797" x="-418.13" y="441.562" width="2120.97" height="638.173" filterUnits="userSpaceOnUse" color-interpolation-filters="sRGB">
<feFlood flood-opacity="0" result="BackgroundImageFix"/>
<feColorMatrix in="SourceAlpha" type="matrix" values="0 0 0 0 0 0 0 0 0 0 0 0 0 0 0 0 0 0 127 0" result="hardAlpha"/>
<feMorphology radius="32" operator="dilate" in="SourceAlpha" result="effect1_dropShadow_0_2797"/>
<feOffset dy="4"/>
<feGaussianBlur stdDeviation="8.35"/>
<feComposite in2="hardAlpha" operator="out"/>
<feColorMatrix type="matrix" values="0 0 0 0 1 0 0 0 0 0.678431 0 0 0 0 0.254902 0 0 0 1 0"/>
<feBlend mode="normal" in2="BackgroundImageFix" result="effect1_dropShadow_0_2797"/>
<feColorMatrix in="SourceAlpha" type="matrix" values="0 0 0 0 0 0 0 0 0 0 0 0 0 0 0 0 0 0 127 0" result="hardAlpha"/>
<feOffset dy="2"/>
<feGaussianBlur stdDeviation="2"/>
<feComposite in2="hardAlpha" operator="out"/>
<feColorMatrix type="matrix" values="0 0 0 0 0 0 0 0 0 0 0 0 0 0 0 0 0 0 0.25 0"/>
<feBlend mode="normal" in2="effect1_dropShadow_0_2797" result="effect2_dropShadow_0_2797"/>
<feBlend mode="normal" in="SourceGraphic" in2="effect2_dropShadow_0_2797" result="shape"/>
</filter>
<filter id="filter3_dd_0_2797" x="-414.512" y="426.313" width="2120.97" height="638.173" filterUnits="userSpaceOnUse" color-interpolation-filters="sRGB">
<feFlood flood-opacity="0" result="BackgroundImageFix"/>
<feColorMatrix in="SourceAlpha" type="matrix" values="0 0 0 0 0 0 0 0 0 0 0 0 0 0 0 0 0 0 127 0" result="hardAlpha"/>
<feMorphology radius="32" operator="dilate" in="SourceAlpha" result="effect1_dropShadow_0_2797"/>
<feOffset dy="4"/>
<feGaussianBlur stdDeviation="8.35"/>
<feComposite in2="hardAlpha" operator="out"/>
<feColorMatrix type="matrix" values="0 0 0 0 1 0 0 0 0 0.678431 0 0 0 0 0.254902 0 0 0 1 0"/>
<feBlend mode="normal" in2="BackgroundImageFix" result="effect1_dropShadow_0_2797"/>
<feColorMatrix in="SourceAlpha" type="matrix" values="0 0 0 0 0 0 0 0 0 0 0 0 0 0 0 0 0 0 127 0" result="hardAlpha"/>
<feOffset dy="2"/>
<feGaussianBlur stdDeviation="2"/>
<feComposite in2="hardAlpha" operator="out"/>
<feColorMatrix type="matrix" values="0 0 0 0 0 0 0 0 0 0 0 0 0 0 0 0 0 0 0.25 0"/>
<feBlend mode="normal" in2="effect1_dropShadow_0_2797" result="effect2_dropShadow_0_2797"/>
<feBlend mode="normal" in="SourceGraphic" in2="effect2_dropShadow_0_2797" result="shape"/>
</filter>
<filter id="filter4_dd_0_2797" x="-425.363" y="478.271" width="2120.97" height="638.173" filterUnits="userSpaceOnUse" color-interpolation-filters="sRGB">
<feFlood flood-opacity="0" result="BackgroundImageFix"/>
<feColorMatrix in="SourceAlpha" type="matrix" values="0 0 0 0 0 0 0 0 0 0 0 0 0 0 0 0 0 0 127 0" result="hardAlpha"/>
<feMorphology radius="32" operator="dilate" in="SourceAlpha" result="effect1_dropShadow_0_2797"/>
<feOffset dy="4"/>
<feGaussianBlur stdDeviation="8.35"/>
<feComposite in2="hardAlpha" operator="out"/>
<feColorMatrix type="matrix" values="0 0 0 0 1 0 0 0 0 0.678431 0 0 0 0 0.254902 0 0 0 1 0"/>
<feBlend mode="normal" in2="BackgroundImageFix" result="effect1_dropShadow_0_2797"/>
<feColorMatrix in="SourceAlpha" type="matrix" values="0 0 0 0 0 0 0 0 0 0 0 0 0 0 0 0 0 0 127 0" result="hardAlpha"/>
<feOffset dy="2"/>
<feGaussianBlur stdDeviation="2"/>
<feComposite in2="hardAlpha" operator="out"/>
<feColorMatrix type="matrix" values="0 0 0 0 0 0 0 0 0 0 0 0 0 0 0 0 0 0 0.25 0"/>
<feBlend mode="normal" in2="effect1_dropShadow_0_2797" result="effect2_dropShadow_0_2797"/>
<feBlend mode="normal" in="SourceGraphic" in2="effect2_dropShadow_0_2797" result="shape"/>
</filter>
<filter id="filter5_dd_0_2797" x="-425.089" y="470.886" width="2120.97" height="638.173" filterUnits="userSpaceOnUse" color-interpolation-filters="sRGB">
<feFlood flood-opacity="0" result="BackgroundImageFix"/>
<feColorMatrix in="SourceAlpha" type="matrix" values="0 0 0 0 0 0 0 0 0 0 0 0 0 0 0 0 0 0 127 0" result="hardAlpha"/>
<feMorphology radius="32" operator="dilate" in="SourceAlpha" result="effect1_dropShadow_0_2797"/>
<feOffset dy="4"/>
<feGaussianBlur stdDeviation="8.35"/>
<feComposite in2="hardAlpha" operator="out"/>
<feColorMatrix type="matrix" values="0 0 0 0 1 0 0 0 0 0.678431 0 0 0 0 0.254902 0 0 0 1 0"/>
<feBlend mode="normal" in2="BackgroundImageFix" result="effect1_dropShadow_0_2797"/>
<feColorMatrix in="SourceAlpha" type="matrix" values="0 0 0 0 0 0 0 0 0 0 0 0 0 0 0 0 0 0 127 0" result="hardAlpha"/>
<feOffset dy="2"/>
<feGaussianBlur stdDeviation="2"/>
<feComposite in2="hardAlpha" operator="out"/>
<feColorMatrix type="matrix" values="0 0 0 0 0 0 0 0 0 0 0 0 0 0 0 0 0 0 0.25 0"/>
<feBlend mode="normal" in2="effect1_dropShadow_0_2797" result="effect2_dropShadow_0_2797"/>
<feBlend mode="normal" in="SourceGraphic" in2="effect2_dropShadow_0_2797" result="shape"/>
</filter>
<filter id="filter6_dd_0_2797" x="-423.419" y="463.848" width="2120.97" height="638.173" filterUnits="userSpaceOnUse" color-interpolation-filters="sRGB">
<feFlood flood-opacity="0" result="BackgroundImageFix"/>
<feColorMatrix in="SourceAlpha" type="matrix" values="0 0 0 0 0 0 0 0 0 0 0 0 0 0 0 0 0 0 127 0" result="hardAlpha"/>
<feMorphology radius="32" operator="dilate" in="SourceAlpha" result="effect1_dropShadow_0_2797"/>
<feOffset dy="4"/>
<feGaussianBlur stdDeviation="8.35"/>
<feComposite in2="hardAlpha" operator="out"/>
<feColorMatrix type="matrix" values="0 0 0 0 1 0 0 0 0 0.678431 0 0 0 0 0.254902 0 0 0 1 0"/>
<feBlend mode="normal" in2="BackgroundImageFix" result="effect1_dropShadow_0_2797"/>
<feColorMatrix in="SourceAlpha" type="matrix" values="0 0 0 0 0 0 0 0 0 0 0 0 0 0 0 0 0 0 127 0" result="hardAlpha"/>
<feOffset dy="2"/>
<feGaussianBlur stdDeviation="2"/>
<feComposite in2="hardAlpha" operator="out"/>
<feColorMatrix type="matrix" values="0 0 0 0 0 0 0 0 0 0 0 0 0 0 0 0 0 0 0.25 0"/>
<feBlend mode="normal" in2="effect1_dropShadow_0_2797" result="effect2_dropShadow_0_2797"/>
<feBlend mode="normal" in="SourceGraphic" in2="effect2_dropShadow_0_2797" result="shape"/>
</filter>
<filter id="filter7_dd_0_2797" x="-421.749" y="456.81" width="2120.97" height="638.173" filterUnits="userSpaceOnUse" color-interpolation-filters="sRGB">
<feFlood flood-opacity="0" result="BackgroundImageFix"/>
<feColorMatrix in="SourceAlpha" type="matrix" values="0 0 0 0 0 0 0 0 0 0 0 0 0 0 0 0 0 0 127 0" result="hardAlpha"/>
<feMorphology radius="32" operator="dilate" in="SourceAlpha" result="effect1_dropShadow_0_2797"/>
<feOffset dy="4"/>
<feGaussianBlur stdDeviation="8.35"/>
<feComposite in2="hardAlpha" operator="out"/>
<feColorMatrix type="matrix" values="0 0 0 0 1 0 0 0 0 0.678431 0 0 0 0 0.254902 0 0 0 1 0"/>
<feBlend mode="normal" in2="BackgroundImageFix" result="effect1_dropShadow_0_2797"/>
<feColorMatrix in="SourceAlpha" type="matrix" values="0 0 0 0 0 0 0 0 0 0 0 0 0 0 0 0 0 0 127 0" result="hardAlpha"/>
<feOffset dy="2"/>
<feGaussianBlur stdDeviation="2"/>
<feComposite in2="hardAlpha" operator="out"/>
<feColorMatrix type="matrix" values="0 0 0 0 0 0 0 0 0 0 0 0 0 0 0 0 0 0 0.25 0"/>
<feBlend mode="normal" in2="effect1_dropShadow_0_2797" result="effect2_dropShadow_0_2797"/>
<feBlend mode="normal" in="SourceGraphic" in2="effect2_dropShadow_0_2797" result="shape"/>
</filter>
<filter id="filter8_dd_0_2797" x="-420.079" y="449.773" width="2120.97" height="638.173" filterUnits="userSpaceOnUse" color-interpolation-filters="sRGB">
<feFlood flood-opacity="0" result="BackgroundImageFix"/>
<feColorMatrix in="SourceAlpha" type="matrix" values="0 0 0 0 0 0 0 0 0 0 0 0 0 0 0 0 0 0 127 0" result="hardAlpha"/>
<feMorphology radius="32" operator="dilate" in="SourceAlpha" result="effect1_dropShadow_0_2797"/>
<feOffset dy="4"/>
<feGaussianBlur stdDeviation="8.35"/>
<feComposite in2="hardAlpha" operator="out"/>
<feColorMatrix type="matrix" values="0 0 0 0 1 0 0 0 0 0.678431 0 0 0 0 0.254902 0 0 0 1 0"/>
<feBlend mode="normal" in2="BackgroundImageFix" result="effect1_dropShadow_0_2797"/>
<feColorMatrix in="SourceAlpha" type="matrix" values="0 0 0 0 0 0 0 0 0 0 0 0 0 0 0 0 0 0 127 0" result="hardAlpha"/>
<feOffset dy="2"/>
<feGaussianBlur stdDeviation="2"/>
<feComposite in2="hardAlpha" operator="out"/>
<feColorMatrix type="matrix" values="0 0 0 0 0 0 0 0 0 0 0 0 0 0 0 0 0 0 0.25 0"/>
<feBlend mode="normal" in2="effect1_dropShadow_0_2797" result="effect2_dropShadow_0_2797"/>
<feBlend mode="normal" in="SourceGraphic" in2="effect2_dropShadow_0_2797" result="shape"/>
</filter>
<filter id="filter9_dd_0_2797" x="-428.707" y="486.134" width="2120.97" height="638.173" filterUnits="userSpaceOnUse" color-interpolation-filters="sRGB">
<feFlood flood-opacity="0" result="BackgroundImageFix"/>
<feColorMatrix in="SourceAlpha" type="matrix" values="0 0 0 0 0 0 0 0 0 0 0 0 0 0 0 0 0 0 127 0" result="hardAlpha"/>
<feMorphology radius="32" operator="dilate" in="SourceAlpha" result="effect1_dropShadow_0_2797"/>
<feOffset dy="4"/>
<feGaussianBlur stdDeviation="8.35"/>
<feComposite in2="hardAlpha" operator="out"/>
<feColorMatrix type="matrix" values="0 0 0 0 1 0 0 0 0 0.678431 0 0 0 0 0.254902 0 0 0 1 0"/>
<feBlend mode="normal" in2="BackgroundImageFix" result="effect1_dropShadow_0_2797"/>
<feColorMatrix in="SourceAlpha" type="matrix" values="0 0 0 0 0 0 0 0 0 0 0 0 0 0 0 0 0 0 127 0" result="hardAlpha"/>
<feOffset dy="2"/>
<feGaussianBlur stdDeviation="2"/>
<feComposite in2="hardAlpha" operator="out"/>
<feColorMatrix type="matrix" values="0 0 0 0 0 0 0 0 0 0 0 0 0 0 0 0 0 0 0.25 0"/>
<feBlend mode="normal" in2="effect1_dropShadow_0_2797" result="effect2_dropShadow_0_2797"/>
<feBlend mode="normal" in="SourceGraphic" in2="effect2_dropShadow_0_2797" result="shape"/>
</filter>
<filter id="filter10_dd_0_2797" x="-416.739" y="435.696" width="2120.97" height="638.173" filterUnits="userSpaceOnUse" color-interpolation-filters="sRGB">
<feFlood flood-opacity="0" result="BackgroundImageFix"/>
<feColorMatrix in="SourceAlpha" type="matrix" values="0 0 0 0 0 0 0 0 0 0 0 0 0 0 0 0 0 0 127 0" result="hardAlpha"/>
<feMorphology radius="32" operator="dilate" in="SourceAlpha" result="effect1_dropShadow_0_2797"/>
<feOffset dy="4"/>
<feGaussianBlur stdDeviation="8.35"/>
<feComposite in2="hardAlpha" operator="out"/>
<feColorMatrix type="matrix" values="0 0 0 0 1 0 0 0 0 0.678431 0 0 0 0 0.254902 0 0 0 1 0"/>
<feBlend mode="normal" in2="BackgroundImageFix" result="effect1_dropShadow_0_2797"/>
<feColorMatrix in="SourceAlpha" type="matrix" values="0 0 0 0 0 0 0 0 0 0 0 0 0 0 0 0 0 0 127 0" result="hardAlpha"/>
<feOffset dy="2"/>
<feGaussianBlur stdDeviation="2"/>
<feComposite in2="hardAlpha" operator="out"/>
<feColorMatrix type="matrix" values="0 0 0 0 0 0 0 0 0 0 0 0 0 0 0 0 0 0 0.25 0"/>
<feBlend mode="normal" in2="effect1_dropShadow_0_2797" result="effect2_dropShadow_0_2797"/>
<feBlend mode="normal" in="SourceGraphic" in2="effect2_dropShadow_0_2797" result="shape"/>
</filter>
<filter id="filter11_dd_0_2797" x="-412.842" y="419.275" width="2120.97" height="638.173" filterUnits="userSpaceOnUse" color-interpolation-filters="sRGB">
<feFlood flood-opacity="0" result="BackgroundImageFix"/>
<feColorMatrix in="SourceAlpha" type="matrix" values="0 0 0 0 0 0 0 0 0 0 0 0 0 0 0 0 0 0 127 0" result="hardAlpha"/>
<feMorphology radius="32" operator="dilate" in="SourceAlpha" result="effect1_dropShadow_0_2797"/>
<feOffset dy="4"/>
<feGaussianBlur stdDeviation="8.35"/>
<feComposite in2="hardAlpha" operator="out"/>
<feColorMatrix type="matrix" values="0 0 0 0 1 0 0 0 0 0.678431 0 0 0 0 0.254902 0 0 0 1 0"/>
<feBlend mode="normal" in2="BackgroundImageFix" result="effect1_dropShadow_0_2797"/>
<feColorMatrix in="SourceAlpha" type="matrix" values="0 0 0 0 0 0 0 0 0 0 0 0 0 0 0 0 0 0 127 0" result="hardAlpha"/>
<feOffset dy="2"/>
<feGaussianBlur stdDeviation="2"/>
<feComposite in2="hardAlpha" operator="out"/>
<feColorMatrix type="matrix" values="0 0 0 0 0 0 0 0 0 0 0 0 0 0 0 0 0 0 0.25 0"/>
<feBlend mode="normal" in2="effect1_dropShadow_0_2797" result="effect2_dropShadow_0_2797"/>
<feBlend mode="normal" in="SourceGraphic" in2="effect2_dropShadow_0_2797" result="shape"/>
</filter>
<filter id="filter12_dd_0_2797" x="-410.894" y="411.064" width="2120.97" height="638.173" filterUnits="userSpaceOnUse" color-interpolation-filters="sRGB">
<feFlood flood-opacity="0" result="BackgroundImageFix"/>
<feColorMatrix in="SourceAlpha" type="matrix" values="0 0 0 0 0 0 0 0 0 0 0 0 0 0 0 0 0 0 127 0" result="hardAlpha"/>
<feMorphology radius="32" operator="dilate" in="SourceAlpha" result="effect1_dropShadow_0_2797"/>
<feOffset dy="4"/>
<feGaussianBlur stdDeviation="8.35"/>
<feComposite in2="hardAlpha" operator="out"/>
<feColorMatrix type="matrix" values="0 0 0 0 1 0 0 0 0 0.678431 0 0 0 0 0.254902 0 0 0 1 0"/>
<feBlend mode="normal" in2="BackgroundImageFix" result="effect1_dropShadow_0_2797"/>
<feColorMatrix in="SourceAlpha" type="matrix" values="0 0 0 0 0 0 0 0 0 0 0 0 0 0 0 0 0 0 127 0" result="hardAlpha"/>
<feOffset dy="2"/>
<feGaussianBlur stdDeviation="2"/>
<feComposite in2="hardAlpha" operator="out"/>
<feColorMatrix type="matrix" values="0 0 0 0 0 0 0 0 0 0 0 0 0 0 0 0 0 0 0.25 0"/>
<feBlend mode="normal" in2="effect1_dropShadow_0_2797" result="effect2_dropShadow_0_2797"/>
<feBlend mode="normal" in="SourceGraphic" in2="effect2_dropShadow_0_2797" result="shape"/>
</filter>
<filter id="filter13_dd_0_2797" x="-406.719" y="393.469" width="2120.97" height="638.173" filterUnits="userSpaceOnUse" color-interpolation-filters="sRGB">
<feFlood flood-opacity="0" result="BackgroundImageFix"/>
<feColorMatrix in="SourceAlpha" type="matrix" values="0 0 0 0 0 0 0 0 0 0 0 0 0 0 0 0 0 0 127 0" result="hardAlpha"/>
<feMorphology radius="32" operator="dilate" in="SourceAlpha" result="effect1_dropShadow_0_2797"/>
<feOffset dy="4"/>
<feGaussianBlur stdDeviation="8.35"/>
<feComposite in2="hardAlpha" operator="out"/>
<feColorMatrix type="matrix" values="0 0 0 0 1 0 0 0 0 0.678431 0 0 0 0 0.254902 0 0 0 1 0"/>
<feBlend mode="normal" in2="BackgroundImageFix" result="effect1_dropShadow_0_2797"/>
<feColorMatrix in="SourceAlpha" type="matrix" values="0 0 0 0 0 0 0 0 0 0 0 0 0 0 0 0 0 0 127 0" result="hardAlpha"/>
<feOffset dy="2"/>
<feGaussianBlur stdDeviation="2"/>
<feComposite in2="hardAlpha" operator="out"/>
<feColorMatrix type="matrix" values="0 0 0 0 0 0 0 0 0 0 0 0 0 0 0 0 0 0 0.25 0"/>
<feBlend mode="normal" in2="effect1_dropShadow_0_2797" result="effect2_dropShadow_0_2797"/>
<feBlend mode="normal" in="SourceGraphic" in2="effect2_dropShadow_0_2797" result="shape"/>
</filter>
<filter id="filter14_dd_0_2797" x="-408.946" y="402.853" width="2120.97" height="638.173" filterUnits="userSpaceOnUse" color-interpolation-filters="sRGB">
<feFlood flood-opacity="0" result="BackgroundImageFix"/>
<feColorMatrix in="SourceAlpha" type="matrix" values="0 0 0 0 0 0 0 0 0 0 0 0 0 0 0 0 0 0 127 0" result="hardAlpha"/>
<feMorphology radius="32" operator="dilate" in="SourceAlpha" result="effect1_dropShadow_0_2797"/>
<feOffset dy="4"/>
<feGaussianBlur stdDeviation="8.35"/>
<feComposite in2="hardAlpha" operator="out"/>
<feColorMatrix type="matrix" values="0 0 0 0 1 0 0 0 0 0.678431 0 0 0 0 0.254902 0 0 0 1 0"/>
<feBlend mode="normal" in2="BackgroundImageFix" result="effect1_dropShadow_0_2797"/>
<feColorMatrix in="SourceAlpha" type="matrix" values="0 0 0 0 0 0 0 0 0 0 0 0 0 0 0 0 0 0 127 0" result="hardAlpha"/>
<feOffset dy="2"/>
<feGaussianBlur stdDeviation="2"/>
<feComposite in2="hardAlpha" operator="out"/>
<feColorMatrix type="matrix" values="0 0 0 0 0 0 0 0 0 0 0 0 0 0 0 0 0 0 0.25 0"/>
<feBlend mode="normal" in2="effect1_dropShadow_0_2797" result="effect2_dropShadow_0_2797"/>
<feBlend mode="normal" in="SourceGraphic" in2="effect2_dropShadow_0_2797" result="shape"/>
</filter>
<filter id="filter15_dd_0_2797" x="-390.298" y="324.263" width="2120.97" height="638.173" filterUnits="userSpaceOnUse" color-interpolation-filters="sRGB">
<feFlood flood-opacity="0" result="BackgroundImageFix"/>
<feColorMatrix in="SourceAlpha" type="matrix" values="0 0 0 0 0 0 0 0 0 0 0 0 0 0 0 0 0 0 127 0" result="hardAlpha"/>
<feMorphology radius="32" operator="dilate" in="SourceAlpha" result="effect1_dropShadow_0_2797"/>
<feOffset dy="4"/>
<feGaussianBlur stdDeviation="8.35"/>
<feComposite in2="hardAlpha" operator="out"/>
<feColorMatrix type="matrix" values="0 0 0 0 1 0 0 0 0 0.678431 0 0 0 0 0.254902 0 0 0 1 0"/>
<feBlend mode="normal" in2="BackgroundImageFix" result="effect1_dropShadow_0_2797"/>
<feColorMatrix in="SourceAlpha" type="matrix" values="0 0 0 0 0 0 0 0 0 0 0 0 0 0 0 0 0 0 127 0" result="hardAlpha"/>
<feOffset dy="2"/>
<feGaussianBlur stdDeviation="2"/>
<feComposite in2="hardAlpha" operator="out"/>
<feColorMatrix type="matrix" values="0 0 0 0 0 0 0 0 0 0 0 0 0 0 0 0 0 0 0.25 0"/>
<feBlend mode="normal" in2="effect1_dropShadow_0_2797" result="effect2_dropShadow_0_2797"/>
<feBlend mode="normal" in="SourceGraphic" in2="effect2_dropShadow_0_2797" result="shape"/>
</filter>
<filter id="filter16_dd_0_2797" x="-403.936" y="381.739" width="2120.97" height="638.173" filterUnits="userSpaceOnUse" color-interpolation-filters="sRGB">
<feFlood flood-opacity="0" result="BackgroundImageFix"/>
<feColorMatrix in="SourceAlpha" type="matrix" values="0 0 0 0 0 0 0 0 0 0 0 0 0 0 0 0 0 0 127 0" result="hardAlpha"/>
<feMorphology radius="32" operator="dilate" in="SourceAlpha" result="effect1_dropShadow_0_2797"/>
<feOffset dy="4"/>
<feGaussianBlur stdDeviation="8.35"/>
<feComposite in2="hardAlpha" operator="out"/>
<feColorMatrix type="matrix" values="0 0 0 0 1 0 0 0 0 0.678431 0 0 0 0 0.254902 0 0 0 1 0"/>
<feBlend mode="normal" in2="BackgroundImageFix" result="effect1_dropShadow_0_2797"/>
<feColorMatrix in="SourceAlpha" type="matrix" values="0 0 0 0 0 0 0 0 0 0 0 0 0 0 0 0 0 0 127 0" result="hardAlpha"/>
<feOffset dy="2"/>
<feGaussianBlur stdDeviation="2"/>
<feComposite in2="hardAlpha" operator="out"/>
<feColorMatrix type="matrix" values="0 0 0 0 0 0 0 0 0 0 0 0 0 0 0 0 0 0 0.25 0"/>
<feBlend mode="normal" in2="effect1_dropShadow_0_2797" result="effect2_dropShadow_0_2797"/>
<feBlend mode="normal" in="SourceGraphic" in2="effect2_dropShadow_0_2797" result="shape"/>
</filter>
<filter id="filter17_dd_0_2797" x="-401.71" y="372.356" width="2120.97" height="638.173" filterUnits="userSpaceOnUse" color-interpolation-filters="sRGB">
<feFlood flood-opacity="0" result="BackgroundImageFix"/>
<feColorMatrix in="SourceAlpha" type="matrix" values="0 0 0 0 0 0 0 0 0 0 0 0 0 0 0 0 0 0 127 0" result="hardAlpha"/>
<feMorphology radius="32" operator="dilate" in="SourceAlpha" result="effect1_dropShadow_0_2797"/>
<feOffset dy="4"/>
<feGaussianBlur stdDeviation="8.35"/>
<feComposite in2="hardAlpha" operator="out"/>
<feColorMatrix type="matrix" values="0 0 0 0 1 0 0 0 0 0.678431 0 0 0 0 0.254902 0 0 0 1 0"/>
<feBlend mode="normal" in2="BackgroundImageFix" result="effect1_dropShadow_0_2797"/>
<feColorMatrix in="SourceAlpha" type="matrix" values="0 0 0 0 0 0 0 0 0 0 0 0 0 0 0 0 0 0 127 0" result="hardAlpha"/>
<feOffset dy="2"/>
<feGaussianBlur stdDeviation="2"/>
<feComposite in2="hardAlpha" operator="out"/>
<feColorMatrix type="matrix" values="0 0 0 0 0 0 0 0 0 0 0 0 0 0 0 0 0 0 0.25 0"/>
<feBlend mode="normal" in2="effect1_dropShadow_0_2797" result="effect2_dropShadow_0_2797"/>
<feBlend mode="normal" in="SourceGraphic" in2="effect2_dropShadow_0_2797" result="shape"/>
</filter>
<filter id="filter18_dd_0_2797" x="-399.483" y="362.972" width="2120.97" height="638.173" filterUnits="userSpaceOnUse" color-interpolation-filters="sRGB">
<feFlood flood-opacity="0" result="BackgroundImageFix"/>
<feColorMatrix in="SourceAlpha" type="matrix" values="0 0 0 0 0 0 0 0 0 0 0 0 0 0 0 0 0 0 127 0" result="hardAlpha"/>
<feMorphology radius="32" operator="dilate" in="SourceAlpha" result="effect1_dropShadow_0_2797"/>
<feOffset dy="4"/>
<feGaussianBlur stdDeviation="8.35"/>
<feComposite in2="hardAlpha" operator="out"/>
<feColorMatrix type="matrix" values="0 0 0 0 1 0 0 0 0 0.678431 0 0 0 0 0.254902 0 0 0 1 0"/>
<feBlend mode="normal" in2="BackgroundImageFix" result="effect1_dropShadow_0_2797"/>
<feColorMatrix in="SourceAlpha" type="matrix" values="0 0 0 0 0 0 0 0 0 0 0 0 0 0 0 0 0 0 127 0" result="hardAlpha"/>
<feOffset dy="2"/>
<feGaussianBlur stdDeviation="2"/>
<feComposite in2="hardAlpha" operator="out"/>
<feColorMatrix type="matrix" values="0 0 0 0 0 0 0 0 0 0 0 0 0 0 0 0 0 0 0.25 0"/>
<feBlend mode="normal" in2="effect1_dropShadow_0_2797" result="effect2_dropShadow_0_2797"/>
<feBlend mode="normal" in="SourceGraphic" in2="effect2_dropShadow_0_2797" result="shape"/>
</filter>
<filter id="filter19_dd_0_2797" x="-396.978" y="352.414" width="2120.97" height="638.173" filterUnits="userSpaceOnUse" color-interpolation-filters="sRGB">
<feFlood flood-opacity="0" result="BackgroundImageFix"/>
<feColorMatrix in="SourceAlpha" type="matrix" values="0 0 0 0 0 0 0 0 0 0 0 0 0 0 0 0 0 0 127 0" result="hardAlpha"/>
<feMorphology radius="32" operator="dilate" in="SourceAlpha" result="effect1_dropShadow_0_2797"/>
<feOffset dy="4"/>
<feGaussianBlur stdDeviation="8.35"/>
<feComposite in2="hardAlpha" operator="out"/>
<feColorMatrix type="matrix" values="0 0 0 0 1 0 0 0 0 0.678431 0 0 0 0 0.254902 0 0 0 1 0"/>
<feBlend mode="normal" in2="BackgroundImageFix" result="effect1_dropShadow_0_2797"/>
<feColorMatrix in="SourceAlpha" type="matrix" values="0 0 0 0 0 0 0 0 0 0 0 0 0 0 0 0 0 0 127 0" result="hardAlpha"/>
<feOffset dy="2"/>
<feGaussianBlur stdDeviation="2"/>
<feComposite in2="hardAlpha" operator="out"/>
<feColorMatrix type="matrix" values="0 0 0 0 0 0 0 0 0 0 0 0 0 0 0 0 0 0 0.25 0"/>
<feBlend mode="normal" in2="effect1_dropShadow_0_2797" result="effect2_dropShadow_0_2797"/>
<feBlend mode="normal" in="SourceGraphic" in2="effect2_dropShadow_0_2797" result="shape"/>
</filter>
<filter id="filter20_dd_0_2797" x="-394.751" y="343.03" width="2120.97" height="638.173" filterUnits="userSpaceOnUse" color-interpolation-filters="sRGB">
<feFlood flood-opacity="0" result="BackgroundImageFix"/>
<feColorMatrix in="SourceAlpha" type="matrix" values="0 0 0 0 0 0 0 0 0 0 0 0 0 0 0 0 0 0 127 0" result="hardAlpha"/>
<feMorphology radius="32" operator="dilate" in="SourceAlpha" result="effect1_dropShadow_0_2797"/>
<feOffset dy="4"/>
<feGaussianBlur stdDeviation="8.35"/>
<feComposite in2="hardAlpha" operator="out"/>
<feColorMatrix type="matrix" values="0 0 0 0 1 0 0 0 0 0.678431 0 0 0 0 0.254902 0 0 0 1 0"/>
<feBlend mode="normal" in2="BackgroundImageFix" result="effect1_dropShadow_0_2797"/>
<feColorMatrix in="SourceAlpha" type="matrix" values="0 0 0 0 0 0 0 0 0 0 0 0 0 0 0 0 0 0 127 0" result="hardAlpha"/>
<feOffset dy="2"/>
<feGaussianBlur stdDeviation="2"/>
<feComposite in2="hardAlpha" operator="out"/>
<feColorMatrix type="matrix" values="0 0 0 0 0 0 0 0 0 0 0 0 0 0 0 0 0 0 0.25 0"/>
<feBlend mode="normal" in2="effect1_dropShadow_0_2797" result="effect2_dropShadow_0_2797"/>
<feBlend mode="normal" in="SourceGraphic" in2="effect2_dropShadow_0_2797" result="shape"/>
</filter>
<filter id="filter21_dd_0_2797" x="-392.525" y="333.647" width="2120.97" height="638.173" filterUnits="userSpaceOnUse" color-interpolation-filters="sRGB">
<feFlood flood-opacity="0" result="BackgroundImageFix"/>
<feColorMatrix in="SourceAlpha" type="matrix" values="0 0 0 0 0 0 0 0 0 0 0 0 0 0 0 0 0 0 127 0" result="hardAlpha"/>
<feMorphology radius="32" operator="dilate" in="SourceAlpha" result="effect1_dropShadow_0_2797"/>
<feOffset dy="4"/>
<feGaussianBlur stdDeviation="8.35"/>
<feComposite in2="hardAlpha" operator="out"/>
<feColorMatrix type="matrix" values="0 0 0 0 1 0 0 0 0 0.678431 0 0 0 0 0.254902 0 0 0 1 0"/>
<feBlend mode="normal" in2="BackgroundImageFix" result="effect1_dropShadow_0_2797"/>
<feColorMatrix in="SourceAlpha" type="matrix" values="0 0 0 0 0 0 0 0 0 0 0 0 0 0 0 0 0 0 127 0" result="hardAlpha"/>
<feOffset dy="2"/>
<feGaussianBlur stdDeviation="2"/>
<feComposite in2="hardAlpha" operator="out"/>
<feColorMatrix type="matrix" values="0 0 0 0 0 0 0 0 0 0 0 0 0 0 0 0 0 0 0.25 0"/>
<feBlend mode="normal" in2="effect1_dropShadow_0_2797" result="effect2_dropShadow_0_2797"/>
<feBlend mode="normal" in="SourceGraphic" in2="effect2_dropShadow_0_2797" result="shape"/>
</filter>
<filter id="filter22_dd_0_2797" x="-387.793" y="313.706" width="2120.97" height="638.173" filterUnits="userSpaceOnUse" color-interpolation-filters="sRGB">
<feFlood flood-opacity="0" result="BackgroundImageFix"/>
<feColorMatrix in="SourceAlpha" type="matrix" values="0 0 0 0 0 0 0 0 0 0 0 0 0 0 0 0 0 0 127 0" result="hardAlpha"/>
<feMorphology radius="32" operator="dilate" in="SourceAlpha" result="effect1_dropShadow_0_2797"/>
<feOffset dy="4"/>
<feGaussianBlur stdDeviation="8.35"/>
<feComposite in2="hardAlpha" operator="out"/>
<feColorMatrix type="matrix" values="0 0 0 0 1 0 0 0 0 0.678431 0 0 0 0 0.254902 0 0 0 1 0"/>
<feBlend mode="normal" in2="BackgroundImageFix" result="effect1_dropShadow_0_2797"/>
<feColorMatrix in="SourceAlpha" type="matrix" values="0 0 0 0 0 0 0 0 0 0 0 0 0 0 0 0 0 0 127 0" result="hardAlpha"/>
<feOffset dy="2"/>
<feGaussianBlur stdDeviation="2"/>
<feComposite in2="hardAlpha" operator="out"/>
<feColorMatrix type="matrix" values="0 0 0 0 0 0 0 0 0 0 0 0 0 0 0 0 0 0 0.25 0"/>
<feBlend mode="normal" in2="effect1_dropShadow_0_2797" result="effect2_dropShadow_0_2797"/>
<feBlend mode="normal" in="SourceGraphic" in2="effect2_dropShadow_0_2797" result="shape"/>
</filter>
<filter id="filter23_dd_0_2797" x="-360.58" y="199.017" width="2120.97" height="638.173" filterUnits="userSpaceOnUse" color-interpolation-filters="sRGB">
<feFlood flood-opacity="0" result="BackgroundImageFix"/>
<feColorMatrix in="SourceAlpha" type="matrix" values="0 0 0 0 0 0 0 0 0 0 0 0 0 0 0 0 0 0 127 0" result="hardAlpha"/>
<feMorphology radius="32" operator="dilate" in="SourceAlpha" result="effect1_dropShadow_0_2797"/>
<feOffset dy="4"/>
<feGaussianBlur stdDeviation="8.35"/>
<feComposite in2="hardAlpha" operator="out"/>
<feColorMatrix type="matrix" values="0 0 0 0 1 0 0 0 0 0.678431 0 0 0 0 0.254902 0 0 0 1 0"/>
<feBlend mode="normal" in2="BackgroundImageFix" result="effect1_dropShadow_0_2797"/>
<feColorMatrix in="SourceAlpha" type="matrix" values="0 0 0 0 0 0 0 0 0 0 0 0 0 0 0 0 0 0 127 0" result="hardAlpha"/>
<feOffset dy="2"/>
<feGaussianBlur stdDeviation="2"/>
<feComposite in2="hardAlpha" operator="out"/>
<feColorMatrix type="matrix" values="0 0 0 0 0 0 0 0 0 0 0 0 0 0 0 0 0 0 0.25 0"/>
<feBlend mode="normal" in2="effect1_dropShadow_0_2797" result="effect2_dropShadow_0_2797"/>
<feBlend mode="normal" in="SourceGraphic" in2="effect2_dropShadow_0_2797" result="shape"/>
</filter>
<filter id="filter24_dd_0_2797" x="-383.68" y="296.374" width="2120.97" height="638.173" filterUnits="userSpaceOnUse" color-interpolation-filters="sRGB">
<feFlood flood-opacity="0" result="BackgroundImageFix"/>
<feColorMatrix in="SourceAlpha" type="matrix" values="0 0 0 0 0 0 0 0 0 0 0 0 0 0 0 0 0 0 127 0" result="hardAlpha"/>
<feMorphology radius="32" operator="dilate" in="SourceAlpha" result="effect1_dropShadow_0_2797"/>
<feOffset dy="4"/>
<feGaussianBlur stdDeviation="8.35"/>
<feComposite in2="hardAlpha" operator="out"/>
<feColorMatrix type="matrix" values="0 0 0 0 1 0 0 0 0 0.678431 0 0 0 0 0.254902 0 0 0 1 0"/>
<feBlend mode="normal" in2="BackgroundImageFix" result="effect1_dropShadow_0_2797"/>
<feColorMatrix in="SourceAlpha" type="matrix" values="0 0 0 0 0 0 0 0 0 0 0 0 0 0 0 0 0 0 127 0" result="hardAlpha"/>
<feOffset dy="2"/>
<feGaussianBlur stdDeviation="2"/>
<feComposite in2="hardAlpha" operator="out"/>
<feColorMatrix type="matrix" values="0 0 0 0 0 0 0 0 0 0 0 0 0 0 0 0 0 0 0.25 0"/>
<feBlend mode="normal" in2="effect1_dropShadow_0_2797" result="effect2_dropShadow_0_2797"/>
<feBlend mode="normal" in="SourceGraphic" in2="effect2_dropShadow_0_2797" result="shape"/>
</filter>
<filter id="filter25_dd_0_2797" x="-385.907" y="305.758" width="2120.97" height="638.173" filterUnits="userSpaceOnUse" color-interpolation-filters="sRGB">
<feFlood flood-opacity="0" result="BackgroundImageFix"/>
<feColorMatrix in="SourceAlpha" type="matrix" values="0 0 0 0 0 0 0 0 0 0 0 0 0 0 0 0 0 0 127 0" result="hardAlpha"/>
<feMorphology radius="32" operator="dilate" in="SourceAlpha" result="effect1_dropShadow_0_2797"/>
<feOffset dy="4"/>
<feGaussianBlur stdDeviation="8.35"/>
<feComposite in2="hardAlpha" operator="out"/>
<feColorMatrix type="matrix" values="0 0 0 0 1 0 0 0 0 0.678431 0 0 0 0 0.254902 0 0 0 1 0"/>
<feBlend mode="normal" in2="BackgroundImageFix" result="effect1_dropShadow_0_2797"/>
<feColorMatrix in="SourceAlpha" type="matrix" values="0 0 0 0 0 0 0 0 0 0 0 0 0 0 0 0 0 0 127 0" result="hardAlpha"/>
<feOffset dy="2"/>
<feGaussianBlur stdDeviation="2"/>
<feComposite in2="hardAlpha" operator="out"/>
<feColorMatrix type="matrix" values="0 0 0 0 0 0 0 0 0 0 0 0 0 0 0 0 0 0 0.25 0"/>
<feBlend mode="normal" in2="effect1_dropShadow_0_2797" result="effect2_dropShadow_0_2797"/>
<feBlend mode="normal" in="SourceGraphic" in2="effect2_dropShadow_0_2797" result="shape"/>
</filter>
<filter id="filter26_dd_0_2797" x="-380.619" y="283.471" width="2120.97" height="638.173" filterUnits="userSpaceOnUse" color-interpolation-filters="sRGB">
<feFlood flood-opacity="0" result="BackgroundImageFix"/>
<feColorMatrix in="SourceAlpha" type="matrix" values="0 0 0 0 0 0 0 0 0 0 0 0 0 0 0 0 0 0 127 0" result="hardAlpha"/>
<feMorphology radius="32" operator="dilate" in="SourceAlpha" result="effect1_dropShadow_0_2797"/>
<feOffset dy="4"/>
<feGaussianBlur stdDeviation="8.35"/>
<feComposite in2="hardAlpha" operator="out"/>
<feColorMatrix type="matrix" values="0 0 0 0 1 0 0 0 0 0.678431 0 0 0 0 0.254902 0 0 0 1 0"/>
<feBlend mode="normal" in2="BackgroundImageFix" result="effect1_dropShadow_0_2797"/>
<feColorMatrix in="SourceAlpha" type="matrix" values="0 0 0 0 0 0 0 0 0 0 0 0 0 0 0 0 0 0 127 0" result="hardAlpha"/>
<feOffset dy="2"/>
<feGaussianBlur stdDeviation="2"/>
<feComposite in2="hardAlpha" operator="out"/>
<feColorMatrix type="matrix" values="0 0 0 0 0 0 0 0 0 0 0 0 0 0 0 0 0 0 0.25 0"/>
<feBlend mode="normal" in2="effect1_dropShadow_0_2797" result="effect2_dropShadow_0_2797"/>
<feBlend mode="normal" in="SourceGraphic" in2="effect2_dropShadow_0_2797" result="shape"/>
</filter>
<filter id="filter27_dd_0_2797" x="-377.836" y="271.741" width="2120.97" height="638.173" filterUnits="userSpaceOnUse" color-interpolation-filters="sRGB">
<feFlood flood-opacity="0" result="BackgroundImageFix"/>
<feColorMatrix in="SourceAlpha" type="matrix" values="0 0 0 0 0 0 0 0 0 0 0 0 0 0 0 0 0 0 127 0" result="hardAlpha"/>
<feMorphology radius="32" operator="dilate" in="SourceAlpha" result="effect1_dropShadow_0_2797"/>
<feOffset dy="4"/>
<feGaussianBlur stdDeviation="8.35"/>
<feComposite in2="hardAlpha" operator="out"/>
<feColorMatrix type="matrix" values="0 0 0 0 1 0 0 0 0 0.678431 0 0 0 0 0.254902 0 0 0 1 0"/>
<feBlend mode="normal" in2="BackgroundImageFix" result="effect1_dropShadow_0_2797"/>
<feColorMatrix in="SourceAlpha" type="matrix" values="0 0 0 0 0 0 0 0 0 0 0 0 0 0 0 0 0 0 127 0" result="hardAlpha"/>
<feOffset dy="2"/>
<feGaussianBlur stdDeviation="2"/>
<feComposite in2="hardAlpha" operator="out"/>
<feColorMatrix type="matrix" values="0 0 0 0 0 0 0 0 0 0 0 0 0 0 0 0 0 0 0.25 0"/>
<feBlend mode="normal" in2="effect1_dropShadow_0_2797" result="effect2_dropShadow_0_2797"/>
<feBlend mode="normal" in="SourceGraphic" in2="effect2_dropShadow_0_2797" result="shape"/>
</filter>
<filter id="filter28_dd_0_2797" x="-375.053" y="260.011" width="2120.97" height="638.173" filterUnits="userSpaceOnUse" color-interpolation-filters="sRGB">
<feFlood flood-opacity="0" result="BackgroundImageFix"/>
<feColorMatrix in="SourceAlpha" type="matrix" values="0 0 0 0 0 0 0 0 0 0 0 0 0 0 0 0 0 0 127 0" result="hardAlpha"/>
<feMorphology radius="32" operator="dilate" in="SourceAlpha" result="effect1_dropShadow_0_2797"/>
<feOffset dy="4"/>
<feGaussianBlur stdDeviation="8.35"/>
<feComposite in2="hardAlpha" operator="out"/>
<feColorMatrix type="matrix" values="0 0 0 0 1 0 0 0 0 0.678431 0 0 0 0 0.254902 0 0 0 1 0"/>
<feBlend mode="normal" in2="BackgroundImageFix" result="effect1_dropShadow_0_2797"/>
<feColorMatrix in="SourceAlpha" type="matrix" values="0 0 0 0 0 0 0 0 0 0 0 0 0 0 0 0 0 0 127 0" result="hardAlpha"/>
<feOffset dy="2"/>
<feGaussianBlur stdDeviation="2"/>
<feComposite in2="hardAlpha" operator="out"/>
<feColorMatrix type="matrix" values="0 0 0 0 0 0 0 0 0 0 0 0 0 0 0 0 0 0 0.25 0"/>
<feBlend mode="normal" in2="effect1_dropShadow_0_2797" result="effect2_dropShadow_0_2797"/>
<feBlend mode="normal" in="SourceGraphic" in2="effect2_dropShadow_0_2797" result="shape"/>
</filter>
<filter id="filter29_dd_0_2797" x="-372.269" y="248.281" width="2120.97" height="638.173" filterUnits="userSpaceOnUse" color-interpolation-filters="sRGB">
<feFlood flood-opacity="0" result="BackgroundImageFix"/>
<feColorMatrix in="SourceAlpha" type="matrix" values="0 0 0 0 0 0 0 0 0 0 0 0 0 0 0 0 0 0 127 0" result="hardAlpha"/>
<feMorphology radius="32" operator="dilate" in="SourceAlpha" result="effect1_dropShadow_0_2797"/>
<feOffset dy="4"/>
<feGaussianBlur stdDeviation="8.35"/>
<feComposite in2="hardAlpha" operator="out"/>
<feColorMatrix type="matrix" values="0 0 0 0 1 0 0 0 0 0.678431 0 0 0 0 0.254902 0 0 0 1 0"/>
<feBlend mode="normal" in2="BackgroundImageFix" result="effect1_dropShadow_0_2797"/>
<feColorMatrix in="SourceAlpha" type="matrix" values="0 0 0 0 0 0 0 0 0 0 0 0 0 0 0 0 0 0 127 0" result="hardAlpha"/>
<feOffset dy="2"/>
<feGaussianBlur stdDeviation="2"/>
<feComposite in2="hardAlpha" operator="out"/>
<feColorMatrix type="matrix" values="0 0 0 0 0 0 0 0 0 0 0 0 0 0 0 0 0 0 0.25 0"/>
<feBlend mode="normal" in2="effect1_dropShadow_0_2797" result="effect2_dropShadow_0_2797"/>
<feBlend mode="normal" in="SourceGraphic" in2="effect2_dropShadow_0_2797" result="shape"/>
</filter>
<filter id="filter30_dd_0_2797" x="-369.208" y="235.379" width="2120.97" height="638.173" filterUnits="userSpaceOnUse" color-interpolation-filters="sRGB">
<feFlood flood-opacity="0" result="BackgroundImageFix"/>
<feColorMatrix in="SourceAlpha" type="matrix" values="0 0 0 0 0 0 0 0 0 0 0 0 0 0 0 0 0 0 127 0" result="hardAlpha"/>
<feMorphology radius="32" operator="dilate" in="SourceAlpha" result="effect1_dropShadow_0_2797"/>
<feOffset dy="4"/>
<feGaussianBlur stdDeviation="8.35"/>
<feComposite in2="hardAlpha" operator="out"/>
<feColorMatrix type="matrix" values="0 0 0 0 1 0 0 0 0 0.678431 0 0 0 0 0.254902 0 0 0 1 0"/>
<feBlend mode="normal" in2="BackgroundImageFix" result="effect1_dropShadow_0_2797"/>
<feColorMatrix in="SourceAlpha" type="matrix" values="0 0 0 0 0 0 0 0 0 0 0 0 0 0 0 0 0 0 127 0" result="hardAlpha"/>
<feOffset dy="2"/>
<feGaussianBlur stdDeviation="2"/>
<feComposite in2="hardAlpha" operator="out"/>
<feColorMatrix type="matrix" values="0 0 0 0 0 0 0 0 0 0 0 0 0 0 0 0 0 0 0.25 0"/>
<feBlend mode="normal" in2="effect1_dropShadow_0_2797" result="effect2_dropShadow_0_2797"/>
<feBlend mode="normal" in="SourceGraphic" in2="effect2_dropShadow_0_2797" result="shape"/>
</filter>
<filter id="filter31_dd_0_2797" x="-365.868" y="221.303" width="2120.97" height="638.173" filterUnits="userSpaceOnUse" color-interpolation-filters="sRGB">
<feFlood flood-opacity="0" result="BackgroundImageFix"/>
<feColorMatrix in="SourceAlpha" type="matrix" values="0 0 0 0 0 0 0 0 0 0 0 0 0 0 0 0 0 0 127 0" result="hardAlpha"/>
<feMorphology radius="32" operator="dilate" in="SourceAlpha" result="effect1_dropShadow_0_2797"/>
<feOffset dy="4"/>
<feGaussianBlur stdDeviation="8.35"/>
<feComposite in2="hardAlpha" operator="out"/>
<feColorMatrix type="matrix" values="0 0 0 0 1 0 0 0 0 0.678431 0 0 0 0 0.254902 0 0 0 1 0"/>
<feBlend mode="normal" in2="BackgroundImageFix" result="effect1_dropShadow_0_2797"/>
<feColorMatrix in="SourceAlpha" type="matrix" values="0 0 0 0 0 0 0 0 0 0 0 0 0 0 0 0 0 0 127 0" result="hardAlpha"/>
<feOffset dy="2"/>
<feGaussianBlur stdDeviation="2"/>
<feComposite in2="hardAlpha" operator="out"/>
<feColorMatrix type="matrix" values="0 0 0 0 0 0 0 0 0 0 0 0 0 0 0 0 0 0 0.25 0"/>
<feBlend mode="normal" in2="effect1_dropShadow_0_2797" result="effect2_dropShadow_0_2797"/>
<feBlend mode="normal" in="SourceGraphic" in2="effect2_dropShadow_0_2797" result="shape"/>
</filter>
<filter id="filter32_dd_0_2797" x="-362.528" y="207.228" width="2120.97" height="638.173" filterUnits="userSpaceOnUse" color-interpolation-filters="sRGB">
<feFlood flood-opacity="0" result="BackgroundImageFix"/>
<feColorMatrix in="SourceAlpha" type="matrix" values="0 0 0 0 0 0 0 0 0 0 0 0 0 0 0 0 0 0 127 0" result="hardAlpha"/>
<feMorphology radius="32" operator="dilate" in="SourceAlpha" result="effect1_dropShadow_0_2797"/>
<feOffset dy="4"/>
<feGaussianBlur stdDeviation="8.35"/>
<feComposite in2="hardAlpha" operator="out"/>
<feColorMatrix type="matrix" values="0 0 0 0 1 0 0 0 0 0.678431 0 0 0 0 0.254902 0 0 0 1 0"/>
<feBlend mode="normal" in2="BackgroundImageFix" result="effect1_dropShadow_0_2797"/>
<feColorMatrix in="SourceAlpha" type="matrix" values="0 0 0 0 0 0 0 0 0 0 0 0 0 0 0 0 0 0 127 0" result="hardAlpha"/>
<feOffset dy="2"/>
<feGaussianBlur stdDeviation="2"/>
<feComposite in2="hardAlpha" operator="out"/>
<feColorMatrix type="matrix" values="0 0 0 0 0 0 0 0 0 0 0 0 0 0 0 0 0 0 0.25 0"/>
<feBlend mode="normal" in2="effect1_dropShadow_0_2797" result="effect2_dropShadow_0_2797"/>
<feBlend mode="normal" in="SourceGraphic" in2="effect2_dropShadow_0_2797" result="shape"/>
</filter>
<clipPath id="clip0_0_2797">
<rect width="1440" height="5196" fill="white"/>
</clipPath>
<clipPath id="clip1_0_2797">
<rect width="2151.15" height="458.905" fill="white" transform="matrix(-0.9662 0.257792 0.257792 0.9662 1440.44 1490)"/>
</clipPath>
<clipPath id="clip2_0_2797">
<rect width="2300.32" height="540.633" fill="white" transform="translate(1500.53 5158.52) rotate(-153.769)"/>
</clipPath>
<clipPath id="clip3_0_2797">
<rect width="1780.77" height="478.743" fill="white" transform="matrix(0.972217 0.23408 0.23408 -0.972217 -252 712.442)"/>
</clipPath>
</defs>
</svg>
