<svg width="1440" height="5196" viewBox="0 0 1440 5196" fill="none" xmlns="http://www.w3.org/2000/svg">
<g clip-path="url(#clip0_10_5862)">
<rect width="1440" height="5196" fill="#2F365B"/>
<path d="M1566.19 2912.75C1488.13 2941.78 1309.73 2970.68 1220.57 2854.03C1109.12 2708.21 939.844 2688.43 839.349 2698.12C738.855 2707.81 525.367 2684.84 425.187 2528.74C325.006 2372.64 221.307 2292.3 49.8999 2266.22C-121.507 2240.14 -178.497 2346.87 -258.585 2249.1C-322.656 2170.88 -343.842 2092.32 -346.426 2062.82" stroke="#FFAD41" stroke-opacity="0.7" stroke-width="1.22286"/>
<path d="M1572.34 2897.71C1494.28 2926.74 1315.88 2955.64 1226.72 2838.98C1115.27 2693.17 945.996 2673.38 845.501 2683.08C745.006 2692.77 531.519 2669.8 431.339 2513.7C331.158 2357.59 227.459 2277.26 56.0517 2251.18C-115.355 2225.1 -172.345 2331.82 -252.433 2234.05C-316.504 2155.84 -337.69 2077.28 -340.275 2047.78" stroke="#FFAD41" stroke-opacity="0.7" stroke-width="1.22286"/>
<path d="M1550.17 2948.08C1472.12 2977.1 1293.71 3006 1204.55 2889.35C1093.1 2743.54 923.829 2723.75 823.334 2733.44C722.839 2743.14 509.352 2720.17 409.171 2564.06C308.991 2407.96 205.292 2327.62 33.8845 2301.54C-137.523 2275.46 -194.512 2382.19 -274.6 2284.42C-338.671 2206.2 -359.858 2127.64 -362.442 2098.14" stroke="#FFAD41" stroke-opacity="0.7" stroke-width="1.22286"/>
<path d="M1554.36 2941.68C1476.3 2970.71 1297.9 2999.61 1208.74 2882.96C1097.28 2737.14 928.012 2717.35 827.518 2727.05C727.023 2736.74 513.535 2713.77 413.355 2557.67C313.175 2401.56 209.475 2321.23 38.0683 2295.15C-133.339 2269.07 -190.328 2375.79 -270.417 2278.02C-334.487 2199.81 -355.674 2121.25 -358.258 2091.75" stroke="#FFAD41" stroke-opacity="0.7" stroke-width="1.22286"/>
<path d="M1557.2 2934.74C1479.14 2963.77 1300.74 2992.66 1211.58 2876.01C1100.12 2730.2 930.852 2710.41 830.358 2720.11C729.863 2729.8 516.375 2706.83 416.195 2550.72C316.015 2394.62 212.315 2314.28 40.9082 2288.2C-130.499 2262.13 -187.488 2368.85 -267.577 2271.08C-331.648 2192.86 -352.834 2114.31 -355.418 2084.81" stroke="#FFAD41" stroke-opacity="0.7" stroke-width="1.22286"/>
<path d="M1560.04 2927.8C1481.98 2956.83 1303.58 2985.72 1214.41 2869.07C1102.96 2723.26 933.691 2703.47 833.197 2713.16C732.702 2722.86 519.214 2699.89 419.034 2543.78C318.854 2387.68 215.154 2307.34 43.7474 2281.26C-127.66 2255.18 -184.649 2361.91 -264.738 2264.14C-328.808 2185.92 -349.995 2107.37 -352.579 2077.86" stroke="#FFAD41" stroke-opacity="0.7" stroke-width="1.22286"/>
<path d="M1562.88 2920.85C1484.82 2949.88 1306.42 2978.78 1217.25 2862.13C1105.8 2716.31 936.531 2696.53 836.037 2706.22C735.542 2715.92 522.054 2692.94 421.874 2536.84C321.694 2380.74 217.994 2300.4 46.5871 2274.32C-124.82 2248.24 -181.809 2354.97 -261.898 2257.2C-325.969 2178.98 -347.155 2100.42 -349.739 2070.92" stroke="#FFAD41" stroke-opacity="0.7" stroke-width="1.22286"/>
<path d="M1548.21 2956.72C1470.15 2985.75 1291.75 3014.65 1202.58 2898C1091.13 2752.19 921.861 2732.4 821.366 2742.09C720.871 2751.79 507.384 2728.81 407.203 2572.71C307.023 2416.61 203.324 2336.27 31.9165 2310.19C-139.491 2284.11 -196.48 2390.84 -276.569 2293.07C-340.639 2214.85 -361.826 2136.29 -364.41 2106.79" stroke="#FFAD41" stroke-opacity="0.7" stroke-width="1.22286"/>
<path d="M1568.56 2906.97C1490.5 2936 1312.09 2964.89 1222.93 2848.24C1111.48 2702.43 942.21 2682.64 841.716 2692.33C741.221 2702.03 527.733 2679.06 427.553 2522.95C327.373 2366.85 223.673 2286.51 52.2661 2260.43C-119.141 2234.35 -176.13 2341.08 -256.219 2243.31C-320.29 2165.09 -341.476 2086.54 -344.06 2057.03" stroke="#FFAD41" stroke-opacity="0.7" stroke-width="1.22286"/>
<path d="M1575.18 2890.77C1497.12 2919.8 1318.72 2948.69 1229.56 2832.04C1118.11 2686.23 948.836 2666.44 848.341 2676.13C747.846 2685.83 534.359 2662.86 434.178 2506.75C333.998 2350.65 230.299 2270.31 58.8915 2244.23C-112.516 2218.15 -169.505 2324.88 -249.593 2227.11C-313.664 2148.89 -334.851 2070.34 -337.435 2040.83" stroke="#FFAD41" stroke-opacity="0.7" stroke-width="1.22286"/>
<path d="M1578.49 2882.67C1500.44 2911.7 1322.03 2940.59 1232.87 2823.94C1121.42 2678.13 952.148 2658.34 851.654 2668.03C751.159 2677.73 537.671 2654.76 437.491 2498.65C337.311 2342.55 233.611 2262.21 62.2042 2236.13C-109.203 2210.05 -166.192 2316.78 -246.281 2219.01C-310.352 2140.79 -331.538 2062.24 -334.122 2032.73" stroke="#FFAD41" stroke-opacity="0.7" stroke-width="1.22286"/>
<path d="M1585.59 2865.31C1507.54 2894.34 1329.13 2923.24 1239.97 2806.59C1128.52 2660.77 959.247 2640.98 858.752 2650.68C758.257 2660.37 544.77 2637.4 444.589 2481.3C344.409 2325.19 240.71 2244.86 69.3025 2218.78C-102.105 2192.7 -159.094 2299.42 -239.182 2201.65C-303.253 2123.44 -324.44 2044.88 -327.024 2015.38" stroke="#FFAD41" stroke-opacity="0.7" stroke-width="1.22286"/>
<path d="M1581.81 2874.57C1503.75 2903.6 1325.35 2932.49 1236.18 2815.84C1124.73 2670.03 955.461 2650.24 854.966 2659.93C754.472 2669.63 540.984 2646.66 440.804 2490.55C340.623 2334.45 236.924 2254.11 65.5169 2228.03C-105.89 2201.95 -162.879 2308.68 -242.968 2210.91C-307.039 2132.69 -328.225 2054.14 -330.809 2024.64" stroke="#FFAD41" stroke-opacity="0.7" stroke-width="1.22286"/>
<path d="M1613.51 2797.04C1535.46 2826.07 1357.05 2854.96 1267.89 2738.31C1156.44 2592.5 987.168 2572.71 886.673 2582.41C786.179 2592.1 572.691 2569.13 472.511 2413.02C372.33 2256.92 268.631 2176.58 97.224 2150.5C-74.1831 2124.43 -131.172 2231.15 -211.261 2133.38C-275.332 2055.16 -296.518 1976.61 -299.102 1947.11" stroke="#FFAD41" stroke-opacity="0.7" stroke-width="1.22286"/>
<path d="M1590.32 2853.74C1512.27 2882.77 1333.86 2911.66 1244.7 2795.01C1133.25 2649.2 963.979 2629.41 863.485 2639.11C762.99 2648.8 549.502 2625.83 449.322 2469.72C349.142 2313.62 245.442 2233.28 74.0351 2207.2C-97.372 2181.13 -154.361 2287.85 -234.45 2190.08C-298.521 2111.86 -319.707 2033.31 -322.291 2003.81" stroke="#FFAD41" stroke-opacity="0.7" stroke-width="1.22286"/>
<path d="M1594.11 2844.48C1516.05 2873.51 1337.65 2902.41 1248.49 2785.76C1137.04 2639.94 967.765 2620.15 867.27 2629.85C766.775 2639.54 553.288 2616.57 453.107 2460.47C352.927 2304.36 249.228 2224.03 77.8207 2197.95C-93.5864 2171.87 -150.576 2278.59 -230.664 2180.82C-294.735 2102.61 -315.921 2024.05 -318.506 1994.55" stroke="#FFAD41" stroke-opacity="0.7" stroke-width="1.22286"/>
<path d="M1597.9 2835.22C1519.84 2864.25 1341.44 2893.15 1252.27 2776.5C1140.82 2630.68 971.551 2610.9 871.056 2620.59C770.562 2630.29 557.074 2607.31 456.894 2451.21C356.713 2295.11 253.014 2214.77 81.6069 2188.69C-89.8002 2162.61 -146.789 2269.34 -226.878 2171.57C-290.949 2093.35 -312.135 2014.79 -314.719 1985.29" stroke="#FFAD41" stroke-opacity="0.7" stroke-width="1.22286"/>
<path d="M1602.16 2824.81C1524.1 2853.84 1345.69 2882.73 1256.53 2766.08C1145.08 2620.27 975.81 2600.48 875.315 2610.18C774.821 2619.87 561.333 2596.9 461.153 2440.79C360.972 2284.69 257.273 2204.35 85.866 2178.28C-85.5411 2152.2 -142.53 2258.92 -222.619 2161.15C-286.69 2082.93 -307.876 2004.38 -310.46 1974.88" stroke="#FFAD41" stroke-opacity="0.7" stroke-width="1.22286"/>
<path d="M1605.94 2815.55C1527.88 2844.58 1349.48 2873.48 1260.32 2756.83C1148.87 2611.01 979.596 2591.23 879.102 2600.92C778.607 2610.61 565.119 2587.64 464.939 2431.54C364.759 2275.43 261.059 2195.1 89.6522 2169.02C-81.7549 2142.94 -138.744 2249.67 -218.833 2151.9C-282.904 2073.68 -304.09 1995.12 -306.674 1965.62" stroke="#FFAD41" stroke-opacity="0.7" stroke-width="1.22286"/>
<path d="M1609.73 2806.3C1531.67 2835.33 1353.27 2864.22 1264.11 2747.57C1152.65 2601.76 983.382 2581.97 882.887 2591.66C782.392 2601.36 568.905 2578.39 468.725 2422.28C368.544 2266.18 264.845 2185.84 93.4378 2159.76C-77.9693 2133.68 -134.959 2240.41 -215.047 2142.64C-279.118 2064.42 -300.304 1985.87 -302.889 1956.36" stroke="#FFAD41" stroke-opacity="0.7" stroke-width="1.22286"/>
<path d="M1617.77 2786.62C1539.72 2815.65 1361.31 2844.55 1272.15 2727.9C1160.7 2582.08 991.427 2562.3 890.933 2571.99C790.438 2581.68 576.95 2558.71 476.77 2402.61C376.59 2246.51 272.89 2166.17 101.483 2140.09C-69.924 2114.01 -126.913 2220.74 -207.002 2122.97C-271.073 2044.75 -292.259 1966.19 -294.843 1936.69" stroke="#FFAD41" stroke-opacity="0.7" stroke-width="1.22286"/>
<path d="M1664.04 2673.48C1585.99 2702.51 1407.58 2731.41 1318.42 2614.76C1206.97 2468.94 1037.7 2449.15 937.204 2458.85C836.709 2468.54 623.222 2445.57 523.041 2289.47C422.861 2133.36 319.162 2053.03 147.755 2026.95C-23.6525 2000.87 -80.6418 2107.59 -160.73 2009.82C-224.801 1931.61 -245.987 1853.05 -248.572 1823.55" stroke="#FFAD41" stroke-opacity="0.7" stroke-width="1.22286"/>
<path d="M1624.77 2769.53C1546.71 2798.55 1368.3 2827.45 1279.14 2710.8C1167.69 2564.99 998.42 2545.2 897.925 2554.89C797.43 2564.59 583.943 2541.62 483.762 2385.51C383.582 2229.41 279.883 2149.07 108.476 2122.99C-62.9314 2096.91 -119.921 2203.64 -200.009 2105.87C-264.08 2027.65 -285.266 1949.09 -287.851 1919.59" stroke="#FFAD41" stroke-opacity="0.7" stroke-width="1.22286"/>
<path d="M1620.98 2778.78C1542.92 2807.81 1364.52 2836.71 1275.36 2720.06C1163.91 2574.24 994.634 2554.46 894.14 2564.15C793.645 2573.84 580.157 2550.87 479.977 2394.77C379.797 2238.66 276.097 2158.33 104.69 2132.25C-66.717 2106.17 -123.706 2212.89 -203.795 2115.12C-267.866 2036.91 -289.052 1958.35 -291.636 1928.85" stroke="#FFAD41" stroke-opacity="0.7" stroke-width="1.22286"/>
<path d="M1629.97 2756.8C1551.91 2785.83 1373.51 2814.72 1284.35 2698.07C1172.9 2552.26 1003.63 2532.47 903.131 2542.16C802.636 2551.86 589.148 2528.89 488.968 2372.78C388.788 2216.68 285.088 2136.34 113.681 2110.26C-57.7259 2084.18 -114.715 2190.91 -194.804 2093.14C-258.875 2014.92 -280.061 1936.37 -282.645 1906.86" stroke="#FFAD41" stroke-opacity="0.7" stroke-width="1.22286"/>
<path d="M1634.7 2745.23C1556.65 2774.26 1378.24 2803.15 1289.08 2686.5C1177.63 2540.69 1008.36 2520.9 907.863 2530.59C807.368 2540.29 593.881 2517.32 493.701 2361.21C393.52 2205.11 289.821 2124.77 118.414 2098.69C-52.9933 2072.61 -109.983 2179.34 -190.071 2081.57C-254.142 2003.35 -275.328 1924.79 -277.912 1895.29" stroke="#FFAD41" stroke-opacity="0.7" stroke-width="1.22286"/>
<path d="M1639.44 2733.65C1561.38 2762.68 1382.98 2791.58 1293.81 2674.93C1182.36 2529.11 1013.09 2509.33 912.596 2519.02C812.101 2528.71 598.613 2505.74 498.433 2349.64C398.253 2193.54 294.553 2113.2 123.146 2087.12C-48.2607 2061.04 -105.25 2167.77 -185.339 2070C-249.409 1991.78 -270.596 1913.22 -273.18 1883.72" stroke="#FFAD41" stroke-opacity="0.7" stroke-width="1.22286"/>
<path d="M1644.17 2722.08C1566.11 2751.11 1387.71 2780.01 1298.55 2663.36C1187.09 2517.54 1017.82 2497.75 917.328 2507.45C816.833 2517.14 603.346 2494.17 503.165 2338.07C402.985 2181.96 299.286 2101.63 127.878 2075.55C-43.5287 2049.47 -100.518 2156.19 -180.607 2058.42C-244.677 1980.21 -265.864 1901.65 -268.448 1872.15" stroke="#FFAD41" stroke-opacity="0.7" stroke-width="1.22286"/>
<path d="M1649.37 2709.35C1571.32 2738.38 1392.91 2767.28 1303.75 2650.63C1192.3 2504.81 1023.03 2485.03 922.534 2494.72C822.039 2504.42 608.552 2481.44 508.371 2325.34C408.191 2169.24 304.492 2088.9 133.084 2062.82C-38.3226 2036.74 -95.3119 2143.47 -175.4 2045.7C-239.471 1967.48 -260.658 1888.92 -263.242 1859.42" stroke="#FFAD41" stroke-opacity="0.7" stroke-width="1.22286"/>
<path d="M1655.05 2695.47C1577 2724.5 1398.59 2753.39 1309.43 2636.74C1197.98 2490.93 1028.71 2471.14 928.213 2480.83C827.718 2490.53 614.231 2467.56 514.05 2311.45C413.87 2155.35 310.171 2075.01 138.763 2048.93C-32.6436 2022.85 -89.6329 2129.58 -169.722 2031.81C-233.792 1953.59 -254.979 1875.04 -257.563 1845.54" stroke="#FFAD41" stroke-opacity="0.7" stroke-width="1.22286"/>
<path d="M1660.73 2681.58C1582.67 2710.61 1404.27 2739.51 1315.11 2622.86C1203.66 2477.04 1034.39 2457.25 933.891 2466.95C833.397 2476.64 619.909 2453.67 519.729 2297.57C419.548 2141.46 315.849 2061.13 144.442 2035.05C-26.9652 2008.97 -83.9545 2115.69 -164.043 2017.92C-228.114 1939.71 -249.3 1861.15 -251.884 1831.65" stroke="#FFAD41" stroke-opacity="0.7" stroke-width="1.22286"/>
<g filter="url(#filter0_f_10_5862)">
<ellipse cx="1008.41" cy="1984.6" rx="3.05714" ry="2.44571" transform="rotate(-157.757 1008.41 1984.6)" fill="#D9D9D9" fill-opacity="0.2"/>
</g>
<path d="M1632.39 4278.85C1596.14 4356.88 1490.48 4499.34 1357.74 4445.04C1191.83 4377.17 1062.79 4467.15 999.256 4541.1C935.72 4615.05 774.186 4730.44 609.786 4645.46C445.387 4560.48 324.749 4550.3 190.399 4635.63C56.0498 4720.97 81.7338 4859.81 -33.2175 4817.75C-125.179 4784.1 -187.712 4722.53 -207.484 4695.95" stroke="#FFAD41" stroke-width="1.05411"/>
<path d="M1627.47 4260.49C1591.23 4338.52 1485.56 4480.98 1352.83 4426.68C1186.91 4358.81 1057.87 4448.79 994.336 4522.74C930.8 4596.69 769.266 4712.08 604.867 4627.1C440.468 4542.12 319.829 4531.94 185.48 4617.27C51.1301 4702.61 76.8142 4841.45 -38.1371 4799.39C-130.098 4765.74 -192.632 4704.17 -212.403 4677.59" stroke="#FFAD41" stroke-width="1.05411"/>
<path d="M1642.85 4322.98C1606.61 4401 1500.94 4543.47 1368.21 4489.17C1202.3 4421.29 1073.26 4511.27 1009.72 4585.22C946.187 4659.17 784.653 4774.56 620.253 4689.58C455.854 4604.6 335.216 4594.42 200.866 4679.76C66.5169 4765.09 92.2009 4903.94 -22.7504 4861.87C-114.711 4828.22 -177.245 4766.65 -197.017 4740.07" stroke="#FFAD41" stroke-width="1.05411"/>
<path d="M1641.85 4314.16C1605.61 4392.18 1499.94 4534.65 1367.21 4480.35C1201.29 4412.48 1072.25 4502.46 1008.72 4576.41C945.181 4650.36 783.647 4765.75 619.247 4680.77C454.848 4595.79 334.209 4585.61 199.86 4670.94C65.5107 4756.28 91.1948 4895.12 -23.7565 4853.06C-115.718 4819.41 -178.251 4757.83 -198.023 4731.25" stroke="#FFAD41" stroke-width="1.05411"/>
<path d="M1639.58 4305.69C1603.34 4383.71 1497.67 4526.18 1364.94 4471.88C1199.02 4404 1069.98 4493.99 1006.45 4567.94C942.91 4641.89 781.376 4757.27 616.977 4672.29C452.577 4587.31 331.939 4577.13 197.59 4662.47C63.2401 4747.8 88.9242 4886.65 -26.0271 4844.59C-117.988 4810.94 -180.522 4749.36 -200.293 4722.78" stroke="#FFAD41" stroke-width="1.05411"/>
<path d="M1637.31 4297.22C1601.06 4375.24 1495.4 4517.71 1362.66 4463.4C1196.75 4395.53 1067.71 4485.51 1004.18 4559.46C940.64 4633.41 779.105 4748.8 614.706 4663.82C450.307 4578.84 329.668 4568.66 195.319 4653.99C60.9695 4739.33 86.6536 4878.18 -28.2977 4836.11C-120.259 4802.46 -182.792 4740.89 -202.564 4714.31" stroke="#FFAD41" stroke-width="1.05411"/>
<path d="M1635.04 4288.74C1598.79 4366.76 1493.13 4509.23 1360.39 4454.93C1194.48 4387.05 1065.44 4477.04 1001.9 4550.99C938.369 4624.94 776.835 4740.33 612.435 4655.34C448.036 4570.36 327.398 4560.18 193.048 4645.52C58.6989 4730.85 84.3829 4869.7 -30.5684 4827.64C-122.529 4793.99 -185.063 4732.41 -204.835 4705.83" stroke="#FFAD41" stroke-width="1.05411"/>
<path d="M1646.77 4332.52C1610.53 4410.55 1504.86 4553.01 1372.13 4498.71C1206.21 4430.84 1077.17 4520.82 1013.64 4594.77C950.1 4668.72 788.566 4784.11 624.167 4699.13C459.768 4614.15 339.129 4603.97 204.78 4689.3C70.4304 4774.64 96.1144 4913.48 -18.8369 4871.42C-110.798 4837.77 -173.332 4776.2 -193.103 4749.62" stroke="#FFAD41" stroke-width="1.05411"/>
<path d="M1630.5 4271.79C1594.25 4349.82 1488.58 4492.28 1355.85 4437.98C1189.94 4370.11 1060.9 4460.09 997.364 4534.04C933.828 4607.99 772.293 4723.38 607.894 4638.4C443.495 4553.42 322.856 4543.24 188.507 4628.57C54.1576 4713.91 79.8417 4852.75 -35.1096 4810.69C-127.071 4777.04 -189.604 4715.47 -209.376 4688.88" stroke="#FFAD41" stroke-width="1.05411"/>
<path d="M1625.2 4252.02C1588.95 4330.04 1483.29 4472.51 1350.55 4418.21C1184.64 4350.33 1055.6 4440.32 992.066 4514.27C928.53 4588.22 766.995 4703.6 602.596 4618.62C438.197 4533.64 317.558 4523.46 183.209 4608.8C48.8595 4694.13 74.5436 4832.98 -40.4077 4790.92C-132.369 4757.27 -194.902 4695.69 -214.674 4669.11" stroke="#FFAD41" stroke-width="1.05411"/>
<path d="M1622.55 4242.13C1586.31 4320.15 1480.64 4462.62 1347.91 4408.32C1181.99 4340.45 1052.95 4430.43 989.416 4504.38C925.88 4578.33 764.346 4693.72 599.947 4608.74C435.548 4523.76 314.909 4513.58 180.56 4598.91C46.2105 4684.25 71.8945 4823.09 -43.0568 4781.03C-135.018 4747.38 -197.551 4685.8 -217.323 4659.22" stroke="#FFAD41" stroke-width="1.05411"/>
<path d="M1616.87 4220.95C1580.63 4298.97 1474.96 4441.44 1342.23 4387.14C1176.31 4319.26 1047.28 4409.25 983.74 4483.2C920.204 4557.15 758.67 4672.53 594.271 4587.55C429.871 4502.57 309.233 4492.39 174.883 4577.73C40.5339 4663.06 66.218 4801.91 -48.7333 4759.85C-140.694 4726.2 -203.228 4664.62 -223 4638.04" stroke="#FFAD41" stroke-width="1.05411"/>
<path d="M1619.9 4232.25C1583.66 4310.27 1477.99 4452.74 1345.26 4398.44C1179.34 4330.56 1050.3 4420.54 986.767 4494.49C923.231 4568.44 761.697 4683.83 597.298 4598.85C432.899 4513.87 312.26 4503.69 177.911 4589.02C43.5614 4674.36 69.2455 4813.21 -45.7058 4771.14C-137.667 4737.49 -200.201 4675.92 -219.972 4649.34" stroke="#FFAD41" stroke-width="1.05411"/>
<path d="M1594.54 4137.62C1558.3 4215.64 1452.63 4358.11 1319.9 4303.81C1153.99 4235.93 1024.95 4325.92 961.412 4399.87C897.876 4473.82 736.342 4589.2 571.943 4504.22C407.544 4419.24 286.905 4409.06 152.556 4494.4C18.2062 4579.73 43.8903 4718.58 -71.061 4676.52C-163.022 4642.87 -225.556 4581.29 -245.327 4554.71" stroke="#FFAD41" stroke-width="1.05411"/>
<path d="M1613.09 4206.82C1576.84 4284.85 1471.18 4427.31 1338.44 4373.01C1172.53 4305.14 1043.49 4395.12 979.956 4469.07C916.42 4543.02 754.885 4658.41 590.486 4573.43C426.087 4488.45 305.448 4478.27 171.099 4563.6C36.7496 4648.94 62.4336 4787.78 -52.5177 4745.72C-144.479 4712.07 -207.012 4650.5 -226.784 4623.92" stroke="#FFAD41" stroke-width="1.05411"/>
<path d="M1610.06 4195.53C1573.82 4273.55 1468.15 4416.02 1335.42 4361.71C1169.5 4293.84 1040.46 4383.82 976.928 4457.77C913.392 4531.72 751.858 4647.11 587.459 4562.13C423.059 4477.15 302.421 4466.97 168.071 4552.3C33.7221 4637.64 59.4061 4776.49 -55.5452 4734.42C-147.506 4700.77 -210.04 4639.2 -229.812 4612.62" stroke="#FFAD41" stroke-width="1.05411"/>
<path d="M1607.03 4184.23C1570.79 4262.25 1465.12 4404.72 1332.39 4350.42C1166.47 4282.54 1037.44 4372.52 973.901 4446.47C910.365 4520.42 748.83 4635.81 584.431 4550.83C420.032 4465.85 299.393 4455.67 165.044 4541.01C30.6946 4626.34 56.3787 4765.19 -58.5726 4723.12C-150.534 4689.47 -213.067 4627.9 -232.839 4601.32" stroke="#FFAD41" stroke-width="1.05411"/>
<path d="M1603.63 4171.52C1567.38 4249.54 1461.72 4392.01 1328.98 4337.71C1163.07 4269.83 1034.03 4359.81 970.495 4433.76C906.959 4507.71 745.425 4623.1 581.025 4538.12C416.626 4453.14 295.987 4442.96 161.638 4528.29C27.2887 4613.63 52.9727 4752.48 -61.9786 4710.41C-153.94 4676.76 -216.473 4615.19 -236.245 4588.61" stroke="#FFAD41" stroke-width="1.05411"/>
<path d="M1600.6 4160.22C1564.36 4238.24 1458.69 4380.71 1325.96 4326.41C1160.04 4258.53 1031 4348.51 967.467 4422.46C903.931 4496.41 742.397 4611.8 577.998 4526.82C413.599 4441.84 292.96 4431.66 158.611 4517C24.2612 4602.33 49.9452 4741.18 -65.0061 4699.11C-156.967 4665.46 -219.501 4603.89 -239.272 4577.31" stroke="#FFAD41" stroke-width="1.05411"/>
<path d="M1597.57 4148.92C1561.33 4226.94 1455.66 4369.41 1322.93 4315.11C1157.01 4247.23 1027.98 4337.21 964.44 4411.16C900.904 4485.11 739.37 4600.5 574.97 4515.52C410.571 4430.54 289.933 4420.36 155.583 4505.7C21.2337 4591.03 46.9178 4729.88 -68.0335 4687.81C-159.995 4654.16 -222.528 4592.59 -242.3 4566.01" stroke="#FFAD41" stroke-width="1.05411"/>
<path d="M1591.14 4124.91C1554.9 4202.93 1449.23 4345.4 1316.5 4291.1C1150.58 4223.22 1021.54 4313.2 958.006 4387.15C894.47 4461.1 732.936 4576.49 568.537 4491.51C404.138 4406.53 283.499 4396.35 149.15 4481.69C14.8003 4567.02 40.4844 4705.87 -74.4669 4663.81C-166.428 4630.15 -228.962 4568.58 -248.733 4542" stroke="#FFAD41" stroke-width="1.05411"/>
<path d="M1554.14 3986.82C1517.89 4064.84 1412.23 4207.31 1279.49 4153.01C1113.58 4085.13 984.54 4175.11 921.004 4249.06C857.468 4323.01 695.934 4438.4 531.535 4353.42C367.136 4268.44 246.497 4258.26 112.148 4343.6C-22.2017 4428.93 3.48232 4567.78 -111.469 4525.71C-203.43 4492.06 -265.964 4430.49 -285.735 4403.91" stroke="#FFAD41" stroke-width="1.05411"/>
<path d="M1585.55 4104.04C1549.3 4182.06 1443.64 4324.53 1310.9 4270.23C1144.99 4202.35 1015.95 4292.34 952.414 4366.29C888.878 4440.24 727.344 4555.63 562.945 4470.65C398.546 4385.66 277.907 4375.49 143.558 4460.82C9.20845 4546.15 34.8925 4685 -80.0588 4642.94C-172.02 4609.29 -234.553 4547.71 -254.325 4521.13" stroke="#FFAD41" stroke-width="1.05411"/>
<path d="M1588.57 4115.34C1552.33 4193.36 1446.66 4335.83 1313.93 4281.53C1148.02 4213.65 1018.98 4303.64 955.442 4377.59C891.906 4451.54 730.372 4566.92 565.973 4481.94C401.573 4396.96 280.935 4386.78 146.585 4472.12C12.2359 4557.45 37.92 4696.3 -77.0313 4654.24C-168.992 4620.59 -231.526 4559.01 -251.298 4532.43" stroke="#FFAD41" stroke-width="1.05411"/>
<path d="M1581.38 4088.51C1545.14 4166.53 1439.47 4309 1306.74 4254.7C1140.83 4186.82 1011.79 4276.8 948.252 4350.75C884.716 4424.7 723.182 4540.09 558.782 4455.11C394.383 4370.13 273.744 4359.95 139.395 4445.28C5.04566 4530.62 30.7297 4669.47 -84.2216 4627.4C-176.183 4593.75 -238.716 4532.18 -258.488 4505.6" stroke="#FFAD41" stroke-width="1.05411"/>
<path d="M1577.6 4074.38C1541.36 4152.4 1435.69 4294.87 1302.96 4240.57C1137.04 4172.69 1008 4262.68 944.467 4336.63C880.931 4410.58 719.397 4525.97 554.998 4440.99C390.599 4356 269.96 4345.83 135.611 4431.16C1.26127 4516.49 26.9453 4655.34 -88.006 4613.28C-179.967 4579.63 -242.501 4518.05 -262.272 4491.47" stroke="#FFAD41" stroke-width="1.05411"/>
<path d="M1573.81 4060.26C1537.57 4138.28 1431.9 4280.75 1299.17 4226.45C1133.26 4158.57 1004.22 4248.55 940.683 4322.5C877.147 4396.45 715.613 4511.84 551.214 4426.86C386.814 4341.88 266.176 4331.7 131.826 4417.04C-2.52309 4502.37 23.161 4641.22 -91.7903 4599.15C-183.751 4565.5 -246.285 4503.93 -266.057 4477.35" stroke="#FFAD41" stroke-width="1.05411"/>
<path d="M1570.03 4046.13C1533.79 4124.16 1428.12 4266.63 1295.39 4212.32C1129.47 4144.45 1000.43 4234.43 936.899 4308.38C873.363 4382.33 711.828 4497.72 547.429 4412.74C383.03 4327.76 262.391 4317.58 128.042 4402.91C-6.30745 4488.25 19.3766 4627.1 -95.5747 4585.03C-187.536 4551.38 -250.069 4489.81 -269.841 4463.23" stroke="#FFAD41" stroke-width="1.05411"/>
<path d="M1565.87 4030.6C1529.62 4108.62 1423.96 4251.09 1291.22 4196.79C1125.31 4128.91 996.272 4218.9 932.736 4292.85C869.2 4366.8 707.666 4482.18 543.266 4397.2C378.867 4312.22 258.229 4302.04 123.879 4387.38C-10.4702 4472.71 15.2138 4611.56 -99.7375 4569.5C-191.699 4535.85 -254.232 4474.27 -274.004 4447.69" stroke="#FFAD41" stroke-width="1.05411"/>
<path d="M1561.33 4013.65C1525.08 4091.67 1419.42 4234.14 1286.68 4179.84C1120.77 4111.96 991.731 4201.95 928.195 4275.9C864.659 4349.85 703.124 4465.24 538.725 4380.25C374.326 4295.27 253.687 4285.09 119.338 4370.43C-15.0114 4455.76 10.6726 4594.61 -104.279 4552.55C-196.24 4518.9 -258.773 4457.32 -278.545 4430.74" stroke="#FFAD41" stroke-width="1.05411"/>
<path d="M1556.78 3996.7C1520.54 4074.73 1414.87 4217.19 1282.14 4162.89C1116.23 4095.02 987.189 4185 923.653 4258.95C860.117 4332.9 698.583 4448.29 534.184 4363.31C369.785 4278.33 249.146 4268.15 114.797 4353.48C-19.5527 4438.82 6.13137 4577.66 -108.82 4535.6C-200.781 4501.95 -263.315 4440.38 -283.086 4413.79" stroke="#FFAD41" stroke-width="1.05411"/>
<g filter="url(#filter1_f_10_5862)">
<ellipse cx="780.036" cy="3987.47" rx="2.63528" ry="2.10822" transform="rotate(165 780.036 3987.47)" fill="#D9D9D9" fill-opacity="0.2"/>
</g>
<g clip-path="url(#clip1_10_5862)">
<g filter="url(#filter2_dd_10_5862)">
<path d="M-354.034 1162.11C-311.781 1096.37 -192.612 970.038 -53.9595 990.688C119.356 1016.5 260.906 926.808 332.006 859.854C403.105 792.9 580.432 678.511 751.326 717.714C922.22 756.917 1050.09 745.567 1197.07 658.605C1344.06 571.643 1323.3 468.976 1443.61 483.044C1539.86 494.298 1603.48 531.697 1623.26 548.99" stroke="#FFAD41"/>
</g>
<g filter="url(#filter3_dd_10_5862)">
<path d="M-349.668 1175.45C-307.415 1109.7 -188.247 983.372 -49.5939 1004.02C123.722 1029.83 265.272 940.142 336.371 873.188C407.471 806.234 584.798 691.844 755.691 731.048C926.585 770.251 1054.46 758.901 1201.44 671.939C1348.42 584.977 1327.66 482.31 1447.98 496.378C1544.23 507.632 1607.85 545.031 1627.63 562.324" stroke="#FFAD41"/>
</g>
<g filter="url(#filter4_dd_10_5862)">
<path d="M-363.082 1129.86C-320.83 1064.11 -201.661 937.78 -63.008 958.43C110.308 984.242 251.858 894.55 322.957 827.596C394.057 760.642 571.383 646.253 742.277 685.456C913.171 724.659 1041.04 713.309 1188.03 626.347C1335.01 539.385 1314.25 436.718 1434.56 450.786C1530.82 462.04 1594.43 499.439 1614.21 516.732" stroke="#FFAD41"/>
</g>
<g filter="url(#filter5_dd_10_5862)">
<path d="M-362.429 1136.47C-320.176 1070.72 -201.007 944.395 -62.3547 965.045C110.961 990.857 252.511 901.165 323.61 834.211C394.71 767.258 572.037 652.868 742.931 692.071C913.824 731.274 1041.7 719.925 1188.68 632.962C1335.66 546 1314.9 443.334 1435.22 457.401C1531.47 468.655 1595.09 506.055 1614.87 523.348" stroke="#FFAD41"/>
</g>
<g filter="url(#filter6_dd_10_5862)">
<path d="M-360.414 1142.62C-318.161 1076.88 -198.993 950.55 -60.3398 971.199C112.976 997.011 254.526 907.319 325.625 840.366C396.725 773.412 574.052 659.022 744.946 698.225C915.839 737.429 1043.71 726.079 1190.69 639.117C1337.68 552.154 1316.92 449.488 1437.23 463.556C1533.48 474.81 1597.1 512.209 1616.88 529.502" stroke="#FFAD41"/>
</g>
<g filter="url(#filter7_dd_10_5862)">
<path d="M-358.399 1148.78C-316.146 1083.03 -196.978 956.704 -58.3249 977.354C114.991 1003.17 256.541 913.474 327.64 846.52C398.74 779.566 576.067 665.177 746.96 704.38C917.854 743.583 1045.73 732.233 1192.71 645.271C1339.69 558.309 1318.93 455.642 1439.25 469.71C1535.5 480.964 1599.12 518.363 1618.9 535.656" stroke="#FFAD41"/>
</g>
<g filter="url(#filter8_dd_10_5862)">
<path d="M-356.384 1154.93C-314.132 1089.19 -194.963 962.857 -56.3102 983.507C117.006 1009.32 258.556 919.627 329.655 852.673C400.754 785.72 578.081 671.33 748.975 710.533C919.869 749.736 1047.74 738.386 1194.72 651.424C1341.7 564.462 1320.95 461.796 1441.26 475.863C1537.51 487.117 1601.13 524.517 1620.91 541.809" stroke="#FFAD41"/>
</g>
<g filter="url(#filter9_dd_10_5862)">
<path d="M-366.794 1123.14C-324.542 1057.39 -205.373 931.062 -66.7202 951.712C106.596 977.524 248.146 887.832 319.245 820.878C390.344 753.925 567.671 639.535 738.565 678.738C909.459 717.941 1037.33 706.592 1184.31 619.629C1331.29 532.667 1310.54 430.001 1430.85 444.068C1527.1 455.322 1590.72 492.722 1610.5 510.015" stroke="#FFAD41"/>
</g>
<g filter="url(#filter10_dd_10_5862)">
<path d="M-352.355 1167.24C-310.102 1101.5 -190.933 975.166 -52.2805 995.816C121.035 1021.63 262.585 931.936 333.685 864.982C404.784 798.028 582.111 683.638 753.005 722.842C923.899 762.045 1051.77 750.695 1198.75 663.733C1345.73 576.771 1324.98 474.104 1445.29 488.172C1541.54 499.426 1605.16 536.825 1624.94 554.118" stroke="#FFAD41"/>
</g>
<g filter="url(#filter11_dd_10_5862)">
<path d="M-347.653 1181.6C-305.401 1115.85 -186.232 989.525 -47.5791 1010.17C125.737 1035.99 267.287 946.295 338.386 879.341C409.486 812.388 586.812 697.998 757.706 737.201C928.6 776.404 1056.47 765.054 1203.45 678.092C1350.44 591.13 1329.68 488.464 1449.99 502.531C1546.24 513.785 1609.86 551.185 1629.64 568.477" stroke="#FFAD41"/>
</g>
<g filter="url(#filter12_dd_10_5862)">
<path d="M-345.303 1188.78C-303.05 1123.04 -183.881 996.706 -45.2284 1017.36C128.088 1043.17 269.637 953.476 340.737 886.522C411.836 819.568 589.163 705.178 760.057 744.382C930.951 783.585 1058.82 772.235 1205.81 685.273C1352.79 598.311 1332.03 495.644 1452.34 509.712C1548.59 520.966 1612.21 558.365 1631.99 575.658" stroke="#FFAD41"/>
</g>
<g filter="url(#filter13_dd_10_5862)">
<path d="M-340.266 1204.17C-298.013 1138.42 -178.844 1012.09 -40.1913 1032.74C133.125 1058.55 274.674 968.86 345.774 901.907C416.873 834.953 594.2 720.563 765.094 759.766C935.988 798.97 1063.86 787.62 1210.84 700.658C1357.82 613.695 1337.07 511.029 1457.38 525.097C1553.63 536.351 1617.25 573.75 1637.03 591.043" stroke="#FFAD41"/>
</g>
<g filter="url(#filter14_dd_10_5862)">
<path d="M-342.952 1195.96C-300.699 1130.21 -181.53 1003.89 -42.8777 1024.54C130.438 1050.35 271.988 960.655 343.087 893.702C414.187 826.748 591.514 712.358 762.408 751.561C933.302 790.765 1061.18 779.415 1208.16 692.453C1355.14 605.49 1334.38 502.824 1454.69 516.892C1550.95 528.146 1614.57 565.545 1634.34 582.838" stroke="#FFAD41"/>
</g>
<g filter="url(#filter15_dd_10_5862)">
<path d="M-320.453 1264.68C-278.2 1198.94 -159.031 1072.61 -20.3784 1093.26C152.938 1119.07 294.487 1029.38 365.587 962.422C436.686 895.469 614.013 781.079 784.907 820.282C955.801 859.485 1083.67 848.136 1230.66 761.173C1377.64 674.211 1356.88 571.545 1477.19 585.612C1573.44 596.866 1637.06 634.266 1656.84 651.558" stroke="#FFAD41"/>
</g>
<g filter="url(#filter16_dd_10_5862)">
<path d="M-336.907 1214.42C-294.655 1148.68 -175.486 1022.35 -36.8331 1043C136.483 1068.81 278.033 979.117 349.132 912.164C420.231 845.21 597.558 730.82 768.452 770.023C939.346 809.226 1067.22 797.877 1214.2 710.915C1361.18 623.952 1340.43 521.286 1460.74 535.353C1556.99 546.607 1620.61 584.007 1640.39 601.3" stroke="#FFAD41"/>
</g>
<g filter="url(#filter17_dd_10_5862)">
<path d="M-334.221 1222.63C-291.968 1156.88 -172.8 1030.55 -34.1468 1051.2C139.169 1077.01 280.719 987.322 351.818 920.369C422.918 853.415 600.245 739.025 771.138 778.228C942.032 817.432 1069.91 806.082 1216.89 719.12C1363.87 632.157 1343.11 529.491 1463.43 543.558C1559.68 554.813 1623.3 592.212 1643.07 609.505" stroke="#FFAD41"/>
</g>
<g filter="url(#filter18_dd_10_5862)">
<path d="M-331.534 1230.83C-289.282 1165.09 -170.113 1038.76 -31.4601 1059.41C141.856 1085.22 283.406 995.528 354.505 928.575C425.605 861.621 602.931 747.231 773.825 786.434C944.719 825.638 1072.59 814.288 1219.57 727.326C1366.55 640.363 1345.8 537.697 1466.11 551.765C1562.36 563.019 1625.98 600.418 1645.76 617.711" stroke="#FFAD41"/>
</g>
<g filter="url(#filter19_dd_10_5862)">
<path d="M-328.512 1240.07C-286.259 1174.32 -167.091 1047.99 -28.4379 1068.64C144.878 1094.45 286.428 1004.76 357.527 937.806C428.627 870.852 605.954 756.463 776.847 795.666C947.741 834.869 1075.61 823.519 1222.6 736.557C1369.58 649.595 1348.82 546.928 1469.13 560.996C1565.39 572.25 1629.01 609.649 1648.78 626.942" stroke="#FFAD41"/>
</g>
<g filter="url(#filter20_dd_10_5862)">
<path d="M-325.825 1248.27C-283.573 1182.52 -164.404 1056.2 -25.7512 1076.84C147.565 1102.66 289.115 1012.96 360.214 946.011C431.313 879.058 608.64 764.668 779.534 803.871C950.428 843.074 1078.3 831.724 1225.28 744.762C1372.26 657.8 1351.51 555.134 1471.82 569.201C1568.07 580.455 1631.69 617.854 1651.47 635.147" stroke="#FFAD41"/>
</g>
<g filter="url(#filter21_dd_10_5862)">
<path d="M-323.139 1256.48C-280.886 1190.73 -161.718 1064.4 -23.0649 1085.05C150.251 1110.86 291.801 1021.17 362.9 954.217C434 887.264 611.327 772.874 782.22 812.077C953.114 851.28 1080.99 839.93 1227.97 752.968C1374.95 666.006 1354.19 563.34 1474.51 577.407C1570.76 588.661 1634.38 626.061 1654.16 643.353" stroke="#FFAD41"/>
</g>
<g filter="url(#filter22_dd_10_5862)">
<path d="M-317.43 1273.91C-275.178 1208.17 -156.009 1081.84 -17.3562 1102.49C155.96 1128.3 297.51 1038.61 368.609 971.653C439.708 904.699 617.035 790.309 787.929 829.513C958.823 868.716 1086.7 857.366 1233.68 770.404C1380.66 683.442 1359.9 580.775 1480.22 594.843C1576.47 606.097 1640.09 643.496 1659.87 660.789" stroke="#FFAD41"/>
</g>
<g filter="url(#filter23_dd_10_5862)">
<path d="M-284.596 1374.2C-242.343 1308.45 -123.175 1182.12 15.4782 1202.77C188.794 1228.59 330.344 1138.89 401.443 1071.94C472.543 1004.99 649.87 890.597 820.763 929.801C991.657 969.004 1119.53 957.654 1266.51 870.692C1413.49 783.73 1392.74 681.063 1513.05 695.131C1609.3 706.385 1672.92 743.784 1692.7 761.077" stroke="#FFAD41"/>
</g>
<g filter="url(#filter24_dd_10_5862)">
<path d="M-312.468 1289.07C-270.215 1223.32 -151.047 1096.99 -12.3939 1117.64C160.922 1143.45 302.472 1053.76 373.571 986.809C444.671 919.855 621.998 805.466 792.891 844.669C963.785 883.872 1091.66 872.522 1238.64 785.56C1385.62 698.598 1364.86 595.931 1485.18 609.999C1581.43 621.253 1645.05 658.652 1664.83 675.945" stroke="#FFAD41"/>
</g>
<g filter="url(#filter25_dd_10_5862)">
<path d="M-315.155 1280.86C-272.902 1215.12 -153.733 1088.79 -15.0807 1109.44C158.235 1135.25 299.785 1045.56 370.884 978.604C441.984 911.65 619.311 797.261 790.205 836.464C961.098 875.667 1088.97 864.317 1235.95 777.355C1382.93 690.393 1362.18 587.726 1482.49 601.794C1578.74 613.048 1642.36 650.447 1662.14 667.74" stroke="#FFAD41"/>
</g>
<g filter="url(#filter26_dd_10_5862)">
<path d="M-308.775 1300.35C-266.522 1234.6 -147.353 1108.28 -8.70031 1128.92C164.616 1154.74 306.165 1065.04 377.265 998.091C448.364 931.138 625.691 816.748 796.585 855.951C967.479 895.154 1095.35 883.804 1242.33 796.842C1389.31 709.88 1368.56 607.214 1488.87 621.281C1585.12 632.535 1648.74 669.935 1668.52 687.227" stroke="#FFAD41"/>
</g>
<g filter="url(#filter27_dd_10_5862)">
<path d="M-305.416 1310.61C-263.164 1244.86 -143.995 1118.53 -5.34215 1139.18C167.974 1164.99 309.524 1075.3 380.623 1008.35C451.722 941.394 629.049 827.005 799.943 866.208C970.837 905.411 1098.71 894.061 1245.69 807.099C1392.67 720.137 1371.92 617.47 1492.23 631.538C1588.48 642.792 1652.1 680.191 1671.88 697.484" stroke="#FFAD41"/>
</g>
<g filter="url(#filter28_dd_10_5862)">
<path d="M-302.058 1320.86C-259.805 1255.12 -140.637 1128.79 -1.984 1149.44C171.332 1175.25 312.882 1085.56 383.981 1018.61C455.081 951.652 632.408 837.262 803.301 876.466C974.195 915.669 1102.07 904.319 1249.05 817.357C1396.03 730.395 1375.27 627.728 1495.59 641.796C1591.84 653.05 1655.46 690.449 1675.24 707.742" stroke="#FFAD41"/>
</g>
<g filter="url(#filter29_dd_10_5862)">
<path d="M-298.7 1331.12C-256.447 1265.37 -137.279 1139.05 1.37404 1159.7C174.69 1185.51 316.24 1095.82 387.339 1028.86C458.439 961.908 635.766 847.518 806.659 886.722C977.553 925.925 1105.43 914.575 1252.41 827.613C1399.39 740.651 1378.63 637.984 1498.95 652.052C1595.2 663.306 1658.82 700.705 1678.6 717.998" stroke="#FFAD41"/>
</g>
<g filter="url(#filter30_dd_10_5862)">
<path d="M-295.006 1342.4C-252.753 1276.66 -133.585 1150.33 5.06812 1170.98C178.384 1196.79 319.934 1107.1 391.033 1040.14C462.133 973.191 639.46 858.802 810.353 898.005C981.247 937.208 1109.12 925.858 1256.1 838.896C1403.08 751.934 1382.33 649.267 1502.64 663.335C1598.89 674.589 1662.51 711.988 1682.29 729.281" stroke="#FFAD41"/>
</g>
<g filter="url(#filter31_dd_10_5862)">
<path d="M-290.976 1354.71C-248.724 1288.97 -129.555 1162.64 9.09779 1183.29C182.414 1209.1 323.964 1119.41 395.063 1052.45C466.162 985.499 643.489 871.109 814.383 910.312C985.277 949.516 1113.15 938.166 1260.13 851.204C1407.11 764.241 1386.36 661.575 1506.67 675.642C1602.92 686.897 1666.54 724.296 1686.32 741.589" stroke="#FFAD41"/>
</g>
<g filter="url(#filter32_dd_10_5862)">
<path d="M-286.947 1367.02C-244.694 1301.27 -125.525 1174.95 13.1275 1195.59C186.443 1221.41 327.993 1131.71 399.093 1064.76C470.192 997.808 647.519 883.418 818.413 922.621C989.307 961.824 1117.18 950.474 1264.16 863.512C1411.14 776.55 1390.39 673.884 1510.7 687.951C1606.95 699.205 1670.57 736.604 1690.35 753.897" stroke="#FFAD41"/>
</g>
<ellipse cx="2.90812" cy="2.03355" rx="2.90812" ry="2.03355" transform="matrix(0.946814 -0.321781 0.311517 0.950241 590.575 1403.42)" fill="#D9D9D9" fill-opacity="0.2"/>
</g>
</g>
<defs>
<filter id="filter0_f_10_5862" x="1000.54" y="1977.17" width="15.7389" height="14.8688" filterUnits="userSpaceOnUse" color-interpolation-filters="sRGB">
<feFlood flood-opacity="0" result="BackgroundImageFix"/>
<feBlend mode="normal" in="SourceGraphic" in2="BackgroundImageFix" result="shape"/>
<feGaussianBlur stdDeviation="2.44571" result="effect1_foregroundBlur_10_5862"/>
</filter>
<filter id="filter1_f_10_5862" x="773.216" y="3981.1" width="13.6406" height="12.7278" filterUnits="userSpaceOnUse" color-interpolation-filters="sRGB">
<feFlood flood-opacity="0" result="BackgroundImageFix"/>
<feBlend mode="normal" in="SourceGraphic" in2="BackgroundImageFix" result="shape"/>
<feGaussianBlur stdDeviation="2.10822" result="effect1_foregroundBlur_10_5862"/>
</filter>
<filter id="filter2_dd_10_5862" x="-403.152" y="436.54" width="2075.44" height="778.543" filterUnits="userSpaceOnUse" color-interpolation-filters="sRGB">
<feFlood flood-opacity="0" result="BackgroundImageFix"/>
<feColorMatrix in="SourceAlpha" type="matrix" values="0 0 0 0 0 0 0 0 0 0 0 0 0 0 0 0 0 0 127 0" result="hardAlpha"/>
<feMorphology radius="32" operator="dilate" in="SourceAlpha" result="effect1_dropShadow_10_5862"/>
<feOffset dy="4"/>
<feGaussianBlur stdDeviation="8.35"/>
<feComposite in2="hardAlpha" operator="out"/>
<feColorMatrix type="matrix" values="0 0 0 0 1 0 0 0 0 0.678431 0 0 0 0 0.254902 0 0 0 1 0"/>
<feBlend mode="normal" in2="BackgroundImageFix" result="effect1_dropShadow_10_5862"/>
<feColorMatrix in="SourceAlpha" type="matrix" values="0 0 0 0 0 0 0 0 0 0 0 0 0 0 0 0 0 0 127 0" result="hardAlpha"/>
<feOffset dy="2"/>
<feGaussianBlur stdDeviation="2"/>
<feComposite in2="hardAlpha" operator="out"/>
<feColorMatrix type="matrix" values="0 0 0 0 0 0 0 0 0 0 0 0 0 0 0 0 0 0 0.25 0"/>
<feBlend mode="normal" in2="effect1_dropShadow_10_5862" result="effect2_dropShadow_10_5862"/>
<feBlend mode="normal" in="SourceGraphic" in2="effect2_dropShadow_10_5862" result="shape"/>
</filter>
<filter id="filter3_dd_10_5862" x="-398.786" y="449.874" width="2075.44" height="778.543" filterUnits="userSpaceOnUse" color-interpolation-filters="sRGB">
<feFlood flood-opacity="0" result="BackgroundImageFix"/>
<feColorMatrix in="SourceAlpha" type="matrix" values="0 0 0 0 0 0 0 0 0 0 0 0 0 0 0 0 0 0 127 0" result="hardAlpha"/>
<feMorphology radius="32" operator="dilate" in="SourceAlpha" result="effect1_dropShadow_10_5862"/>
<feOffset dy="4"/>
<feGaussianBlur stdDeviation="8.35"/>
<feComposite in2="hardAlpha" operator="out"/>
<feColorMatrix type="matrix" values="0 0 0 0 1 0 0 0 0 0.678431 0 0 0 0 0.254902 0 0 0 1 0"/>
<feBlend mode="normal" in2="BackgroundImageFix" result="effect1_dropShadow_10_5862"/>
<feColorMatrix in="SourceAlpha" type="matrix" values="0 0 0 0 0 0 0 0 0 0 0 0 0 0 0 0 0 0 127 0" result="hardAlpha"/>
<feOffset dy="2"/>
<feGaussianBlur stdDeviation="2"/>
<feComposite in2="hardAlpha" operator="out"/>
<feColorMatrix type="matrix" values="0 0 0 0 0 0 0 0 0 0 0 0 0 0 0 0 0 0 0.25 0"/>
<feBlend mode="normal" in2="effect1_dropShadow_10_5862" result="effect2_dropShadow_10_5862"/>
<feBlend mode="normal" in="SourceGraphic" in2="effect2_dropShadow_10_5862" result="shape"/>
</filter>
<filter id="filter4_dd_10_5862" x="-412.2" y="404.282" width="2075.44" height="778.543" filterUnits="userSpaceOnUse" color-interpolation-filters="sRGB">
<feFlood flood-opacity="0" result="BackgroundImageFix"/>
<feColorMatrix in="SourceAlpha" type="matrix" values="0 0 0 0 0 0 0 0 0 0 0 0 0 0 0 0 0 0 127 0" result="hardAlpha"/>
<feMorphology radius="32" operator="dilate" in="SourceAlpha" result="effect1_dropShadow_10_5862"/>
<feOffset dy="4"/>
<feGaussianBlur stdDeviation="8.35"/>
<feComposite in2="hardAlpha" operator="out"/>
<feColorMatrix type="matrix" values="0 0 0 0 1 0 0 0 0 0.678431 0 0 0 0 0.254902 0 0 0 1 0"/>
<feBlend mode="normal" in2="BackgroundImageFix" result="effect1_dropShadow_10_5862"/>
<feColorMatrix in="SourceAlpha" type="matrix" values="0 0 0 0 0 0 0 0 0 0 0 0 0 0 0 0 0 0 127 0" result="hardAlpha"/>
<feOffset dy="2"/>
<feGaussianBlur stdDeviation="2"/>
<feComposite in2="hardAlpha" operator="out"/>
<feColorMatrix type="matrix" values="0 0 0 0 0 0 0 0 0 0 0 0 0 0 0 0 0 0 0.25 0"/>
<feBlend mode="normal" in2="effect1_dropShadow_10_5862" result="effect2_dropShadow_10_5862"/>
<feBlend mode="normal" in="SourceGraphic" in2="effect2_dropShadow_10_5862" result="shape"/>
</filter>
<filter id="filter5_dd_10_5862" x="-411.547" y="410.898" width="2075.44" height="778.543" filterUnits="userSpaceOnUse" color-interpolation-filters="sRGB">
<feFlood flood-opacity="0" result="BackgroundImageFix"/>
<feColorMatrix in="SourceAlpha" type="matrix" values="0 0 0 0 0 0 0 0 0 0 0 0 0 0 0 0 0 0 127 0" result="hardAlpha"/>
<feMorphology radius="32" operator="dilate" in="SourceAlpha" result="effect1_dropShadow_10_5862"/>
<feOffset dy="4"/>
<feGaussianBlur stdDeviation="8.35"/>
<feComposite in2="hardAlpha" operator="out"/>
<feColorMatrix type="matrix" values="0 0 0 0 1 0 0 0 0 0.678431 0 0 0 0 0.254902 0 0 0 1 0"/>
<feBlend mode="normal" in2="BackgroundImageFix" result="effect1_dropShadow_10_5862"/>
<feColorMatrix in="SourceAlpha" type="matrix" values="0 0 0 0 0 0 0 0 0 0 0 0 0 0 0 0 0 0 127 0" result="hardAlpha"/>
<feOffset dy="2"/>
<feGaussianBlur stdDeviation="2"/>
<feComposite in2="hardAlpha" operator="out"/>
<feColorMatrix type="matrix" values="0 0 0 0 0 0 0 0 0 0 0 0 0 0 0 0 0 0 0.25 0"/>
<feBlend mode="normal" in2="effect1_dropShadow_10_5862" result="effect2_dropShadow_10_5862"/>
<feBlend mode="normal" in="SourceGraphic" in2="effect2_dropShadow_10_5862" result="shape"/>
</filter>
<filter id="filter6_dd_10_5862" x="-409.532" y="417.052" width="2075.44" height="778.543" filterUnits="userSpaceOnUse" color-interpolation-filters="sRGB">
<feFlood flood-opacity="0" result="BackgroundImageFix"/>
<feColorMatrix in="SourceAlpha" type="matrix" values="0 0 0 0 0 0 0 0 0 0 0 0 0 0 0 0 0 0 127 0" result="hardAlpha"/>
<feMorphology radius="32" operator="dilate" in="SourceAlpha" result="effect1_dropShadow_10_5862"/>
<feOffset dy="4"/>
<feGaussianBlur stdDeviation="8.35"/>
<feComposite in2="hardAlpha" operator="out"/>
<feColorMatrix type="matrix" values="0 0 0 0 1 0 0 0 0 0.678431 0 0 0 0 0.254902 0 0 0 1 0"/>
<feBlend mode="normal" in2="BackgroundImageFix" result="effect1_dropShadow_10_5862"/>
<feColorMatrix in="SourceAlpha" type="matrix" values="0 0 0 0 0 0 0 0 0 0 0 0 0 0 0 0 0 0 127 0" result="hardAlpha"/>
<feOffset dy="2"/>
<feGaussianBlur stdDeviation="2"/>
<feComposite in2="hardAlpha" operator="out"/>
<feColorMatrix type="matrix" values="0 0 0 0 0 0 0 0 0 0 0 0 0 0 0 0 0 0 0.25 0"/>
<feBlend mode="normal" in2="effect1_dropShadow_10_5862" result="effect2_dropShadow_10_5862"/>
<feBlend mode="normal" in="SourceGraphic" in2="effect2_dropShadow_10_5862" result="shape"/>
</filter>
<filter id="filter7_dd_10_5862" x="-407.517" y="423.206" width="2075.44" height="778.543" filterUnits="userSpaceOnUse" color-interpolation-filters="sRGB">
<feFlood flood-opacity="0" result="BackgroundImageFix"/>
<feColorMatrix in="SourceAlpha" type="matrix" values="0 0 0 0 0 0 0 0 0 0 0 0 0 0 0 0 0 0 127 0" result="hardAlpha"/>
<feMorphology radius="32" operator="dilate" in="SourceAlpha" result="effect1_dropShadow_10_5862"/>
<feOffset dy="4"/>
<feGaussianBlur stdDeviation="8.35"/>
<feComposite in2="hardAlpha" operator="out"/>
<feColorMatrix type="matrix" values="0 0 0 0 1 0 0 0 0 0.678431 0 0 0 0 0.254902 0 0 0 1 0"/>
<feBlend mode="normal" in2="BackgroundImageFix" result="effect1_dropShadow_10_5862"/>
<feColorMatrix in="SourceAlpha" type="matrix" values="0 0 0 0 0 0 0 0 0 0 0 0 0 0 0 0 0 0 127 0" result="hardAlpha"/>
<feOffset dy="2"/>
<feGaussianBlur stdDeviation="2"/>
<feComposite in2="hardAlpha" operator="out"/>
<feColorMatrix type="matrix" values="0 0 0 0 0 0 0 0 0 0 0 0 0 0 0 0 0 0 0.25 0"/>
<feBlend mode="normal" in2="effect1_dropShadow_10_5862" result="effect2_dropShadow_10_5862"/>
<feBlend mode="normal" in="SourceGraphic" in2="effect2_dropShadow_10_5862" result="shape"/>
</filter>
<filter id="filter8_dd_10_5862" x="-405.502" y="429.36" width="2075.44" height="778.543" filterUnits="userSpaceOnUse" color-interpolation-filters="sRGB">
<feFlood flood-opacity="0" result="BackgroundImageFix"/>
<feColorMatrix in="SourceAlpha" type="matrix" values="0 0 0 0 0 0 0 0 0 0 0 0 0 0 0 0 0 0 127 0" result="hardAlpha"/>
<feMorphology radius="32" operator="dilate" in="SourceAlpha" result="effect1_dropShadow_10_5862"/>
<feOffset dy="4"/>
<feGaussianBlur stdDeviation="8.35"/>
<feComposite in2="hardAlpha" operator="out"/>
<feColorMatrix type="matrix" values="0 0 0 0 1 0 0 0 0 0.678431 0 0 0 0 0.254902 0 0 0 1 0"/>
<feBlend mode="normal" in2="BackgroundImageFix" result="effect1_dropShadow_10_5862"/>
<feColorMatrix in="SourceAlpha" type="matrix" values="0 0 0 0 0 0 0 0 0 0 0 0 0 0 0 0 0 0 127 0" result="hardAlpha"/>
<feOffset dy="2"/>
<feGaussianBlur stdDeviation="2"/>
<feComposite in2="hardAlpha" operator="out"/>
<feColorMatrix type="matrix" values="0 0 0 0 0 0 0 0 0 0 0 0 0 0 0 0 0 0 0.25 0"/>
<feBlend mode="normal" in2="effect1_dropShadow_10_5862" result="effect2_dropShadow_10_5862"/>
<feBlend mode="normal" in="SourceGraphic" in2="effect2_dropShadow_10_5862" result="shape"/>
</filter>
<filter id="filter9_dd_10_5862" x="-415.912" y="397.565" width="2075.44" height="778.543" filterUnits="userSpaceOnUse" color-interpolation-filters="sRGB">
<feFlood flood-opacity="0" result="BackgroundImageFix"/>
<feColorMatrix in="SourceAlpha" type="matrix" values="0 0 0 0 0 0 0 0 0 0 0 0 0 0 0 0 0 0 127 0" result="hardAlpha"/>
<feMorphology radius="32" operator="dilate" in="SourceAlpha" result="effect1_dropShadow_10_5862"/>
<feOffset dy="4"/>
<feGaussianBlur stdDeviation="8.35"/>
<feComposite in2="hardAlpha" operator="out"/>
<feColorMatrix type="matrix" values="0 0 0 0 1 0 0 0 0 0.678431 0 0 0 0 0.254902 0 0 0 1 0"/>
<feBlend mode="normal" in2="BackgroundImageFix" result="effect1_dropShadow_10_5862"/>
<feColorMatrix in="SourceAlpha" type="matrix" values="0 0 0 0 0 0 0 0 0 0 0 0 0 0 0 0 0 0 127 0" result="hardAlpha"/>
<feOffset dy="2"/>
<feGaussianBlur stdDeviation="2"/>
<feComposite in2="hardAlpha" operator="out"/>
<feColorMatrix type="matrix" values="0 0 0 0 0 0 0 0 0 0 0 0 0 0 0 0 0 0 0.25 0"/>
<feBlend mode="normal" in2="effect1_dropShadow_10_5862" result="effect2_dropShadow_10_5862"/>
<feBlend mode="normal" in="SourceGraphic" in2="effect2_dropShadow_10_5862" result="shape"/>
</filter>
<filter id="filter10_dd_10_5862" x="-401.473" y="441.668" width="2075.44" height="778.543" filterUnits="userSpaceOnUse" color-interpolation-filters="sRGB">
<feFlood flood-opacity="0" result="BackgroundImageFix"/>
<feColorMatrix in="SourceAlpha" type="matrix" values="0 0 0 0 0 0 0 0 0 0 0 0 0 0 0 0 0 0 127 0" result="hardAlpha"/>
<feMorphology radius="32" operator="dilate" in="SourceAlpha" result="effect1_dropShadow_10_5862"/>
<feOffset dy="4"/>
<feGaussianBlur stdDeviation="8.35"/>
<feComposite in2="hardAlpha" operator="out"/>
<feColorMatrix type="matrix" values="0 0 0 0 1 0 0 0 0 0.678431 0 0 0 0 0.254902 0 0 0 1 0"/>
<feBlend mode="normal" in2="BackgroundImageFix" result="effect1_dropShadow_10_5862"/>
<feColorMatrix in="SourceAlpha" type="matrix" values="0 0 0 0 0 0 0 0 0 0 0 0 0 0 0 0 0 0 127 0" result="hardAlpha"/>
<feOffset dy="2"/>
<feGaussianBlur stdDeviation="2"/>
<feComposite in2="hardAlpha" operator="out"/>
<feColorMatrix type="matrix" values="0 0 0 0 0 0 0 0 0 0 0 0 0 0 0 0 0 0 0.25 0"/>
<feBlend mode="normal" in2="effect1_dropShadow_10_5862" result="effect2_dropShadow_10_5862"/>
<feBlend mode="normal" in="SourceGraphic" in2="effect2_dropShadow_10_5862" result="shape"/>
</filter>
<filter id="filter11_dd_10_5862" x="-396.771" y="456.028" width="2075.44" height="778.543" filterUnits="userSpaceOnUse" color-interpolation-filters="sRGB">
<feFlood flood-opacity="0" result="BackgroundImageFix"/>
<feColorMatrix in="SourceAlpha" type="matrix" values="0 0 0 0 0 0 0 0 0 0 0 0 0 0 0 0 0 0 127 0" result="hardAlpha"/>
<feMorphology radius="32" operator="dilate" in="SourceAlpha" result="effect1_dropShadow_10_5862"/>
<feOffset dy="4"/>
<feGaussianBlur stdDeviation="8.35"/>
<feComposite in2="hardAlpha" operator="out"/>
<feColorMatrix type="matrix" values="0 0 0 0 1 0 0 0 0 0.678431 0 0 0 0 0.254902 0 0 0 1 0"/>
<feBlend mode="normal" in2="BackgroundImageFix" result="effect1_dropShadow_10_5862"/>
<feColorMatrix in="SourceAlpha" type="matrix" values="0 0 0 0 0 0 0 0 0 0 0 0 0 0 0 0 0 0 127 0" result="hardAlpha"/>
<feOffset dy="2"/>
<feGaussianBlur stdDeviation="2"/>
<feComposite in2="hardAlpha" operator="out"/>
<feColorMatrix type="matrix" values="0 0 0 0 0 0 0 0 0 0 0 0 0 0 0 0 0 0 0.25 0"/>
<feBlend mode="normal" in2="effect1_dropShadow_10_5862" result="effect2_dropShadow_10_5862"/>
<feBlend mode="normal" in="SourceGraphic" in2="effect2_dropShadow_10_5862" result="shape"/>
</filter>
<filter id="filter12_dd_10_5862" x="-394.421" y="463.208" width="2075.44" height="778.543" filterUnits="userSpaceOnUse" color-interpolation-filters="sRGB">
<feFlood flood-opacity="0" result="BackgroundImageFix"/>
<feColorMatrix in="SourceAlpha" type="matrix" values="0 0 0 0 0 0 0 0 0 0 0 0 0 0 0 0 0 0 127 0" result="hardAlpha"/>
<feMorphology radius="32" operator="dilate" in="SourceAlpha" result="effect1_dropShadow_10_5862"/>
<feOffset dy="4"/>
<feGaussianBlur stdDeviation="8.35"/>
<feComposite in2="hardAlpha" operator="out"/>
<feColorMatrix type="matrix" values="0 0 0 0 1 0 0 0 0 0.678431 0 0 0 0 0.254902 0 0 0 1 0"/>
<feBlend mode="normal" in2="BackgroundImageFix" result="effect1_dropShadow_10_5862"/>
<feColorMatrix in="SourceAlpha" type="matrix" values="0 0 0 0 0 0 0 0 0 0 0 0 0 0 0 0 0 0 127 0" result="hardAlpha"/>
<feOffset dy="2"/>
<feGaussianBlur stdDeviation="2"/>
<feComposite in2="hardAlpha" operator="out"/>
<feColorMatrix type="matrix" values="0 0 0 0 0 0 0 0 0 0 0 0 0 0 0 0 0 0 0.25 0"/>
<feBlend mode="normal" in2="effect1_dropShadow_10_5862" result="effect2_dropShadow_10_5862"/>
<feBlend mode="normal" in="SourceGraphic" in2="effect2_dropShadow_10_5862" result="shape"/>
</filter>
<filter id="filter13_dd_10_5862" x="-389.383" y="478.593" width="2075.44" height="778.543" filterUnits="userSpaceOnUse" color-interpolation-filters="sRGB">
<feFlood flood-opacity="0" result="BackgroundImageFix"/>
<feColorMatrix in="SourceAlpha" type="matrix" values="0 0 0 0 0 0 0 0 0 0 0 0 0 0 0 0 0 0 127 0" result="hardAlpha"/>
<feMorphology radius="32" operator="dilate" in="SourceAlpha" result="effect1_dropShadow_10_5862"/>
<feOffset dy="4"/>
<feGaussianBlur stdDeviation="8.35"/>
<feComposite in2="hardAlpha" operator="out"/>
<feColorMatrix type="matrix" values="0 0 0 0 1 0 0 0 0 0.678431 0 0 0 0 0.254902 0 0 0 1 0"/>
<feBlend mode="normal" in2="BackgroundImageFix" result="effect1_dropShadow_10_5862"/>
<feColorMatrix in="SourceAlpha" type="matrix" values="0 0 0 0 0 0 0 0 0 0 0 0 0 0 0 0 0 0 127 0" result="hardAlpha"/>
<feOffset dy="2"/>
<feGaussianBlur stdDeviation="2"/>
<feComposite in2="hardAlpha" operator="out"/>
<feColorMatrix type="matrix" values="0 0 0 0 0 0 0 0 0 0 0 0 0 0 0 0 0 0 0.25 0"/>
<feBlend mode="normal" in2="effect1_dropShadow_10_5862" result="effect2_dropShadow_10_5862"/>
<feBlend mode="normal" in="SourceGraphic" in2="effect2_dropShadow_10_5862" result="shape"/>
</filter>
<filter id="filter14_dd_10_5862" x="-392.07" y="470.388" width="2075.44" height="778.543" filterUnits="userSpaceOnUse" color-interpolation-filters="sRGB">
<feFlood flood-opacity="0" result="BackgroundImageFix"/>
<feColorMatrix in="SourceAlpha" type="matrix" values="0 0 0 0 0 0 0 0 0 0 0 0 0 0 0 0 0 0 127 0" result="hardAlpha"/>
<feMorphology radius="32" operator="dilate" in="SourceAlpha" result="effect1_dropShadow_10_5862"/>
<feOffset dy="4"/>
<feGaussianBlur stdDeviation="8.35"/>
<feComposite in2="hardAlpha" operator="out"/>
<feColorMatrix type="matrix" values="0 0 0 0 1 0 0 0 0 0.678431 0 0 0 0 0.254902 0 0 0 1 0"/>
<feBlend mode="normal" in2="BackgroundImageFix" result="effect1_dropShadow_10_5862"/>
<feColorMatrix in="SourceAlpha" type="matrix" values="0 0 0 0 0 0 0 0 0 0 0 0 0 0 0 0 0 0 127 0" result="hardAlpha"/>
<feOffset dy="2"/>
<feGaussianBlur stdDeviation="2"/>
<feComposite in2="hardAlpha" operator="out"/>
<feColorMatrix type="matrix" values="0 0 0 0 0 0 0 0 0 0 0 0 0 0 0 0 0 0 0.25 0"/>
<feBlend mode="normal" in2="effect1_dropShadow_10_5862" result="effect2_dropShadow_10_5862"/>
<feBlend mode="normal" in="SourceGraphic" in2="effect2_dropShadow_10_5862" result="shape"/>
</filter>
<filter id="filter15_dd_10_5862" x="-369.571" y="539.109" width="2075.44" height="778.543" filterUnits="userSpaceOnUse" color-interpolation-filters="sRGB">
<feFlood flood-opacity="0" result="BackgroundImageFix"/>
<feColorMatrix in="SourceAlpha" type="matrix" values="0 0 0 0 0 0 0 0 0 0 0 0 0 0 0 0 0 0 127 0" result="hardAlpha"/>
<feMorphology radius="32" operator="dilate" in="SourceAlpha" result="effect1_dropShadow_10_5862"/>
<feOffset dy="4"/>
<feGaussianBlur stdDeviation="8.35"/>
<feComposite in2="hardAlpha" operator="out"/>
<feColorMatrix type="matrix" values="0 0 0 0 1 0 0 0 0 0.678431 0 0 0 0 0.254902 0 0 0 1 0"/>
<feBlend mode="normal" in2="BackgroundImageFix" result="effect1_dropShadow_10_5862"/>
<feColorMatrix in="SourceAlpha" type="matrix" values="0 0 0 0 0 0 0 0 0 0 0 0 0 0 0 0 0 0 127 0" result="hardAlpha"/>
<feOffset dy="2"/>
<feGaussianBlur stdDeviation="2"/>
<feComposite in2="hardAlpha" operator="out"/>
<feColorMatrix type="matrix" values="0 0 0 0 0 0 0 0 0 0 0 0 0 0 0 0 0 0 0.25 0"/>
<feBlend mode="normal" in2="effect1_dropShadow_10_5862" result="effect2_dropShadow_10_5862"/>
<feBlend mode="normal" in="SourceGraphic" in2="effect2_dropShadow_10_5862" result="shape"/>
</filter>
<filter id="filter16_dd_10_5862" x="-386.025" y="488.85" width="2075.44" height="778.543" filterUnits="userSpaceOnUse" color-interpolation-filters="sRGB">
<feFlood flood-opacity="0" result="BackgroundImageFix"/>
<feColorMatrix in="SourceAlpha" type="matrix" values="0 0 0 0 0 0 0 0 0 0 0 0 0 0 0 0 0 0 127 0" result="hardAlpha"/>
<feMorphology radius="32" operator="dilate" in="SourceAlpha" result="effect1_dropShadow_10_5862"/>
<feOffset dy="4"/>
<feGaussianBlur stdDeviation="8.35"/>
<feComposite in2="hardAlpha" operator="out"/>
<feColorMatrix type="matrix" values="0 0 0 0 1 0 0 0 0 0.678431 0 0 0 0 0.254902 0 0 0 1 0"/>
<feBlend mode="normal" in2="BackgroundImageFix" result="effect1_dropShadow_10_5862"/>
<feColorMatrix in="SourceAlpha" type="matrix" values="0 0 0 0 0 0 0 0 0 0 0 0 0 0 0 0 0 0 127 0" result="hardAlpha"/>
<feOffset dy="2"/>
<feGaussianBlur stdDeviation="2"/>
<feComposite in2="hardAlpha" operator="out"/>
<feColorMatrix type="matrix" values="0 0 0 0 0 0 0 0 0 0 0 0 0 0 0 0 0 0 0.25 0"/>
<feBlend mode="normal" in2="effect1_dropShadow_10_5862" result="effect2_dropShadow_10_5862"/>
<feBlend mode="normal" in="SourceGraphic" in2="effect2_dropShadow_10_5862" result="shape"/>
</filter>
<filter id="filter17_dd_10_5862" x="-383.339" y="497.055" width="2075.44" height="778.543" filterUnits="userSpaceOnUse" color-interpolation-filters="sRGB">
<feFlood flood-opacity="0" result="BackgroundImageFix"/>
<feColorMatrix in="SourceAlpha" type="matrix" values="0 0 0 0 0 0 0 0 0 0 0 0 0 0 0 0 0 0 127 0" result="hardAlpha"/>
<feMorphology radius="32" operator="dilate" in="SourceAlpha" result="effect1_dropShadow_10_5862"/>
<feOffset dy="4"/>
<feGaussianBlur stdDeviation="8.35"/>
<feComposite in2="hardAlpha" operator="out"/>
<feColorMatrix type="matrix" values="0 0 0 0 1 0 0 0 0 0.678431 0 0 0 0 0.254902 0 0 0 1 0"/>
<feBlend mode="normal" in2="BackgroundImageFix" result="effect1_dropShadow_10_5862"/>
<feColorMatrix in="SourceAlpha" type="matrix" values="0 0 0 0 0 0 0 0 0 0 0 0 0 0 0 0 0 0 127 0" result="hardAlpha"/>
<feOffset dy="2"/>
<feGaussianBlur stdDeviation="2"/>
<feComposite in2="hardAlpha" operator="out"/>
<feColorMatrix type="matrix" values="0 0 0 0 0 0 0 0 0 0 0 0 0 0 0 0 0 0 0.25 0"/>
<feBlend mode="normal" in2="effect1_dropShadow_10_5862" result="effect2_dropShadow_10_5862"/>
<feBlend mode="normal" in="SourceGraphic" in2="effect2_dropShadow_10_5862" result="shape"/>
</filter>
<filter id="filter18_dd_10_5862" x="-380.652" y="505.261" width="2075.44" height="778.543" filterUnits="userSpaceOnUse" color-interpolation-filters="sRGB">
<feFlood flood-opacity="0" result="BackgroundImageFix"/>
<feColorMatrix in="SourceAlpha" type="matrix" values="0 0 0 0 0 0 0 0 0 0 0 0 0 0 0 0 0 0 127 0" result="hardAlpha"/>
<feMorphology radius="32" operator="dilate" in="SourceAlpha" result="effect1_dropShadow_10_5862"/>
<feOffset dy="4"/>
<feGaussianBlur stdDeviation="8.35"/>
<feComposite in2="hardAlpha" operator="out"/>
<feColorMatrix type="matrix" values="0 0 0 0 1 0 0 0 0 0.678431 0 0 0 0 0.254902 0 0 0 1 0"/>
<feBlend mode="normal" in2="BackgroundImageFix" result="effect1_dropShadow_10_5862"/>
<feColorMatrix in="SourceAlpha" type="matrix" values="0 0 0 0 0 0 0 0 0 0 0 0 0 0 0 0 0 0 127 0" result="hardAlpha"/>
<feOffset dy="2"/>
<feGaussianBlur stdDeviation="2"/>
<feComposite in2="hardAlpha" operator="out"/>
<feColorMatrix type="matrix" values="0 0 0 0 0 0 0 0 0 0 0 0 0 0 0 0 0 0 0.25 0"/>
<feBlend mode="normal" in2="effect1_dropShadow_10_5862" result="effect2_dropShadow_10_5862"/>
<feBlend mode="normal" in="SourceGraphic" in2="effect2_dropShadow_10_5862" result="shape"/>
</filter>
<filter id="filter19_dd_10_5862" x="-377.63" y="514.492" width="2075.44" height="778.543" filterUnits="userSpaceOnUse" color-interpolation-filters="sRGB">
<feFlood flood-opacity="0" result="BackgroundImageFix"/>
<feColorMatrix in="SourceAlpha" type="matrix" values="0 0 0 0 0 0 0 0 0 0 0 0 0 0 0 0 0 0 127 0" result="hardAlpha"/>
<feMorphology radius="32" operator="dilate" in="SourceAlpha" result="effect1_dropShadow_10_5862"/>
<feOffset dy="4"/>
<feGaussianBlur stdDeviation="8.35"/>
<feComposite in2="hardAlpha" operator="out"/>
<feColorMatrix type="matrix" values="0 0 0 0 1 0 0 0 0 0.678431 0 0 0 0 0.254902 0 0 0 1 0"/>
<feBlend mode="normal" in2="BackgroundImageFix" result="effect1_dropShadow_10_5862"/>
<feColorMatrix in="SourceAlpha" type="matrix" values="0 0 0 0 0 0 0 0 0 0 0 0 0 0 0 0 0 0 127 0" result="hardAlpha"/>
<feOffset dy="2"/>
<feGaussianBlur stdDeviation="2"/>
<feComposite in2="hardAlpha" operator="out"/>
<feColorMatrix type="matrix" values="0 0 0 0 0 0 0 0 0 0 0 0 0 0 0 0 0 0 0.25 0"/>
<feBlend mode="normal" in2="effect1_dropShadow_10_5862" result="effect2_dropShadow_10_5862"/>
<feBlend mode="normal" in="SourceGraphic" in2="effect2_dropShadow_10_5862" result="shape"/>
</filter>
<filter id="filter20_dd_10_5862" x="-374.943" y="522.697" width="2075.44" height="778.543" filterUnits="userSpaceOnUse" color-interpolation-filters="sRGB">
<feFlood flood-opacity="0" result="BackgroundImageFix"/>
<feColorMatrix in="SourceAlpha" type="matrix" values="0 0 0 0 0 0 0 0 0 0 0 0 0 0 0 0 0 0 127 0" result="hardAlpha"/>
<feMorphology radius="32" operator="dilate" in="SourceAlpha" result="effect1_dropShadow_10_5862"/>
<feOffset dy="4"/>
<feGaussianBlur stdDeviation="8.35"/>
<feComposite in2="hardAlpha" operator="out"/>
<feColorMatrix type="matrix" values="0 0 0 0 1 0 0 0 0 0.678431 0 0 0 0 0.254902 0 0 0 1 0"/>
<feBlend mode="normal" in2="BackgroundImageFix" result="effect1_dropShadow_10_5862"/>
<feColorMatrix in="SourceAlpha" type="matrix" values="0 0 0 0 0 0 0 0 0 0 0 0 0 0 0 0 0 0 127 0" result="hardAlpha"/>
<feOffset dy="2"/>
<feGaussianBlur stdDeviation="2"/>
<feComposite in2="hardAlpha" operator="out"/>
<feColorMatrix type="matrix" values="0 0 0 0 0 0 0 0 0 0 0 0 0 0 0 0 0 0 0.25 0"/>
<feBlend mode="normal" in2="effect1_dropShadow_10_5862" result="effect2_dropShadow_10_5862"/>
<feBlend mode="normal" in="SourceGraphic" in2="effect2_dropShadow_10_5862" result="shape"/>
</filter>
<filter id="filter21_dd_10_5862" x="-372.257" y="530.904" width="2075.44" height="778.543" filterUnits="userSpaceOnUse" color-interpolation-filters="sRGB">
<feFlood flood-opacity="0" result="BackgroundImageFix"/>
<feColorMatrix in="SourceAlpha" type="matrix" values="0 0 0 0 0 0 0 0 0 0 0 0 0 0 0 0 0 0 127 0" result="hardAlpha"/>
<feMorphology radius="32" operator="dilate" in="SourceAlpha" result="effect1_dropShadow_10_5862"/>
<feOffset dy="4"/>
<feGaussianBlur stdDeviation="8.35"/>
<feComposite in2="hardAlpha" operator="out"/>
<feColorMatrix type="matrix" values="0 0 0 0 1 0 0 0 0 0.678431 0 0 0 0 0.254902 0 0 0 1 0"/>
<feBlend mode="normal" in2="BackgroundImageFix" result="effect1_dropShadow_10_5862"/>
<feColorMatrix in="SourceAlpha" type="matrix" values="0 0 0 0 0 0 0 0 0 0 0 0 0 0 0 0 0 0 127 0" result="hardAlpha"/>
<feOffset dy="2"/>
<feGaussianBlur stdDeviation="2"/>
<feComposite in2="hardAlpha" operator="out"/>
<feColorMatrix type="matrix" values="0 0 0 0 0 0 0 0 0 0 0 0 0 0 0 0 0 0 0.25 0"/>
<feBlend mode="normal" in2="effect1_dropShadow_10_5862" result="effect2_dropShadow_10_5862"/>
<feBlend mode="normal" in="SourceGraphic" in2="effect2_dropShadow_10_5862" result="shape"/>
</filter>
<filter id="filter22_dd_10_5862" x="-366.548" y="548.339" width="2075.44" height="778.543" filterUnits="userSpaceOnUse" color-interpolation-filters="sRGB">
<feFlood flood-opacity="0" result="BackgroundImageFix"/>
<feColorMatrix in="SourceAlpha" type="matrix" values="0 0 0 0 0 0 0 0 0 0 0 0 0 0 0 0 0 0 127 0" result="hardAlpha"/>
<feMorphology radius="32" operator="dilate" in="SourceAlpha" result="effect1_dropShadow_10_5862"/>
<feOffset dy="4"/>
<feGaussianBlur stdDeviation="8.35"/>
<feComposite in2="hardAlpha" operator="out"/>
<feColorMatrix type="matrix" values="0 0 0 0 1 0 0 0 0 0.678431 0 0 0 0 0.254902 0 0 0 1 0"/>
<feBlend mode="normal" in2="BackgroundImageFix" result="effect1_dropShadow_10_5862"/>
<feColorMatrix in="SourceAlpha" type="matrix" values="0 0 0 0 0 0 0 0 0 0 0 0 0 0 0 0 0 0 127 0" result="hardAlpha"/>
<feOffset dy="2"/>
<feGaussianBlur stdDeviation="2"/>
<feComposite in2="hardAlpha" operator="out"/>
<feColorMatrix type="matrix" values="0 0 0 0 0 0 0 0 0 0 0 0 0 0 0 0 0 0 0.25 0"/>
<feBlend mode="normal" in2="effect1_dropShadow_10_5862" result="effect2_dropShadow_10_5862"/>
<feBlend mode="normal" in="SourceGraphic" in2="effect2_dropShadow_10_5862" result="shape"/>
</filter>
<filter id="filter23_dd_10_5862" x="-333.714" y="648.627" width="2075.44" height="778.543" filterUnits="userSpaceOnUse" color-interpolation-filters="sRGB">
<feFlood flood-opacity="0" result="BackgroundImageFix"/>
<feColorMatrix in="SourceAlpha" type="matrix" values="0 0 0 0 0 0 0 0 0 0 0 0 0 0 0 0 0 0 127 0" result="hardAlpha"/>
<feMorphology radius="32" operator="dilate" in="SourceAlpha" result="effect1_dropShadow_10_5862"/>
<feOffset dy="4"/>
<feGaussianBlur stdDeviation="8.35"/>
<feComposite in2="hardAlpha" operator="out"/>
<feColorMatrix type="matrix" values="0 0 0 0 1 0 0 0 0 0.678431 0 0 0 0 0.254902 0 0 0 1 0"/>
<feBlend mode="normal" in2="BackgroundImageFix" result="effect1_dropShadow_10_5862"/>
<feColorMatrix in="SourceAlpha" type="matrix" values="0 0 0 0 0 0 0 0 0 0 0 0 0 0 0 0 0 0 127 0" result="hardAlpha"/>
<feOffset dy="2"/>
<feGaussianBlur stdDeviation="2"/>
<feComposite in2="hardAlpha" operator="out"/>
<feColorMatrix type="matrix" values="0 0 0 0 0 0 0 0 0 0 0 0 0 0 0 0 0 0 0.25 0"/>
<feBlend mode="normal" in2="effect1_dropShadow_10_5862" result="effect2_dropShadow_10_5862"/>
<feBlend mode="normal" in="SourceGraphic" in2="effect2_dropShadow_10_5862" result="shape"/>
</filter>
<filter id="filter24_dd_10_5862" x="-361.586" y="563.495" width="2075.44" height="778.543" filterUnits="userSpaceOnUse" color-interpolation-filters="sRGB">
<feFlood flood-opacity="0" result="BackgroundImageFix"/>
<feColorMatrix in="SourceAlpha" type="matrix" values="0 0 0 0 0 0 0 0 0 0 0 0 0 0 0 0 0 0 127 0" result="hardAlpha"/>
<feMorphology radius="32" operator="dilate" in="SourceAlpha" result="effect1_dropShadow_10_5862"/>
<feOffset dy="4"/>
<feGaussianBlur stdDeviation="8.35"/>
<feComposite in2="hardAlpha" operator="out"/>
<feColorMatrix type="matrix" values="0 0 0 0 1 0 0 0 0 0.678431 0 0 0 0 0.254902 0 0 0 1 0"/>
<feBlend mode="normal" in2="BackgroundImageFix" result="effect1_dropShadow_10_5862"/>
<feColorMatrix in="SourceAlpha" type="matrix" values="0 0 0 0 0 0 0 0 0 0 0 0 0 0 0 0 0 0 127 0" result="hardAlpha"/>
<feOffset dy="2"/>
<feGaussianBlur stdDeviation="2"/>
<feComposite in2="hardAlpha" operator="out"/>
<feColorMatrix type="matrix" values="0 0 0 0 0 0 0 0 0 0 0 0 0 0 0 0 0 0 0.25 0"/>
<feBlend mode="normal" in2="effect1_dropShadow_10_5862" result="effect2_dropShadow_10_5862"/>
<feBlend mode="normal" in="SourceGraphic" in2="effect2_dropShadow_10_5862" result="shape"/>
</filter>
<filter id="filter25_dd_10_5862" x="-364.273" y="555.29" width="2075.44" height="778.543" filterUnits="userSpaceOnUse" color-interpolation-filters="sRGB">
<feFlood flood-opacity="0" result="BackgroundImageFix"/>
<feColorMatrix in="SourceAlpha" type="matrix" values="0 0 0 0 0 0 0 0 0 0 0 0 0 0 0 0 0 0 127 0" result="hardAlpha"/>
<feMorphology radius="32" operator="dilate" in="SourceAlpha" result="effect1_dropShadow_10_5862"/>
<feOffset dy="4"/>
<feGaussianBlur stdDeviation="8.35"/>
<feComposite in2="hardAlpha" operator="out"/>
<feColorMatrix type="matrix" values="0 0 0 0 1 0 0 0 0 0.678431 0 0 0 0 0.254902 0 0 0 1 0"/>
<feBlend mode="normal" in2="BackgroundImageFix" result="effect1_dropShadow_10_5862"/>
<feColorMatrix in="SourceAlpha" type="matrix" values="0 0 0 0 0 0 0 0 0 0 0 0 0 0 0 0 0 0 127 0" result="hardAlpha"/>
<feOffset dy="2"/>
<feGaussianBlur stdDeviation="2"/>
<feComposite in2="hardAlpha" operator="out"/>
<feColorMatrix type="matrix" values="0 0 0 0 0 0 0 0 0 0 0 0 0 0 0 0 0 0 0.25 0"/>
<feBlend mode="normal" in2="effect1_dropShadow_10_5862" result="effect2_dropShadow_10_5862"/>
<feBlend mode="normal" in="SourceGraphic" in2="effect2_dropShadow_10_5862" result="shape"/>
</filter>
<filter id="filter26_dd_10_5862" x="-357.893" y="574.778" width="2075.44" height="778.543" filterUnits="userSpaceOnUse" color-interpolation-filters="sRGB">
<feFlood flood-opacity="0" result="BackgroundImageFix"/>
<feColorMatrix in="SourceAlpha" type="matrix" values="0 0 0 0 0 0 0 0 0 0 0 0 0 0 0 0 0 0 127 0" result="hardAlpha"/>
<feMorphology radius="32" operator="dilate" in="SourceAlpha" result="effect1_dropShadow_10_5862"/>
<feOffset dy="4"/>
<feGaussianBlur stdDeviation="8.35"/>
<feComposite in2="hardAlpha" operator="out"/>
<feColorMatrix type="matrix" values="0 0 0 0 1 0 0 0 0 0.678431 0 0 0 0 0.254902 0 0 0 1 0"/>
<feBlend mode="normal" in2="BackgroundImageFix" result="effect1_dropShadow_10_5862"/>
<feColorMatrix in="SourceAlpha" type="matrix" values="0 0 0 0 0 0 0 0 0 0 0 0 0 0 0 0 0 0 127 0" result="hardAlpha"/>
<feOffset dy="2"/>
<feGaussianBlur stdDeviation="2"/>
<feComposite in2="hardAlpha" operator="out"/>
<feColorMatrix type="matrix" values="0 0 0 0 0 0 0 0 0 0 0 0 0 0 0 0 0 0 0.25 0"/>
<feBlend mode="normal" in2="effect1_dropShadow_10_5862" result="effect2_dropShadow_10_5862"/>
<feBlend mode="normal" in="SourceGraphic" in2="effect2_dropShadow_10_5862" result="shape"/>
</filter>
<filter id="filter27_dd_10_5862" x="-354.534" y="585.034" width="2075.44" height="778.543" filterUnits="userSpaceOnUse" color-interpolation-filters="sRGB">
<feFlood flood-opacity="0" result="BackgroundImageFix"/>
<feColorMatrix in="SourceAlpha" type="matrix" values="0 0 0 0 0 0 0 0 0 0 0 0 0 0 0 0 0 0 127 0" result="hardAlpha"/>
<feMorphology radius="32" operator="dilate" in="SourceAlpha" result="effect1_dropShadow_10_5862"/>
<feOffset dy="4"/>
<feGaussianBlur stdDeviation="8.35"/>
<feComposite in2="hardAlpha" operator="out"/>
<feColorMatrix type="matrix" values="0 0 0 0 1 0 0 0 0 0.678431 0 0 0 0 0.254902 0 0 0 1 0"/>
<feBlend mode="normal" in2="BackgroundImageFix" result="effect1_dropShadow_10_5862"/>
<feColorMatrix in="SourceAlpha" type="matrix" values="0 0 0 0 0 0 0 0 0 0 0 0 0 0 0 0 0 0 127 0" result="hardAlpha"/>
<feOffset dy="2"/>
<feGaussianBlur stdDeviation="2"/>
<feComposite in2="hardAlpha" operator="out"/>
<feColorMatrix type="matrix" values="0 0 0 0 0 0 0 0 0 0 0 0 0 0 0 0 0 0 0.25 0"/>
<feBlend mode="normal" in2="effect1_dropShadow_10_5862" result="effect2_dropShadow_10_5862"/>
<feBlend mode="normal" in="SourceGraphic" in2="effect2_dropShadow_10_5862" result="shape"/>
</filter>
<filter id="filter28_dd_10_5862" x="-351.176" y="595.292" width="2075.44" height="778.543" filterUnits="userSpaceOnUse" color-interpolation-filters="sRGB">
<feFlood flood-opacity="0" result="BackgroundImageFix"/>
<feColorMatrix in="SourceAlpha" type="matrix" values="0 0 0 0 0 0 0 0 0 0 0 0 0 0 0 0 0 0 127 0" result="hardAlpha"/>
<feMorphology radius="32" operator="dilate" in="SourceAlpha" result="effect1_dropShadow_10_5862"/>
<feOffset dy="4"/>
<feGaussianBlur stdDeviation="8.35"/>
<feComposite in2="hardAlpha" operator="out"/>
<feColorMatrix type="matrix" values="0 0 0 0 1 0 0 0 0 0.678431 0 0 0 0 0.254902 0 0 0 1 0"/>
<feBlend mode="normal" in2="BackgroundImageFix" result="effect1_dropShadow_10_5862"/>
<feColorMatrix in="SourceAlpha" type="matrix" values="0 0 0 0 0 0 0 0 0 0 0 0 0 0 0 0 0 0 127 0" result="hardAlpha"/>
<feOffset dy="2"/>
<feGaussianBlur stdDeviation="2"/>
<feComposite in2="hardAlpha" operator="out"/>
<feColorMatrix type="matrix" values="0 0 0 0 0 0 0 0 0 0 0 0 0 0 0 0 0 0 0.25 0"/>
<feBlend mode="normal" in2="effect1_dropShadow_10_5862" result="effect2_dropShadow_10_5862"/>
<feBlend mode="normal" in="SourceGraphic" in2="effect2_dropShadow_10_5862" result="shape"/>
</filter>
<filter id="filter29_dd_10_5862" x="-347.818" y="605.548" width="2075.44" height="778.543" filterUnits="userSpaceOnUse" color-interpolation-filters="sRGB">
<feFlood flood-opacity="0" result="BackgroundImageFix"/>
<feColorMatrix in="SourceAlpha" type="matrix" values="0 0 0 0 0 0 0 0 0 0 0 0 0 0 0 0 0 0 127 0" result="hardAlpha"/>
<feMorphology radius="32" operator="dilate" in="SourceAlpha" result="effect1_dropShadow_10_5862"/>
<feOffset dy="4"/>
<feGaussianBlur stdDeviation="8.35"/>
<feComposite in2="hardAlpha" operator="out"/>
<feColorMatrix type="matrix" values="0 0 0 0 1 0 0 0 0 0.678431 0 0 0 0 0.254902 0 0 0 1 0"/>
<feBlend mode="normal" in2="BackgroundImageFix" result="effect1_dropShadow_10_5862"/>
<feColorMatrix in="SourceAlpha" type="matrix" values="0 0 0 0 0 0 0 0 0 0 0 0 0 0 0 0 0 0 127 0" result="hardAlpha"/>
<feOffset dy="2"/>
<feGaussianBlur stdDeviation="2"/>
<feComposite in2="hardAlpha" operator="out"/>
<feColorMatrix type="matrix" values="0 0 0 0 0 0 0 0 0 0 0 0 0 0 0 0 0 0 0.25 0"/>
<feBlend mode="normal" in2="effect1_dropShadow_10_5862" result="effect2_dropShadow_10_5862"/>
<feBlend mode="normal" in="SourceGraphic" in2="effect2_dropShadow_10_5862" result="shape"/>
</filter>
<filter id="filter30_dd_10_5862" x="-344.124" y="616.831" width="2075.44" height="778.543" filterUnits="userSpaceOnUse" color-interpolation-filters="sRGB">
<feFlood flood-opacity="0" result="BackgroundImageFix"/>
<feColorMatrix in="SourceAlpha" type="matrix" values="0 0 0 0 0 0 0 0 0 0 0 0 0 0 0 0 0 0 127 0" result="hardAlpha"/>
<feMorphology radius="32" operator="dilate" in="SourceAlpha" result="effect1_dropShadow_10_5862"/>
<feOffset dy="4"/>
<feGaussianBlur stdDeviation="8.35"/>
<feComposite in2="hardAlpha" operator="out"/>
<feColorMatrix type="matrix" values="0 0 0 0 1 0 0 0 0 0.678431 0 0 0 0 0.254902 0 0 0 1 0"/>
<feBlend mode="normal" in2="BackgroundImageFix" result="effect1_dropShadow_10_5862"/>
<feColorMatrix in="SourceAlpha" type="matrix" values="0 0 0 0 0 0 0 0 0 0 0 0 0 0 0 0 0 0 127 0" result="hardAlpha"/>
<feOffset dy="2"/>
<feGaussianBlur stdDeviation="2"/>
<feComposite in2="hardAlpha" operator="out"/>
<feColorMatrix type="matrix" values="0 0 0 0 0 0 0 0 0 0 0 0 0 0 0 0 0 0 0.25 0"/>
<feBlend mode="normal" in2="effect1_dropShadow_10_5862" result="effect2_dropShadow_10_5862"/>
<feBlend mode="normal" in="SourceGraphic" in2="effect2_dropShadow_10_5862" result="shape"/>
</filter>
<filter id="filter31_dd_10_5862" x="-340.094" y="629.139" width="2075.44" height="778.543" filterUnits="userSpaceOnUse" color-interpolation-filters="sRGB">
<feFlood flood-opacity="0" result="BackgroundImageFix"/>
<feColorMatrix in="SourceAlpha" type="matrix" values="0 0 0 0 0 0 0 0 0 0 0 0 0 0 0 0 0 0 127 0" result="hardAlpha"/>
<feMorphology radius="32" operator="dilate" in="SourceAlpha" result="effect1_dropShadow_10_5862"/>
<feOffset dy="4"/>
<feGaussianBlur stdDeviation="8.35"/>
<feComposite in2="hardAlpha" operator="out"/>
<feColorMatrix type="matrix" values="0 0 0 0 1 0 0 0 0 0.678431 0 0 0 0 0.254902 0 0 0 1 0"/>
<feBlend mode="normal" in2="BackgroundImageFix" result="effect1_dropShadow_10_5862"/>
<feColorMatrix in="SourceAlpha" type="matrix" values="0 0 0 0 0 0 0 0 0 0 0 0 0 0 0 0 0 0 127 0" result="hardAlpha"/>
<feOffset dy="2"/>
<feGaussianBlur stdDeviation="2"/>
<feComposite in2="hardAlpha" operator="out"/>
<feColorMatrix type="matrix" values="0 0 0 0 0 0 0 0 0 0 0 0 0 0 0 0 0 0 0.25 0"/>
<feBlend mode="normal" in2="effect1_dropShadow_10_5862" result="effect2_dropShadow_10_5862"/>
<feBlend mode="normal" in="SourceGraphic" in2="effect2_dropShadow_10_5862" result="shape"/>
</filter>
<filter id="filter32_dd_10_5862" x="-336.065" y="641.447" width="2075.44" height="778.543" filterUnits="userSpaceOnUse" color-interpolation-filters="sRGB">
<feFlood flood-opacity="0" result="BackgroundImageFix"/>
<feColorMatrix in="SourceAlpha" type="matrix" values="0 0 0 0 0 0 0 0 0 0 0 0 0 0 0 0 0 0 127 0" result="hardAlpha"/>
<feMorphology radius="32" operator="dilate" in="SourceAlpha" result="effect1_dropShadow_10_5862"/>
<feOffset dy="4"/>
<feGaussianBlur stdDeviation="8.35"/>
<feComposite in2="hardAlpha" operator="out"/>
<feColorMatrix type="matrix" values="0 0 0 0 1 0 0 0 0 0.678431 0 0 0 0 0.254902 0 0 0 1 0"/>
<feBlend mode="normal" in2="BackgroundImageFix" result="effect1_dropShadow_10_5862"/>
<feColorMatrix in="SourceAlpha" type="matrix" values="0 0 0 0 0 0 0 0 0 0 0 0 0 0 0 0 0 0 127 0" result="hardAlpha"/>
<feOffset dy="2"/>
<feGaussianBlur stdDeviation="2"/>
<feComposite in2="hardAlpha" operator="out"/>
<feColorMatrix type="matrix" values="0 0 0 0 0 0 0 0 0 0 0 0 0 0 0 0 0 0 0.25 0"/>
<feBlend mode="normal" in2="effect1_dropShadow_10_5862" result="effect2_dropShadow_10_5862"/>
<feBlend mode="normal" in="SourceGraphic" in2="effect2_dropShadow_10_5862" result="shape"/>
</filter>
<clipPath id="clip0_10_5862">
<rect width="1440" height="5196" fill="white"/>
</clipPath>
<clipPath id="clip1_10_5862">
<rect width="1780.77" height="428.59" fill="white" transform="translate(-250 946.324) rotate(-18.3398)"/>
</clipPath>
</defs>
</svg>
