<svg width="1440" height="5196" viewBox="0 0 1440 5196" fill="none" xmlns="http://www.w3.org/2000/svg">
<g clip-path="url(#clip0_10_5862)">
<rect width="1440" height="5196" fill="#2F365B"/>
<path d="M1566.19 2912.75C1488.13 2941.78 1309.73 2970.68 1220.57 2854.03C1109.12 2708.21 939.844 2688.43 839.349 2698.12C738.855 2707.81 525.367 2684.84 425.187 2528.74C325.006 2372.64 221.307 2292.3 49.8999 2266.22C-121.507 2240.14 -178.497 2346.87 -258.585 2249.1C-322.656 2170.88 -343.842 2092.32 -346.426 2062.82" stroke="#FFAD41" stroke-opacity="0.7" stroke-width="1.22286"/>
<path d="M1572.34 2897.71C1494.28 2926.74 1315.88 2955.64 1226.72 2838.98C1115.27 2693.17 945.996 2673.38 845.501 2683.08C745.006 2692.77 531.519 2669.8 431.339 2513.7C331.158 2357.59 227.459 2277.26 56.0517 2251.18C-115.355 2225.1 -172.345 2331.82 -252.433 2234.05C-316.504 2155.84 -337.69 2077.28 -340.275 2047.78" stroke="#FFAD41" stroke-opacity="0.7" stroke-width="1.22286"/>
<path d="M1550.17 2948.08C1472.12 2977.1 1293.71 3006 1204.55 2889.35C1093.1 2743.54 923.829 2723.75 823.334 2733.44C722.839 2743.14 509.352 2720.17 409.171 2564.06C308.991 2407.96 205.292 2327.62 33.8845 2301.54C-137.523 2275.46 -194.512 2382.19 -274.6 2284.42C-338.671 2206.2 -359.858 2127.64 -362.442 2098.14" stroke="#FFAD41" stroke-opacity="0.7" stroke-width="1.22286"/>
<path d="M1554.36 2941.68C1476.3 2970.71 1297.9 2999.61 1208.74 2882.96C1097.28 2737.14 928.012 2717.35 827.518 2727.05C727.023 2736.74 513.535 2713.77 413.355 2557.67C313.175 2401.56 209.475 2321.23 38.0683 2295.15C-133.339 2269.07 -190.328 2375.79 -270.417 2278.02C-334.487 2199.81 -355.674 2121.25 -358.258 2091.75" stroke="#FFAD41" stroke-opacity="0.7" stroke-width="1.22286"/>
<path d="M1557.2 2934.74C1479.14 2963.77 1300.74 2992.66 1211.58 2876.01C1100.12 2730.2 930.852 2710.41 830.358 2720.11C729.863 2729.8 516.375 2706.83 416.195 2550.72C316.015 2394.62 212.315 2314.28 40.9082 2288.2C-130.499 2262.13 -187.488 2368.85 -267.577 2271.08C-331.648 2192.86 -352.834 2114.31 -355.418 2084.81" stroke="#FFAD41" stroke-opacity="0.7" stroke-width="1.22286"/>
<path d="M1560.04 2927.8C1481.98 2956.83 1303.58 2985.72 1214.41 2869.07C1102.96 2723.26 933.691 2703.47 833.197 2713.16C732.702 2722.86 519.214 2699.89 419.034 2543.78C318.854 2387.68 215.154 2307.34 43.7474 2281.26C-127.66 2255.18 -184.649 2361.91 -264.738 2264.14C-328.808 2185.92 -349.995 2107.37 -352.579 2077.86" stroke="#FFAD41" stroke-opacity="0.7" stroke-width="1.22286"/>
<path d="M1562.88 2920.85C1484.82 2949.88 1306.42 2978.78 1217.25 2862.13C1105.8 2716.31 936.531 2696.53 836.037 2706.22C735.542 2715.92 522.054 2692.94 421.874 2536.84C321.694 2380.74 217.994 2300.4 46.5871 2274.32C-124.82 2248.24 -181.809 2354.97 -261.898 2257.2C-325.969 2178.98 -347.155 2100.42 -349.739 2070.92" stroke="#FFAD41" stroke-opacity="0.7" stroke-width="1.22286"/>
<path d="M1548.21 2956.72C1470.15 2985.75 1291.75 3014.65 1202.58 2898C1091.13 2752.19 921.861 2732.4 821.366 2742.09C720.871 2751.79 507.384 2728.81 407.203 2572.71C307.023 2416.61 203.324 2336.27 31.9165 2310.19C-139.491 2284.11 -196.48 2390.84 -276.569 2293.07C-340.639 2214.85 -361.826 2136.29 -364.41 2106.79" stroke="#FFAD41" stroke-opacity="0.7" stroke-width="1.22286"/>
<path d="M1568.56 2906.97C1490.5 2936 1312.09 2964.89 1222.93 2848.24C1111.48 2702.43 942.21 2682.64 841.716 2692.33C741.221 2702.03 527.733 2679.06 427.553 2522.95C327.373 2366.85 223.673 2286.51 52.2661 2260.43C-119.141 2234.35 -176.13 2341.08 -256.219 2243.31C-320.29 2165.09 -341.476 2086.54 -344.06 2057.03" stroke="#FFAD41" stroke-opacity="0.7" stroke-width="1.22286"/>
<path d="M1575.18 2890.77C1497.12 2919.8 1318.72 2948.69 1229.56 2832.04C1118.11 2686.23 948.836 2666.44 848.341 2676.13C747.846 2685.83 534.359 2662.86 434.178 2506.75C333.998 2350.65 230.299 2270.31 58.8915 2244.23C-112.516 2218.15 -169.505 2324.88 -249.593 2227.11C-313.664 2148.89 -334.851 2070.34 -337.435 2040.83" stroke="#FFAD41" stroke-opacity="0.7" stroke-width="1.22286"/>
<path d="M1578.49 2882.67C1500.44 2911.7 1322.03 2940.59 1232.87 2823.94C1121.42 2678.13 952.148 2658.34 851.654 2668.03C751.159 2677.73 537.671 2654.76 437.491 2498.65C337.311 2342.55 233.611 2262.21 62.2042 2236.13C-109.203 2210.05 -166.192 2316.78 -246.281 2219.01C-310.352 2140.79 -331.538 2062.24 -334.122 2032.73" stroke="#FFAD41" stroke-opacity="0.7" stroke-width="1.22286"/>
<path d="M1585.59 2865.31C1507.54 2894.34 1329.13 2923.24 1239.97 2806.59C1128.52 2660.77 959.247 2640.98 858.752 2650.68C758.257 2660.37 544.77 2637.4 444.589 2481.3C344.409 2325.19 240.71 2244.86 69.3025 2218.78C-102.105 2192.7 -159.094 2299.42 -239.182 2201.65C-303.253 2123.44 -324.44 2044.88 -327.024 2015.38" stroke="#FFAD41" stroke-opacity="0.7" stroke-width="1.22286"/>
<path d="M1581.81 2874.57C1503.75 2903.6 1325.35 2932.49 1236.18 2815.84C1124.73 2670.03 955.461 2650.24 854.966 2659.93C754.472 2669.63 540.984 2646.66 440.804 2490.55C340.623 2334.45 236.924 2254.11 65.5169 2228.03C-105.89 2201.95 -162.879 2308.68 -242.968 2210.91C-307.039 2132.69 -328.225 2054.14 -330.809 2024.64" stroke="#FFAD41" stroke-opacity="0.7" stroke-width="1.22286"/>
<path d="M1613.51 2797.04C1535.46 2826.07 1357.05 2854.96 1267.89 2738.31C1156.44 2592.5 987.168 2572.71 886.673 2582.41C786.179 2592.1 572.691 2569.13 472.511 2413.02C372.33 2256.92 268.631 2176.58 97.224 2150.5C-74.1831 2124.43 -131.172 2231.15 -211.261 2133.38C-275.332 2055.16 -296.518 1976.61 -299.102 1947.11" stroke="#FFAD41" stroke-opacity="0.7" stroke-width="1.22286"/>
<path d="M1590.32 2853.74C1512.27 2882.77 1333.86 2911.66 1244.7 2795.01C1133.25 2649.2 963.979 2629.41 863.485 2639.11C762.99 2648.8 549.502 2625.83 449.322 2469.72C349.142 2313.62 245.442 2233.28 74.0351 2207.2C-97.372 2181.13 -154.361 2287.85 -234.45 2190.08C-298.521 2111.86 -319.707 2033.31 -322.291 2003.81" stroke="#FFAD41" stroke-opacity="0.7" stroke-width="1.22286"/>
<path d="M1594.11 2844.48C1516.05 2873.51 1337.65 2902.41 1248.49 2785.76C1137.04 2639.94 967.765 2620.15 867.27 2629.85C766.775 2639.54 553.288 2616.57 453.107 2460.47C352.927 2304.36 249.228 2224.03 77.8207 2197.95C-93.5864 2171.87 -150.576 2278.59 -230.664 2180.82C-294.735 2102.61 -315.921 2024.05 -318.506 1994.55" stroke="#FFAD41" stroke-opacity="0.7" stroke-width="1.22286"/>
<path d="M1597.9 2835.22C1519.84 2864.25 1341.44 2893.15 1252.27 2776.5C1140.82 2630.68 971.551 2610.9 871.056 2620.59C770.562 2630.29 557.074 2607.31 456.894 2451.21C356.713 2295.11 253.014 2214.77 81.6069 2188.69C-89.8002 2162.61 -146.789 2269.34 -226.878 2171.57C-290.949 2093.35 -312.135 2014.79 -314.719 1985.29" stroke="#FFAD41" stroke-opacity="0.7" stroke-width="1.22286"/>
<path d="M1602.16 2824.81C1524.1 2853.84 1345.69 2882.73 1256.53 2766.08C1145.08 2620.27 975.81 2600.48 875.315 2610.18C774.821 2619.87 561.333 2596.9 461.153 2440.79C360.972 2284.69 257.273 2204.35 85.866 2178.28C-85.5411 2152.2 -142.53 2258.92 -222.619 2161.15C-286.69 2082.93 -307.876 2004.38 -310.46 1974.88" stroke="#FFAD41" stroke-opacity="0.7" stroke-width="1.22286"/>
<path d="M1605.94 2815.55C1527.88 2844.58 1349.48 2873.48 1260.32 2756.83C1148.87 2611.01 979.596 2591.23 879.102 2600.92C778.607 2610.61 565.119 2587.64 464.939 2431.54C364.759 2275.43 261.059 2195.1 89.6522 2169.02C-81.7549 2142.94 -138.744 2249.67 -218.833 2151.9C-282.904 2073.68 -304.09 1995.12 -306.674 1965.62" stroke="#FFAD41" stroke-opacity="0.7" stroke-width="1.22286"/>
<path d="M1609.73 2806.3C1531.67 2835.33 1353.27 2864.22 1264.11 2747.57C1152.65 2601.76 983.382 2581.97 882.887 2591.66C782.392 2601.36 568.905 2578.39 468.725 2422.28C368.544 2266.18 264.845 2185.84 93.4378 2159.76C-77.9693 2133.68 -134.959 2240.41 -215.047 2142.64C-279.118 2064.42 -300.304 1985.87 -302.889 1956.36" stroke="#FFAD41" stroke-opacity="0.7" stroke-width="1.22286"/>
<path d="M1617.77 2786.62C1539.72 2815.65 1361.31 2844.55 1272.15 2727.9C1160.7 2582.08 991.427 2562.3 890.933 2571.99C790.438 2581.68 576.95 2558.71 476.77 2402.61C376.59 2246.51 272.89 2166.17 101.483 2140.09C-69.924 2114.01 -126.913 2220.74 -207.002 2122.97C-271.073 2044.75 -292.259 1966.19 -294.843 1936.69" stroke="#FFAD41" stroke-opacity="0.7" stroke-width="1.22286"/>
<path d="M1664.04 2673.48C1585.99 2702.51 1407.58 2731.41 1318.42 2614.76C1206.97 2468.94 1037.7 2449.15 937.204 2458.85C836.709 2468.54 623.222 2445.57 523.041 2289.47C422.861 2133.36 319.162 2053.03 147.755 2026.95C-23.6525 2000.87 -80.6418 2107.59 -160.73 2009.82C-224.801 1931.61 -245.987 1853.05 -248.572 1823.55" stroke="#FFAD41" stroke-opacity="0.7" stroke-width="1.22286"/>
<path d="M1624.77 2769.53C1546.71 2798.55 1368.3 2827.45 1279.14 2710.8C1167.69 2564.99 998.42 2545.2 897.925 2554.89C797.43 2564.59 583.943 2541.62 483.762 2385.51C383.582 2229.41 279.883 2149.07 108.476 2122.99C-62.9314 2096.91 -119.921 2203.64 -200.009 2105.87C-264.08 2027.65 -285.266 1949.09 -287.851 1919.59" stroke="#FFAD41" stroke-opacity="0.7" stroke-width="1.22286"/>
<path d="M1620.98 2778.78C1542.92 2807.81 1364.52 2836.71 1275.36 2720.06C1163.91 2574.24 994.634 2554.46 894.14 2564.15C793.645 2573.84 580.157 2550.87 479.977 2394.77C379.797 2238.66 276.097 2158.33 104.69 2132.25C-66.717 2106.17 -123.706 2212.89 -203.795 2115.12C-267.866 2036.91 -289.052 1958.35 -291.636 1928.85" stroke="#FFAD41" stroke-opacity="0.7" stroke-width="1.22286"/>
<path d="M1629.97 2756.8C1551.91 2785.83 1373.51 2814.72 1284.35 2698.07C1172.9 2552.26 1003.63 2532.47 903.131 2542.16C802.636 2551.86 589.148 2528.89 488.968 2372.78C388.788 2216.68 285.088 2136.34 113.681 2110.26C-57.7259 2084.18 -114.715 2190.91 -194.804 2093.14C-258.875 2014.92 -280.061 1936.37 -282.645 1906.86" stroke="#FFAD41" stroke-opacity="0.7" stroke-width="1.22286"/>
<path d="M1634.7 2745.23C1556.65 2774.26 1378.24 2803.15 1289.08 2686.5C1177.63 2540.69 1008.36 2520.9 907.863 2530.59C807.368 2540.29 593.881 2517.32 493.701 2361.21C393.52 2205.11 289.821 2124.77 118.414 2098.69C-52.9933 2072.61 -109.983 2179.34 -190.071 2081.57C-254.142 2003.35 -275.328 1924.79 -277.912 1895.29" stroke="#FFAD41" stroke-opacity="0.7" stroke-width="1.22286"/>
<path d="M1639.44 2733.65C1561.38 2762.68 1382.98 2791.58 1293.81 2674.93C1182.36 2529.11 1013.09 2509.33 912.596 2519.02C812.101 2528.71 598.613 2505.74 498.433 2349.64C398.253 2193.54 294.553 2113.2 123.146 2087.12C-48.2607 2061.04 -105.25 2167.77 -185.339 2070C-249.409 1991.78 -270.596 1913.22 -273.18 1883.72" stroke="#FFAD41" stroke-opacity="0.7" stroke-width="1.22286"/>
<path d="M1644.17 2722.08C1566.11 2751.11 1387.71 2780.01 1298.55 2663.36C1187.09 2517.54 1017.82 2497.75 917.328 2507.45C816.833 2517.14 603.346 2494.17 503.165 2338.07C402.985 2181.96 299.286 2101.63 127.878 2075.55C-43.5287 2049.47 -100.518 2156.19 -180.607 2058.42C-244.677 1980.21 -265.864 1901.65 -268.448 1872.15" stroke="#FFAD41" stroke-opacity="0.7" stroke-width="1.22286"/>
<path d="M1649.37 2709.35C1571.32 2738.38 1392.91 2767.28 1303.75 2650.63C1192.3 2504.81 1023.03 2485.03 922.534 2494.72C822.039 2504.42 608.552 2481.44 508.371 2325.34C408.191 2169.24 304.492 2088.9 133.084 2062.82C-38.3226 2036.74 -95.3119 2143.47 -175.4 2045.7C-239.471 1967.48 -260.658 1888.92 -263.242 1859.42" stroke="#FFAD41" stroke-opacity="0.7" stroke-width="1.22286"/>
<path d="M1655.05 2695.47C1577 2724.5 1398.59 2753.39 1309.43 2636.74C1197.98 2490.93 1028.71 2471.14 928.213 2480.83C827.718 2490.53 614.231 2467.56 514.05 2311.45C413.87 2155.35 310.171 2075.01 138.763 2048.93C-32.6436 2022.85 -89.6329 2129.58 -169.722 2031.81C-233.792 1953.59 -254.979 1875.04 -257.563 1845.54" stroke="#FFAD41" stroke-opacity="0.7" stroke-width="1.22286"/>
<path d="M1660.73 2681.58C1582.67 2710.61 1404.27 2739.51 1315.11 2622.86C1203.66 2477.04 1034.39 2457.25 933.891 2466.95C833.397 2476.64 619.909 2453.67 519.729 2297.57C419.548 2141.46 315.849 2061.13 144.442 2035.05C-26.9652 2008.97 -83.9545 2115.69 -164.043 2017.92C-228.114 1939.71 -249.3 1861.15 -251.884 1831.65" stroke="#FFAD41" stroke-opacity="0.7" stroke-width="1.22286"/>
<g filter="url(#filter0_f_10_5862)">
<ellipse cx="1008.41" cy="1984.6" rx="3.05714" ry="2.44571" transform="rotate(-157.757 1008.41 1984.6)" fill="#D9D9D9" fill-opacity="0.2"/>
</g>
<path d="M1632.39 4278.85C1596.14 4356.88 1490.48 4499.34 1357.74 4445.04C1191.83 4377.17 1062.79 4467.15 999.256 4541.1C935.72 4615.05 774.186 4730.44 609.786 4645.46C445.387 4560.48 324.749 4550.3 190.399 4635.63C56.0498 4720.97 81.7338 4859.81 -33.2175 4817.75C-125.179 4784.1 -187.712 4722.53 -207.484 4695.95" stroke="#FFAD41" stroke-width="1.05411"/>
<path d="M1627.47 4260.49C1591.23 4338.52 1485.56 4480.98 1352.83 4426.68C1186.91 4358.81 1057.87 4448.79 994.336 4522.74C930.8 4596.69 769.266 4712.08 604.867 4627.1C440.468 4542.12 319.829 4531.94 185.48 4617.27C51.1301 4702.61 76.8142 4841.45 -38.1371 4799.39C-130.098 4765.74 -192.632 4704.17 -212.403 4677.59" stroke="#FFAD41" stroke-width="1.05411"/>
<path d="M1642.85 4322.98C1606.61 4401 1500.94 4543.47 1368.21 4489.17C1202.3 4421.29 1073.26 4511.27 1009.72 4585.22C946.187 4659.17 784.653 4774.56 620.253 4689.58C455.854 4604.6 335.216 4594.42 200.866 4679.76C66.5169 4765.09 92.2009 4903.94 -22.7504 4861.87C-114.711 4828.22 -177.245 4766.65 -197.017 4740.07" stroke="#FFAD41" stroke-width="1.05411"/>
<path d="M1641.85 4314.16C1605.61 4392.18 1499.94 4534.65 1367.21 4480.35C1201.29 4412.48 1072.25 4502.46 1008.72 4576.41C945.181 4650.36 783.647 4765.75 619.247 4680.77C454.848 4595.79 334.209 4585.61 199.86 4670.94C65.5107 4756.28 91.1948 4895.12 -23.7565 4853.06C-115.718 4819.41 -178.251 4757.83 -198.023 4731.25" stroke="#FFAD41" stroke-width="1.05411"/>
<path d="M1639.58 4305.69C1603.34 4383.71 1497.67 4526.18 1364.94 4471.88C1199.02 4404 1069.98 4493.99 1006.45 4567.94C942.91 4641.89 781.376 4757.27 616.977 4672.29C452.577 4587.31 331.939 4577.13 197.59 4662.47C63.2401 4747.8 88.9242 4886.65 -26.0271 4844.59C-117.988 4810.94 -180.522 4749.36 -200.293 4722.78" stroke="#FFAD41" stroke-width="1.05411"/>
<path d="M1637.31 4297.22C1601.06 4375.24 1495.4 4517.71 1362.66 4463.4C1196.75 4395.53 1067.71 4485.51 1004.18 4559.46C940.64 4633.41 779.105 4748.8 614.706 4663.82C450.307 4578.84 329.668 4568.66 195.319 4653.99C60.9695 4739.33 86.6536 4878.18 -28.2977 4836.11C-120.259 4802.46 -182.792 4740.89 -202.564 4714.31" stroke="#FFAD41" stroke-width="1.05411"/>
<path d="M1635.04 4288.74C1598.79 4366.76 1493.13 4509.23 1360.39 4454.93C1194.48 4387.05 1065.44 4477.04 1001.9 4550.99C938.369 4624.94 776.835 4740.33 612.435 4655.34C448.036 4570.36 327.398 4560.18 193.048 4645.52C58.6989 4730.85 84.3829 4869.7 -30.5684 4827.64C-122.529 4793.99 -185.063 4732.41 -204.835 4705.83" stroke="#FFAD41" stroke-width="1.05411"/>
<path d="M1646.77 4332.52C1610.53 4410.55 1504.86 4553.01 1372.13 4498.71C1206.21 4430.84 1077.17 4520.82 1013.64 4594.77C950.1 4668.72 788.566 4784.11 624.167 4699.13C459.768 4614.15 339.129 4603.97 204.78 4689.3C70.4304 4774.64 96.1144 4913.48 -18.8369 4871.42C-110.798 4837.77 -173.332 4776.2 -193.103 4749.62" stroke="#FFAD41" stroke-width="1.05411"/>
<path d="M1630.5 4271.79C1594.25 4349.82 1488.58 4492.28 1355.85 4437.98C1189.94 4370.11 1060.9 4460.09 997.364 4534.04C933.828 4607.99 772.293 4723.38 607.894 4638.4C443.495 4553.42 322.856 4543.24 188.507 4628.57C54.1576 4713.91 79.8417 4852.75 -35.1096 4810.69C-127.071 4777.04 -189.604 4715.47 -209.376 4688.88" stroke="#FFAD41" stroke-width="1.05411"/>
<path d="M1625.2 4252.02C1588.95 4330.04 1483.29 4472.51 1350.55 4418.21C1184.64 4350.33 1055.6 4440.32 992.066 4514.27C928.53 4588.22 766.995 4703.6 602.596 4618.62C438.197 4533.64 317.558 4523.46 183.209 4608.8C48.8595 4694.13 74.5436 4832.98 -40.4077 4790.92C-132.369 4757.27 -194.902 4695.69 -214.674 4669.11" stroke="#FFAD41" stroke-width="1.05411"/>
<path d="M1622.55 4242.13C1586.31 4320.15 1480.64 4462.62 1347.91 4408.32C1181.99 4340.45 1052.95 4430.43 989.416 4504.38C925.88 4578.33 764.346 4693.72 599.947 4608.74C435.548 4523.76 314.909 4513.58 180.56 4598.91C46.2105 4684.25 71.8945 4823.09 -43.0568 4781.03C-135.018 4747.38 -197.551 4685.8 -217.323 4659.22" stroke="#FFAD41" stroke-width="1.05411"/>
<path d="M1616.87 4220.95C1580.63 4298.97 1474.96 4441.44 1342.23 4387.14C1176.31 4319.26 1047.28 4409.25 983.74 4483.2C920.204 4557.15 758.67 4672.53 594.271 4587.55C429.871 4502.57 309.233 4492.39 174.883 4577.73C40.5339 4663.06 66.218 4801.91 -48.7333 4759.85C-140.694 4726.2 -203.228 4664.62 -223 4638.04" stroke="#FFAD41" stroke-width="1.05411"/>
<path d="M1619.9 4232.25C1583.66 4310.27 1477.99 4452.74 1345.26 4398.44C1179.34 4330.56 1050.3 4420.54 986.767 4494.49C923.231 4568.44 761.697 4683.83 597.298 4598.85C432.899 4513.87 312.26 4503.69 177.911 4589.02C43.5614 4674.36 69.2455 4813.21 -45.7058 4771.14C-137.667 4737.49 -200.201 4675.92 -219.972 4649.34" stroke="#FFAD41" stroke-width="1.05411"/>
<path d="M1594.54 4137.62C1558.3 4215.64 1452.63 4358.11 1319.9 4303.81C1153.99 4235.93 1024.95 4325.92 961.412 4399.87C897.876 4473.82 736.342 4589.2 571.943 4504.22C407.544 4419.24 286.905 4409.06 152.556 4494.4C18.2062 4579.73 43.8903 4718.58 -71.061 4676.52C-163.022 4642.87 -225.556 4581.29 -245.327 4554.71" stroke="#FFAD41" stroke-width="1.05411"/>
<path d="M1613.09 4206.82C1576.84 4284.85 1471.18 4427.31 1338.44 4373.01C1172.53 4305.14 1043.49 4395.12 979.956 4469.07C916.42 4543.02 754.885 4658.41 590.486 4573.43C426.087 4488.45 305.448 4478.27 171.099 4563.6C36.7496 4648.94 62.4336 4787.78 -52.5177 4745.72C-144.479 4712.07 -207.012 4650.5 -226.784 4623.92" stroke="#FFAD41" stroke-width="1.05411"/>
<path d="M1610.06 4195.53C1573.82 4273.55 1468.15 4416.02 1335.42 4361.71C1169.5 4293.84 1040.46 4383.82 976.928 4457.77C913.392 4531.72 751.858 4647.11 587.459 4562.13C423.059 4477.15 302.421 4466.97 168.071 4552.3C33.7221 4637.64 59.4061 4776.49 -55.5452 4734.42C-147.506 4700.77 -210.04 4639.2 -229.812 4612.62" stroke="#FFAD41" stroke-width="1.05411"/>
<path d="M1607.03 4184.23C1570.79 4262.25 1465.12 4404.72 1332.39 4350.42C1166.47 4282.54 1037.44 4372.52 973.901 4446.47C910.365 4520.42 748.83 4635.81 584.431 4550.83C420.032 4465.85 299.393 4455.67 165.044 4541.01C30.6946 4626.34 56.3787 4765.19 -58.5726 4723.12C-150.534 4689.47 -213.067 4627.9 -232.839 4601.32" stroke="#FFAD41" stroke-width="1.05411"/>
<path d="M1603.63 4171.52C1567.38 4249.54 1461.72 4392.01 1328.98 4337.71C1163.07 4269.83 1034.03 4359.81 970.495 4433.76C906.959 4507.71 745.425 4623.1 581.025 4538.12C416.626 4453.14 295.987 4442.96 161.638 4528.29C27.2887 4613.63 52.9727 4752.48 -61.9786 4710.41C-153.94 4676.76 -216.473 4615.19 -236.245 4588.61" stroke="#FFAD41" stroke-width="1.05411"/>
<path d="M1600.6 4160.22C1564.36 4238.24 1458.69 4380.71 1325.96 4326.41C1160.04 4258.53 1031 4348.51 967.467 4422.46C903.931 4496.41 742.397 4611.8 577.998 4526.82C413.599 4441.84 292.96 4431.66 158.611 4517C24.2612 4602.33 49.9452 4741.18 -65.0061 4699.11C-156.967 4665.46 -219.501 4603.89 -239.272 4577.31" stroke="#FFAD41" stroke-width="1.05411"/>
<path d="M1597.57 4148.92C1561.33 4226.94 1455.66 4369.41 1322.93 4315.11C1157.01 4247.23 1027.98 4337.21 964.44 4411.16C900.904 4485.11 739.37 4600.5 574.97 4515.52C410.571 4430.54 289.933 4420.36 155.583 4505.7C21.2337 4591.03 46.9178 4729.88 -68.0335 4687.81C-159.995 4654.16 -222.528 4592.59 -242.3 4566.01" stroke="#FFAD41" stroke-width="1.05411"/>
<path d="M1591.14 4124.91C1554.9 4202.93 1449.23 4345.4 1316.5 4291.1C1150.58 4223.22 1021.54 4313.2 958.006 4387.15C894.47 4461.1 732.936 4576.49 568.537 4491.51C404.138 4406.53 283.499 4396.35 149.15 4481.69C14.8003 4567.02 40.4844 4705.87 -74.4669 4663.81C-166.428 4630.15 -228.962 4568.58 -248.733 4542" stroke="#FFAD41" stroke-width="1.05411"/>
<path d="M1554.14 3986.82C1517.89 4064.84 1412.23 4207.31 1279.49 4153.01C1113.58 4085.13 984.54 4175.11 921.004 4249.06C857.468 4323.01 695.934 4438.4 531.535 4353.42C367.136 4268.44 246.497 4258.26 112.148 4343.6C-22.2017 4428.93 3.48232 4567.78 -111.469 4525.71C-203.43 4492.06 -265.964 4430.49 -285.735 4403.91" stroke="#FFAD41" stroke-width="1.05411"/>
<path d="M1585.55 4104.04C1549.3 4182.06 1443.64 4324.53 1310.9 4270.23C1144.99 4202.35 1015.95 4292.34 952.414 4366.29C888.878 4440.24 727.344 4555.63 562.945 4470.65C398.546 4385.66 277.907 4375.49 143.558 4460.82C9.20845 4546.15 34.8925 4685 -80.0588 4642.94C-172.02 4609.29 -234.553 4547.71 -254.325 4521.13" stroke="#FFAD41" stroke-width="1.05411"/>
<path d="M1588.57 4115.34C1552.33 4193.36 1446.66 4335.83 1313.93 4281.53C1148.02 4213.65 1018.98 4303.64 955.442 4377.59C891.906 4451.54 730.372 4566.92 565.973 4481.94C401.573 4396.96 280.935 4386.78 146.585 4472.12C12.2359 4557.45 37.92 4696.3 -77.0313 4654.24C-168.992 4620.59 -231.526 4559.01 -251.298 4532.43" stroke="#FFAD41" stroke-width="1.05411"/>
<path d="M1581.38 4088.51C1545.14 4166.53 1439.47 4309 1306.74 4254.7C1140.83 4186.82 1011.79 4276.8 948.252 4350.75C884.716 4424.7 723.182 4540.09 558.782 4455.11C394.383 4370.13 273.744 4359.95 139.395 4445.28C5.04566 4530.62 30.7297 4669.47 -84.2216 4627.4C-176.183 4593.75 -238.716 4532.18 -258.488 4505.6" stroke="#FFAD41" stroke-width="1.05411"/>
<path d="M1577.6 4074.38C1541.36 4152.4 1435.69 4294.87 1302.96 4240.57C1137.04 4172.69 1008 4262.68 944.467 4336.63C880.931 4410.58 719.397 4525.97 554.998 4440.99C390.599 4356 269.96 4345.83 135.611 4431.16C1.26127 4516.49 26.9453 4655.34 -88.006 4613.28C-179.967 4579.63 -242.501 4518.05 -262.272 4491.47" stroke="#FFAD41" stroke-width="1.05411"/>
<path d="M1573.81 4060.26C1537.57 4138.28 1431.9 4280.75 1299.17 4226.45C1133.26 4158.57 1004.22 4248.55 940.683 4322.5C877.147 4396.45 715.613 4511.84 551.214 4426.86C386.814 4341.88 266.176 4331.7 131.826 4417.04C-2.52309 4502.37 23.161 4641.22 -91.7903 4599.15C-183.751 4565.5 -246.285 4503.93 -266.057 4477.35" stroke="#FFAD41" stroke-width="1.05411"/>
<path d="M1570.03 4046.13C1533.79 4124.16 1428.12 4266.63 1295.39 4212.32C1129.47 4144.45 1000.43 4234.43 936.899 4308.38C873.363 4382.33 711.828 4497.72 547.429 4412.74C383.03 4327.76 262.391 4317.58 128.042 4402.91C-6.30745 4488.25 19.3766 4627.1 -95.5747 4585.03C-187.536 4551.38 -250.069 4489.81 -269.841 4463.23" stroke="#FFAD41" stroke-width="1.05411"/>
<path d="M1565.87 4030.6C1529.62 4108.62 1423.96 4251.09 1291.22 4196.79C1125.31 4128.91 996.272 4218.9 932.736 4292.85C869.2 4366.8 707.666 4482.18 543.266 4397.2C378.867 4312.22 258.229 4302.04 123.879 4387.38C-10.4702 4472.71 15.2138 4611.56 -99.7375 4569.5C-191.699 4535.85 -254.232 4474.27 -274.004 4447.69" stroke="#FFAD41" stroke-width="1.05411"/>
<path d="M1561.33 4013.65C1525.08 4091.67 1419.42 4234.14 1286.68 4179.84C1120.77 4111.96 991.731 4201.95 928.195 4275.9C864.659 4349.85 703.124 4465.24 538.725 4380.25C374.326 4295.27 253.687 4285.09 119.338 4370.43C-15.0114 4455.76 10.6726 4594.61 -104.279 4552.55C-196.24 4518.9 -258.773 4457.32 -278.545 4430.74" stroke="#FFAD41" stroke-width="1.05411"/>
<path d="M1556.78 3996.7C1520.54 4074.73 1414.87 4217.19 1282.14 4162.89C1116.23 4095.02 987.189 4185 923.653 4258.95C860.117 4332.9 698.583 4448.29 534.184 4363.31C369.785 4278.33 249.146 4268.15 114.797 4353.48C-19.5527 4438.82 6.13137 4577.66 -108.82 4535.6C-200.781 4501.95 -263.315 4440.38 -283.086 4413.79" stroke="#FFAD41" stroke-width="1.05411"/>
<g filter="url(#filter1_f_10_5862)">
<ellipse cx="780.036" cy="3987.47" rx="2.63528" ry="2.10822" transform="rotate(165 780.036 3987.47)" fill="#D9D9D9" fill-opacity="0.2"/>
</g>
<g clip-path="url(#clip1_10_5862)">
<path fill-rule="evenodd" clip-rule="evenodd" d="M504.436 749.436C429.913 781.477 367.855 826.779 332.345 860.218C261.187 927.227 119.49 1017.03 -54.0364 991.183C-123.19 980.884 -187.516 1007.23 -239.861 1044.41C-292.207 1081.59 -332.519 1129.56 -353.616 1162.38L-354.452 1161.84C-333.295 1128.92 -292.897 1080.85 -240.432 1043.59C-187.967 1006.33 -123.382 979.84 -53.8825 990.191C119.223 1015.97 260.626 926.387 331.667 859.489C367.256 825.975 429.411 780.605 504.05 748.514C578.688 716.423 665.856 697.591 751.441 717.224C836.852 736.818 911.483 743.771 983.111 734.973C1054.74 726.175 1123.38 701.624 1196.82 658.173C1260.82 620.306 1292.97 579.475 1318.87 546.569C1322.67 541.738 1326.34 537.078 1329.96 532.623C1344.08 515.226 1357.41 500.923 1374.78 491.866C1392.16 482.803 1413.53 479.02 1443.67 482.545C1540.01 493.81 1603.73 531.245 1623.59 548.61L1622.93 549.37C1603.24 532.149 1539.71 494.785 1443.55 483.542C1413.54 480.033 1392.39 483.808 1375.23 492.756C1358.06 501.711 1344.83 515.872 1330.73 533.253C1327.12 537.7 1323.46 542.355 1319.66 547.183C1293.75 580.097 1261.49 621.07 1197.32 659.036C1123.78 702.547 1055.01 727.152 983.224 735.969C911.446 744.785 836.694 737.812 751.211 718.202C665.902 698.632 578.959 717.394 504.436 749.436Z" fill="#FFAD41"/>
<path fill-rule="evenodd" clip-rule="evenodd" d="M508.801 762.77C434.278 794.811 372.221 840.113 336.71 873.552C265.552 940.561 123.855 1030.36 -49.671 1004.52C-118.824 994.218 -183.15 1020.57 -235.496 1057.74C-287.841 1094.92 -328.154 1142.89 -349.25 1175.72L-350.086 1175.18C-328.93 1142.26 -288.532 1094.19 -236.066 1056.93C-183.601 1019.66 -119.016 993.174 -49.517 1003.53C123.589 1029.31 264.991 939.721 336.032 872.823C371.621 839.309 433.777 793.939 508.416 761.848C583.054 729.757 670.221 710.925 755.806 730.558C841.218 750.152 915.849 757.105 987.477 748.307C1059.1 739.509 1127.75 714.958 1201.19 671.507C1265.19 633.64 1297.33 592.809 1323.24 559.903C1327.04 555.072 1330.71 550.412 1334.32 545.957C1348.44 528.56 1361.77 514.257 1379.14 505.2C1396.52 496.137 1417.89 492.354 1448.04 495.879C1544.38 507.144 1608.09 544.579 1627.96 561.944L1627.3 562.704C1607.6 545.483 1544.08 508.119 1447.92 496.876C1417.91 493.367 1396.75 497.142 1379.59 506.09C1362.42 515.045 1349.2 529.206 1335.09 546.587C1331.49 551.034 1327.82 555.689 1324.02 560.517C1298.11 593.431 1265.86 634.404 1201.69 672.37C1128.15 715.881 1059.37 740.486 987.589 749.303C915.812 758.119 841.059 751.146 755.577 731.536C670.268 711.966 583.325 730.728 508.801 762.77Z" fill="#FFAD41"/>
<path fill-rule="evenodd" clip-rule="evenodd" d="M495.387 717.178C420.864 749.219 358.806 794.521 323.296 827.961C252.138 894.969 110.441 984.769 -63.085 958.926C-132.238 948.627 -196.564 974.976 -248.91 1012.15C-301.255 1049.33 -341.568 1097.3 -362.664 1130.12L-363.5 1129.58C-342.344 1096.67 -301.946 1048.6 -249.48 1011.33C-197.015 974.073 -132.431 947.583 -62.931 957.933C110.174 983.714 251.577 894.129 322.618 827.231C358.207 793.717 420.363 748.347 495.002 716.256C569.64 684.165 656.807 665.333 742.392 684.966C827.803 704.56 902.435 711.513 974.063 702.715C1045.69 693.918 1114.34 669.367 1187.78 625.915C1251.78 588.049 1283.92 547.217 1309.82 514.312C1313.63 509.48 1317.29 504.82 1320.91 500.365C1335.03 482.968 1348.36 468.665 1365.73 459.608C1383.11 450.545 1404.48 446.762 1434.63 450.287C1530.96 461.552 1594.68 498.987 1614.54 516.352L1613.88 517.112C1594.19 499.891 1530.67 462.528 1434.5 451.284C1404.49 447.775 1383.34 451.551 1366.18 460.498C1349.01 469.453 1335.79 483.614 1321.68 500.995C1318.07 505.442 1314.41 510.097 1310.61 514.925C1284.7 547.839 1252.45 588.812 1188.28 626.779C1114.74 670.289 1045.96 694.894 974.175 703.711C902.398 712.528 827.645 705.554 742.163 685.945C656.854 666.375 569.911 685.136 495.387 717.178Z" fill="#FFAD41"/>
<path fill-rule="evenodd" clip-rule="evenodd" d="M496.04 723.794C421.517 755.835 359.46 801.137 323.949 834.577C252.791 901.586 111.095 991.385 -62.4318 965.542C-131.585 955.243 -195.911 981.592 -248.257 1018.77C-300.602 1055.95 -340.915 1103.91 -362.011 1136.74L-362.847 1136.2C-341.691 1103.28 -301.293 1055.21 -248.827 1017.95C-196.362 980.689 -131.777 954.199 -62.2778 964.549C110.828 990.33 252.23 900.746 323.271 833.847C358.86 800.333 421.016 754.963 495.655 722.872C570.293 690.781 657.46 671.949 743.045 691.583C828.457 711.176 903.088 718.13 974.716 709.332C1046.34 700.534 1114.99 675.983 1188.43 632.531C1252.43 594.665 1284.57 553.833 1310.48 520.928C1314.28 516.096 1317.95 511.436 1321.56 506.981C1335.68 489.584 1349.01 475.281 1366.38 466.225C1383.76 457.161 1405.13 453.378 1435.28 456.904C1531.62 468.168 1595.33 505.603 1615.2 522.968L1614.54 523.728C1594.84 506.507 1531.32 469.144 1435.16 457.9C1405.15 454.391 1383.99 458.167 1366.83 467.114C1349.66 476.069 1336.44 490.23 1322.33 507.612C1318.73 512.058 1315.06 516.713 1311.26 521.541C1285.35 554.456 1253.1 595.428 1188.93 633.395C1115.39 676.905 1046.61 701.51 974.828 710.327C903.051 719.144 828.298 712.171 742.816 692.561C657.507 672.991 570.564 691.752 496.04 723.794Z" fill="#FFAD41"/>
<path fill-rule="evenodd" clip-rule="evenodd" d="M498.055 729.948C423.532 761.99 361.475 807.291 325.964 840.731C254.806 907.74 113.11 997.54 -60.4168 971.696C-129.57 961.397 -193.896 987.746 -246.242 1024.92C-298.587 1062.1 -338.9 1110.07 -359.996 1142.9L-360.832 1142.36C-339.676 1109.44 -299.278 1061.37 -246.812 1024.11C-194.347 986.844 -129.762 960.353 -60.2628 970.704C112.843 996.485 254.245 906.9 325.286 840.001C360.875 806.488 423.031 761.118 497.67 729.026C572.308 696.936 659.475 678.104 745.06 697.737C830.472 717.33 905.103 724.284 976.731 715.486C1048.35 706.688 1117 682.137 1190.44 638.685C1254.44 600.819 1286.59 559.987 1312.49 527.082C1316.29 522.251 1319.96 517.59 1323.58 513.135C1337.7 495.738 1351.03 481.435 1368.4 472.379C1385.78 463.315 1407.14 459.533 1437.29 463.058C1533.63 474.322 1597.35 511.757 1617.21 529.123L1616.55 529.882C1596.86 512.662 1533.33 475.298 1437.17 464.054C1407.16 460.546 1386.01 464.321 1368.85 473.269C1351.68 482.223 1338.45 496.384 1324.35 513.766C1320.74 518.212 1317.08 522.867 1313.28 527.696C1287.37 560.61 1255.11 601.582 1190.94 639.549C1117.4 683.06 1048.62 707.665 976.843 716.482C905.066 725.298 830.313 718.325 744.831 698.715C659.522 679.145 572.579 697.907 498.055 729.948Z" fill="#FFAD41"/>
<path fill-rule="evenodd" clip-rule="evenodd" d="M500.07 736.102C425.547 768.143 363.49 813.445 327.979 846.884C256.821 913.893 115.124 1003.69 -58.4019 977.849C-127.555 967.55 -191.881 993.9 -244.227 1031.08C-296.572 1068.25 -336.885 1116.22 -357.981 1149.05L-358.817 1148.51C-337.661 1115.59 -297.263 1067.52 -244.797 1030.26C-192.332 992.997 -127.747 966.506 -58.2479 976.857C114.858 1002.64 256.26 913.053 327.301 846.155C362.89 812.641 425.046 767.271 499.685 735.18C574.323 703.089 661.49 684.257 747.075 703.89C832.487 723.484 907.118 730.437 978.746 721.639C1050.37 712.841 1119.02 688.29 1192.46 644.839C1256.46 606.972 1288.6 566.141 1314.51 533.235C1318.31 528.404 1321.98 523.744 1325.59 519.289C1339.71 501.892 1353.04 487.589 1370.41 478.532C1387.79 469.469 1409.16 465.686 1439.31 469.211C1535.65 480.476 1599.36 517.911 1619.23 535.276L1618.57 536.036C1598.87 518.815 1535.35 481.451 1439.19 470.208C1409.18 466.699 1388.02 470.474 1370.86 479.422C1353.69 488.377 1340.47 502.538 1326.36 519.919C1322.75 524.366 1319.09 529.021 1315.29 533.849C1289.38 566.763 1257.13 607.736 1192.96 645.702C1119.42 689.213 1050.64 713.818 978.858 722.635C907.081 731.451 832.328 724.478 746.846 704.868C661.537 685.298 574.594 704.06 500.07 736.102Z" fill="#FFAD41"/>
<path fill-rule="evenodd" clip-rule="evenodd" d="M502.085 742.256C427.562 774.297 365.504 819.599 329.994 853.039C258.836 920.048 117.139 1009.85 -56.3872 984.004C-125.54 973.705 -189.866 1000.05 -242.212 1037.23C-294.557 1074.41 -334.87 1122.38 -355.967 1155.2L-356.802 1154.66C-335.646 1121.74 -295.248 1073.67 -242.782 1036.41C-190.317 999.151 -125.733 972.661 -56.2332 983.011C116.872 1008.79 258.275 919.208 329.316 852.309C364.905 818.795 427.06 773.425 501.7 741.334C576.337 709.243 663.505 690.411 749.09 710.045C834.501 729.638 909.133 736.592 980.76 727.793C1052.38 718.996 1121.03 694.445 1194.47 650.993C1258.47 613.127 1290.62 572.295 1316.52 539.39C1320.32 534.558 1323.99 529.898 1327.61 525.443C1341.73 508.046 1355.06 493.743 1372.43 484.686C1389.81 475.623 1411.17 471.84 1441.32 475.366C1537.66 486.63 1601.38 524.065 1621.24 541.43L1620.58 542.19C1600.89 524.969 1537.36 487.606 1441.2 476.362C1411.19 472.853 1390.04 476.629 1372.88 485.576C1355.71 494.531 1342.48 508.692 1328.38 526.073C1324.77 530.52 1321.11 535.175 1317.3 540.003C1291.4 572.917 1259.14 613.89 1194.97 651.857C1121.43 695.367 1052.65 719.972 980.873 728.789C909.095 737.606 834.343 730.632 748.861 711.023C663.552 691.453 576.609 710.214 502.085 742.256Z" fill="#FFAD41"/>
<path fill-rule="evenodd" clip-rule="evenodd" d="M491.675 710.46C417.152 742.501 355.094 787.803 319.584 821.243C248.426 888.252 106.729 978.051 -66.7972 952.208C-135.95 941.909 -200.276 968.258 -252.622 1005.43C-304.967 1042.61 -345.28 1090.58 -366.377 1123.41L-367.212 1122.87C-346.056 1089.95 -305.658 1041.88 -253.192 1004.62C-200.727 967.355 -136.143 940.865 -66.6432 951.215C106.462 976.996 247.865 887.412 318.906 820.513C354.495 786.999 416.65 741.629 491.29 709.538C565.927 677.447 653.095 658.615 738.68 678.249C824.091 697.842 898.722 704.796 970.35 695.998C1041.97 687.2 1110.62 662.649 1184.06 619.197C1248.06 581.331 1280.21 540.499 1306.11 507.594C1309.91 502.762 1313.58 498.102 1317.2 493.647C1331.32 476.25 1344.65 461.947 1362.02 452.891C1379.4 443.827 1400.76 440.044 1430.91 443.57C1527.25 454.834 1590.97 492.269 1610.83 509.634L1610.17 510.394C1590.48 493.173 1526.95 455.81 1430.79 444.566C1400.78 441.057 1379.63 444.833 1362.47 453.78C1345.3 462.735 1332.07 476.896 1317.97 494.278C1314.36 498.724 1310.7 503.379 1306.89 508.207C1280.99 541.122 1248.73 582.094 1184.56 620.061C1111.02 663.571 1042.24 688.176 970.463 696.993C898.685 705.81 823.933 698.837 738.451 679.227C653.142 659.657 566.199 678.418 491.675 710.46Z" fill="#FFAD41"/>
<path fill-rule="evenodd" clip-rule="evenodd" d="M506.114 754.564C431.592 786.606 369.534 831.908 334.024 865.347C262.866 932.356 121.169 1022.16 -52.3575 996.312C-121.511 986.013 -185.837 1012.36 -238.182 1049.54C-290.528 1086.72 -330.84 1134.68 -351.937 1167.51L-352.773 1166.97C-331.617 1134.05 -291.218 1085.98 -238.753 1048.72C-186.288 1011.46 -121.703 984.969 -52.2035 995.32C120.902 1021.1 262.305 931.516 333.346 864.618C368.935 831.104 431.09 785.734 505.729 753.643C580.367 721.552 667.535 702.72 753.119 722.353C838.531 741.947 913.162 748.9 984.79 740.102C1056.41 731.304 1125.06 706.753 1198.5 663.302C1262.5 625.435 1294.65 584.604 1320.55 551.698C1324.35 546.867 1328.02 542.207 1331.64 537.751C1345.76 520.354 1359.09 506.051 1376.46 496.995C1393.84 487.932 1415.2 484.149 1445.35 487.674C1541.69 498.938 1605.41 536.373 1625.27 553.739L1624.61 554.498C1604.92 537.278 1541.39 499.914 1445.23 488.671C1415.22 485.162 1394.07 488.937 1376.91 497.885C1359.74 506.839 1346.51 521.001 1332.41 538.382C1328.8 542.829 1325.14 547.483 1321.33 552.312C1295.43 585.226 1263.17 626.198 1199 664.165C1125.46 707.676 1056.68 732.281 984.903 741.098C913.125 749.914 838.373 742.941 752.89 723.331C667.581 703.761 580.638 722.523 506.114 754.564Z" fill="#FFAD41"/>
<path fill-rule="evenodd" clip-rule="evenodd" d="M510.816 768.924C436.293 800.965 374.235 846.267 338.725 879.707C267.567 946.716 125.87 1036.52 -47.6561 1010.67C-116.809 1000.37 -181.135 1026.72 -233.481 1063.9C-285.826 1101.08 -326.139 1149.04 -347.235 1181.87L-348.071 1181.33C-326.915 1148.41 -286.517 1100.34 -234.051 1063.08C-181.586 1025.82 -117.002 999.329 -47.5021 1009.68C125.603 1035.46 267.006 945.876 338.047 878.977C373.636 845.463 435.792 800.093 510.431 768.002C585.069 735.911 672.236 717.079 757.821 736.713C843.232 756.306 917.864 763.259 989.491 754.461C1061.12 745.664 1129.76 721.113 1203.2 677.661C1267.21 639.795 1299.35 598.963 1325.25 566.058C1329.06 561.226 1332.72 556.566 1336.34 552.111C1350.46 534.714 1363.79 520.411 1381.16 511.354C1398.54 502.291 1419.91 498.508 1450.05 502.034C1546.39 513.298 1610.11 550.733 1629.97 568.098L1629.31 568.858C1609.62 551.637 1546.09 514.274 1449.93 503.03C1419.92 499.521 1398.77 503.297 1381.61 512.244C1364.44 521.199 1351.21 535.36 1337.11 552.741C1333.5 557.188 1329.84 561.843 1326.04 566.671C1300.13 599.585 1267.88 640.558 1203.7 678.525C1130.16 722.035 1061.39 746.64 989.604 755.457C917.826 764.274 843.074 757.3 757.592 737.691C672.283 718.121 585.34 736.882 510.816 768.924Z" fill="#FFAD41"/>
<path fill-rule="evenodd" clip-rule="evenodd" d="M513.167 776.104C438.644 808.145 376.586 853.447 341.076 886.886C269.918 953.895 128.221 1043.69 -45.3054 1017.85C-114.459 1007.55 -178.785 1033.9 -231.13 1071.08C-283.476 1108.26 -323.788 1156.22 -344.885 1189.05L-345.721 1188.51C-324.564 1155.59 -284.166 1107.52 -231.701 1070.26C-179.236 1033 -114.651 1006.51 -45.1514 1016.86C127.954 1042.64 269.357 953.055 340.398 886.157C375.987 852.643 438.142 807.273 512.781 775.182C587.419 743.091 674.587 724.259 760.172 743.892C845.583 763.486 920.214 770.439 991.842 761.641C1063.47 752.843 1132.11 728.292 1205.56 684.841C1269.56 646.974 1301.7 606.143 1327.6 573.237C1331.41 568.406 1335.07 563.746 1338.69 559.29C1352.81 541.894 1366.14 527.591 1383.51 518.534C1400.89 509.471 1422.26 505.688 1452.41 509.213C1548.74 520.478 1612.46 557.912 1632.32 575.278L1631.66 576.037C1611.97 558.817 1548.45 521.453 1452.28 510.21C1422.27 506.701 1401.12 510.476 1383.96 519.424C1366.79 528.379 1353.56 542.54 1339.46 559.921C1335.85 564.368 1332.19 569.023 1328.39 573.851C1302.48 606.765 1270.23 647.737 1206.06 685.704C1132.52 729.215 1063.74 753.82 991.955 762.637C920.177 771.453 845.425 764.48 759.942 744.87C674.634 725.3 587.69 744.062 513.167 776.104Z" fill="#FFAD41"/>
<path fill-rule="evenodd" clip-rule="evenodd" d="M518.204 791.488C443.681 823.53 381.623 868.831 346.113 902.271C274.955 969.28 133.258 1059.08 -40.2683 1033.24C-109.422 1022.94 -173.747 1049.29 -226.093 1086.46C-278.439 1123.64 -318.751 1171.61 -339.848 1204.44L-340.683 1203.9C-319.527 1170.98 -279.129 1122.91 -226.664 1085.65C-174.199 1048.38 -109.614 1021.89 -40.1143 1032.24C132.991 1058.02 274.394 968.44 345.435 901.541C381.024 868.028 443.179 822.658 517.818 790.566C592.456 758.476 679.624 739.644 765.209 759.277C850.62 778.87 925.251 785.824 996.879 777.026C1068.5 768.228 1137.15 743.677 1210.59 700.225C1274.59 662.359 1306.74 621.528 1332.64 588.622C1336.44 583.791 1340.11 579.13 1343.73 574.675C1357.84 557.278 1371.18 542.975 1388.54 533.919C1405.93 524.855 1427.29 521.073 1457.44 524.598C1553.78 535.862 1617.5 573.297 1637.36 590.663L1636.7 591.422C1617.01 574.202 1553.48 536.838 1457.32 525.594C1427.31 522.086 1406.16 525.861 1389 534.809C1371.83 543.763 1358.6 557.924 1344.5 575.306C1340.89 579.752 1337.22 584.407 1333.42 589.236C1307.52 622.15 1275.26 663.122 1211.09 701.089C1137.55 744.6 1068.77 769.205 996.992 778.022C925.214 786.838 850.462 779.865 764.98 760.255C679.671 740.685 592.728 759.447 518.204 791.488Z" fill="#FFAD41"/>
<path fill-rule="evenodd" clip-rule="evenodd" d="M515.517 783.283C440.995 815.324 378.937 860.626 343.426 894.066C272.269 961.075 130.572 1050.87 -42.9547 1025.03C-112.108 1014.73 -176.434 1041.08 -228.78 1078.26C-281.125 1115.43 -321.437 1163.4 -342.534 1196.23L-343.37 1195.69C-322.214 1162.77 -281.815 1114.7 -229.35 1077.44C-176.885 1040.18 -112.3 1013.69 -42.8007 1024.04C130.305 1049.82 271.708 960.235 342.749 893.336C378.338 859.822 440.493 814.453 515.132 782.361C589.77 750.271 676.937 731.439 762.522 751.072C847.934 770.665 922.565 777.619 994.193 768.821C1065.82 760.023 1134.47 735.472 1207.91 692.02C1271.91 654.154 1304.05 613.322 1329.95 580.417C1333.76 575.586 1337.43 570.925 1341.04 566.47C1355.16 549.073 1368.49 534.77 1385.86 525.714C1403.24 516.65 1424.61 512.868 1454.76 516.393C1551.1 527.657 1614.81 565.092 1634.67 582.458L1634.02 583.217C1614.32 565.997 1550.8 528.633 1454.63 517.389C1424.62 513.881 1403.47 517.656 1386.31 526.604C1369.14 535.558 1355.92 549.719 1341.81 567.101C1338.2 571.547 1334.54 576.202 1330.74 581.031C1304.83 613.945 1272.58 654.917 1208.41 692.884C1134.87 736.395 1066.09 761 994.306 769.817C922.528 778.633 847.775 771.66 762.293 752.05C676.984 732.48 590.041 751.241 515.517 783.283Z" fill="#FFAD41"/>
<path fill-rule="evenodd" clip-rule="evenodd" d="M538.017 852.004C463.494 884.045 401.436 929.347 365.926 962.787C294.768 1029.8 153.071 1119.6 -20.4554 1093.75C-89.6086 1083.45 -153.935 1109.8 -206.28 1146.98C-258.626 1184.16 -298.938 1232.12 -320.035 1264.95L-320.871 1264.41C-299.714 1231.49 -259.316 1183.42 -206.851 1146.16C-154.386 1108.9 -89.8009 1082.41 -20.3014 1092.76C152.804 1118.54 294.207 1028.96 365.248 962.057C400.837 928.543 462.992 883.173 537.631 851.082C612.269 818.991 699.437 800.159 785.022 819.793C870.433 839.386 945.064 846.34 1016.69 837.541C1088.32 828.744 1156.96 804.193 1230.41 760.741C1294.41 722.875 1326.55 682.043 1352.45 649.138C1356.26 644.306 1359.92 639.646 1363.54 635.191C1377.66 617.794 1390.99 603.491 1408.36 594.434C1425.74 585.371 1447.11 581.588 1477.26 585.114C1573.59 596.378 1637.31 633.813 1657.17 651.178L1656.51 651.938C1636.82 634.717 1573.3 597.354 1477.13 586.11C1447.12 582.601 1425.97 586.377 1408.81 595.324C1391.64 604.279 1378.41 618.44 1364.31 635.821C1360.7 640.268 1357.04 644.923 1353.24 649.751C1327.33 682.666 1295.08 723.638 1230.91 761.605C1157.37 805.115 1088.59 829.72 1016.8 838.537C945.027 847.354 870.275 840.38 784.792 820.771C699.483 801.201 612.54 819.962 538.017 852.004Z" fill="#FFAD41"/>
<path fill-rule="evenodd" clip-rule="evenodd" d="M521.562 801.746C447.039 833.787 384.981 879.089 349.471 912.529C278.313 979.538 136.616 1069.34 -36.9102 1043.49C-106.063 1033.19 -170.389 1059.54 -222.735 1096.72C-275.081 1133.9 -315.393 1181.87 -336.49 1214.69L-337.325 1214.15C-316.169 1181.23 -275.771 1133.17 -223.305 1095.9C-170.84 1058.64 -106.256 1032.15 -36.7562 1042.5C136.349 1068.28 277.752 978.698 348.793 911.799C384.382 878.285 446.537 832.915 521.177 800.824C595.814 768.733 682.982 749.902 768.567 769.535C853.978 789.128 928.609 796.082 1000.24 787.284C1071.86 778.486 1140.51 753.935 1213.95 710.483C1277.95 672.617 1310.09 631.785 1336 598.88C1339.8 594.049 1343.47 589.388 1347.09 584.933C1361.2 567.536 1374.54 553.233 1391.9 544.177C1409.28 535.113 1430.65 531.331 1460.8 534.856C1557.14 546.12 1620.86 583.555 1640.72 600.921L1640.06 601.68C1620.36 584.46 1556.84 547.096 1460.68 535.852C1430.67 532.344 1409.51 536.119 1392.36 545.067C1375.18 554.021 1361.96 568.182 1347.86 585.564C1344.25 590.01 1340.58 594.665 1336.78 599.493C1310.87 632.408 1278.62 673.38 1214.45 711.347C1140.91 754.857 1072.13 779.462 1000.35 788.279C928.572 797.096 853.82 790.123 768.338 770.513C683.029 750.943 596.086 769.704 521.562 801.746Z" fill="#FFAD41"/>
<path fill-rule="evenodd" clip-rule="evenodd" d="M524.248 809.951C449.725 841.992 387.668 887.294 352.157 920.734C280.999 987.743 139.303 1077.54 -34.2238 1051.7C-103.377 1041.4 -167.703 1067.75 -220.049 1104.93C-272.394 1142.1 -312.707 1190.07 -333.803 1222.9L-334.639 1222.36C-313.483 1189.44 -273.085 1141.37 -220.619 1104.11C-168.154 1066.85 -103.569 1040.36 -34.0698 1050.71C139.036 1076.49 280.438 986.903 351.479 920.004C387.068 886.49 449.224 841.121 523.863 809.029C598.501 776.939 685.668 758.107 771.253 777.74C856.665 797.333 931.296 804.287 1002.92 795.489C1074.55 786.691 1143.2 762.14 1216.64 718.688C1280.64 680.822 1312.78 639.99 1338.68 607.085C1342.49 602.254 1346.16 597.593 1349.77 593.138C1363.89 575.741 1377.22 561.438 1394.59 552.382C1411.97 543.318 1433.34 539.536 1463.49 543.061C1559.83 554.325 1623.54 591.76 1643.4 609.126L1642.75 609.885C1623.05 592.665 1559.53 555.301 1463.36 544.057C1433.36 540.549 1412.2 544.324 1395.04 553.272C1377.87 562.226 1364.65 576.387 1350.54 593.769C1346.93 598.215 1343.27 602.87 1339.47 607.699C1313.56 640.613 1281.31 681.585 1217.14 719.552C1143.6 763.063 1074.82 787.668 1003.04 796.484C931.259 805.301 856.506 798.328 771.024 778.718C685.715 759.148 598.772 777.909 524.248 809.951Z" fill="#FFAD41"/>
<path fill-rule="evenodd" clip-rule="evenodd" d="M526.935 818.156C452.412 850.198 390.354 895.499 354.844 928.939C283.686 995.948 141.989 1085.75 -31.5371 1059.9C-100.69 1049.61 -165.016 1075.95 -217.362 1113.13C-269.707 1150.31 -310.02 1198.28 -331.116 1231.1L-331.952 1230.56C-310.796 1197.64 -270.398 1149.58 -217.932 1112.31C-165.467 1075.05 -100.883 1048.56 -31.3831 1058.91C141.722 1084.69 283.125 995.108 354.166 928.209C389.755 894.696 451.911 849.326 526.55 817.234C601.188 785.144 688.355 766.312 773.94 785.945C859.351 805.538 933.983 812.492 1005.61 803.694C1077.23 794.896 1145.88 770.345 1219.32 726.893C1283.32 689.027 1315.47 648.195 1341.37 615.29C1345.17 610.459 1348.84 605.798 1352.46 601.343C1366.58 583.946 1379.91 569.643 1397.28 560.587C1414.66 551.523 1436.02 547.741 1466.17 551.266C1562.51 562.53 1626.23 599.965 1646.09 617.331L1645.43 618.09C1625.74 600.87 1562.21 563.506 1466.05 552.262C1436.04 548.754 1414.89 552.529 1397.73 561.477C1380.56 570.431 1367.33 584.592 1353.23 601.974C1349.62 606.42 1345.96 611.075 1342.16 615.904C1316.25 648.818 1283.99 689.79 1219.82 727.757C1146.28 771.268 1077.5 795.873 1005.72 804.69C933.946 813.506 859.193 806.533 773.711 786.923C688.402 767.353 601.459 786.115 526.935 818.156Z" fill="#FFAD41"/>
<path fill-rule="evenodd" clip-rule="evenodd" d="M529.957 827.388C455.434 859.429 393.377 904.731 357.866 938.171C286.708 1005.18 145.012 1094.98 -28.5148 1069.14C-97.6681 1058.84 -161.994 1085.19 -214.34 1122.36C-266.685 1159.54 -306.998 1207.51 -328.094 1240.33L-328.93 1239.79C-307.774 1206.88 -267.376 1158.81 -214.91 1121.54C-162.445 1084.28 -97.8603 1057.79 -28.3608 1068.14C144.745 1093.92 286.147 1004.34 357.188 937.441C392.777 903.927 454.933 858.557 529.572 826.466C604.21 794.375 691.377 775.543 776.962 795.176C862.374 814.77 937.005 821.723 1008.63 812.925C1080.26 804.128 1148.91 779.577 1222.35 736.125C1286.35 698.259 1318.49 657.427 1344.39 624.521C1348.2 619.69 1351.87 615.03 1355.48 610.575C1369.6 593.178 1382.93 578.875 1400.3 569.818C1417.68 560.755 1439.05 556.972 1469.2 560.497C1565.53 571.762 1629.25 609.197 1649.11 626.562L1648.46 627.322C1628.76 610.101 1565.24 572.738 1469.07 561.494C1439.06 557.985 1417.91 561.761 1400.75 570.708C1383.58 579.663 1370.36 593.824 1356.25 611.205C1352.64 615.652 1348.98 620.307 1345.18 625.135C1319.27 658.049 1287.02 699.022 1222.85 736.989C1149.31 780.499 1080.53 805.104 1008.75 813.921C936.968 822.737 862.215 815.764 776.733 796.155C691.424 776.585 604.481 795.346 529.957 827.388Z" fill="#FFAD41"/>
<path fill-rule="evenodd" clip-rule="evenodd" d="M532.644 835.594C458.121 867.635 396.063 912.937 360.553 946.377C289.395 1013.39 147.698 1103.19 -25.8283 1077.34C-94.9816 1067.04 -159.308 1093.39 -211.653 1130.57C-263.999 1167.75 -304.311 1215.71 -325.408 1248.54L-326.243 1248C-305.087 1215.08 -264.689 1167.01 -212.224 1129.75C-159.759 1092.49 -95.1738 1066 -25.6743 1076.35C147.431 1102.13 288.834 1012.55 359.875 945.647C395.464 912.133 457.619 866.763 532.258 834.672C606.896 802.581 694.064 783.749 779.649 803.382C865.06 822.976 939.691 829.929 1011.32 821.131C1082.94 812.334 1151.59 787.783 1225.03 744.331C1289.03 706.465 1321.18 665.633 1347.08 632.728C1350.88 627.896 1354.55 623.236 1358.17 618.781C1372.28 601.384 1385.62 587.081 1402.98 578.024C1420.37 568.961 1441.73 565.178 1471.88 568.703C1568.22 579.968 1631.94 617.403 1651.8 634.768L1651.14 635.528C1631.45 618.307 1567.92 580.944 1471.76 569.7C1441.75 566.191 1420.6 569.967 1403.44 578.914C1386.27 587.869 1373.04 602.03 1358.94 619.411C1355.33 623.858 1351.66 628.513 1347.86 633.341C1321.95 666.255 1289.7 707.228 1225.53 745.195C1151.99 788.705 1083.21 813.31 1011.43 822.127C939.654 830.944 864.902 823.97 779.419 804.361C694.111 784.791 607.168 803.552 532.644 835.594Z" fill="#FFAD41"/>
<path fill-rule="evenodd" clip-rule="evenodd" d="M535.33 843.799C460.807 875.84 398.75 921.142 363.239 954.582C292.081 1021.59 150.384 1111.39 -23.1419 1085.55C-92.2952 1075.25 -156.621 1101.6 -208.967 1138.77C-261.312 1175.95 -301.625 1223.92 -322.721 1256.75L-323.557 1256.21C-302.401 1223.29 -262.003 1175.22 -209.537 1137.96C-157.072 1100.69 -92.4874 1074.2 -22.9879 1084.55C150.118 1110.34 291.52 1020.75 362.561 953.852C398.15 920.338 460.306 874.968 534.945 842.877C609.583 810.786 696.75 791.954 782.335 811.587C867.747 831.181 942.378 838.134 1014.01 829.336C1085.63 820.539 1154.28 795.988 1227.72 752.536C1291.72 714.67 1323.86 673.838 1349.77 640.932C1353.57 636.101 1357.24 631.441 1360.85 626.986C1374.97 609.589 1388.3 595.286 1405.67 586.229C1423.05 577.166 1444.42 573.383 1474.57 576.908C1570.91 588.173 1634.62 625.608 1654.49 642.973L1653.83 643.733C1634.13 626.512 1570.61 589.149 1474.45 577.905C1444.44 574.396 1423.28 578.172 1406.12 587.119C1388.95 596.074 1375.73 610.235 1361.62 627.616C1358.02 632.063 1354.35 636.718 1350.55 641.546C1324.64 674.46 1292.39 715.433 1228.22 753.4C1154.68 796.91 1085.9 821.515 1014.12 830.332C942.341 839.149 867.588 832.175 782.106 812.566C696.797 792.996 609.854 811.757 535.33 843.799Z" fill="#FFAD41"/>
<path fill-rule="evenodd" clip-rule="evenodd" d="M541.039 861.235C466.516 893.277 404.458 938.578 368.948 972.018C297.79 1039.03 156.093 1128.83 -17.4332 1102.98C-86.5864 1092.68 -150.912 1119.03 -203.258 1156.21C-255.603 1193.39 -295.916 1241.36 -317.013 1274.18L-317.848 1273.64C-296.692 1240.72 -256.294 1192.65 -203.828 1155.39C-151.363 1118.13 -86.7787 1091.64 -17.2792 1101.99C155.826 1127.77 297.229 1038.19 368.27 971.289C403.859 937.775 466.014 892.405 540.654 860.313C615.291 828.223 702.459 809.391 788.044 829.024C873.455 848.618 948.087 855.571 1019.71 846.773C1091.34 837.975 1159.99 813.424 1233.43 769.973C1297.43 732.106 1329.57 691.275 1355.47 658.369C1359.28 653.538 1362.95 648.877 1366.56 644.422C1380.68 627.025 1394.01 612.722 1411.38 603.666C1428.76 594.602 1450.13 590.82 1480.28 594.345C1576.62 605.609 1640.33 643.044 1660.19 660.41L1659.54 661.169C1639.84 643.949 1576.32 606.585 1480.15 595.341C1450.15 591.833 1428.99 595.608 1411.83 604.556C1394.66 613.51 1381.44 627.671 1367.33 645.053C1363.72 649.5 1360.06 654.154 1356.26 658.983C1330.35 691.897 1298.1 732.869 1233.93 770.836C1160.39 814.347 1091.61 838.952 1019.83 847.769C948.049 856.585 873.297 849.612 787.815 830.002C702.506 810.432 615.563 829.194 541.039 861.235Z" fill="#FFAD41"/>
<path fill-rule="evenodd" clip-rule="evenodd" d="M573.873 961.523C499.35 993.564 437.293 1038.87 401.782 1072.31C330.624 1139.31 188.928 1229.11 15.4012 1203.27C-53.7521 1192.97 -118.078 1219.32 -170.424 1256.5C-222.769 1293.67 -263.082 1341.64 -284.178 1374.47L-285.014 1373.93C-263.858 1341.01 -223.46 1292.94 -170.994 1255.68C-118.529 1218.42 -53.9443 1191.93 15.5552 1202.28C188.661 1228.06 330.063 1138.47 401.104 1071.58C436.693 1038.06 498.849 992.692 573.488 960.601C648.126 928.51 735.293 909.678 820.878 929.311C906.29 948.905 980.921 955.858 1052.55 947.06C1124.17 938.262 1192.82 913.711 1266.26 870.26C1330.26 832.393 1362.41 791.562 1388.31 758.656C1392.11 753.825 1395.78 749.165 1399.4 744.709C1413.51 727.312 1426.85 713.01 1444.21 703.953C1461.6 694.89 1482.96 691.107 1513.11 694.632C1609.45 705.897 1673.17 743.331 1693.03 760.697L1692.37 761.456C1672.68 744.236 1609.15 706.872 1512.99 695.629C1482.98 692.12 1461.83 695.895 1444.67 704.843C1427.49 713.797 1414.27 727.959 1400.17 745.34C1396.56 749.787 1392.89 754.442 1389.09 759.27C1363.18 792.184 1330.93 833.156 1266.76 871.123C1193.22 914.634 1124.44 939.239 1052.66 948.056C980.884 956.872 906.131 949.899 820.649 930.289C735.34 910.719 648.397 929.481 573.873 961.523Z" fill="#FFAD41"/>
<path fill-rule="evenodd" clip-rule="evenodd" d="M546.001 876.392C471.478 908.433 409.42 953.735 373.91 987.175C302.752 1054.18 161.055 1143.98 -12.471 1118.14C-81.6243 1107.84 -145.95 1134.19 -198.296 1171.37C-250.641 1208.54 -290.954 1256.51 -312.05 1289.34L-312.886 1288.8C-291.73 1255.88 -251.332 1207.81 -198.866 1170.55C-146.401 1133.29 -81.8165 1106.8 -12.317 1117.15C160.788 1142.93 302.191 1053.34 373.232 986.445C408.821 952.931 470.977 907.561 545.616 875.47C620.254 843.379 707.421 824.547 793.006 844.18C878.417 863.774 953.049 870.727 1024.68 861.929C1096.3 853.132 1164.95 828.58 1238.39 785.129C1302.39 747.263 1334.53 706.431 1360.44 673.525C1364.24 668.694 1367.91 664.034 1371.52 659.579C1385.64 642.182 1398.97 627.879 1416.34 618.822C1433.72 609.759 1455.09 605.976 1485.24 609.501C1581.58 620.766 1645.29 658.201 1665.16 675.566L1664.5 676.326C1644.8 659.105 1581.28 621.741 1485.12 610.498C1455.11 606.989 1433.95 610.765 1416.79 619.712C1399.62 628.667 1386.4 642.828 1372.29 660.209C1368.69 664.656 1365.02 669.311 1361.22 674.139C1335.31 707.053 1303.06 748.026 1238.89 785.992C1165.35 829.503 1096.57 854.108 1024.79 862.925C953.012 871.741 878.259 864.768 792.777 845.158C707.468 825.588 620.525 844.35 546.001 876.392Z" fill="#FFAD41"/>
<path fill-rule="evenodd" clip-rule="evenodd" d="M543.314 868.186C468.792 900.227 406.734 945.529 371.223 978.968C300.065 1045.98 158.369 1135.78 -15.1577 1109.93C-84.3109 1099.63 -148.637 1125.98 -200.983 1163.16C-253.328 1200.34 -293.64 1248.31 -314.737 1281.13L-315.573 1280.59C-294.417 1247.67 -254.018 1199.6 -201.553 1162.34C-149.088 1125.08 -84.5032 1098.59 -15.0037 1108.94C158.102 1134.72 299.505 1045.14 370.546 978.239C406.135 944.725 468.29 899.355 542.929 867.264C617.567 835.173 704.734 816.341 790.319 835.974C875.731 855.568 950.362 862.521 1021.99 853.723C1093.61 844.925 1162.26 820.374 1235.7 776.923C1299.7 739.056 1331.85 698.225 1357.75 665.319C1361.55 660.488 1365.22 655.828 1368.84 651.373C1382.96 633.976 1396.29 619.673 1413.66 610.616C1431.04 601.553 1452.4 597.77 1482.55 601.295C1578.89 612.56 1642.61 649.995 1662.47 667.36L1661.81 668.12C1642.12 650.899 1578.59 613.535 1482.43 602.292C1452.42 598.783 1431.27 602.558 1414.11 611.506C1396.94 620.461 1383.71 634.622 1369.61 652.003C1366 656.45 1362.34 661.105 1358.53 665.933C1332.63 698.847 1300.37 739.82 1236.2 777.786C1162.66 821.297 1093.88 845.902 1022.1 854.719C950.325 863.535 875.572 856.562 790.09 836.952C704.781 817.382 617.838 836.144 543.314 868.186Z" fill="#FFAD41"/>
<path fill-rule="evenodd" clip-rule="evenodd" d="M549.695 887.674C475.172 919.715 413.114 965.017 377.604 998.457C306.446 1065.47 164.749 1155.27 -8.77729 1129.42C-77.9305 1119.12 -142.257 1145.47 -194.602 1182.65C-246.948 1219.83 -287.26 1267.79 -308.357 1300.62L-309.192 1300.08C-288.036 1267.16 -247.638 1219.09 -195.173 1181.83C-142.708 1144.57 -78.1228 1118.08 -8.6233 1128.43C164.482 1154.21 305.885 1064.63 376.926 997.727C412.515 964.213 474.67 918.843 549.309 886.752C623.947 854.661 711.115 835.829 796.7 855.463C882.111 875.056 956.742 882.01 1028.37 873.211C1099.99 864.414 1168.64 839.863 1242.08 796.411C1306.08 758.545 1338.23 717.713 1364.13 684.808C1367.93 679.976 1371.6 675.316 1375.22 670.861C1389.34 653.464 1402.67 639.161 1420.04 630.104C1437.42 621.041 1458.78 617.258 1488.93 620.784C1585.27 632.048 1648.99 669.483 1668.85 686.848L1668.19 687.608C1648.5 670.387 1584.97 633.024 1488.81 621.78C1458.8 618.271 1437.65 622.047 1420.49 630.994C1403.32 639.949 1390.09 654.11 1375.99 671.491C1372.38 675.938 1368.72 680.593 1364.91 685.421C1339.01 718.335 1306.75 759.308 1242.58 797.275C1169.04 840.785 1100.26 865.39 1028.48 874.207C956.705 883.024 881.953 876.05 796.47 856.441C711.162 836.871 624.219 855.632 549.695 887.674Z" fill="#FFAD41"/>
<path fill-rule="evenodd" clip-rule="evenodd" d="M553.053 897.931C478.53 929.972 416.472 975.274 380.962 1008.71C309.804 1075.72 168.107 1165.52 -5.41914 1139.68C-74.5724 1129.38 -138.898 1155.73 -191.244 1192.91C-243.589 1230.08 -283.902 1278.05 -304.999 1310.88L-305.834 1310.34C-284.678 1277.42 -244.28 1229.35 -191.814 1192.09C-139.349 1154.83 -74.7646 1128.34 -5.26514 1138.69C167.84 1164.47 309.243 1074.88 380.284 1007.98C415.873 974.47 478.028 929.1 552.668 897.009C627.305 864.918 714.473 846.086 800.058 865.719C885.469 885.313 960.101 892.266 1031.73 883.468C1103.35 874.671 1172 850.12 1245.44 806.668C1309.44 768.802 1341.59 727.97 1367.49 695.064C1371.29 690.233 1374.96 685.573 1378.58 681.118C1392.69 663.721 1406.03 649.418 1423.39 640.361C1440.77 631.298 1462.14 627.515 1492.29 631.04C1588.63 642.305 1652.35 679.74 1672.21 697.105L1671.55 697.865C1651.86 680.644 1588.33 643.281 1492.17 632.037C1462.16 628.528 1441.01 632.304 1423.85 641.251C1406.67 650.206 1393.45 664.367 1379.35 681.748C1375.74 686.195 1372.07 690.85 1368.27 695.678C1342.36 728.592 1310.11 769.565 1245.94 807.531C1172.4 851.042 1103.62 875.647 1031.84 884.464C960.063 893.28 885.311 886.307 799.829 866.697C714.52 847.128 627.577 865.889 553.053 897.931Z" fill="#FFAD41"/>
<path fill-rule="evenodd" clip-rule="evenodd" d="M556.411 908.188C481.888 940.229 419.83 985.531 384.32 1018.97C313.162 1085.98 171.465 1175.78 -2.06098 1149.94C-71.2142 1139.64 -135.54 1165.99 -187.886 1203.16C-240.231 1240.34 -280.544 1288.31 -301.64 1321.13L-302.476 1320.59C-281.32 1287.68 -240.922 1239.61 -188.456 1202.34C-135.991 1165.08 -71.4065 1138.59 -1.90699 1148.94C171.199 1174.72 312.601 1085.14 383.642 1018.24C419.231 984.727 481.387 939.357 556.026 907.266C630.664 875.175 717.831 856.343 803.416 875.976C888.828 895.57 963.459 902.523 1035.09 893.725C1106.71 884.927 1175.36 860.376 1248.8 816.925C1312.8 779.058 1344.94 738.227 1370.85 705.321C1374.65 700.49 1378.32 695.83 1381.93 691.374C1396.05 673.977 1409.38 659.675 1426.75 650.618C1444.13 641.555 1465.5 637.772 1495.65 641.297C1591.99 652.562 1655.7 689.996 1675.57 707.362L1674.91 708.121C1655.21 690.901 1591.69 653.537 1495.53 642.294C1465.52 638.785 1444.36 642.56 1427.2 651.508C1410.03 660.463 1396.81 674.624 1382.7 692.005C1379.1 696.452 1375.43 701.107 1371.63 705.935C1345.72 738.849 1313.47 779.821 1249.3 817.788C1175.76 861.299 1106.98 885.904 1035.2 894.721C963.422 903.537 888.669 896.564 803.187 876.954C717.878 857.384 630.935 876.146 556.411 908.188Z" fill="#FFAD41"/>
<path fill-rule="evenodd" clip-rule="evenodd" d="M559.769 918.444C485.246 950.486 423.189 995.787 387.678 1029.23C316.52 1096.24 174.823 1186.04 1.29705 1160.19C-67.8562 1149.89 -132.182 1176.24 -184.528 1213.42C-236.873 1250.6 -277.186 1298.56 -298.282 1331.39L-299.118 1330.85C-277.962 1297.93 -237.564 1249.86 -185.098 1212.6C-132.633 1175.34 -68.0484 1148.85 1.45104 1159.2C174.557 1184.98 315.959 1095.4 387 1028.5C422.589 994.984 484.745 949.614 559.384 917.522C634.022 885.432 721.189 866.6 806.774 886.233C892.186 905.827 966.817 912.78 1038.44 903.982C1110.07 895.184 1178.72 870.633 1252.16 827.182C1316.16 789.315 1348.3 748.483 1374.21 715.578C1378.01 710.747 1381.68 706.086 1385.29 701.631C1399.41 684.234 1412.74 669.931 1430.11 660.875C1447.49 651.811 1468.86 648.029 1499.01 651.554C1595.35 662.818 1659.06 700.253 1678.92 717.619L1678.27 718.378C1658.57 701.158 1595.05 663.794 1498.88 652.55C1468.88 649.042 1447.72 652.817 1430.56 661.765C1413.39 670.719 1400.17 684.88 1386.06 702.262C1382.45 706.708 1378.79 711.363 1374.99 716.191C1349.08 749.106 1316.83 790.078 1252.66 828.045C1179.12 871.556 1110.34 896.161 1038.56 904.978C966.78 913.794 892.027 906.821 806.545 887.211C721.236 867.641 634.293 886.403 559.769 918.444Z" fill="#FFAD41"/>
<path fill-rule="evenodd" clip-rule="evenodd" d="M563.463 929.727C488.94 961.768 426.883 1007.07 391.372 1040.51C320.214 1107.52 178.517 1197.32 4.99114 1171.47C-64.1621 1161.18 -128.488 1187.52 -180.834 1224.7C-233.179 1261.88 -273.492 1309.85 -294.588 1342.67L-295.424 1342.13C-274.268 1309.21 -233.87 1261.15 -181.404 1223.88C-128.939 1186.62 -64.3544 1160.13 5.14514 1170.48C178.251 1196.26 319.653 1106.68 390.694 1039.78C426.283 1006.27 488.439 960.896 563.078 928.805C637.716 896.714 724.883 877.882 810.468 897.515C895.88 917.109 970.511 924.062 1042.14 915.264C1113.76 906.466 1182.41 881.915 1255.85 838.464C1319.85 800.598 1352 759.766 1377.9 726.86C1381.7 722.029 1385.37 717.369 1388.99 712.914C1403.1 695.517 1416.44 681.214 1433.8 672.157C1451.19 663.094 1472.55 659.311 1502.7 662.836C1599.04 674.101 1662.76 711.536 1682.62 728.901L1681.96 729.661C1662.27 712.44 1598.74 675.076 1502.58 663.833C1472.57 660.324 1451.42 664.099 1434.26 673.047C1417.08 682.002 1403.86 696.163 1389.76 713.544C1386.15 717.991 1382.48 722.646 1378.68 727.474C1352.77 760.388 1320.52 801.361 1256.35 839.327C1182.81 882.838 1114.03 907.443 1042.25 916.26C970.474 925.076 895.721 918.103 810.239 898.493C724.93 878.923 637.987 897.685 563.463 929.727Z" fill="#FFAD41"/>
<path fill-rule="evenodd" clip-rule="evenodd" d="M567.493 942.035C492.97 974.076 430.912 1019.38 395.402 1052.82C324.244 1119.83 182.547 1209.63 9.02081 1183.78C-60.1324 1173.48 -124.458 1199.83 -176.804 1237.01C-229.149 1274.19 -269.462 1322.16 -290.559 1354.98L-291.394 1354.44C-270.238 1321.52 -229.84 1273.45 -177.374 1236.19C-124.909 1198.93 -60.3247 1172.44 9.1748 1182.79C182.28 1208.57 323.683 1118.99 394.724 1052.09C430.313 1018.57 492.468 973.205 567.108 941.113C641.745 909.023 728.913 890.191 814.498 909.824C899.909 929.417 974.54 936.371 1046.17 927.573C1117.79 918.775 1186.44 894.224 1259.88 850.772C1323.88 812.906 1356.03 772.074 1381.93 739.169C1385.73 734.338 1389.4 729.677 1393.02 725.222C1407.13 707.825 1420.47 693.522 1437.83 684.466C1455.21 675.402 1476.58 671.62 1506.73 675.145C1603.07 686.409 1666.79 723.844 1686.65 741.21L1685.99 741.969C1666.3 724.749 1602.77 687.385 1506.61 676.141C1476.6 672.633 1455.45 676.408 1438.29 685.356C1421.11 694.31 1407.89 708.471 1393.79 725.853C1390.18 730.299 1386.51 734.954 1382.71 739.783C1356.8 772.697 1324.55 813.669 1260.38 851.636C1186.84 895.147 1118.06 919.751 1046.28 928.568C974.503 937.385 899.751 930.412 814.269 910.802C728.96 891.232 642.017 909.993 567.493 942.035Z" fill="#FFAD41"/>
<path fill-rule="evenodd" clip-rule="evenodd" d="M571.522 954.343C497 986.384 434.942 1031.69 399.432 1065.13C328.274 1132.13 186.577 1221.93 13.0505 1196.09C-56.1028 1185.79 -120.429 1212.14 -172.775 1249.32C-225.12 1286.49 -265.432 1334.46 -286.529 1367.29L-287.365 1366.75C-266.209 1333.83 -225.81 1285.76 -173.345 1248.5C-120.88 1211.24 -56.295 1184.75 13.2045 1195.1C186.31 1220.88 327.713 1131.29 398.754 1064.4C434.343 1030.88 496.498 985.512 571.137 953.421C645.775 921.33 732.943 902.498 818.527 922.131C903.939 941.725 978.57 948.678 1050.2 939.88C1121.82 931.083 1190.47 906.532 1263.91 863.08C1327.91 825.214 1360.05 784.382 1385.96 751.477C1389.76 746.645 1393.43 741.985 1397.05 737.53C1411.16 720.133 1424.5 705.83 1441.86 696.773C1459.24 687.71 1480.61 683.927 1510.76 687.452C1607.1 698.717 1670.82 736.152 1690.68 753.517L1690.02 754.277C1670.32 737.056 1606.8 699.693 1510.64 688.449C1480.63 684.94 1459.47 688.716 1442.32 697.663C1425.14 706.618 1411.92 720.779 1397.82 738.16C1394.21 742.607 1390.54 747.262 1386.74 752.09C1360.83 785.004 1328.58 825.977 1264.41 863.944C1190.87 907.454 1122.09 932.059 1050.31 940.876C978.533 949.693 903.781 942.719 818.298 923.11C732.989 903.54 646.046 922.301 571.522 954.343Z" fill="#FFAD41"/>
</g>
</g>
<defs>
<filter id="filter0_f_10_5862" x="1000.54" y="1977.17" width="15.7389" height="14.8688" filterUnits="userSpaceOnUse" color-interpolation-filters="sRGB">
<feFlood flood-opacity="0" result="BackgroundImageFix"/>
<feBlend mode="normal" in="SourceGraphic" in2="BackgroundImageFix" result="shape"/>
<feGaussianBlur stdDeviation="2.44571" result="effect1_foregroundBlur_10_5862"/>
</filter>
<filter id="filter1_f_10_5862" x="773.216" y="3981.1" width="13.6406" height="12.7278" filterUnits="userSpaceOnUse" color-interpolation-filters="sRGB">
<feFlood flood-opacity="0" result="BackgroundImageFix"/>
<feBlend mode="normal" in="SourceGraphic" in2="BackgroundImageFix" result="shape"/>
<feGaussianBlur stdDeviation="2.10822" result="effect1_foregroundBlur_10_5862"/>
</filter>
<clipPath id="clip0_10_5862">
<rect width="1440" height="5196" fill="white"/>
</clipPath>
<clipPath id="clip1_10_5862">
<rect width="1780.77" height="428.59" fill="white" transform="translate(-250 946.324) rotate(-18.3398)"/>
</clipPath>
</defs>
</svg>
