<svg width="803" height="778" viewBox="0 0 803 778" fill="none" xmlns="http://www.w3.org/2000/svg">
<g opacity="0.9" filter="url(#filter0_dd_16_5852)">
<path d="M74.3154 535.698C202.991 678.496 414.802 693.382 561.896 566.364C705.519 442.349 723.602 233.539 597.585 91.0928C799.15 215.648 821.823 493.206 643.463 647.425C463.506 802.998 176.624 746.106 74.3434 535.726L74.3154 535.698Z" fill="#CCCCCC"/>
<path d="M687.603 501.729C717.666 498.211 723.74 543.843 696.672 547.714C662.187 552.667 663.027 504.598 687.603 501.729Z" fill="#B3B3B3"/>
<path d="M303.676 658.33C330.604 653.16 341.296 691.025 312.745 687.885C294.159 685.855 286.713 661.577 303.676 658.33Z" fill="#B3B3B3"/>
<path d="M725.001 341.854C743.42 341.367 747.03 367.485 731.803 370.327C709.158 374.577 705.463 342.369 725.001 341.854Z" fill="#B3B3B3"/>
<path d="M564.721 643.013C569.004 654.137 561.81 651.43 555.652 657.791C553.301 660.227 551.146 668.265 547.171 669.294C537.766 671.702 528.948 665.721 528.473 657.249C527.661 642.228 536.086 636.057 551.677 638.628C556.24 639.386 559.543 645.097 564.693 643.013H564.721Z" fill="#CCCCCC"/>
<path d="M564.723 643.01C559.545 645.094 556.242 639.383 551.707 638.625C536.088 636.054 527.691 642.225 528.503 657.247C513.023 652.673 522.512 631.399 534.745 627.691C545.381 624.47 560.804 632.725 564.751 643.01H564.723Z" fill="#B3B3B3"/>
<path d="M440.722 648.481C455.333 645.693 471.036 655.464 468.461 670.918C457.237 641.796 419.56 659.361 435.627 686.237L432.8 687.888C416.397 678.605 424.319 651.593 440.722 648.454V648.481Z" fill="#B3B3B3"/>
<path d="M467.903 672.568C469.274 685.614 447.581 696.251 436.749 688.456C451.22 691.135 462.92 686.372 467.903 672.568Z" fill="#B3B3B3"/>
<path d="M597.585 91.0637C723.602 233.51 705.547 442.32 561.896 566.335C414.802 693.353 202.992 678.467 74.3156 535.669C-80.6162 217 291.612 -98.0162 597.585 91.0637Z" fill="#F2F2F2"/>
<path d="M508.095 112.987C506.64 129.849 501.769 112.31 499.026 114.638C495.751 135.911 471.091 151.528 449.761 144.762C448.474 150.879 460.93 146.9 463.365 151.339C456.591 151.636 450.237 151.42 443.547 150.256C443.183 150.202 442.763 150.337 442.428 150.256C438.565 145.817 442.54 140.404 442.428 139.863C442.26 139.024 433.358 130.39 432.239 125.626C423.813 89.7916 471.706 67.3273 496.787 96.0709L508.123 113.041L508.095 112.987Z" fill="#E6E6E6"/>
<path d="M508.098 112.988L496.761 96.018C471.681 67.2744 423.788 89.7659 432.213 125.574C433.333 130.337 442.234 138.971 442.402 139.81C442.514 140.351 438.54 145.792 442.402 150.203C406.294 141.975 411.22 78.9126 450.324 69.169C478.119 62.2402 510.589 84.2986 508.098 112.961V112.988Z" fill="#CCCCCC"/>
<path d="M443.549 150.2C450.239 151.391 456.593 151.581 463.367 151.283C460.932 146.844 448.503 150.823 449.763 144.706C471.092 151.472 495.753 135.883 499.028 114.582C501.771 112.255 506.613 129.793 508.097 112.931C510.588 84.2688 478.146 62.1833 450.323 69.1391C493.346 55.9853 529.482 106.111 502.415 140.863C490.322 156.398 458.608 165.168 443.521 150.173L443.549 150.2Z" fill="white"/>
<path d="M619.083 466.708C619.167 467.736 620.314 467.872 620.202 469.983L612.281 474.909C615.556 471.904 611.329 455.8 608.306 455.746C611.665 480.376 580.959 501.46 557.334 492.988C550.56 495.289 573.149 498.158 570.938 500.648L548.853 499.565C548.657 499.349 549.021 498.699 548.853 498.483C542.303 489.984 549.301 489.578 548.853 488.09C548.489 486.872 539.923 478.373 538.664 473.853C523.465 419.966 614.212 405.891 619.083 466.735V466.708Z" fill="#E6E6E6"/>
<path d="M619.082 466.707C614.211 405.864 523.463 419.938 538.663 473.825C539.95 478.345 548.487 486.844 548.851 488.062C549.299 489.551 542.301 489.984 548.851 498.455C536.787 497.021 524.331 477.804 522.791 467.249C517.977 433.985 546.5 405.701 581.125 409.761C606.849 412.766 629.158 442.781 619.054 466.707H619.082Z" fill="#CCCCCC"/>
<path d="M620.231 469.983C619.279 488.009 597.334 504.492 580.035 506.116C573.065 506.765 553.835 504.979 548.881 499.539L570.966 500.621C573.205 498.131 550.588 495.263 557.362 492.962C580.987 501.461 611.693 480.349 608.334 455.72C611.329 455.774 615.584 471.878 612.309 474.882L620.231 469.956V469.983Z" fill="white"/>
<path d="M410.716 580.597C411.864 566.279 417.518 560.758 429.974 554.316C430.422 554.371 436.944 555.264 437.336 555.399C452.143 561.245 446.713 577.403 432.801 581.68C431.402 582.113 413.375 584.197 412.424 583.872C411.864 583.683 411.444 581.274 410.716 580.597Z" fill="#F2F2F2"/>
<path d="M402.208 448.085C428.183 441.941 432.606 477.803 406.742 473.283C392.719 470.847 390.171 450.954 402.208 448.085Z" fill="#E6E6E6"/>
<path d="M675.736 324.344C675.736 324.642 674.253 329.324 673.469 329.811C671.985 327.863 671.818 324.371 670.642 322.152C668.291 343.398 647.465 356.363 627.031 346.24C600.888 311.353 650.572 284.964 671.202 313.924C672.881 316.279 675.652 321.583 675.736 324.317V324.344Z" fill="#E6E6E6"/>
<path d="M675.737 324.341C675.653 321.58 672.882 316.275 671.203 313.948C650.573 284.96 600.888 311.349 627.032 346.264C627.088 346.345 624.541 346.589 626.472 348.456C627.704 349.647 645.367 353.057 630.447 353.923C583.03 336.818 617.935 271.807 661.602 293.703C673.834 299.847 679.236 314.597 679.152 327.102L675.765 324.368L675.737 324.341Z" fill="#CCCCCC"/>
<path d="M673.472 329.809C676.411 333.679 676.886 329.484 678.006 331.46C680.469 335.818 668.601 350.108 663.843 352.815C652.03 359.527 642.261 358.174 630.421 353.897C645.34 353.031 627.678 349.621 626.446 348.43C624.543 346.563 627.09 346.319 627.006 346.238C647.44 356.36 668.265 343.396 670.616 322.149C671.792 324.369 671.96 327.86 673.444 329.809H673.472Z" fill="white"/>
<path d="M355.209 397.715L354.089 380.203C379.058 353.869 387.567 408 355.209 397.715Z" fill="#E6E6E6"/>
<path d="M624.764 198.407C624.4 203.685 623.7 201.439 623.644 201.682L619.67 204.957L616.283 196.188C613.008 212.617 599.852 221.305 582.861 220.276C578.383 220.006 575.164 220.06 571.525 217.001C558.117 205.661 563.743 179.651 580.006 173.209C601.503 164.684 618.214 179.867 624.736 198.407H624.764Z" fill="#E6E6E6"/>
<path d="M624.766 198.405C618.216 179.865 601.533 164.681 580.036 173.207C563.745 179.676 558.147 205.659 571.555 216.999L569.847 221.384H566.46C560.694 216.377 553.444 207.58 552.297 200.029C544.767 149.876 628.769 140.458 624.794 198.378L624.766 198.405Z" fill="#CCCCCC"/>
<path d="M623.618 201.682C618.496 223.903 600.609 229.884 578.888 226.88L574.913 225.229L584.542 224.688L582.835 220.303C599.797 221.332 612.981 212.644 616.256 196.215L619.643 204.984L623.618 201.709V201.682Z" fill="white"/>
<path d="M429.946 554.318C417.518 560.787 411.836 566.281 410.688 580.599C397.504 568.121 411.836 552.099 429.946 554.318Z" fill="#CCCCCC"/>
<path d="M355.209 397.716C344.153 394.197 347.624 387.025 354.09 380.204L355.209 397.716Z" fill="#CCCCCC"/>
<path d="M145.694 404.266C170.606 409.707 188.941 436.123 185.33 460.671C178.64 456.232 177.66 445.866 172.874 439.316C143.399 398.989 61.5523 430.818 102.643 497.345C103.455 498.671 105.751 505.735 106.03 506.114C43.8338 478.291 78.1791 389.516 145.666 404.266H145.694Z" fill="#CCCCCC"/>
<path d="M106.031 506.113C105.723 505.761 103.456 498.67 102.644 497.344C142.84 516.804 190.481 482.133 172.874 439.315C177.661 445.865 178.64 456.231 185.33 460.67C188.941 436.122 170.607 409.733 145.695 404.266C189.725 411.925 206.632 470.333 171.167 499.536C157.367 510.904 117.871 520.241 106.031 506.113Z" fill="white"/>
<path d="M172.874 439.315C190.48 482.16 142.839 516.804 102.644 497.344C61.5523 430.817 143.399 398.988 172.874 439.315Z" fill="#E6E6E6"/>
<path d="M465.074 264.094C464.962 263.851 462.247 264.635 461.687 263.553C459.112 258.654 457.376 253.106 453.765 248.775C424.822 214.185 356.272 245.175 393.752 300.254C394.312 301.066 394.76 304.151 396.019 305.721C360.862 293.379 362.654 245.69 393.192 227.962C423.731 210.234 464.654 227.258 465.102 264.094H465.074Z" fill="#CCCCCC"/>
<path d="M465.074 264.094C471.848 276.924 456.901 298.874 445.257 305.721C433.024 312.921 405.089 317.008 395.992 305.721C394.732 304.151 394.284 301.066 393.725 300.254C429.386 316.304 468.237 285.53 453.738 248.775C457.349 253.106 459.112 258.681 461.659 263.553C462.247 264.663 464.934 263.878 465.046 264.094H465.074Z" fill="white"/>
<path d="M453.738 248.774C468.21 285.502 429.358 316.303 393.725 300.253C356.245 245.201 424.795 214.184 453.738 248.774Z" fill="#E6E6E6"/>
<path d="M334.831 556.511C327.413 555.429 329.289 547.309 322.375 540.083C295.867 512.368 244.979 545.009 274.818 586.067C275.742 587.339 276.917 590.262 277.085 590.452C266.7 588.611 256.875 575.295 255.56 565.822C248.478 514.885 329.009 497.319 334.831 556.511Z" fill="#CCCCCC"/>
<path d="M334.831 556.511C336.146 569.935 331.78 581.898 319.547 589.368C309.862 595.296 285.118 599.491 277.085 590.451C276.917 590.262 275.741 587.338 274.817 586.066C306.028 598.083 341.353 571.424 322.375 540.082C329.288 547.309 327.413 555.428 334.831 556.511Z" fill="white"/>
<path d="M322.374 540.08C341.324 571.449 306.027 598.081 274.817 586.064C244.978 544.979 295.866 512.365 322.374 540.08Z" fill="#E6E6E6"/>
<path d="M246.492 151.313C244.449 152.396 242.321 153.451 240.25 154.588C238.318 151.34 240.194 149.256 238.542 145.819C223.371 114.287 175.198 155.535 206.828 178.676C206.66 178.866 205.877 180.679 205.709 180.868C185.415 201.303 164.225 220.682 146.255 243.282C137.102 214.267 105.976 220.303 101.525 248.208C100.321 255.651 104.156 266.72 103.792 270.104C103.176 275.652 74.4854 315.953 72.0781 325.967C85.9338 234.296 155.576 146.712 239.13 103.109C289.626 76.7473 333.069 74.149 389.751 82.2957C382.865 96.2074 361.676 95.0166 347.848 99.8072C306.449 114.206 282.937 131.88 246.492 151.286V151.313Z" fill="white"/>
<path d="M129.263 243.282C131.67 242.876 144.77 242.605 145.694 244.933C142.251 255.218 132.594 267.911 120.222 266.287C96.653 263.175 116.975 245.339 129.291 243.282H129.263Z" fill="#CCCCCC"/>
<path d="M246.491 151.313C261.774 156.672 253.797 180.057 242.516 187.445C231.236 194.834 211.166 195.646 205.708 180.869C205.875 180.679 206.659 178.866 206.827 178.676C208.031 177.485 209.738 178.108 211.362 176.484C220.515 182.222 233.279 174.616 237.422 166.091C247.666 144.925 220.571 171.991 213.629 173.209C213.909 172.911 213.293 170.8 213.629 170.475C221.859 162.112 232.467 155.535 238.541 145.846C240.193 149.283 238.317 151.367 240.249 154.615C242.292 153.478 244.419 152.423 246.491 151.34V151.313Z" fill="#F2F2F2"/>
<path d="M238.541 145.816C232.439 155.506 221.859 162.083 213.629 170.446C213.293 170.771 213.909 172.882 213.629 173.179C213.013 173.802 211.978 175.859 211.362 176.454C209.766 178.078 208.031 177.456 206.827 178.647C175.197 155.506 223.37 114.258 238.541 145.789V145.816Z" fill="#F2F2F2"/>
<path d="M211.36 176.485C211.976 175.862 213.012 173.832 213.628 173.21C220.569 171.992 247.637 144.926 237.42 166.091C233.306 174.617 220.541 182.222 211.36 176.485Z" fill="#CCCCCC"/>
<path d="M269.136 348.431L266.869 351.706C254.217 319.661 209.878 351.652 232.887 371.41V372.493C227.765 375.686 220.879 362.966 220.431 359.907C216.344 332.192 257.352 318.172 269.136 348.404V348.431Z" fill="#CCCCCC"/>
<path d="M232.887 372.518V371.436C239.129 376.795 249.234 375.279 256.092 371.436C258.723 369.947 268.856 356.252 269.108 354.466C269.443 352.273 267.54 353.491 266.84 351.732L269.108 348.457C277.253 369.379 250.046 385.943 232.859 372.545L232.887 372.518Z" fill="white"/>
<path d="M266.869 351.704C267.569 353.491 269.472 352.246 269.136 354.438C268.856 356.224 258.752 369.946 256.12 371.408C249.235 375.251 239.158 376.767 232.916 371.408C209.907 351.623 254.217 319.632 266.897 351.704H266.869Z" fill="#E6E6E6"/>
<path d="M313.305 210.45V213.725C311.737 220.031 308.098 208.285 303.676 206.066C284.082 196.241 268.183 217.893 279.323 234.538V235.621C246.909 218.353 297.798 175.996 313.305 210.423V210.45Z" fill="#CCCCCC"/>
<path d="M279.324 235.62V234.538C295.755 242.359 313.306 230.045 313.306 213.724V210.449C323.187 232.399 300.318 246.825 279.324 235.647V235.62Z" fill="white"/>
<path d="M313.306 213.725C313.306 230.045 295.756 242.36 279.325 234.538C268.184 217.893 284.084 196.24 303.677 206.065C308.1 208.285 311.739 220.031 313.306 213.725Z" fill="#E6E6E6"/>
</g>
<defs>
<filter id="filter0_dd_16_5852" x="0" y="0" width="802.153" height="778.002" filterUnits="userSpaceOnUse" color-interpolation-filters="sRGB">
<feFlood flood-opacity="0" result="BackgroundImageFix"/>
<feColorMatrix in="SourceAlpha" type="matrix" values="0 0 0 0 0 0 0 0 0 0 0 0 0 0 0 0 0 0 127 0" result="hardAlpha"/>
<feOffset dy="4"/>
<feGaussianBlur stdDeviation="2"/>
<feComposite in2="hardAlpha" operator="out"/>
<feColorMatrix type="matrix" values="0 0 0 0 0 0 0 0 0 0 0 0 0 0 0 0 0 0 0.25 0"/>
<feBlend mode="normal" in2="BackgroundImageFix" result="effect1_dropShadow_16_5852"/>
<feColorMatrix in="SourceAlpha" type="matrix" values="0 0 0 0 0 0 0 0 0 0 0 0 0 0 0 0 0 0 127 0" result="hardAlpha"/>
<feMorphology radius="8" operator="dilate" in="SourceAlpha" result="effect2_dropShadow_16_5852"/>
<feOffset dy="4"/>
<feGaussianBlur stdDeviation="15"/>
<feComposite in2="hardAlpha" operator="out"/>
<feColorMatrix type="matrix" values="0 0 0 0 1 0 0 0 0 1 0 0 0 0 1 0 0 0 0.2 0"/>
<feBlend mode="normal" in2="effect1_dropShadow_16_5852" result="effect2_dropShadow_16_5852"/>
<feBlend mode="normal" in="SourceGraphic" in2="effect2_dropShadow_16_5852" result="shape"/>
</filter>
</defs>
</svg>
