<svg width="315" height="308" viewBox="0 0 315 308" fill="none" xmlns="http://www.w3.org/2000/svg">
<g clip-path="url(#clip0_13_7467)">
<path d="M315 154.022C315 239.096 244.485 308.045 157.5 308.045C70.515 308.045 0 239.051 0 154.022C0 68.9934 70.515 0 157.5 0C244.485 0 315 68.9485 315 154.022ZM141.75 107.802C141.75 99.3128 134.685 92.3955 126 92.3955C117.315 92.3955 110.25 99.2679 110.25 107.802V200.198C110.25 208.687 117.315 215.604 126 215.604C134.685 215.604 141.75 208.732 141.75 200.198V107.802ZM204.75 107.802C204.75 99.3128 197.685 92.3955 189 92.3955C180.315 92.3955 173.25 99.2679 173.25 107.802V200.198C173.25 208.687 180.315 215.604 189 215.604C197.685 215.604 204.75 208.732 204.75 200.198V107.802Z" fill="white"/>
</g>
<defs>
<clipPath id="clip0_13_7467">
<rect width="315" height="308" fill="white"/>
</clipPath>
</defs>
</svg>
