<svg width="313" height="307" viewBox="0 0 313 307" fill="none" xmlns="http://www.w3.org/2000/svg">
<g clip-path="url(#clip0_13_7465)">
<path d="M313 153.522C313 238.32 242.933 307.045 156.5 307.045C70.0673 307.045 0 238.275 0 153.522C0 68.7694 70.0673 0 156.5 0C242.933 0 313 68.7247 313 153.522ZM133.875 79.3356C129.09 76.2015 122.92 75.8881 117.822 78.5744C112.725 81.2607 109.55 86.4543 109.55 92.0955V214.904C109.55 220.546 112.725 225.784 117.822 228.426C122.92 231.112 129.09 230.798 133.875 227.664L227.775 166.282C232.112 163.417 234.75 158.626 234.75 153.522C234.75 148.418 232.157 143.583 227.775 140.762L133.875 79.3803V79.3356Z" fill="white" fill-opacity="0.92"/>
</g>
<defs>
<clipPath id="clip0_13_7465">
<rect width="313" height="307" fill="white"/>
</clipPath>
</defs>
</svg>
