<svg width="1440" height="5196" viewBox="0 0 1440 5196" fill="none" xmlns="http://www.w3.org/2000/svg">
<g clip-path="url(#clip0_10_5778)">
<rect width="1440" height="5196" fill="#2F365B"/>
<path d="M-83.0286 2427.58C-8.91746 2443.74 156.08 2447.02 223.183 2330.92C307.061 2185.79 458.082 2146.5 550.253 2142.44C642.425 2138.38 833.127 2090.62 905.589 1937.67C978.051 1784.73 1062.58 1699.4 1214.8 1654.19C1367.01 1608.99 1431.14 1697.6 1492.24 1599.61C1541.12 1521.22 1551.1 1447.97 1549.99 1421.14" stroke="#FFAD41" stroke-width="1.05411"/>
<path d="M-90.3643 2414.85C-16.2532 2431.01 148.745 2434.29 215.847 2318.19C299.725 2173.06 450.746 2133.77 542.918 2129.71C635.089 2125.65 825.792 2077.89 898.254 1924.95C970.715 1772 1055.24 1686.67 1207.46 1641.46C1359.68 1596.26 1423.81 1684.88 1484.9 1586.88C1533.78 1508.49 1543.77 1435.24 1542.65 1408.41" stroke="#FFAD41" stroke-width="1.05411"/>
<path d="M-64.3826 2457.28C9.72853 2473.43 174.726 2476.71 241.829 2360.61C325.707 2215.48 476.728 2176.19 568.899 2172.13C661.071 2168.07 851.773 2120.31 924.235 1967.37C996.697 1814.43 1081.22 1729.09 1233.44 1683.88C1385.66 1638.68 1449.79 1727.3 1510.89 1629.3C1559.76 1550.91 1569.75 1477.66 1568.63 1450.83" stroke="#FFAD41" stroke-width="1.05411"/>
<path d="M-68.9216 2452.06C5.18947 2468.22 170.187 2471.5 237.29 2355.4C321.168 2210.27 472.188 2170.98 564.36 2166.92C656.532 2162.86 847.234 2115.1 919.696 1962.16C992.158 1809.21 1076.68 1723.88 1228.9 1678.67C1381.12 1633.47 1445.25 1722.09 1506.35 1624.09C1555.22 1545.7 1565.21 1472.45 1564.1 1445.62" stroke="#FFAD41" stroke-width="1.05411"/>
<path d="M-72.3074 2446.19C1.80373 2462.34 166.802 2465.63 233.904 2349.52C317.782 2204.39 468.803 2165.11 560.974 2161.05C653.146 2156.98 843.849 2109.22 916.31 1956.28C988.772 1803.34 1073.3 1718 1225.52 1672.8C1377.74 1627.59 1441.87 1716.21 1502.96 1618.22C1551.84 1539.82 1561.83 1466.57 1560.71 1439.75" stroke="#FFAD41" stroke-width="1.05411"/>
<path d="M-75.6931 2440.31C-1.58201 2456.47 163.416 2459.75 230.518 2343.65C314.396 2198.52 465.417 2159.23 557.589 2155.17C649.761 2151.11 840.463 2103.35 912.925 1950.4C985.387 1797.46 1069.91 1712.13 1222.13 1666.92C1374.35 1621.72 1438.48 1710.33 1499.58 1612.34C1548.45 1533.95 1558.44 1460.7 1557.32 1433.87" stroke="#FFAD41" stroke-width="1.05411"/>
<path d="M-79.0789 2434.44C-4.96776 2450.59 160.03 2453.88 227.132 2337.77C311.01 2192.64 462.031 2153.36 554.203 2149.29C646.375 2145.23 837.077 2097.47 909.539 1944.53C982.001 1791.59 1066.53 1706.25 1218.75 1661.05C1370.96 1615.84 1435.09 1704.46 1496.19 1606.47C1545.07 1528.07 1555.05 1454.82 1553.94 1427.99" stroke="#FFAD41" stroke-width="1.05411"/>
<path d="M-61.5862 2464.79C12.5249 2480.95 177.523 2484.23 244.625 2368.13C328.503 2223 479.524 2183.71 571.696 2179.65C663.867 2175.59 854.57 2127.83 927.032 1974.88C999.493 1821.94 1084.02 1736.61 1236.24 1691.4C1388.46 1646.2 1452.59 1734.81 1513.68 1636.82C1562.56 1558.43 1572.55 1485.18 1571.43 1458.35" stroke="#FFAD41" stroke-width="1.05411"/>
<path d="M-85.8499 2422.69C-11.7388 2438.84 153.259 2442.13 220.361 2326.02C304.239 2180.89 455.26 2141.61 547.432 2137.54C639.604 2133.48 830.306 2085.72 902.768 1932.78C975.23 1779.84 1059.76 1694.5 1211.97 1649.3C1364.19 1604.09 1428.32 1692.71 1489.42 1594.72C1538.29 1516.32 1548.28 1443.07 1547.17 1416.24" stroke="#FFAD41" stroke-width="1.05411"/>
<path d="M-93.75 2408.98C-19.6389 2425.13 145.359 2428.42 212.461 2312.31C296.339 2167.18 447.36 2127.9 539.532 2123.84C631.704 2119.77 822.406 2072.01 894.868 1919.07C967.33 1766.13 1051.86 1680.79 1204.07 1635.59C1356.29 1590.38 1420.42 1679 1481.52 1581.01C1530.39 1502.61 1540.38 1429.36 1539.27 1402.54" stroke="#FFAD41" stroke-width="1.05411"/>
<path d="M-97.6997 2402.13C-23.5886 2418.28 141.409 2421.56 208.512 2305.46C292.39 2160.33 443.41 2121.04 535.582 2116.98C627.754 2112.92 818.456 2065.16 890.918 1912.22C963.38 1759.27 1047.91 1673.94 1200.13 1628.73C1352.34 1583.53 1416.47 1672.15 1477.57 1574.15C1526.44 1495.76 1536.43 1422.51 1535.32 1395.68" stroke="#FFAD41" stroke-width="1.05411"/>
<path d="M-106.164 2387.44C-32.0525 2403.59 132.945 2406.88 200.048 2290.77C283.926 2145.64 434.947 2106.36 527.118 2102.29C619.29 2098.23 809.992 2050.47 882.454 1897.53C954.916 1744.59 1039.44 1659.25 1191.66 1614.05C1343.88 1568.84 1408.01 1657.46 1469.1 1559.47C1517.98 1481.07 1527.97 1407.82 1526.85 1380.99" stroke="#FFAD41" stroke-width="1.05411"/>
<path d="M-101.65 2395.27C-27.5386 2411.43 137.459 2414.71 204.562 2298.61C288.44 2153.47 439.46 2114.19 531.632 2110.13C623.804 2106.06 814.506 2058.3 886.968 1905.36C959.43 1752.42 1043.96 1667.09 1196.18 1621.88C1348.39 1576.68 1412.52 1665.29 1473.62 1567.3C1522.5 1488.9 1532.48 1415.65 1531.37 1388.83" stroke="#FFAD41" stroke-width="1.05411"/>
<path d="M-139.456 2329.67C-65.345 2345.82 99.6529 2349.1 166.755 2233C250.633 2087.87 401.654 2048.58 493.826 2044.52C585.998 2040.46 776.7 1992.7 849.162 1839.76C921.624 1686.81 1006.15 1601.48 1158.37 1556.27C1310.59 1511.07 1374.72 1599.69 1435.81 1501.69C1484.69 1423.3 1494.68 1350.05 1493.56 1323.22" stroke="#FFAD41" stroke-width="1.05411"/>
<path d="M-111.806 2377.65C-37.6951 2393.8 127.303 2397.08 194.405 2280.98C278.283 2135.85 429.304 2096.57 521.476 2092.5C613.647 2088.44 804.35 2040.68 876.812 1887.74C949.274 1734.8 1033.8 1649.46 1186.02 1604.25C1338.24 1559.05 1402.37 1647.67 1463.46 1549.67C1512.34 1471.28 1522.33 1398.03 1521.21 1371.2" stroke="#FFAD41" stroke-width="1.05411"/>
<path d="M-116.321 2369.81C-42.2095 2385.97 122.788 2389.25 189.891 2273.15C273.769 2128.01 424.79 2088.73 516.961 2084.67C609.133 2080.6 799.835 2032.84 872.297 1879.9C944.759 1726.96 1029.29 1641.63 1181.5 1596.42C1333.72 1551.22 1397.85 1639.83 1458.95 1541.84C1507.82 1463.44 1517.81 1390.19 1516.7 1363.37" stroke="#FFAD41" stroke-width="1.05411"/>
<path d="M-120.835 2361.98C-46.7236 2378.13 118.274 2381.42 185.377 2265.31C269.255 2120.18 420.275 2080.9 512.447 2076.83C604.619 2072.77 795.321 2025.01 867.783 1872.07C940.245 1719.13 1024.77 1633.79 1176.99 1588.59C1329.21 1543.38 1393.34 1632 1454.43 1534.01C1503.31 1455.61 1513.3 1382.36 1512.18 1355.53" stroke="#FFAD41" stroke-width="1.05411"/>
<path d="M-125.913 2353.17C-51.802 2369.32 113.196 2372.6 180.298 2256.5C264.176 2111.37 415.197 2072.08 507.369 2068.02C599.541 2063.96 790.243 2016.2 862.705 1863.26C935.167 1710.31 1019.69 1624.98 1171.91 1579.77C1324.13 1534.57 1388.26 1623.19 1449.36 1525.19C1498.23 1446.8 1508.22 1373.55 1507.1 1346.72" stroke="#FFAD41" stroke-width="1.05411"/>
<path d="M-130.428 2345.33C-56.3166 2361.49 108.681 2364.77 175.784 2248.67C259.662 2103.53 410.682 2064.25 502.854 2060.19C595.026 2056.12 785.728 2008.36 858.19 1855.42C930.652 1702.48 1015.18 1617.15 1167.4 1571.94C1319.62 1526.73 1383.74 1615.35 1444.84 1517.36C1493.72 1438.96 1503.71 1365.71 1502.59 1338.89" stroke="#FFAD41" stroke-width="1.05411"/>
<path d="M-134.942 2337.5C-60.8305 2353.65 104.167 2356.94 171.27 2240.83C255.148 2095.7 406.168 2056.42 498.34 2052.35C590.512 2048.29 781.214 2000.53 853.676 1847.59C926.138 1694.65 1010.66 1609.31 1162.88 1564.11C1315.1 1518.9 1379.23 1607.52 1440.33 1509.53C1489.2 1431.13 1499.19 1357.88 1498.08 1331.05" stroke="#FFAD41" stroke-width="1.05411"/>
<path d="M-144.534 2320.85C-70.4231 2337.01 94.5747 2340.29 161.677 2224.19C245.555 2079.06 396.576 2039.77 488.748 2035.71C580.919 2031.65 771.622 1983.88 844.084 1830.94C916.545 1678 1001.07 1592.67 1153.29 1547.46C1305.51 1502.26 1369.64 1590.87 1430.73 1492.88C1479.61 1414.49 1489.6 1341.23 1488.48 1314.41" stroke="#FFAD41" stroke-width="1.05411"/>
<path d="M-199.707 2225.11C-125.595 2241.26 39.4024 2244.55 106.505 2128.44C190.383 1983.31 341.404 1944.03 433.575 1939.97C525.747 1935.9 716.449 1888.14 788.911 1735.2C861.373 1582.26 945.9 1496.92 1098.12 1451.72C1250.34 1406.51 1314.47 1495.13 1375.56 1397.14C1424.44 1318.74 1434.43 1245.49 1433.31 1218.67" stroke="#FFAD41" stroke-width="1.05411"/>
<path d="M-152.872 2306.38C-78.7612 2322.54 86.2366 2325.82 153.339 2209.72C237.217 2064.59 388.238 2025.3 480.41 2021.24C572.581 2017.18 763.284 1969.41 835.745 1816.47C908.207 1663.53 992.734 1578.2 1144.95 1532.99C1297.17 1487.79 1361.3 1576.4 1422.4 1478.41C1471.27 1400.02 1481.26 1326.76 1480.15 1299.94" stroke="#FFAD41" stroke-width="1.05411"/>
<path d="M-148.358 2314.22C-74.2468 2330.37 90.751 2333.66 157.853 2217.55C241.731 2072.42 392.752 2033.14 484.924 2029.07C577.096 2025.01 767.798 1977.25 840.26 1824.31C912.722 1671.37 997.248 1586.03 1149.47 1540.83C1301.69 1495.62 1365.81 1584.24 1426.91 1486.24C1475.79 1407.85 1485.78 1334.6 1484.66 1307.77" stroke="#FFAD41" stroke-width="1.05411"/>
<path d="M-159.079 2295.61C-84.968 2311.77 80.0298 2315.05 147.132 2198.95C231.01 2053.82 382.031 2014.53 474.203 2010.47C566.375 2006.41 757.077 1958.64 829.539 1805.7C902.001 1652.76 986.527 1567.43 1138.75 1522.22C1290.96 1477.02 1355.09 1565.63 1416.19 1467.64C1465.07 1389.25 1475.05 1315.99 1473.94 1289.17" stroke="#FFAD41" stroke-width="1.05411"/>
<path d="M-164.722 2285.82C-90.6106 2301.97 74.3872 2305.26 141.49 2189.15C225.368 2044.02 376.388 2004.74 468.56 2000.68C560.732 1996.61 751.434 1948.85 823.896 1795.91C896.358 1642.97 980.885 1557.63 1133.1 1512.43C1285.32 1467.22 1349.45 1555.84 1410.55 1457.85C1459.42 1379.45 1469.41 1306.2 1468.3 1279.38" stroke="#FFAD41" stroke-width="1.05411"/>
<path d="M-170.365 2276.03C-96.2534 2292.18 68.7444 2295.47 135.847 2179.36C219.725 2034.23 370.746 1994.95 462.917 1990.88C555.089 1986.82 745.791 1939.06 818.253 1786.12C890.715 1633.18 975.242 1547.84 1127.46 1502.64C1279.68 1457.43 1343.81 1546.05 1404.9 1448.06C1453.78 1369.66 1463.77 1296.41 1462.65 1269.58" stroke="#FFAD41" stroke-width="1.05411"/>
<path d="M-176.007 2266.24C-101.896 2282.39 63.1018 2285.68 130.204 2169.57C214.082 2024.44 365.103 1985.16 457.275 1981.09C549.447 1977.03 740.149 1929.27 812.611 1776.33C885.073 1623.39 969.599 1538.05 1121.82 1492.85C1274.04 1447.64 1338.17 1536.26 1399.26 1438.26C1448.14 1359.87 1458.13 1286.62 1457.01 1259.79" stroke="#FFAD41" stroke-width="1.05411"/>
<path d="M-182.214 2255.47C-108.103 2271.62 56.8946 2274.9 123.997 2158.8C207.875 2013.67 358.896 1974.38 451.068 1970.32C543.239 1966.26 733.942 1918.5 806.403 1765.56C878.865 1612.61 963.392 1527.28 1115.61 1482.07C1267.83 1436.87 1331.96 1525.49 1393.05 1427.49C1441.93 1349.1 1451.92 1275.85 1450.8 1249.02" stroke="#FFAD41" stroke-width="1.05411"/>
<path d="M-188.985 2243.71C-114.874 2259.87 50.1236 2263.15 117.226 2147.05C201.104 2001.92 352.125 1962.63 444.297 1958.57C536.468 1954.51 727.171 1906.75 799.632 1753.8C872.094 1600.86 956.621 1515.53 1108.84 1470.32C1261.06 1425.12 1325.19 1513.73 1386.28 1415.74C1435.16 1337.35 1445.15 1264.1 1444.03 1237.27" stroke="#FFAD41" stroke-width="1.05411"/>
<path d="M-195.757 2231.96C-121.646 2248.12 43.3521 2251.4 110.454 2135.3C194.332 1990.17 345.353 1950.88 437.525 1946.82C529.697 1942.76 720.399 1895 792.861 1742.05C865.323 1589.11 949.849 1503.78 1102.07 1458.57C1254.29 1413.37 1318.42 1501.98 1379.51 1403.99C1428.39 1325.6 1438.38 1252.35 1437.26 1225.52" stroke="#FFAD41" stroke-width="1.05411"/>
<g filter="url(#filter0_f_10_5778)">
<ellipse cx="2.63528" cy="2.10822" rx="2.63528" ry="2.10822" transform="matrix(0.866434 -0.499291 -0.499291 -0.866434 288.719 1580.06)" fill="#D9D9D9" fill-opacity="0.2"/>
</g>
<path d="M-263.749 597.598C-203.539 643.73 -55.5941 716.856 54.5063 640.299C192.132 544.603 345.525 573.258 430.678 608.77C515.831 644.282 708.744 682.135 839.358 574.516C969.971 466.897 1082.76 425.599 1239.75 449.403C1396.75 473.207 1417.11 580.682 1514.08 517.964C1591.65 467.79 1631.83 405.736 1642.23 380.981" stroke="#FFAD41" stroke-width="1.05411"/>
<path d="M-264.976 582.957C-204.766 629.09 -56.8211 702.215 53.2792 625.658C190.905 529.962 344.298 558.617 429.451 594.129C514.604 629.641 707.517 667.494 838.131 559.876C968.744 452.257 1081.53 410.959 1238.53 434.763C1395.52 458.567 1415.89 566.041 1512.85 503.324C1590.42 453.149 1630.61 391.096 1641 366.341" stroke="#FFAD41" stroke-width="1.05411"/>
<path d="M-259.496 632.399C-199.286 678.532 -51.3414 751.658 58.759 675.101C196.384 579.405 349.777 608.06 434.93 643.572C520.083 679.084 712.997 716.937 843.61 609.318C974.223 501.699 1087.01 460.401 1244.01 484.205C1401 508.009 1421.37 615.484 1518.33 552.766C1595.9 502.592 1636.09 440.538 1646.48 415.783" stroke="#FFAD41" stroke-width="1.05411"/>
<path d="M-261.389 625.753C-201.179 671.885 -53.2342 745.011 56.8661 668.454C194.492 572.758 347.884 601.413 433.037 636.925C518.191 672.437 711.104 710.29 841.717 602.671C972.331 495.053 1085.12 453.754 1242.11 477.558C1399.11 501.362 1419.47 608.837 1516.44 546.119C1594.01 495.945 1634.19 433.892 1644.59 409.137" stroke="#FFAD41" stroke-width="1.05411"/>
<path d="M-261.956 618.996C-201.746 665.129 -53.8009 738.254 56.2995 661.697C193.925 566.001 347.318 594.656 432.471 630.168C517.624 665.68 710.538 703.533 841.151 595.915C971.764 488.296 1084.55 446.998 1241.55 470.802C1398.54 494.606 1418.91 602.08 1515.87 539.363C1593.44 489.188 1633.63 427.135 1644.02 402.38" stroke="#FFAD41" stroke-width="1.05411"/>
<path d="M-262.522 612.238C-202.312 658.371 -54.367 731.497 55.7333 654.94C193.359 559.243 346.752 587.899 431.905 623.411C517.058 658.923 709.971 696.776 840.585 589.157C971.198 481.538 1083.99 440.24 1240.98 464.044C1397.98 487.848 1418.34 595.323 1515.3 532.605C1592.87 482.43 1633.06 420.377 1643.46 395.622" stroke="#FFAD41" stroke-width="1.05411"/>
<path d="M-263.088 605.481C-202.879 651.614 -54.9337 724.74 55.1667 648.183C192.792 552.487 346.185 581.142 431.338 616.654C516.491 652.166 709.405 690.019 840.018 582.4C970.631 474.781 1083.42 433.483 1240.41 457.287C1397.41 481.091 1417.78 588.566 1514.74 525.848C1592.31 475.674 1632.49 413.62 1642.89 388.865" stroke="#FFAD41" stroke-width="1.05411"/>
<path d="M-260.162 640.394C-199.952 686.526 -52.0072 759.652 58.0932 683.095C195.719 587.399 349.111 616.054 434.265 651.566C519.418 687.078 712.331 724.931 842.944 617.312C973.558 509.693 1086.35 468.395 1243.34 492.199C1400.34 516.003 1420.7 623.478 1517.66 560.76C1595.23 510.586 1635.42 448.532 1645.82 423.777" stroke="#FFAD41" stroke-width="1.05411"/>
<path d="M-264.221 591.967C-204.011 638.099 -56.0658 711.225 54.0346 634.668C191.66 538.972 345.053 567.627 430.206 603.139C515.359 638.651 708.273 676.504 838.886 568.885C969.499 461.266 1082.29 419.968 1239.28 443.772C1396.28 467.576 1416.64 575.051 1513.61 512.333C1591.18 462.159 1631.36 400.106 1641.76 375.351" stroke="#FFAD41" stroke-width="1.05411"/>
<path d="M-265.543 576.2C-205.333 622.333 -57.3878 695.458 52.7126 618.901C190.338 523.205 343.731 551.86 428.884 587.372C514.037 622.884 706.951 660.738 837.564 553.119C968.177 445.5 1080.97 404.202 1237.96 428.006C1394.96 451.81 1415.32 559.285 1512.28 496.567C1589.85 446.392 1630.04 384.339 1640.44 359.584" stroke="#FFAD41" stroke-width="1.05411"/>
<path d="M-266.203 568.316C-205.993 614.449 -58.0482 687.575 52.0522 611.018C189.678 515.322 343.07 543.977 428.224 579.489C513.377 615.001 706.29 652.854 836.903 545.235C967.517 437.616 1080.31 396.318 1237.3 420.122C1394.29 443.926 1414.66 551.401 1511.62 488.683C1589.19 438.509 1629.38 376.455 1639.78 351.7" stroke="#FFAD41" stroke-width="1.05411"/>
<path d="M-267.619 551.424C-207.409 597.556 -59.464 670.682 50.6364 594.125C188.262 498.429 341.655 527.084 426.808 562.596C511.961 598.108 704.874 635.961 835.488 528.342C966.101 420.723 1078.89 379.425 1235.88 403.229C1392.88 427.033 1413.24 534.508 1510.21 471.79C1587.78 421.616 1627.96 359.563 1638.36 334.808" stroke="#FFAD41" stroke-width="1.05411"/>
<path d="M-266.864 560.434C-206.654 606.566 -58.7091 679.692 51.3913 603.135C189.017 507.439 342.41 536.094 427.563 571.606C512.716 607.118 705.629 644.971 836.243 537.352C966.856 429.733 1079.64 388.435 1236.64 412.239C1393.63 436.043 1414 543.518 1510.96 480.8C1588.53 430.626 1628.72 368.572 1639.11 343.817" stroke="#FFAD41" stroke-width="1.05411"/>
<path d="M-273.189 484.979C-212.979 531.111 -65.0338 604.237 45.0666 527.68C182.692 431.984 336.085 460.639 421.238 496.151C506.391 531.663 699.305 569.516 829.918 461.897C960.531 354.278 1073.32 312.98 1230.31 336.784C1387.31 360.588 1407.67 468.063 1504.64 405.345C1582.21 355.171 1622.39 293.117 1632.79 268.362" stroke="#FFAD41" stroke-width="1.05411"/>
<path d="M-268.563 540.162C-208.353 586.295 -60.408 659.42 49.6923 582.863C187.318 487.167 340.711 515.822 425.864 551.334C511.017 586.846 703.93 624.699 834.544 517.081C965.157 409.462 1077.95 368.164 1234.94 391.968C1391.93 415.772 1412.3 523.247 1509.26 460.529C1586.83 410.354 1627.02 348.301 1637.42 323.546" stroke="#FFAD41" stroke-width="1.05411"/>
<path d="M-269.318 531.152C-209.108 577.285 -61.1634 650.411 48.9369 573.854C186.562 478.157 339.955 506.813 425.108 542.325C510.261 577.837 703.175 615.69 833.788 508.071C964.401 400.452 1077.19 359.154 1234.18 382.958C1391.18 406.762 1411.55 514.237 1508.51 451.519C1586.08 401.344 1626.26 339.291 1636.66 314.536" stroke="#FFAD41" stroke-width="1.05411"/>
<path d="M-270.073 522.143C-209.863 568.275 -61.9183 641.401 48.1821 564.844C185.808 469.148 339.2 497.803 424.353 533.315C509.506 568.827 702.42 606.68 833.033 499.061C963.647 391.442 1076.43 350.144 1233.43 373.948C1390.42 397.752 1410.79 505.227 1507.75 442.509C1585.32 392.335 1625.51 330.281 1635.91 305.526" stroke="#FFAD41" stroke-width="1.05411"/>
<path d="M-270.923 512.007C-210.713 558.139 -62.7679 631.265 47.3324 554.708C184.958 459.012 338.351 487.667 423.504 523.179C508.657 558.691 701.571 596.544 832.184 488.925C962.797 381.306 1075.59 340.008 1232.58 363.812C1389.58 387.616 1409.94 495.091 1506.9 432.373C1584.47 382.199 1624.66 320.146 1635.06 295.391" stroke="#FFAD41" stroke-width="1.05411"/>
<path d="M-271.678 502.997C-211.468 549.13 -63.5233 622.255 46.5771 545.698C184.203 450.002 337.595 478.657 422.748 514.169C507.901 549.681 700.815 587.534 831.428 479.916C962.042 372.297 1074.83 330.999 1231.82 354.803C1388.82 378.607 1409.19 486.081 1506.15 423.364C1583.72 373.189 1623.9 311.136 1634.3 286.381" stroke="#FFAD41" stroke-width="1.05411"/>
<path d="M-272.433 493.987C-212.223 540.12 -64.2779 613.246 45.8224 536.689C183.448 440.992 336.841 469.648 421.994 505.16C507.147 540.672 700.061 578.525 830.674 470.906C961.287 363.287 1074.08 321.989 1231.07 345.793C1388.07 369.597 1408.43 477.072 1505.39 414.354C1582.96 364.179 1623.15 302.126 1633.55 277.371" stroke="#FFAD41" stroke-width="1.05411"/>
<path d="M-274.038 474.843C-213.828 520.975 -65.8829 594.101 44.2175 517.544C181.843 421.848 335.236 450.503 420.389 486.015C505.542 521.527 698.456 559.38 829.069 451.761C959.682 344.142 1072.47 302.844 1229.47 326.648C1386.46 350.452 1406.83 457.927 1503.79 395.209C1581.36 345.035 1621.54 282.981 1631.94 258.227" stroke="#FFAD41" stroke-width="1.05411"/>
<path d="M-283.267 364.727C-223.057 410.859 -75.1121 483.985 34.9882 407.428C172.614 311.732 326.007 340.387 411.16 375.899C496.313 411.411 689.226 449.264 819.84 341.645C950.453 234.026 1063.24 192.728 1220.24 216.532C1377.23 240.336 1397.6 347.811 1494.56 285.093C1572.13 234.919 1612.32 172.865 1622.71 148.11" stroke="#FFAD41" stroke-width="1.05411"/>
<path d="M-275.433 458.201C-215.223 504.334 -67.2779 577.459 42.8224 500.902C180.448 405.206 333.841 433.861 418.994 469.373C504.147 504.885 697.061 542.739 827.674 435.12C958.287 327.501 1071.08 286.203 1228.07 310.007C1385.07 333.811 1405.43 441.286 1502.39 378.568C1579.96 328.393 1620.15 266.34 1630.55 241.585" stroke="#FFAD41" stroke-width="1.05411"/>
<path d="M-274.677 467.211C-214.467 513.343 -66.5226 586.469 43.5778 509.912C181.203 414.216 334.596 442.871 419.749 478.383C504.902 513.895 697.816 551.748 828.429 444.129C959.042 336.511 1071.83 295.212 1228.83 319.016C1385.82 342.82 1406.19 450.295 1503.15 387.577C1580.72 337.403 1620.9 275.35 1631.3 250.595" stroke="#FFAD41" stroke-width="1.05411"/>
<path d="M-276.471 445.814C-216.261 491.946 -68.3163 565.072 41.7841 488.515C179.41 392.819 332.802 421.474 417.955 456.986C503.108 492.498 696.022 530.351 826.635 422.732C957.249 315.113 1070.04 273.815 1227.03 297.619C1384.03 321.423 1404.39 428.898 1501.36 366.18C1578.93 316.006 1619.11 253.952 1629.51 229.197" stroke="#FFAD41" stroke-width="1.05411"/>
<path d="M-277.415 434.551C-217.205 480.683 -69.2599 553.809 40.8405 477.252C178.466 381.556 331.859 410.211 417.012 445.723C502.165 481.235 695.079 519.088 825.692 411.469C956.305 303.85 1069.09 262.552 1226.09 286.356C1383.08 310.16 1403.45 417.635 1500.41 354.917C1577.98 304.743 1618.17 242.689 1628.56 217.935" stroke="#FFAD41" stroke-width="1.05411"/>
<path d="M-278.359 423.289C-218.149 469.422 -70.2039 542.547 39.8964 465.99C177.522 370.294 330.915 398.949 416.068 434.461C501.221 469.973 694.134 507.826 824.748 400.208C955.361 292.589 1068.15 251.291 1225.14 275.095C1382.14 298.899 1402.5 406.373 1499.47 343.656C1577.04 293.481 1617.22 231.428 1627.62 206.673" stroke="#FFAD41" stroke-width="1.05411"/>
<path d="M-279.303 412.027C-219.093 458.16 -71.1478 531.286 38.9526 454.729C176.578 359.032 329.971 387.688 415.124 423.2C500.277 458.712 693.191 496.565 823.804 388.946C954.417 281.327 1067.21 240.029 1224.2 263.833C1381.2 287.637 1401.56 395.112 1498.52 332.394C1576.09 282.219 1616.28 220.166 1626.68 195.411" stroke="#FFAD41" stroke-width="1.05411"/>
<path d="M-280.341 399.639C-220.131 445.771 -72.1861 518.897 37.9142 442.34C175.54 346.644 328.933 375.299 414.086 410.811C499.239 446.323 692.152 484.176 822.766 376.557C953.379 268.938 1066.17 227.64 1223.16 251.444C1380.16 275.248 1400.52 382.723 1497.49 320.005C1575.06 269.831 1615.24 207.777 1625.64 183.022" stroke="#FFAD41" stroke-width="1.05411"/>
<path d="M-281.473 386.124C-221.263 432.257 -73.3184 505.382 36.7819 428.825C174.407 333.129 327.8 361.784 412.953 397.296C498.106 432.808 691.02 470.661 821.633 363.043C952.246 255.424 1065.03 214.126 1222.03 237.93C1379.02 261.734 1399.39 369.208 1496.35 306.491C1573.92 256.316 1614.11 194.263 1624.51 169.508" stroke="#FFAD41" stroke-width="1.05411"/>
<path d="M-282.607 372.61C-222.397 418.743 -74.4517 491.869 35.6486 415.312C173.274 319.615 326.667 348.271 411.82 383.783C496.973 419.295 689.887 457.148 820.5 349.529C951.113 241.91 1063.9 200.612 1220.9 224.416C1377.89 248.22 1398.26 355.695 1495.22 292.977C1572.79 242.802 1612.98 180.749 1623.37 155.994" stroke="#FFAD41" stroke-width="1.05411"/>
<g clip-path="url(#clip1_10_5778)">
<g filter="url(#filter1_dd_10_5778)">
<path d="M-710.376 3669.69C-670.383 3763.38 -544.331 3954.07 -360.064 3967.3C-129.731 3983.83 33.536 4135.21 110.631 4238.5C187.725 4341.8 391.804 4533.96 622.003 4533.14C852.202 4532.33 1015.32 4582.36 1186.24 4731.87C1357.16 4881.37 1307.23 5003.32 1466.27 5019.59C1593.49 5032.61 1684.3 5003.92 1713.81 4987.95" stroke="#FFAD41"/>
</g>
<g filter="url(#filter2_dd_10_5778)">
<path d="M-701.729 3654.32C-661.736 3748.01 -535.684 3938.7 -351.417 3951.93C-121.084 3968.46 42.1829 4119.84 119.278 4223.13C196.372 4326.43 400.451 4518.59 630.65 4517.78C860.849 4516.96 1023.97 4566.99 1194.89 4716.5C1365.8 4866 1315.88 4987.95 1474.91 5004.22C1602.14 5017.24 1692.95 4988.55 1722.45 4972.59" stroke="#FFAD41"/>
</g>
<g filter="url(#filter3_dd_10_5778)">
<path d="M-729.335 3707.3C-689.342 3800.99 -563.29 3991.68 -379.023 4004.91C-148.69 4021.44 14.5767 4172.82 91.6714 4276.11C168.766 4379.41 372.845 4571.57 603.044 4570.75C833.243 4569.94 996.365 4619.97 1167.28 4769.47C1338.2 4918.98 1288.28 5040.93 1447.31 5057.2C1574.53 5070.22 1665.34 5041.53 1694.85 5025.56" stroke="#FFAD41"/>
</g>
<g filter="url(#filter4_dd_10_5778)">
<path d="M-727.005 3699.25C-687.012 3792.94 -560.96 3983.63 -376.693 3996.86C-146.36 4013.39 16.907 4164.77 94.0017 4268.06C171.096 4371.36 375.175 4563.51 605.374 4562.7C835.573 4561.89 998.696 4611.92 1169.61 4761.42C1340.53 4910.93 1290.61 5032.88 1449.64 5049.15C1576.86 5062.17 1667.67 5033.48 1697.18 5017.51" stroke="#FFAD41"/>
</g>
<g filter="url(#filter5_dd_10_5778)">
<path d="M-723.014 3692.15C-683.021 3785.84 -556.969 3976.53 -372.702 3989.76C-142.369 4006.3 20.898 4157.67 97.9926 4260.97C175.087 4364.26 379.166 4556.42 609.365 4555.61C839.564 4554.8 1002.69 4604.83 1173.6 4754.33C1344.52 4903.83 1294.6 5025.78 1453.63 5042.06C1580.85 5055.07 1671.66 5026.39 1701.17 5010.42" stroke="#FFAD41"/>
</g>
<g filter="url(#filter6_dd_10_5778)">
<path d="M-719.023 3685.06C-679.03 3778.75 -552.978 3969.44 -368.711 3982.67C-138.378 3999.2 24.889 4150.58 101.984 4253.87C179.078 4357.17 383.157 4549.33 613.356 4548.52C843.555 4547.7 1006.68 4597.73 1177.59 4747.24C1348.51 4896.74 1298.59 5018.69 1457.62 5034.96C1584.84 5047.98 1675.66 5019.3 1705.16 5003.33" stroke="#FFAD41"/>
</g>
<g filter="url(#filter7_dd_10_5778)">
<path d="M-715.032 3677.96C-675.039 3771.66 -548.987 3962.35 -364.72 3975.57C-134.387 3992.11 28.8797 4143.49 105.974 4246.78C183.069 4350.07 387.148 4542.23 617.347 4541.42C847.546 4540.61 1010.67 4590.64 1181.58 4740.14C1352.5 4889.65 1302.58 5011.6 1461.61 5027.87C1588.83 5040.89 1679.65 5012.2 1709.15 4996.23" stroke="#FFAD41"/>
</g>
<g filter="url(#filter8_dd_10_5778)">
<path d="M-735.652 3714.61C-695.659 3808.31 -569.606 3999 -385.34 4012.23C-155.007 4028.76 8.26007 4180.14 85.3548 4283.43C162.449 4386.72 366.528 4578.88 596.727 4578.07C826.926 4577.26 990.049 4627.29 1160.97 4776.79C1331.88 4926.3 1281.96 5048.25 1440.99 5064.52C1568.21 5077.54 1659.03 5048.85 1688.53 5032.88" stroke="#FFAD41"/>
</g>
<g filter="url(#filter9_dd_10_5778)">
<path d="M-707.05 3663.78C-667.057 3757.47 -541.005 3948.16 -356.739 3961.39C-126.406 3977.92 36.8616 4129.3 113.956 4232.59C191.051 4335.89 395.129 4528.05 625.329 4527.23C855.528 4526.42 1018.65 4576.45 1189.57 4725.96C1360.48 4875.46 1310.56 4997.41 1469.59 5013.68C1596.82 5026.7 1687.63 4998.01 1717.13 4982.04" stroke="#FFAD41"/>
</g>
<g filter="url(#filter10_dd_10_5778)">
<path d="M-697.738 3647.22C-657.745 3740.92 -531.693 3931.61 -347.426 3944.83C-117.093 3961.37 46.1739 4112.75 123.269 4216.04C200.363 4319.33 404.442 4511.49 634.641 4510.68C864.84 4509.87 1027.96 4559.9 1198.88 4709.4C1369.8 4858.9 1319.87 4980.86 1478.9 4997.13C1606.13 5010.15 1696.94 4981.46 1726.44 4965.49" stroke="#FFAD41"/>
</g>
<g filter="url(#filter11_dd_10_5778)">
<path d="M-693.082 3638.95C-653.089 3732.64 -527.037 3923.33 -342.77 3936.56C-112.437 3953.1 50.8298 4104.47 127.925 4207.76C205.019 4311.06 409.098 4503.22 639.297 4502.41C869.496 4501.6 1032.62 4551.62 1203.53 4701.13C1374.45 4850.63 1324.53 4972.58 1483.56 4988.85C1610.78 5001.87 1701.6 4973.19 1731.1 4957.22" stroke="#FFAD41"/>
</g>
<g filter="url(#filter12_dd_10_5778)">
<path d="M-683.104 3621.21C-643.112 3714.91 -517.059 3905.6 -332.793 3918.82C-102.46 3935.36 60.8072 4086.74 137.902 4190.03C214.997 4293.32 419.075 4485.48 649.274 4484.67C879.473 4483.86 1042.6 4533.89 1213.51 4683.39C1384.43 4832.89 1334.51 4954.85 1493.54 4971.12C1620.76 4984.14 1711.57 4955.45 1741.08 4939.48" stroke="#FFAD41"/>
</g>
<g filter="url(#filter13_dd_10_5778)">
<path d="M-688.426 3630.67C-648.433 3724.36 -522.38 3915.05 -338.114 3928.28C-107.781 3944.82 55.4861 4096.19 132.581 4199.49C209.675 4302.78 413.754 4494.94 643.953 4494.13C874.152 4493.32 1037.27 4543.35 1208.19 4692.85C1379.11 4842.35 1329.18 4964.3 1488.22 4980.58C1615.44 4993.59 1706.25 4964.91 1735.76 4948.94" stroke="#FFAD41"/>
</g>
<g filter="url(#filter14_dd_10_5778)">
<path d="M-643.86 3551.46C-603.868 3645.15 -477.815 3835.84 -293.549 3849.07C-63.2158 3865.6 100.051 4016.98 177.146 4120.27C254.241 4223.57 458.319 4415.73 688.518 4414.92C918.717 4414.11 1081.84 4464.13 1252.76 4613.64C1423.67 4763.14 1373.75 4885.09 1532.78 4901.36C1660 4914.38 1750.82 4885.7 1780.32 4869.73" stroke="#FFAD41"/>
</g>
<g filter="url(#filter15_dd_10_5778)">
<path d="M-676.453 3609.39C-636.46 3703.08 -510.408 3893.77 -326.141 3907C-95.8083 3923.54 67.4588 4074.91 144.553 4178.21C221.648 4281.5 425.727 4473.66 655.926 4472.85C886.125 4472.04 1049.25 4522.07 1220.16 4671.57C1391.08 4821.07 1341.16 4943.02 1500.19 4959.29C1627.41 4972.31 1718.23 4943.63 1747.73 4927.66" stroke="#FFAD41"/>
</g>
<g filter="url(#filter16_dd_10_5778)">
<path d="M-671.132 3599.93C-631.139 3693.62 -505.087 3884.31 -320.82 3897.54C-90.4873 3914.08 72.7798 4065.45 149.875 4168.75C226.969 4272.04 431.048 4464.2 661.247 4463.39C891.446 4462.58 1054.57 4512.61 1225.48 4662.11C1396.4 4811.61 1346.48 4933.57 1505.51 4949.84C1632.73 4962.86 1723.55 4934.17 1753.05 4918.2" stroke="#FFAD41"/>
</g>
<g filter="url(#filter17_dd_10_5778)">
<path d="M-665.81 3590.47C-625.817 3684.17 -499.765 3874.86 -315.499 3888.08C-85.1658 3904.62 78.1014 4056 155.196 4159.29C232.291 4262.58 436.369 4454.74 666.568 4453.93C896.767 4453.12 1059.89 4503.15 1230.81 4652.65C1401.72 4802.15 1351.8 4924.11 1510.83 4940.38C1638.05 4953.4 1728.87 4924.71 1758.37 4908.74" stroke="#FFAD41"/>
</g>
<g filter="url(#filter18_dd_10_5778)">
<path d="M-659.824 3579.83C-619.831 3673.53 -493.779 3864.22 -309.512 3877.44C-79.1794 3893.98 84.0877 4045.35 161.182 4148.65C238.277 4251.94 442.356 4444.1 672.555 4443.29C902.754 4442.48 1065.88 4492.51 1236.79 4642.01C1407.71 4791.51 1357.79 4913.47 1516.82 4929.74C1644.04 4942.76 1734.85 4914.07 1764.36 4898.1" stroke="#FFAD41"/>
</g>
<g filter="url(#filter19_dd_10_5778)">
<path d="M-654.503 3570.37C-614.51 3664.07 -488.458 3854.76 -304.191 3867.98C-73.8582 3884.52 89.409 4035.9 166.504 4139.19C243.598 4242.48 447.677 4434.64 677.876 4433.83C908.075 4433.02 1071.2 4483.05 1242.11 4632.55C1413.03 4782.06 1363.11 4904.01 1522.14 4920.28C1649.36 4933.3 1740.18 4904.61 1769.68 4888.64" stroke="#FFAD41"/>
</g>
<g filter="url(#filter20_dd_10_5778)">
<path d="M-649.182 3560.92C-609.189 3654.61 -483.137 3845.3 -298.87 3858.53C-68.5371 3875.06 94.73 4026.44 171.825 4129.73C248.919 4233.03 452.998 4425.18 683.197 4424.37C913.396 4423.56 1076.52 4473.59 1247.43 4623.09C1418.35 4772.6 1368.43 4894.55 1527.46 4910.82C1654.68 4923.84 1745.5 4895.15 1775 4879.18" stroke="#FFAD41"/>
</g>
<g filter="url(#filter21_dd_10_5778)">
<path d="M-637.874 3540.82C-597.881 3634.51 -471.829 3825.2 -287.563 3838.43C-57.2295 3854.96 106.038 4006.34 183.132 4109.63C260.227 4212.93 464.305 4405.09 694.504 4404.28C924.703 4403.46 1087.83 4453.49 1258.74 4603C1429.66 4752.5 1379.74 4874.45 1538.77 4890.72C1665.99 4903.74 1756.8 4875.05 1786.31 4859.09" stroke="#FFAD41"/>
</g>
<g filter="url(#filter22_dd_10_5778)">
<path d="M-572.838 3425.22C-532.845 3518.91 -406.793 3709.6 -222.526 3722.83C7.8069 3739.36 171.074 3890.74 248.169 3994.03C325.263 4097.33 529.342 4289.49 759.541 4288.67C989.74 4287.86 1152.86 4337.89 1323.78 4487.39C1494.7 4636.9 1444.77 4758.85 1603.8 4775.12C1731.03 4788.14 1821.84 4759.45 1851.34 4743.48" stroke="#FFAD41"/>
</g>
<g filter="url(#filter23_dd_10_5778)">
<path d="M-628.045 3523.35C-588.052 3617.04 -462 3807.73 -277.734 3820.96C-47.4006 3837.49 115.867 3988.87 192.961 4092.16C270.056 4195.46 474.134 4387.62 704.333 4386.8C934.532 4385.99 1097.66 4436.02 1268.57 4585.53C1439.49 4735.03 1389.57 4856.98 1548.6 4873.25C1675.82 4886.27 1766.63 4857.58 1796.14 4841.61" stroke="#FFAD41"/>
</g>
<g filter="url(#filter24_dd_10_5778)">
<path d="M-633.367 3532.81C-593.374 3626.5 -467.322 3817.19 -283.055 3830.42C-52.7222 3846.95 110.545 3998.33 187.64 4101.62C264.734 4204.92 468.813 4397.07 699.012 4396.26C929.211 4395.45 1092.33 4445.48 1263.25 4594.98C1434.17 4744.49 1384.24 4866.44 1543.27 4882.71C1670.5 4895.73 1761.31 4867.04 1790.82 4851.07" stroke="#FFAD41"/>
</g>
<g filter="url(#filter25_dd_10_5778)">
<path d="M-620.729 3510.34C-580.736 3604.03 -454.684 3794.72 -270.417 3807.95C-40.0845 3824.49 123.183 3975.86 200.277 4079.16C277.372 4182.45 481.451 4374.61 711.65 4373.8C941.849 4372.99 1104.97 4423.02 1275.89 4572.52C1446.8 4722.02 1396.88 4843.97 1555.91 4860.25C1683.14 4873.26 1773.95 4844.58 1803.45 4828.61" stroke="#FFAD41"/>
</g>
<g filter="url(#filter26_dd_10_5778)">
<path d="M-614.077 3498.52C-574.084 3592.21 -448.032 3782.9 -263.766 3796.13C-33.4326 3812.67 129.835 3964.04 206.929 4067.33C284.024 4170.63 488.102 4362.79 718.301 4361.98C948.5 4361.17 1111.62 4411.2 1282.54 4560.7C1453.46 4710.2 1403.53 4832.15 1562.56 4848.42C1689.79 4861.44 1780.6 4832.76 1810.11 4816.79" stroke="#FFAD41"/>
</g>
<g filter="url(#filter27_dd_10_5778)">
<path d="M-607.426 3486.7C-567.433 3580.39 -441.38 3771.08 -257.114 3784.31C-26.781 3800.84 136.486 3952.22 213.581 4055.51C290.676 4158.81 494.754 4350.97 724.953 4350.15C955.152 4349.34 1118.27 4399.37 1289.19 4548.88C1460.11 4698.38 1410.18 4820.33 1569.22 4836.6C1696.44 4849.62 1787.25 4820.93 1816.76 4804.96" stroke="#FFAD41"/>
</g>
<g filter="url(#filter28_dd_10_5778)">
<path d="M-600.774 3474.87C-560.781 3568.56 -434.729 3759.25 -250.463 3772.48C-20.1296 3789.02 143.137 3940.39 220.232 4043.69C297.327 4146.98 501.405 4339.14 731.604 4338.33C961.803 4337.52 1124.93 4387.55 1295.84 4537.05C1466.76 4686.55 1416.84 4808.51 1575.87 4824.78C1703.09 4837.79 1793.9 4809.11 1823.41 4793.14" stroke="#FFAD41"/>
</g>
<g filter="url(#filter29_dd_10_5778)">
<path d="M-593.457 3461.87C-553.464 3555.56 -427.412 3746.25 -243.146 3759.48C-12.8127 3776.01 150.454 3927.39 227.549 4030.68C304.644 4133.98 508.722 4326.14 738.921 4325.33C969.12 4324.52 1132.24 4374.54 1303.16 4524.05C1474.08 4673.55 1424.15 4795.5 1583.18 4811.77C1710.41 4824.79 1801.22 4796.11 1830.73 4780.14" stroke="#FFAD41"/>
</g>
<g filter="url(#filter30_dd_10_5778)">
<path d="M-585.476 3447.68C-545.483 3541.37 -419.43 3732.06 -235.164 3745.29C-4.83105 3761.83 158.436 3913.2 235.531 4016.5C312.625 4119.79 516.704 4311.95 746.903 4311.14C977.102 4310.33 1140.22 4360.36 1311.14 4509.86C1482.06 4659.36 1432.13 4781.31 1591.17 4797.59C1718.39 4810.6 1809.2 4781.92 1838.71 4765.95" stroke="#FFAD41"/>
</g>
<g filter="url(#filter31_dd_10_5778)">
<path d="M-577.494 3433.49C-537.501 3527.19 -411.449 3717.88 -227.182 3731.1C3.15065 3747.64 166.418 3899.01 243.512 4002.31C320.607 4105.6 524.686 4297.76 754.885 4296.95C985.084 4296.14 1148.21 4346.17 1319.12 4495.67C1490.04 4645.17 1440.12 4767.13 1599.15 4783.4C1726.37 4796.42 1817.18 4767.73 1846.69 4751.76" stroke="#FFAD41"/>
</g>
<g filter="url(#filter32_dd_10_5778)">
<ellipse cx="2.90812" cy="2.03355" rx="2.90812" ry="2.03355" transform="matrix(0.865879 0.500254 0.490855 -0.871241 289.581 3683.08)" fill="#D9D9D9" fill-opacity="0.2" shape-rendering="crispEdges"/>
</g>
</g>
</g>
<defs>
<filter id="filter0_f_10_5778" x="283.218" y="1570.45" width="13.4627" height="12.9358" filterUnits="userSpaceOnUse" color-interpolation-filters="sRGB">
<feFlood flood-opacity="0" result="BackgroundImageFix"/>
<feBlend mode="normal" in="SourceGraphic" in2="BackgroundImageFix" result="shape"/>
<feGaussianBlur stdDeviation="2.10822" result="effect1_foregroundBlur_10_5778"/>
</filter>
<filter id="filter1_dd_10_5778" x="-759.533" y="3624.79" width="2522.28" height="1451.3" filterUnits="userSpaceOnUse" color-interpolation-filters="sRGB">
<feFlood flood-opacity="0" result="BackgroundImageFix"/>
<feColorMatrix in="SourceAlpha" type="matrix" values="0 0 0 0 0 0 0 0 0 0 0 0 0 0 0 0 0 0 127 0" result="hardAlpha"/>
<feMorphology radius="32" operator="dilate" in="SourceAlpha" result="effect1_dropShadow_10_5778"/>
<feOffset dy="4"/>
<feGaussianBlur stdDeviation="8.35"/>
<feComposite in2="hardAlpha" operator="out"/>
<feColorMatrix type="matrix" values="0 0 0 0 1 0 0 0 0 0.678431 0 0 0 0 0.254902 0 0 0 1 0"/>
<feBlend mode="normal" in2="BackgroundImageFix" result="effect1_dropShadow_10_5778"/>
<feColorMatrix in="SourceAlpha" type="matrix" values="0 0 0 0 0 0 0 0 0 0 0 0 0 0 0 0 0 0 127 0" result="hardAlpha"/>
<feOffset dy="2"/>
<feGaussianBlur stdDeviation="2"/>
<feComposite in2="hardAlpha" operator="out"/>
<feColorMatrix type="matrix" values="0 0 0 0 0 0 0 0 0 0 0 0 0 0 0 0 0 0 0.25 0"/>
<feBlend mode="normal" in2="effect1_dropShadow_10_5778" result="effect2_dropShadow_10_5778"/>
<feBlend mode="normal" in="SourceGraphic" in2="effect2_dropShadow_10_5778" result="shape"/>
</filter>
<filter id="filter2_dd_10_5778" x="-750.886" y="3609.42" width="2522.28" height="1451.3" filterUnits="userSpaceOnUse" color-interpolation-filters="sRGB">
<feFlood flood-opacity="0" result="BackgroundImageFix"/>
<feColorMatrix in="SourceAlpha" type="matrix" values="0 0 0 0 0 0 0 0 0 0 0 0 0 0 0 0 0 0 127 0" result="hardAlpha"/>
<feMorphology radius="32" operator="dilate" in="SourceAlpha" result="effect1_dropShadow_10_5778"/>
<feOffset dy="4"/>
<feGaussianBlur stdDeviation="8.35"/>
<feComposite in2="hardAlpha" operator="out"/>
<feColorMatrix type="matrix" values="0 0 0 0 1 0 0 0 0 0.678431 0 0 0 0 0.254902 0 0 0 1 0"/>
<feBlend mode="normal" in2="BackgroundImageFix" result="effect1_dropShadow_10_5778"/>
<feColorMatrix in="SourceAlpha" type="matrix" values="0 0 0 0 0 0 0 0 0 0 0 0 0 0 0 0 0 0 127 0" result="hardAlpha"/>
<feOffset dy="2"/>
<feGaussianBlur stdDeviation="2"/>
<feComposite in2="hardAlpha" operator="out"/>
<feColorMatrix type="matrix" values="0 0 0 0 0 0 0 0 0 0 0 0 0 0 0 0 0 0 0.25 0"/>
<feBlend mode="normal" in2="effect1_dropShadow_10_5778" result="effect2_dropShadow_10_5778"/>
<feBlend mode="normal" in="SourceGraphic" in2="effect2_dropShadow_10_5778" result="shape"/>
</filter>
<filter id="filter3_dd_10_5778" x="-778.492" y="3662.4" width="2522.28" height="1451.3" filterUnits="userSpaceOnUse" color-interpolation-filters="sRGB">
<feFlood flood-opacity="0" result="BackgroundImageFix"/>
<feColorMatrix in="SourceAlpha" type="matrix" values="0 0 0 0 0 0 0 0 0 0 0 0 0 0 0 0 0 0 127 0" result="hardAlpha"/>
<feMorphology radius="32" operator="dilate" in="SourceAlpha" result="effect1_dropShadow_10_5778"/>
<feOffset dy="4"/>
<feGaussianBlur stdDeviation="8.35"/>
<feComposite in2="hardAlpha" operator="out"/>
<feColorMatrix type="matrix" values="0 0 0 0 1 0 0 0 0 0.678431 0 0 0 0 0.254902 0 0 0 1 0"/>
<feBlend mode="normal" in2="BackgroundImageFix" result="effect1_dropShadow_10_5778"/>
<feColorMatrix in="SourceAlpha" type="matrix" values="0 0 0 0 0 0 0 0 0 0 0 0 0 0 0 0 0 0 127 0" result="hardAlpha"/>
<feOffset dy="2"/>
<feGaussianBlur stdDeviation="2"/>
<feComposite in2="hardAlpha" operator="out"/>
<feColorMatrix type="matrix" values="0 0 0 0 0 0 0 0 0 0 0 0 0 0 0 0 0 0 0.25 0"/>
<feBlend mode="normal" in2="effect1_dropShadow_10_5778" result="effect2_dropShadow_10_5778"/>
<feBlend mode="normal" in="SourceGraphic" in2="effect2_dropShadow_10_5778" result="shape"/>
</filter>
<filter id="filter4_dd_10_5778" x="-776.162" y="3654.35" width="2522.28" height="1451.3" filterUnits="userSpaceOnUse" color-interpolation-filters="sRGB">
<feFlood flood-opacity="0" result="BackgroundImageFix"/>
<feColorMatrix in="SourceAlpha" type="matrix" values="0 0 0 0 0 0 0 0 0 0 0 0 0 0 0 0 0 0 127 0" result="hardAlpha"/>
<feMorphology radius="32" operator="dilate" in="SourceAlpha" result="effect1_dropShadow_10_5778"/>
<feOffset dy="4"/>
<feGaussianBlur stdDeviation="8.35"/>
<feComposite in2="hardAlpha" operator="out"/>
<feColorMatrix type="matrix" values="0 0 0 0 1 0 0 0 0 0.678431 0 0 0 0 0.254902 0 0 0 1 0"/>
<feBlend mode="normal" in2="BackgroundImageFix" result="effect1_dropShadow_10_5778"/>
<feColorMatrix in="SourceAlpha" type="matrix" values="0 0 0 0 0 0 0 0 0 0 0 0 0 0 0 0 0 0 127 0" result="hardAlpha"/>
<feOffset dy="2"/>
<feGaussianBlur stdDeviation="2"/>
<feComposite in2="hardAlpha" operator="out"/>
<feColorMatrix type="matrix" values="0 0 0 0 0 0 0 0 0 0 0 0 0 0 0 0 0 0 0.25 0"/>
<feBlend mode="normal" in2="effect1_dropShadow_10_5778" result="effect2_dropShadow_10_5778"/>
<feBlend mode="normal" in="SourceGraphic" in2="effect2_dropShadow_10_5778" result="shape"/>
</filter>
<filter id="filter5_dd_10_5778" x="-772.171" y="3647.26" width="2522.28" height="1451.3" filterUnits="userSpaceOnUse" color-interpolation-filters="sRGB">
<feFlood flood-opacity="0" result="BackgroundImageFix"/>
<feColorMatrix in="SourceAlpha" type="matrix" values="0 0 0 0 0 0 0 0 0 0 0 0 0 0 0 0 0 0 127 0" result="hardAlpha"/>
<feMorphology radius="32" operator="dilate" in="SourceAlpha" result="effect1_dropShadow_10_5778"/>
<feOffset dy="4"/>
<feGaussianBlur stdDeviation="8.35"/>
<feComposite in2="hardAlpha" operator="out"/>
<feColorMatrix type="matrix" values="0 0 0 0 1 0 0 0 0 0.678431 0 0 0 0 0.254902 0 0 0 1 0"/>
<feBlend mode="normal" in2="BackgroundImageFix" result="effect1_dropShadow_10_5778"/>
<feColorMatrix in="SourceAlpha" type="matrix" values="0 0 0 0 0 0 0 0 0 0 0 0 0 0 0 0 0 0 127 0" result="hardAlpha"/>
<feOffset dy="2"/>
<feGaussianBlur stdDeviation="2"/>
<feComposite in2="hardAlpha" operator="out"/>
<feColorMatrix type="matrix" values="0 0 0 0 0 0 0 0 0 0 0 0 0 0 0 0 0 0 0.25 0"/>
<feBlend mode="normal" in2="effect1_dropShadow_10_5778" result="effect2_dropShadow_10_5778"/>
<feBlend mode="normal" in="SourceGraphic" in2="effect2_dropShadow_10_5778" result="shape"/>
</filter>
<filter id="filter6_dd_10_5778" x="-768.18" y="3640.16" width="2522.28" height="1451.3" filterUnits="userSpaceOnUse" color-interpolation-filters="sRGB">
<feFlood flood-opacity="0" result="BackgroundImageFix"/>
<feColorMatrix in="SourceAlpha" type="matrix" values="0 0 0 0 0 0 0 0 0 0 0 0 0 0 0 0 0 0 127 0" result="hardAlpha"/>
<feMorphology radius="32" operator="dilate" in="SourceAlpha" result="effect1_dropShadow_10_5778"/>
<feOffset dy="4"/>
<feGaussianBlur stdDeviation="8.35"/>
<feComposite in2="hardAlpha" operator="out"/>
<feColorMatrix type="matrix" values="0 0 0 0 1 0 0 0 0 0.678431 0 0 0 0 0.254902 0 0 0 1 0"/>
<feBlend mode="normal" in2="BackgroundImageFix" result="effect1_dropShadow_10_5778"/>
<feColorMatrix in="SourceAlpha" type="matrix" values="0 0 0 0 0 0 0 0 0 0 0 0 0 0 0 0 0 0 127 0" result="hardAlpha"/>
<feOffset dy="2"/>
<feGaussianBlur stdDeviation="2"/>
<feComposite in2="hardAlpha" operator="out"/>
<feColorMatrix type="matrix" values="0 0 0 0 0 0 0 0 0 0 0 0 0 0 0 0 0 0 0.25 0"/>
<feBlend mode="normal" in2="effect1_dropShadow_10_5778" result="effect2_dropShadow_10_5778"/>
<feBlend mode="normal" in="SourceGraphic" in2="effect2_dropShadow_10_5778" result="shape"/>
</filter>
<filter id="filter7_dd_10_5778" x="-764.189" y="3633.07" width="2522.28" height="1451.3" filterUnits="userSpaceOnUse" color-interpolation-filters="sRGB">
<feFlood flood-opacity="0" result="BackgroundImageFix"/>
<feColorMatrix in="SourceAlpha" type="matrix" values="0 0 0 0 0 0 0 0 0 0 0 0 0 0 0 0 0 0 127 0" result="hardAlpha"/>
<feMorphology radius="32" operator="dilate" in="SourceAlpha" result="effect1_dropShadow_10_5778"/>
<feOffset dy="4"/>
<feGaussianBlur stdDeviation="8.35"/>
<feComposite in2="hardAlpha" operator="out"/>
<feColorMatrix type="matrix" values="0 0 0 0 1 0 0 0 0 0.678431 0 0 0 0 0.254902 0 0 0 1 0"/>
<feBlend mode="normal" in2="BackgroundImageFix" result="effect1_dropShadow_10_5778"/>
<feColorMatrix in="SourceAlpha" type="matrix" values="0 0 0 0 0 0 0 0 0 0 0 0 0 0 0 0 0 0 127 0" result="hardAlpha"/>
<feOffset dy="2"/>
<feGaussianBlur stdDeviation="2"/>
<feComposite in2="hardAlpha" operator="out"/>
<feColorMatrix type="matrix" values="0 0 0 0 0 0 0 0 0 0 0 0 0 0 0 0 0 0 0.25 0"/>
<feBlend mode="normal" in2="effect1_dropShadow_10_5778" result="effect2_dropShadow_10_5778"/>
<feBlend mode="normal" in="SourceGraphic" in2="effect2_dropShadow_10_5778" result="shape"/>
</filter>
<filter id="filter8_dd_10_5778" x="-784.809" y="3669.72" width="2522.28" height="1451.3" filterUnits="userSpaceOnUse" color-interpolation-filters="sRGB">
<feFlood flood-opacity="0" result="BackgroundImageFix"/>
<feColorMatrix in="SourceAlpha" type="matrix" values="0 0 0 0 0 0 0 0 0 0 0 0 0 0 0 0 0 0 127 0" result="hardAlpha"/>
<feMorphology radius="32" operator="dilate" in="SourceAlpha" result="effect1_dropShadow_10_5778"/>
<feOffset dy="4"/>
<feGaussianBlur stdDeviation="8.35"/>
<feComposite in2="hardAlpha" operator="out"/>
<feColorMatrix type="matrix" values="0 0 0 0 1 0 0 0 0 0.678431 0 0 0 0 0.254902 0 0 0 1 0"/>
<feBlend mode="normal" in2="BackgroundImageFix" result="effect1_dropShadow_10_5778"/>
<feColorMatrix in="SourceAlpha" type="matrix" values="0 0 0 0 0 0 0 0 0 0 0 0 0 0 0 0 0 0 127 0" result="hardAlpha"/>
<feOffset dy="2"/>
<feGaussianBlur stdDeviation="2"/>
<feComposite in2="hardAlpha" operator="out"/>
<feColorMatrix type="matrix" values="0 0 0 0 0 0 0 0 0 0 0 0 0 0 0 0 0 0 0.25 0"/>
<feBlend mode="normal" in2="effect1_dropShadow_10_5778" result="effect2_dropShadow_10_5778"/>
<feBlend mode="normal" in="SourceGraphic" in2="effect2_dropShadow_10_5778" result="shape"/>
</filter>
<filter id="filter9_dd_10_5778" x="-756.207" y="3618.88" width="2522.28" height="1451.3" filterUnits="userSpaceOnUse" color-interpolation-filters="sRGB">
<feFlood flood-opacity="0" result="BackgroundImageFix"/>
<feColorMatrix in="SourceAlpha" type="matrix" values="0 0 0 0 0 0 0 0 0 0 0 0 0 0 0 0 0 0 127 0" result="hardAlpha"/>
<feMorphology radius="32" operator="dilate" in="SourceAlpha" result="effect1_dropShadow_10_5778"/>
<feOffset dy="4"/>
<feGaussianBlur stdDeviation="8.35"/>
<feComposite in2="hardAlpha" operator="out"/>
<feColorMatrix type="matrix" values="0 0 0 0 1 0 0 0 0 0.678431 0 0 0 0 0.254902 0 0 0 1 0"/>
<feBlend mode="normal" in2="BackgroundImageFix" result="effect1_dropShadow_10_5778"/>
<feColorMatrix in="SourceAlpha" type="matrix" values="0 0 0 0 0 0 0 0 0 0 0 0 0 0 0 0 0 0 127 0" result="hardAlpha"/>
<feOffset dy="2"/>
<feGaussianBlur stdDeviation="2"/>
<feComposite in2="hardAlpha" operator="out"/>
<feColorMatrix type="matrix" values="0 0 0 0 0 0 0 0 0 0 0 0 0 0 0 0 0 0 0.25 0"/>
<feBlend mode="normal" in2="effect1_dropShadow_10_5778" result="effect2_dropShadow_10_5778"/>
<feBlend mode="normal" in="SourceGraphic" in2="effect2_dropShadow_10_5778" result="shape"/>
</filter>
<filter id="filter10_dd_10_5778" x="-746.895" y="3602.33" width="2522.28" height="1451.3" filterUnits="userSpaceOnUse" color-interpolation-filters="sRGB">
<feFlood flood-opacity="0" result="BackgroundImageFix"/>
<feColorMatrix in="SourceAlpha" type="matrix" values="0 0 0 0 0 0 0 0 0 0 0 0 0 0 0 0 0 0 127 0" result="hardAlpha"/>
<feMorphology radius="32" operator="dilate" in="SourceAlpha" result="effect1_dropShadow_10_5778"/>
<feOffset dy="4"/>
<feGaussianBlur stdDeviation="8.35"/>
<feComposite in2="hardAlpha" operator="out"/>
<feColorMatrix type="matrix" values="0 0 0 0 1 0 0 0 0 0.678431 0 0 0 0 0.254902 0 0 0 1 0"/>
<feBlend mode="normal" in2="BackgroundImageFix" result="effect1_dropShadow_10_5778"/>
<feColorMatrix in="SourceAlpha" type="matrix" values="0 0 0 0 0 0 0 0 0 0 0 0 0 0 0 0 0 0 127 0" result="hardAlpha"/>
<feOffset dy="2"/>
<feGaussianBlur stdDeviation="2"/>
<feComposite in2="hardAlpha" operator="out"/>
<feColorMatrix type="matrix" values="0 0 0 0 0 0 0 0 0 0 0 0 0 0 0 0 0 0 0.25 0"/>
<feBlend mode="normal" in2="effect1_dropShadow_10_5778" result="effect2_dropShadow_10_5778"/>
<feBlend mode="normal" in="SourceGraphic" in2="effect2_dropShadow_10_5778" result="shape"/>
</filter>
<filter id="filter11_dd_10_5778" x="-742.239" y="3594.05" width="2522.28" height="1451.3" filterUnits="userSpaceOnUse" color-interpolation-filters="sRGB">
<feFlood flood-opacity="0" result="BackgroundImageFix"/>
<feColorMatrix in="SourceAlpha" type="matrix" values="0 0 0 0 0 0 0 0 0 0 0 0 0 0 0 0 0 0 127 0" result="hardAlpha"/>
<feMorphology radius="32" operator="dilate" in="SourceAlpha" result="effect1_dropShadow_10_5778"/>
<feOffset dy="4"/>
<feGaussianBlur stdDeviation="8.35"/>
<feComposite in2="hardAlpha" operator="out"/>
<feColorMatrix type="matrix" values="0 0 0 0 1 0 0 0 0 0.678431 0 0 0 0 0.254902 0 0 0 1 0"/>
<feBlend mode="normal" in2="BackgroundImageFix" result="effect1_dropShadow_10_5778"/>
<feColorMatrix in="SourceAlpha" type="matrix" values="0 0 0 0 0 0 0 0 0 0 0 0 0 0 0 0 0 0 127 0" result="hardAlpha"/>
<feOffset dy="2"/>
<feGaussianBlur stdDeviation="2"/>
<feComposite in2="hardAlpha" operator="out"/>
<feColorMatrix type="matrix" values="0 0 0 0 0 0 0 0 0 0 0 0 0 0 0 0 0 0 0.25 0"/>
<feBlend mode="normal" in2="effect1_dropShadow_10_5778" result="effect2_dropShadow_10_5778"/>
<feBlend mode="normal" in="SourceGraphic" in2="effect2_dropShadow_10_5778" result="shape"/>
</filter>
<filter id="filter12_dd_10_5778" x="-732.262" y="3576.32" width="2522.28" height="1451.3" filterUnits="userSpaceOnUse" color-interpolation-filters="sRGB">
<feFlood flood-opacity="0" result="BackgroundImageFix"/>
<feColorMatrix in="SourceAlpha" type="matrix" values="0 0 0 0 0 0 0 0 0 0 0 0 0 0 0 0 0 0 127 0" result="hardAlpha"/>
<feMorphology radius="32" operator="dilate" in="SourceAlpha" result="effect1_dropShadow_10_5778"/>
<feOffset dy="4"/>
<feGaussianBlur stdDeviation="8.35"/>
<feComposite in2="hardAlpha" operator="out"/>
<feColorMatrix type="matrix" values="0 0 0 0 1 0 0 0 0 0.678431 0 0 0 0 0.254902 0 0 0 1 0"/>
<feBlend mode="normal" in2="BackgroundImageFix" result="effect1_dropShadow_10_5778"/>
<feColorMatrix in="SourceAlpha" type="matrix" values="0 0 0 0 0 0 0 0 0 0 0 0 0 0 0 0 0 0 127 0" result="hardAlpha"/>
<feOffset dy="2"/>
<feGaussianBlur stdDeviation="2"/>
<feComposite in2="hardAlpha" operator="out"/>
<feColorMatrix type="matrix" values="0 0 0 0 0 0 0 0 0 0 0 0 0 0 0 0 0 0 0.25 0"/>
<feBlend mode="normal" in2="effect1_dropShadow_10_5778" result="effect2_dropShadow_10_5778"/>
<feBlend mode="normal" in="SourceGraphic" in2="effect2_dropShadow_10_5778" result="shape"/>
</filter>
<filter id="filter13_dd_10_5778" x="-737.583" y="3585.77" width="2522.28" height="1451.3" filterUnits="userSpaceOnUse" color-interpolation-filters="sRGB">
<feFlood flood-opacity="0" result="BackgroundImageFix"/>
<feColorMatrix in="SourceAlpha" type="matrix" values="0 0 0 0 0 0 0 0 0 0 0 0 0 0 0 0 0 0 127 0" result="hardAlpha"/>
<feMorphology radius="32" operator="dilate" in="SourceAlpha" result="effect1_dropShadow_10_5778"/>
<feOffset dy="4"/>
<feGaussianBlur stdDeviation="8.35"/>
<feComposite in2="hardAlpha" operator="out"/>
<feColorMatrix type="matrix" values="0 0 0 0 1 0 0 0 0 0.678431 0 0 0 0 0.254902 0 0 0 1 0"/>
<feBlend mode="normal" in2="BackgroundImageFix" result="effect1_dropShadow_10_5778"/>
<feColorMatrix in="SourceAlpha" type="matrix" values="0 0 0 0 0 0 0 0 0 0 0 0 0 0 0 0 0 0 127 0" result="hardAlpha"/>
<feOffset dy="2"/>
<feGaussianBlur stdDeviation="2"/>
<feComposite in2="hardAlpha" operator="out"/>
<feColorMatrix type="matrix" values="0 0 0 0 0 0 0 0 0 0 0 0 0 0 0 0 0 0 0.25 0"/>
<feBlend mode="normal" in2="effect1_dropShadow_10_5778" result="effect2_dropShadow_10_5778"/>
<feBlend mode="normal" in="SourceGraphic" in2="effect2_dropShadow_10_5778" result="shape"/>
</filter>
<filter id="filter14_dd_10_5778" x="-693.017" y="3506.56" width="2522.28" height="1451.3" filterUnits="userSpaceOnUse" color-interpolation-filters="sRGB">
<feFlood flood-opacity="0" result="BackgroundImageFix"/>
<feColorMatrix in="SourceAlpha" type="matrix" values="0 0 0 0 0 0 0 0 0 0 0 0 0 0 0 0 0 0 127 0" result="hardAlpha"/>
<feMorphology radius="32" operator="dilate" in="SourceAlpha" result="effect1_dropShadow_10_5778"/>
<feOffset dy="4"/>
<feGaussianBlur stdDeviation="8.35"/>
<feComposite in2="hardAlpha" operator="out"/>
<feColorMatrix type="matrix" values="0 0 0 0 1 0 0 0 0 0.678431 0 0 0 0 0.254902 0 0 0 1 0"/>
<feBlend mode="normal" in2="BackgroundImageFix" result="effect1_dropShadow_10_5778"/>
<feColorMatrix in="SourceAlpha" type="matrix" values="0 0 0 0 0 0 0 0 0 0 0 0 0 0 0 0 0 0 127 0" result="hardAlpha"/>
<feOffset dy="2"/>
<feGaussianBlur stdDeviation="2"/>
<feComposite in2="hardAlpha" operator="out"/>
<feColorMatrix type="matrix" values="0 0 0 0 0 0 0 0 0 0 0 0 0 0 0 0 0 0 0.25 0"/>
<feBlend mode="normal" in2="effect1_dropShadow_10_5778" result="effect2_dropShadow_10_5778"/>
<feBlend mode="normal" in="SourceGraphic" in2="effect2_dropShadow_10_5778" result="shape"/>
</filter>
<filter id="filter15_dd_10_5778" x="-725.61" y="3564.49" width="2522.28" height="1451.3" filterUnits="userSpaceOnUse" color-interpolation-filters="sRGB">
<feFlood flood-opacity="0" result="BackgroundImageFix"/>
<feColorMatrix in="SourceAlpha" type="matrix" values="0 0 0 0 0 0 0 0 0 0 0 0 0 0 0 0 0 0 127 0" result="hardAlpha"/>
<feMorphology radius="32" operator="dilate" in="SourceAlpha" result="effect1_dropShadow_10_5778"/>
<feOffset dy="4"/>
<feGaussianBlur stdDeviation="8.35"/>
<feComposite in2="hardAlpha" operator="out"/>
<feColorMatrix type="matrix" values="0 0 0 0 1 0 0 0 0 0.678431 0 0 0 0 0.254902 0 0 0 1 0"/>
<feBlend mode="normal" in2="BackgroundImageFix" result="effect1_dropShadow_10_5778"/>
<feColorMatrix in="SourceAlpha" type="matrix" values="0 0 0 0 0 0 0 0 0 0 0 0 0 0 0 0 0 0 127 0" result="hardAlpha"/>
<feOffset dy="2"/>
<feGaussianBlur stdDeviation="2"/>
<feComposite in2="hardAlpha" operator="out"/>
<feColorMatrix type="matrix" values="0 0 0 0 0 0 0 0 0 0 0 0 0 0 0 0 0 0 0.25 0"/>
<feBlend mode="normal" in2="effect1_dropShadow_10_5778" result="effect2_dropShadow_10_5778"/>
<feBlend mode="normal" in="SourceGraphic" in2="effect2_dropShadow_10_5778" result="shape"/>
</filter>
<filter id="filter16_dd_10_5778" x="-720.289" y="3555.04" width="2522.28" height="1451.3" filterUnits="userSpaceOnUse" color-interpolation-filters="sRGB">
<feFlood flood-opacity="0" result="BackgroundImageFix"/>
<feColorMatrix in="SourceAlpha" type="matrix" values="0 0 0 0 0 0 0 0 0 0 0 0 0 0 0 0 0 0 127 0" result="hardAlpha"/>
<feMorphology radius="32" operator="dilate" in="SourceAlpha" result="effect1_dropShadow_10_5778"/>
<feOffset dy="4"/>
<feGaussianBlur stdDeviation="8.35"/>
<feComposite in2="hardAlpha" operator="out"/>
<feColorMatrix type="matrix" values="0 0 0 0 1 0 0 0 0 0.678431 0 0 0 0 0.254902 0 0 0 1 0"/>
<feBlend mode="normal" in2="BackgroundImageFix" result="effect1_dropShadow_10_5778"/>
<feColorMatrix in="SourceAlpha" type="matrix" values="0 0 0 0 0 0 0 0 0 0 0 0 0 0 0 0 0 0 127 0" result="hardAlpha"/>
<feOffset dy="2"/>
<feGaussianBlur stdDeviation="2"/>
<feComposite in2="hardAlpha" operator="out"/>
<feColorMatrix type="matrix" values="0 0 0 0 0 0 0 0 0 0 0 0 0 0 0 0 0 0 0.25 0"/>
<feBlend mode="normal" in2="effect1_dropShadow_10_5778" result="effect2_dropShadow_10_5778"/>
<feBlend mode="normal" in="SourceGraphic" in2="effect2_dropShadow_10_5778" result="shape"/>
</filter>
<filter id="filter17_dd_10_5778" x="-714.967" y="3545.58" width="2522.28" height="1451.3" filterUnits="userSpaceOnUse" color-interpolation-filters="sRGB">
<feFlood flood-opacity="0" result="BackgroundImageFix"/>
<feColorMatrix in="SourceAlpha" type="matrix" values="0 0 0 0 0 0 0 0 0 0 0 0 0 0 0 0 0 0 127 0" result="hardAlpha"/>
<feMorphology radius="32" operator="dilate" in="SourceAlpha" result="effect1_dropShadow_10_5778"/>
<feOffset dy="4"/>
<feGaussianBlur stdDeviation="8.35"/>
<feComposite in2="hardAlpha" operator="out"/>
<feColorMatrix type="matrix" values="0 0 0 0 1 0 0 0 0 0.678431 0 0 0 0 0.254902 0 0 0 1 0"/>
<feBlend mode="normal" in2="BackgroundImageFix" result="effect1_dropShadow_10_5778"/>
<feColorMatrix in="SourceAlpha" type="matrix" values="0 0 0 0 0 0 0 0 0 0 0 0 0 0 0 0 0 0 127 0" result="hardAlpha"/>
<feOffset dy="2"/>
<feGaussianBlur stdDeviation="2"/>
<feComposite in2="hardAlpha" operator="out"/>
<feColorMatrix type="matrix" values="0 0 0 0 0 0 0 0 0 0 0 0 0 0 0 0 0 0 0.25 0"/>
<feBlend mode="normal" in2="effect1_dropShadow_10_5778" result="effect2_dropShadow_10_5778"/>
<feBlend mode="normal" in="SourceGraphic" in2="effect2_dropShadow_10_5778" result="shape"/>
</filter>
<filter id="filter18_dd_10_5778" x="-708.981" y="3534.94" width="2522.28" height="1451.3" filterUnits="userSpaceOnUse" color-interpolation-filters="sRGB">
<feFlood flood-opacity="0" result="BackgroundImageFix"/>
<feColorMatrix in="SourceAlpha" type="matrix" values="0 0 0 0 0 0 0 0 0 0 0 0 0 0 0 0 0 0 127 0" result="hardAlpha"/>
<feMorphology radius="32" operator="dilate" in="SourceAlpha" result="effect1_dropShadow_10_5778"/>
<feOffset dy="4"/>
<feGaussianBlur stdDeviation="8.35"/>
<feComposite in2="hardAlpha" operator="out"/>
<feColorMatrix type="matrix" values="0 0 0 0 1 0 0 0 0 0.678431 0 0 0 0 0.254902 0 0 0 1 0"/>
<feBlend mode="normal" in2="BackgroundImageFix" result="effect1_dropShadow_10_5778"/>
<feColorMatrix in="SourceAlpha" type="matrix" values="0 0 0 0 0 0 0 0 0 0 0 0 0 0 0 0 0 0 127 0" result="hardAlpha"/>
<feOffset dy="2"/>
<feGaussianBlur stdDeviation="2"/>
<feComposite in2="hardAlpha" operator="out"/>
<feColorMatrix type="matrix" values="0 0 0 0 0 0 0 0 0 0 0 0 0 0 0 0 0 0 0.25 0"/>
<feBlend mode="normal" in2="effect1_dropShadow_10_5778" result="effect2_dropShadow_10_5778"/>
<feBlend mode="normal" in="SourceGraphic" in2="effect2_dropShadow_10_5778" result="shape"/>
</filter>
<filter id="filter19_dd_10_5778" x="-703.66" y="3525.48" width="2522.28" height="1451.3" filterUnits="userSpaceOnUse" color-interpolation-filters="sRGB">
<feFlood flood-opacity="0" result="BackgroundImageFix"/>
<feColorMatrix in="SourceAlpha" type="matrix" values="0 0 0 0 0 0 0 0 0 0 0 0 0 0 0 0 0 0 127 0" result="hardAlpha"/>
<feMorphology radius="32" operator="dilate" in="SourceAlpha" result="effect1_dropShadow_10_5778"/>
<feOffset dy="4"/>
<feGaussianBlur stdDeviation="8.35"/>
<feComposite in2="hardAlpha" operator="out"/>
<feColorMatrix type="matrix" values="0 0 0 0 1 0 0 0 0 0.678431 0 0 0 0 0.254902 0 0 0 1 0"/>
<feBlend mode="normal" in2="BackgroundImageFix" result="effect1_dropShadow_10_5778"/>
<feColorMatrix in="SourceAlpha" type="matrix" values="0 0 0 0 0 0 0 0 0 0 0 0 0 0 0 0 0 0 127 0" result="hardAlpha"/>
<feOffset dy="2"/>
<feGaussianBlur stdDeviation="2"/>
<feComposite in2="hardAlpha" operator="out"/>
<feColorMatrix type="matrix" values="0 0 0 0 0 0 0 0 0 0 0 0 0 0 0 0 0 0 0.25 0"/>
<feBlend mode="normal" in2="effect1_dropShadow_10_5778" result="effect2_dropShadow_10_5778"/>
<feBlend mode="normal" in="SourceGraphic" in2="effect2_dropShadow_10_5778" result="shape"/>
</filter>
<filter id="filter20_dd_10_5778" x="-698.339" y="3516.02" width="2522.28" height="1451.3" filterUnits="userSpaceOnUse" color-interpolation-filters="sRGB">
<feFlood flood-opacity="0" result="BackgroundImageFix"/>
<feColorMatrix in="SourceAlpha" type="matrix" values="0 0 0 0 0 0 0 0 0 0 0 0 0 0 0 0 0 0 127 0" result="hardAlpha"/>
<feMorphology radius="32" operator="dilate" in="SourceAlpha" result="effect1_dropShadow_10_5778"/>
<feOffset dy="4"/>
<feGaussianBlur stdDeviation="8.35"/>
<feComposite in2="hardAlpha" operator="out"/>
<feColorMatrix type="matrix" values="0 0 0 0 1 0 0 0 0 0.678431 0 0 0 0 0.254902 0 0 0 1 0"/>
<feBlend mode="normal" in2="BackgroundImageFix" result="effect1_dropShadow_10_5778"/>
<feColorMatrix in="SourceAlpha" type="matrix" values="0 0 0 0 0 0 0 0 0 0 0 0 0 0 0 0 0 0 127 0" result="hardAlpha"/>
<feOffset dy="2"/>
<feGaussianBlur stdDeviation="2"/>
<feComposite in2="hardAlpha" operator="out"/>
<feColorMatrix type="matrix" values="0 0 0 0 0 0 0 0 0 0 0 0 0 0 0 0 0 0 0.25 0"/>
<feBlend mode="normal" in2="effect1_dropShadow_10_5778" result="effect2_dropShadow_10_5778"/>
<feBlend mode="normal" in="SourceGraphic" in2="effect2_dropShadow_10_5778" result="shape"/>
</filter>
<filter id="filter21_dd_10_5778" x="-687.031" y="3495.92" width="2522.28" height="1451.3" filterUnits="userSpaceOnUse" color-interpolation-filters="sRGB">
<feFlood flood-opacity="0" result="BackgroundImageFix"/>
<feColorMatrix in="SourceAlpha" type="matrix" values="0 0 0 0 0 0 0 0 0 0 0 0 0 0 0 0 0 0 127 0" result="hardAlpha"/>
<feMorphology radius="32" operator="dilate" in="SourceAlpha" result="effect1_dropShadow_10_5778"/>
<feOffset dy="4"/>
<feGaussianBlur stdDeviation="8.35"/>
<feComposite in2="hardAlpha" operator="out"/>
<feColorMatrix type="matrix" values="0 0 0 0 1 0 0 0 0 0.678431 0 0 0 0 0.254902 0 0 0 1 0"/>
<feBlend mode="normal" in2="BackgroundImageFix" result="effect1_dropShadow_10_5778"/>
<feColorMatrix in="SourceAlpha" type="matrix" values="0 0 0 0 0 0 0 0 0 0 0 0 0 0 0 0 0 0 127 0" result="hardAlpha"/>
<feOffset dy="2"/>
<feGaussianBlur stdDeviation="2"/>
<feComposite in2="hardAlpha" operator="out"/>
<feColorMatrix type="matrix" values="0 0 0 0 0 0 0 0 0 0 0 0 0 0 0 0 0 0 0.25 0"/>
<feBlend mode="normal" in2="effect1_dropShadow_10_5778" result="effect2_dropShadow_10_5778"/>
<feBlend mode="normal" in="SourceGraphic" in2="effect2_dropShadow_10_5778" result="shape"/>
</filter>
<filter id="filter22_dd_10_5778" x="-621.995" y="3380.32" width="2522.28" height="1451.3" filterUnits="userSpaceOnUse" color-interpolation-filters="sRGB">
<feFlood flood-opacity="0" result="BackgroundImageFix"/>
<feColorMatrix in="SourceAlpha" type="matrix" values="0 0 0 0 0 0 0 0 0 0 0 0 0 0 0 0 0 0 127 0" result="hardAlpha"/>
<feMorphology radius="32" operator="dilate" in="SourceAlpha" result="effect1_dropShadow_10_5778"/>
<feOffset dy="4"/>
<feGaussianBlur stdDeviation="8.35"/>
<feComposite in2="hardAlpha" operator="out"/>
<feColorMatrix type="matrix" values="0 0 0 0 1 0 0 0 0 0.678431 0 0 0 0 0.254902 0 0 0 1 0"/>
<feBlend mode="normal" in2="BackgroundImageFix" result="effect1_dropShadow_10_5778"/>
<feColorMatrix in="SourceAlpha" type="matrix" values="0 0 0 0 0 0 0 0 0 0 0 0 0 0 0 0 0 0 127 0" result="hardAlpha"/>
<feOffset dy="2"/>
<feGaussianBlur stdDeviation="2"/>
<feComposite in2="hardAlpha" operator="out"/>
<feColorMatrix type="matrix" values="0 0 0 0 0 0 0 0 0 0 0 0 0 0 0 0 0 0 0.25 0"/>
<feBlend mode="normal" in2="effect1_dropShadow_10_5778" result="effect2_dropShadow_10_5778"/>
<feBlend mode="normal" in="SourceGraphic" in2="effect2_dropShadow_10_5778" result="shape"/>
</filter>
<filter id="filter23_dd_10_5778" x="-677.202" y="3478.45" width="2522.28" height="1451.3" filterUnits="userSpaceOnUse" color-interpolation-filters="sRGB">
<feFlood flood-opacity="0" result="BackgroundImageFix"/>
<feColorMatrix in="SourceAlpha" type="matrix" values="0 0 0 0 0 0 0 0 0 0 0 0 0 0 0 0 0 0 127 0" result="hardAlpha"/>
<feMorphology radius="32" operator="dilate" in="SourceAlpha" result="effect1_dropShadow_10_5778"/>
<feOffset dy="4"/>
<feGaussianBlur stdDeviation="8.35"/>
<feComposite in2="hardAlpha" operator="out"/>
<feColorMatrix type="matrix" values="0 0 0 0 1 0 0 0 0 0.678431 0 0 0 0 0.254902 0 0 0 1 0"/>
<feBlend mode="normal" in2="BackgroundImageFix" result="effect1_dropShadow_10_5778"/>
<feColorMatrix in="SourceAlpha" type="matrix" values="0 0 0 0 0 0 0 0 0 0 0 0 0 0 0 0 0 0 127 0" result="hardAlpha"/>
<feOffset dy="2"/>
<feGaussianBlur stdDeviation="2"/>
<feComposite in2="hardAlpha" operator="out"/>
<feColorMatrix type="matrix" values="0 0 0 0 0 0 0 0 0 0 0 0 0 0 0 0 0 0 0.25 0"/>
<feBlend mode="normal" in2="effect1_dropShadow_10_5778" result="effect2_dropShadow_10_5778"/>
<feBlend mode="normal" in="SourceGraphic" in2="effect2_dropShadow_10_5778" result="shape"/>
</filter>
<filter id="filter24_dd_10_5778" x="-682.524" y="3487.91" width="2522.28" height="1451.3" filterUnits="userSpaceOnUse" color-interpolation-filters="sRGB">
<feFlood flood-opacity="0" result="BackgroundImageFix"/>
<feColorMatrix in="SourceAlpha" type="matrix" values="0 0 0 0 0 0 0 0 0 0 0 0 0 0 0 0 0 0 127 0" result="hardAlpha"/>
<feMorphology radius="32" operator="dilate" in="SourceAlpha" result="effect1_dropShadow_10_5778"/>
<feOffset dy="4"/>
<feGaussianBlur stdDeviation="8.35"/>
<feComposite in2="hardAlpha" operator="out"/>
<feColorMatrix type="matrix" values="0 0 0 0 1 0 0 0 0 0.678431 0 0 0 0 0.254902 0 0 0 1 0"/>
<feBlend mode="normal" in2="BackgroundImageFix" result="effect1_dropShadow_10_5778"/>
<feColorMatrix in="SourceAlpha" type="matrix" values="0 0 0 0 0 0 0 0 0 0 0 0 0 0 0 0 0 0 127 0" result="hardAlpha"/>
<feOffset dy="2"/>
<feGaussianBlur stdDeviation="2"/>
<feComposite in2="hardAlpha" operator="out"/>
<feColorMatrix type="matrix" values="0 0 0 0 0 0 0 0 0 0 0 0 0 0 0 0 0 0 0.25 0"/>
<feBlend mode="normal" in2="effect1_dropShadow_10_5778" result="effect2_dropShadow_10_5778"/>
<feBlend mode="normal" in="SourceGraphic" in2="effect2_dropShadow_10_5778" result="shape"/>
</filter>
<filter id="filter25_dd_10_5778" x="-669.886" y="3465.44" width="2522.28" height="1451.3" filterUnits="userSpaceOnUse" color-interpolation-filters="sRGB">
<feFlood flood-opacity="0" result="BackgroundImageFix"/>
<feColorMatrix in="SourceAlpha" type="matrix" values="0 0 0 0 0 0 0 0 0 0 0 0 0 0 0 0 0 0 127 0" result="hardAlpha"/>
<feMorphology radius="32" operator="dilate" in="SourceAlpha" result="effect1_dropShadow_10_5778"/>
<feOffset dy="4"/>
<feGaussianBlur stdDeviation="8.35"/>
<feComposite in2="hardAlpha" operator="out"/>
<feColorMatrix type="matrix" values="0 0 0 0 1 0 0 0 0 0.678431 0 0 0 0 0.254902 0 0 0 1 0"/>
<feBlend mode="normal" in2="BackgroundImageFix" result="effect1_dropShadow_10_5778"/>
<feColorMatrix in="SourceAlpha" type="matrix" values="0 0 0 0 0 0 0 0 0 0 0 0 0 0 0 0 0 0 127 0" result="hardAlpha"/>
<feOffset dy="2"/>
<feGaussianBlur stdDeviation="2"/>
<feComposite in2="hardAlpha" operator="out"/>
<feColorMatrix type="matrix" values="0 0 0 0 0 0 0 0 0 0 0 0 0 0 0 0 0 0 0.25 0"/>
<feBlend mode="normal" in2="effect1_dropShadow_10_5778" result="effect2_dropShadow_10_5778"/>
<feBlend mode="normal" in="SourceGraphic" in2="effect2_dropShadow_10_5778" result="shape"/>
</filter>
<filter id="filter26_dd_10_5778" x="-663.234" y="3453.62" width="2522.28" height="1451.3" filterUnits="userSpaceOnUse" color-interpolation-filters="sRGB">
<feFlood flood-opacity="0" result="BackgroundImageFix"/>
<feColorMatrix in="SourceAlpha" type="matrix" values="0 0 0 0 0 0 0 0 0 0 0 0 0 0 0 0 0 0 127 0" result="hardAlpha"/>
<feMorphology radius="32" operator="dilate" in="SourceAlpha" result="effect1_dropShadow_10_5778"/>
<feOffset dy="4"/>
<feGaussianBlur stdDeviation="8.35"/>
<feComposite in2="hardAlpha" operator="out"/>
<feColorMatrix type="matrix" values="0 0 0 0 1 0 0 0 0 0.678431 0 0 0 0 0.254902 0 0 0 1 0"/>
<feBlend mode="normal" in2="BackgroundImageFix" result="effect1_dropShadow_10_5778"/>
<feColorMatrix in="SourceAlpha" type="matrix" values="0 0 0 0 0 0 0 0 0 0 0 0 0 0 0 0 0 0 127 0" result="hardAlpha"/>
<feOffset dy="2"/>
<feGaussianBlur stdDeviation="2"/>
<feComposite in2="hardAlpha" operator="out"/>
<feColorMatrix type="matrix" values="0 0 0 0 0 0 0 0 0 0 0 0 0 0 0 0 0 0 0.25 0"/>
<feBlend mode="normal" in2="effect1_dropShadow_10_5778" result="effect2_dropShadow_10_5778"/>
<feBlend mode="normal" in="SourceGraphic" in2="effect2_dropShadow_10_5778" result="shape"/>
</filter>
<filter id="filter27_dd_10_5778" x="-656.583" y="3441.8" width="2522.28" height="1451.3" filterUnits="userSpaceOnUse" color-interpolation-filters="sRGB">
<feFlood flood-opacity="0" result="BackgroundImageFix"/>
<feColorMatrix in="SourceAlpha" type="matrix" values="0 0 0 0 0 0 0 0 0 0 0 0 0 0 0 0 0 0 127 0" result="hardAlpha"/>
<feMorphology radius="32" operator="dilate" in="SourceAlpha" result="effect1_dropShadow_10_5778"/>
<feOffset dy="4"/>
<feGaussianBlur stdDeviation="8.35"/>
<feComposite in2="hardAlpha" operator="out"/>
<feColorMatrix type="matrix" values="0 0 0 0 1 0 0 0 0 0.678431 0 0 0 0 0.254902 0 0 0 1 0"/>
<feBlend mode="normal" in2="BackgroundImageFix" result="effect1_dropShadow_10_5778"/>
<feColorMatrix in="SourceAlpha" type="matrix" values="0 0 0 0 0 0 0 0 0 0 0 0 0 0 0 0 0 0 127 0" result="hardAlpha"/>
<feOffset dy="2"/>
<feGaussianBlur stdDeviation="2"/>
<feComposite in2="hardAlpha" operator="out"/>
<feColorMatrix type="matrix" values="0 0 0 0 0 0 0 0 0 0 0 0 0 0 0 0 0 0 0.25 0"/>
<feBlend mode="normal" in2="effect1_dropShadow_10_5778" result="effect2_dropShadow_10_5778"/>
<feBlend mode="normal" in="SourceGraphic" in2="effect2_dropShadow_10_5778" result="shape"/>
</filter>
<filter id="filter28_dd_10_5778" x="-649.931" y="3429.98" width="2522.28" height="1451.3" filterUnits="userSpaceOnUse" color-interpolation-filters="sRGB">
<feFlood flood-opacity="0" result="BackgroundImageFix"/>
<feColorMatrix in="SourceAlpha" type="matrix" values="0 0 0 0 0 0 0 0 0 0 0 0 0 0 0 0 0 0 127 0" result="hardAlpha"/>
<feMorphology radius="32" operator="dilate" in="SourceAlpha" result="effect1_dropShadow_10_5778"/>
<feOffset dy="4"/>
<feGaussianBlur stdDeviation="8.35"/>
<feComposite in2="hardAlpha" operator="out"/>
<feColorMatrix type="matrix" values="0 0 0 0 1 0 0 0 0 0.678431 0 0 0 0 0.254902 0 0 0 1 0"/>
<feBlend mode="normal" in2="BackgroundImageFix" result="effect1_dropShadow_10_5778"/>
<feColorMatrix in="SourceAlpha" type="matrix" values="0 0 0 0 0 0 0 0 0 0 0 0 0 0 0 0 0 0 127 0" result="hardAlpha"/>
<feOffset dy="2"/>
<feGaussianBlur stdDeviation="2"/>
<feComposite in2="hardAlpha" operator="out"/>
<feColorMatrix type="matrix" values="0 0 0 0 0 0 0 0 0 0 0 0 0 0 0 0 0 0 0.25 0"/>
<feBlend mode="normal" in2="effect1_dropShadow_10_5778" result="effect2_dropShadow_10_5778"/>
<feBlend mode="normal" in="SourceGraphic" in2="effect2_dropShadow_10_5778" result="shape"/>
</filter>
<filter id="filter29_dd_10_5778" x="-642.614" y="3416.97" width="2522.28" height="1451.3" filterUnits="userSpaceOnUse" color-interpolation-filters="sRGB">
<feFlood flood-opacity="0" result="BackgroundImageFix"/>
<feColorMatrix in="SourceAlpha" type="matrix" values="0 0 0 0 0 0 0 0 0 0 0 0 0 0 0 0 0 0 127 0" result="hardAlpha"/>
<feMorphology radius="32" operator="dilate" in="SourceAlpha" result="effect1_dropShadow_10_5778"/>
<feOffset dy="4"/>
<feGaussianBlur stdDeviation="8.35"/>
<feComposite in2="hardAlpha" operator="out"/>
<feColorMatrix type="matrix" values="0 0 0 0 1 0 0 0 0 0.678431 0 0 0 0 0.254902 0 0 0 1 0"/>
<feBlend mode="normal" in2="BackgroundImageFix" result="effect1_dropShadow_10_5778"/>
<feColorMatrix in="SourceAlpha" type="matrix" values="0 0 0 0 0 0 0 0 0 0 0 0 0 0 0 0 0 0 127 0" result="hardAlpha"/>
<feOffset dy="2"/>
<feGaussianBlur stdDeviation="2"/>
<feComposite in2="hardAlpha" operator="out"/>
<feColorMatrix type="matrix" values="0 0 0 0 0 0 0 0 0 0 0 0 0 0 0 0 0 0 0.25 0"/>
<feBlend mode="normal" in2="effect1_dropShadow_10_5778" result="effect2_dropShadow_10_5778"/>
<feBlend mode="normal" in="SourceGraphic" in2="effect2_dropShadow_10_5778" result="shape"/>
</filter>
<filter id="filter30_dd_10_5778" x="-634.633" y="3402.78" width="2522.28" height="1451.3" filterUnits="userSpaceOnUse" color-interpolation-filters="sRGB">
<feFlood flood-opacity="0" result="BackgroundImageFix"/>
<feColorMatrix in="SourceAlpha" type="matrix" values="0 0 0 0 0 0 0 0 0 0 0 0 0 0 0 0 0 0 127 0" result="hardAlpha"/>
<feMorphology radius="32" operator="dilate" in="SourceAlpha" result="effect1_dropShadow_10_5778"/>
<feOffset dy="4"/>
<feGaussianBlur stdDeviation="8.35"/>
<feComposite in2="hardAlpha" operator="out"/>
<feColorMatrix type="matrix" values="0 0 0 0 1 0 0 0 0 0.678431 0 0 0 0 0.254902 0 0 0 1 0"/>
<feBlend mode="normal" in2="BackgroundImageFix" result="effect1_dropShadow_10_5778"/>
<feColorMatrix in="SourceAlpha" type="matrix" values="0 0 0 0 0 0 0 0 0 0 0 0 0 0 0 0 0 0 127 0" result="hardAlpha"/>
<feOffset dy="2"/>
<feGaussianBlur stdDeviation="2"/>
<feComposite in2="hardAlpha" operator="out"/>
<feColorMatrix type="matrix" values="0 0 0 0 0 0 0 0 0 0 0 0 0 0 0 0 0 0 0.25 0"/>
<feBlend mode="normal" in2="effect1_dropShadow_10_5778" result="effect2_dropShadow_10_5778"/>
<feBlend mode="normal" in="SourceGraphic" in2="effect2_dropShadow_10_5778" result="shape"/>
</filter>
<filter id="filter31_dd_10_5778" x="-626.651" y="3388.6" width="2522.28" height="1451.3" filterUnits="userSpaceOnUse" color-interpolation-filters="sRGB">
<feFlood flood-opacity="0" result="BackgroundImageFix"/>
<feColorMatrix in="SourceAlpha" type="matrix" values="0 0 0 0 0 0 0 0 0 0 0 0 0 0 0 0 0 0 127 0" result="hardAlpha"/>
<feMorphology radius="32" operator="dilate" in="SourceAlpha" result="effect1_dropShadow_10_5778"/>
<feOffset dy="4"/>
<feGaussianBlur stdDeviation="8.35"/>
<feComposite in2="hardAlpha" operator="out"/>
<feColorMatrix type="matrix" values="0 0 0 0 1 0 0 0 0 0.678431 0 0 0 0 0.254902 0 0 0 1 0"/>
<feBlend mode="normal" in2="BackgroundImageFix" result="effect1_dropShadow_10_5778"/>
<feColorMatrix in="SourceAlpha" type="matrix" values="0 0 0 0 0 0 0 0 0 0 0 0 0 0 0 0 0 0 127 0" result="hardAlpha"/>
<feOffset dy="2"/>
<feGaussianBlur stdDeviation="2"/>
<feComposite in2="hardAlpha" operator="out"/>
<feColorMatrix type="matrix" values="0 0 0 0 0 0 0 0 0 0 0 0 0 0 0 0 0 0 0.25 0"/>
<feBlend mode="normal" in2="effect1_dropShadow_10_5778" result="effect2_dropShadow_10_5778"/>
<feBlend mode="normal" in="SourceGraphic" in2="effect2_dropShadow_10_5778" result="shape"/>
</filter>
<filter id="filter32_dd_10_5778" x="241.688" y="3635.77" width="102.819" height="101.986" filterUnits="userSpaceOnUse" color-interpolation-filters="sRGB">
<feFlood flood-opacity="0" result="BackgroundImageFix"/>
<feColorMatrix in="SourceAlpha" type="matrix" values="0 0 0 0 0 0 0 0 0 0 0 0 0 0 0 0 0 0 127 0" result="hardAlpha"/>
<feMorphology radius="32" operator="dilate" in="SourceAlpha" result="effect1_dropShadow_10_5778"/>
<feOffset dy="4"/>
<feGaussianBlur stdDeviation="8.35"/>
<feComposite in2="hardAlpha" operator="out"/>
<feColorMatrix type="matrix" values="0 0 0 0 1 0 0 0 0 0.678431 0 0 0 0 0.254902 0 0 0 1 0"/>
<feBlend mode="normal" in2="BackgroundImageFix" result="effect1_dropShadow_10_5778"/>
<feColorMatrix in="SourceAlpha" type="matrix" values="0 0 0 0 0 0 0 0 0 0 0 0 0 0 0 0 0 0 127 0" result="hardAlpha"/>
<feOffset dy="2"/>
<feGaussianBlur stdDeviation="2"/>
<feComposite in2="hardAlpha" operator="out"/>
<feColorMatrix type="matrix" values="0 0 0 0 0 0 0 0 0 0 0 0 0 0 0 0 0 0 0.25 0"/>
<feBlend mode="normal" in2="effect1_dropShadow_10_5778" result="effect2_dropShadow_10_5778"/>
<feBlend mode="normal" in="SourceGraphic" in2="effect2_dropShadow_10_5778" result="shape"/>
</filter>
<clipPath id="clip0_10_5778">
<rect width="1440" height="5196" fill="white"/>
</clipPath>
<clipPath id="clip1_10_5778">
<rect width="2373.73" height="538.71" fill="white" transform="matrix(0.869616 0.493729 0.493729 -0.869616 -624 3967.47)"/>
</clipPath>
</defs>
</svg>
