<svg width="1440" height="5196" viewBox="0 0 1440 5196" fill="none" xmlns="http://www.w3.org/2000/svg">
<g clip-path="url(#clip0_10_5778)">
<rect width="1440" height="5196" fill="#2F365B"/>
<path d="M-83.0286 2427.58C-8.91746 2443.74 156.08 2447.02 223.183 2330.92C307.061 2185.79 458.082 2146.5 550.253 2142.44C642.425 2138.38 833.127 2090.62 905.589 1937.67C978.051 1784.73 1062.58 1699.4 1214.8 1654.19C1367.01 1608.99 1431.14 1697.6 1492.24 1599.61C1541.12 1521.22 1551.1 1447.97 1549.99 1421.14" stroke="#FFAD41" stroke-width="1.05411"/>
<path d="M-90.3643 2414.85C-16.2532 2431.01 148.745 2434.29 215.847 2318.19C299.725 2173.06 450.746 2133.77 542.918 2129.71C635.089 2125.65 825.792 2077.89 898.254 1924.95C970.715 1772 1055.24 1686.67 1207.46 1641.46C1359.68 1596.26 1423.81 1684.88 1484.9 1586.88C1533.78 1508.49 1543.77 1435.24 1542.65 1408.41" stroke="#FFAD41" stroke-width="1.05411"/>
<path d="M-64.3826 2457.28C9.72853 2473.43 174.726 2476.71 241.829 2360.61C325.707 2215.48 476.728 2176.19 568.899 2172.13C661.071 2168.07 851.773 2120.31 924.235 1967.37C996.697 1814.43 1081.22 1729.09 1233.44 1683.88C1385.66 1638.68 1449.79 1727.3 1510.89 1629.3C1559.76 1550.91 1569.75 1477.66 1568.63 1450.83" stroke="#FFAD41" stroke-width="1.05411"/>
<path d="M-68.9216 2452.06C5.18947 2468.22 170.187 2471.5 237.29 2355.4C321.168 2210.27 472.188 2170.98 564.36 2166.92C656.532 2162.86 847.234 2115.1 919.696 1962.16C992.158 1809.21 1076.68 1723.88 1228.9 1678.67C1381.12 1633.47 1445.25 1722.09 1506.35 1624.09C1555.22 1545.7 1565.21 1472.45 1564.1 1445.62" stroke="#FFAD41" stroke-width="1.05411"/>
<path d="M-72.3074 2446.19C1.80373 2462.34 166.802 2465.63 233.904 2349.52C317.782 2204.39 468.803 2165.11 560.974 2161.05C653.146 2156.98 843.849 2109.22 916.31 1956.28C988.772 1803.34 1073.3 1718 1225.52 1672.8C1377.74 1627.59 1441.87 1716.21 1502.96 1618.22C1551.84 1539.82 1561.83 1466.57 1560.71 1439.75" stroke="#FFAD41" stroke-width="1.05411"/>
<path d="M-75.6931 2440.31C-1.58201 2456.47 163.416 2459.75 230.518 2343.65C314.396 2198.52 465.417 2159.23 557.589 2155.17C649.761 2151.11 840.463 2103.35 912.925 1950.4C985.387 1797.46 1069.91 1712.13 1222.13 1666.92C1374.35 1621.72 1438.48 1710.33 1499.58 1612.34C1548.45 1533.95 1558.44 1460.7 1557.32 1433.87" stroke="#FFAD41" stroke-width="1.05411"/>
<path d="M-79.0789 2434.44C-4.96776 2450.59 160.03 2453.88 227.132 2337.77C311.01 2192.64 462.031 2153.36 554.203 2149.29C646.375 2145.23 837.077 2097.47 909.539 1944.53C982.001 1791.59 1066.53 1706.25 1218.75 1661.05C1370.96 1615.84 1435.09 1704.46 1496.19 1606.47C1545.07 1528.07 1555.05 1454.82 1553.94 1427.99" stroke="#FFAD41" stroke-width="1.05411"/>
<path d="M-61.5862 2464.79C12.5249 2480.95 177.523 2484.23 244.625 2368.13C328.503 2223 479.524 2183.71 571.696 2179.65C663.867 2175.59 854.57 2127.83 927.032 1974.88C999.493 1821.94 1084.02 1736.61 1236.24 1691.4C1388.46 1646.2 1452.59 1734.81 1513.68 1636.82C1562.56 1558.43 1572.55 1485.18 1571.43 1458.35" stroke="#FFAD41" stroke-width="1.05411"/>
<path d="M-85.8499 2422.69C-11.7388 2438.84 153.259 2442.13 220.361 2326.02C304.239 2180.89 455.26 2141.61 547.432 2137.54C639.604 2133.48 830.306 2085.72 902.768 1932.78C975.23 1779.84 1059.76 1694.5 1211.97 1649.3C1364.19 1604.09 1428.32 1692.71 1489.42 1594.72C1538.29 1516.32 1548.28 1443.07 1547.17 1416.24" stroke="#FFAD41" stroke-width="1.05411"/>
<path d="M-93.75 2408.98C-19.6389 2425.13 145.359 2428.42 212.461 2312.31C296.339 2167.18 447.36 2127.9 539.532 2123.84C631.704 2119.77 822.406 2072.01 894.868 1919.07C967.33 1766.13 1051.86 1680.79 1204.07 1635.59C1356.29 1590.38 1420.42 1679 1481.52 1581.01C1530.39 1502.61 1540.38 1429.36 1539.27 1402.54" stroke="#FFAD41" stroke-width="1.05411"/>
<path d="M-97.6997 2402.13C-23.5886 2418.28 141.409 2421.56 208.512 2305.46C292.39 2160.33 443.41 2121.04 535.582 2116.98C627.754 2112.92 818.456 2065.16 890.918 1912.22C963.38 1759.27 1047.91 1673.94 1200.13 1628.73C1352.34 1583.53 1416.47 1672.15 1477.57 1574.15C1526.44 1495.76 1536.43 1422.51 1535.32 1395.68" stroke="#FFAD41" stroke-width="1.05411"/>
<path d="M-106.164 2387.44C-32.0525 2403.59 132.945 2406.88 200.048 2290.77C283.926 2145.64 434.947 2106.36 527.118 2102.29C619.29 2098.23 809.992 2050.47 882.454 1897.53C954.916 1744.59 1039.44 1659.25 1191.66 1614.05C1343.88 1568.84 1408.01 1657.46 1469.1 1559.47C1517.98 1481.07 1527.97 1407.82 1526.85 1380.99" stroke="#FFAD41" stroke-width="1.05411"/>
<path d="M-101.65 2395.27C-27.5386 2411.43 137.459 2414.71 204.562 2298.61C288.44 2153.47 439.46 2114.19 531.632 2110.13C623.804 2106.06 814.506 2058.3 886.968 1905.36C959.43 1752.42 1043.96 1667.09 1196.18 1621.88C1348.39 1576.68 1412.52 1665.29 1473.62 1567.3C1522.5 1488.9 1532.48 1415.65 1531.37 1388.83" stroke="#FFAD41" stroke-width="1.05411"/>
<path d="M-139.456 2329.67C-65.345 2345.82 99.6529 2349.1 166.755 2233C250.633 2087.87 401.654 2048.58 493.826 2044.52C585.998 2040.46 776.7 1992.7 849.162 1839.76C921.624 1686.81 1006.15 1601.48 1158.37 1556.27C1310.59 1511.07 1374.72 1599.69 1435.81 1501.69C1484.69 1423.3 1494.68 1350.05 1493.56 1323.22" stroke="#FFAD41" stroke-width="1.05411"/>
<path d="M-111.806 2377.65C-37.6951 2393.8 127.303 2397.08 194.405 2280.98C278.283 2135.85 429.304 2096.57 521.476 2092.5C613.647 2088.44 804.35 2040.68 876.812 1887.74C949.274 1734.8 1033.8 1649.46 1186.02 1604.25C1338.24 1559.05 1402.37 1647.67 1463.46 1549.67C1512.34 1471.28 1522.33 1398.03 1521.21 1371.2" stroke="#FFAD41" stroke-width="1.05411"/>
<path d="M-116.321 2369.81C-42.2095 2385.97 122.788 2389.25 189.891 2273.15C273.769 2128.01 424.79 2088.73 516.961 2084.67C609.133 2080.6 799.835 2032.84 872.297 1879.9C944.759 1726.96 1029.29 1641.63 1181.5 1596.42C1333.72 1551.22 1397.85 1639.83 1458.95 1541.84C1507.82 1463.44 1517.81 1390.19 1516.7 1363.37" stroke="#FFAD41" stroke-width="1.05411"/>
<path d="M-120.835 2361.98C-46.7236 2378.13 118.274 2381.42 185.377 2265.31C269.255 2120.18 420.275 2080.9 512.447 2076.83C604.619 2072.77 795.321 2025.01 867.783 1872.07C940.245 1719.13 1024.77 1633.79 1176.99 1588.59C1329.21 1543.38 1393.34 1632 1454.43 1534.01C1503.31 1455.61 1513.3 1382.36 1512.18 1355.53" stroke="#FFAD41" stroke-width="1.05411"/>
<path d="M-125.913 2353.17C-51.802 2369.32 113.196 2372.6 180.298 2256.5C264.176 2111.37 415.197 2072.08 507.369 2068.02C599.541 2063.96 790.243 2016.2 862.705 1863.26C935.167 1710.31 1019.69 1624.98 1171.91 1579.77C1324.13 1534.57 1388.26 1623.19 1449.36 1525.19C1498.23 1446.8 1508.22 1373.55 1507.1 1346.72" stroke="#FFAD41" stroke-width="1.05411"/>
<path d="M-130.428 2345.33C-56.3166 2361.49 108.681 2364.77 175.784 2248.67C259.662 2103.53 410.682 2064.25 502.854 2060.19C595.026 2056.12 785.728 2008.36 858.19 1855.42C930.652 1702.48 1015.18 1617.15 1167.4 1571.94C1319.62 1526.73 1383.74 1615.35 1444.84 1517.36C1493.72 1438.96 1503.71 1365.71 1502.59 1338.89" stroke="#FFAD41" stroke-width="1.05411"/>
<path d="M-134.942 2337.5C-60.8305 2353.65 104.167 2356.94 171.27 2240.83C255.148 2095.7 406.168 2056.42 498.34 2052.35C590.512 2048.29 781.214 2000.53 853.676 1847.59C926.138 1694.65 1010.66 1609.31 1162.88 1564.11C1315.1 1518.9 1379.23 1607.52 1440.33 1509.53C1489.2 1431.13 1499.19 1357.88 1498.08 1331.05" stroke="#FFAD41" stroke-width="1.05411"/>
<path d="M-144.534 2320.85C-70.4231 2337.01 94.5747 2340.29 161.677 2224.19C245.555 2079.06 396.576 2039.77 488.748 2035.71C580.919 2031.65 771.622 1983.88 844.084 1830.94C916.545 1678 1001.07 1592.67 1153.29 1547.46C1305.51 1502.26 1369.64 1590.87 1430.73 1492.88C1479.61 1414.49 1489.6 1341.23 1488.48 1314.41" stroke="#FFAD41" stroke-width="1.05411"/>
<path d="M-199.707 2225.11C-125.595 2241.26 39.4024 2244.55 106.505 2128.44C190.383 1983.31 341.404 1944.03 433.575 1939.97C525.747 1935.9 716.449 1888.14 788.911 1735.2C861.373 1582.26 945.9 1496.92 1098.12 1451.72C1250.34 1406.51 1314.47 1495.13 1375.56 1397.14C1424.44 1318.74 1434.43 1245.49 1433.31 1218.67" stroke="#FFAD41" stroke-width="1.05411"/>
<path d="M-152.872 2306.38C-78.7612 2322.54 86.2366 2325.82 153.339 2209.72C237.217 2064.59 388.238 2025.3 480.41 2021.24C572.581 2017.18 763.284 1969.41 835.745 1816.47C908.207 1663.53 992.734 1578.2 1144.95 1532.99C1297.17 1487.79 1361.3 1576.4 1422.4 1478.41C1471.27 1400.02 1481.26 1326.76 1480.15 1299.94" stroke="#FFAD41" stroke-width="1.05411"/>
<path d="M-148.358 2314.22C-74.2468 2330.37 90.751 2333.66 157.853 2217.55C241.731 2072.42 392.752 2033.14 484.924 2029.07C577.096 2025.01 767.798 1977.25 840.26 1824.31C912.722 1671.37 997.248 1586.03 1149.47 1540.83C1301.69 1495.62 1365.81 1584.24 1426.91 1486.24C1475.79 1407.85 1485.78 1334.6 1484.66 1307.77" stroke="#FFAD41" stroke-width="1.05411"/>
<path d="M-159.079 2295.61C-84.968 2311.77 80.0298 2315.05 147.132 2198.95C231.01 2053.82 382.031 2014.53 474.203 2010.47C566.375 2006.41 757.077 1958.64 829.539 1805.7C902.001 1652.76 986.527 1567.43 1138.75 1522.22C1290.96 1477.02 1355.09 1565.63 1416.19 1467.64C1465.07 1389.25 1475.05 1315.99 1473.94 1289.17" stroke="#FFAD41" stroke-width="1.05411"/>
<path d="M-164.722 2285.82C-90.6106 2301.97 74.3872 2305.26 141.49 2189.15C225.368 2044.02 376.388 2004.74 468.56 2000.68C560.732 1996.61 751.434 1948.85 823.896 1795.91C896.358 1642.97 980.885 1557.63 1133.1 1512.43C1285.32 1467.22 1349.45 1555.84 1410.55 1457.85C1459.42 1379.45 1469.41 1306.2 1468.3 1279.38" stroke="#FFAD41" stroke-width="1.05411"/>
<path d="M-170.365 2276.03C-96.2534 2292.18 68.7444 2295.47 135.847 2179.36C219.725 2034.23 370.746 1994.95 462.917 1990.88C555.089 1986.82 745.791 1939.06 818.253 1786.12C890.715 1633.18 975.242 1547.84 1127.46 1502.64C1279.68 1457.43 1343.81 1546.05 1404.9 1448.06C1453.78 1369.66 1463.77 1296.41 1462.65 1269.58" stroke="#FFAD41" stroke-width="1.05411"/>
<path d="M-176.007 2266.24C-101.896 2282.39 63.1018 2285.68 130.204 2169.57C214.082 2024.44 365.103 1985.16 457.275 1981.09C549.447 1977.03 740.149 1929.27 812.611 1776.33C885.073 1623.39 969.599 1538.05 1121.82 1492.85C1274.04 1447.64 1338.17 1536.26 1399.26 1438.26C1448.14 1359.87 1458.13 1286.62 1457.01 1259.79" stroke="#FFAD41" stroke-width="1.05411"/>
<path d="M-182.214 2255.47C-108.103 2271.62 56.8946 2274.9 123.997 2158.8C207.875 2013.67 358.896 1974.38 451.068 1970.32C543.239 1966.26 733.942 1918.5 806.403 1765.56C878.865 1612.61 963.392 1527.28 1115.61 1482.07C1267.83 1436.87 1331.96 1525.49 1393.05 1427.49C1441.93 1349.1 1451.92 1275.85 1450.8 1249.02" stroke="#FFAD41" stroke-width="1.05411"/>
<path d="M-188.985 2243.71C-114.874 2259.87 50.1236 2263.15 117.226 2147.05C201.104 2001.92 352.125 1962.63 444.297 1958.57C536.468 1954.51 727.171 1906.75 799.632 1753.8C872.094 1600.86 956.621 1515.53 1108.84 1470.32C1261.06 1425.12 1325.19 1513.73 1386.28 1415.74C1435.16 1337.35 1445.15 1264.1 1444.03 1237.27" stroke="#FFAD41" stroke-width="1.05411"/>
<path d="M-195.757 2231.96C-121.646 2248.12 43.3521 2251.4 110.454 2135.3C194.332 1990.17 345.353 1950.88 437.525 1946.82C529.697 1942.76 720.399 1895 792.861 1742.05C865.323 1589.11 949.849 1503.78 1102.07 1458.57C1254.29 1413.37 1318.42 1501.98 1379.51 1403.99C1428.39 1325.6 1438.38 1252.35 1437.26 1225.52" stroke="#FFAD41" stroke-width="1.05411"/>
<g filter="url(#filter0_f_10_5778)">
<ellipse cx="2.63528" cy="2.10822" rx="2.63528" ry="2.10822" transform="matrix(0.866434 -0.499291 -0.499291 -0.866434 288.719 1580.06)" fill="#D9D9D9" fill-opacity="0.2"/>
</g>
<path d="M-263.749 597.598C-203.539 643.73 -55.5941 716.856 54.5063 640.299C192.132 544.603 345.525 573.258 430.678 608.77C515.831 644.282 708.744 682.135 839.358 574.516C969.971 466.897 1082.76 425.599 1239.75 449.403C1396.75 473.207 1417.11 580.682 1514.08 517.964C1591.65 467.79 1631.83 405.736 1642.23 380.981" stroke="#FFAD41" stroke-width="1.05411"/>
<path d="M-264.976 582.957C-204.766 629.09 -56.8211 702.215 53.2792 625.658C190.905 529.962 344.298 558.617 429.451 594.129C514.604 629.641 707.517 667.494 838.131 559.876C968.744 452.257 1081.53 410.959 1238.53 434.763C1395.52 458.567 1415.89 566.041 1512.85 503.324C1590.42 453.149 1630.61 391.096 1641 366.341" stroke="#FFAD41" stroke-width="1.05411"/>
<path d="M-259.496 632.399C-199.286 678.532 -51.3414 751.658 58.759 675.101C196.384 579.405 349.777 608.06 434.93 643.572C520.083 679.084 712.997 716.937 843.61 609.318C974.223 501.699 1087.01 460.401 1244.01 484.205C1401 508.009 1421.37 615.484 1518.33 552.766C1595.9 502.592 1636.09 440.538 1646.48 415.783" stroke="#FFAD41" stroke-width="1.05411"/>
<path d="M-261.389 625.753C-201.179 671.885 -53.2342 745.011 56.8661 668.454C194.492 572.758 347.884 601.413 433.037 636.925C518.191 672.437 711.104 710.29 841.717 602.671C972.331 495.053 1085.12 453.754 1242.11 477.558C1399.11 501.362 1419.47 608.837 1516.44 546.119C1594.01 495.945 1634.19 433.892 1644.59 409.137" stroke="#FFAD41" stroke-width="1.05411"/>
<path d="M-261.956 618.996C-201.746 665.129 -53.8009 738.254 56.2995 661.697C193.925 566.001 347.318 594.656 432.471 630.168C517.624 665.68 710.538 703.533 841.151 595.915C971.764 488.296 1084.55 446.998 1241.55 470.802C1398.54 494.606 1418.91 602.08 1515.87 539.363C1593.44 489.188 1633.63 427.135 1644.02 402.38" stroke="#FFAD41" stroke-width="1.05411"/>
<path d="M-262.522 612.238C-202.312 658.371 -54.367 731.497 55.7333 654.94C193.359 559.243 346.752 587.899 431.905 623.411C517.058 658.923 709.971 696.776 840.585 589.157C971.198 481.538 1083.99 440.24 1240.98 464.044C1397.98 487.848 1418.34 595.323 1515.3 532.605C1592.87 482.43 1633.06 420.377 1643.46 395.622" stroke="#FFAD41" stroke-width="1.05411"/>
<path d="M-263.088 605.481C-202.879 651.614 -54.9337 724.74 55.1667 648.183C192.792 552.487 346.185 581.142 431.338 616.654C516.491 652.166 709.405 690.019 840.018 582.4C970.631 474.781 1083.42 433.483 1240.41 457.287C1397.41 481.091 1417.78 588.566 1514.74 525.848C1592.31 475.674 1632.49 413.62 1642.89 388.865" stroke="#FFAD41" stroke-width="1.05411"/>
<path d="M-260.162 640.394C-199.952 686.526 -52.0072 759.652 58.0932 683.095C195.719 587.399 349.111 616.054 434.265 651.566C519.418 687.078 712.331 724.931 842.944 617.312C973.558 509.693 1086.35 468.395 1243.34 492.199C1400.34 516.003 1420.7 623.478 1517.66 560.76C1595.23 510.586 1635.42 448.532 1645.82 423.777" stroke="#FFAD41" stroke-width="1.05411"/>
<path d="M-264.221 591.967C-204.011 638.099 -56.0658 711.225 54.0346 634.668C191.66 538.972 345.053 567.627 430.206 603.139C515.359 638.651 708.273 676.504 838.886 568.885C969.499 461.266 1082.29 419.968 1239.28 443.772C1396.28 467.576 1416.64 575.051 1513.61 512.333C1591.18 462.159 1631.36 400.106 1641.76 375.351" stroke="#FFAD41" stroke-width="1.05411"/>
<path d="M-265.543 576.2C-205.333 622.333 -57.3878 695.458 52.7126 618.901C190.338 523.205 343.731 551.86 428.884 587.372C514.037 622.884 706.951 660.738 837.564 553.119C968.177 445.5 1080.97 404.202 1237.96 428.006C1394.96 451.81 1415.32 559.285 1512.28 496.567C1589.85 446.392 1630.04 384.339 1640.44 359.584" stroke="#FFAD41" stroke-width="1.05411"/>
<path d="M-266.203 568.316C-205.993 614.449 -58.0482 687.575 52.0522 611.018C189.678 515.322 343.07 543.977 428.224 579.489C513.377 615.001 706.29 652.854 836.903 545.235C967.517 437.616 1080.31 396.318 1237.3 420.122C1394.29 443.926 1414.66 551.401 1511.62 488.683C1589.19 438.509 1629.38 376.455 1639.78 351.7" stroke="#FFAD41" stroke-width="1.05411"/>
<path d="M-267.619 551.424C-207.409 597.556 -59.464 670.682 50.6364 594.125C188.262 498.429 341.655 527.084 426.808 562.596C511.961 598.108 704.874 635.961 835.488 528.342C966.101 420.723 1078.89 379.425 1235.88 403.229C1392.88 427.033 1413.24 534.508 1510.21 471.79C1587.78 421.616 1627.96 359.563 1638.36 334.808" stroke="#FFAD41" stroke-width="1.05411"/>
<path d="M-266.864 560.434C-206.654 606.566 -58.7091 679.692 51.3913 603.135C189.017 507.439 342.41 536.094 427.563 571.606C512.716 607.118 705.629 644.971 836.243 537.352C966.856 429.733 1079.64 388.435 1236.64 412.239C1393.63 436.043 1414 543.518 1510.96 480.8C1588.53 430.626 1628.72 368.572 1639.11 343.817" stroke="#FFAD41" stroke-width="1.05411"/>
<path d="M-273.189 484.979C-212.979 531.111 -65.0338 604.237 45.0666 527.68C182.692 431.984 336.085 460.639 421.238 496.151C506.391 531.663 699.305 569.516 829.918 461.897C960.531 354.278 1073.32 312.98 1230.31 336.784C1387.31 360.588 1407.67 468.063 1504.64 405.345C1582.21 355.171 1622.39 293.117 1632.79 268.362" stroke="#FFAD41" stroke-width="1.05411"/>
<path d="M-268.563 540.162C-208.353 586.295 -60.408 659.42 49.6923 582.863C187.318 487.167 340.711 515.822 425.864 551.334C511.017 586.846 703.93 624.699 834.544 517.081C965.157 409.462 1077.95 368.164 1234.94 391.968C1391.93 415.772 1412.3 523.247 1509.26 460.529C1586.83 410.354 1627.02 348.301 1637.42 323.546" stroke="#FFAD41" stroke-width="1.05411"/>
<path d="M-269.318 531.152C-209.108 577.285 -61.1634 650.411 48.9369 573.854C186.562 478.157 339.955 506.813 425.108 542.325C510.261 577.837 703.175 615.69 833.788 508.071C964.401 400.452 1077.19 359.154 1234.18 382.958C1391.18 406.762 1411.55 514.237 1508.51 451.519C1586.08 401.344 1626.26 339.291 1636.66 314.536" stroke="#FFAD41" stroke-width="1.05411"/>
<path d="M-270.073 522.143C-209.863 568.275 -61.9183 641.401 48.1821 564.844C185.808 469.148 339.2 497.803 424.353 533.315C509.506 568.827 702.42 606.68 833.033 499.061C963.647 391.442 1076.43 350.144 1233.43 373.948C1390.42 397.752 1410.79 505.227 1507.75 442.509C1585.32 392.335 1625.51 330.281 1635.91 305.526" stroke="#FFAD41" stroke-width="1.05411"/>
<path d="M-270.923 512.007C-210.713 558.139 -62.7679 631.265 47.3324 554.708C184.958 459.012 338.351 487.667 423.504 523.179C508.657 558.691 701.571 596.544 832.184 488.925C962.797 381.306 1075.59 340.008 1232.58 363.812C1389.58 387.616 1409.94 495.091 1506.9 432.373C1584.47 382.199 1624.66 320.146 1635.06 295.391" stroke="#FFAD41" stroke-width="1.05411"/>
<path d="M-271.678 502.997C-211.468 549.13 -63.5233 622.255 46.5771 545.698C184.203 450.002 337.595 478.657 422.748 514.169C507.901 549.681 700.815 587.534 831.428 479.916C962.042 372.297 1074.83 330.999 1231.82 354.803C1388.82 378.607 1409.19 486.081 1506.15 423.364C1583.72 373.189 1623.9 311.136 1634.3 286.381" stroke="#FFAD41" stroke-width="1.05411"/>
<path d="M-272.433 493.987C-212.223 540.12 -64.2779 613.246 45.8224 536.689C183.448 440.992 336.841 469.648 421.994 505.16C507.147 540.672 700.061 578.525 830.674 470.906C961.287 363.287 1074.08 321.989 1231.07 345.793C1388.07 369.597 1408.43 477.072 1505.39 414.354C1582.96 364.179 1623.15 302.126 1633.55 277.371" stroke="#FFAD41" stroke-width="1.05411"/>
<path d="M-274.038 474.843C-213.828 520.975 -65.8829 594.101 44.2175 517.544C181.843 421.848 335.236 450.503 420.389 486.015C505.542 521.527 698.456 559.38 829.069 451.761C959.682 344.142 1072.47 302.844 1229.47 326.648C1386.46 350.452 1406.83 457.927 1503.79 395.209C1581.36 345.035 1621.54 282.981 1631.94 258.227" stroke="#FFAD41" stroke-width="1.05411"/>
<path d="M-283.267 364.727C-223.057 410.859 -75.1121 483.985 34.9882 407.428C172.614 311.732 326.007 340.387 411.16 375.899C496.313 411.411 689.226 449.264 819.84 341.645C950.453 234.026 1063.24 192.728 1220.24 216.532C1377.23 240.336 1397.6 347.811 1494.56 285.093C1572.13 234.919 1612.32 172.865 1622.71 148.11" stroke="#FFAD41" stroke-width="1.05411"/>
<path d="M-275.433 458.201C-215.223 504.334 -67.2779 577.459 42.8224 500.902C180.448 405.206 333.841 433.861 418.994 469.373C504.147 504.885 697.061 542.739 827.674 435.12C958.287 327.501 1071.08 286.203 1228.07 310.007C1385.07 333.811 1405.43 441.286 1502.39 378.568C1579.96 328.393 1620.15 266.34 1630.55 241.585" stroke="#FFAD41" stroke-width="1.05411"/>
<path d="M-274.677 467.211C-214.467 513.343 -66.5226 586.469 43.5778 509.912C181.203 414.216 334.596 442.871 419.749 478.383C504.902 513.895 697.816 551.748 828.429 444.129C959.042 336.511 1071.83 295.212 1228.83 319.016C1385.82 342.82 1406.19 450.295 1503.15 387.577C1580.72 337.403 1620.9 275.35 1631.3 250.595" stroke="#FFAD41" stroke-width="1.05411"/>
<path d="M-276.471 445.814C-216.261 491.946 -68.3163 565.072 41.7841 488.515C179.41 392.819 332.802 421.474 417.955 456.986C503.108 492.498 696.022 530.351 826.635 422.732C957.249 315.113 1070.04 273.815 1227.03 297.619C1384.03 321.423 1404.39 428.898 1501.36 366.18C1578.93 316.006 1619.11 253.952 1629.51 229.197" stroke="#FFAD41" stroke-width="1.05411"/>
<path d="M-277.415 434.551C-217.205 480.683 -69.2599 553.809 40.8405 477.252C178.466 381.556 331.859 410.211 417.012 445.723C502.165 481.235 695.079 519.088 825.692 411.469C956.305 303.85 1069.09 262.552 1226.09 286.356C1383.08 310.16 1403.45 417.635 1500.41 354.917C1577.98 304.743 1618.17 242.689 1628.56 217.935" stroke="#FFAD41" stroke-width="1.05411"/>
<path d="M-278.359 423.289C-218.149 469.422 -70.2039 542.547 39.8964 465.99C177.522 370.294 330.915 398.949 416.068 434.461C501.221 469.973 694.134 507.826 824.748 400.208C955.361 292.589 1068.15 251.291 1225.14 275.095C1382.14 298.899 1402.5 406.373 1499.47 343.656C1577.04 293.481 1617.22 231.428 1627.62 206.673" stroke="#FFAD41" stroke-width="1.05411"/>
<path d="M-279.303 412.027C-219.093 458.16 -71.1478 531.286 38.9526 454.729C176.578 359.032 329.971 387.688 415.124 423.2C500.277 458.712 693.191 496.565 823.804 388.946C954.417 281.327 1067.21 240.029 1224.2 263.833C1381.2 287.637 1401.56 395.112 1498.52 332.394C1576.09 282.219 1616.28 220.166 1626.68 195.411" stroke="#FFAD41" stroke-width="1.05411"/>
<path d="M-280.341 399.639C-220.131 445.771 -72.1861 518.897 37.9142 442.34C175.54 346.644 328.933 375.299 414.086 410.811C499.239 446.323 692.152 484.176 822.766 376.557C953.379 268.938 1066.17 227.64 1223.16 251.444C1380.16 275.248 1400.52 382.723 1497.49 320.005C1575.06 269.831 1615.24 207.777 1625.64 183.022" stroke="#FFAD41" stroke-width="1.05411"/>
<path d="M-281.473 386.124C-221.263 432.257 -73.3184 505.382 36.7819 428.825C174.407 333.129 327.8 361.784 412.953 397.296C498.106 432.808 691.02 470.661 821.633 363.043C952.246 255.424 1065.03 214.126 1222.03 237.93C1379.02 261.734 1399.39 369.208 1496.35 306.491C1573.92 256.316 1614.11 194.263 1624.51 169.508" stroke="#FFAD41" stroke-width="1.05411"/>
<path d="M-282.607 372.61C-222.397 418.743 -74.4517 491.869 35.6486 415.312C173.274 319.615 326.667 348.271 411.82 383.783C496.973 419.295 689.887 457.148 820.5 349.529C951.113 241.91 1063.9 200.612 1220.9 224.416C1377.89 248.22 1398.26 355.695 1495.22 292.977C1572.79 242.802 1612.98 180.749 1623.37 155.994" stroke="#FFAD41" stroke-width="1.05411"/>
<g clip-path="url(#clip1_10_5778)">
<path fill-rule="evenodd" clip-rule="evenodd" d="M309.179 4424.45C219.798 4363.63 149.544 4289.81 111.028 4238.2C33.887 4134.85 -129.498 3983.35 -360.032 3966.8C-451.999 3960.19 -529.471 3909.3 -588.969 3848.31C-648.465 3787.33 -689.944 3716.29 -709.919 3669.49L-710.833 3669.88C-690.815 3716.78 -649.271 3787.93 -589.676 3849.02C-530.083 3910.1 -452.396 3961.17 -360.097 3967.8C-129.965 3984.32 33.1848 4135.57 110.233 4238.8C148.812 4290.49 219.145 4364.4 308.626 4425.28C398.105 4486.16 506.772 4534.05 622.007 4533.65C852.107 4532.84 1015.11 4582.84 1185.92 4732.24C1260.37 4797.37 1292.87 4857.24 1319.04 4905.47C1322.89 4912.55 1326.59 4919.38 1330.28 4925.94C1344.66 4951.55 1358.71 4973.07 1379.15 4989.19C1399.6 5005.32 1426.39 5016.02 1466.22 5020.09C1593.53 5033.12 1684.44 5004.42 1714.04 4988.4L1713.57 4987.51C1684.17 5003.43 1593.45 5032.1 1466.31 5019.09C1426.62 5015.03 1400.02 5004.38 1379.76 4988.4C1359.49 4972.41 1345.52 4951.04 1331.14 4925.44C1327.46 4918.9 1323.76 4912.07 1319.92 4904.99C1293.74 4856.76 1261.16 4796.73 1186.57 4731.49C1015.54 4581.89 852.297 4531.83 621.998 4532.64C507.035 4533.05 398.563 4485.27 309.179 4424.45Z" fill="#FFAD41"/>
<path fill-rule="evenodd" clip-rule="evenodd" d="M317.826 4409.08C228.444 4348.26 158.191 4274.44 119.675 4222.83C42.5339 4119.48 -120.851 3967.98 -351.385 3951.43C-443.352 3944.83 -520.824 3893.93 -580.322 3832.95C-639.818 3771.96 -681.297 3700.92 -701.272 3654.12L-702.186 3654.51C-682.168 3701.41 -640.624 3772.56 -581.03 3833.65C-521.436 3894.73 -443.749 3945.8 -351.45 3952.43C-121.318 3968.95 41.8318 4120.2 118.88 4223.43C157.459 4275.12 227.792 4349.03 317.273 4409.91C406.752 4470.79 515.419 4518.68 630.654 4518.28C860.754 4517.47 1023.75 4567.47 1194.56 4716.88C1269.01 4782 1301.51 4841.87 1327.69 4890.1C1331.53 4897.18 1335.24 4904.01 1338.92 4910.57C1353.31 4936.18 1367.36 4957.7 1387.8 4973.82C1408.24 4989.95 1435.04 5000.65 1474.86 5004.72C1602.17 5017.75 1693.09 4989.05 1722.69 4973.03L1722.22 4972.14C1692.81 4988.06 1602.1 5016.73 1474.96 5003.72C1435.27 4999.66 1408.67 4989.01 1388.41 4973.03C1368.14 4957.04 1354.17 4935.67 1339.79 4910.08C1336.11 4903.53 1332.41 4896.7 1328.57 4889.63C1302.38 4841.39 1269.81 4781.36 1195.21 4716.12C1024.19 4566.52 860.944 4516.46 630.645 4517.27C515.682 4517.68 407.21 4469.9 317.826 4409.08Z" fill="#FFAD41"/>
<path fill-rule="evenodd" clip-rule="evenodd" d="M290.22 4462.05C200.838 4401.24 130.585 4327.41 92.0684 4275.81C14.9277 4172.45 -148.457 4020.95 -378.991 4004.4C-470.958 3997.8 -548.431 3946.91 -607.928 3885.92C-667.424 3824.93 -708.903 3753.89 -728.878 3707.1L-729.792 3707.49C-709.774 3754.39 -668.23 3825.54 -608.636 3886.62C-549.042 3947.71 -471.355 3998.78 -379.056 4005.41C-148.924 4021.93 14.2256 4173.18 91.2742 4276.41C129.853 4328.1 200.186 4402 289.666 4462.89C379.145 4523.77 487.813 4571.66 603.048 4571.25C833.148 4570.44 996.147 4620.44 1166.96 4769.85C1241.41 4834.97 1273.91 4894.85 1300.08 4943.08C1303.93 4950.16 1307.63 4956.99 1311.32 4963.54C1325.7 4989.16 1339.75 5010.67 1360.19 5026.8C1380.64 5042.93 1407.43 5053.62 1447.26 5057.7C1574.57 5070.72 1665.48 5042.03 1695.08 5026L1694.61 5025.12C1665.21 5041.04 1574.49 5069.71 1447.35 5056.7C1407.66 5052.64 1381.06 5041.99 1360.8 5026.01C1340.53 5010.01 1326.56 4988.65 1312.18 4963.05C1308.51 4956.5 1304.8 4949.68 1300.96 4942.6C1274.78 4894.36 1242.2 4834.34 1167.61 4769.09C996.584 4619.5 833.337 4569.44 603.039 4570.25C488.075 4570.66 379.604 4522.87 290.22 4462.05Z" fill="#FFAD41"/>
<path fill-rule="evenodd" clip-rule="evenodd" d="M292.551 4454.01C203.169 4393.19 132.915 4319.37 94.3987 4267.76C17.258 4164.4 -146.127 4012.91 -376.66 3996.36C-468.628 3989.75 -546.1 3938.86 -605.598 3877.87C-665.094 3816.89 -706.573 3745.85 -726.548 3699.05L-727.462 3699.44C-707.444 3746.34 -665.9 3817.49 -606.305 3878.58C-546.712 3939.66 -469.025 3990.73 -376.726 3997.36C-146.594 4013.88 16.5559 4165.13 93.6045 4268.36C132.183 4320.05 202.516 4393.95 291.997 4454.84C381.476 4515.72 490.143 4563.61 605.378 4563.21C835.478 4562.4 998.477 4612.39 1169.29 4761.8C1243.74 4826.93 1276.24 4886.8 1302.41 4935.03C1306.26 4942.11 1309.96 4948.94 1313.65 4955.49C1328.04 4981.11 1342.08 5002.63 1362.52 5018.75C1382.97 5034.88 1409.76 5045.58 1449.59 5049.65C1576.9 5062.68 1667.81 5033.98 1697.41 5017.96L1696.94 5017.07C1667.54 5032.99 1576.82 5061.66 1449.68 5048.65C1409.99 5044.59 1383.39 5033.94 1363.13 5017.96C1342.86 5001.96 1328.89 4980.6 1314.51 4955C1310.84 4948.45 1307.13 4941.63 1303.29 4934.55C1277.11 4886.31 1244.53 4826.29 1169.94 4761.05C998.914 4611.45 835.668 4561.39 605.369 4562.2C490.406 4562.61 381.934 4514.82 292.551 4454.01Z" fill="#FFAD41"/>
<path fill-rule="evenodd" clip-rule="evenodd" d="M296.542 4446.91C207.16 4386.1 136.906 4312.27 98.3899 4260.67C21.2492 4157.31 -142.136 4005.81 -372.669 3989.26C-464.637 3982.66 -542.109 3931.77 -601.606 3870.78C-661.103 3809.79 -702.581 3738.75 -722.556 3691.96L-723.471 3692.35C-703.453 3739.24 -661.909 3810.39 -602.314 3871.48C-542.721 3932.57 -465.034 3983.64 -372.735 3990.26C-142.602 4006.78 20.5471 4158.04 97.5957 4261.27C136.174 4312.96 206.507 4386.86 295.988 4447.74C385.467 4508.63 494.134 4556.52 609.369 4556.11C839.469 4555.3 1002.47 4605.3 1173.28 4754.71C1247.73 4819.83 1280.23 4879.7 1306.41 4927.93C1310.25 4935.01 1313.96 4941.84 1317.64 4948.4C1332.03 4974.02 1346.08 4995.53 1366.51 5011.65C1386.96 5027.78 1413.75 5038.48 1453.58 5042.56C1580.89 5055.58 1671.8 5026.89 1701.41 5010.86L1700.93 5009.98C1671.53 5025.89 1580.82 5054.57 1453.67 5041.56C1413.99 5037.5 1387.38 5026.85 1367.12 5010.86C1346.85 4994.87 1332.88 4973.5 1318.51 4947.91C1314.83 4941.36 1311.12 4934.54 1307.28 4927.46C1281.1 4879.22 1248.52 4819.2 1173.93 4753.95C1002.91 4604.36 839.659 4554.3 609.361 4555.11C494.397 4555.51 385.925 4507.73 296.542 4446.91Z" fill="#FFAD41"/>
<path fill-rule="evenodd" clip-rule="evenodd" d="M300.532 4439.82C211.151 4379 140.897 4305.18 102.381 4253.57C25.24 4150.22 -138.145 3998.72 -368.678 3982.17C-460.646 3975.57 -538.118 3924.67 -597.616 3863.69C-657.112 3802.7 -698.591 3731.66 -718.566 3684.86L-719.48 3685.25C-699.462 3732.15 -657.918 3803.3 -598.323 3864.39C-538.73 3925.48 -461.043 3976.54 -368.744 3983.17C-138.612 3999.69 24.5378 4150.94 101.587 4254.17C140.165 4305.86 210.498 4379.77 299.979 4440.65C389.458 4501.53 498.125 4549.42 613.36 4549.02C843.46 4548.21 1006.46 4598.21 1177.27 4747.62C1251.72 4812.74 1284.22 4872.61 1310.4 4920.84C1314.24 4927.92 1317.95 4934.75 1321.63 4941.31C1336.02 4966.92 1350.07 4988.44 1370.5 5004.56C1390.95 5020.69 1417.74 5031.39 1457.57 5035.46C1584.88 5048.49 1675.79 5019.79 1705.4 5003.77L1704.92 5002.88C1675.52 5018.8 1584.81 5047.47 1457.67 5034.46C1417.98 5030.4 1391.38 5019.75 1371.11 5003.77C1350.84 4987.78 1336.87 4966.41 1322.5 4940.82C1318.82 4934.27 1315.11 4927.44 1311.27 4920.37C1285.09 4872.13 1252.51 4812.11 1177.92 4746.86C1006.9 4597.26 843.65 4547.2 613.352 4548.01C498.388 4548.42 389.916 4500.64 300.532 4439.82Z" fill="#FFAD41"/>
<path fill-rule="evenodd" clip-rule="evenodd" d="M304.523 4432.72C215.142 4371.91 144.888 4298.08 106.372 4246.48C29.231 4143.12 -134.154 3991.62 -364.688 3975.07C-456.655 3968.47 -534.127 3917.58 -593.625 3856.59C-653.121 3795.6 -694.6 3724.56 -714.575 3677.77L-715.489 3678.16C-695.471 3725.06 -653.927 3796.21 -594.332 3857.29C-534.739 3918.38 -457.052 3969.45 -364.753 3976.08C-134.621 3992.6 28.5288 4143.85 105.577 4247.08C144.156 4298.77 214.489 4372.67 303.97 4433.56C393.449 4494.44 502.116 4542.33 617.351 4541.92C847.451 4541.11 1010.45 4591.11 1181.26 4740.52C1255.71 4805.64 1288.21 4865.52 1314.39 4913.75C1318.23 4920.83 1321.94 4927.66 1325.62 4934.21C1340.01 4959.83 1354.06 4981.34 1374.49 4997.47C1394.94 5013.6 1421.74 5024.29 1461.56 5028.37C1588.87 5041.4 1679.79 5012.7 1709.39 4996.67L1708.91 4995.79C1679.51 5011.71 1588.8 5040.38 1461.66 5027.37C1421.97 5023.31 1395.37 5012.66 1375.1 4996.68C1354.83 4980.68 1340.86 4959.32 1326.49 4933.72C1322.81 4927.17 1319.11 4920.35 1315.26 4913.27C1289.08 4865.03 1256.5 4805.01 1181.91 4739.76C1010.89 4590.17 847.641 4540.11 617.342 4540.92C502.379 4541.33 393.907 4493.54 304.523 4432.72Z" fill="#FFAD41"/>
<path fill-rule="evenodd" clip-rule="evenodd" d="M283.904 4469.38C194.522 4408.56 124.268 4334.73 85.752 4283.13C8.61133 4179.77 -154.773 4028.27 -385.307 4011.72C-477.275 4005.12 -554.747 3954.23 -614.244 3893.24C-673.741 3832.26 -715.219 3761.21 -735.194 3714.42L-736.108 3714.81C-716.091 3761.71 -674.547 3832.86 -614.952 3893.95C-555.359 3955.03 -477.672 4006.1 -385.373 4012.73C-155.24 4029.25 7.90916 4180.5 84.9578 4283.73C123.536 4335.42 193.869 4409.32 283.35 4470.21C372.829 4531.09 481.496 4578.98 596.731 4578.57C826.831 4577.76 989.831 4627.76 1160.64 4777.17C1235.09 4842.29 1267.59 4902.17 1293.77 4950.4C1297.61 4957.48 1301.32 4964.31 1305 4970.86C1319.39 4996.48 1333.44 5017.99 1353.87 5034.12C1374.32 5050.25 1401.12 5060.94 1440.94 5065.02C1568.25 5078.05 1659.17 5049.35 1688.77 5033.33L1688.29 5032.44C1658.89 5048.36 1568.18 5077.03 1441.04 5064.02C1401.35 5059.96 1374.75 5049.31 1354.49 5033.33C1334.21 5017.33 1320.24 4995.97 1305.87 4970.37C1302.19 4963.82 1298.49 4957 1294.64 4949.92C1268.46 4901.68 1235.88 4841.66 1161.29 4776.41C990.268 4626.82 827.021 4576.76 596.723 4577.57C481.759 4577.98 373.288 4530.19 283.904 4469.38Z" fill="#FFAD41"/>
<path fill-rule="evenodd" clip-rule="evenodd" d="M312.505 4418.54C223.123 4357.72 152.87 4283.9 114.353 4232.29C37.2126 4128.94 -126.172 3977.44 -356.706 3960.89C-448.673 3954.28 -526.146 3903.39 -585.643 3842.4C-645.14 3781.42 -686.618 3710.38 -706.593 3663.58L-707.507 3663.97C-687.489 3710.87 -645.945 3782.02 -586.351 3843.11C-526.757 3904.19 -449.07 3955.26 -356.771 3961.89C-126.639 3978.41 36.5105 4129.66 113.559 4232.89C152.138 4284.58 222.471 4358.49 311.951 4419.37C401.43 4480.25 510.098 4528.14 625.333 4527.74C855.433 4526.93 1018.43 4576.92 1189.24 4726.33C1263.69 4791.46 1296.19 4851.33 1322.37 4899.56C1326.21 4906.64 1329.92 4913.47 1333.6 4920.03C1347.99 4945.64 1362.04 4967.16 1382.48 4983.28C1402.92 4999.41 1429.72 5010.11 1469.54 5014.18C1596.85 5027.21 1687.77 4998.51 1717.37 4982.49L1716.9 4981.6C1687.49 4997.52 1596.78 5026.19 1469.64 5013.18C1429.95 5009.12 1403.35 4998.47 1383.09 4982.49C1362.81 4966.5 1348.84 4945.13 1334.47 4919.53C1330.79 4912.99 1327.09 4906.16 1323.25 4899.08C1297.06 4850.85 1264.48 4790.82 1189.89 4725.58C1018.87 4575.98 855.622 4525.92 625.324 4526.73C510.36 4527.14 401.889 4479.36 312.505 4418.54Z" fill="#FFAD41"/>
<path fill-rule="evenodd" clip-rule="evenodd" d="M321.817 4401.98C232.435 4341.17 162.182 4267.34 123.666 4215.74C46.5249 4112.38 -116.86 3960.88 -347.394 3944.33C-439.361 3937.73 -516.833 3886.84 -576.331 3825.85C-635.827 3764.86 -677.306 3693.82 -697.281 3647.03L-698.195 3647.42C-678.177 3694.32 -636.633 3765.47 -577.039 3826.55C-517.445 3887.64 -439.758 3938.71 -347.459 3945.34C-117.327 3961.86 45.8227 4113.11 122.871 4216.34C161.45 4268.03 231.783 4341.93 321.264 4402.82C410.743 4463.7 519.41 4511.59 634.645 4511.18C864.745 4510.37 1027.74 4560.37 1198.55 4709.78C1273 4774.9 1305.5 4834.78 1331.68 4883.01C1335.52 4890.09 1339.23 4896.92 1342.92 4903.47C1357.3 4929.09 1371.35 4950.6 1391.79 4966.73C1412.23 4982.86 1439.03 4993.55 1478.86 4997.63C1606.16 5010.65 1697.08 4981.96 1726.68 4965.93L1726.21 4965.05C1696.8 4980.96 1606.09 5009.64 1478.95 4996.63C1439.26 4992.57 1412.66 4981.92 1392.4 4965.94C1372.13 4949.94 1358.16 4928.58 1343.78 4902.98C1340.1 4896.43 1336.4 4889.61 1332.56 4882.53C1306.37 4834.29 1273.8 4774.27 1199.2 4709.02C1028.18 4559.43 864.935 4509.37 634.636 4510.18C519.673 4510.58 411.201 4462.8 321.817 4401.98Z" fill="#FFAD41"/>
<path fill-rule="evenodd" clip-rule="evenodd" d="M326.474 4393.71C237.092 4332.89 166.838 4259.07 128.322 4207.46C51.1811 4104.11 -112.204 3952.61 -342.737 3936.06C-434.705 3929.45 -512.177 3878.56 -571.675 3817.57C-631.171 3756.59 -672.649 3685.55 -692.625 3638.75L-693.539 3639.14C-673.521 3686.04 -631.977 3757.19 -572.382 3818.28C-512.789 3879.36 -435.102 3930.43 -342.803 3937.06C-112.67 3953.58 50.479 4104.83 127.528 4208.06C166.106 4259.75 236.439 4333.66 325.92 4394.54C415.399 4455.42 524.066 4503.31 639.301 4502.91C869.401 4502.1 1032.4 4552.09 1203.21 4701.5C1277.66 4766.63 1310.16 4826.5 1336.34 4874.73C1340.18 4881.81 1343.89 4888.64 1347.57 4895.2C1361.96 4920.81 1376.01 4942.33 1396.44 4958.45C1416.89 4974.58 1443.69 4985.28 1483.51 4989.35C1610.82 5002.38 1701.74 4973.68 1731.34 4957.66L1730.86 4956.77C1701.46 4972.69 1610.75 5001.36 1483.61 4988.35C1443.92 4984.29 1417.32 4973.64 1397.05 4957.66C1376.78 4941.67 1362.81 4920.3 1348.44 4894.7C1344.76 4888.16 1341.06 4881.33 1337.21 4874.25C1311.03 4826.02 1278.45 4765.99 1203.86 4700.75C1032.84 4551.15 869.591 4501.09 639.293 4501.9C524.329 4502.31 415.857 4454.52 326.474 4393.71Z" fill="#FFAD41"/>
<path fill-rule="evenodd" clip-rule="evenodd" d="M336.451 4375.97C247.069 4315.16 176.815 4241.33 138.299 4189.73C61.1582 4086.37 -102.227 3934.87 -332.76 3918.32C-424.728 3911.72 -502.2 3860.83 -561.697 3799.84C-621.194 3738.85 -662.672 3667.81 -682.647 3621.02L-683.562 3621.41C-663.544 3668.3 -622 3739.45 -562.405 3800.54C-502.812 3861.63 -425.125 3912.7 -332.826 3919.32C-102.693 3935.85 60.456 4087.1 137.505 4190.33C176.083 4242.02 246.416 4315.92 335.897 4376.8C425.376 4437.69 534.043 4485.58 649.278 4485.17C879.378 4484.36 1042.38 4534.36 1213.19 4683.77C1287.64 4748.89 1320.14 4808.76 1346.32 4856.99C1350.16 4864.07 1353.87 4870.9 1357.55 4877.46C1371.94 4903.08 1385.99 4924.59 1406.42 4940.71C1426.87 4956.84 1453.66 4967.54 1493.49 4971.62C1620.8 4984.64 1711.71 4955.95 1741.32 4939.92L1740.84 4939.04C1711.44 4954.95 1620.72 4983.63 1493.58 4970.62C1453.89 4966.56 1427.29 4955.91 1407.03 4939.92C1386.76 4923.93 1372.79 4902.57 1358.41 4876.97C1354.74 4870.42 1351.03 4863.6 1347.19 4856.52C1321.01 4808.28 1288.43 4748.26 1213.84 4683.01C1042.81 4533.42 879.568 4483.36 649.27 4484.17C534.306 4484.57 425.835 4436.79 336.451 4375.97Z" fill="#FFAD41"/>
<path fill-rule="evenodd" clip-rule="evenodd" d="M331.13 4385.43C241.748 4324.61 171.494 4250.79 132.978 4199.19C55.8371 4095.83 -107.548 3944.33 -338.081 3927.78C-430.049 3921.18 -507.521 3870.29 -567.019 3809.3C-626.515 3748.31 -667.993 3677.27 -687.969 3630.48L-688.883 3630.87C-668.865 3677.76 -627.321 3748.91 -567.726 3810C-508.133 3871.09 -430.446 3922.16 -338.147 3928.78C-108.014 3945.3 55.135 4096.56 132.184 4199.79C170.762 4251.48 241.095 4325.38 330.576 4386.26C420.055 4447.15 528.722 4495.04 643.957 4494.63C874.057 4493.82 1037.06 4543.82 1207.87 4693.23C1282.32 4758.35 1314.82 4818.22 1340.99 4866.45C1344.84 4873.53 1348.54 4880.36 1352.23 4886.92C1366.61 4912.53 1380.66 4934.05 1401.1 4950.17C1421.55 4966.3 1448.34 4977 1488.17 4981.08C1615.48 4994.1 1706.39 4965.4 1735.99 4949.38L1735.52 4948.5C1706.12 4964.41 1615.4 4993.09 1488.26 4980.08C1448.57 4976.02 1421.97 4965.37 1401.71 4949.38C1381.44 4933.39 1367.47 4912.02 1353.09 4886.43C1349.41 4879.88 1345.71 4873.06 1341.87 4865.98C1315.69 4817.74 1283.11 4757.72 1208.52 4692.47C1037.49 4542.88 874.247 4492.82 643.949 4493.63C528.985 4494.03 420.513 4446.25 331.13 4385.43Z" fill="#FFAD41"/>
<path fill-rule="evenodd" clip-rule="evenodd" d="M375.695 4306.22C286.313 4245.4 216.059 4171.58 177.543 4119.97C100.402 4016.62 -62.9825 3865.12 -293.516 3848.57C-385.484 3841.97 -462.956 3791.07 -522.453 3730.09C-581.95 3669.1 -623.428 3598.06 -643.403 3551.26L-644.317 3551.66C-624.3 3598.55 -582.756 3669.7 -523.161 3730.79C-463.568 3791.88 -385.881 3842.94 -293.582 3849.57C-63.4492 3866.09 99.7002 4017.34 176.749 4120.57C215.327 4172.26 285.66 4246.17 375.141 4307.05C464.62 4367.93 573.287 4415.82 688.522 4415.42C918.622 4414.61 1081.62 4464.61 1252.43 4614.02C1326.88 4679.14 1359.38 4739.01 1385.56 4787.24C1389.4 4794.32 1393.11 4801.15 1396.79 4807.71C1411.18 4833.32 1425.23 4854.84 1445.67 4870.96C1466.11 4887.09 1492.91 4897.79 1532.73 4901.86C1660.04 4914.89 1750.96 4886.19 1780.56 4870.17L1780.09 4869.28C1750.68 4885.2 1659.97 4913.87 1532.83 4900.86C1493.14 4896.8 1466.54 4886.15 1446.28 4870.17C1426 4854.18 1412.03 4832.81 1397.66 4807.22C1393.98 4800.67 1390.28 4793.84 1386.44 4786.77C1360.25 4738.53 1327.67 4678.51 1253.08 4613.26C1082.06 4463.66 918.812 4413.6 688.514 4414.41C573.55 4414.82 465.079 4367.04 375.695 4306.22Z" fill="#FFAD41"/>
<path fill-rule="evenodd" clip-rule="evenodd" d="M343.102 4364.15C253.72 4303.33 183.467 4229.51 144.951 4177.9C67.8098 4074.55 -95.575 3923.05 -326.109 3906.5C-418.076 3899.9 -495.548 3849.01 -555.046 3788.02C-614.542 3727.03 -656.021 3655.99 -675.996 3609.19L-676.91 3609.59C-656.892 3656.48 -615.348 3727.63 -555.754 3788.72C-496.16 3849.81 -418.473 3900.88 -326.174 3907.5C-96.0418 3924.02 67.1076 4075.27 144.156 4178.51C182.735 4230.2 253.068 4304.1 342.549 4364.98C432.027 4425.86 540.695 4473.76 655.93 4473.35C886.03 4472.54 1049.03 4522.54 1219.84 4671.95C1294.29 4737.07 1326.79 4796.94 1352.97 4845.17C1356.81 4852.25 1360.52 4859.08 1364.2 4865.64C1378.59 4891.25 1392.64 4912.77 1413.07 4928.89C1433.52 4945.02 1460.31 4955.72 1500.14 4959.79C1627.45 4972.82 1718.36 4944.12 1747.97 4928.1L1747.49 4927.21C1718.09 4943.13 1627.38 4971.8 1500.24 4958.8C1460.55 4954.73 1433.95 4944.09 1413.68 4928.1C1393.41 4912.11 1379.44 4890.74 1365.07 4865.15C1361.39 4858.6 1357.68 4851.78 1353.84 4844.7C1327.66 4796.46 1295.08 4736.44 1220.49 4671.19C1049.47 4521.59 886.22 4471.53 655.921 4472.35C540.958 4472.75 432.486 4424.97 343.102 4364.15Z" fill="#FFAD41"/>
<path fill-rule="evenodd" clip-rule="evenodd" d="M348.423 4354.69C259.041 4293.87 188.788 4220.05 150.272 4168.45C73.1309 4065.09 -90.254 3913.59 -320.788 3897.04C-412.755 3890.44 -490.227 3839.55 -549.725 3778.56C-609.221 3717.57 -650.7 3646.53 -670.675 3599.73L-671.589 3600.13C-651.571 3647.02 -610.027 3718.17 -550.433 3779.26C-490.839 3840.35 -413.152 3891.42 -320.853 3898.04C-90.7207 3914.56 72.4287 4065.81 149.477 4169.05C188.056 4220.74 258.389 4294.64 347.87 4355.52C437.349 4416.41 546.016 4464.3 661.251 4463.89C891.351 4463.08 1054.35 4513.08 1225.16 4662.49C1299.61 4727.61 1332.11 4787.48 1358.29 4835.71C1362.13 4842.79 1365.84 4849.62 1369.52 4856.18C1383.91 4881.79 1397.96 4903.31 1418.39 4919.43C1438.84 4935.56 1465.64 4946.26 1505.46 4950.34C1632.77 4963.36 1723.69 4934.66 1753.29 4918.64L1752.81 4917.76C1723.41 4933.67 1632.7 4962.35 1505.56 4949.34C1465.87 4945.28 1439.27 4934.63 1419 4918.64C1398.73 4902.65 1384.76 4881.28 1370.39 4855.69C1366.71 4849.14 1363 4842.32 1359.16 4835.24C1332.98 4787 1300.4 4726.98 1225.81 4661.73C1054.79 4512.14 891.541 4462.08 661.242 4462.89C546.279 4463.29 437.807 4415.51 348.423 4354.69Z" fill="#FFAD41"/>
<path fill-rule="evenodd" clip-rule="evenodd" d="M353.745 4345.23C264.363 4284.42 194.11 4210.59 155.593 4158.99C78.4526 4055.63 -84.9322 3904.13 -315.466 3887.58C-407.433 3880.98 -484.906 3830.09 -544.403 3769.1C-603.9 3708.11 -645.378 3637.07 -665.353 3590.28L-666.267 3590.67C-646.249 3637.57 -604.705 3708.72 -545.111 3769.8C-485.517 3830.89 -407.83 3881.96 -315.531 3888.59C-85.3989 3905.11 77.7505 4056.36 154.799 4159.59C193.378 4211.28 263.711 4285.18 353.191 4346.07C442.67 4406.95 551.338 4454.84 666.573 4454.43C896.673 4453.62 1059.67 4503.62 1230.48 4653.03C1304.93 4718.15 1337.43 4778.03 1363.61 4826.26C1367.45 4833.34 1371.16 4840.16 1374.84 4846.72C1389.23 4872.34 1403.28 4893.85 1423.72 4909.98C1444.16 4926.11 1470.96 4936.8 1510.78 4940.88C1638.09 4953.9 1729.01 4925.21 1758.61 4909.18L1758.14 4908.3C1728.73 4924.21 1638.02 4952.89 1510.88 4939.88C1471.19 4935.82 1444.59 4925.17 1424.33 4909.19C1404.05 4893.19 1390.08 4871.83 1375.71 4846.23C1372.03 4839.68 1368.33 4832.86 1364.49 4825.78C1338.3 4777.54 1305.72 4717.52 1231.13 4652.27C1060.11 4502.68 896.862 4452.62 666.564 4453.43C551.6 4453.83 443.129 4406.05 353.745 4345.23Z" fill="#FFAD41"/>
<path fill-rule="evenodd" clip-rule="evenodd" d="M359.731 4334.59C270.349 4273.78 200.096 4199.95 161.579 4148.35C84.4387 4044.99 -78.9461 3893.49 -309.48 3876.94C-401.447 3870.34 -478.92 3819.45 -538.417 3758.46C-597.913 3697.47 -639.392 3626.43 -659.367 3579.64L-660.281 3580.03C-640.263 3626.93 -598.719 3698.08 -539.125 3759.16C-479.531 3820.25 -401.844 3871.32 -309.545 3877.95C-79.4129 3894.47 83.7366 4045.72 160.785 4148.95C199.364 4200.64 269.697 4274.54 359.178 4335.43C448.656 4396.31 557.324 4444.2 672.559 4443.79C902.659 4442.98 1065.66 4492.98 1236.47 4642.39C1310.92 4707.51 1343.42 4767.39 1369.6 4815.61C1373.44 4822.7 1377.15 4829.52 1380.83 4836.08C1395.22 4861.7 1409.27 4883.21 1429.7 4899.34C1450.15 4915.47 1476.94 4926.16 1516.77 4930.24C1644.08 4943.26 1734.99 4914.57 1764.6 4898.54L1764.12 4897.66C1734.72 4913.57 1644 4942.25 1516.86 4929.24C1477.18 4925.18 1450.57 4914.53 1430.31 4898.55C1410.04 4882.55 1396.07 4861.19 1381.69 4835.59C1378.02 4829.04 1374.31 4822.22 1370.47 4815.14C1344.29 4766.9 1311.71 4706.88 1237.12 4641.63C1066.09 4492.04 902.849 4441.98 672.55 4442.79C557.586 4443.19 449.115 4395.41 359.731 4334.59Z" fill="#FFAD41"/>
<path fill-rule="evenodd" clip-rule="evenodd" d="M365.053 4325.13C275.671 4264.32 205.417 4190.49 166.901 4138.89C89.7602 4035.53 -73.6246 3884.03 -304.158 3867.48C-396.126 3860.88 -473.598 3809.99 -533.095 3749C-592.592 3688.01 -634.07 3616.97 -654.045 3570.18L-654.96 3570.57C-634.942 3617.47 -593.398 3688.62 -533.803 3749.7C-474.21 3810.79 -396.523 3861.86 -304.224 3868.49C-74.0914 3885.01 89.0581 4036.26 166.107 4139.49C204.685 4191.18 275.018 4265.08 364.499 4325.97C453.978 4386.85 562.645 4434.74 677.88 4434.33C907.98 4433.52 1070.98 4483.52 1241.79 4632.93C1316.24 4698.05 1348.74 4757.93 1374.92 4806.16C1378.76 4813.24 1382.47 4820.07 1386.15 4826.62C1400.54 4852.24 1414.59 4873.75 1435.02 4889.88C1455.47 4906.01 1482.26 4916.7 1522.09 4920.78C1649.4 4933.81 1740.31 4905.11 1769.92 4889.08L1769.44 4888.2C1740.04 4904.12 1649.33 4932.79 1522.19 4919.78C1482.5 4915.72 1455.9 4905.07 1435.63 4889.09C1415.36 4873.09 1401.39 4851.73 1387.02 4826.13C1383.34 4819.58 1379.63 4812.76 1375.79 4805.68C1349.61 4757.44 1317.03 4697.42 1242.44 4632.17C1071.42 4482.58 908.17 4432.52 677.872 4433.33C562.908 4433.74 454.436 4385.95 365.053 4325.13Z" fill="#FFAD41"/>
<path fill-rule="evenodd" clip-rule="evenodd" d="M370.374 4315.68C280.992 4254.86 210.738 4181.04 172.222 4129.43C95.0812 4026.07 -68.3035 3874.58 -298.837 3858.03C-390.805 3851.42 -468.277 3800.53 -527.774 3739.54C-587.271 3678.56 -628.749 3607.51 -648.724 3560.72L-649.638 3561.11C-629.621 3608.01 -588.077 3679.16 -528.482 3740.25C-468.889 3801.33 -391.202 3852.4 -298.903 3859.03C-68.7703 3875.55 94.3791 4026.8 171.428 4130.03C210.006 4181.72 280.339 4255.62 369.82 4316.51C459.299 4377.39 567.966 4425.28 683.202 4424.88C913.301 4424.07 1076.3 4474.06 1247.11 4623.47C1321.56 4688.6 1354.06 4748.47 1380.24 4796.7C1384.08 4803.78 1387.79 4810.61 1391.47 4817.16C1405.86 4842.78 1419.91 4864.3 1440.34 4880.42C1460.79 4896.55 1487.59 4907.25 1527.41 4911.32C1654.72 4924.35 1745.64 4895.65 1775.24 4879.63L1774.76 4878.74C1745.36 4894.66 1654.65 4923.33 1527.51 4910.32C1487.82 4906.26 1461.22 4895.61 1440.96 4879.63C1420.68 4863.63 1406.71 4842.27 1392.34 4816.67C1388.66 4810.12 1384.96 4803.3 1381.11 4796.22C1354.93 4747.98 1322.35 4687.96 1247.76 4622.72C1076.74 4473.12 913.491 4423.06 683.193 4423.87C568.229 4424.28 459.758 4376.49 370.374 4315.68Z" fill="#FFAD41"/>
<path fill-rule="evenodd" clip-rule="evenodd" d="M381.681 4295.58C292.299 4234.76 222.046 4160.94 183.529 4109.33C106.389 4005.98 -56.9962 3854.48 -287.53 3837.93C-379.497 3831.33 -456.97 3780.43 -516.467 3719.45C-575.963 3658.46 -617.442 3587.42 -637.417 3540.62L-638.331 3541.01C-618.313 3587.91 -576.769 3659.06 -517.175 3720.15C-457.581 3781.23 -379.894 3832.3 -287.595 3838.93C-57.463 3855.45 105.687 4006.7 182.735 4109.93C221.314 4161.62 291.647 4235.53 381.127 4296.41C470.606 4357.29 579.274 4405.18 694.509 4404.78C924.609 4403.97 1087.61 4453.97 1258.42 4603.37C1332.87 4668.5 1365.37 4728.37 1391.55 4776.6C1395.39 4783.68 1399.1 4790.51 1402.78 4797.07C1417.17 4822.68 1431.22 4844.2 1451.65 4860.32C1472.1 4876.45 1498.89 4887.15 1538.72 4891.22C1666.03 4904.25 1756.94 4875.55 1786.55 4859.53L1786.07 4858.64C1756.67 4874.56 1665.95 4903.23 1538.81 4890.22C1499.12 4886.16 1472.52 4875.51 1452.26 4859.53C1431.99 4843.54 1418.02 4822.17 1403.64 4796.58C1399.97 4790.03 1396.26 4783.2 1392.42 4776.13C1366.24 4727.89 1333.66 4667.86 1259.07 4602.62C1088.04 4453.02 924.798 4402.96 694.5 4403.77C579.536 4404.18 471.065 4356.4 381.681 4295.58Z" fill="#FFAD41"/>
<path fill-rule="evenodd" clip-rule="evenodd" d="M446.718 4179.98C357.336 4119.16 287.082 4045.34 248.566 3993.73C171.425 3890.38 8.04023 3738.88 -222.493 3722.33C-314.461 3715.72 -391.933 3664.83 -451.431 3603.84C-510.927 3542.86 -552.406 3471.82 -572.381 3425.02L-573.295 3425.41C-553.277 3472.31 -511.733 3543.46 -452.138 3604.55C-392.545 3665.63 -314.858 3716.7 -222.559 3723.33C7.57347 3739.85 170.723 3891.1 247.772 3994.33C286.35 4046.02 356.683 4119.92 446.164 4180.81C535.643 4241.69 644.31 4289.58 759.545 4289.18C989.645 4288.37 1152.64 4338.36 1323.45 4487.77C1397.9 4552.9 1430.4 4612.77 1456.58 4661C1460.43 4668.08 1464.13 4674.91 1467.82 4681.47C1482.2 4707.08 1496.25 4728.6 1516.69 4744.72C1537.13 4760.85 1563.93 4771.55 1603.76 4775.62C1731.06 4788.65 1821.98 4759.95 1851.58 4743.93L1851.11 4743.04C1821.7 4758.96 1730.99 4787.63 1603.85 4774.62C1564.16 4770.56 1537.56 4759.91 1517.3 4743.93C1497.03 4727.94 1483.06 4706.57 1468.68 4680.97C1465 4674.42 1461.3 4667.6 1457.46 4660.52C1431.27 4612.29 1398.7 4552.26 1324.1 4487.02C1153.08 4337.42 989.835 4287.36 759.537 4288.17C644.573 4288.58 536.101 4240.79 446.718 4179.98Z" fill="#FFAD41"/>
<path fill-rule="evenodd" clip-rule="evenodd" d="M391.51 4278.11C302.128 4217.29 231.875 4143.47 193.358 4091.86C116.218 3988.51 -47.1673 3837.01 -277.701 3820.46C-369.668 3813.85 -447.141 3762.96 -506.638 3701.97C-566.135 3640.99 -607.613 3569.95 -627.588 3523.15L-628.502 3523.54C-608.484 3570.44 -566.94 3641.59 -507.346 3702.68C-447.752 3763.76 -370.065 3814.83 -277.766 3821.46C-47.6341 3837.98 115.515 3989.23 192.564 4092.46C231.142 4144.15 301.476 4218.06 390.956 4278.94C480.435 4339.82 589.103 4387.71 704.338 4387.31C934.437 4386.5 1097.44 4436.5 1268.25 4585.9C1342.7 4651.03 1375.2 4710.9 1401.37 4759.13C1405.22 4766.21 1408.92 4773.04 1412.61 4779.6C1426.99 4805.21 1441.04 4826.73 1461.48 4842.85C1481.93 4858.98 1508.72 4869.68 1548.55 4873.75C1675.86 4886.78 1766.77 4858.08 1796.37 4842.06L1795.9 4841.17C1766.5 4857.09 1675.78 4885.76 1548.64 4872.75C1508.95 4868.69 1482.35 4858.04 1462.09 4842.06C1441.82 4826.07 1427.85 4804.7 1413.47 4779.1C1409.8 4772.56 1406.09 4765.73 1402.25 4758.66C1376.07 4710.42 1343.49 4650.39 1268.9 4585.15C1097.87 4435.55 934.627 4385.49 704.329 4386.3C589.365 4386.71 480.894 4338.93 391.51 4278.11Z" fill="#FFAD41"/>
<path fill-rule="evenodd" clip-rule="evenodd" d="M386.188 4287.57C296.806 4226.75 226.553 4152.93 188.037 4101.32C110.896 3997.97 -52.4889 3846.47 -283.023 3829.92C-374.99 3823.31 -452.462 3772.42 -511.96 3711.43C-571.456 3650.45 -612.935 3579.41 -632.91 3532.61L-633.824 3533C-613.806 3579.9 -572.262 3651.05 -512.667 3712.14C-453.074 3773.22 -375.387 3824.29 -283.088 3830.92C-52.9556 3847.44 110.194 3998.69 187.242 4101.92C225.821 4153.61 296.154 4227.51 385.635 4288.4C475.114 4349.28 583.781 4397.17 699.016 4396.77C929.116 4395.96 1092.12 4445.95 1262.92 4595.36C1337.38 4660.49 1369.87 4720.36 1396.05 4768.59C1399.9 4775.67 1403.6 4782.5 1407.29 4789.06C1421.67 4814.67 1435.72 4836.19 1456.16 4852.31C1476.61 4868.44 1503.4 4879.14 1543.23 4883.21C1670.53 4896.24 1761.45 4867.54 1791.05 4851.52L1790.58 4850.63C1761.17 4866.55 1670.46 4895.22 1543.32 4882.21C1503.63 4878.15 1477.03 4867.5 1456.77 4851.52C1436.5 4835.53 1422.53 4814.16 1408.15 4788.56C1404.47 4782.01 1400.77 4775.19 1396.93 4768.11C1370.75 4719.87 1338.17 4659.85 1263.57 4594.61C1092.55 4445.01 929.306 4394.95 699.007 4395.76C584.044 4396.17 475.572 4348.38 386.188 4287.57Z" fill="#FFAD41"/>
<path fill-rule="evenodd" clip-rule="evenodd" d="M398.826 4265.1C309.444 4204.28 239.191 4130.46 200.675 4078.86C123.534 3975.5 -39.8509 3824 -270.385 3807.45C-362.352 3800.85 -439.824 3749.96 -499.322 3688.97C-558.818 3627.98 -600.297 3556.94 -620.272 3510.14L-621.186 3510.54C-601.168 3557.43 -559.624 3628.58 -500.03 3689.67C-440.436 3750.76 -362.749 3801.83 -270.45 3808.45C-40.3176 3824.97 122.832 3976.23 199.88 4079.46C238.459 4131.15 308.792 4205.05 398.273 4265.93C487.752 4326.82 596.419 4374.71 711.654 4374.3C941.754 4373.49 1104.75 4423.49 1275.56 4572.9C1350.01 4638.02 1382.51 4697.89 1408.69 4746.12C1412.53 4753.2 1416.24 4760.03 1419.92 4766.59C1434.31 4792.2 1448.36 4813.72 1468.8 4829.84C1489.24 4845.97 1516.04 4856.67 1555.86 4860.75C1683.17 4873.77 1774.09 4845.07 1803.69 4829.05L1803.22 4828.17C1773.81 4844.08 1683.1 4872.76 1555.96 4859.75C1516.27 4855.69 1489.67 4845.04 1469.41 4829.05C1449.14 4813.06 1435.17 4791.69 1420.79 4766.1C1417.11 4759.55 1413.41 4752.73 1409.57 4745.65C1383.38 4697.41 1350.81 4637.39 1276.21 4572.14C1105.19 4422.55 941.944 4372.49 711.645 4373.3C596.682 4373.7 488.21 4325.92 398.826 4265.1Z" fill="#FFAD41"/>
<path fill-rule="evenodd" clip-rule="evenodd" d="M405.478 4253.28C316.096 4192.46 245.843 4118.64 207.326 4067.03C130.186 3963.68 -33.1993 3812.18 -263.733 3795.63C-355.7 3789.03 -433.173 3738.14 -492.67 3677.15C-552.167 3616.16 -593.645 3545.12 -613.62 3498.32L-614.534 3498.72C-594.516 3545.61 -552.972 3616.76 -493.378 3677.85C-433.784 3738.94 -356.097 3790 -263.798 3796.63C-33.666 3813.15 129.483 3964.4 206.532 4067.64C245.11 4119.32 315.444 4193.23 404.924 4254.11C494.403 4314.99 603.071 4362.89 718.306 4362.48C948.405 4361.67 1111.4 4411.67 1282.21 4561.08C1356.66 4626.2 1389.16 4686.07 1415.34 4734.3C1419.19 4741.38 1422.89 4748.21 1426.58 4754.77C1440.96 4780.38 1455.01 4801.9 1475.45 4818.02C1495.9 4834.15 1522.69 4844.85 1562.52 4848.92C1689.82 4861.95 1780.74 4833.25 1810.34 4817.23L1809.87 4816.34C1780.46 4832.26 1689.75 4860.93 1562.61 4847.92C1522.92 4843.86 1496.32 4833.22 1476.06 4817.23C1455.79 4801.24 1441.82 4779.87 1427.44 4754.28C1423.76 4747.73 1420.06 4740.9 1416.22 4733.83C1390.04 4685.59 1357.46 4625.57 1282.86 4560.32C1111.84 4410.72 948.595 4360.66 718.297 4361.47C603.333 4361.88 494.862 4314.1 405.478 4253.28Z" fill="#FFAD41"/>
<path fill-rule="evenodd" clip-rule="evenodd" d="M412.13 4241.46C322.748 4180.64 252.494 4106.82 213.978 4055.21C136.837 3951.86 -26.5477 3800.36 -257.081 3783.81C-349.049 3777.2 -426.521 3726.31 -486.019 3665.32C-545.515 3604.34 -586.993 3533.3 -606.969 3486.5L-607.883 3486.89C-587.865 3533.79 -546.321 3604.94 -486.726 3666.03C-427.133 3727.11 -349.446 3778.18 -257.147 3784.81C-27.0144 3801.33 136.135 3952.58 213.184 4055.81C251.762 4107.5 322.095 4181.41 411.576 4242.29C501.055 4303.17 609.722 4351.06 724.957 4350.66C955.057 4349.85 1118.06 4399.84 1288.87 4549.25C1363.32 4614.38 1395.82 4674.25 1421.99 4722.48C1425.84 4729.56 1429.54 4736.39 1433.23 4742.95C1447.61 4768.56 1461.66 4790.08 1482.1 4806.2C1502.55 4822.33 1529.34 4833.03 1569.17 4837.1C1696.48 4850.13 1787.39 4821.43 1816.99 4805.41L1816.52 4804.52C1787.12 4820.44 1696.4 4849.11 1569.26 4836.1C1529.57 4832.04 1502.97 4821.39 1482.71 4805.41C1462.44 4789.42 1448.47 4768.05 1434.09 4742.45C1430.41 4735.91 1426.71 4729.08 1422.87 4722C1396.69 4673.77 1364.11 4613.74 1289.52 4548.5C1118.49 4398.9 955.247 4348.84 724.949 4349.65C609.985 4350.06 501.513 4302.27 412.13 4241.46Z" fill="#FFAD41"/>
<path fill-rule="evenodd" clip-rule="evenodd" d="M418.781 4229.63C329.399 4168.82 259.146 4094.99 220.629 4043.39C143.488 3940.03 -19.8963 3788.53 -250.43 3771.98C-342.397 3765.38 -419.87 3714.49 -479.367 3653.5C-538.864 3592.51 -580.342 3521.47 -600.317 3474.68L-601.231 3475.07C-581.213 3521.97 -539.669 3593.12 -480.075 3654.2C-420.481 3715.29 -342.794 3766.36 -250.495 3772.98C-20.3631 3789.51 142.786 3940.76 219.835 4043.99C258.413 4095.68 328.747 4169.58 418.227 4230.46C507.706 4291.35 616.374 4339.24 731.609 4338.83C961.708 4338.02 1124.71 4388.02 1295.52 4537.43C1369.97 4602.55 1402.47 4662.43 1428.65 4710.65C1432.49 4717.73 1436.2 4724.56 1439.88 4731.12C1454.27 4756.74 1468.32 4778.25 1488.75 4794.37C1509.2 4810.5 1535.99 4821.2 1575.82 4825.28C1703.13 4838.3 1794.04 4809.61 1823.65 4793.58L1823.17 4792.7C1793.77 4808.61 1703.05 4837.29 1575.91 4824.28C1536.22 4820.22 1509.62 4809.57 1489.36 4793.58C1469.09 4777.59 1455.12 4756.23 1440.74 4730.63C1437.07 4724.08 1433.36 4717.26 1429.52 4710.18C1403.34 4661.94 1370.76 4601.92 1296.17 4536.67C1125.14 4387.08 961.898 4337.02 731.6 4337.83C616.636 4338.23 508.165 4290.45 418.781 4229.63Z" fill="#FFAD41"/>
<path fill-rule="evenodd" clip-rule="evenodd" d="M426.098 4216.63C336.716 4155.81 266.462 4081.99 227.946 4030.38C150.805 3927.03 -12.5794 3775.53 -243.113 3758.98C-335.081 3752.38 -412.553 3701.48 -472.05 3640.5C-531.547 3579.51 -573.025 3508.47 -593 3461.67L-593.914 3462.07C-573.897 3508.96 -532.352 3580.11 -472.758 3641.2C-413.165 3702.29 -335.477 3753.35 -243.179 3759.98C-13.0462 3776.5 150.103 3927.75 227.152 4030.98C265.73 4082.67 336.064 4156.58 425.544 4217.46C515.023 4278.34 623.69 4326.23 738.926 4325.83C969.025 4325.02 1132.02 4375.02 1302.83 4524.43C1377.28 4589.55 1409.78 4649.42 1435.96 4697.65C1439.81 4704.73 1443.51 4711.56 1447.2 4718.12C1461.58 4743.73 1475.63 4765.25 1496.07 4781.37C1516.51 4797.5 1543.31 4808.2 1583.14 4812.27C1710.44 4825.3 1801.36 4796.6 1830.96 4780.58L1830.49 4779.69C1801.08 4795.61 1710.37 4824.28 1583.23 4811.27C1543.54 4807.21 1516.94 4796.56 1496.68 4780.58C1476.41 4764.59 1462.44 4743.22 1448.06 4717.63C1444.38 4711.08 1440.68 4704.25 1436.84 4697.18C1410.66 4648.94 1378.08 4588.92 1303.48 4523.67C1132.46 4374.07 969.215 4324.01 738.917 4324.82C623.953 4325.23 515.482 4277.45 426.098 4216.63Z" fill="#FFAD41"/>
<path fill-rule="evenodd" clip-rule="evenodd" d="M434.08 4202.44C344.698 4141.62 274.444 4067.8 235.928 4016.2C158.787 3912.84 -4.59771 3761.34 -235.131 3744.79C-327.099 3738.19 -404.571 3687.3 -464.069 3626.31C-523.565 3565.32 -565.044 3494.28 -585.019 3447.48L-585.933 3447.88C-565.915 3494.77 -524.371 3565.92 -464.776 3627.01C-405.183 3688.1 -327.496 3739.17 -235.197 3745.79C-5.06448 3762.31 158.085 3913.56 235.134 4016.8C273.712 4068.49 344.045 4142.39 433.526 4203.27C523.005 4264.16 631.672 4312.05 746.907 4311.64C977.007 4310.83 1140.01 4360.83 1310.82 4510.24C1385.27 4575.36 1417.77 4635.23 1443.94 4683.46C1447.79 4690.54 1451.49 4697.37 1455.18 4703.93C1469.56 4729.54 1483.61 4751.06 1504.05 4767.18C1524.5 4783.31 1551.29 4794.01 1591.12 4798.09C1718.43 4811.11 1809.34 4782.41 1838.94 4766.39L1838.47 4765.51C1809.07 4781.42 1718.35 4810.1 1591.21 4797.09C1551.52 4793.03 1524.92 4782.38 1504.66 4766.39C1484.39 4750.4 1470.42 4729.03 1456.04 4703.44C1452.36 4696.89 1448.66 4690.07 1444.82 4682.99C1418.64 4634.75 1386.06 4574.73 1311.47 4509.48C1140.44 4359.89 977.197 4309.83 746.899 4310.64C631.935 4311.04 523.463 4263.26 434.08 4202.44Z" fill="#FFAD41"/>
<path fill-rule="evenodd" clip-rule="evenodd" d="M442.061 4188.25C352.679 4127.44 282.426 4053.61 243.91 4002.01C166.769 3898.65 3.38398 3747.15 -227.15 3730.6C-319.117 3724 -396.589 3673.11 -456.087 3612.12C-515.583 3551.13 -557.062 3480.09 -577.037 3433.3L-577.951 3433.69C-557.933 3480.59 -516.389 3551.74 -456.795 3612.82C-397.201 3673.91 -319.514 3724.98 -227.215 3731.61C2.91722 3748.13 166.067 3899.38 243.115 4002.61C281.694 4054.3 352.027 4128.2 441.508 4189.09C530.986 4249.97 639.654 4297.86 754.889 4297.45C984.989 4296.64 1147.99 4346.64 1318.8 4496.05C1393.25 4561.17 1425.75 4621.05 1451.93 4669.27C1455.77 4676.36 1459.48 4683.18 1463.16 4689.74C1477.55 4715.36 1491.6 4736.87 1512.03 4753C1532.48 4769.13 1559.27 4779.82 1599.1 4783.9C1726.41 4796.92 1817.32 4768.23 1846.93 4752.2L1846.45 4751.32C1817.05 4767.23 1726.33 4795.91 1599.19 4782.9C1559.51 4778.84 1532.9 4768.19 1512.64 4752.21C1492.37 4736.21 1478.4 4714.85 1464.02 4689.25C1460.35 4682.7 1456.64 4675.88 1452.8 4668.8C1426.62 4620.56 1394.04 4560.54 1319.45 4495.29C1148.43 4345.7 985.179 4295.64 754.88 4296.45C639.917 4296.85 531.445 4249.07 442.061 4188.25Z" fill="#FFAD41"/>
</g>
</g>
<defs>
<filter id="filter0_f_10_5778" x="283.218" y="1570.45" width="13.4627" height="12.9358" filterUnits="userSpaceOnUse" color-interpolation-filters="sRGB">
<feFlood flood-opacity="0" result="BackgroundImageFix"/>
<feBlend mode="normal" in="SourceGraphic" in2="BackgroundImageFix" result="shape"/>
<feGaussianBlur stdDeviation="2.10822" result="effect1_foregroundBlur_10_5778"/>
</filter>
<clipPath id="clip0_10_5778">
<rect width="1440" height="5196" fill="white"/>
</clipPath>
<clipPath id="clip1_10_5778">
<rect width="2373.73" height="538.71" fill="white" transform="matrix(0.869616 0.493729 0.493729 -0.869616 -624 3967.47)"/>
</clipPath>
</defs>
</svg>
