<svg width="1440" height="5196" viewBox="0 0 1440 5196" fill="none" xmlns="http://www.w3.org/2000/svg">
<g clip-path="url(#clip0_10_5736)">
<rect width="1440" height="5196" fill="#2F365B"/>
<path d="M-767.318 4182.34C-713.069 4254.28 -562.831 4394.44 -395.871 4379.57C-187.172 4360.99 -11.5415 4463.4 77.7011 4538.09C166.944 4612.78 387.06 4743.23 592.2 4710.3C797.339 4677.38 952.741 4695.93 1134.82 4795.72C1316.9 4895.51 1296.57 5003.44 1441.62 4994.62C1557.67 4987.57 1632.97 4951.11 1656.12 4933.76" stroke="#FFAD41" stroke-width="1.05411"/>
<path d="M-762.655 4168.41C-708.406 4240.35 -558.168 4380.51 -391.208 4365.64C-182.509 4347.06 -6.87827 4449.47 82.3643 4524.16C171.607 4598.85 391.723 4729.29 596.863 4696.37C802.002 4663.45 957.404 4682 1139.48 4781.79C1321.57 4881.58 1301.23 4989.5 1446.29 4980.69C1562.33 4973.64 1637.63 4937.18 1660.78 4919.83" stroke="#FFAD41" stroke-width="1.05411"/>
<path d="M-776.768 4216.12C-722.519 4288.06 -572.281 4428.22 -405.321 4413.36C-196.622 4394.77 -20.9914 4497.18 68.2512 4571.87C157.494 4646.56 377.61 4777.01 582.75 4744.08C787.889 4711.16 943.291 4729.71 1125.37 4829.5C1307.45 4929.29 1287.12 5037.22 1432.17 5028.4C1548.22 5021.35 1623.52 4984.89 1646.67 4967.54" stroke="#FFAD41" stroke-width="1.05411"/>
<path d="M-776.287 4209.13C-722.037 4281.07 -571.799 4421.23 -404.84 4406.37C-196.14 4387.78 -20.5096 4490.19 68.733 4564.88C157.976 4639.57 378.092 4770.02 583.231 4737.1C788.371 4704.17 943.773 4722.73 1125.85 4822.51C1307.93 4922.3 1287.6 5030.23 1432.66 5021.42C1548.7 5014.37 1624 4977.9 1647.15 4960.55" stroke="#FFAD41" stroke-width="1.05411"/>
<path d="M-774.134 4202.7C-719.885 4274.64 -569.647 4414.8 -402.687 4399.94C-193.988 4381.35 -18.3573 4483.76 70.8853 4558.45C160.128 4633.14 380.244 4763.59 585.384 4730.67C790.523 4697.74 945.925 4716.3 1128.01 4816.08C1310.09 4915.87 1289.75 5023.8 1434.81 5014.99C1550.85 5007.94 1626.15 4971.47 1649.3 4954.12" stroke="#FFAD41" stroke-width="1.05411"/>
<path d="M-771.982 4196.27C-717.733 4268.21 -567.494 4408.37 -400.535 4393.51C-191.835 4374.92 -16.2048 4477.33 73.0378 4552.02C162.28 4626.71 382.397 4757.16 587.536 4724.23C792.676 4691.31 948.077 4709.86 1130.16 4809.65C1312.24 4909.44 1291.9 5017.37 1436.96 5008.55C1553.01 5001.5 1628.31 4965.04 1651.45 4947.69" stroke="#FFAD41" stroke-width="1.05411"/>
<path d="M-769.829 4189.84C-715.58 4261.78 -565.342 4401.94 -398.382 4387.08C-189.683 4368.49 -14.0525 4470.9 75.1901 4545.59C164.433 4620.28 384.549 4750.73 589.689 4717.8C794.828 4684.88 950.23 4703.43 1132.31 4803.22C1314.39 4903.01 1294.06 5010.94 1439.11 5002.13C1555.16 4995.07 1630.46 4958.61 1653.6 4941.26" stroke="#FFAD41" stroke-width="1.05411"/>
<path d="M-780.95 4223.06C-726.701 4295 -576.462 4435.17 -409.503 4420.3C-200.803 4401.71 -25.1729 4504.12 64.0696 4578.81C153.312 4653.5 373.429 4783.95 578.568 4751.03C783.708 4718.11 939.109 4736.66 1121.19 4836.45C1303.27 4936.23 1282.94 5044.16 1427.99 5035.35C1544.04 5028.3 1619.34 4991.83 1642.48 4974.48" stroke="#FFAD41" stroke-width="1.05411"/>
<path d="M-765.525 4176.98C-711.276 4248.92 -561.037 4389.08 -394.078 4374.21C-185.379 4355.63 -9.74802 4458.04 79.4946 4532.73C168.737 4607.42 388.854 4737.87 593.993 4704.94C799.133 4672.02 954.534 4690.57 1136.62 4790.36C1318.7 4890.15 1298.36 4998.08 1443.42 4989.26C1559.46 4982.21 1634.76 4945.75 1657.91 4928.4" stroke="#FFAD41" stroke-width="1.05411"/>
<path d="M-760.503 4161.98C-706.254 4233.92 -556.015 4374.08 -389.056 4359.21C-180.356 4340.63 -4.7258 4443.04 84.5168 4517.73C173.759 4592.42 393.876 4722.86 599.015 4689.94C804.155 4657.02 959.556 4675.57 1141.64 4775.36C1323.72 4875.15 1303.38 4983.07 1448.44 4974.26C1564.48 4967.21 1639.79 4930.75 1662.93 4913.4" stroke="#FFAD41" stroke-width="1.05411"/>
<path d="M-757.992 4154.47C-703.743 4226.41 -553.504 4366.58 -386.545 4351.71C-177.845 4333.12 -2.21494 4435.53 87.0277 4510.22C176.27 4584.91 396.387 4715.36 601.526 4682.44C806.666 4649.52 962.067 4668.07 1144.15 4767.86C1326.23 4867.64 1305.89 4975.57 1450.95 4966.76C1567 4959.71 1642.3 4923.24 1665.44 4905.89" stroke="#FFAD41" stroke-width="1.05411"/>
<path d="M-752.611 4138.4C-698.362 4210.34 -548.123 4350.5 -381.164 4335.63C-172.465 4317.05 3.16592 4419.46 92.4085 4494.15C181.651 4568.84 401.768 4699.28 606.907 4666.36C812.046 4633.44 967.448 4651.99 1149.53 4751.78C1331.61 4851.57 1311.27 4959.49 1456.33 4950.68C1572.38 4943.63 1647.68 4907.17 1670.82 4889.82" stroke="#FFAD41" stroke-width="1.05411"/>
<path d="M-755.481 4146.97C-701.232 4218.91 -550.993 4359.07 -384.034 4344.21C-175.334 4325.62 0.296049 4428.03 89.5386 4502.72C178.781 4577.41 398.898 4707.86 604.037 4674.94C809.177 4642.01 964.578 4660.57 1146.66 4760.35C1328.74 4860.14 1308.4 4968.07 1453.46 4959.26C1569.51 4952.21 1644.81 4915.74 1667.95 4898.39" stroke="#FFAD41" stroke-width="1.05411"/>
<path d="M-731.446 4075.17C-677.197 4147.11 -526.959 4287.27 -359.999 4272.4C-151.3 4253.82 24.3305 4356.23 113.573 4430.92C202.816 4505.61 422.932 4636.05 628.072 4603.13C833.211 4570.21 988.613 4588.76 1170.69 4688.55C1352.77 4788.34 1332.44 4896.26 1477.5 4887.45C1593.54 4880.4 1668.84 4843.94 1691.99 4826.59" stroke="#FFAD41" stroke-width="1.05411"/>
<path d="M-749.024 4127.68C-694.775 4199.62 -544.536 4339.78 -377.577 4324.92C-168.877 4306.33 6.7532 4408.74 95.9958 4483.43C185.238 4558.12 405.355 4688.57 610.494 4655.64C815.634 4622.72 971.035 4641.27 1153.12 4741.06C1335.2 4840.85 1314.86 4948.78 1459.92 4939.96C1575.96 4932.91 1651.27 4896.45 1674.41 4879.1" stroke="#FFAD41" stroke-width="1.05411"/>
<path d="M-746.154 4119.11C-691.905 4191.05 -541.666 4331.21 -374.707 4316.34C-166.007 4297.76 9.62307 4400.17 98.8657 4474.86C188.108 4549.55 408.225 4679.99 613.364 4647.07C818.504 4614.15 973.905 4632.7 1155.99 4732.49C1338.07 4832.28 1317.73 4940.21 1462.79 4931.39C1578.83 4924.34 1654.14 4887.88 1677.28 4870.53" stroke="#FFAD41" stroke-width="1.05411"/>
<path d="M-743.284 4110.53C-689.035 4182.47 -538.796 4322.64 -371.837 4307.77C-163.138 4289.19 12.4929 4391.6 101.736 4466.28C190.978 4540.97 411.095 4671.42 616.234 4638.5C821.373 4605.58 976.775 4624.13 1158.86 4723.92C1340.94 4823.7 1320.6 4931.63 1465.66 4922.82C1581.7 4915.77 1657 4879.3 1680.15 4861.95" stroke="#FFAD41" stroke-width="1.05411"/>
<path d="M-740.055 4100.89C-685.806 4172.83 -535.568 4312.99 -368.608 4298.13C-159.909 4279.54 15.7218 4381.95 104.964 4456.64C194.207 4531.33 414.323 4661.78 619.463 4628.85C824.602 4595.93 980.004 4614.48 1162.08 4714.27C1344.17 4814.06 1323.83 4921.99 1468.89 4913.17C1584.93 4906.12 1660.23 4869.66 1683.38 4852.31" stroke="#FFAD41" stroke-width="1.05411"/>
<path d="M-737.186 4092.32C-682.937 4164.26 -532.698 4304.42 -365.739 4289.55C-157.039 4270.97 18.5912 4373.38 107.834 4448.07C197.076 4522.76 417.193 4653.2 622.332 4620.28C827.472 4587.36 982.873 4605.91 1164.95 4705.7C1347.04 4805.49 1326.7 4913.41 1471.76 4904.6C1587.8 4897.55 1663.1 4861.09 1686.25 4843.74" stroke="#FFAD41" stroke-width="1.05411"/>
<path d="M-734.316 4083.74C-680.067 4155.68 -529.829 4295.84 -362.869 4280.98C-154.17 4262.39 21.4606 4364.8 110.703 4439.49C199.946 4514.18 420.062 4644.63 625.202 4611.71C830.341 4578.78 985.743 4597.34 1167.82 4697.12C1349.9 4796.91 1329.57 4904.84 1474.63 4896.03C1590.67 4888.97 1665.97 4852.51 1689.12 4835.16" stroke="#FFAD41" stroke-width="1.05411"/>
<path d="M-728.218 4065.52C-673.968 4137.46 -523.73 4277.63 -356.771 4262.76C-148.071 4244.17 27.5594 4346.58 116.802 4421.27C206.045 4495.96 426.161 4626.41 631.3 4593.49C836.44 4560.56 991.842 4579.12 1173.92 4678.9C1356 4778.69 1335.67 4886.62 1480.72 4877.81C1596.77 4870.76 1672.07 4834.29 1695.22 4816.94" stroke="#FFAD41" stroke-width="1.05411"/>
<path d="M-693.143 3960.74C-638.894 4032.68 -488.656 4172.84 -321.696 4157.97C-112.997 4139.39 62.6337 4241.8 151.876 4316.49C241.119 4391.17 461.235 4521.62 666.375 4488.7C871.514 4455.78 1026.92 4474.33 1209 4574.12C1391.08 4673.91 1370.74 4781.83 1515.8 4773.02C1631.84 4765.97 1707.15 4729.5 1730.29 4712.15" stroke="#FFAD41" stroke-width="1.05411"/>
<path d="M-722.917 4049.69C-668.668 4121.63 -518.43 4261.79 -351.47 4246.92C-142.771 4228.34 32.8595 4330.75 122.102 4405.44C211.345 4480.13 431.461 4610.57 636.601 4577.65C841.74 4544.73 997.142 4563.28 1179.22 4663.07C1361.3 4762.86 1340.97 4870.78 1486.02 4861.97C1602.07 4854.92 1677.37 4818.46 1700.52 4801.11" stroke="#FFAD41" stroke-width="1.05411"/>
<path d="M-725.787 4058.26C-671.538 4130.2 -521.3 4270.36 -354.34 4255.5C-145.641 4236.91 29.9896 4339.32 119.232 4414.01C208.475 4488.7 428.591 4619.15 633.731 4586.22C838.87 4553.3 994.272 4571.85 1176.35 4671.64C1358.43 4771.43 1338.1 4879.36 1483.15 4870.55C1599.2 4863.49 1674.5 4827.03 1697.65 4809.68" stroke="#FFAD41" stroke-width="1.05411"/>
<path d="M-718.971 4037.9C-664.722 4109.84 -514.484 4250 -347.524 4235.13C-138.825 4216.55 36.8058 4318.96 126.048 4393.65C215.291 4468.34 435.407 4598.78 640.547 4565.86C845.686 4532.94 1001.09 4551.49 1183.17 4651.28C1365.25 4751.07 1344.91 4858.99 1489.97 4850.18C1606.02 4843.13 1681.32 4806.67 1704.46 4789.32" stroke="#FFAD41" stroke-width="1.05411"/>
<path d="M-715.384 4027.18C-661.135 4099.12 -510.896 4239.28 -343.937 4224.42C-135.237 4205.83 40.3932 4308.24 129.636 4382.93C218.878 4457.62 438.995 4588.07 644.134 4555.14C849.274 4522.22 1004.68 4540.77 1186.76 4640.56C1368.84 4740.35 1348.5 4848.28 1493.56 4839.46C1609.6 4832.41 1684.91 4795.95 1708.05 4778.6" stroke="#FFAD41" stroke-width="1.05411"/>
<path d="M-711.797 4016.46C-657.548 4088.4 -507.309 4228.57 -340.35 4213.7C-131.65 4195.12 43.98 4297.52 133.223 4372.21C222.465 4446.9 442.582 4577.35 647.721 4544.43C852.861 4511.51 1008.26 4530.06 1190.34 4629.85C1372.42 4729.63 1352.09 4837.56 1497.14 4828.75C1613.19 4821.7 1688.49 4785.23 1711.64 4767.88" stroke="#FFAD41" stroke-width="1.05411"/>
<path d="M-708.21 4005.75C-653.96 4077.69 -503.722 4217.85 -336.762 4202.98C-128.063 4184.4 47.5674 4286.81 136.81 4361.5C226.053 4436.19 446.169 4566.63 651.308 4533.71C856.448 4500.79 1011.85 4519.34 1193.93 4619.13C1376.01 4718.92 1355.68 4826.84 1500.73 4818.03C1616.78 4810.98 1692.08 4774.52 1715.22 4757.17" stroke="#FFAD41" stroke-width="1.05411"/>
<path d="M-704.264 3993.96C-650.015 4065.9 -499.776 4206.06 -332.817 4191.19C-124.117 4172.61 51.5132 4275.02 140.756 4349.71C229.998 4424.4 450.115 4554.84 655.254 4521.92C860.394 4489 1015.8 4507.55 1197.88 4607.34C1379.96 4707.13 1359.62 4815.06 1504.68 4806.24C1620.72 4799.19 1696.03 4762.73 1719.17 4745.38" stroke="#FFAD41" stroke-width="1.05411"/>
<path d="M-699.959 3981.1C-645.71 4053.04 -495.471 4193.2 -328.512 4178.33C-119.812 4159.75 55.818 4262.16 145.061 4336.85C234.303 4411.54 454.42 4541.98 659.559 4509.06C864.699 4476.14 1020.1 4494.69 1202.18 4594.48C1384.26 4694.27 1363.93 4802.19 1508.98 4793.38C1625.03 4786.33 1700.33 4749.87 1723.48 4732.52" stroke="#FFAD41" stroke-width="1.05411"/>
<path d="M-695.654 3968.24C-641.405 4040.18 -491.167 4180.34 -324.207 4165.47C-115.508 4146.89 60.1228 4249.3 149.365 4323.99C238.608 4398.68 458.724 4529.12 663.864 4496.2C869.003 4463.28 1024.41 4481.83 1206.49 4581.62C1388.57 4681.41 1368.23 4789.33 1513.29 4780.52C1629.33 4773.47 1704.63 4737.01 1727.78 4719.66" stroke="#FFAD41" stroke-width="1.05411"/>
<g filter="url(#filter0_f_10_5736)">
<ellipse cx="2.63528" cy="2.10822" rx="2.63528" ry="2.10822" transform="matrix(0.948288 0.317412 0.317412 -0.948288 113.567 3898.55)" fill="#D9D9D9" fill-opacity="0.2"/>
</g>
<path d="M1585.47 2040.18C1563 1968.32 1484.88 1824.81 1352.13 1825.64C1186.2 1826.68 1078.33 1716.63 1029.62 1639.43C980.907 1562.23 846.284 1422.35 679.236 1437.14C512.189 1451.93 397.35 1422.27 283.804 1314.18C170.258 1206.1 214.989 1106.29 100.762 1103.16C9.37975 1100.65 -58.5012 1128.99 -81.0189 1143.47" stroke="#FFAD41" stroke-width="1.05411"/>
<path d="M1578.13 2052.91C1555.66 1981.05 1477.53 1837.53 1344.79 1838.36C1178.85 1839.4 1070.99 1729.36 1022.27 1652.16C973.562 1574.96 838.938 1435.07 671.891 1449.86C504.844 1464.66 390.005 1435 276.459 1326.91C162.913 1218.82 207.643 1119.01 93.4159 1115.88C2.03405 1113.37 -65.8469 1141.71 -88.3646 1156.19" stroke="#FFAD41" stroke-width="1.05411"/>
<path d="M1601.85 2009.19C1579.38 1937.32 1501.26 1793.81 1368.51 1794.64C1202.58 1795.68 1094.71 1685.64 1046 1608.44C997.287 1531.24 862.663 1391.35 695.616 1406.14C528.569 1420.93 413.73 1391.27 300.184 1283.19C186.638 1175.1 231.369 1075.29 117.141 1072.16C25.7596 1069.65 -42.1213 1097.99 -64.639 1112.47" stroke="#FFAD41" stroke-width="1.05411"/>
<path d="M1599.6 2015.72C1577.13 1943.85 1499.01 1800.34 1366.26 1801.17C1200.33 1802.21 1092.46 1692.16 1043.75 1614.97C995.034 1537.77 860.41 1397.88 693.363 1412.67C526.316 1427.46 411.477 1397.8 297.931 1289.72C184.385 1181.63 229.116 1081.82 114.889 1078.69C23.5067 1076.18 -44.3742 1104.52 -66.892 1119" stroke="#FFAD41" stroke-width="1.05411"/>
<path d="M1596.21 2021.59C1573.74 1949.73 1495.62 1806.21 1362.87 1807.04C1196.94 1808.08 1089.07 1698.04 1040.36 1620.84C991.644 1543.64 857.02 1403.75 689.973 1418.54C522.926 1433.34 408.087 1403.68 294.541 1295.59C180.995 1187.5 225.726 1087.69 111.498 1084.56C20.1166 1082.06 -47.7644 1110.39 -70.2821 1124.87" stroke="#FFAD41" stroke-width="1.05411"/>
<path d="M1592.82 2027.46C1570.35 1955.6 1492.23 1812.08 1359.48 1812.91C1193.55 1813.95 1085.68 1703.91 1036.97 1626.71C988.253 1549.51 853.629 1409.62 686.582 1424.42C519.535 1439.21 404.696 1409.55 291.15 1301.46C177.604 1193.37 222.335 1093.57 108.108 1090.43C16.7257 1087.93 -51.1552 1116.26 -73.673 1130.74" stroke="#FFAD41" stroke-width="1.05411"/>
<path d="M1589.43 2033.33C1566.96 1961.47 1488.83 1817.95 1356.09 1818.79C1190.16 1819.83 1082.29 1709.78 1033.58 1632.58C984.863 1555.38 850.239 1415.5 683.192 1430.29C516.145 1445.08 401.306 1415.42 287.76 1307.33C174.214 1199.25 218.944 1099.44 104.717 1096.31C13.3353 1093.8 -54.5456 1122.14 -77.0633 1136.62" stroke="#FFAD41" stroke-width="1.05411"/>
<path d="M1606.95 2002.99C1584.48 1931.13 1506.35 1787.61 1373.61 1788.44C1207.67 1789.48 1099.81 1679.44 1051.09 1602.24C1002.38 1525.04 867.756 1385.16 700.709 1399.95C533.662 1414.74 418.823 1385.08 305.277 1276.99C191.731 1168.9 236.462 1069.1 122.234 1065.97C30.8527 1063.46 -37.0283 1091.79 -59.546 1106.28" stroke="#FFAD41" stroke-width="1.05411"/>
<path d="M1582.65 2045.08C1560.18 1973.21 1482.05 1829.7 1349.31 1830.53C1183.37 1831.57 1075.51 1721.53 1026.8 1644.33C978.082 1567.13 843.458 1427.24 676.411 1442.03C509.364 1456.82 394.525 1427.16 280.979 1319.08C167.433 1210.99 212.164 1111.18 97.9364 1108.05C6.55456 1105.54 -61.3264 1133.88 -83.8441 1148.36" stroke="#FFAD41" stroke-width="1.05411"/>
<path d="M1574.74 2058.78C1552.27 1986.92 1474.14 1843.4 1341.4 1844.23C1175.46 1845.27 1067.6 1735.23 1018.88 1658.03C970.171 1580.83 835.547 1440.94 668.5 1455.73C501.453 1470.53 386.614 1440.87 273.068 1332.78C159.522 1224.69 204.253 1124.89 90.0255 1121.75C-1.35633 1119.25 -69.2373 1147.58 -91.755 1162.06" stroke="#FFAD41" stroke-width="1.05411"/>
<path d="M1570.78 2065.63C1548.31 1993.77 1470.19 1850.25 1337.44 1851.08C1171.51 1852.12 1063.64 1742.08 1014.93 1664.88C966.216 1587.68 831.592 1447.8 664.545 1462.59C497.498 1477.38 382.659 1447.72 269.113 1339.63C155.567 1231.54 200.297 1131.74 86.0699 1128.6C-5.3119 1126.1 -73.1928 1154.43 -95.7106 1168.92" stroke="#FFAD41" stroke-width="1.05411"/>
<path d="M1562.31 2080.31C1539.84 2008.45 1461.71 1864.93 1328.97 1865.76C1163.03 1866.8 1055.17 1756.76 1006.45 1679.56C957.74 1602.36 823.116 1462.48 656.069 1477.27C489.022 1492.06 374.183 1462.4 260.637 1354.31C147.091 1246.23 191.821 1146.42 77.5939 1143.29C-13.788 1140.78 -81.6689 1169.11 -104.187 1183.6" stroke="#FFAD41" stroke-width="1.05411"/>
<path d="M1566.83 2072.48C1544.36 2000.62 1466.23 1857.1 1333.49 1857.93C1167.55 1858.97 1059.69 1748.93 1010.97 1671.73C962.26 1594.53 827.636 1454.65 660.589 1469.44C493.542 1484.23 378.703 1454.57 265.157 1346.48C151.611 1238.4 196.342 1138.59 82.1144 1135.46C-9.26746 1132.95 -77.1484 1161.28 -99.6661 1175.77" stroke="#FFAD41" stroke-width="1.05411"/>
<path d="M1528.97 2138.06C1506.5 2066.2 1428.37 1922.68 1295.63 1923.51C1129.69 1924.55 1021.83 1814.51 973.113 1737.31C924.4 1660.11 789.776 1520.22 622.729 1535.01C455.682 1549.8 340.843 1520.15 227.297 1412.06C113.751 1303.97 158.482 1204.16 44.2545 1201.03C-47.1273 1198.52 -115.008 1226.86 -137.526 1241.34" stroke="#FFAD41" stroke-width="1.05411"/>
<path d="M1556.65 2090.1C1534.19 2018.24 1456.06 1874.72 1323.31 1875.55C1157.38 1876.59 1049.51 1766.55 1000.8 1689.35C952.089 1612.15 817.465 1472.26 650.418 1487.06C483.371 1501.85 368.532 1472.19 254.986 1364.1C141.44 1256.01 186.17 1156.21 71.943 1153.07C-19.4389 1150.57 -87.3198 1178.9 -109.838 1193.38" stroke="#FFAD41" stroke-width="1.05411"/>
<path d="M1552.13 2097.93C1529.66 2026.07 1451.54 1882.55 1318.79 1883.38C1152.86 1884.42 1044.99 1774.38 996.281 1697.18C947.568 1619.98 812.944 1480.09 645.897 1494.89C478.85 1509.68 364.011 1480.02 250.465 1371.93C136.919 1263.84 181.649 1164.04 67.4222 1160.9C-23.9596 1158.4 -91.8405 1186.73 -114.358 1201.21" stroke="#FFAD41" stroke-width="1.05411"/>
<path d="M1547.61 2105.76C1525.14 2033.9 1447.02 1890.38 1314.27 1891.21C1148.34 1892.25 1040.47 1782.21 991.761 1705.01C943.048 1627.81 808.424 1487.92 641.377 1502.72C474.329 1517.51 359.491 1487.85 245.945 1379.76C132.398 1271.67 177.129 1171.87 62.9017 1168.73C-28.4801 1166.23 -96.361 1194.56 -118.879 1209.04" stroke="#FFAD41" stroke-width="1.05411"/>
<path d="M1542.53 2114.57C1520.06 2042.71 1441.93 1899.19 1309.19 1900.02C1143.25 1901.06 1035.39 1791.02 986.675 1713.82C937.962 1636.62 803.338 1496.73 636.291 1511.52C469.244 1526.32 354.405 1496.66 240.859 1388.57C127.313 1280.48 172.043 1180.67 57.8158 1177.54C-33.566 1175.03 -101.447 1203.37 -123.965 1217.85" stroke="#FFAD41" stroke-width="1.05411"/>
<path d="M1538.01 2122.4C1515.54 2050.54 1437.41 1907.02 1304.67 1907.85C1138.73 1908.89 1030.87 1798.85 982.155 1721.65C933.442 1644.45 798.818 1504.56 631.771 1519.35C464.723 1534.15 349.885 1504.49 236.339 1396.4C122.793 1288.31 167.523 1188.5 53.2958 1185.37C-38.0861 1182.86 -105.967 1211.2 -128.485 1225.68" stroke="#FFAD41" stroke-width="1.05411"/>
<path d="M1533.49 2130.23C1511.02 2058.37 1432.89 1914.85 1300.15 1915.68C1134.21 1916.72 1026.35 1806.68 977.634 1729.48C928.921 1652.28 794.297 1512.39 627.25 1527.18C460.203 1541.97 345.364 1512.32 231.818 1404.23C118.272 1296.14 163.003 1196.33 48.7752 1193.2C-42.6066 1190.69 -110.487 1219.03 -133.005 1233.51" stroke="#FFAD41" stroke-width="1.05411"/>
<path d="M1523.88 2146.87C1501.41 2075 1423.29 1931.49 1290.54 1932.32C1124.61 1933.36 1016.74 1823.32 968.028 1746.12C919.315 1668.92 784.691 1529.03 617.644 1543.82C450.597 1558.61 335.758 1528.95 222.212 1420.87C108.666 1312.78 153.396 1212.97 39.1688 1209.84C-52.213 1207.33 -120.094 1235.67 -142.612 1250.15" stroke="#FFAD41" stroke-width="1.05411"/>
<path d="M1468.63 2242.56C1446.16 2170.7 1368.04 2027.18 1235.29 2028.02C1069.36 2029.06 961.49 1919.01 912.777 1841.81C864.064 1764.61 729.44 1624.73 562.393 1639.52C395.346 1654.31 280.507 1624.65 166.961 1516.56C53.4149 1408.48 98.1453 1308.67 -16.0819 1305.54C-107.464 1303.03 -175.345 1331.37 -197.862 1345.85" stroke="#FFAD41" stroke-width="1.05411"/>
<path d="M1515.53 2161.33C1493.06 2089.47 1414.94 1945.95 1282.19 1946.78C1116.26 1947.82 1008.39 1837.78 959.678 1760.58C910.965 1683.38 776.341 1543.49 609.294 1558.28C442.247 1573.08 327.408 1543.42 213.862 1435.33C100.316 1327.24 145.046 1227.43 30.8192 1224.3C-60.5626 1221.79 -128.444 1250.13 -150.961 1264.61" stroke="#FFAD41" stroke-width="1.05411"/>
<path d="M1520.05 2153.5C1497.58 2081.64 1419.46 1938.12 1286.71 1938.95C1120.78 1939.99 1012.91 1829.95 964.199 1752.75C915.486 1675.55 780.862 1535.66 613.815 1550.45C446.768 1565.25 331.929 1535.59 218.383 1427.5C104.837 1319.41 149.567 1219.6 35.3399 1216.47C-56.0419 1213.96 -123.923 1242.3 -146.441 1256.78" stroke="#FFAD41" stroke-width="1.05411"/>
<path d="M1509.31 2172.09C1486.85 2100.23 1408.72 1956.72 1275.97 1957.55C1110.04 1958.59 1002.17 1848.54 953.462 1771.34C904.749 1694.15 770.125 1554.26 603.078 1569.05C436.031 1583.84 321.192 1554.18 207.646 1446.09C94.0999 1338.01 138.83 1238.2 24.6031 1235.07C-66.7787 1232.56 -134.66 1260.9 -157.177 1275.38" stroke="#FFAD41" stroke-width="1.05411"/>
<path d="M1503.66 2181.88C1481.19 2110.02 1403.07 1966.5 1270.32 1967.33C1104.39 1968.37 996.524 1858.33 947.811 1781.13C899.098 1703.93 764.474 1564.05 597.427 1578.84C430.38 1593.63 315.541 1563.97 201.995 1455.88C88.449 1347.79 133.18 1247.99 18.9522 1244.85C-72.4296 1242.35 -140.31 1270.68 -162.828 1285.17" stroke="#FFAD41" stroke-width="1.05411"/>
<path d="M1498.01 2191.67C1475.54 2119.81 1397.42 1976.29 1264.67 1977.12C1098.74 1978.16 990.874 1868.12 942.161 1790.92C893.448 1713.72 758.824 1573.83 591.777 1588.62C424.73 1603.42 309.891 1573.76 196.345 1465.67C82.7986 1357.58 127.529 1257.78 13.3019 1254.64C-78.08 1252.14 -145.961 1280.47 -168.479 1294.95" stroke="#FFAD41" stroke-width="1.05411"/>
<path d="M1492.36 2201.46C1469.89 2129.59 1391.77 1986.08 1259.02 1986.91C1093.09 1987.95 985.223 1877.91 936.51 1800.71C887.797 1723.51 753.173 1583.62 586.126 1598.41C419.079 1613.2 304.24 1583.54 190.694 1475.46C77.1478 1367.37 121.878 1267.56 7.65098 1264.43C-83.7308 1261.92 -151.612 1290.26 -174.13 1304.74" stroke="#FFAD41" stroke-width="1.05411"/>
<path d="M1486.15 2212.22C1463.68 2140.36 1385.55 1996.84 1252.81 1997.68C1086.87 1998.71 979.007 1888.67 930.294 1811.47C881.581 1734.27 746.957 1594.39 579.91 1609.18C412.863 1623.97 298.024 1594.31 184.478 1486.22C70.9322 1378.14 115.663 1278.33 1.43541 1275.2C-89.9464 1272.69 -157.827 1301.02 -180.345 1315.51" stroke="#FFAD41" stroke-width="1.05411"/>
<path d="M1479.37 2223.97C1456.9 2152.1 1378.77 2008.59 1246.03 2009.42C1080.09 2010.46 972.226 1900.42 923.513 1823.22C874.8 1746.02 740.176 1606.13 573.129 1620.92C406.082 1635.71 291.243 1606.05 177.697 1497.97C64.1509 1389.88 108.881 1290.07 -5.34584 1286.94C-96.7277 1284.43 -164.609 1312.77 -187.126 1327.25" stroke="#FFAD41" stroke-width="1.05411"/>
<path d="M1472.59 2235.71C1450.12 2163.85 1371.99 2020.33 1239.24 2021.17C1073.31 2022.21 965.445 1912.16 916.732 1834.96C868.019 1757.76 733.395 1617.88 566.348 1632.67C399.301 1647.46 284.462 1617.8 170.916 1509.71C57.3702 1401.63 102.101 1301.82 -12.1266 1298.69C-103.508 1296.18 -171.389 1324.52 -193.907 1339" stroke="#FFAD41" stroke-width="1.05411"/>
<g filter="url(#filter1_f_10_5736)">
<ellipse cx="2.63528" cy="2.10822" rx="2.63528" ry="2.10822" transform="matrix(-0.866025 -0.5 -0.5 0.866025 665.706 2142.76)" fill="#D9D9D9" fill-opacity="0.2"/>
</g>
<g clip-path="url(#clip1_10_5736)">
<path fill-rule="evenodd" clip-rule="evenodd" d="M815.719 3088.79C892.464 3062.31 957.45 3019.7 995.069 2987.01C1070.46 2921.5 1218.08 2839.24 1391.02 2888.53C1459.92 2908.17 1526.08 2886.76 1580.83 2851.96C1635.59 2817.16 1678.87 2769 1701.97 2735.26L1702.79 2735.82C1679.63 2769.65 1636.25 2817.92 1581.36 2852.8C1526.47 2887.69 1460.01 2909.24 1390.74 2889.5C1218.26 2840.34 1070.98 2922.37 995.718 2987.76C958.01 3020.53 892.914 3063.21 816.035 3089.74C739.154 3116.27 650.443 3126.65 565.548 3094.73C480.831 3062.88 406.224 3046.28 333.729 3047.44C261.24 3048.6 190.832 3067.51 114.513 3106.72C48.0071 3140.89 13.3462 3182.14 -14.5896 3215.39C-18.6913 3220.27 -22.6479 3224.98 -26.5391 3229.47C-41.7312 3246.99 -55.9609 3261.2 -73.9492 3269.13C-91.9562 3277.07 -113.663 3278.69 -143.765 3271.2C-239.952 3247.24 -301.827 3198.28 -320.777 3176.74L-320.027 3176.07C-301.214 3197.45 -239.517 3246.31 -143.517 3270.22C-113.561 3277.68 -92.0913 3276.04 -74.3426 3268.21C-56.5754 3260.38 -42.4706 3246.33 -27.2885 3228.81C-23.4053 3224.33 -19.454 3219.63 -15.3554 3214.75C12.5849 3181.5 47.3697 3140.09 114.066 3105.83C190.499 3066.56 261.057 3047.6 333.723 3046.44C406.383 3045.28 481.119 3061.92 565.906 3093.79C650.515 3125.6 738.974 3115.27 815.719 3088.79Z" fill="#FFAD41"/>
<path fill-rule="evenodd" clip-rule="evenodd" d="M812.1 3073.54C888.846 3047.06 953.831 3004.45 991.451 2971.76C1066.84 2906.25 1214.47 2823.99 1387.4 2873.28C1456.3 2892.92 1522.46 2871.51 1577.22 2836.71C1631.97 2801.91 1675.25 2753.75 1698.36 2720.01L1699.18 2720.57C1676.01 2754.4 1632.63 2802.67 1577.74 2837.56C1522.85 2872.44 1456.39 2893.99 1387.12 2874.25C1214.64 2825.09 1067.36 2907.12 992.099 2972.52C954.392 3005.28 889.296 3047.96 812.416 3074.49C735.535 3101.02 646.825 3111.4 561.93 3079.48C477.213 3047.63 402.605 3031.04 330.111 3032.19C257.622 3033.35 187.214 3052.26 110.895 3091.47C44.3887 3125.64 9.72781 3166.89 -18.208 3200.14C-22.3097 3205.02 -26.2664 3209.73 -30.1575 3214.22C-45.3496 3231.74 -59.5794 3245.95 -77.5676 3253.88C-95.5746 3261.82 -117.282 3263.44 -147.384 3255.95C-243.57 3231.99 -305.445 3183.03 -324.395 3161.49L-323.645 3160.82C-304.833 3182.2 -243.135 3231.06 -147.135 3254.97C-117.179 3262.43 -95.7097 3260.79 -77.961 3252.97C-60.1938 3245.13 -46.089 3231.08 -30.9069 3213.56C-27.0237 3209.08 -23.0724 3204.38 -18.9738 3199.5C8.96653 3166.25 43.7513 3124.84 110.448 3090.58C186.881 3051.31 257.439 3032.35 330.105 3031.19C402.765 3030.03 477.501 3046.67 562.287 3078.54C646.897 3110.35 735.356 3100.02 812.1 3073.54Z" fill="#FFAD41"/>
<path fill-rule="evenodd" clip-rule="evenodd" d="M822.952 3125.5C899.697 3099.02 964.683 3056.41 1002.3 3023.72C1077.7 2958.21 1225.32 2875.95 1398.26 2925.24C1467.15 2944.88 1533.31 2923.47 1588.07 2888.67C1642.82 2853.87 1686.11 2805.71 1709.21 2771.97L1710.03 2772.53C1686.86 2806.36 1643.48 2854.63 1588.59 2889.51C1533.7 2924.4 1467.24 2945.95 1397.97 2926.21C1225.49 2877.05 1078.21 2959.08 1002.95 3024.47C965.243 3057.24 900.147 3099.92 823.267 3126.45C746.387 3152.98 657.676 3163.36 572.781 3131.44C488.064 3099.59 413.457 3082.99 340.962 3084.15C268.473 3085.31 198.065 3104.22 121.746 3143.43C55.24 3177.6 20.5791 3218.85 -7.35669 3252.1C-11.4584 3256.98 -15.415 3261.69 -19.3062 3266.18C-34.4983 3283.7 -48.728 3297.91 -66.7163 3305.84C-84.7233 3313.78 -106.43 3315.4 -136.532 3307.91C-232.719 3283.95 -294.594 3234.99 -313.544 3213.45L-312.794 3212.78C-293.981 3234.16 -232.284 3283.02 -136.284 3306.93C-106.328 3314.39 -84.8584 3312.75 -67.1097 3304.92C-49.3425 3297.09 -35.2377 3283.04 -20.0556 3265.52C-16.1724 3261.04 -12.2211 3256.34 -8.12252 3251.46C19.8179 3218.21 54.6026 3176.8 121.299 3142.54C197.732 3103.27 268.29 3084.31 340.956 3083.15C413.616 3081.99 488.352 3098.63 573.139 3130.5C657.748 3162.31 746.207 3151.98 822.952 3125.5Z" fill="#FFAD41"/>
<path fill-rule="evenodd" clip-rule="evenodd" d="M822.677 3118.12C899.422 3091.64 964.408 3049.02 1002.03 3016.33C1077.42 2950.83 1225.04 2868.57 1397.98 2917.86C1466.88 2937.49 1533.04 2916.08 1587.79 2881.28C1642.55 2846.48 1685.83 2798.32 1708.93 2764.58L1709.75 2765.15C1686.59 2798.98 1643.21 2847.24 1588.32 2882.13C1533.43 2917.02 1466.97 2938.56 1397.7 2918.82C1225.22 2869.66 1077.94 2951.69 1002.68 3017.09C964.968 3049.85 899.872 3092.54 822.993 3119.06C746.112 3145.59 657.401 3155.97 572.506 3124.06C487.789 3092.21 413.182 3075.61 340.687 3076.76C268.198 3077.92 197.79 3096.83 121.471 3136.04C54.9651 3170.21 20.3042 3211.46 -7.6316 3244.71C-11.7333 3249.59 -15.6899 3254.3 -19.5811 3258.79C-34.7732 3276.32 -49.0029 3290.53 -66.9912 3298.46C-84.9982 3306.4 -106.705 3308.02 -136.807 3300.52C-232.994 3276.56 -294.869 3227.6 -313.819 3206.06L-313.069 3205.39C-294.256 3226.78 -232.559 3275.64 -136.559 3299.55C-106.603 3307.01 -85.1333 3305.36 -67.3846 3297.54C-49.6174 3289.71 -35.5126 3275.65 -20.3305 3258.14C-16.4473 3253.66 -12.496 3248.95 -8.39743 3244.08C19.543 3210.82 54.3277 3169.42 121.024 3135.15C197.457 3095.88 268.015 3076.92 340.681 3075.76C413.341 3074.6 488.077 3091.24 572.864 3123.12C657.473 3154.92 745.932 3144.59 822.677 3118.12Z" fill="#FFAD41"/>
<path fill-rule="evenodd" clip-rule="evenodd" d="M821.007 3111.08C897.753 3084.6 962.738 3041.98 1000.36 3009.3C1075.75 2943.79 1223.37 2861.53 1396.31 2910.82C1465.21 2930.45 1531.37 2909.05 1586.12 2874.25C1640.88 2839.44 1684.16 2791.28 1707.26 2757.55L1708.08 2758.11C1684.92 2791.94 1641.54 2840.2 1586.65 2875.09C1531.76 2909.98 1465.3 2931.53 1396.03 2911.78C1223.55 2862.62 1076.27 2944.66 1001.01 3010.05C963.298 3042.82 898.202 3085.5 821.323 3112.03C744.442 3138.55 655.731 3148.93 570.836 3117.02C486.119 3085.17 411.512 3068.57 339.017 3069.73C266.528 3070.88 196.12 3089.79 119.802 3129C53.2952 3163.17 18.6343 3204.43 -9.30152 3237.67C-13.4032 3242.56 -17.3599 3247.26 -21.251 3251.75C-36.4432 3269.28 -50.6729 3283.49 -68.6611 3291.42C-86.6681 3299.36 -108.375 3300.98 -138.477 3293.48C-234.664 3269.53 -296.538 3220.56 -315.489 3199.02L-314.739 3198.35C-295.926 3219.74 -234.229 3268.6 -138.229 3292.51C-108.273 3299.97 -86.8032 3298.33 -69.0546 3290.5C-51.2873 3282.67 -37.1825 3268.61 -22.0004 3251.1C-18.1172 3246.62 -14.1659 3241.92 -10.0673 3237.04C17.873 3203.78 52.6578 3162.38 119.354 3128.11C195.787 3088.84 266.345 3069.88 339.011 3068.73C411.671 3067.57 486.407 3084.2 571.194 3116.08C655.803 3147.89 744.262 3137.56 821.007 3111.08Z" fill="#FFAD41"/>
<path fill-rule="evenodd" clip-rule="evenodd" d="M819.337 3104.04C896.083 3077.56 961.068 3034.95 998.688 3002.26C1074.08 2936.75 1221.7 2854.49 1394.64 2903.78C1463.54 2923.42 1529.7 2902.01 1584.45 2867.21C1639.21 2832.41 1682.49 2784.25 1705.59 2750.51L1706.41 2751.07C1683.25 2784.9 1639.87 2833.17 1584.98 2868.05C1530.09 2902.94 1463.63 2924.49 1394.36 2904.75C1221.88 2855.59 1074.6 2937.62 999.336 3003.01C961.629 3035.78 896.532 3078.46 819.653 3104.99C742.772 3131.51 654.061 3141.9 569.167 3109.98C484.449 3078.13 409.842 3061.53 337.347 3062.69C264.858 3063.85 194.45 3082.75 118.132 3121.97C51.6253 3156.14 16.9644 3197.39 -10.9714 3230.64C-15.0731 3235.52 -19.0298 3240.23 -22.9209 3244.72C-38.1131 3262.24 -52.3428 3276.45 -70.331 3284.38C-88.338 3292.32 -110.045 3293.94 -140.147 3286.44C-236.334 3262.49 -298.208 3213.53 -317.159 3191.98L-316.409 3191.32C-297.596 3212.7 -235.899 3261.56 -139.899 3285.47C-109.943 3292.93 -88.4731 3291.29 -70.7245 3283.46C-52.9572 3275.63 -38.8524 3261.57 -23.6703 3244.06C-19.7872 3239.58 -15.8358 3234.88 -11.7373 3230C16.2031 3196.74 50.9879 3155.34 117.684 3121.07C194.117 3081.8 264.676 3062.85 337.341 3061.69C410.002 3060.53 484.737 3077.17 569.524 3109.04C654.133 3140.85 742.592 3130.52 819.337 3104.04Z" fill="#FFAD41"/>
<path fill-rule="evenodd" clip-rule="evenodd" d="M817.667 3097C894.413 3070.52 959.398 3027.91 997.018 2995.22C1072.41 2929.71 1220.03 2847.45 1392.97 2896.74C1461.87 2916.38 1528.03 2894.97 1582.78 2860.17C1637.54 2825.37 1680.82 2777.21 1703.92 2743.47L1704.74 2744.03C1681.58 2777.86 1638.2 2826.13 1583.31 2861.02C1528.42 2895.9 1461.96 2917.45 1392.69 2897.71C1220.21 2848.55 1072.93 2930.58 997.666 2995.98C959.959 3028.74 894.862 3071.42 817.983 3097.95C741.102 3124.48 652.392 3134.86 567.497 3102.94C482.779 3071.09 408.172 3054.5 335.678 3055.65C263.188 3056.81 192.78 3075.72 116.462 3114.93C49.9553 3149.1 15.2945 3190.35 -12.6414 3223.6C-16.743 3228.48 -20.6997 3233.19 -24.5909 3237.68C-39.783 3255.2 -54.0127 3269.41 -72.001 3277.34C-90.008 3285.28 -111.715 3286.9 -141.817 3279.41C-238.003 3255.45 -299.878 3206.49 -318.829 3184.95L-318.079 3184.28C-299.266 3205.66 -237.568 3254.52 -141.568 3278.43C-111.613 3285.89 -90.143 3284.25 -72.3944 3276.43C-54.6271 3268.59 -40.5224 3254.54 -25.3403 3237.02C-21.4571 3232.54 -17.5057 3227.84 -13.4072 3222.96C14.5332 3189.71 49.318 3148.3 116.014 3114.04C192.447 3074.77 263.006 3055.81 335.671 3054.65C408.332 3053.49 483.067 3070.13 567.854 3102C652.463 3133.81 740.922 3123.48 817.667 3097Z" fill="#FFAD41"/>
<path fill-rule="evenodd" clip-rule="evenodd" d="M826.295 3133.36C903.041 3106.88 968.026 3064.27 1005.65 3031.58C1081.04 2966.07 1228.66 2883.82 1401.6 2933.1C1470.5 2952.74 1536.66 2931.33 1591.41 2896.53C1646.16 2861.73 1689.45 2813.57 1712.55 2779.83L1713.37 2780.4C1690.21 2814.23 1646.83 2862.49 1591.94 2897.38C1537.05 2932.27 1470.59 2953.81 1401.32 2934.07C1228.83 2884.91 1081.56 2966.94 1006.29 3032.34C968.587 3065.1 903.49 3107.79 826.611 3134.31C749.73 3160.84 661.019 3171.22 576.125 3139.3C491.407 3107.46 416.8 3090.86 344.305 3092.01C271.816 3093.17 201.408 3112.08 125.09 3151.29C58.5833 3185.46 23.9224 3226.71 -4.01343 3259.96C-8.11509 3264.84 -12.0718 3269.55 -15.9629 3274.04C-31.1551 3291.57 -45.3848 3305.77 -63.373 3313.71C-81.38 3321.64 -103.087 3323.27 -133.189 3315.77C-229.376 3291.81 -291.25 3242.85 -310.201 3221.31L-309.451 3220.64C-290.638 3242.03 -228.941 3290.89 -132.941 3314.8C-102.985 3322.26 -81.5151 3320.61 -63.7665 3312.79C-45.9992 3304.95 -31.8944 3290.9 -16.7123 3273.39C-12.8291 3268.91 -8.87781 3264.2 -4.77926 3259.32C23.1611 3226.07 57.9459 3184.67 124.642 3150.4C201.075 3111.13 271.634 3092.17 344.299 3091.01C416.96 3089.85 491.695 3106.49 576.482 3138.37C661.091 3170.17 749.55 3159.84 826.295 3133.36Z" fill="#FFAD41"/>
<path fill-rule="evenodd" clip-rule="evenodd" d="M814.327 3082.93C891.073 3056.45 956.058 3013.83 993.678 2981.14C1069.07 2915.64 1216.69 2833.38 1389.63 2882.67C1458.53 2902.3 1524.69 2880.89 1579.44 2846.09C1634.2 2811.29 1677.48 2763.13 1700.58 2729.4L1701.4 2729.96C1678.24 2763.79 1634.86 2812.05 1579.97 2846.94C1525.08 2881.83 1458.62 2903.37 1389.35 2883.63C1216.87 2834.47 1069.59 2916.51 994.326 2981.9C956.619 3014.66 891.523 3057.35 814.643 3083.87C737.762 3110.4 649.052 3120.78 564.157 3088.87C479.44 3057.02 404.832 3040.42 332.338 3041.58C259.849 3042.73 189.44 3061.64 113.122 3100.85C46.6155 3135.02 11.9546 3176.27 -15.9812 3209.52C-20.0829 3214.4 -24.0395 3219.11 -27.9307 3223.6C-43.1228 3241.13 -57.3525 3255.34 -75.3408 3263.27C-93.3478 3271.21 -115.055 3272.83 -145.157 3265.33C-241.343 3241.37 -303.218 3192.41 -322.169 3170.87L-321.418 3170.2C-302.606 3191.59 -240.908 3240.45 -144.908 3264.36C-114.952 3271.82 -93.4829 3270.17 -75.7342 3262.35C-57.967 3254.52 -43.8622 3240.46 -28.6801 3222.95C-24.7969 3218.47 -20.8456 3213.76 -16.747 3208.89C11.1933 3175.63 45.9781 3134.23 112.675 3099.96C189.107 3060.69 259.666 3041.73 332.331 3040.57C404.992 3039.41 479.727 3056.05 564.514 3087.93C649.123 3119.74 737.582 3109.41 814.327 3082.93Z" fill="#FFAD41"/>
<path fill-rule="evenodd" clip-rule="evenodd" d="M810.43 3066.51C887.176 3040.03 952.161 2997.41 989.781 2964.72C1065.17 2899.21 1212.8 2816.96 1385.73 2866.25C1454.63 2885.88 1520.79 2864.47 1575.55 2829.67C1630.3 2794.87 1673.59 2746.71 1696.69 2712.97L1697.51 2713.54C1674.34 2747.37 1630.96 2795.63 1576.07 2830.52C1521.18 2865.41 1454.72 2886.95 1385.45 2867.21C1212.97 2818.05 1065.69 2900.08 990.429 2965.48C952.722 2998.24 887.626 3040.93 810.746 3067.45C733.866 3093.98 645.155 3104.36 560.26 3072.45C475.543 3040.6 400.936 3024 328.441 3025.15C255.952 3026.31 185.544 3045.22 109.225 3084.43C42.7188 3118.6 8.05789 3159.85 -19.8779 3193.1C-23.9796 3197.98 -27.9363 3202.69 -31.8274 3207.18C-47.0196 3224.71 -61.2493 3238.91 -79.2375 3246.85C-97.2445 3254.79 -118.951 3256.41 -149.054 3248.91C-245.24 3224.95 -307.115 3175.99 -326.065 3154.45L-325.315 3153.78C-306.503 3175.17 -244.805 3224.03 -148.805 3247.94C-118.849 3255.4 -97.3796 3253.75 -79.631 3245.93C-61.8637 3238.09 -47.7589 3224.04 -32.5768 3206.53C-28.6936 3202.05 -24.7423 3197.34 -20.6438 3192.47C7.29662 3159.21 42.0814 3117.81 108.778 3083.54C185.211 3044.27 255.769 3025.31 328.435 3024.15C401.095 3022.99 475.831 3039.63 560.617 3071.51C645.227 3103.31 733.686 3092.98 810.43 3066.51Z" fill="#FFAD41"/>
<path fill-rule="evenodd" clip-rule="evenodd" d="M808.482 3058.29C885.228 3031.81 950.213 2989.2 987.833 2956.51C1063.23 2891 1210.85 2808.75 1383.79 2858.03C1452.69 2877.67 1518.85 2856.26 1573.6 2821.46C1628.35 2786.66 1671.64 2738.5 1694.74 2704.76L1695.56 2705.33C1672.39 2739.15 1629.01 2787.42 1574.12 2822.31C1519.23 2857.2 1452.78 2878.74 1383.51 2859C1211.02 2809.84 1063.74 2891.87 988.481 2957.27C950.774 2990.03 885.678 3032.72 808.798 3059.24C731.917 3085.77 643.207 3096.15 558.312 3064.23C473.595 3032.39 398.987 3015.79 326.493 3016.94C254.004 3018.1 183.595 3037.01 107.277 3076.22C40.7705 3110.39 6.10965 3151.64 -21.8262 3184.89C-25.9278 3189.77 -29.8845 3194.48 -33.7757 3198.97C-48.9678 3216.49 -63.1975 3230.7 -81.1858 3238.63C-99.1928 3246.57 -120.9 3248.2 -151.002 3240.7C-247.188 3216.74 -309.063 3167.78 -328.014 3146.24L-327.263 3145.57C-308.451 3166.96 -246.753 3215.82 -150.753 3239.73C-120.797 3247.19 -99.3278 3245.54 -81.5792 3237.72C-63.812 3229.88 -49.7072 3215.83 -34.5251 3198.32C-30.6419 3193.84 -26.6906 3189.13 -22.592 3184.25C5.34838 3151 40.1331 3109.6 106.83 3075.33C183.262 3036.06 253.821 3017.1 326.487 3015.94C399.147 3014.78 473.882 3031.42 558.669 3063.29C643.278 3095.1 731.737 3084.77 808.482 3058.29Z" fill="#FFAD41"/>
<path fill-rule="evenodd" clip-rule="evenodd" d="M804.307 3040.7C881.053 3014.22 946.038 2971.61 983.658 2938.92C1059.05 2873.41 1206.67 2791.15 1379.61 2840.44C1448.51 2860.08 1514.67 2838.67 1569.42 2803.87C1624.18 2769.07 1667.46 2720.91 1690.56 2687.17L1691.38 2687.73C1668.22 2721.56 1624.84 2769.83 1569.95 2804.71C1515.06 2839.6 1448.6 2861.15 1379.33 2841.4C1206.85 2792.25 1059.57 2874.28 984.306 2939.67C946.599 2972.44 881.503 3015.12 804.623 3041.65C727.742 3068.17 639.032 3078.56 554.137 3046.64C469.42 3014.79 394.813 2998.19 322.318 2999.35C249.829 3000.51 179.421 3019.41 103.102 3058.63C36.5957 3092.8 1.93484 3134.05 -26.001 3167.3C-30.1026 3172.18 -34.0593 3176.89 -37.9505 3181.37C-53.1426 3198.9 -67.3723 3213.11 -85.3606 3221.04C-103.368 3228.98 -125.075 3230.6 -155.177 3223.1C-251.363 3199.15 -313.238 3150.19 -332.188 3128.64L-331.438 3127.98C-312.626 3149.36 -250.928 3198.22 -154.928 3222.13C-124.972 3229.59 -103.503 3227.95 -85.754 3220.12C-67.9868 3212.29 -53.882 3198.23 -38.6999 3180.72C-34.8167 3176.24 -30.8654 3171.54 -26.7668 3166.66C1.17357 3133.4 35.9583 3092 102.655 3057.73C179.088 3018.46 249.646 2999.51 322.312 2998.35C394.972 2997.19 469.708 3013.83 554.494 3045.7C639.104 3077.51 727.563 3067.18 804.307 3040.7Z" fill="#FFAD41"/>
<path fill-rule="evenodd" clip-rule="evenodd" d="M806.534 3050.08C883.28 3023.6 948.265 2980.99 985.885 2948.3C1061.28 2882.79 1208.9 2800.54 1381.84 2849.82C1450.74 2869.46 1516.9 2848.05 1571.65 2813.25C1626.4 2778.45 1669.69 2730.29 1692.79 2696.55L1693.61 2697.12C1670.45 2730.94 1627.07 2779.21 1572.18 2814.1C1517.29 2848.99 1450.83 2870.53 1381.56 2850.79C1209.07 2801.63 1061.79 2883.66 986.533 2949.06C948.826 2981.82 883.729 3024.51 806.85 3051.03C729.969 3077.56 641.259 3087.94 556.364 3056.02C471.646 3024.17 397.039 3007.58 324.545 3008.73C252.055 3009.89 181.647 3028.8 105.329 3068.01C38.8223 3102.18 4.16141 3143.43 -23.7744 3176.68C-27.8761 3181.56 -31.8328 3186.27 -35.7239 3190.76C-50.9161 3208.28 -65.1458 3222.49 -83.134 3230.42C-101.141 3238.36 -122.848 3239.99 -152.95 3232.49C-249.137 3208.53 -311.011 3159.57 -329.962 3138.03L-329.212 3137.36C-310.399 3158.74 -248.702 3207.6 -152.701 3231.51C-122.746 3238.98 -101.276 3237.33 -83.5275 3229.51C-65.7602 3221.67 -51.6554 3207.62 -36.4733 3190.1C-32.5901 3185.62 -28.6388 3180.92 -24.5402 3176.04C3.40013 3142.79 38.1849 3101.38 104.881 3067.12C181.314 3027.85 251.873 3008.89 324.538 3007.73C397.199 3006.57 471.934 3023.21 556.721 3055.08C641.33 3086.89 729.789 3076.56 806.534 3050.08Z" fill="#FFAD41"/>
<path fill-rule="evenodd" clip-rule="evenodd" d="M787.886 2971.49C864.632 2945.01 929.617 2902.4 967.237 2869.71C1042.63 2804.2 1190.25 2721.95 1363.19 2771.23C1432.09 2790.87 1498.25 2769.46 1553 2734.66C1607.75 2699.86 1651.04 2651.7 1674.14 2617.96L1674.96 2618.53C1651.8 2652.35 1608.42 2700.62 1553.53 2735.51C1498.64 2770.4 1432.18 2791.94 1362.91 2772.2C1190.43 2723.04 1043.15 2805.07 967.885 2870.47C930.178 2903.23 865.082 2945.92 788.202 2972.44C711.321 2998.97 622.611 3009.35 537.716 2977.43C452.999 2945.58 378.391 2928.99 305.897 2930.14C233.408 2931.3 163 2950.21 86.6809 2989.42C20.1746 3023.59 -14.4863 3064.84 -42.4221 3098.09C-46.5238 3102.97 -50.4805 3107.68 -54.3716 3112.17C-69.5638 3129.69 -83.7935 3143.9 -101.782 3151.83C-119.789 3159.77 -141.496 3161.4 -171.598 3153.9C-267.784 3129.94 -329.659 3080.98 -348.61 3059.44L-347.859 3058.77C-329.047 3080.15 -267.349 3129.01 -171.349 3152.92C-141.393 3160.39 -119.924 3158.74 -102.175 3150.92C-84.4079 3143.08 -70.3031 3129.03 -55.121 3111.51C-51.2378 3107.03 -47.2865 3102.33 -43.188 3097.45C-15.2476 3064.2 19.5372 3022.8 86.2336 2988.53C162.666 2949.26 233.225 2930.3 305.891 2929.14C378.551 2927.98 453.286 2944.62 538.073 2976.49C622.682 3008.3 711.142 2997.97 787.886 2971.49Z" fill="#FFAD41"/>
<path fill-rule="evenodd" clip-rule="evenodd" d="M801.524 3028.97C878.27 3002.49 943.255 2959.87 980.875 2927.19C1056.27 2861.68 1203.89 2779.42 1376.83 2828.71C1445.73 2848.35 1511.89 2826.94 1566.64 2792.14C1621.39 2757.34 1664.68 2709.18 1687.78 2675.44L1688.6 2676C1665.44 2709.83 1622.06 2758.09 1567.17 2792.98C1512.28 2827.87 1445.82 2849.42 1376.55 2829.67C1204.06 2780.52 1056.78 2862.55 981.523 2927.94C943.816 2960.71 878.72 3003.39 801.84 3029.92C724.959 3056.44 636.249 3066.82 551.354 3034.91C466.637 3003.06 392.029 2986.46 319.535 2987.62C247.046 2988.77 176.637 3007.68 100.319 3046.89C33.8125 3081.06 -0.84836 3122.32 -28.7842 3155.56C-32.8858 3160.45 -36.8425 3165.16 -40.7337 3169.64C-55.9258 3187.17 -70.1555 3201.38 -88.1438 3209.31C-106.151 3217.25 -127.858 3218.87 -157.96 3211.37C-254.146 3187.42 -316.021 3138.45 -334.972 3116.91L-334.221 3116.25C-315.409 3137.63 -253.711 3186.49 -157.711 3210.4C-127.755 3217.86 -106.286 3216.22 -88.5372 3208.39C-70.77 3200.56 -56.6652 3186.5 -41.4831 3168.99C-37.5999 3164.51 -33.6486 3159.81 -29.55 3154.93C-1.60963 3121.67 33.1751 3080.27 99.8716 3046C176.304 3006.73 246.863 2987.78 319.528 2986.62C392.189 2985.46 466.924 3002.09 551.711 3033.97C636.32 3065.78 724.779 3055.45 801.524 3028.97Z" fill="#FFAD41"/>
<path fill-rule="evenodd" clip-rule="evenodd" d="M799.298 3019.59C876.044 2993.11 941.029 2950.49 978.649 2917.8C1054.04 2852.29 1201.66 2770.04 1374.6 2819.33C1443.5 2838.96 1509.66 2817.55 1564.41 2782.75C1619.17 2747.95 1662.45 2699.79 1685.55 2666.05L1686.37 2666.62C1663.21 2700.45 1619.83 2748.71 1564.94 2783.6C1510.05 2818.49 1443.59 2840.03 1374.32 2820.29C1201.84 2771.13 1054.56 2853.16 979.297 2918.56C941.589 2951.32 876.493 2994.01 799.614 3020.53C722.733 3047.06 634.022 3057.44 549.128 3025.53C464.41 2993.68 389.803 2977.08 317.308 2978.23C244.819 2979.39 174.411 2998.3 98.0925 3037.51C31.5862 3071.68 -3.07468 3112.93 -31.0105 3146.18C-35.1122 3151.06 -39.0688 3155.77 -42.96 3160.26C-58.1521 3177.79 -72.3818 3191.99 -90.3701 3199.93C-108.377 3207.87 -130.084 3209.49 -160.186 3201.99C-256.373 3178.03 -318.247 3129.07 -337.198 3107.53L-336.448 3106.86C-317.635 3128.25 -255.938 3177.11 -159.938 3201.02C-129.982 3208.48 -108.512 3206.83 -90.7635 3199.01C-72.9963 3191.17 -58.8915 3177.12 -43.7094 3159.61C-39.8262 3155.13 -35.8749 3150.42 -31.7763 3145.55C-3.83596 3112.29 30.9488 3070.89 97.6452 3036.62C174.078 2997.35 244.637 2978.39 317.302 2977.23C389.962 2976.07 464.698 2992.71 549.485 3024.59C634.094 3056.39 722.553 3046.06 799.298 3019.59Z" fill="#FFAD41"/>
<path fill-rule="evenodd" clip-rule="evenodd" d="M797.071 3010.2C873.817 2983.72 938.802 2941.11 976.422 2908.42C1051.81 2842.91 1199.44 2760.65 1372.37 2809.94C1441.27 2829.58 1507.43 2808.17 1562.19 2773.37C1616.94 2738.57 1660.23 2690.41 1683.33 2656.67L1684.15 2657.23C1660.98 2691.06 1617.6 2739.33 1562.71 2774.21C1507.82 2809.1 1441.36 2830.65 1372.09 2810.91C1199.61 2761.75 1052.33 2843.78 977.07 2909.17C939.362 2941.94 874.266 2984.62 797.387 3011.15C720.506 3037.68 631.795 3048.06 546.9 3016.14C462.183 2984.29 387.576 2967.69 315.081 2968.85C242.592 2970.01 172.184 2988.92 95.8655 3028.13C29.3592 3062.3 -5.30173 3103.55 -33.2376 3136.8C-37.3392 3141.68 -41.2959 3146.39 -45.187 3150.88C-60.3792 3168.4 -74.6089 3182.61 -92.5972 3190.54C-110.604 3198.48 -132.311 3200.1 -162.413 3192.61C-258.6 3168.65 -320.474 3119.69 -339.425 3098.15L-338.675 3097.48C-319.862 3118.86 -258.165 3167.72 -162.165 3191.63C-132.209 3199.09 -110.739 3197.45 -92.9906 3189.62C-75.2233 3181.79 -61.1186 3167.74 -45.9365 3150.22C-42.0533 3145.74 -38.1019 3141.04 -34.0034 3136.16C-6.063 3102.91 28.7218 3061.5 95.4182 3027.24C171.851 2987.97 242.409 2969.01 315.075 2967.85C387.735 2966.69 462.471 2983.33 547.258 3015.2C631.867 3047.01 720.326 3036.68 797.071 3010.2Z" fill="#FFAD41"/>
<path fill-rule="evenodd" clip-rule="evenodd" d="M794.566 2999.64C871.312 2973.17 936.297 2930.55 973.917 2897.86C1049.31 2832.35 1196.93 2750.1 1369.87 2799.38C1438.77 2819.02 1504.93 2797.61 1559.68 2762.81C1614.43 2728.01 1657.72 2679.85 1680.82 2646.11L1681.64 2646.68C1658.48 2680.51 1615.1 2728.77 1560.21 2763.66C1505.32 2798.55 1438.86 2820.09 1369.59 2800.35C1197.11 2751.19 1049.83 2833.22 974.565 2898.62C936.858 2931.38 871.762 2974.07 794.882 3000.59C718.001 3027.12 629.291 3037.5 544.396 3005.58C459.679 2973.74 385.071 2957.14 312.577 2958.29C240.088 2959.45 169.679 2978.36 93.3609 3017.57C26.8545 3051.74 -7.80637 3092.99 -35.7422 3126.24C-39.8439 3131.12 -43.8005 3135.83 -47.6917 3140.32C-62.8838 3157.85 -77.1135 3172.05 -95.1018 3179.99C-113.109 3187.92 -134.816 3189.55 -164.918 3182.05C-261.104 3158.09 -322.979 3109.13 -341.93 3087.59L-341.179 3086.92C-322.367 3108.31 -260.669 3157.17 -164.669 3181.08C-134.713 3188.54 -113.244 3186.89 -95.4952 3179.07C-77.728 3171.23 -63.6232 3157.18 -48.4411 3139.67C-44.5579 3135.19 -40.6066 3130.48 -36.508 3125.6C-8.56764 3092.35 26.2171 3050.95 92.9136 3016.68C169.346 2977.41 239.905 2958.45 312.57 2957.29C385.231 2956.13 459.966 2972.77 544.753 3004.65C629.362 3036.45 717.821 3026.12 794.566 2999.64Z" fill="#FFAD41"/>
<path fill-rule="evenodd" clip-rule="evenodd" d="M792.339 2990.26C869.085 2963.78 934.07 2921.17 971.69 2888.48C1047.08 2822.97 1194.7 2740.71 1367.64 2790C1436.54 2809.64 1502.7 2788.23 1557.45 2753.43C1612.21 2718.63 1655.49 2670.47 1678.59 2636.73L1679.41 2637.29C1656.25 2671.12 1612.87 2719.39 1557.98 2754.27C1503.09 2789.16 1436.63 2810.71 1367.36 2790.97C1194.88 2741.81 1047.6 2823.84 972.338 2889.23C934.631 2922 869.535 2964.68 792.655 2991.21C715.774 3017.73 627.064 3028.12 542.169 2996.2C457.452 2964.35 382.844 2947.75 310.35 2948.91C237.861 2950.07 167.453 2968.98 91.1341 3008.19C24.6277 3042.36 -10.0332 3083.61 -37.969 3116.86C-42.0707 3121.74 -46.0273 3126.45 -49.9185 3130.94C-65.1106 3148.46 -79.3403 3162.67 -97.3286 3170.6C-115.336 3178.54 -137.043 3180.16 -167.145 3172.67C-263.331 3148.71 -325.206 3099.75 -344.156 3078.21L-343.406 3077.54C-324.594 3098.92 -262.896 3147.78 -166.896 3171.69C-136.94 3179.15 -115.471 3177.51 -97.722 3169.68C-79.9548 3161.85 -65.85 3147.8 -50.6679 3130.28C-46.7847 3125.8 -42.8334 3121.1 -38.7348 3116.22C-10.7945 3082.97 23.9903 3041.56 90.6867 3007.3C167.12 2968.03 237.678 2949.07 310.344 2947.91C383.004 2946.75 457.74 2963.39 542.526 2995.26C627.136 3027.07 715.595 3016.74 792.339 2990.26Z" fill="#FFAD41"/>
<path fill-rule="evenodd" clip-rule="evenodd" d="M790.113 2980.88C866.859 2954.4 931.844 2911.78 969.464 2879.1C1044.86 2813.59 1192.48 2731.33 1365.42 2780.62C1434.32 2800.25 1500.48 2778.85 1555.23 2744.04C1609.98 2709.24 1653.27 2661.08 1676.37 2627.35L1677.19 2627.91C1654.02 2661.74 1610.64 2710 1555.76 2744.89C1500.86 2779.78 1434.41 2801.32 1365.14 2781.58C1192.65 2732.42 1045.37 2814.46 970.112 2879.85C932.404 2912.61 867.308 2955.3 790.429 2981.82C713.548 3008.35 624.837 3018.73 539.942 2986.82C455.225 2954.97 380.618 2938.37 308.123 2939.53C235.634 2940.68 165.226 2959.59 88.9075 2998.8C22.4011 3032.97 -12.2598 3074.22 -40.1958 3107.47C-44.2973 3112.35 -48.2539 3117.06 -52.1451 3121.55C-67.3372 3139.08 -81.567 3153.29 -99.5553 3161.22C-117.562 3169.16 -139.269 3170.78 -169.371 3163.28C-265.558 3139.32 -327.433 3090.36 -346.383 3068.82L-345.633 3068.15C-326.82 3089.54 -265.123 3138.4 -169.123 3162.31C-139.167 3169.77 -117.697 3168.13 -99.9486 3160.3C-82.1813 3152.47 -68.0766 3138.41 -52.8945 3120.9C-49.0113 3116.42 -45.0599 3111.72 -40.9614 3106.84C-13.021 3073.58 21.7638 3032.18 88.4602 2997.91C164.893 2958.64 235.451 2939.68 308.117 2938.52C380.777 2937.37 455.513 2954 540.3 2985.88C624.909 3017.69 713.368 3007.36 790.113 2980.88Z" fill="#FFAD41"/>
<path fill-rule="evenodd" clip-rule="evenodd" d="M785.382 2960.94C862.127 2934.46 927.112 2891.84 964.732 2859.15C1040.13 2793.65 1187.75 2711.39 1360.69 2760.68C1429.58 2780.31 1495.74 2758.9 1550.5 2724.1C1605.25 2689.3 1648.54 2641.14 1671.64 2607.41L1672.46 2607.97C1649.29 2641.8 1605.91 2690.06 1551.02 2724.95C1496.13 2759.84 1429.67 2781.38 1360.4 2761.64C1187.92 2712.48 1040.64 2794.52 965.381 2859.91C927.673 2892.67 862.577 2935.36 785.697 2961.88C708.817 2988.41 620.106 2998.79 535.211 2966.88C450.494 2935.03 375.887 2918.43 303.392 2919.59C230.903 2920.74 160.495 2939.65 84.1763 2978.86C17.6699 3013.03 -16.9909 3054.28 -44.9268 3087.53C-49.0284 3092.41 -52.9851 3097.12 -56.8763 3101.61C-72.0684 3119.14 -86.2981 3133.35 -104.286 3141.28C-122.293 3149.22 -144 3150.84 -174.103 3143.34C-270.289 3119.38 -332.164 3070.42 -351.114 3048.88L-350.364 3048.21C-331.551 3069.6 -269.854 3118.46 -173.854 3142.37C-143.898 3149.83 -122.428 3148.19 -104.68 3140.36C-86.9125 3132.53 -72.8078 3118.47 -57.6257 3100.96C-53.7425 3096.48 -49.7911 3091.78 -45.6926 3086.9C-17.7522 3053.64 17.0326 3012.24 83.729 2977.97C160.162 2938.7 230.72 2919.74 303.386 2918.58C376.046 2917.42 450.782 2934.06 535.569 2965.94C620.178 2997.75 708.637 2987.42 785.382 2960.94Z" fill="#FFAD41"/>
<path fill-rule="evenodd" clip-rule="evenodd" d="M758.168 2846.25C834.914 2819.77 899.899 2777.15 937.519 2744.46C1012.91 2678.96 1160.53 2596.7 1333.47 2645.99C1402.37 2665.62 1468.53 2644.21 1523.28 2609.41C1578.04 2574.61 1621.32 2526.45 1644.42 2492.72L1645.24 2493.28C1622.08 2527.11 1578.7 2575.37 1523.81 2610.26C1468.92 2645.15 1402.46 2666.69 1333.19 2646.95C1160.71 2597.79 1013.43 2679.83 938.167 2745.22C900.46 2777.98 835.363 2820.67 758.484 2847.19C681.603 2873.72 592.893 2884.1 507.998 2852.19C423.28 2820.34 348.673 2803.74 276.179 2804.9C203.689 2806.05 133.281 2824.96 56.9627 2864.17C-9.54368 2898.34 -44.2046 2939.59 -72.1404 2972.84C-76.242 2977.72 -80.1987 2982.43 -84.0899 2986.92C-99.282 3004.45 -113.512 3018.66 -131.5 3026.59C-149.507 3034.53 -171.214 3036.15 -201.316 3028.65C-297.502 3004.69 -359.377 2955.73 -378.328 2934.19L-377.578 2933.52C-358.765 2954.91 -297.068 3003.77 -201.067 3027.68C-171.112 3035.14 -149.642 3033.5 -131.893 3025.67C-114.126 3017.84 -100.021 3003.78 -84.8393 2986.27C-80.9561 2981.79 -77.0048 2977.08 -72.9062 2972.21C-44.9658 2938.95 -10.1811 2897.55 56.5154 2863.28C132.948 2824.01 203.507 2805.05 276.172 2803.89C348.833 2802.73 423.568 2819.37 508.355 2851.25C592.964 2883.06 681.423 2872.73 758.168 2846.25Z" fill="#FFAD41"/>
<path fill-rule="evenodd" clip-rule="evenodd" d="M781.269 2943.6C858.015 2917.12 923 2874.51 960.62 2841.82C1036.01 2776.31 1183.63 2694.06 1356.57 2743.34C1425.47 2762.98 1491.63 2741.57 1546.38 2706.77C1601.14 2671.97 1644.42 2623.81 1667.52 2590.07L1668.34 2590.64C1645.18 2624.46 1601.8 2672.73 1546.91 2707.62C1492.02 2742.51 1425.56 2764.05 1356.29 2744.31C1183.81 2695.15 1036.53 2777.18 961.268 2842.58C923.56 2875.34 858.464 2918.03 781.585 2944.55C704.704 2971.08 615.993 2981.46 531.098 2949.54C446.381 2917.69 371.774 2901.1 299.279 2902.25C226.79 2903.41 156.382 2922.32 80.0635 2961.53C13.5572 2995.7 -21.1037 3036.95 -49.0396 3070.2C-53.1412 3075.08 -57.0979 3079.79 -60.9891 3084.28C-76.1812 3101.8 -90.4109 3116.01 -108.399 3123.94C-126.406 3131.88 -148.113 3133.51 -178.215 3126.01C-274.402 3102.05 -336.276 3053.09 -355.227 3031.55L-354.477 3030.88C-335.664 3052.27 -273.967 3101.12 -177.967 3125.03C-148.011 3132.5 -126.541 3130.85 -108.793 3123.03C-91.0253 3115.19 -76.9206 3101.14 -61.7385 3083.62C-57.8553 3079.15 -53.9039 3074.44 -49.8054 3069.56C-21.865 3036.31 12.9198 2994.91 79.6162 2960.64C156.049 2921.37 226.607 2902.41 299.273 2901.25C371.933 2900.09 446.669 2916.73 531.456 2948.6C616.065 2980.41 704.524 2970.08 781.269 2943.6Z" fill="#FFAD41"/>
<path fill-rule="evenodd" clip-rule="evenodd" d="M783.495 2952.99C860.241 2926.51 925.226 2883.89 962.846 2851.21C1038.24 2785.7 1185.86 2703.44 1358.8 2752.73C1427.7 2772.36 1493.86 2750.96 1548.61 2716.16C1603.36 2681.35 1646.65 2633.19 1669.75 2599.46L1670.57 2600.02C1647.41 2633.85 1604.03 2682.11 1549.14 2717C1494.25 2751.89 1427.79 2773.43 1358.52 2753.69C1186.03 2704.53 1038.76 2786.57 963.494 2851.96C925.787 2884.72 860.691 2927.41 783.811 2953.94C706.93 2980.46 618.22 2990.84 533.325 2958.93C448.608 2927.08 374.001 2910.48 301.506 2911.64C229.017 2912.79 158.609 2931.7 82.2901 2970.91C15.7837 3005.08 -18.8772 3046.34 -46.813 3079.58C-50.9147 3084.47 -54.8713 3089.17 -58.7625 3093.66C-73.9546 3111.19 -88.1843 3125.4 -106.173 3133.33C-124.18 3141.27 -145.887 3142.89 -175.989 3135.39C-272.175 3111.44 -334.05 3062.47 -353 3040.93L-352.25 3040.26C-333.438 3061.65 -271.74 3110.51 -175.74 3134.42C-145.784 3141.88 -124.315 3140.24 -106.566 3132.41C-88.7988 3124.58 -74.694 3110.52 -59.5119 3093.01C-55.6287 3088.53 -51.6774 3083.83 -47.5788 3078.95C-19.6384 3045.69 15.1463 3004.29 81.8428 2970.02C158.276 2930.75 228.834 2911.79 301.5 2910.63C374.16 2909.48 448.896 2926.11 533.682 2957.99C618.292 2989.8 706.751 2979.47 783.495 2952.99Z" fill="#FFAD41"/>
<path fill-rule="evenodd" clip-rule="evenodd" d="M778.207 2930.7C854.953 2904.22 919.938 2861.61 957.558 2828.92C1032.95 2763.41 1180.57 2681.15 1353.51 2730.44C1422.41 2750.08 1488.57 2728.67 1543.32 2693.87C1598.08 2659.07 1641.36 2610.91 1664.46 2577.17L1665.28 2577.73C1642.12 2611.56 1598.74 2659.83 1543.85 2694.71C1488.96 2729.6 1422.5 2751.15 1353.23 2731.41C1180.75 2682.25 1033.47 2764.28 958.206 2829.67C920.499 2862.44 855.403 2905.12 778.523 2931.65C701.642 2958.18 612.932 2968.56 528.037 2936.64C443.32 2904.79 368.712 2888.19 296.218 2889.35C223.729 2890.51 153.321 2909.42 77.002 2948.63C10.4956 2982.8 -24.1653 3024.05 -52.1011 3057.3C-56.2027 3062.18 -60.1594 3066.89 -64.0506 3071.38C-79.2427 3088.9 -93.4724 3103.11 -111.461 3111.04C-129.468 3118.98 -151.175 3120.6 -181.277 3113.11C-277.463 3089.15 -339.338 3040.19 -358.289 3018.65L-357.538 3017.98C-338.726 3039.36 -277.028 3088.22 -181.028 3112.13C-151.072 3119.59 -129.603 3117.95 -111.854 3110.12C-94.0869 3102.29 -79.9821 3088.24 -64.8 3070.72C-60.9168 3066.24 -56.9655 3061.54 -52.8669 3056.66C-24.9265 3023.41 9.85823 2982 76.5547 2947.74C152.988 2908.47 223.546 2889.51 296.212 2888.35C368.872 2887.19 443.607 2903.83 528.394 2935.7C613.003 2967.51 701.463 2957.18 778.207 2930.7Z" fill="#FFAD41"/>
<path fill-rule="evenodd" clip-rule="evenodd" d="M775.424 2918.97C852.17 2892.49 917.155 2849.88 954.775 2817.19C1030.17 2751.68 1177.79 2669.42 1350.73 2718.71C1419.63 2738.35 1485.79 2716.94 1540.54 2682.14C1595.29 2647.34 1638.58 2599.18 1661.68 2565.44L1662.5 2566C1639.34 2599.83 1595.96 2648.1 1541.07 2682.98C1486.18 2717.87 1419.72 2739.42 1350.45 2719.68C1177.96 2670.52 1030.68 2752.55 955.423 2817.94C917.716 2850.71 852.62 2893.39 775.74 2919.92C698.859 2946.44 610.149 2956.83 525.254 2924.91C440.537 2893.06 365.929 2876.46 293.435 2877.62C220.946 2878.78 150.537 2897.69 74.2188 2936.9C7.71243 2971.07 -26.9485 3012.32 -54.8843 3045.57C-58.9859 3050.45 -62.9426 3055.16 -66.8338 3059.65C-82.0259 3077.17 -96.2556 3091.38 -114.244 3099.31C-132.251 3107.25 -153.958 3108.87 -184.06 3101.38C-280.246 3077.42 -342.121 3028.46 -361.072 3006.92L-360.322 3006.25C-341.509 3027.63 -279.811 3076.49 -183.811 3100.4C-153.856 3107.86 -132.386 3106.22 -114.637 3098.39C-96.8701 3090.56 -82.7653 3076.51 -67.5832 3058.99C-63.7 3054.51 -59.7487 3049.81 -55.6501 3044.93C-27.7097 3011.68 7.07504 2970.27 73.7715 2936.01C150.204 2896.74 220.763 2877.78 293.428 2876.62C366.089 2875.46 440.824 2892.1 525.611 2923.97C610.22 2955.78 698.679 2945.45 775.424 2918.97Z" fill="#FFAD41"/>
<path fill-rule="evenodd" clip-rule="evenodd" d="M772.641 2907.24C849.387 2880.76 914.372 2838.15 951.992 2805.46C1027.38 2739.95 1175.01 2657.69 1347.94 2706.98C1416.84 2726.62 1483 2705.21 1537.76 2670.41C1592.51 2635.61 1635.8 2587.45 1658.9 2553.71L1659.72 2554.27C1636.55 2588.1 1593.17 2636.37 1538.28 2671.25C1483.39 2706.14 1416.93 2727.69 1347.66 2707.95C1175.18 2658.79 1027.9 2740.82 952.64 2806.22C914.932 2838.98 849.836 2881.66 772.957 2908.19C696.076 2934.72 607.365 2945.1 522.471 2913.18C437.753 2881.33 363.146 2864.73 290.651 2865.89C218.162 2867.05 147.754 2885.96 71.4356 2925.17C4.92922 2959.34 -29.7317 3000.59 -57.6675 3033.84C-61.7691 3038.72 -65.7258 3043.43 -69.617 3047.92C-84.8091 3065.44 -99.0388 3079.65 -117.027 3087.58C-135.034 3095.52 -156.741 3097.14 -186.843 3089.65C-283.03 3065.69 -344.904 3016.73 -363.855 2995.19L-363.105 2994.52C-344.292 3015.9 -282.595 3064.76 -186.595 3088.67C-156.639 3096.13 -135.169 3094.49 -117.421 3086.66C-99.6533 3078.83 -85.5485 3064.78 -70.3664 3047.26C-66.4832 3042.78 -62.5319 3038.08 -58.4333 3033.2C-30.4929 2999.95 4.29183 2958.54 70.9883 2924.28C147.421 2885.01 217.98 2866.05 290.645 2864.89C363.305 2863.73 438.041 2880.37 522.828 2912.24C607.437 2944.05 695.896 2933.72 772.641 2907.24Z" fill="#FFAD41"/>
<path fill-rule="evenodd" clip-rule="evenodd" d="M769.858 2895.51C846.603 2869.03 911.589 2826.42 949.208 2793.73C1024.6 2728.22 1172.22 2645.96 1345.16 2695.25C1414.06 2714.89 1480.22 2693.48 1534.97 2658.68C1589.73 2623.88 1633.01 2575.72 1656.11 2541.98L1656.93 2542.54C1633.77 2576.37 1590.39 2624.64 1535.5 2659.53C1480.61 2694.41 1414.15 2715.96 1344.88 2696.22C1172.4 2647.06 1025.12 2729.09 949.857 2794.49C912.149 2827.25 847.053 2869.93 770.173 2896.46C693.293 2922.99 604.582 2933.37 519.687 2901.45C434.97 2869.6 360.363 2853.01 287.868 2854.16C215.379 2855.32 144.971 2874.23 68.6524 2913.44C2.14602 2947.61 -32.5149 2988.86 -60.4507 3022.11C-64.5523 3026.99 -68.509 3031.7 -72.4002 3036.19C-87.5923 3053.71 -101.822 3067.92 -119.81 3075.85C-137.817 3083.79 -159.524 3085.41 -189.627 3077.92C-285.813 3053.96 -347.688 3005 -366.638 2983.46L-365.888 2982.79C-347.075 3004.17 -285.378 3053.03 -189.378 3076.94C-159.422 3084.4 -137.952 3082.76 -120.204 3074.94C-102.436 3067.1 -88.3317 3053.05 -73.1496 3035.53C-69.2664 3031.05 -65.3151 3026.35 -61.2165 3021.47C-33.2761 2988.22 1.50862 2946.81 68.2051 2912.55C144.638 2873.28 215.196 2854.32 287.862 2853.16C360.522 2852 435.258 2868.64 520.045 2900.51C604.654 2932.32 693.113 2921.99 769.858 2895.51Z" fill="#FFAD41"/>
<path fill-rule="evenodd" clip-rule="evenodd" d="M766.796 2882.61C843.542 2856.13 908.527 2813.51 946.147 2780.83C1021.54 2715.32 1169.16 2633.06 1342.1 2682.35C1411 2701.99 1477.16 2680.58 1531.91 2645.78C1586.66 2610.97 1629.95 2562.81 1653.05 2529.08L1653.87 2529.64C1630.71 2563.47 1587.33 2611.73 1532.44 2646.62C1477.55 2681.51 1411.09 2703.06 1341.82 2683.31C1169.33 2634.15 1022.06 2716.19 946.795 2781.58C909.088 2814.35 843.991 2857.03 767.112 2883.56C690.231 2910.08 601.52 2920.46 516.626 2888.55C431.908 2856.7 357.301 2840.1 284.806 2841.26C212.317 2842.41 141.909 2861.32 65.5906 2900.53C-0.915749 2934.7 -35.5766 2975.96 -63.5125 3009.2C-67.6141 3014.09 -71.5708 3018.8 -75.462 3023.28C-90.6541 3040.81 -104.884 3055.02 -122.872 3062.95C-140.879 3070.89 -162.586 3072.51 -192.688 3065.01C-288.875 3041.06 -350.749 2992.09 -369.7 2970.55L-368.95 2969.88C-350.137 2991.27 -288.44 3040.13 -192.44 3064.04C-162.484 3071.5 -141.014 3069.86 -123.265 3062.03C-105.498 3054.2 -91.3935 3040.14 -76.2114 3022.63C-72.3282 3018.15 -68.3768 3013.45 -64.2783 3008.57C-36.3379 2975.31 -1.55314 2933.91 65.1433 2899.64C141.576 2860.37 212.135 2841.41 284.8 2840.26C357.461 2839.1 432.196 2855.73 516.983 2887.61C601.592 2919.42 690.051 2909.09 766.796 2882.61Z" fill="#FFAD41"/>
<path fill-rule="evenodd" clip-rule="evenodd" d="M763.456 2868.53C840.202 2842.05 905.187 2799.44 942.807 2766.75C1018.2 2701.24 1165.82 2618.99 1338.76 2668.27C1407.66 2687.91 1473.82 2666.5 1528.57 2631.7C1583.32 2596.9 1626.61 2548.74 1649.71 2515L1650.53 2515.57C1627.37 2549.39 1583.99 2597.66 1529.1 2632.55C1474.21 2667.44 1407.75 2688.98 1338.48 2669.24C1165.99 2620.08 1018.72 2702.11 943.455 2767.51C905.748 2800.27 840.652 2842.96 763.772 2869.48C686.891 2896.01 598.181 2906.39 513.286 2874.47C428.568 2842.62 353.961 2826.03 281.467 2827.18C208.978 2828.34 138.569 2847.25 62.2508 2886.46C-4.25559 2920.63 -38.9165 2961.88 -66.8523 2995.13C-70.954 3000.01 -74.9106 3004.72 -78.8018 3009.21C-93.9939 3026.73 -108.224 3040.94 -126.212 3048.87C-144.219 3056.81 -165.926 3058.44 -196.028 3050.94C-292.214 3026.98 -354.089 2978.02 -373.04 2956.48L-372.29 2955.81C-353.477 2977.19 -291.779 3026.05 -195.779 3049.96C-165.824 3057.43 -144.354 3055.78 -126.605 3047.96C-108.838 3040.12 -94.7333 3026.07 -79.5512 3008.55C-75.668 3004.07 -71.7167 2999.37 -67.6181 2994.49C-39.6778 2961.24 -4.89299 2919.84 61.8034 2885.57C138.236 2846.3 208.795 2827.34 281.46 2826.18C354.121 2825.02 428.856 2841.66 513.643 2873.53C598.252 2905.34 686.711 2895.01 763.456 2868.53Z" fill="#FFAD41"/>
<path fill-rule="evenodd" clip-rule="evenodd" d="M760.116 2854.46C836.862 2827.98 901.847 2785.36 939.467 2752.68C1014.86 2687.17 1162.48 2604.91 1335.42 2654.2C1404.32 2673.83 1470.48 2652.43 1525.23 2617.62C1579.98 2582.82 1623.27 2534.66 1646.37 2500.93L1647.19 2501.49C1624.03 2535.32 1580.65 2583.58 1525.76 2618.47C1470.87 2653.36 1404.41 2674.9 1335.14 2655.16C1162.66 2606 1015.38 2688.04 940.115 2753.43C902.408 2786.19 837.312 2828.88 760.432 2855.41C683.551 2881.93 594.841 2892.31 509.946 2860.4C425.229 2828.55 350.621 2811.95 278.127 2813.11C205.638 2814.26 135.229 2833.17 58.9109 2872.38C-7.59544 2906.55 -42.2563 2947.8 -70.1921 2981.05C-74.2938 2985.93 -78.2505 2990.64 -82.1416 2995.13C-97.3338 3012.66 -111.563 3026.87 -129.552 3034.8C-147.559 3042.74 -169.266 3044.36 -199.368 3036.86C-295.554 3012.9 -357.429 2963.94 -376.38 2942.4L-375.629 2941.73C-356.817 2963.12 -295.119 3011.98 -199.119 3035.89C-169.163 3043.35 -147.694 3041.71 -129.945 3033.88C-112.178 3026.05 -98.0731 3011.99 -82.891 2994.48C-79.0079 2990 -75.0565 2985.3 -70.958 2980.42C-43.0176 2947.16 -8.23282 2905.76 58.4636 2871.49C134.896 2832.22 205.455 2813.26 278.121 2812.1C350.781 2810.95 425.516 2827.58 510.303 2859.46C594.912 2891.27 683.371 2880.94 760.116 2854.46Z" fill="#FFAD41"/>
</g>
</g>
<defs>
<filter id="filter0_f_10_5736" x="109.931" y="3891.01" width="13.6082" height="12.7688" filterUnits="userSpaceOnUse" color-interpolation-filters="sRGB">
<feFlood flood-opacity="0" result="BackgroundImageFix"/>
<feBlend mode="normal" in="SourceGraphic" in2="BackgroundImageFix" result="shape"/>
<feGaussianBlur stdDeviation="2.10822" result="effect1_foregroundBlur_10_5736"/>
</filter>
<filter id="filter1_f_10_5736" x="655.638" y="2136.8" width="13.4619" height="12.9358" filterUnits="userSpaceOnUse" color-interpolation-filters="sRGB">
<feFlood flood-opacity="0" result="BackgroundImageFix"/>
<feBlend mode="normal" in="SourceGraphic" in2="BackgroundImageFix" result="shape"/>
<feGaussianBlur stdDeviation="2.10822" result="effect1_foregroundBlur_10_5736"/>
</filter>
<clipPath id="clip0_10_5736">
<rect width="1440" height="5196" fill="white"/>
</clipPath>
<clipPath id="clip1_10_5736">
<rect width="1780.77" height="478.743" fill="white" transform="translate(1585.36 2961.44) rotate(166.463)"/>
</clipPath>
</defs>
</svg>
