<svg width="1440" height="5196" viewBox="0 0 1440 5196" fill="none" xmlns="http://www.w3.org/2000/svg">
<g clip-path="url(#clip0_10_5736)">
<rect width="1440" height="5196" fill="#2F365B"/>
<path d="M-767.318 4182.34C-713.069 4254.28 -562.831 4394.44 -395.871 4379.57C-187.172 4360.99 -11.5415 4463.4 77.7011 4538.09C166.944 4612.78 387.06 4743.23 592.2 4710.3C797.339 4677.38 952.741 4695.93 1134.82 4795.72C1316.9 4895.51 1296.57 5003.44 1441.62 4994.62C1557.67 4987.57 1632.97 4951.11 1656.12 4933.76" stroke="#FFAD41" stroke-width="1.05411"/>
<path d="M-762.655 4168.41C-708.406 4240.35 -558.168 4380.51 -391.208 4365.64C-182.509 4347.06 -6.87827 4449.47 82.3643 4524.16C171.607 4598.85 391.723 4729.29 596.863 4696.37C802.002 4663.45 957.404 4682 1139.48 4781.79C1321.57 4881.58 1301.23 4989.5 1446.29 4980.69C1562.33 4973.64 1637.63 4937.18 1660.78 4919.83" stroke="#FFAD41" stroke-width="1.05411"/>
<path d="M-776.768 4216.12C-722.519 4288.06 -572.281 4428.22 -405.321 4413.36C-196.622 4394.77 -20.9914 4497.18 68.2512 4571.87C157.494 4646.56 377.61 4777.01 582.75 4744.08C787.889 4711.16 943.291 4729.71 1125.37 4829.5C1307.45 4929.29 1287.12 5037.22 1432.17 5028.4C1548.22 5021.35 1623.52 4984.89 1646.67 4967.54" stroke="#FFAD41" stroke-width="1.05411"/>
<path d="M-776.287 4209.13C-722.037 4281.07 -571.799 4421.23 -404.84 4406.37C-196.14 4387.78 -20.5096 4490.19 68.733 4564.88C157.976 4639.57 378.092 4770.02 583.231 4737.1C788.371 4704.17 943.773 4722.73 1125.85 4822.51C1307.93 4922.3 1287.6 5030.23 1432.66 5021.42C1548.7 5014.37 1624 4977.9 1647.15 4960.55" stroke="#FFAD41" stroke-width="1.05411"/>
<path d="M-774.134 4202.7C-719.885 4274.64 -569.647 4414.8 -402.687 4399.94C-193.988 4381.35 -18.3573 4483.76 70.8853 4558.45C160.128 4633.14 380.244 4763.59 585.384 4730.67C790.523 4697.74 945.925 4716.3 1128.01 4816.08C1310.09 4915.87 1289.75 5023.8 1434.81 5014.99C1550.85 5007.94 1626.15 4971.47 1649.3 4954.12" stroke="#FFAD41" stroke-width="1.05411"/>
<path d="M-771.982 4196.27C-717.733 4268.21 -567.494 4408.37 -400.535 4393.51C-191.835 4374.92 -16.2048 4477.33 73.0378 4552.02C162.28 4626.71 382.397 4757.16 587.536 4724.23C792.676 4691.31 948.077 4709.86 1130.16 4809.65C1312.24 4909.44 1291.9 5017.37 1436.96 5008.55C1553.01 5001.5 1628.31 4965.04 1651.45 4947.69" stroke="#FFAD41" stroke-width="1.05411"/>
<path d="M-769.829 4189.84C-715.58 4261.78 -565.342 4401.94 -398.382 4387.08C-189.683 4368.49 -14.0525 4470.9 75.1901 4545.59C164.433 4620.28 384.549 4750.73 589.689 4717.8C794.828 4684.88 950.23 4703.43 1132.31 4803.22C1314.39 4903.01 1294.06 5010.94 1439.11 5002.13C1555.16 4995.07 1630.46 4958.61 1653.6 4941.26" stroke="#FFAD41" stroke-width="1.05411"/>
<path d="M-780.95 4223.06C-726.701 4295 -576.462 4435.17 -409.503 4420.3C-200.803 4401.71 -25.1729 4504.12 64.0696 4578.81C153.312 4653.5 373.429 4783.95 578.568 4751.03C783.708 4718.11 939.109 4736.66 1121.19 4836.45C1303.27 4936.23 1282.94 5044.16 1427.99 5035.35C1544.04 5028.3 1619.34 4991.83 1642.48 4974.48" stroke="#FFAD41" stroke-width="1.05411"/>
<path d="M-765.525 4176.98C-711.276 4248.92 -561.037 4389.08 -394.078 4374.21C-185.379 4355.63 -9.74802 4458.04 79.4946 4532.73C168.737 4607.42 388.854 4737.87 593.993 4704.94C799.133 4672.02 954.534 4690.57 1136.62 4790.36C1318.7 4890.15 1298.36 4998.08 1443.42 4989.26C1559.46 4982.21 1634.76 4945.75 1657.91 4928.4" stroke="#FFAD41" stroke-width="1.05411"/>
<path d="M-760.503 4161.98C-706.254 4233.92 -556.015 4374.08 -389.056 4359.21C-180.356 4340.63 -4.7258 4443.04 84.5168 4517.73C173.759 4592.42 393.876 4722.86 599.015 4689.94C804.155 4657.02 959.556 4675.57 1141.64 4775.36C1323.72 4875.15 1303.38 4983.07 1448.44 4974.26C1564.48 4967.21 1639.79 4930.75 1662.93 4913.4" stroke="#FFAD41" stroke-width="1.05411"/>
<path d="M-757.992 4154.47C-703.743 4226.41 -553.504 4366.58 -386.545 4351.71C-177.845 4333.12 -2.21494 4435.53 87.0277 4510.22C176.27 4584.91 396.387 4715.36 601.526 4682.44C806.666 4649.52 962.067 4668.07 1144.15 4767.86C1326.23 4867.64 1305.89 4975.57 1450.95 4966.76C1567 4959.71 1642.3 4923.24 1665.44 4905.89" stroke="#FFAD41" stroke-width="1.05411"/>
<path d="M-752.611 4138.4C-698.362 4210.34 -548.123 4350.5 -381.164 4335.63C-172.465 4317.05 3.16592 4419.46 92.4085 4494.15C181.651 4568.84 401.768 4699.28 606.907 4666.36C812.046 4633.44 967.448 4651.99 1149.53 4751.78C1331.61 4851.57 1311.27 4959.49 1456.33 4950.68C1572.38 4943.63 1647.68 4907.17 1670.82 4889.82" stroke="#FFAD41" stroke-width="1.05411"/>
<path d="M-755.481 4146.97C-701.232 4218.91 -550.993 4359.07 -384.034 4344.21C-175.334 4325.62 0.296049 4428.03 89.5386 4502.72C178.781 4577.41 398.898 4707.86 604.037 4674.94C809.177 4642.01 964.578 4660.57 1146.66 4760.35C1328.74 4860.14 1308.4 4968.07 1453.46 4959.26C1569.51 4952.21 1644.81 4915.74 1667.95 4898.39" stroke="#FFAD41" stroke-width="1.05411"/>
<path d="M-731.446 4075.17C-677.197 4147.11 -526.959 4287.27 -359.999 4272.4C-151.3 4253.82 24.3305 4356.23 113.573 4430.92C202.816 4505.61 422.932 4636.05 628.072 4603.13C833.211 4570.21 988.613 4588.76 1170.69 4688.55C1352.77 4788.34 1332.44 4896.26 1477.5 4887.45C1593.54 4880.4 1668.84 4843.94 1691.99 4826.59" stroke="#FFAD41" stroke-width="1.05411"/>
<path d="M-749.024 4127.68C-694.775 4199.62 -544.536 4339.78 -377.577 4324.92C-168.877 4306.33 6.7532 4408.74 95.9958 4483.43C185.238 4558.12 405.355 4688.57 610.494 4655.64C815.634 4622.72 971.035 4641.27 1153.12 4741.06C1335.2 4840.85 1314.86 4948.78 1459.92 4939.96C1575.96 4932.91 1651.27 4896.45 1674.41 4879.1" stroke="#FFAD41" stroke-width="1.05411"/>
<path d="M-746.154 4119.11C-691.905 4191.05 -541.666 4331.21 -374.707 4316.34C-166.007 4297.76 9.62307 4400.17 98.8657 4474.86C188.108 4549.55 408.225 4679.99 613.364 4647.07C818.504 4614.15 973.905 4632.7 1155.99 4732.49C1338.07 4832.28 1317.73 4940.21 1462.79 4931.39C1578.83 4924.34 1654.14 4887.88 1677.28 4870.53" stroke="#FFAD41" stroke-width="1.05411"/>
<path d="M-743.284 4110.53C-689.035 4182.47 -538.796 4322.64 -371.837 4307.77C-163.138 4289.19 12.4929 4391.6 101.736 4466.28C190.978 4540.97 411.095 4671.42 616.234 4638.5C821.373 4605.58 976.775 4624.13 1158.86 4723.92C1340.94 4823.7 1320.6 4931.63 1465.66 4922.82C1581.7 4915.77 1657 4879.3 1680.15 4861.95" stroke="#FFAD41" stroke-width="1.05411"/>
<path d="M-740.055 4100.89C-685.806 4172.83 -535.568 4312.99 -368.608 4298.13C-159.909 4279.54 15.7218 4381.95 104.964 4456.64C194.207 4531.33 414.323 4661.78 619.463 4628.85C824.602 4595.93 980.004 4614.48 1162.08 4714.27C1344.17 4814.06 1323.83 4921.99 1468.89 4913.17C1584.93 4906.12 1660.23 4869.66 1683.38 4852.31" stroke="#FFAD41" stroke-width="1.05411"/>
<path d="M-737.186 4092.32C-682.937 4164.26 -532.698 4304.42 -365.739 4289.55C-157.039 4270.97 18.5912 4373.38 107.834 4448.07C197.076 4522.76 417.193 4653.2 622.332 4620.28C827.472 4587.36 982.873 4605.91 1164.95 4705.7C1347.04 4805.49 1326.7 4913.41 1471.76 4904.6C1587.8 4897.55 1663.1 4861.09 1686.25 4843.74" stroke="#FFAD41" stroke-width="1.05411"/>
<path d="M-734.316 4083.74C-680.067 4155.68 -529.829 4295.84 -362.869 4280.98C-154.17 4262.39 21.4606 4364.8 110.703 4439.49C199.946 4514.18 420.062 4644.63 625.202 4611.71C830.341 4578.78 985.743 4597.34 1167.82 4697.12C1349.9 4796.91 1329.57 4904.84 1474.63 4896.03C1590.67 4888.97 1665.97 4852.51 1689.12 4835.16" stroke="#FFAD41" stroke-width="1.05411"/>
<path d="M-728.218 4065.52C-673.968 4137.46 -523.73 4277.63 -356.771 4262.76C-148.071 4244.17 27.5594 4346.58 116.802 4421.27C206.045 4495.96 426.161 4626.41 631.3 4593.49C836.44 4560.56 991.842 4579.12 1173.92 4678.9C1356 4778.69 1335.67 4886.62 1480.72 4877.81C1596.77 4870.76 1672.07 4834.29 1695.22 4816.94" stroke="#FFAD41" stroke-width="1.05411"/>
<path d="M-693.143 3960.74C-638.894 4032.68 -488.656 4172.84 -321.696 4157.97C-112.997 4139.39 62.6337 4241.8 151.876 4316.49C241.119 4391.17 461.235 4521.62 666.375 4488.7C871.514 4455.78 1026.92 4474.33 1209 4574.12C1391.08 4673.91 1370.74 4781.83 1515.8 4773.02C1631.84 4765.97 1707.15 4729.5 1730.29 4712.15" stroke="#FFAD41" stroke-width="1.05411"/>
<path d="M-722.917 4049.69C-668.668 4121.63 -518.43 4261.79 -351.47 4246.92C-142.771 4228.34 32.8595 4330.75 122.102 4405.44C211.345 4480.13 431.461 4610.57 636.601 4577.65C841.74 4544.73 997.142 4563.28 1179.22 4663.07C1361.3 4762.86 1340.97 4870.78 1486.02 4861.97C1602.07 4854.92 1677.37 4818.46 1700.52 4801.11" stroke="#FFAD41" stroke-width="1.05411"/>
<path d="M-725.787 4058.26C-671.538 4130.2 -521.3 4270.36 -354.34 4255.5C-145.641 4236.91 29.9896 4339.32 119.232 4414.01C208.475 4488.7 428.591 4619.15 633.731 4586.22C838.87 4553.3 994.272 4571.85 1176.35 4671.64C1358.43 4771.43 1338.1 4879.36 1483.15 4870.55C1599.2 4863.49 1674.5 4827.03 1697.65 4809.68" stroke="#FFAD41" stroke-width="1.05411"/>
<path d="M-718.971 4037.9C-664.722 4109.84 -514.484 4250 -347.524 4235.13C-138.825 4216.55 36.8058 4318.96 126.048 4393.65C215.291 4468.34 435.407 4598.78 640.547 4565.86C845.686 4532.94 1001.09 4551.49 1183.17 4651.28C1365.25 4751.07 1344.91 4858.99 1489.97 4850.18C1606.02 4843.13 1681.32 4806.67 1704.46 4789.32" stroke="#FFAD41" stroke-width="1.05411"/>
<path d="M-715.384 4027.18C-661.135 4099.12 -510.896 4239.28 -343.937 4224.42C-135.237 4205.83 40.3932 4308.24 129.636 4382.93C218.878 4457.62 438.995 4588.07 644.134 4555.14C849.274 4522.22 1004.68 4540.77 1186.76 4640.56C1368.84 4740.35 1348.5 4848.28 1493.56 4839.46C1609.6 4832.41 1684.91 4795.95 1708.05 4778.6" stroke="#FFAD41" stroke-width="1.05411"/>
<path d="M-711.797 4016.46C-657.548 4088.4 -507.309 4228.57 -340.35 4213.7C-131.65 4195.12 43.98 4297.52 133.223 4372.21C222.465 4446.9 442.582 4577.35 647.721 4544.43C852.861 4511.51 1008.26 4530.06 1190.34 4629.85C1372.42 4729.63 1352.09 4837.56 1497.14 4828.75C1613.19 4821.7 1688.49 4785.23 1711.64 4767.88" stroke="#FFAD41" stroke-width="1.05411"/>
<path d="M-708.21 4005.75C-653.96 4077.69 -503.722 4217.85 -336.762 4202.98C-128.063 4184.4 47.5674 4286.81 136.81 4361.5C226.053 4436.19 446.169 4566.63 651.308 4533.71C856.448 4500.79 1011.85 4519.34 1193.93 4619.13C1376.01 4718.92 1355.68 4826.84 1500.73 4818.03C1616.78 4810.98 1692.08 4774.52 1715.22 4757.17" stroke="#FFAD41" stroke-width="1.05411"/>
<path d="M-704.264 3993.96C-650.015 4065.9 -499.776 4206.06 -332.817 4191.19C-124.117 4172.61 51.5132 4275.02 140.756 4349.71C229.998 4424.4 450.115 4554.84 655.254 4521.92C860.394 4489 1015.8 4507.55 1197.88 4607.34C1379.96 4707.13 1359.62 4815.06 1504.68 4806.24C1620.72 4799.19 1696.03 4762.73 1719.17 4745.38" stroke="#FFAD41" stroke-width="1.05411"/>
<path d="M-699.959 3981.1C-645.71 4053.04 -495.471 4193.2 -328.512 4178.33C-119.812 4159.75 55.818 4262.16 145.061 4336.85C234.303 4411.54 454.42 4541.98 659.559 4509.06C864.699 4476.14 1020.1 4494.69 1202.18 4594.48C1384.26 4694.27 1363.93 4802.19 1508.98 4793.38C1625.03 4786.33 1700.33 4749.87 1723.48 4732.52" stroke="#FFAD41" stroke-width="1.05411"/>
<path d="M-695.654 3968.24C-641.405 4040.18 -491.167 4180.34 -324.207 4165.47C-115.508 4146.89 60.1228 4249.3 149.365 4323.99C238.608 4398.68 458.724 4529.12 663.864 4496.2C869.003 4463.28 1024.41 4481.83 1206.49 4581.62C1388.57 4681.41 1368.23 4789.33 1513.29 4780.52C1629.33 4773.47 1704.63 4737.01 1727.78 4719.66" stroke="#FFAD41" stroke-width="1.05411"/>
<g filter="url(#filter0_f_10_5736)">
<ellipse cx="2.63528" cy="2.10822" rx="2.63528" ry="2.10822" transform="matrix(0.948288 0.317412 0.317412 -0.948288 113.567 3898.55)" fill="#D9D9D9" fill-opacity="0.2"/>
</g>
<path d="M1585.47 2040.18C1563 1968.32 1484.88 1824.81 1352.13 1825.64C1186.2 1826.68 1078.33 1716.63 1029.62 1639.43C980.907 1562.23 846.284 1422.35 679.236 1437.14C512.189 1451.93 397.35 1422.27 283.804 1314.18C170.258 1206.1 214.989 1106.29 100.762 1103.16C9.37975 1100.65 -58.5012 1128.99 -81.0189 1143.47" stroke="#FFAD41" stroke-width="1.05411"/>
<path d="M1578.13 2052.91C1555.66 1981.05 1477.53 1837.53 1344.79 1838.36C1178.85 1839.4 1070.99 1729.36 1022.27 1652.16C973.562 1574.96 838.938 1435.07 671.891 1449.86C504.844 1464.66 390.005 1435 276.459 1326.91C162.913 1218.82 207.643 1119.01 93.4159 1115.88C2.03405 1113.37 -65.8469 1141.71 -88.3646 1156.19" stroke="#FFAD41" stroke-width="1.05411"/>
<path d="M1601.85 2009.19C1579.38 1937.32 1501.26 1793.81 1368.51 1794.64C1202.58 1795.68 1094.71 1685.64 1046 1608.44C997.287 1531.24 862.663 1391.35 695.616 1406.14C528.569 1420.93 413.73 1391.27 300.184 1283.19C186.638 1175.1 231.369 1075.29 117.141 1072.16C25.7596 1069.65 -42.1213 1097.99 -64.639 1112.47" stroke="#FFAD41" stroke-width="1.05411"/>
<path d="M1599.6 2015.72C1577.13 1943.85 1499.01 1800.34 1366.26 1801.17C1200.33 1802.21 1092.46 1692.16 1043.75 1614.97C995.034 1537.77 860.41 1397.88 693.363 1412.67C526.316 1427.46 411.477 1397.8 297.931 1289.72C184.385 1181.63 229.116 1081.82 114.889 1078.69C23.5067 1076.18 -44.3742 1104.52 -66.892 1119" stroke="#FFAD41" stroke-width="1.05411"/>
<path d="M1596.21 2021.59C1573.74 1949.73 1495.62 1806.21 1362.87 1807.04C1196.94 1808.08 1089.07 1698.04 1040.36 1620.84C991.644 1543.64 857.02 1403.75 689.973 1418.54C522.926 1433.34 408.087 1403.68 294.541 1295.59C180.995 1187.5 225.726 1087.69 111.498 1084.56C20.1166 1082.06 -47.7644 1110.39 -70.2821 1124.87" stroke="#FFAD41" stroke-width="1.05411"/>
<path d="M1592.82 2027.46C1570.35 1955.6 1492.23 1812.08 1359.48 1812.91C1193.55 1813.95 1085.68 1703.91 1036.97 1626.71C988.253 1549.51 853.629 1409.62 686.582 1424.42C519.535 1439.21 404.696 1409.55 291.15 1301.46C177.604 1193.37 222.335 1093.57 108.108 1090.43C16.7257 1087.93 -51.1552 1116.26 -73.673 1130.74" stroke="#FFAD41" stroke-width="1.05411"/>
<path d="M1589.43 2033.33C1566.96 1961.47 1488.83 1817.95 1356.09 1818.79C1190.16 1819.83 1082.29 1709.78 1033.58 1632.58C984.863 1555.38 850.239 1415.5 683.192 1430.29C516.145 1445.08 401.306 1415.42 287.76 1307.33C174.214 1199.25 218.944 1099.44 104.717 1096.31C13.3353 1093.8 -54.5456 1122.14 -77.0633 1136.62" stroke="#FFAD41" stroke-width="1.05411"/>
<path d="M1606.95 2002.99C1584.48 1931.13 1506.35 1787.61 1373.61 1788.44C1207.67 1789.48 1099.81 1679.44 1051.09 1602.24C1002.38 1525.04 867.756 1385.16 700.709 1399.95C533.662 1414.74 418.823 1385.08 305.277 1276.99C191.731 1168.9 236.462 1069.1 122.234 1065.97C30.8527 1063.46 -37.0283 1091.79 -59.546 1106.28" stroke="#FFAD41" stroke-width="1.05411"/>
<path d="M1582.65 2045.08C1560.18 1973.21 1482.05 1829.7 1349.31 1830.53C1183.37 1831.57 1075.51 1721.53 1026.8 1644.33C978.082 1567.13 843.458 1427.24 676.411 1442.03C509.364 1456.82 394.525 1427.16 280.979 1319.08C167.433 1210.99 212.164 1111.18 97.9364 1108.05C6.55456 1105.54 -61.3264 1133.88 -83.8441 1148.36" stroke="#FFAD41" stroke-width="1.05411"/>
<path d="M1574.74 2058.78C1552.27 1986.92 1474.14 1843.4 1341.4 1844.23C1175.46 1845.27 1067.6 1735.23 1018.88 1658.03C970.171 1580.83 835.547 1440.94 668.5 1455.73C501.453 1470.53 386.614 1440.87 273.068 1332.78C159.522 1224.69 204.253 1124.89 90.0255 1121.75C-1.35633 1119.25 -69.2373 1147.58 -91.755 1162.06" stroke="#FFAD41" stroke-width="1.05411"/>
<path d="M1570.78 2065.63C1548.31 1993.77 1470.19 1850.25 1337.44 1851.08C1171.51 1852.12 1063.64 1742.08 1014.93 1664.88C966.216 1587.68 831.592 1447.8 664.545 1462.59C497.498 1477.38 382.659 1447.72 269.113 1339.63C155.567 1231.54 200.297 1131.74 86.0699 1128.6C-5.3119 1126.1 -73.1928 1154.43 -95.7106 1168.92" stroke="#FFAD41" stroke-width="1.05411"/>
<path d="M1562.31 2080.31C1539.84 2008.45 1461.71 1864.93 1328.97 1865.76C1163.03 1866.8 1055.17 1756.76 1006.45 1679.56C957.74 1602.36 823.116 1462.48 656.069 1477.27C489.022 1492.06 374.183 1462.4 260.637 1354.31C147.091 1246.23 191.821 1146.42 77.5939 1143.29C-13.788 1140.78 -81.6689 1169.11 -104.187 1183.6" stroke="#FFAD41" stroke-width="1.05411"/>
<path d="M1566.83 2072.48C1544.36 2000.62 1466.23 1857.1 1333.49 1857.93C1167.55 1858.97 1059.69 1748.93 1010.97 1671.73C962.26 1594.53 827.636 1454.65 660.589 1469.44C493.542 1484.23 378.703 1454.57 265.157 1346.48C151.611 1238.4 196.342 1138.59 82.1144 1135.46C-9.26746 1132.95 -77.1484 1161.28 -99.6661 1175.77" stroke="#FFAD41" stroke-width="1.05411"/>
<path d="M1528.97 2138.06C1506.5 2066.2 1428.37 1922.68 1295.63 1923.51C1129.69 1924.55 1021.83 1814.51 973.113 1737.31C924.4 1660.11 789.776 1520.22 622.729 1535.01C455.682 1549.8 340.843 1520.15 227.297 1412.06C113.751 1303.97 158.482 1204.16 44.2545 1201.03C-47.1273 1198.52 -115.008 1226.86 -137.526 1241.34" stroke="#FFAD41" stroke-width="1.05411"/>
<path d="M1556.65 2090.1C1534.19 2018.24 1456.06 1874.72 1323.31 1875.55C1157.38 1876.59 1049.51 1766.55 1000.8 1689.35C952.089 1612.15 817.465 1472.26 650.418 1487.06C483.371 1501.85 368.532 1472.19 254.986 1364.1C141.44 1256.01 186.17 1156.21 71.943 1153.07C-19.4389 1150.57 -87.3198 1178.9 -109.838 1193.38" stroke="#FFAD41" stroke-width="1.05411"/>
<path d="M1552.13 2097.93C1529.66 2026.07 1451.54 1882.55 1318.79 1883.38C1152.86 1884.42 1044.99 1774.38 996.281 1697.18C947.568 1619.98 812.944 1480.09 645.897 1494.89C478.85 1509.68 364.011 1480.02 250.465 1371.93C136.919 1263.84 181.649 1164.04 67.4222 1160.9C-23.9596 1158.4 -91.8405 1186.73 -114.358 1201.21" stroke="#FFAD41" stroke-width="1.05411"/>
<path d="M1547.61 2105.76C1525.14 2033.9 1447.02 1890.38 1314.27 1891.21C1148.34 1892.25 1040.47 1782.21 991.761 1705.01C943.048 1627.81 808.424 1487.92 641.377 1502.72C474.329 1517.51 359.491 1487.85 245.945 1379.76C132.398 1271.67 177.129 1171.87 62.9017 1168.73C-28.4801 1166.23 -96.361 1194.56 -118.879 1209.04" stroke="#FFAD41" stroke-width="1.05411"/>
<path d="M1542.53 2114.57C1520.06 2042.71 1441.93 1899.19 1309.19 1900.02C1143.25 1901.06 1035.39 1791.02 986.675 1713.82C937.962 1636.62 803.338 1496.73 636.291 1511.52C469.244 1526.32 354.405 1496.66 240.859 1388.57C127.313 1280.48 172.043 1180.67 57.8158 1177.54C-33.566 1175.03 -101.447 1203.37 -123.965 1217.85" stroke="#FFAD41" stroke-width="1.05411"/>
<path d="M1538.01 2122.4C1515.54 2050.54 1437.41 1907.02 1304.67 1907.85C1138.73 1908.89 1030.87 1798.85 982.155 1721.65C933.442 1644.45 798.818 1504.56 631.771 1519.35C464.723 1534.15 349.885 1504.49 236.339 1396.4C122.793 1288.31 167.523 1188.5 53.2958 1185.37C-38.0861 1182.86 -105.967 1211.2 -128.485 1225.68" stroke="#FFAD41" stroke-width="1.05411"/>
<path d="M1533.49 2130.23C1511.02 2058.37 1432.89 1914.85 1300.15 1915.68C1134.21 1916.72 1026.35 1806.68 977.634 1729.48C928.921 1652.28 794.297 1512.39 627.25 1527.18C460.203 1541.97 345.364 1512.32 231.818 1404.23C118.272 1296.14 163.003 1196.33 48.7752 1193.2C-42.6066 1190.69 -110.487 1219.03 -133.005 1233.51" stroke="#FFAD41" stroke-width="1.05411"/>
<path d="M1523.88 2146.87C1501.41 2075 1423.29 1931.49 1290.54 1932.32C1124.61 1933.36 1016.74 1823.32 968.028 1746.12C919.315 1668.92 784.691 1529.03 617.644 1543.82C450.597 1558.61 335.758 1528.95 222.212 1420.87C108.666 1312.78 153.396 1212.97 39.1688 1209.84C-52.213 1207.33 -120.094 1235.67 -142.612 1250.15" stroke="#FFAD41" stroke-width="1.05411"/>
<path d="M1468.63 2242.56C1446.16 2170.7 1368.04 2027.18 1235.29 2028.02C1069.36 2029.06 961.49 1919.01 912.777 1841.81C864.064 1764.61 729.44 1624.73 562.393 1639.52C395.346 1654.31 280.507 1624.65 166.961 1516.56C53.4149 1408.48 98.1453 1308.67 -16.0819 1305.54C-107.464 1303.03 -175.345 1331.37 -197.862 1345.85" stroke="#FFAD41" stroke-width="1.05411"/>
<path d="M1515.53 2161.33C1493.06 2089.47 1414.94 1945.95 1282.19 1946.78C1116.26 1947.82 1008.39 1837.78 959.678 1760.58C910.965 1683.38 776.341 1543.49 609.294 1558.28C442.247 1573.08 327.408 1543.42 213.862 1435.33C100.316 1327.24 145.046 1227.43 30.8192 1224.3C-60.5626 1221.79 -128.444 1250.13 -150.961 1264.61" stroke="#FFAD41" stroke-width="1.05411"/>
<path d="M1520.05 2153.5C1497.58 2081.64 1419.46 1938.12 1286.71 1938.95C1120.78 1939.99 1012.91 1829.95 964.199 1752.75C915.486 1675.55 780.862 1535.66 613.815 1550.45C446.768 1565.25 331.929 1535.59 218.383 1427.5C104.837 1319.41 149.567 1219.6 35.3399 1216.47C-56.0419 1213.96 -123.923 1242.3 -146.441 1256.78" stroke="#FFAD41" stroke-width="1.05411"/>
<path d="M1509.31 2172.09C1486.85 2100.23 1408.72 1956.72 1275.97 1957.55C1110.04 1958.59 1002.17 1848.54 953.462 1771.34C904.749 1694.15 770.125 1554.26 603.078 1569.05C436.031 1583.84 321.192 1554.18 207.646 1446.09C94.0999 1338.01 138.83 1238.2 24.6031 1235.07C-66.7787 1232.56 -134.66 1260.9 -157.177 1275.38" stroke="#FFAD41" stroke-width="1.05411"/>
<path d="M1503.66 2181.88C1481.19 2110.02 1403.07 1966.5 1270.32 1967.33C1104.39 1968.37 996.524 1858.33 947.811 1781.13C899.098 1703.93 764.474 1564.05 597.427 1578.84C430.38 1593.63 315.541 1563.97 201.995 1455.88C88.449 1347.79 133.18 1247.99 18.9522 1244.85C-72.4296 1242.35 -140.31 1270.68 -162.828 1285.17" stroke="#FFAD41" stroke-width="1.05411"/>
<path d="M1498.01 2191.67C1475.54 2119.81 1397.42 1976.29 1264.67 1977.12C1098.74 1978.16 990.874 1868.12 942.161 1790.92C893.448 1713.72 758.824 1573.83 591.777 1588.62C424.73 1603.42 309.891 1573.76 196.345 1465.67C82.7986 1357.58 127.529 1257.78 13.3019 1254.64C-78.08 1252.14 -145.961 1280.47 -168.479 1294.95" stroke="#FFAD41" stroke-width="1.05411"/>
<path d="M1492.36 2201.46C1469.89 2129.59 1391.77 1986.08 1259.02 1986.91C1093.09 1987.95 985.223 1877.91 936.51 1800.71C887.797 1723.51 753.173 1583.62 586.126 1598.41C419.079 1613.2 304.24 1583.54 190.694 1475.46C77.1478 1367.37 121.878 1267.56 7.65098 1264.43C-83.7308 1261.92 -151.612 1290.26 -174.13 1304.74" stroke="#FFAD41" stroke-width="1.05411"/>
<path d="M1486.15 2212.22C1463.68 2140.36 1385.55 1996.84 1252.81 1997.68C1086.87 1998.71 979.007 1888.67 930.294 1811.47C881.581 1734.27 746.957 1594.39 579.91 1609.18C412.863 1623.97 298.024 1594.31 184.478 1486.22C70.9322 1378.14 115.663 1278.33 1.43541 1275.2C-89.9464 1272.69 -157.827 1301.02 -180.345 1315.51" stroke="#FFAD41" stroke-width="1.05411"/>
<path d="M1479.37 2223.97C1456.9 2152.1 1378.77 2008.59 1246.03 2009.42C1080.09 2010.46 972.226 1900.42 923.513 1823.22C874.8 1746.02 740.176 1606.13 573.129 1620.92C406.082 1635.71 291.243 1606.05 177.697 1497.97C64.1509 1389.88 108.881 1290.07 -5.34584 1286.94C-96.7277 1284.43 -164.609 1312.77 -187.126 1327.25" stroke="#FFAD41" stroke-width="1.05411"/>
<path d="M1472.59 2235.71C1450.12 2163.85 1371.99 2020.33 1239.24 2021.17C1073.31 2022.21 965.445 1912.16 916.732 1834.96C868.019 1757.76 733.395 1617.88 566.348 1632.67C399.301 1647.46 284.462 1617.8 170.916 1509.71C57.3702 1401.63 102.101 1301.82 -12.1266 1298.69C-103.508 1296.18 -171.389 1324.52 -193.907 1339" stroke="#FFAD41" stroke-width="1.05411"/>
<g filter="url(#filter1_f_10_5736)">
<ellipse cx="2.63528" cy="2.10822" rx="2.63528" ry="2.10822" transform="matrix(-0.866025 -0.5 -0.5 0.866025 665.706 2142.76)" fill="#D9D9D9" fill-opacity="0.2"/>
</g>
<g clip-path="url(#clip1_10_5736)">
<g filter="url(#filter2_dd_10_5736)">
<path d="M1702.38 2735.54C1656.12 2803.11 1529.05 2928.39 1390.88 2889.01C1218.17 2839.79 1070.72 2921.94 995.393 2987.39C920.066 3052.84 735.231 3157.99 565.727 3094.26C396.223 3030.54 267.041 3027.79 114.29 3106.27C-38.4617 3184.75 -23.5249 3300.63 -143.641 3270.71C-239.734 3246.78 -301.521 3197.87 -320.402 3176.4" stroke="#FFAD41"/>
</g>
<g filter="url(#filter3_dd_10_5736)">
<path d="M1698.77 2720.29C1652.5 2787.86 1525.43 2913.14 1387.26 2873.77C1214.55 2824.54 1067.1 2906.69 991.775 2972.14C916.448 3037.59 731.613 3142.74 562.109 3079.01C392.605 3015.29 263.423 3012.54 110.671 3091.02C-42.0799 3169.5 -27.143 3285.38 -147.259 3255.46C-243.352 3231.53 -305.139 3182.62 -324.02 3161.15" stroke="#FFAD41"/>
</g>
<g filter="url(#filter4_dd_10_5736)">
<path d="M1709.62 2772.25C1663.35 2839.82 1536.28 2965.1 1398.11 2925.72C1225.4 2876.5 1077.95 2958.65 1002.63 3024.1C927.299 3089.55 742.464 3194.7 572.96 3130.97C403.456 3067.25 274.274 3064.5 121.523 3142.98C-31.2288 3221.46 -16.292 3337.34 -136.408 3307.42C-232.501 3283.49 -294.288 3234.57 -313.169 3213.11" stroke="#FFAD41"/>
</g>
<g filter="url(#filter5_dd_10_5736)">
<path d="M1709.34 2764.87C1663.08 2832.43 1536.01 2957.72 1397.84 2918.34C1225.13 2869.12 1077.68 2951.26 1002.35 3016.71C927.024 3082.16 742.189 3187.31 572.685 3123.59C403.181 3059.86 273.999 3057.11 121.248 3135.6C-31.5035 3214.08 -16.5666 3329.95 -136.683 3300.03C-232.776 3276.1 -294.562 3227.19 -313.444 3205.73" stroke="#FFAD41"/>
</g>
<g filter="url(#filter6_dd_10_5736)">
<path d="M1707.67 2757.83C1661.41 2825.39 1534.34 2950.68 1396.17 2911.3C1223.46 2862.08 1076.01 2944.22 1000.68 3009.67C925.354 3075.12 740.519 3180.27 571.015 3116.55C401.511 3052.82 272.329 3050.08 119.578 3128.56C-33.1736 3207.04 -18.2368 3322.91 -138.353 3293C-234.446 3269.06 -296.233 3220.15 -315.114 3198.69" stroke="#FFAD41"/>
</g>
<g filter="url(#filter7_dd_10_5736)">
<path d="M1706 2750.79C1659.74 2818.36 1532.67 2943.64 1394.5 2904.26C1221.79 2855.04 1074.34 2937.18 999.012 3002.64C923.684 3068.09 738.849 3173.23 569.345 3109.51C399.841 3045.79 270.659 3043.04 117.908 3121.52C-34.8435 3200 -19.9067 3315.87 -140.023 3285.96C-236.116 3262.02 -297.902 3213.11 -316.784 3191.65" stroke="#FFAD41"/>
</g>
<g filter="url(#filter8_dd_10_5736)">
<path d="M1704.33 2743.75C1658.07 2811.32 1531 2936.6 1392.83 2897.23C1220.12 2848 1072.67 2930.15 997.342 2995.6C922.014 3061.05 737.179 3166.2 567.675 3102.47C398.171 3038.75 268.989 3036 116.238 3114.48C-36.5135 3192.96 -21.5766 3308.84 -141.693 3278.92C-237.786 3254.99 -299.572 3206.08 -318.454 3184.61" stroke="#FFAD41"/>
</g>
<g filter="url(#filter9_dd_10_5736)">
<path d="M1712.96 2780.12C1666.7 2847.68 1539.63 2972.97 1401.46 2933.59C1228.75 2884.36 1081.3 2966.51 1005.97 3031.96C930.643 3097.41 745.807 3202.56 576.303 3138.83C406.799 3075.11 277.617 3072.36 124.866 3150.84C-27.8853 3229.33 -12.9485 3345.2 -133.065 3315.28C-229.158 3291.35 -290.944 3242.44 -309.826 3220.97" stroke="#FFAD41"/>
</g>
<g filter="url(#filter10_dd_10_5736)">
<path d="M1700.99 2729.68C1654.73 2797.24 1527.66 2922.53 1389.49 2883.15C1216.78 2833.93 1069.33 2916.07 994.002 2981.52C918.675 3046.97 733.839 3152.12 564.335 3088.4C394.831 3024.67 265.649 3021.93 112.898 3100.41C-39.8533 3178.89 -24.9165 3294.76 -145.033 3264.84C-241.126 3240.91 -302.912 3192 -321.794 3170.54" stroke="#FFAD41"/>
</g>
<g filter="url(#filter11_dd_10_5736)">
<path d="M1697.1 2713.26C1650.83 2780.82 1523.76 2906.11 1385.59 2866.73C1212.88 2817.5 1065.43 2899.65 990.105 2965.1C914.778 3030.55 729.943 3135.7 560.439 3071.98C390.935 3008.25 261.753 3005.5 109.002 3083.98C-43.7498 3162.47 -28.813 3278.34 -148.929 3248.42C-245.022 3224.49 -306.809 3175.58 -325.69 3154.11" stroke="#FFAD41"/>
</g>
<g filter="url(#filter12_dd_10_5736)">
<path d="M1695.15 2705.04C1648.88 2772.61 1521.81 2897.89 1383.65 2858.52C1210.93 2809.29 1063.48 2891.44 988.157 2956.89C912.83 3022.34 727.995 3127.49 558.491 3063.76C388.987 3000.04 259.805 2997.29 107.053 3075.77C-45.698 3154.25 -30.7612 3270.13 -150.878 3240.21C-246.971 3216.28 -308.757 3167.37 -327.638 3145.9" stroke="#FFAD41"/>
</g>
<g filter="url(#filter13_dd_10_5736)">
<path d="M1690.97 2687.45C1644.71 2755.01 1517.64 2880.3 1379.47 2840.92C1206.76 2791.7 1059.31 2873.84 983.982 2939.29C908.655 3004.75 723.82 3109.89 554.316 3046.17C384.812 2982.45 255.63 2979.7 102.879 3058.18C-49.8728 3136.66 -34.936 3252.53 -155.052 3222.62C-251.145 3198.68 -312.932 3149.77 -331.813 3128.31" stroke="#FFAD41"/>
</g>
<g filter="url(#filter14_dd_10_5736)">
<path d="M1693.2 2696.83C1646.94 2764.4 1519.87 2889.68 1381.7 2850.31C1208.99 2801.08 1061.54 2883.23 986.209 2948.68C910.882 3014.13 726.046 3119.28 556.542 3055.55C387.038 2991.83 257.856 2989.08 105.105 3067.56C-47.6463 3146.04 -32.7095 3261.92 -152.826 3232C-248.919 3208.07 -310.705 3159.16 -329.587 3137.69" stroke="#FFAD41"/>
</g>
<g filter="url(#filter15_dd_10_5736)">
<path d="M1674.55 2618.24C1628.29 2685.81 1501.22 2811.09 1363.05 2771.72C1190.34 2722.49 1042.89 2804.64 967.561 2870.09C892.234 2935.54 707.399 3040.69 537.895 2976.96C368.391 2913.24 239.209 2910.49 86.4574 2988.97C-66.294 3067.45 -51.3572 3183.33 -171.474 3153.41C-267.567 3129.48 -329.353 3080.57 -348.234 3059.1" stroke="#FFAD41"/>
</g>
<g filter="url(#filter16_dd_10_5736)">
<path d="M1688.19 2675.72C1641.93 2743.29 1514.86 2868.57 1376.69 2829.19C1203.98 2779.97 1056.53 2862.11 981.199 2927.57C905.872 2993.02 721.037 3098.16 551.533 3034.44C382.029 2970.72 252.847 2967.97 100.095 3046.45C-52.656 3124.93 -37.7192 3240.8 -157.836 3210.89C-253.929 3186.95 -315.715 3138.04 -334.596 3116.58" stroke="#FFAD41"/>
</g>
<g filter="url(#filter17_dd_10_5736)">
<path d="M1685.96 2666.34C1639.7 2733.9 1512.63 2859.19 1374.46 2819.81C1201.75 2770.58 1054.3 2852.73 978.973 2918.18C903.645 2983.63 718.81 3088.78 549.306 3025.06C379.802 2961.33 250.62 2958.58 97.8688 3037.07C-54.8826 3115.55 -39.9458 3231.42 -160.062 3201.5C-256.155 3177.57 -317.941 3128.66 -336.823 3107.2" stroke="#FFAD41"/>
</g>
<g filter="url(#filter18_dd_10_5736)">
<path d="M1683.74 2656.95C1637.47 2724.52 1510.4 2849.8 1372.23 2810.42C1199.52 2761.2 1052.07 2843.35 976.746 2908.8C901.419 2974.25 716.583 3079.4 547.079 3015.67C377.575 2951.95 248.393 2949.2 95.642 3027.68C-57.1094 3106.16 -42.1726 3222.04 -162.289 3192.12C-258.382 3168.19 -320.168 3119.28 -339.05 3097.81" stroke="#FFAD41"/>
</g>
<g filter="url(#filter19_dd_10_5736)">
<path d="M1681.23 2646.4C1634.97 2713.96 1507.9 2839.25 1369.73 2799.87C1197.02 2750.64 1049.57 2832.79 974.241 2898.24C898.914 2963.69 714.078 3068.84 544.574 3005.11C375.07 2941.39 245.888 2938.64 93.1371 3017.12C-59.6143 3095.61 -44.6775 3211.48 -164.794 3181.56C-260.887 3157.63 -322.673 3108.72 -341.555 3087.25" stroke="#FFAD41"/>
</g>
<g filter="url(#filter20_dd_10_5736)">
<path d="M1679 2637.01C1632.74 2704.58 1505.67 2829.86 1367.5 2790.48C1194.79 2741.26 1047.34 2823.41 972.014 2888.86C896.687 2954.31 711.852 3059.45 542.348 2995.73C372.844 2932.01 243.662 2929.26 90.9105 3007.74C-61.8409 3086.22 -46.904 3202.1 -167.02 3172.18C-263.113 3148.24 -324.9 3099.33 -343.781 3077.87" stroke="#FFAD41"/>
</g>
<g filter="url(#filter21_dd_10_5736)">
<path d="M1676.78 2627.63C1630.51 2695.19 1503.45 2820.48 1365.28 2781.1C1192.56 2731.88 1045.11 2814.02 969.788 2879.47C894.461 2944.92 709.625 3050.07 540.121 2986.35C370.617 2922.62 241.435 2919.88 88.684 2998.36C-64.0674 3076.84 -49.1307 3192.71 -169.247 3162.79C-265.34 3138.86 -327.126 3089.95 -346.008 3068.49" stroke="#FFAD41"/>
</g>
<g filter="url(#filter22_dd_10_5736)">
<path d="M1672.05 2607.69C1625.78 2675.25 1498.71 2800.54 1360.54 2761.16C1187.83 2711.94 1040.38 2794.08 965.056 2859.53C889.729 2924.98 704.894 3030.13 535.39 2966.41C365.886 2902.68 236.704 2899.94 83.9525 2978.42C-68.7989 3056.9 -53.862 3172.77 -173.978 3142.85C-270.071 3118.92 -331.858 3070.01 -350.739 3048.55" stroke="#FFAD41"/>
</g>
<g filter="url(#filter23_dd_10_5736)">
<path d="M1644.83 2493C1598.57 2560.56 1471.5 2685.85 1333.33 2646.47C1160.62 2597.25 1013.17 2679.39 937.843 2744.84C862.516 2810.29 677.68 2915.44 508.176 2851.72C338.672 2787.99 209.491 2785.25 56.7391 2863.73C-96.0122 2942.21 -81.0754 3058.08 -201.192 3028.16C-297.285 3004.23 -359.071 2955.32 -377.953 2933.86" stroke="#FFAD41"/>
</g>
<g filter="url(#filter24_dd_10_5736)">
<path d="M1667.93 2590.36C1621.67 2657.92 1494.6 2783.21 1356.43 2743.83C1183.72 2694.6 1036.27 2776.75 960.943 2842.2C885.616 2907.65 700.781 3012.8 531.277 2949.07C361.773 2885.35 232.591 2882.6 79.8397 2961.08C-72.9117 3039.57 -57.9748 3155.44 -178.091 3125.52C-274.184 3101.59 -335.971 3052.68 -354.852 3031.21" stroke="#FFAD41"/>
</g>
<g filter="url(#filter25_dd_10_5736)">
<path d="M1670.16 2599.74C1623.9 2667.3 1496.83 2792.59 1358.66 2753.21C1185.95 2703.99 1038.5 2786.13 963.17 2851.58C887.843 2917.04 703.008 3022.18 533.504 2958.46C364 2894.73 234.818 2891.99 82.0665 2970.47C-70.6849 3048.95 -55.748 3164.82 -175.864 3134.91C-271.957 3110.97 -333.744 3062.06 -352.625 3040.6" stroke="#FFAD41"/>
</g>
<g filter="url(#filter26_dd_10_5736)">
<path d="M1664.87 2577.45C1618.61 2645.02 1491.54 2770.3 1353.37 2730.92C1180.66 2681.7 1033.21 2763.85 957.882 2829.3C882.555 2894.75 697.72 2999.9 528.216 2936.17C358.712 2872.45 229.53 2869.7 76.7784 2948.18C-75.9729 3026.66 -61.0361 3142.54 -181.152 3112.62C-277.246 3088.69 -339.032 3039.77 -357.913 3018.31" stroke="#FFAD41"/>
</g>
<g filter="url(#filter27_dd_10_5736)">
<path d="M1662.09 2565.72C1615.83 2633.29 1488.76 2758.57 1350.59 2719.19C1177.88 2669.97 1030.43 2752.12 955.099 2817.57C879.772 2883.02 694.937 2988.17 525.433 2924.44C355.929 2860.72 226.747 2857.97 73.9952 2936.45C-78.7561 3014.93 -63.8193 3130.81 -183.936 3100.89C-280.029 3076.96 -341.815 3028.05 -360.697 3006.58" stroke="#FFAD41"/>
</g>
<g filter="url(#filter28_dd_10_5736)">
<path d="M1659.31 2553.99C1613.04 2621.56 1485.97 2746.84 1347.8 2707.46C1175.09 2658.24 1027.64 2740.39 952.316 2805.84C876.988 2871.29 692.153 2976.44 522.649 2912.71C353.145 2848.99 223.963 2846.24 71.2118 2924.72C-81.5396 3003.2 -66.6028 3119.08 -186.719 3089.16C-282.812 3065.23 -344.598 3016.31 -363.48 2994.85" stroke="#FFAD41"/>
</g>
<g filter="url(#filter29_dd_10_5736)">
<path d="M1656.52 2542.26C1610.26 2609.83 1483.19 2735.11 1345.02 2695.73C1172.31 2646.51 1024.86 2728.66 949.532 2794.11C874.205 2859.56 689.37 2964.71 519.866 2900.98C350.362 2837.26 221.18 2834.51 68.4286 2912.99C-84.3228 2991.47 -69.386 3107.35 -189.502 3077.43C-285.595 3053.5 -347.382 3004.59 -366.263 2983.12" stroke="#FFAD41"/>
</g>
<g filter="url(#filter30_dd_10_5736)">
<path d="M1653.46 2529.36C1607.2 2596.93 1480.13 2722.21 1341.96 2682.83C1169.25 2633.61 1021.8 2715.75 946.471 2781.2C871.144 2846.66 686.308 2951.8 516.804 2888.08C347.3 2824.36 218.118 2821.61 65.3671 2900.09C-87.3843 2978.57 -72.4475 3094.44 -192.564 3064.53C-288.657 3040.59 -350.443 2991.68 -369.325 2970.22" stroke="#FFAD41"/>
</g>
<g filter="url(#filter31_dd_10_5736)">
<path d="M1650.12 2515.28C1603.86 2582.85 1476.79 2708.13 1338.62 2668.76C1165.91 2619.53 1018.46 2701.68 943.131 2767.13C867.804 2832.58 682.968 2937.73 513.464 2874C343.96 2810.28 214.779 2807.53 62.0272 2886.01C-90.7242 2964.49 -75.7873 3080.37 -195.904 3050.45C-291.997 3026.52 -353.783 2977.61 -372.665 2956.14" stroke="#FFAD41"/>
</g>
<g filter="url(#filter32_dd_10_5736)">
<path d="M1646.78 2501.21C1600.52 2568.77 1473.45 2694.06 1335.28 2654.68C1162.57 2605.46 1015.12 2687.6 939.791 2753.05C864.464 2818.5 679.629 2923.65 510.125 2859.93C340.621 2796.2 211.439 2793.46 58.6874 2871.94C-94.064 2950.42 -79.1272 3066.29 -199.244 3036.38C-295.337 3012.44 -357.123 2963.53 -376.004 2942.07" stroke="#FFAD41"/>
</g>
<ellipse cx="2.90812" cy="2.03355" rx="2.90812" ry="2.03355" transform="matrix(-0.97043 0.241383 -0.230868 -0.972985 786.007 2435.57)" fill="#D9D9D9" fill-opacity="0.2"/>
</g>
</g>
<defs>
<filter id="filter0_f_10_5736" x="109.931" y="3891.01" width="13.6082" height="12.7688" filterUnits="userSpaceOnUse" color-interpolation-filters="sRGB">
<feFlood flood-opacity="0" result="BackgroundImageFix"/>
<feBlend mode="normal" in="SourceGraphic" in2="BackgroundImageFix" result="shape"/>
<feGaussianBlur stdDeviation="2.10822" result="effect1_foregroundBlur_10_5736"/>
</filter>
<filter id="filter1_f_10_5736" x="655.638" y="2136.8" width="13.4619" height="12.9358" filterUnits="userSpaceOnUse" color-interpolation-filters="sRGB">
<feFlood flood-opacity="0" result="BackgroundImageFix"/>
<feBlend mode="normal" in="SourceGraphic" in2="BackgroundImageFix" result="shape"/>
<feGaussianBlur stdDeviation="2.10822" result="effect1_foregroundBlur_10_5736"/>
</filter>
<filter id="filter2_dd_10_5736" x="-369.477" y="2690.56" width="2120.97" height="638.173" filterUnits="userSpaceOnUse" color-interpolation-filters="sRGB">
<feFlood flood-opacity="0" result="BackgroundImageFix"/>
<feColorMatrix in="SourceAlpha" type="matrix" values="0 0 0 0 0 0 0 0 0 0 0 0 0 0 0 0 0 0 127 0" result="hardAlpha"/>
<feMorphology radius="32" operator="dilate" in="SourceAlpha" result="effect1_dropShadow_10_5736"/>
<feOffset dy="4"/>
<feGaussianBlur stdDeviation="8.35"/>
<feComposite in2="hardAlpha" operator="out"/>
<feColorMatrix type="matrix" values="0 0 0 0 1 0 0 0 0 0.678431 0 0 0 0 0.254902 0 0 0 1 0"/>
<feBlend mode="normal" in2="BackgroundImageFix" result="effect1_dropShadow_10_5736"/>
<feColorMatrix in="SourceAlpha" type="matrix" values="0 0 0 0 0 0 0 0 0 0 0 0 0 0 0 0 0 0 127 0" result="hardAlpha"/>
<feOffset dy="2"/>
<feGaussianBlur stdDeviation="2"/>
<feComposite in2="hardAlpha" operator="out"/>
<feColorMatrix type="matrix" values="0 0 0 0 0 0 0 0 0 0 0 0 0 0 0 0 0 0 0.25 0"/>
<feBlend mode="normal" in2="effect1_dropShadow_10_5736" result="effect2_dropShadow_10_5736"/>
<feBlend mode="normal" in="SourceGraphic" in2="effect2_dropShadow_10_5736" result="shape"/>
</filter>
<filter id="filter3_dd_10_5736" x="-373.095" y="2675.31" width="2120.97" height="638.173" filterUnits="userSpaceOnUse" color-interpolation-filters="sRGB">
<feFlood flood-opacity="0" result="BackgroundImageFix"/>
<feColorMatrix in="SourceAlpha" type="matrix" values="0 0 0 0 0 0 0 0 0 0 0 0 0 0 0 0 0 0 127 0" result="hardAlpha"/>
<feMorphology radius="32" operator="dilate" in="SourceAlpha" result="effect1_dropShadow_10_5736"/>
<feOffset dy="4"/>
<feGaussianBlur stdDeviation="8.35"/>
<feComposite in2="hardAlpha" operator="out"/>
<feColorMatrix type="matrix" values="0 0 0 0 1 0 0 0 0 0.678431 0 0 0 0 0.254902 0 0 0 1 0"/>
<feBlend mode="normal" in2="BackgroundImageFix" result="effect1_dropShadow_10_5736"/>
<feColorMatrix in="SourceAlpha" type="matrix" values="0 0 0 0 0 0 0 0 0 0 0 0 0 0 0 0 0 0 127 0" result="hardAlpha"/>
<feOffset dy="2"/>
<feGaussianBlur stdDeviation="2"/>
<feComposite in2="hardAlpha" operator="out"/>
<feColorMatrix type="matrix" values="0 0 0 0 0 0 0 0 0 0 0 0 0 0 0 0 0 0 0.25 0"/>
<feBlend mode="normal" in2="effect1_dropShadow_10_5736" result="effect2_dropShadow_10_5736"/>
<feBlend mode="normal" in="SourceGraphic" in2="effect2_dropShadow_10_5736" result="shape"/>
</filter>
<filter id="filter4_dd_10_5736" x="-362.244" y="2727.27" width="2120.97" height="638.173" filterUnits="userSpaceOnUse" color-interpolation-filters="sRGB">
<feFlood flood-opacity="0" result="BackgroundImageFix"/>
<feColorMatrix in="SourceAlpha" type="matrix" values="0 0 0 0 0 0 0 0 0 0 0 0 0 0 0 0 0 0 127 0" result="hardAlpha"/>
<feMorphology radius="32" operator="dilate" in="SourceAlpha" result="effect1_dropShadow_10_5736"/>
<feOffset dy="4"/>
<feGaussianBlur stdDeviation="8.35"/>
<feComposite in2="hardAlpha" operator="out"/>
<feColorMatrix type="matrix" values="0 0 0 0 1 0 0 0 0 0.678431 0 0 0 0 0.254902 0 0 0 1 0"/>
<feBlend mode="normal" in2="BackgroundImageFix" result="effect1_dropShadow_10_5736"/>
<feColorMatrix in="SourceAlpha" type="matrix" values="0 0 0 0 0 0 0 0 0 0 0 0 0 0 0 0 0 0 127 0" result="hardAlpha"/>
<feOffset dy="2"/>
<feGaussianBlur stdDeviation="2"/>
<feComposite in2="hardAlpha" operator="out"/>
<feColorMatrix type="matrix" values="0 0 0 0 0 0 0 0 0 0 0 0 0 0 0 0 0 0 0.25 0"/>
<feBlend mode="normal" in2="effect1_dropShadow_10_5736" result="effect2_dropShadow_10_5736"/>
<feBlend mode="normal" in="SourceGraphic" in2="effect2_dropShadow_10_5736" result="shape"/>
</filter>
<filter id="filter5_dd_10_5736" x="-362.519" y="2719.89" width="2120.97" height="638.173" filterUnits="userSpaceOnUse" color-interpolation-filters="sRGB">
<feFlood flood-opacity="0" result="BackgroundImageFix"/>
<feColorMatrix in="SourceAlpha" type="matrix" values="0 0 0 0 0 0 0 0 0 0 0 0 0 0 0 0 0 0 127 0" result="hardAlpha"/>
<feMorphology radius="32" operator="dilate" in="SourceAlpha" result="effect1_dropShadow_10_5736"/>
<feOffset dy="4"/>
<feGaussianBlur stdDeviation="8.35"/>
<feComposite in2="hardAlpha" operator="out"/>
<feColorMatrix type="matrix" values="0 0 0 0 1 0 0 0 0 0.678431 0 0 0 0 0.254902 0 0 0 1 0"/>
<feBlend mode="normal" in2="BackgroundImageFix" result="effect1_dropShadow_10_5736"/>
<feColorMatrix in="SourceAlpha" type="matrix" values="0 0 0 0 0 0 0 0 0 0 0 0 0 0 0 0 0 0 127 0" result="hardAlpha"/>
<feOffset dy="2"/>
<feGaussianBlur stdDeviation="2"/>
<feComposite in2="hardAlpha" operator="out"/>
<feColorMatrix type="matrix" values="0 0 0 0 0 0 0 0 0 0 0 0 0 0 0 0 0 0 0.25 0"/>
<feBlend mode="normal" in2="effect1_dropShadow_10_5736" result="effect2_dropShadow_10_5736"/>
<feBlend mode="normal" in="SourceGraphic" in2="effect2_dropShadow_10_5736" result="shape"/>
</filter>
<filter id="filter6_dd_10_5736" x="-364.189" y="2712.85" width="2120.97" height="638.173" filterUnits="userSpaceOnUse" color-interpolation-filters="sRGB">
<feFlood flood-opacity="0" result="BackgroundImageFix"/>
<feColorMatrix in="SourceAlpha" type="matrix" values="0 0 0 0 0 0 0 0 0 0 0 0 0 0 0 0 0 0 127 0" result="hardAlpha"/>
<feMorphology radius="32" operator="dilate" in="SourceAlpha" result="effect1_dropShadow_10_5736"/>
<feOffset dy="4"/>
<feGaussianBlur stdDeviation="8.35"/>
<feComposite in2="hardAlpha" operator="out"/>
<feColorMatrix type="matrix" values="0 0 0 0 1 0 0 0 0 0.678431 0 0 0 0 0.254902 0 0 0 1 0"/>
<feBlend mode="normal" in2="BackgroundImageFix" result="effect1_dropShadow_10_5736"/>
<feColorMatrix in="SourceAlpha" type="matrix" values="0 0 0 0 0 0 0 0 0 0 0 0 0 0 0 0 0 0 127 0" result="hardAlpha"/>
<feOffset dy="2"/>
<feGaussianBlur stdDeviation="2"/>
<feComposite in2="hardAlpha" operator="out"/>
<feColorMatrix type="matrix" values="0 0 0 0 0 0 0 0 0 0 0 0 0 0 0 0 0 0 0.25 0"/>
<feBlend mode="normal" in2="effect1_dropShadow_10_5736" result="effect2_dropShadow_10_5736"/>
<feBlend mode="normal" in="SourceGraphic" in2="effect2_dropShadow_10_5736" result="shape"/>
</filter>
<filter id="filter7_dd_10_5736" x="-365.859" y="2705.81" width="2120.97" height="638.173" filterUnits="userSpaceOnUse" color-interpolation-filters="sRGB">
<feFlood flood-opacity="0" result="BackgroundImageFix"/>
<feColorMatrix in="SourceAlpha" type="matrix" values="0 0 0 0 0 0 0 0 0 0 0 0 0 0 0 0 0 0 127 0" result="hardAlpha"/>
<feMorphology radius="32" operator="dilate" in="SourceAlpha" result="effect1_dropShadow_10_5736"/>
<feOffset dy="4"/>
<feGaussianBlur stdDeviation="8.35"/>
<feComposite in2="hardAlpha" operator="out"/>
<feColorMatrix type="matrix" values="0 0 0 0 1 0 0 0 0 0.678431 0 0 0 0 0.254902 0 0 0 1 0"/>
<feBlend mode="normal" in2="BackgroundImageFix" result="effect1_dropShadow_10_5736"/>
<feColorMatrix in="SourceAlpha" type="matrix" values="0 0 0 0 0 0 0 0 0 0 0 0 0 0 0 0 0 0 127 0" result="hardAlpha"/>
<feOffset dy="2"/>
<feGaussianBlur stdDeviation="2"/>
<feComposite in2="hardAlpha" operator="out"/>
<feColorMatrix type="matrix" values="0 0 0 0 0 0 0 0 0 0 0 0 0 0 0 0 0 0 0.25 0"/>
<feBlend mode="normal" in2="effect1_dropShadow_10_5736" result="effect2_dropShadow_10_5736"/>
<feBlend mode="normal" in="SourceGraphic" in2="effect2_dropShadow_10_5736" result="shape"/>
</filter>
<filter id="filter8_dd_10_5736" x="-367.529" y="2698.77" width="2120.97" height="638.173" filterUnits="userSpaceOnUse" color-interpolation-filters="sRGB">
<feFlood flood-opacity="0" result="BackgroundImageFix"/>
<feColorMatrix in="SourceAlpha" type="matrix" values="0 0 0 0 0 0 0 0 0 0 0 0 0 0 0 0 0 0 127 0" result="hardAlpha"/>
<feMorphology radius="32" operator="dilate" in="SourceAlpha" result="effect1_dropShadow_10_5736"/>
<feOffset dy="4"/>
<feGaussianBlur stdDeviation="8.35"/>
<feComposite in2="hardAlpha" operator="out"/>
<feColorMatrix type="matrix" values="0 0 0 0 1 0 0 0 0 0.678431 0 0 0 0 0.254902 0 0 0 1 0"/>
<feBlend mode="normal" in2="BackgroundImageFix" result="effect1_dropShadow_10_5736"/>
<feColorMatrix in="SourceAlpha" type="matrix" values="0 0 0 0 0 0 0 0 0 0 0 0 0 0 0 0 0 0 127 0" result="hardAlpha"/>
<feOffset dy="2"/>
<feGaussianBlur stdDeviation="2"/>
<feComposite in2="hardAlpha" operator="out"/>
<feColorMatrix type="matrix" values="0 0 0 0 0 0 0 0 0 0 0 0 0 0 0 0 0 0 0.25 0"/>
<feBlend mode="normal" in2="effect1_dropShadow_10_5736" result="effect2_dropShadow_10_5736"/>
<feBlend mode="normal" in="SourceGraphic" in2="effect2_dropShadow_10_5736" result="shape"/>
</filter>
<filter id="filter9_dd_10_5736" x="-358.901" y="2735.13" width="2120.97" height="638.173" filterUnits="userSpaceOnUse" color-interpolation-filters="sRGB">
<feFlood flood-opacity="0" result="BackgroundImageFix"/>
<feColorMatrix in="SourceAlpha" type="matrix" values="0 0 0 0 0 0 0 0 0 0 0 0 0 0 0 0 0 0 127 0" result="hardAlpha"/>
<feMorphology radius="32" operator="dilate" in="SourceAlpha" result="effect1_dropShadow_10_5736"/>
<feOffset dy="4"/>
<feGaussianBlur stdDeviation="8.35"/>
<feComposite in2="hardAlpha" operator="out"/>
<feColorMatrix type="matrix" values="0 0 0 0 1 0 0 0 0 0.678431 0 0 0 0 0.254902 0 0 0 1 0"/>
<feBlend mode="normal" in2="BackgroundImageFix" result="effect1_dropShadow_10_5736"/>
<feColorMatrix in="SourceAlpha" type="matrix" values="0 0 0 0 0 0 0 0 0 0 0 0 0 0 0 0 0 0 127 0" result="hardAlpha"/>
<feOffset dy="2"/>
<feGaussianBlur stdDeviation="2"/>
<feComposite in2="hardAlpha" operator="out"/>
<feColorMatrix type="matrix" values="0 0 0 0 0 0 0 0 0 0 0 0 0 0 0 0 0 0 0.25 0"/>
<feBlend mode="normal" in2="effect1_dropShadow_10_5736" result="effect2_dropShadow_10_5736"/>
<feBlend mode="normal" in="SourceGraphic" in2="effect2_dropShadow_10_5736" result="shape"/>
</filter>
<filter id="filter10_dd_10_5736" x="-370.869" y="2684.7" width="2120.97" height="638.173" filterUnits="userSpaceOnUse" color-interpolation-filters="sRGB">
<feFlood flood-opacity="0" result="BackgroundImageFix"/>
<feColorMatrix in="SourceAlpha" type="matrix" values="0 0 0 0 0 0 0 0 0 0 0 0 0 0 0 0 0 0 127 0" result="hardAlpha"/>
<feMorphology radius="32" operator="dilate" in="SourceAlpha" result="effect1_dropShadow_10_5736"/>
<feOffset dy="4"/>
<feGaussianBlur stdDeviation="8.35"/>
<feComposite in2="hardAlpha" operator="out"/>
<feColorMatrix type="matrix" values="0 0 0 0 1 0 0 0 0 0.678431 0 0 0 0 0.254902 0 0 0 1 0"/>
<feBlend mode="normal" in2="BackgroundImageFix" result="effect1_dropShadow_10_5736"/>
<feColorMatrix in="SourceAlpha" type="matrix" values="0 0 0 0 0 0 0 0 0 0 0 0 0 0 0 0 0 0 127 0" result="hardAlpha"/>
<feOffset dy="2"/>
<feGaussianBlur stdDeviation="2"/>
<feComposite in2="hardAlpha" operator="out"/>
<feColorMatrix type="matrix" values="0 0 0 0 0 0 0 0 0 0 0 0 0 0 0 0 0 0 0.25 0"/>
<feBlend mode="normal" in2="effect1_dropShadow_10_5736" result="effect2_dropShadow_10_5736"/>
<feBlend mode="normal" in="SourceGraphic" in2="effect2_dropShadow_10_5736" result="shape"/>
</filter>
<filter id="filter11_dd_10_5736" x="-374.765" y="2668.27" width="2120.97" height="638.173" filterUnits="userSpaceOnUse" color-interpolation-filters="sRGB">
<feFlood flood-opacity="0" result="BackgroundImageFix"/>
<feColorMatrix in="SourceAlpha" type="matrix" values="0 0 0 0 0 0 0 0 0 0 0 0 0 0 0 0 0 0 127 0" result="hardAlpha"/>
<feMorphology radius="32" operator="dilate" in="SourceAlpha" result="effect1_dropShadow_10_5736"/>
<feOffset dy="4"/>
<feGaussianBlur stdDeviation="8.35"/>
<feComposite in2="hardAlpha" operator="out"/>
<feColorMatrix type="matrix" values="0 0 0 0 1 0 0 0 0 0.678431 0 0 0 0 0.254902 0 0 0 1 0"/>
<feBlend mode="normal" in2="BackgroundImageFix" result="effect1_dropShadow_10_5736"/>
<feColorMatrix in="SourceAlpha" type="matrix" values="0 0 0 0 0 0 0 0 0 0 0 0 0 0 0 0 0 0 127 0" result="hardAlpha"/>
<feOffset dy="2"/>
<feGaussianBlur stdDeviation="2"/>
<feComposite in2="hardAlpha" operator="out"/>
<feColorMatrix type="matrix" values="0 0 0 0 0 0 0 0 0 0 0 0 0 0 0 0 0 0 0.25 0"/>
<feBlend mode="normal" in2="effect1_dropShadow_10_5736" result="effect2_dropShadow_10_5736"/>
<feBlend mode="normal" in="SourceGraphic" in2="effect2_dropShadow_10_5736" result="shape"/>
</filter>
<filter id="filter12_dd_10_5736" x="-376.714" y="2660.06" width="2120.97" height="638.173" filterUnits="userSpaceOnUse" color-interpolation-filters="sRGB">
<feFlood flood-opacity="0" result="BackgroundImageFix"/>
<feColorMatrix in="SourceAlpha" type="matrix" values="0 0 0 0 0 0 0 0 0 0 0 0 0 0 0 0 0 0 127 0" result="hardAlpha"/>
<feMorphology radius="32" operator="dilate" in="SourceAlpha" result="effect1_dropShadow_10_5736"/>
<feOffset dy="4"/>
<feGaussianBlur stdDeviation="8.35"/>
<feComposite in2="hardAlpha" operator="out"/>
<feColorMatrix type="matrix" values="0 0 0 0 1 0 0 0 0 0.678431 0 0 0 0 0.254902 0 0 0 1 0"/>
<feBlend mode="normal" in2="BackgroundImageFix" result="effect1_dropShadow_10_5736"/>
<feColorMatrix in="SourceAlpha" type="matrix" values="0 0 0 0 0 0 0 0 0 0 0 0 0 0 0 0 0 0 127 0" result="hardAlpha"/>
<feOffset dy="2"/>
<feGaussianBlur stdDeviation="2"/>
<feComposite in2="hardAlpha" operator="out"/>
<feColorMatrix type="matrix" values="0 0 0 0 0 0 0 0 0 0 0 0 0 0 0 0 0 0 0.25 0"/>
<feBlend mode="normal" in2="effect1_dropShadow_10_5736" result="effect2_dropShadow_10_5736"/>
<feBlend mode="normal" in="SourceGraphic" in2="effect2_dropShadow_10_5736" result="shape"/>
</filter>
<filter id="filter13_dd_10_5736" x="-380.888" y="2642.47" width="2120.97" height="638.173" filterUnits="userSpaceOnUse" color-interpolation-filters="sRGB">
<feFlood flood-opacity="0" result="BackgroundImageFix"/>
<feColorMatrix in="SourceAlpha" type="matrix" values="0 0 0 0 0 0 0 0 0 0 0 0 0 0 0 0 0 0 127 0" result="hardAlpha"/>
<feMorphology radius="32" operator="dilate" in="SourceAlpha" result="effect1_dropShadow_10_5736"/>
<feOffset dy="4"/>
<feGaussianBlur stdDeviation="8.35"/>
<feComposite in2="hardAlpha" operator="out"/>
<feColorMatrix type="matrix" values="0 0 0 0 1 0 0 0 0 0.678431 0 0 0 0 0.254902 0 0 0 1 0"/>
<feBlend mode="normal" in2="BackgroundImageFix" result="effect1_dropShadow_10_5736"/>
<feColorMatrix in="SourceAlpha" type="matrix" values="0 0 0 0 0 0 0 0 0 0 0 0 0 0 0 0 0 0 127 0" result="hardAlpha"/>
<feOffset dy="2"/>
<feGaussianBlur stdDeviation="2"/>
<feComposite in2="hardAlpha" operator="out"/>
<feColorMatrix type="matrix" values="0 0 0 0 0 0 0 0 0 0 0 0 0 0 0 0 0 0 0.25 0"/>
<feBlend mode="normal" in2="effect1_dropShadow_10_5736" result="effect2_dropShadow_10_5736"/>
<feBlend mode="normal" in="SourceGraphic" in2="effect2_dropShadow_10_5736" result="shape"/>
</filter>
<filter id="filter14_dd_10_5736" x="-378.662" y="2651.85" width="2120.97" height="638.173" filterUnits="userSpaceOnUse" color-interpolation-filters="sRGB">
<feFlood flood-opacity="0" result="BackgroundImageFix"/>
<feColorMatrix in="SourceAlpha" type="matrix" values="0 0 0 0 0 0 0 0 0 0 0 0 0 0 0 0 0 0 127 0" result="hardAlpha"/>
<feMorphology radius="32" operator="dilate" in="SourceAlpha" result="effect1_dropShadow_10_5736"/>
<feOffset dy="4"/>
<feGaussianBlur stdDeviation="8.35"/>
<feComposite in2="hardAlpha" operator="out"/>
<feColorMatrix type="matrix" values="0 0 0 0 1 0 0 0 0 0.678431 0 0 0 0 0.254902 0 0 0 1 0"/>
<feBlend mode="normal" in2="BackgroundImageFix" result="effect1_dropShadow_10_5736"/>
<feColorMatrix in="SourceAlpha" type="matrix" values="0 0 0 0 0 0 0 0 0 0 0 0 0 0 0 0 0 0 127 0" result="hardAlpha"/>
<feOffset dy="2"/>
<feGaussianBlur stdDeviation="2"/>
<feComposite in2="hardAlpha" operator="out"/>
<feColorMatrix type="matrix" values="0 0 0 0 0 0 0 0 0 0 0 0 0 0 0 0 0 0 0.25 0"/>
<feBlend mode="normal" in2="effect1_dropShadow_10_5736" result="effect2_dropShadow_10_5736"/>
<feBlend mode="normal" in="SourceGraphic" in2="effect2_dropShadow_10_5736" result="shape"/>
</filter>
<filter id="filter15_dd_10_5736" x="-397.309" y="2573.26" width="2120.97" height="638.173" filterUnits="userSpaceOnUse" color-interpolation-filters="sRGB">
<feFlood flood-opacity="0" result="BackgroundImageFix"/>
<feColorMatrix in="SourceAlpha" type="matrix" values="0 0 0 0 0 0 0 0 0 0 0 0 0 0 0 0 0 0 127 0" result="hardAlpha"/>
<feMorphology radius="32" operator="dilate" in="SourceAlpha" result="effect1_dropShadow_10_5736"/>
<feOffset dy="4"/>
<feGaussianBlur stdDeviation="8.35"/>
<feComposite in2="hardAlpha" operator="out"/>
<feColorMatrix type="matrix" values="0 0 0 0 1 0 0 0 0 0.678431 0 0 0 0 0.254902 0 0 0 1 0"/>
<feBlend mode="normal" in2="BackgroundImageFix" result="effect1_dropShadow_10_5736"/>
<feColorMatrix in="SourceAlpha" type="matrix" values="0 0 0 0 0 0 0 0 0 0 0 0 0 0 0 0 0 0 127 0" result="hardAlpha"/>
<feOffset dy="2"/>
<feGaussianBlur stdDeviation="2"/>
<feComposite in2="hardAlpha" operator="out"/>
<feColorMatrix type="matrix" values="0 0 0 0 0 0 0 0 0 0 0 0 0 0 0 0 0 0 0.25 0"/>
<feBlend mode="normal" in2="effect1_dropShadow_10_5736" result="effect2_dropShadow_10_5736"/>
<feBlend mode="normal" in="SourceGraphic" in2="effect2_dropShadow_10_5736" result="shape"/>
</filter>
<filter id="filter16_dd_10_5736" x="-383.672" y="2630.74" width="2120.97" height="638.173" filterUnits="userSpaceOnUse" color-interpolation-filters="sRGB">
<feFlood flood-opacity="0" result="BackgroundImageFix"/>
<feColorMatrix in="SourceAlpha" type="matrix" values="0 0 0 0 0 0 0 0 0 0 0 0 0 0 0 0 0 0 127 0" result="hardAlpha"/>
<feMorphology radius="32" operator="dilate" in="SourceAlpha" result="effect1_dropShadow_10_5736"/>
<feOffset dy="4"/>
<feGaussianBlur stdDeviation="8.35"/>
<feComposite in2="hardAlpha" operator="out"/>
<feColorMatrix type="matrix" values="0 0 0 0 1 0 0 0 0 0.678431 0 0 0 0 0.254902 0 0 0 1 0"/>
<feBlend mode="normal" in2="BackgroundImageFix" result="effect1_dropShadow_10_5736"/>
<feColorMatrix in="SourceAlpha" type="matrix" values="0 0 0 0 0 0 0 0 0 0 0 0 0 0 0 0 0 0 127 0" result="hardAlpha"/>
<feOffset dy="2"/>
<feGaussianBlur stdDeviation="2"/>
<feComposite in2="hardAlpha" operator="out"/>
<feColorMatrix type="matrix" values="0 0 0 0 0 0 0 0 0 0 0 0 0 0 0 0 0 0 0.25 0"/>
<feBlend mode="normal" in2="effect1_dropShadow_10_5736" result="effect2_dropShadow_10_5736"/>
<feBlend mode="normal" in="SourceGraphic" in2="effect2_dropShadow_10_5736" result="shape"/>
</filter>
<filter id="filter17_dd_10_5736" x="-385.898" y="2621.36" width="2120.97" height="638.173" filterUnits="userSpaceOnUse" color-interpolation-filters="sRGB">
<feFlood flood-opacity="0" result="BackgroundImageFix"/>
<feColorMatrix in="SourceAlpha" type="matrix" values="0 0 0 0 0 0 0 0 0 0 0 0 0 0 0 0 0 0 127 0" result="hardAlpha"/>
<feMorphology radius="32" operator="dilate" in="SourceAlpha" result="effect1_dropShadow_10_5736"/>
<feOffset dy="4"/>
<feGaussianBlur stdDeviation="8.35"/>
<feComposite in2="hardAlpha" operator="out"/>
<feColorMatrix type="matrix" values="0 0 0 0 1 0 0 0 0 0.678431 0 0 0 0 0.254902 0 0 0 1 0"/>
<feBlend mode="normal" in2="BackgroundImageFix" result="effect1_dropShadow_10_5736"/>
<feColorMatrix in="SourceAlpha" type="matrix" values="0 0 0 0 0 0 0 0 0 0 0 0 0 0 0 0 0 0 127 0" result="hardAlpha"/>
<feOffset dy="2"/>
<feGaussianBlur stdDeviation="2"/>
<feComposite in2="hardAlpha" operator="out"/>
<feColorMatrix type="matrix" values="0 0 0 0 0 0 0 0 0 0 0 0 0 0 0 0 0 0 0.25 0"/>
<feBlend mode="normal" in2="effect1_dropShadow_10_5736" result="effect2_dropShadow_10_5736"/>
<feBlend mode="normal" in="SourceGraphic" in2="effect2_dropShadow_10_5736" result="shape"/>
</filter>
<filter id="filter18_dd_10_5736" x="-388.125" y="2611.97" width="2120.97" height="638.173" filterUnits="userSpaceOnUse" color-interpolation-filters="sRGB">
<feFlood flood-opacity="0" result="BackgroundImageFix"/>
<feColorMatrix in="SourceAlpha" type="matrix" values="0 0 0 0 0 0 0 0 0 0 0 0 0 0 0 0 0 0 127 0" result="hardAlpha"/>
<feMorphology radius="32" operator="dilate" in="SourceAlpha" result="effect1_dropShadow_10_5736"/>
<feOffset dy="4"/>
<feGaussianBlur stdDeviation="8.35"/>
<feComposite in2="hardAlpha" operator="out"/>
<feColorMatrix type="matrix" values="0 0 0 0 1 0 0 0 0 0.678431 0 0 0 0 0.254902 0 0 0 1 0"/>
<feBlend mode="normal" in2="BackgroundImageFix" result="effect1_dropShadow_10_5736"/>
<feColorMatrix in="SourceAlpha" type="matrix" values="0 0 0 0 0 0 0 0 0 0 0 0 0 0 0 0 0 0 127 0" result="hardAlpha"/>
<feOffset dy="2"/>
<feGaussianBlur stdDeviation="2"/>
<feComposite in2="hardAlpha" operator="out"/>
<feColorMatrix type="matrix" values="0 0 0 0 0 0 0 0 0 0 0 0 0 0 0 0 0 0 0.25 0"/>
<feBlend mode="normal" in2="effect1_dropShadow_10_5736" result="effect2_dropShadow_10_5736"/>
<feBlend mode="normal" in="SourceGraphic" in2="effect2_dropShadow_10_5736" result="shape"/>
</filter>
<filter id="filter19_dd_10_5736" x="-390.63" y="2601.41" width="2120.97" height="638.173" filterUnits="userSpaceOnUse" color-interpolation-filters="sRGB">
<feFlood flood-opacity="0" result="BackgroundImageFix"/>
<feColorMatrix in="SourceAlpha" type="matrix" values="0 0 0 0 0 0 0 0 0 0 0 0 0 0 0 0 0 0 127 0" result="hardAlpha"/>
<feMorphology radius="32" operator="dilate" in="SourceAlpha" result="effect1_dropShadow_10_5736"/>
<feOffset dy="4"/>
<feGaussianBlur stdDeviation="8.35"/>
<feComposite in2="hardAlpha" operator="out"/>
<feColorMatrix type="matrix" values="0 0 0 0 1 0 0 0 0 0.678431 0 0 0 0 0.254902 0 0 0 1 0"/>
<feBlend mode="normal" in2="BackgroundImageFix" result="effect1_dropShadow_10_5736"/>
<feColorMatrix in="SourceAlpha" type="matrix" values="0 0 0 0 0 0 0 0 0 0 0 0 0 0 0 0 0 0 127 0" result="hardAlpha"/>
<feOffset dy="2"/>
<feGaussianBlur stdDeviation="2"/>
<feComposite in2="hardAlpha" operator="out"/>
<feColorMatrix type="matrix" values="0 0 0 0 0 0 0 0 0 0 0 0 0 0 0 0 0 0 0.25 0"/>
<feBlend mode="normal" in2="effect1_dropShadow_10_5736" result="effect2_dropShadow_10_5736"/>
<feBlend mode="normal" in="SourceGraphic" in2="effect2_dropShadow_10_5736" result="shape"/>
</filter>
<filter id="filter20_dd_10_5736" x="-392.856" y="2592.03" width="2120.97" height="638.173" filterUnits="userSpaceOnUse" color-interpolation-filters="sRGB">
<feFlood flood-opacity="0" result="BackgroundImageFix"/>
<feColorMatrix in="SourceAlpha" type="matrix" values="0 0 0 0 0 0 0 0 0 0 0 0 0 0 0 0 0 0 127 0" result="hardAlpha"/>
<feMorphology radius="32" operator="dilate" in="SourceAlpha" result="effect1_dropShadow_10_5736"/>
<feOffset dy="4"/>
<feGaussianBlur stdDeviation="8.35"/>
<feComposite in2="hardAlpha" operator="out"/>
<feColorMatrix type="matrix" values="0 0 0 0 1 0 0 0 0 0.678431 0 0 0 0 0.254902 0 0 0 1 0"/>
<feBlend mode="normal" in2="BackgroundImageFix" result="effect1_dropShadow_10_5736"/>
<feColorMatrix in="SourceAlpha" type="matrix" values="0 0 0 0 0 0 0 0 0 0 0 0 0 0 0 0 0 0 127 0" result="hardAlpha"/>
<feOffset dy="2"/>
<feGaussianBlur stdDeviation="2"/>
<feComposite in2="hardAlpha" operator="out"/>
<feColorMatrix type="matrix" values="0 0 0 0 0 0 0 0 0 0 0 0 0 0 0 0 0 0 0.25 0"/>
<feBlend mode="normal" in2="effect1_dropShadow_10_5736" result="effect2_dropShadow_10_5736"/>
<feBlend mode="normal" in="SourceGraphic" in2="effect2_dropShadow_10_5736" result="shape"/>
</filter>
<filter id="filter21_dd_10_5736" x="-395.083" y="2582.65" width="2120.97" height="638.173" filterUnits="userSpaceOnUse" color-interpolation-filters="sRGB">
<feFlood flood-opacity="0" result="BackgroundImageFix"/>
<feColorMatrix in="SourceAlpha" type="matrix" values="0 0 0 0 0 0 0 0 0 0 0 0 0 0 0 0 0 0 127 0" result="hardAlpha"/>
<feMorphology radius="32" operator="dilate" in="SourceAlpha" result="effect1_dropShadow_10_5736"/>
<feOffset dy="4"/>
<feGaussianBlur stdDeviation="8.35"/>
<feComposite in2="hardAlpha" operator="out"/>
<feColorMatrix type="matrix" values="0 0 0 0 1 0 0 0 0 0.678431 0 0 0 0 0.254902 0 0 0 1 0"/>
<feBlend mode="normal" in2="BackgroundImageFix" result="effect1_dropShadow_10_5736"/>
<feColorMatrix in="SourceAlpha" type="matrix" values="0 0 0 0 0 0 0 0 0 0 0 0 0 0 0 0 0 0 127 0" result="hardAlpha"/>
<feOffset dy="2"/>
<feGaussianBlur stdDeviation="2"/>
<feComposite in2="hardAlpha" operator="out"/>
<feColorMatrix type="matrix" values="0 0 0 0 0 0 0 0 0 0 0 0 0 0 0 0 0 0 0.25 0"/>
<feBlend mode="normal" in2="effect1_dropShadow_10_5736" result="effect2_dropShadow_10_5736"/>
<feBlend mode="normal" in="SourceGraphic" in2="effect2_dropShadow_10_5736" result="shape"/>
</filter>
<filter id="filter22_dd_10_5736" x="-399.814" y="2562.71" width="2120.97" height="638.173" filterUnits="userSpaceOnUse" color-interpolation-filters="sRGB">
<feFlood flood-opacity="0" result="BackgroundImageFix"/>
<feColorMatrix in="SourceAlpha" type="matrix" values="0 0 0 0 0 0 0 0 0 0 0 0 0 0 0 0 0 0 127 0" result="hardAlpha"/>
<feMorphology radius="32" operator="dilate" in="SourceAlpha" result="effect1_dropShadow_10_5736"/>
<feOffset dy="4"/>
<feGaussianBlur stdDeviation="8.35"/>
<feComposite in2="hardAlpha" operator="out"/>
<feColorMatrix type="matrix" values="0 0 0 0 1 0 0 0 0 0.678431 0 0 0 0 0.254902 0 0 0 1 0"/>
<feBlend mode="normal" in2="BackgroundImageFix" result="effect1_dropShadow_10_5736"/>
<feColorMatrix in="SourceAlpha" type="matrix" values="0 0 0 0 0 0 0 0 0 0 0 0 0 0 0 0 0 0 127 0" result="hardAlpha"/>
<feOffset dy="2"/>
<feGaussianBlur stdDeviation="2"/>
<feComposite in2="hardAlpha" operator="out"/>
<feColorMatrix type="matrix" values="0 0 0 0 0 0 0 0 0 0 0 0 0 0 0 0 0 0 0.25 0"/>
<feBlend mode="normal" in2="effect1_dropShadow_10_5736" result="effect2_dropShadow_10_5736"/>
<feBlend mode="normal" in="SourceGraphic" in2="effect2_dropShadow_10_5736" result="shape"/>
</filter>
<filter id="filter23_dd_10_5736" x="-427.028" y="2448.02" width="2120.97" height="638.173" filterUnits="userSpaceOnUse" color-interpolation-filters="sRGB">
<feFlood flood-opacity="0" result="BackgroundImageFix"/>
<feColorMatrix in="SourceAlpha" type="matrix" values="0 0 0 0 0 0 0 0 0 0 0 0 0 0 0 0 0 0 127 0" result="hardAlpha"/>
<feMorphology radius="32" operator="dilate" in="SourceAlpha" result="effect1_dropShadow_10_5736"/>
<feOffset dy="4"/>
<feGaussianBlur stdDeviation="8.35"/>
<feComposite in2="hardAlpha" operator="out"/>
<feColorMatrix type="matrix" values="0 0 0 0 1 0 0 0 0 0.678431 0 0 0 0 0.254902 0 0 0 1 0"/>
<feBlend mode="normal" in2="BackgroundImageFix" result="effect1_dropShadow_10_5736"/>
<feColorMatrix in="SourceAlpha" type="matrix" values="0 0 0 0 0 0 0 0 0 0 0 0 0 0 0 0 0 0 127 0" result="hardAlpha"/>
<feOffset dy="2"/>
<feGaussianBlur stdDeviation="2"/>
<feComposite in2="hardAlpha" operator="out"/>
<feColorMatrix type="matrix" values="0 0 0 0 0 0 0 0 0 0 0 0 0 0 0 0 0 0 0.25 0"/>
<feBlend mode="normal" in2="effect1_dropShadow_10_5736" result="effect2_dropShadow_10_5736"/>
<feBlend mode="normal" in="SourceGraphic" in2="effect2_dropShadow_10_5736" result="shape"/>
</filter>
<filter id="filter24_dd_10_5736" x="-403.927" y="2545.37" width="2120.97" height="638.173" filterUnits="userSpaceOnUse" color-interpolation-filters="sRGB">
<feFlood flood-opacity="0" result="BackgroundImageFix"/>
<feColorMatrix in="SourceAlpha" type="matrix" values="0 0 0 0 0 0 0 0 0 0 0 0 0 0 0 0 0 0 127 0" result="hardAlpha"/>
<feMorphology radius="32" operator="dilate" in="SourceAlpha" result="effect1_dropShadow_10_5736"/>
<feOffset dy="4"/>
<feGaussianBlur stdDeviation="8.35"/>
<feComposite in2="hardAlpha" operator="out"/>
<feColorMatrix type="matrix" values="0 0 0 0 1 0 0 0 0 0.678431 0 0 0 0 0.254902 0 0 0 1 0"/>
<feBlend mode="normal" in2="BackgroundImageFix" result="effect1_dropShadow_10_5736"/>
<feColorMatrix in="SourceAlpha" type="matrix" values="0 0 0 0 0 0 0 0 0 0 0 0 0 0 0 0 0 0 127 0" result="hardAlpha"/>
<feOffset dy="2"/>
<feGaussianBlur stdDeviation="2"/>
<feComposite in2="hardAlpha" operator="out"/>
<feColorMatrix type="matrix" values="0 0 0 0 0 0 0 0 0 0 0 0 0 0 0 0 0 0 0.25 0"/>
<feBlend mode="normal" in2="effect1_dropShadow_10_5736" result="effect2_dropShadow_10_5736"/>
<feBlend mode="normal" in="SourceGraphic" in2="effect2_dropShadow_10_5736" result="shape"/>
</filter>
<filter id="filter25_dd_10_5736" x="-401.7" y="2554.76" width="2120.97" height="638.173" filterUnits="userSpaceOnUse" color-interpolation-filters="sRGB">
<feFlood flood-opacity="0" result="BackgroundImageFix"/>
<feColorMatrix in="SourceAlpha" type="matrix" values="0 0 0 0 0 0 0 0 0 0 0 0 0 0 0 0 0 0 127 0" result="hardAlpha"/>
<feMorphology radius="32" operator="dilate" in="SourceAlpha" result="effect1_dropShadow_10_5736"/>
<feOffset dy="4"/>
<feGaussianBlur stdDeviation="8.35"/>
<feComposite in2="hardAlpha" operator="out"/>
<feColorMatrix type="matrix" values="0 0 0 0 1 0 0 0 0 0.678431 0 0 0 0 0.254902 0 0 0 1 0"/>
<feBlend mode="normal" in2="BackgroundImageFix" result="effect1_dropShadow_10_5736"/>
<feColorMatrix in="SourceAlpha" type="matrix" values="0 0 0 0 0 0 0 0 0 0 0 0 0 0 0 0 0 0 127 0" result="hardAlpha"/>
<feOffset dy="2"/>
<feGaussianBlur stdDeviation="2"/>
<feComposite in2="hardAlpha" operator="out"/>
<feColorMatrix type="matrix" values="0 0 0 0 0 0 0 0 0 0 0 0 0 0 0 0 0 0 0.25 0"/>
<feBlend mode="normal" in2="effect1_dropShadow_10_5736" result="effect2_dropShadow_10_5736"/>
<feBlend mode="normal" in="SourceGraphic" in2="effect2_dropShadow_10_5736" result="shape"/>
</filter>
<filter id="filter26_dd_10_5736" x="-406.988" y="2532.47" width="2120.97" height="638.173" filterUnits="userSpaceOnUse" color-interpolation-filters="sRGB">
<feFlood flood-opacity="0" result="BackgroundImageFix"/>
<feColorMatrix in="SourceAlpha" type="matrix" values="0 0 0 0 0 0 0 0 0 0 0 0 0 0 0 0 0 0 127 0" result="hardAlpha"/>
<feMorphology radius="32" operator="dilate" in="SourceAlpha" result="effect1_dropShadow_10_5736"/>
<feOffset dy="4"/>
<feGaussianBlur stdDeviation="8.35"/>
<feComposite in2="hardAlpha" operator="out"/>
<feColorMatrix type="matrix" values="0 0 0 0 1 0 0 0 0 0.678431 0 0 0 0 0.254902 0 0 0 1 0"/>
<feBlend mode="normal" in2="BackgroundImageFix" result="effect1_dropShadow_10_5736"/>
<feColorMatrix in="SourceAlpha" type="matrix" values="0 0 0 0 0 0 0 0 0 0 0 0 0 0 0 0 0 0 127 0" result="hardAlpha"/>
<feOffset dy="2"/>
<feGaussianBlur stdDeviation="2"/>
<feComposite in2="hardAlpha" operator="out"/>
<feColorMatrix type="matrix" values="0 0 0 0 0 0 0 0 0 0 0 0 0 0 0 0 0 0 0.25 0"/>
<feBlend mode="normal" in2="effect1_dropShadow_10_5736" result="effect2_dropShadow_10_5736"/>
<feBlend mode="normal" in="SourceGraphic" in2="effect2_dropShadow_10_5736" result="shape"/>
</filter>
<filter id="filter27_dd_10_5736" x="-409.772" y="2520.74" width="2120.97" height="638.173" filterUnits="userSpaceOnUse" color-interpolation-filters="sRGB">
<feFlood flood-opacity="0" result="BackgroundImageFix"/>
<feColorMatrix in="SourceAlpha" type="matrix" values="0 0 0 0 0 0 0 0 0 0 0 0 0 0 0 0 0 0 127 0" result="hardAlpha"/>
<feMorphology radius="32" operator="dilate" in="SourceAlpha" result="effect1_dropShadow_10_5736"/>
<feOffset dy="4"/>
<feGaussianBlur stdDeviation="8.35"/>
<feComposite in2="hardAlpha" operator="out"/>
<feColorMatrix type="matrix" values="0 0 0 0 1 0 0 0 0 0.678431 0 0 0 0 0.254902 0 0 0 1 0"/>
<feBlend mode="normal" in2="BackgroundImageFix" result="effect1_dropShadow_10_5736"/>
<feColorMatrix in="SourceAlpha" type="matrix" values="0 0 0 0 0 0 0 0 0 0 0 0 0 0 0 0 0 0 127 0" result="hardAlpha"/>
<feOffset dy="2"/>
<feGaussianBlur stdDeviation="2"/>
<feComposite in2="hardAlpha" operator="out"/>
<feColorMatrix type="matrix" values="0 0 0 0 0 0 0 0 0 0 0 0 0 0 0 0 0 0 0.25 0"/>
<feBlend mode="normal" in2="effect1_dropShadow_10_5736" result="effect2_dropShadow_10_5736"/>
<feBlend mode="normal" in="SourceGraphic" in2="effect2_dropShadow_10_5736" result="shape"/>
</filter>
<filter id="filter28_dd_10_5736" x="-412.555" y="2509.01" width="2120.97" height="638.173" filterUnits="userSpaceOnUse" color-interpolation-filters="sRGB">
<feFlood flood-opacity="0" result="BackgroundImageFix"/>
<feColorMatrix in="SourceAlpha" type="matrix" values="0 0 0 0 0 0 0 0 0 0 0 0 0 0 0 0 0 0 127 0" result="hardAlpha"/>
<feMorphology radius="32" operator="dilate" in="SourceAlpha" result="effect1_dropShadow_10_5736"/>
<feOffset dy="4"/>
<feGaussianBlur stdDeviation="8.35"/>
<feComposite in2="hardAlpha" operator="out"/>
<feColorMatrix type="matrix" values="0 0 0 0 1 0 0 0 0 0.678431 0 0 0 0 0.254902 0 0 0 1 0"/>
<feBlend mode="normal" in2="BackgroundImageFix" result="effect1_dropShadow_10_5736"/>
<feColorMatrix in="SourceAlpha" type="matrix" values="0 0 0 0 0 0 0 0 0 0 0 0 0 0 0 0 0 0 127 0" result="hardAlpha"/>
<feOffset dy="2"/>
<feGaussianBlur stdDeviation="2"/>
<feComposite in2="hardAlpha" operator="out"/>
<feColorMatrix type="matrix" values="0 0 0 0 0 0 0 0 0 0 0 0 0 0 0 0 0 0 0.25 0"/>
<feBlend mode="normal" in2="effect1_dropShadow_10_5736" result="effect2_dropShadow_10_5736"/>
<feBlend mode="normal" in="SourceGraphic" in2="effect2_dropShadow_10_5736" result="shape"/>
</filter>
<filter id="filter29_dd_10_5736" x="-415.338" y="2497.28" width="2120.97" height="638.173" filterUnits="userSpaceOnUse" color-interpolation-filters="sRGB">
<feFlood flood-opacity="0" result="BackgroundImageFix"/>
<feColorMatrix in="SourceAlpha" type="matrix" values="0 0 0 0 0 0 0 0 0 0 0 0 0 0 0 0 0 0 127 0" result="hardAlpha"/>
<feMorphology radius="32" operator="dilate" in="SourceAlpha" result="effect1_dropShadow_10_5736"/>
<feOffset dy="4"/>
<feGaussianBlur stdDeviation="8.35"/>
<feComposite in2="hardAlpha" operator="out"/>
<feColorMatrix type="matrix" values="0 0 0 0 1 0 0 0 0 0.678431 0 0 0 0 0.254902 0 0 0 1 0"/>
<feBlend mode="normal" in2="BackgroundImageFix" result="effect1_dropShadow_10_5736"/>
<feColorMatrix in="SourceAlpha" type="matrix" values="0 0 0 0 0 0 0 0 0 0 0 0 0 0 0 0 0 0 127 0" result="hardAlpha"/>
<feOffset dy="2"/>
<feGaussianBlur stdDeviation="2"/>
<feComposite in2="hardAlpha" operator="out"/>
<feColorMatrix type="matrix" values="0 0 0 0 0 0 0 0 0 0 0 0 0 0 0 0 0 0 0.25 0"/>
<feBlend mode="normal" in2="effect1_dropShadow_10_5736" result="effect2_dropShadow_10_5736"/>
<feBlend mode="normal" in="SourceGraphic" in2="effect2_dropShadow_10_5736" result="shape"/>
</filter>
<filter id="filter30_dd_10_5736" x="-418.4" y="2484.38" width="2120.97" height="638.173" filterUnits="userSpaceOnUse" color-interpolation-filters="sRGB">
<feFlood flood-opacity="0" result="BackgroundImageFix"/>
<feColorMatrix in="SourceAlpha" type="matrix" values="0 0 0 0 0 0 0 0 0 0 0 0 0 0 0 0 0 0 127 0" result="hardAlpha"/>
<feMorphology radius="32" operator="dilate" in="SourceAlpha" result="effect1_dropShadow_10_5736"/>
<feOffset dy="4"/>
<feGaussianBlur stdDeviation="8.35"/>
<feComposite in2="hardAlpha" operator="out"/>
<feColorMatrix type="matrix" values="0 0 0 0 1 0 0 0 0 0.678431 0 0 0 0 0.254902 0 0 0 1 0"/>
<feBlend mode="normal" in2="BackgroundImageFix" result="effect1_dropShadow_10_5736"/>
<feColorMatrix in="SourceAlpha" type="matrix" values="0 0 0 0 0 0 0 0 0 0 0 0 0 0 0 0 0 0 127 0" result="hardAlpha"/>
<feOffset dy="2"/>
<feGaussianBlur stdDeviation="2"/>
<feComposite in2="hardAlpha" operator="out"/>
<feColorMatrix type="matrix" values="0 0 0 0 0 0 0 0 0 0 0 0 0 0 0 0 0 0 0.25 0"/>
<feBlend mode="normal" in2="effect1_dropShadow_10_5736" result="effect2_dropShadow_10_5736"/>
<feBlend mode="normal" in="SourceGraphic" in2="effect2_dropShadow_10_5736" result="shape"/>
</filter>
<filter id="filter31_dd_10_5736" x="-421.74" y="2470.3" width="2120.97" height="638.173" filterUnits="userSpaceOnUse" color-interpolation-filters="sRGB">
<feFlood flood-opacity="0" result="BackgroundImageFix"/>
<feColorMatrix in="SourceAlpha" type="matrix" values="0 0 0 0 0 0 0 0 0 0 0 0 0 0 0 0 0 0 127 0" result="hardAlpha"/>
<feMorphology radius="32" operator="dilate" in="SourceAlpha" result="effect1_dropShadow_10_5736"/>
<feOffset dy="4"/>
<feGaussianBlur stdDeviation="8.35"/>
<feComposite in2="hardAlpha" operator="out"/>
<feColorMatrix type="matrix" values="0 0 0 0 1 0 0 0 0 0.678431 0 0 0 0 0.254902 0 0 0 1 0"/>
<feBlend mode="normal" in2="BackgroundImageFix" result="effect1_dropShadow_10_5736"/>
<feColorMatrix in="SourceAlpha" type="matrix" values="0 0 0 0 0 0 0 0 0 0 0 0 0 0 0 0 0 0 127 0" result="hardAlpha"/>
<feOffset dy="2"/>
<feGaussianBlur stdDeviation="2"/>
<feComposite in2="hardAlpha" operator="out"/>
<feColorMatrix type="matrix" values="0 0 0 0 0 0 0 0 0 0 0 0 0 0 0 0 0 0 0.25 0"/>
<feBlend mode="normal" in2="effect1_dropShadow_10_5736" result="effect2_dropShadow_10_5736"/>
<feBlend mode="normal" in="SourceGraphic" in2="effect2_dropShadow_10_5736" result="shape"/>
</filter>
<filter id="filter32_dd_10_5736" x="-425.08" y="2456.23" width="2120.97" height="638.173" filterUnits="userSpaceOnUse" color-interpolation-filters="sRGB">
<feFlood flood-opacity="0" result="BackgroundImageFix"/>
<feColorMatrix in="SourceAlpha" type="matrix" values="0 0 0 0 0 0 0 0 0 0 0 0 0 0 0 0 0 0 127 0" result="hardAlpha"/>
<feMorphology radius="32" operator="dilate" in="SourceAlpha" result="effect1_dropShadow_10_5736"/>
<feOffset dy="4"/>
<feGaussianBlur stdDeviation="8.35"/>
<feComposite in2="hardAlpha" operator="out"/>
<feColorMatrix type="matrix" values="0 0 0 0 1 0 0 0 0 0.678431 0 0 0 0 0.254902 0 0 0 1 0"/>
<feBlend mode="normal" in2="BackgroundImageFix" result="effect1_dropShadow_10_5736"/>
<feColorMatrix in="SourceAlpha" type="matrix" values="0 0 0 0 0 0 0 0 0 0 0 0 0 0 0 0 0 0 127 0" result="hardAlpha"/>
<feOffset dy="2"/>
<feGaussianBlur stdDeviation="2"/>
<feComposite in2="hardAlpha" operator="out"/>
<feColorMatrix type="matrix" values="0 0 0 0 0 0 0 0 0 0 0 0 0 0 0 0 0 0 0.25 0"/>
<feBlend mode="normal" in2="effect1_dropShadow_10_5736" result="effect2_dropShadow_10_5736"/>
<feBlend mode="normal" in="SourceGraphic" in2="effect2_dropShadow_10_5736" result="shape"/>
</filter>
<clipPath id="clip0_10_5736">
<rect width="1440" height="5196" fill="white"/>
</clipPath>
<clipPath id="clip1_10_5736">
<rect width="1780.77" height="478.743" fill="white" transform="translate(1585.36 2961.44) rotate(166.463)"/>
</clipPath>
</defs>
</svg>
