<svg width="148" height="645" viewBox="0 0 148 645" fill="none" xmlns="http://www.w3.org/2000/svg">
<g clip-path="url(#clip0_13_7436)">
<path d="M57.0127 594.536C57.2072 594.359 57.5287 594.099 57.8303 594.131L57.5247 595.142L113.376 578.74L82.7434 604.967L92.7491 644.561C92.7253 644.561 92.8523 644.766 92.3403 644.762C91.6418 644.215 90.852 643.589 90.0939 643.14L91.3203 643.038C90.8202 641.747 89.6653 640.912 88.8715 639.798C79.6953 626.951 70.4595 614.43 61.1007 601.724C60.0648 600.314 59.1758 597.874 57.8343 596.662C57.5327 596.39 57.3104 595.926 56.8143 596.256L56.6119 600.507V596.256C56.2547 595.922 56.215 596.374 56.2031 596.359C55.8697 595.906 56.3221 595.819 56.0999 595.752C54.806 595.343 33.842 604.396 30.6748 605.069L0.447266 578.74C19.3434 583.657 37.938 589.903 56.7071 595.142C56.8024 595.115 56.8897 594.646 57.0127 594.536Z" fill="#F2F2F2"/>
<path d="M57.2151 539.653L57.0127 594.535C56.8896 594.65 56.8023 595.118 56.7071 595.142C37.9379 589.906 19.3434 583.656 0.447211 578.739L0.141602 578.334L40.9821 574.89L56.9095 539.047L57.2151 539.653Z" fill="white"/>
<path d="M56.1948 596.359L22.296 643.038L22.9073 643.546C22.4548 643.809 21.7602 644.447 21.2721 644.762C21.1331 644.762 20.9942 644.762 20.8633 644.762L30.6666 605.069C33.8338 604.396 54.7978 595.347 56.0916 595.752C56.3099 595.823 55.8614 595.906 56.1948 596.359Z" fill="#F2F2F2"/>
<path d="M113.372 578.739L57.5254 595.145L57.831 594.134L72.532 574.894L113.476 578.334L113.372 578.739Z" fill="white"/>
<path d="M72.5313 574.894L57.8303 594.134C57.5287 594.099 57.2072 594.362 57.0127 594.54L57.2151 539.657L72.5313 574.894Z" fill="#F2F2F2"/>
<path d="M90.0944 643.143C79.1004 636.668 67.7095 630.783 56.7076 624.308C45.6501 631.067 34.0965 637.014 22.912 643.548L22.3008 643.041L56.1996 596.361C56.1996 596.361 56.2512 595.924 56.6084 596.259V600.51L56.8108 596.259C57.3069 595.928 57.5331 596.393 57.8308 596.664C59.1723 597.877 60.0614 600.321 61.0973 601.726C70.456 614.432 79.6918 626.949 88.868 639.801C89.6618 640.915 90.8167 641.75 91.3168 643.041L90.0904 643.143H90.0944Z" fill="#E6E6E6"/>
</g>
<g clip-path="url(#clip1_13_7436)">
<path d="M119.864 343.281C119.958 343.198 120.115 343.076 120.262 343.091L120.113 343.565L147.335 335.881L132.405 348.167L137.281 366.716C137.27 366.716 137.332 366.812 137.082 366.81C136.742 366.554 136.357 366.26 135.987 366.05L136.585 366.002C136.341 365.397 135.778 365.007 135.391 364.485C130.919 358.466 126.418 352.6 121.856 346.648C121.351 345.988 120.918 344.844 120.264 344.277C120.117 344.149 120.009 343.932 119.767 344.087L119.668 346.078V344.087C119.494 343.93 119.475 344.142 119.469 344.135C119.307 343.922 119.527 343.882 119.419 343.851C118.788 343.659 108.57 347.9 107.027 348.215L92.2939 335.881C101.504 338.184 110.567 341.11 119.715 343.565C119.761 343.552 119.804 343.332 119.864 343.281Z" fill="#F2F2F2"/>
<path d="M119.962 317.57L119.863 343.281C119.803 343.334 119.761 343.554 119.714 343.565C110.566 341.112 101.503 338.184 92.2935 335.881L92.1445 335.691L112.05 334.077L119.813 317.286L119.962 317.57Z" fill="white"/>
<path d="M119.465 344.134L102.942 366.002L103.24 366.24C103.02 366.363 102.681 366.662 102.443 366.809C102.376 366.809 102.308 366.809 102.244 366.809L107.022 348.215C108.566 347.899 118.784 343.66 119.414 343.85C119.521 343.883 119.302 343.922 119.465 344.134Z" fill="#F2F2F2"/>
<path d="M147.332 335.882L120.112 343.567L120.261 343.093L127.426 334.08L147.382 335.692L147.332 335.882Z" fill="white"/>
<path d="M127.427 334.08L120.262 343.093C120.115 343.076 119.958 343.2 119.863 343.283L119.962 317.572L127.427 334.08Z" fill="#F2F2F2"/>
<path d="M135.986 366.052C130.628 363.019 125.076 360.262 119.714 357.229C114.324 360.395 108.693 363.181 103.242 366.242L102.944 366.004L119.466 344.136C119.466 344.136 119.491 343.932 119.666 344.088V346.08L119.764 344.088C120.006 343.933 120.116 344.151 120.261 344.278C120.915 344.846 121.348 345.991 121.853 346.65C126.415 352.602 130.916 358.466 135.389 364.487C135.776 365.008 136.338 365.399 136.582 366.004L135.984 366.052H135.986Z" fill="#E6E6E6"/>
</g>
<g clip-path="url(#clip2_13_7436)">
<path d="M17.6833 201.307C17.7437 201.251 17.8437 201.169 17.9375 201.179L17.8425 201.498L35.2079 196.326L25.6836 204.596L28.7946 217.081C28.7872 217.081 28.8267 217.145 28.6675 217.144C28.4503 216.971 28.2047 216.774 27.969 216.632L28.3503 216.6C28.1949 216.193 27.8358 215.93 27.5889 215.579C24.7358 211.528 21.8642 207.58 18.9543 203.573C18.6323 203.129 18.3558 202.359 17.9387 201.977C17.8449 201.891 17.7758 201.745 17.6216 201.849L17.5586 203.19V201.849C17.4476 201.744 17.4352 201.886 17.4315 201.882C17.3279 201.739 17.4686 201.711 17.3995 201.69C16.9972 201.561 10.4789 204.416 9.49417 204.628L0.0957031 196.326C5.97098 197.876 11.7525 199.846 17.5883 201.498C17.6179 201.489 17.645 201.342 17.6833 201.307Z" fill="#F2F2F2"/>
<path d="M17.7455 184.002L17.6826 201.307C17.6443 201.343 17.6172 201.491 17.5876 201.498C11.7518 199.847 5.9703 197.876 0.0950213 196.326L0 196.198L12.6983 195.112L17.6505 183.811L17.7455 184.002Z" fill="white"/>
<path d="M17.4278 201.882L6.88787 216.601L7.07792 216.761C6.93723 216.844 6.72128 217.045 6.56949 217.144C6.5263 217.144 6.48311 217.144 6.44238 217.144L9.49047 204.628C10.4752 204.416 16.9934 201.563 17.3957 201.691C17.4636 201.713 17.3242 201.739 17.4278 201.882Z" fill="#F2F2F2"/>
<path d="M35.206 196.326L17.8418 201.499L17.9368 201.18L22.5077 195.113L35.2381 196.198L35.206 196.326Z" fill="white"/>
<path d="M22.5077 195.114L17.9368 201.18C17.843 201.169 17.7431 201.252 17.6826 201.308L17.7456 184.003L22.5077 195.114Z" fill="#F2F2F2"/>
<path d="M27.9683 216.634C24.55 214.592 21.0083 212.736 17.5876 210.695C14.1495 212.826 10.5572 214.701 7.07969 216.761L6.88965 216.601L17.4296 201.883C17.4296 201.883 17.4457 201.745 17.5567 201.85V203.191L17.6197 201.85C17.7739 201.746 17.8442 201.893 17.9368 201.978C18.3539 202.36 18.6303 203.131 18.9524 203.574C21.8623 207.581 24.7339 211.527 27.587 215.58C27.8338 215.931 28.1929 216.194 28.3484 216.601L27.9671 216.634H27.9683Z" fill="#E6E6E6"/>
</g>
<line x1="119.287" y1="318.096" x2="119.287" y2="0.000450361" stroke="white" stroke-width="0.952381"/>
<line x1="55.8578" y1="541.439" x2="52.9391" y2="0.00250693" stroke="white" stroke-width="0.952381"/>
<line x1="17.6185" y1="184.315" x2="16.6357" y2="0.00252516" stroke="white" stroke-width="0.952381"/>
<defs>
<clipPath id="clip0_13_7436">
<rect width="113.333" height="105.714" fill="white" transform="translate(0.143555 539.048)"/>
</clipPath>
<clipPath id="clip1_13_7436">
<rect width="55.2381" height="49.5238" fill="white" transform="translate(92.1436 317.287)"/>
</clipPath>
<clipPath id="clip2_13_7436">
<rect width="35.2381" height="33.3333" fill="white" transform="translate(0 183.811)"/>
</clipPath>
</defs>
</svg>
