<svg width="175" height="606" viewBox="0 0 175 606" fill="none" xmlns="http://www.w3.org/2000/svg">
<g clip-path="url(#clip0_13_7407)">
<path d="M49.2247 383.183C49.393 383.033 49.6713 382.813 49.9323 382.84L49.6678 383.697L98.0095 369.807L71.4958 392.017L80.1562 425.547C80.1356 425.547 80.2455 425.72 79.8023 425.717C79.1977 425.254 78.5141 424.724 77.858 424.344L78.9195 424.257C78.4866 423.164 77.4869 422.457 76.7999 421.514C68.8574 410.634 60.8635 400.03 52.763 389.27C51.8664 388.077 51.0969 386.01 49.9358 384.983C49.6747 384.753 49.4823 384.36 49.0529 384.64L48.8777 388.24V384.64C48.5685 384.357 48.5342 384.74 48.5239 384.727C48.2353 384.343 48.6269 384.27 48.4345 384.213C47.3146 383.867 29.1693 391.533 26.428 392.103L0.264648 369.807C16.6202 373.97 32.7146 379.26 48.9601 383.697C49.0426 383.673 49.1182 383.277 49.2247 383.183Z" fill="#F2F2F2"/>
<path d="M49.3999 336.707L49.2247 383.184C49.1182 383.28 49.0426 383.677 48.9601 383.697C32.7146 379.264 16.6201 373.97 0.264641 369.807L0.00012207 369.464L35.3494 366.547L49.1353 336.193L49.3999 336.707Z" fill="white"/>
<path d="M48.5178 384.727L19.1769 424.257L19.7059 424.687C19.3143 424.91 18.7131 425.45 18.2905 425.717C18.1703 425.717 18.0501 425.717 17.9367 425.717L26.4219 392.103C29.1633 391.533 47.3086 383.87 48.4285 384.213C48.6174 384.273 48.2293 384.343 48.5178 384.727Z" fill="#F2F2F2"/>
<path d="M98.0063 369.807L49.6681 383.701L49.9326 382.844L62.657 366.551L98.0956 369.464L98.0063 369.807Z" fill="white"/>
<path d="M62.657 366.55L49.9326 382.844C49.6715 382.814 49.3932 383.037 49.2249 383.187L49.4001 336.71L62.657 366.55Z" fill="#F2F2F2"/>
<path d="M77.8583 424.347C68.3425 418.864 58.4832 413.881 48.9605 408.397C39.3897 414.121 29.3895 419.157 19.7088 424.691L19.1798 424.261L48.5208 384.731C48.5208 384.731 48.5654 384.361 48.8746 384.644V388.244L49.0498 384.644C49.4792 384.364 49.675 384.757 49.9327 384.987C51.0938 386.014 51.8633 388.084 52.76 389.274C60.8604 400.034 68.8544 410.634 76.7968 421.517C77.4839 422.461 78.4835 423.167 78.9164 424.261L77.8549 424.347H77.8583Z" fill="#E6E6E6"/>
</g>
<line x1="49.0472" y1="337.143" x2="49.0472" y2="-0.000284331" stroke="white" stroke-width="0.952381"/>
<g clip-path="url(#clip1_13_7407)">
<path d="M125.349 578.565C125.456 578.469 125.631 578.329 125.796 578.346L125.629 578.892L156.136 570.026L139.404 584.203L144.869 605.605C144.856 605.605 144.926 605.716 144.646 605.714C144.264 605.418 143.833 605.08 143.419 604.837L144.089 604.782C143.816 604.084 143.185 603.633 142.751 603.031C137.739 596.086 132.694 589.318 127.582 582.45C127.017 581.688 126.531 580.369 125.798 579.714C125.633 579.567 125.512 579.316 125.241 579.495L125.13 581.792V579.495C124.935 579.314 124.914 579.558 124.907 579.55C124.725 579.305 124.972 579.258 124.851 579.222C124.144 579.001 112.693 583.895 110.963 584.258L94.4523 570.026C104.774 572.684 114.93 576.06 125.183 578.892C125.235 578.877 125.282 578.624 125.349 578.565Z" fill="#F2F2F2"/>
<path d="M125.461 548.899L125.35 578.565C125.283 578.627 125.235 578.88 125.183 578.893C114.931 576.063 104.774 572.684 94.4531 570.027L94.2861 569.808L116.594 567.946L125.294 548.571L125.461 548.899Z" fill="white"/>
<path d="M124.903 579.551L106.387 604.783L106.721 605.057C106.474 605.2 106.095 605.544 105.828 605.715C105.752 605.715 105.676 605.715 105.605 605.715L110.959 584.259C112.689 583.895 124.14 579.004 124.847 579.223C124.966 579.261 124.721 579.306 124.903 579.551Z" fill="#F2F2F2"/>
<path d="M156.135 570.027L125.63 578.895L125.797 578.348L133.827 567.948L156.191 569.808L156.135 570.027Z" fill="white"/>
<path d="M133.827 567.948L125.797 578.348C125.632 578.329 125.457 578.472 125.35 578.567L125.461 548.901L133.827 567.948Z" fill="#F2F2F2"/>
<path d="M143.421 604.84C137.416 601.34 131.194 598.159 125.184 594.659C119.144 598.312 112.834 601.527 106.724 605.059L106.391 604.784L124.907 579.552C124.907 579.552 124.935 579.316 125.13 579.497V581.795L125.241 579.497C125.512 579.318 125.635 579.569 125.798 579.716C126.531 580.371 127.016 581.693 127.582 582.452C132.694 589.32 137.739 596.086 142.751 603.033C143.184 603.635 143.815 604.086 144.088 604.784L143.419 604.84H143.421Z" fill="#E6E6E6"/>
</g>
<line x1="125.239" y1="549.524" x2="125.239" y2="0.000610372" stroke="white" stroke-width="0.952381"/>
<line x1="155.62" y1="150.477" x2="155.62" y2="0.000381491" stroke="white" stroke-width="0.952381"/>
<g clip-path="url(#clip2_13_7407)">
<path d="M156.161 165.567C156.223 165.513 156.326 165.433 156.422 165.443L156.325 165.753L174.16 160.729L164.378 168.762L167.573 180.89C167.565 180.89 167.606 180.953 167.442 180.951C167.219 180.784 166.967 180.592 166.725 180.455L167.117 180.423C166.957 180.028 166.588 179.772 166.335 179.431C163.405 175.496 160.455 171.66 157.467 167.768C157.136 167.337 156.852 166.589 156.424 166.218C156.327 166.135 156.256 165.993 156.098 166.094L156.033 167.396V166.094C155.919 165.991 155.907 166.13 155.903 166.125C155.796 165.986 155.941 165.96 155.87 165.939C155.457 165.814 148.762 168.587 147.751 168.793L138.098 160.729C144.133 162.234 150.07 164.148 156.064 165.753C156.094 165.744 156.122 165.601 156.161 165.567Z" fill="#F2F2F2"/>
<path d="M156.226 148.757L156.161 165.568C156.122 165.603 156.094 165.746 156.064 165.753C150.07 164.15 144.132 162.235 138.098 160.729L138.001 160.605L151.042 159.55L156.128 148.571L156.226 148.757Z" fill="white"/>
<path d="M155.9 166.125L145.076 180.423L145.271 180.579C145.126 180.66 144.904 180.855 144.749 180.952C144.704 180.952 144.66 180.952 144.618 180.952L147.748 168.793C148.76 168.587 155.454 165.815 155.867 165.94C155.937 165.961 155.794 165.987 155.9 166.125Z" fill="#F2F2F2"/>
<path d="M174.159 160.729L156.325 165.754L156.423 165.444L161.117 159.551L174.191 160.605L174.159 160.729Z" fill="white"/>
<path d="M161.116 159.551L156.422 165.444C156.326 165.434 156.223 165.514 156.161 165.569L156.226 148.758L161.116 159.551Z" fill="#F2F2F2"/>
<path d="M166.725 180.456C163.215 178.473 159.577 176.67 156.064 174.687C152.533 176.757 148.844 178.579 145.272 180.58L145.077 180.425L155.902 166.127C155.902 166.127 155.918 165.993 156.032 166.095V167.397L156.097 166.095C156.255 165.994 156.328 166.136 156.423 166.219C156.851 166.591 157.135 167.34 157.466 167.77C160.454 171.662 163.403 175.496 166.334 179.433C166.587 179.774 166.956 180.029 167.116 180.425L166.724 180.456H166.725Z" fill="#E6E6E6"/>
</g>
<defs>
<clipPath id="clip0_13_7407">
<rect width="98.0952" height="89.5238" fill="white" transform="translate(0 336.191)"/>
</clipPath>
<clipPath id="clip1_13_7407">
<rect width="61.9048" height="57.1429" fill="white" transform="translate(94.2861 548.572)"/>
</clipPath>
<clipPath id="clip2_13_7407">
<rect width="36.1905" height="32.381" fill="white" transform="translate(138 148.57)"/>
</clipPath>
</defs>
</svg>
